G04 #@! TF.GenerationSoftware,KiCad,Pcbnew,5.1.0*
G04 #@! TF.CreationDate,2019-05-14T15:50:41+02:00*
G04 #@! TF.ProjectId,AluPCB,416c7550-4342-42e6-9b69-6361645f7063,rev?*
G04 #@! TF.SameCoordinates,Original*
G04 #@! TF.FileFunction,Legend,Top*
G04 #@! TF.FilePolarity,Positive*
%FSLAX46Y46*%
G04 Gerber Fmt 4.6, Leading zero omitted, Abs format (unit mm)*
G04 Created by KiCad (PCBNEW 5.1.0) date 2019-05-14 15:50:41*
%MOMM*%
%LPD*%
G04 APERTURE LIST*
%ADD10C,0.120000*%
%ADD11C,0.150000*%
%ADD12C,0.300000*%
%ADD13C,0.250000*%
G04 APERTURE END LIST*
D10*
X79700000Y-65900000D02*
X75500000Y-65900000D01*
X79700000Y-58700000D02*
X79700000Y-65900000D01*
X75500000Y-58700000D02*
X79700000Y-58700000D01*
X75500000Y-65900000D02*
X75500000Y-58700000D01*
X21700000Y-66100000D02*
X25900000Y-66100000D01*
X21700000Y-58900000D02*
X21700000Y-66100000D01*
X25900000Y-58900000D02*
X21700000Y-58900000D01*
X25900000Y-66100000D02*
X25900000Y-58900000D01*
X34500000Y-30800000D02*
X34500000Y-35800000D01*
X41900000Y-30800000D02*
X34500000Y-30800000D01*
X41900000Y-35800000D02*
X41900000Y-30800000D01*
X34500000Y-35800000D02*
X41900000Y-35800000D01*
X34500000Y-49700000D02*
X41900000Y-49700000D01*
X34500000Y-44700000D02*
X34500000Y-49700000D01*
X41900000Y-44700000D02*
X34500000Y-44700000D01*
X41900000Y-49700000D02*
X41900000Y-44700000D01*
X34500000Y-64000000D02*
X34500000Y-59000000D01*
X41900000Y-64000000D02*
X34500000Y-64000000D01*
X41900000Y-59000000D02*
X41900000Y-64000000D01*
X34500000Y-59000000D02*
X41900000Y-59000000D01*
D11*
X28427380Y-36690476D02*
X27427380Y-36690476D01*
X27427380Y-36452380D01*
X27475000Y-36309523D01*
X27570238Y-36214285D01*
X27665476Y-36166666D01*
X27855952Y-36119047D01*
X27998809Y-36119047D01*
X28189285Y-36166666D01*
X28284523Y-36214285D01*
X28379761Y-36309523D01*
X28427380Y-36452380D01*
X28427380Y-36690476D01*
X28379761Y-35309523D02*
X28427380Y-35404761D01*
X28427380Y-35595238D01*
X28379761Y-35690476D01*
X28284523Y-35738095D01*
X27903571Y-35738095D01*
X27808333Y-35690476D01*
X27760714Y-35595238D01*
X27760714Y-35404761D01*
X27808333Y-35309523D01*
X27903571Y-35261904D01*
X27998809Y-35261904D01*
X28094047Y-35738095D01*
X28379761Y-34880952D02*
X28427380Y-34785714D01*
X28427380Y-34595238D01*
X28379761Y-34500000D01*
X28284523Y-34452380D01*
X28236904Y-34452380D01*
X28141666Y-34500000D01*
X28094047Y-34595238D01*
X28094047Y-34738095D01*
X28046428Y-34833333D01*
X27951190Y-34880952D01*
X27903571Y-34880952D01*
X27808333Y-34833333D01*
X27760714Y-34738095D01*
X27760714Y-34595238D01*
X27808333Y-34500000D01*
X28427380Y-34023809D02*
X27760714Y-34023809D01*
X27427380Y-34023809D02*
X27475000Y-34071428D01*
X27522619Y-34023809D01*
X27475000Y-33976190D01*
X27427380Y-34023809D01*
X27522619Y-34023809D01*
X27760714Y-33119047D02*
X28570238Y-33119047D01*
X28665476Y-33166666D01*
X28713095Y-33214285D01*
X28760714Y-33309523D01*
X28760714Y-33452380D01*
X28713095Y-33547619D01*
X28379761Y-33119047D02*
X28427380Y-33214285D01*
X28427380Y-33404761D01*
X28379761Y-33500000D01*
X28332142Y-33547619D01*
X28236904Y-33595238D01*
X27951190Y-33595238D01*
X27855952Y-33547619D01*
X27808333Y-33500000D01*
X27760714Y-33404761D01*
X27760714Y-33214285D01*
X27808333Y-33119047D01*
X27760714Y-32642857D02*
X28427380Y-32642857D01*
X27855952Y-32642857D02*
X27808333Y-32595238D01*
X27760714Y-32500000D01*
X27760714Y-32357142D01*
X27808333Y-32261904D01*
X27903571Y-32214285D01*
X28427380Y-32214285D01*
X28427380Y-30976190D02*
X27427380Y-30976190D01*
X27808333Y-30976190D02*
X27760714Y-30880952D01*
X27760714Y-30690476D01*
X27808333Y-30595238D01*
X27855952Y-30547619D01*
X27951190Y-30500000D01*
X28236904Y-30500000D01*
X28332142Y-30547619D01*
X28379761Y-30595238D01*
X28427380Y-30690476D01*
X28427380Y-30880952D01*
X28379761Y-30976190D01*
X27760714Y-30166666D02*
X28427380Y-29928571D01*
X27760714Y-29690476D02*
X28427380Y-29928571D01*
X28665476Y-30023809D01*
X28713095Y-30071428D01*
X28760714Y-30166666D01*
X28332142Y-29309523D02*
X28379761Y-29261904D01*
X28427380Y-29309523D01*
X28379761Y-29357142D01*
X28332142Y-29309523D01*
X28427380Y-29309523D01*
X27808333Y-29309523D02*
X27855952Y-29261904D01*
X27903571Y-29309523D01*
X27855952Y-29357142D01*
X27808333Y-29309523D01*
X27903571Y-29309523D01*
X29077380Y-40047619D02*
X29791666Y-40047619D01*
X29934523Y-40095238D01*
X30029761Y-40190476D01*
X30077380Y-40333333D01*
X30077380Y-40428571D01*
X30077380Y-39142857D02*
X29553571Y-39142857D01*
X29458333Y-39190476D01*
X29410714Y-39285714D01*
X29410714Y-39476190D01*
X29458333Y-39571428D01*
X30029761Y-39142857D02*
X30077380Y-39238095D01*
X30077380Y-39476190D01*
X30029761Y-39571428D01*
X29934523Y-39619047D01*
X29839285Y-39619047D01*
X29744047Y-39571428D01*
X29696428Y-39476190D01*
X29696428Y-39238095D01*
X29648809Y-39142857D01*
X29410714Y-38666666D02*
X30077380Y-38666666D01*
X29505952Y-38666666D02*
X29458333Y-38619047D01*
X29410714Y-38523809D01*
X29410714Y-38380952D01*
X29458333Y-38285714D01*
X29553571Y-38238095D01*
X30077380Y-38238095D01*
X30077380Y-37000000D02*
X29077380Y-37000000D01*
X29553571Y-37000000D02*
X29553571Y-36428571D01*
X30077380Y-36428571D02*
X29077380Y-36428571D01*
X30029761Y-35571428D02*
X30077380Y-35666666D01*
X30077380Y-35857142D01*
X30029761Y-35952380D01*
X29934523Y-36000000D01*
X29553571Y-36000000D01*
X29458333Y-35952380D01*
X29410714Y-35857142D01*
X29410714Y-35666666D01*
X29458333Y-35571428D01*
X29553571Y-35523809D01*
X29648809Y-35523809D01*
X29744047Y-36000000D01*
X29410714Y-35095238D02*
X30077380Y-35095238D01*
X29505952Y-35095238D02*
X29458333Y-35047619D01*
X29410714Y-34952380D01*
X29410714Y-34809523D01*
X29458333Y-34714285D01*
X29553571Y-34666666D01*
X30077380Y-34666666D01*
X30077380Y-34190476D02*
X29410714Y-34190476D01*
X29601190Y-34190476D02*
X29505952Y-34142857D01*
X29458333Y-34095238D01*
X29410714Y-34000000D01*
X29410714Y-33904761D01*
X30077380Y-33571428D02*
X29410714Y-33571428D01*
X29077380Y-33571428D02*
X29125000Y-33619047D01*
X29172619Y-33571428D01*
X29125000Y-33523809D01*
X29077380Y-33571428D01*
X29172619Y-33571428D01*
X30077380Y-33095238D02*
X29077380Y-33095238D01*
X29696428Y-33000000D02*
X30077380Y-32714285D01*
X29410714Y-32714285D02*
X29791666Y-33095238D01*
X30077380Y-31523809D02*
X29077380Y-31523809D01*
X29553571Y-31523809D02*
X29553571Y-30952380D01*
X30077380Y-30952380D02*
X29077380Y-30952380D01*
X30029761Y-30095238D02*
X30077380Y-30190476D01*
X30077380Y-30380952D01*
X30029761Y-30476190D01*
X29934523Y-30523809D01*
X29553571Y-30523809D01*
X29458333Y-30476190D01*
X29410714Y-30380952D01*
X29410714Y-30190476D01*
X29458333Y-30095238D01*
X29553571Y-30047619D01*
X29648809Y-30047619D01*
X29744047Y-30523809D01*
X30077380Y-29619047D02*
X29410714Y-29619047D01*
X29505952Y-29619047D02*
X29458333Y-29571428D01*
X29410714Y-29476190D01*
X29410714Y-29333333D01*
X29458333Y-29238095D01*
X29553571Y-29190476D01*
X30077380Y-29190476D01*
X29553571Y-29190476D02*
X29458333Y-29142857D01*
X29410714Y-29047619D01*
X29410714Y-28904761D01*
X29458333Y-28809523D01*
X29553571Y-28761904D01*
X30077380Y-28761904D01*
X30029761Y-28333333D02*
X30077380Y-28238095D01*
X30077380Y-28047619D01*
X30029761Y-27952380D01*
X29934523Y-27904761D01*
X29886904Y-27904761D01*
X29791666Y-27952380D01*
X29744047Y-28047619D01*
X29744047Y-28190476D01*
X29696428Y-28285714D01*
X29601190Y-28333333D01*
X29553571Y-28333333D01*
X29458333Y-28285714D01*
X29410714Y-28190476D01*
X29410714Y-28047619D01*
X29458333Y-27952380D01*
X30077380Y-27476190D02*
X29410714Y-27476190D01*
X29077380Y-27476190D02*
X29125000Y-27523809D01*
X29172619Y-27476190D01*
X29125000Y-27428571D01*
X29077380Y-27476190D01*
X29172619Y-27476190D01*
X29410714Y-27000000D02*
X30077380Y-27000000D01*
X29505952Y-27000000D02*
X29458333Y-26952380D01*
X29410714Y-26857142D01*
X29410714Y-26714285D01*
X29458333Y-26619047D01*
X29553571Y-26571428D01*
X30077380Y-26571428D01*
X29410714Y-25666666D02*
X30220238Y-25666666D01*
X30315476Y-25714285D01*
X30363095Y-25761904D01*
X30410714Y-25857142D01*
X30410714Y-26000000D01*
X30363095Y-26095238D01*
X30029761Y-25666666D02*
X30077380Y-25761904D01*
X30077380Y-25952380D01*
X30029761Y-26047619D01*
X29982142Y-26095238D01*
X29886904Y-26142857D01*
X29601190Y-26142857D01*
X29505952Y-26095238D01*
X29458333Y-26047619D01*
X29410714Y-25952380D01*
X29410714Y-25761904D01*
X29458333Y-25666666D01*
X25961904Y-39704761D02*
X26761904Y-39438095D01*
X25961904Y-39171428D01*
X26761904Y-38904761D02*
X26228571Y-38904761D01*
X26304761Y-38904761D02*
X26266666Y-38866666D01*
X26228571Y-38790476D01*
X26228571Y-38676190D01*
X26266666Y-38600000D01*
X26342857Y-38561904D01*
X26761904Y-38561904D01*
X26342857Y-38561904D02*
X26266666Y-38523809D01*
X26228571Y-38447619D01*
X26228571Y-38333333D01*
X26266666Y-38257142D01*
X26342857Y-38219047D01*
X26761904Y-38219047D01*
X26761904Y-37495238D02*
X26342857Y-37495238D01*
X26266666Y-37533333D01*
X26228571Y-37609523D01*
X26228571Y-37761904D01*
X26266666Y-37838095D01*
X26723809Y-37495238D02*
X26761904Y-37571428D01*
X26761904Y-37761904D01*
X26723809Y-37838095D01*
X26647619Y-37876190D01*
X26571428Y-37876190D01*
X26495238Y-37838095D01*
X26457142Y-37761904D01*
X26457142Y-37571428D01*
X26419047Y-37495238D01*
X26761904Y-37190476D02*
X26228571Y-36771428D01*
X26228571Y-37190476D02*
X26761904Y-36771428D01*
X26685714Y-36466666D02*
X26723809Y-36428571D01*
X26761904Y-36466666D01*
X26723809Y-36504761D01*
X26685714Y-36466666D01*
X26761904Y-36466666D01*
X26266666Y-36466666D02*
X26304761Y-36428571D01*
X26342857Y-36466666D01*
X26304761Y-36504761D01*
X26266666Y-36466666D01*
X26342857Y-36466666D01*
X26304761Y-35361904D02*
X26266666Y-35438095D01*
X26228571Y-35476190D01*
X26152380Y-35514285D01*
X26114285Y-35514285D01*
X26038095Y-35476190D01*
X26000000Y-35438095D01*
X25961904Y-35361904D01*
X25961904Y-35209523D01*
X26000000Y-35133333D01*
X26038095Y-35095238D01*
X26114285Y-35057142D01*
X26152380Y-35057142D01*
X26228571Y-35095238D01*
X26266666Y-35133333D01*
X26304761Y-35209523D01*
X26304761Y-35361904D01*
X26342857Y-35438095D01*
X26380952Y-35476190D01*
X26457142Y-35514285D01*
X26609523Y-35514285D01*
X26685714Y-35476190D01*
X26723809Y-35438095D01*
X26761904Y-35361904D01*
X26761904Y-35209523D01*
X26723809Y-35133333D01*
X26685714Y-35095238D01*
X26609523Y-35057142D01*
X26457142Y-35057142D01*
X26380952Y-35095238D01*
X26342857Y-35133333D01*
X26304761Y-35209523D01*
X25961904Y-34561904D02*
X25961904Y-34485714D01*
X26000000Y-34409523D01*
X26038095Y-34371428D01*
X26114285Y-34333333D01*
X26266666Y-34295238D01*
X26457142Y-34295238D01*
X26609523Y-34333333D01*
X26685714Y-34371428D01*
X26723809Y-34409523D01*
X26761904Y-34485714D01*
X26761904Y-34561904D01*
X26723809Y-34638095D01*
X26685714Y-34676190D01*
X26609523Y-34714285D01*
X26457142Y-34752380D01*
X26266666Y-34752380D01*
X26114285Y-34714285D01*
X26038095Y-34676190D01*
X26000000Y-34638095D01*
X25961904Y-34561904D01*
X25961904Y-34066666D02*
X26761904Y-33800000D01*
X25961904Y-33533333D01*
X26761904Y-32047619D02*
X25961904Y-32047619D01*
X26761904Y-31666666D02*
X26228571Y-31666666D01*
X26304761Y-31666666D02*
X26266666Y-31628571D01*
X26228571Y-31552380D01*
X26228571Y-31438095D01*
X26266666Y-31361904D01*
X26342857Y-31323809D01*
X26761904Y-31323809D01*
X26342857Y-31323809D02*
X26266666Y-31285714D01*
X26228571Y-31209523D01*
X26228571Y-31095238D01*
X26266666Y-31019047D01*
X26342857Y-30980952D01*
X26761904Y-30980952D01*
X26761904Y-30257142D02*
X26342857Y-30257142D01*
X26266666Y-30295238D01*
X26228571Y-30371428D01*
X26228571Y-30523809D01*
X26266666Y-30600000D01*
X26723809Y-30257142D02*
X26761904Y-30333333D01*
X26761904Y-30523809D01*
X26723809Y-30600000D01*
X26647619Y-30638095D01*
X26571428Y-30638095D01*
X26495238Y-30600000D01*
X26457142Y-30523809D01*
X26457142Y-30333333D01*
X26419047Y-30257142D01*
X26761904Y-29952380D02*
X26228571Y-29533333D01*
X26228571Y-29952380D02*
X26761904Y-29533333D01*
X26685714Y-29228571D02*
X26723809Y-29190476D01*
X26761904Y-29228571D01*
X26723809Y-29266666D01*
X26685714Y-29228571D01*
X26761904Y-29228571D01*
X26266666Y-29228571D02*
X26304761Y-29190476D01*
X26342857Y-29228571D01*
X26304761Y-29266666D01*
X26266666Y-29228571D01*
X26342857Y-29228571D01*
X25961904Y-27857142D02*
X25961904Y-28238095D01*
X26342857Y-28276190D01*
X26304761Y-28238095D01*
X26266666Y-28161904D01*
X26266666Y-27971428D01*
X26304761Y-27895238D01*
X26342857Y-27857142D01*
X26419047Y-27819047D01*
X26609523Y-27819047D01*
X26685714Y-27857142D01*
X26723809Y-27895238D01*
X26761904Y-27971428D01*
X26761904Y-28161904D01*
X26723809Y-28238095D01*
X26685714Y-28276190D01*
X25961904Y-27323809D02*
X25961904Y-27247619D01*
X26000000Y-27171428D01*
X26038095Y-27133333D01*
X26114285Y-27095238D01*
X26266666Y-27057142D01*
X26457142Y-27057142D01*
X26609523Y-27095238D01*
X26685714Y-27133333D01*
X26723809Y-27171428D01*
X26761904Y-27247619D01*
X26761904Y-27323809D01*
X26723809Y-27400000D01*
X26685714Y-27438095D01*
X26609523Y-27476190D01*
X26457142Y-27514285D01*
X26266666Y-27514285D01*
X26114285Y-27476190D01*
X26038095Y-27438095D01*
X26000000Y-27400000D01*
X25961904Y-27323809D01*
X26533333Y-26752380D02*
X26533333Y-26371428D01*
X26761904Y-26828571D02*
X25961904Y-26561904D01*
X26761904Y-26295238D01*
D12*
X24878571Y-40285714D02*
X23378571Y-40285714D01*
X23378571Y-39714285D01*
X23450000Y-39571428D01*
X23521428Y-39500000D01*
X23664285Y-39428571D01*
X23878571Y-39428571D01*
X24021428Y-39500000D01*
X24092857Y-39571428D01*
X24164285Y-39714285D01*
X24164285Y-40285714D01*
X24878571Y-38571428D02*
X24807142Y-38714285D01*
X24735714Y-38785714D01*
X24592857Y-38857142D01*
X24164285Y-38857142D01*
X24021428Y-38785714D01*
X23950000Y-38714285D01*
X23878571Y-38571428D01*
X23878571Y-38357142D01*
X23950000Y-38214285D01*
X24021428Y-38142857D01*
X24164285Y-38071428D01*
X24592857Y-38071428D01*
X24735714Y-38142857D01*
X24807142Y-38214285D01*
X24878571Y-38357142D01*
X24878571Y-38571428D01*
X23878571Y-37571428D02*
X24878571Y-37285714D01*
X24164285Y-37000000D01*
X24878571Y-36714285D01*
X23878571Y-36428571D01*
X24807142Y-35285714D02*
X24878571Y-35428571D01*
X24878571Y-35714285D01*
X24807142Y-35857142D01*
X24664285Y-35928571D01*
X24092857Y-35928571D01*
X23950000Y-35857142D01*
X23878571Y-35714285D01*
X23878571Y-35428571D01*
X23950000Y-35285714D01*
X24092857Y-35214285D01*
X24235714Y-35214285D01*
X24378571Y-35928571D01*
X24878571Y-34571428D02*
X23878571Y-34571428D01*
X24164285Y-34571428D02*
X24021428Y-34500000D01*
X23950000Y-34428571D01*
X23878571Y-34285714D01*
X23878571Y-34142857D01*
X24807142Y-33714285D02*
X24878571Y-33571428D01*
X24878571Y-33285714D01*
X24807142Y-33142857D01*
X24664285Y-33071428D01*
X24592857Y-33071428D01*
X24450000Y-33142857D01*
X24378571Y-33285714D01*
X24378571Y-33500000D01*
X24307142Y-33642857D01*
X24164285Y-33714285D01*
X24092857Y-33714285D01*
X23950000Y-33642857D01*
X23878571Y-33500000D01*
X23878571Y-33285714D01*
X23950000Y-33142857D01*
X23878571Y-32642857D02*
X23878571Y-32071428D01*
X23378571Y-32428571D02*
X24664285Y-32428571D01*
X24807142Y-32357142D01*
X24878571Y-32214285D01*
X24878571Y-32071428D01*
X24878571Y-30928571D02*
X24092857Y-30928571D01*
X23950000Y-31000000D01*
X23878571Y-31142857D01*
X23878571Y-31428571D01*
X23950000Y-31571428D01*
X24807142Y-30928571D02*
X24878571Y-31071428D01*
X24878571Y-31428571D01*
X24807142Y-31571428D01*
X24664285Y-31642857D01*
X24521428Y-31642857D01*
X24378571Y-31571428D01*
X24307142Y-31428571D01*
X24307142Y-31071428D01*
X24235714Y-30928571D01*
X23878571Y-29571428D02*
X25092857Y-29571428D01*
X25235714Y-29642857D01*
X25307142Y-29714285D01*
X25378571Y-29857142D01*
X25378571Y-30071428D01*
X25307142Y-30214285D01*
X24807142Y-29571428D02*
X24878571Y-29714285D01*
X24878571Y-30000000D01*
X24807142Y-30142857D01*
X24735714Y-30214285D01*
X24592857Y-30285714D01*
X24164285Y-30285714D01*
X24021428Y-30214285D01*
X23950000Y-30142857D01*
X23878571Y-30000000D01*
X23878571Y-29714285D01*
X23950000Y-29571428D01*
X24807142Y-28285714D02*
X24878571Y-28428571D01*
X24878571Y-28714285D01*
X24807142Y-28857142D01*
X24664285Y-28928571D01*
X24092857Y-28928571D01*
X23950000Y-28857142D01*
X23878571Y-28714285D01*
X23878571Y-28428571D01*
X23950000Y-28285714D01*
X24092857Y-28214285D01*
X24235714Y-28214285D01*
X24378571Y-28928571D01*
X24878571Y-25642857D02*
X24878571Y-26500000D01*
X24878571Y-26071428D02*
X23378571Y-26071428D01*
X23592857Y-26214285D01*
X23735714Y-26357142D01*
X23807142Y-26500000D01*
X20841666Y-42000000D02*
X20841666Y-41666666D01*
X20925000Y-41500000D01*
X21091666Y-41333333D01*
X21425000Y-41250000D01*
X22008333Y-41250000D01*
X22341666Y-41333333D01*
X22508333Y-41500000D01*
X22591666Y-41666666D01*
X22591666Y-42000000D01*
X22508333Y-42166666D01*
X22341666Y-42333333D01*
X22008333Y-42416666D01*
X21425000Y-42416666D01*
X21091666Y-42333333D01*
X20925000Y-42166666D01*
X20841666Y-42000000D01*
X21425000Y-40750000D02*
X21425000Y-40083333D01*
X20841666Y-40500000D02*
X22341666Y-40500000D01*
X22508333Y-40416666D01*
X22591666Y-40250000D01*
X22591666Y-40083333D01*
X21425000Y-39750000D02*
X21425000Y-39083333D01*
X20841666Y-39500000D02*
X22341666Y-39500000D01*
X22508333Y-39416666D01*
X22591666Y-39250000D01*
X22591666Y-39083333D01*
X22508333Y-37833333D02*
X22591666Y-38000000D01*
X22591666Y-38333333D01*
X22508333Y-38500000D01*
X22341666Y-38583333D01*
X21675000Y-38583333D01*
X21508333Y-38500000D01*
X21425000Y-38333333D01*
X21425000Y-38000000D01*
X21508333Y-37833333D01*
X21675000Y-37750000D01*
X21841666Y-37750000D01*
X22008333Y-38583333D01*
X22591666Y-37000000D02*
X21425000Y-37000000D01*
X21758333Y-37000000D02*
X21591666Y-36916666D01*
X21508333Y-36833333D01*
X21425000Y-36666666D01*
X21425000Y-36500000D01*
X22425000Y-34916666D02*
X22508333Y-35000000D01*
X22591666Y-35250000D01*
X22591666Y-35416666D01*
X22508333Y-35666666D01*
X22341666Y-35833333D01*
X22175000Y-35916666D01*
X21841666Y-36000000D01*
X21591666Y-36000000D01*
X21258333Y-35916666D01*
X21091666Y-35833333D01*
X20925000Y-35666666D01*
X20841666Y-35416666D01*
X20841666Y-35250000D01*
X20925000Y-35000000D01*
X21008333Y-34916666D01*
X22591666Y-33916666D02*
X22508333Y-34083333D01*
X22425000Y-34166666D01*
X22258333Y-34250000D01*
X21758333Y-34250000D01*
X21591666Y-34166666D01*
X21508333Y-34083333D01*
X21425000Y-33916666D01*
X21425000Y-33666666D01*
X21508333Y-33500000D01*
X21591666Y-33416666D01*
X21758333Y-33333333D01*
X22258333Y-33333333D01*
X22425000Y-33416666D01*
X22508333Y-33500000D01*
X22591666Y-33666666D01*
X22591666Y-33916666D01*
X21425000Y-32583333D02*
X22591666Y-32583333D01*
X21591666Y-32583333D02*
X21508333Y-32500000D01*
X21425000Y-32333333D01*
X21425000Y-32083333D01*
X21508333Y-31916666D01*
X21675000Y-31833333D01*
X22591666Y-31833333D01*
X21425000Y-31250000D02*
X21425000Y-30583333D01*
X20841666Y-31000000D02*
X22341666Y-31000000D01*
X22508333Y-30916666D01*
X22591666Y-30750000D01*
X22591666Y-30583333D01*
X22591666Y-30000000D02*
X21425000Y-30000000D01*
X21758333Y-30000000D02*
X21591666Y-29916666D01*
X21508333Y-29833333D01*
X21425000Y-29666666D01*
X21425000Y-29500000D01*
X22591666Y-28666666D02*
X22508333Y-28833333D01*
X22425000Y-28916666D01*
X22258333Y-29000000D01*
X21758333Y-29000000D01*
X21591666Y-28916666D01*
X21508333Y-28833333D01*
X21425000Y-28666666D01*
X21425000Y-28416666D01*
X21508333Y-28250000D01*
X21591666Y-28166666D01*
X21758333Y-28083333D01*
X22258333Y-28083333D01*
X22425000Y-28166666D01*
X22508333Y-28250000D01*
X22591666Y-28416666D01*
X22591666Y-28666666D01*
X22591666Y-27083333D02*
X22508333Y-27250000D01*
X22341666Y-27333333D01*
X20841666Y-27333333D01*
X22591666Y-26416666D02*
X20841666Y-26416666D01*
X22591666Y-25416666D01*
X20841666Y-25416666D01*
X20925000Y-23666666D02*
X20841666Y-23833333D01*
X20841666Y-24083333D01*
X20925000Y-24333333D01*
X21091666Y-24500000D01*
X21258333Y-24583333D01*
X21591666Y-24666666D01*
X21841666Y-24666666D01*
X22175000Y-24583333D01*
X22341666Y-24500000D01*
X22508333Y-24333333D01*
X22591666Y-24083333D01*
X22591666Y-23916666D01*
X22508333Y-23666666D01*
X22425000Y-23583333D01*
X21841666Y-23583333D01*
X21841666Y-23916666D01*
X32214285Y-33714285D02*
X33671428Y-33714285D01*
X33842857Y-33628571D01*
X33928571Y-33542857D01*
X34014285Y-33371428D01*
X34014285Y-33028571D01*
X33928571Y-32857142D01*
X33842857Y-32771428D01*
X33671428Y-32685714D01*
X32214285Y-32685714D01*
X32214285Y-47800000D02*
X34014285Y-47200000D01*
X32214285Y-46600000D01*
X32214285Y-62571428D02*
X34014285Y-62142857D01*
X32728571Y-61800000D01*
X34014285Y-61457142D01*
X32214285Y-61028571D01*
D13*
X22704761Y-57552380D02*
X23038095Y-58552380D01*
X23371428Y-57552380D01*
X23704761Y-58552380D02*
X23704761Y-57552380D01*
X24180952Y-58552380D02*
X24180952Y-57552380D01*
X24752380Y-58552380D01*
X24752380Y-57552380D01*
X76838095Y-57400000D02*
X76742857Y-57352380D01*
X76600000Y-57352380D01*
X76457142Y-57400000D01*
X76361904Y-57495238D01*
X76314285Y-57590476D01*
X76266666Y-57780952D01*
X76266666Y-57923809D01*
X76314285Y-58114285D01*
X76361904Y-58209523D01*
X76457142Y-58304761D01*
X76600000Y-58352380D01*
X76695238Y-58352380D01*
X76838095Y-58304761D01*
X76885714Y-58257142D01*
X76885714Y-57923809D01*
X76695238Y-57923809D01*
X77314285Y-58352380D02*
X77314285Y-57352380D01*
X77885714Y-58352380D01*
X77885714Y-57352380D01*
X78361904Y-58352380D02*
X78361904Y-57352380D01*
X78600000Y-57352380D01*
X78742857Y-57400000D01*
X78838095Y-57495238D01*
X78885714Y-57590476D01*
X78933333Y-57780952D01*
X78933333Y-57923809D01*
X78885714Y-58114285D01*
X78838095Y-58209523D01*
X78742857Y-58304761D01*
X78600000Y-58352380D01*
X78361904Y-58352380D01*
D10*
X56685000Y-27340000D02*
X59060000Y-27340000D01*
X52685000Y-27340000D02*
X55315000Y-27340000D01*
X48685000Y-27340000D02*
X51315000Y-27340000D01*
X54685000Y-25220000D02*
X57315000Y-25220000D01*
X50685000Y-25220000D02*
X53315000Y-25220000D01*
X58685000Y-25220000D02*
X59060000Y-25220000D01*
X46940000Y-27340000D02*
X47315000Y-27340000D01*
X47315000Y-27340000D02*
X47315000Y-28570000D01*
X46940000Y-25220000D02*
X49315000Y-25220000D01*
X59060000Y-27340000D02*
X59060000Y-25220000D01*
X46940000Y-27340000D02*
X46940000Y-25220000D01*
X22690000Y-52595000D02*
X22690000Y-55225000D01*
X24810000Y-54595000D02*
X24810000Y-56970000D01*
X24810000Y-56595000D02*
X24810000Y-56970000D01*
X22690000Y-50850000D02*
X22690000Y-51225000D01*
X22690000Y-51225000D02*
X21460000Y-51225000D01*
X24810000Y-50850000D02*
X24810000Y-53225000D01*
X22690000Y-56970000D02*
X24810000Y-56970000D01*
X22690000Y-50850000D02*
X24810000Y-50850000D01*
X78060000Y-55225000D02*
X78060000Y-52595000D01*
X75940000Y-53225000D02*
X75940000Y-50850000D01*
X75940000Y-51225000D02*
X75940000Y-50850000D01*
X78060000Y-56970000D02*
X78060000Y-56595000D01*
X78060000Y-56595000D02*
X79290000Y-56595000D01*
X75940000Y-56970000D02*
X75940000Y-54595000D01*
X78060000Y-50850000D02*
X75940000Y-50850000D01*
X78060000Y-56970000D02*
X75940000Y-56970000D01*
X56685000Y-41260000D02*
X59060000Y-41260000D01*
X52685000Y-41260000D02*
X55315000Y-41260000D01*
X48685000Y-41260000D02*
X51315000Y-41260000D01*
X54685000Y-39140000D02*
X57315000Y-39140000D01*
X50685000Y-39140000D02*
X53315000Y-39140000D01*
X58685000Y-39140000D02*
X59060000Y-39140000D01*
X46940000Y-41260000D02*
X47315000Y-41260000D01*
X47315000Y-41260000D02*
X47315000Y-42490000D01*
X46940000Y-39140000D02*
X49315000Y-39140000D01*
X59060000Y-41260000D02*
X59060000Y-39140000D01*
X46940000Y-41260000D02*
X46940000Y-39140000D01*
X56685000Y-55480000D02*
X59060000Y-55480000D01*
X52685000Y-55480000D02*
X55315000Y-55480000D01*
X48685000Y-55480000D02*
X51315000Y-55480000D01*
X54685000Y-53360000D02*
X57315000Y-53360000D01*
X50685000Y-53360000D02*
X53315000Y-53360000D01*
X58685000Y-53360000D02*
X59060000Y-53360000D01*
X46940000Y-55480000D02*
X47315000Y-55480000D01*
X47315000Y-55480000D02*
X47315000Y-56710000D01*
X46940000Y-53360000D02*
X49315000Y-53360000D01*
X59060000Y-55480000D02*
X59060000Y-53360000D01*
X46940000Y-55480000D02*
X46940000Y-53360000D01*
X26587221Y-52860000D02*
X26912779Y-52860000D01*
X26587221Y-51840000D02*
X26912779Y-51840000D01*
X60286379Y-28124315D02*
X59082251Y-28124315D01*
X60286379Y-29944315D02*
X59082251Y-29944315D01*
X72597936Y-57910000D02*
X73802064Y-57910000D01*
X72597936Y-56090000D02*
X73802064Y-56090000D01*
X61240000Y-50897936D02*
X61240000Y-52102064D01*
X63060000Y-50897936D02*
X63060000Y-52102064D01*
X60286379Y-30324315D02*
X59082251Y-30324315D01*
X60286379Y-32144315D02*
X59082251Y-32144315D01*
X68910000Y-40102064D02*
X68910000Y-38897936D01*
X67090000Y-40102064D02*
X67090000Y-38897936D01*
X69202064Y-56090000D02*
X67997936Y-56090000D01*
X69202064Y-57910000D02*
X67997936Y-57910000D01*
X63440000Y-50897935D02*
X63440000Y-52102063D01*
X65260000Y-50897935D02*
X65260000Y-52102063D01*
X72597936Y-64490000D02*
X73802064Y-64490000D01*
X72597936Y-62670000D02*
X73802064Y-62670000D01*
X69452065Y-25890000D02*
X68247937Y-25890000D01*
X69452065Y-27710000D02*
X68247937Y-27710000D01*
X65640000Y-50897936D02*
X65640000Y-52102064D01*
X67460000Y-50897936D02*
X67460000Y-52102064D01*
X69452064Y-28090000D02*
X68247936Y-28090000D01*
X69452064Y-29910000D02*
X68247936Y-29910000D01*
X72597936Y-62310000D02*
X73802064Y-62310000D01*
X72597936Y-60490000D02*
X73802064Y-60490000D01*
X69202065Y-58310000D02*
X67997937Y-58310000D01*
X69202065Y-60130000D02*
X67997937Y-60130000D01*
X69452064Y-30290000D02*
X68247936Y-30290000D01*
X69452064Y-32110000D02*
X68247936Y-32110000D01*
X63647936Y-32110000D02*
X64852064Y-32110000D01*
X63647936Y-30290000D02*
X64852064Y-30290000D01*
X72597936Y-60110000D02*
X73802064Y-60110000D01*
X72597936Y-58290000D02*
X73802064Y-58290000D01*
X67890000Y-50897936D02*
X67890000Y-52102064D01*
X69710000Y-50897936D02*
X69710000Y-52102064D01*
X63647936Y-29910000D02*
X64852064Y-29910000D01*
X63647936Y-28090000D02*
X64852064Y-28090000D01*
X69202064Y-60490000D02*
X67997936Y-60490000D01*
X69202064Y-62310000D02*
X67997936Y-62310000D01*
X64290000Y-33997936D02*
X64290000Y-35202064D01*
X66110000Y-33997936D02*
X66110000Y-35202064D01*
X63397937Y-64490000D02*
X64602065Y-64490000D01*
X63397937Y-62670000D02*
X64602065Y-62670000D01*
X63647936Y-27710000D02*
X64852064Y-27710000D01*
X63647936Y-25890000D02*
X64852064Y-25890000D01*
X72847936Y-34310000D02*
X74052064Y-34310000D01*
X72847936Y-32490000D02*
X74052064Y-32490000D01*
X69202064Y-62690000D02*
X67997936Y-62690000D01*
X69202064Y-64510000D02*
X67997936Y-64510000D01*
X66490000Y-33997937D02*
X66490000Y-35202065D01*
X68310000Y-33997937D02*
X68310000Y-35202065D01*
X72847936Y-29910000D02*
X74052064Y-29910000D01*
X72847936Y-28090000D02*
X74052064Y-28090000D01*
X63397936Y-62310000D02*
X64602064Y-62310000D01*
X63397936Y-60490000D02*
X64602064Y-60490000D01*
X60002063Y-58310000D02*
X58797935Y-58310000D01*
X60002063Y-60130000D02*
X58797935Y-60130000D01*
X72847936Y-27710000D02*
X74052064Y-27710000D01*
X72847936Y-25890000D02*
X74052064Y-25890000D01*
X63397936Y-60110000D02*
X64602064Y-60110000D01*
X63397936Y-58290000D02*
X64602064Y-58290000D01*
X62090000Y-33997936D02*
X62090000Y-35202064D01*
X63910000Y-33997936D02*
X63910000Y-35202064D01*
X60002064Y-60490000D02*
X58797936Y-60490000D01*
X60002064Y-62310000D02*
X58797936Y-62310000D01*
X68690000Y-33997936D02*
X68690000Y-35202064D01*
X70510000Y-33997936D02*
X70510000Y-35202064D01*
X70090000Y-51547936D02*
X70090000Y-52752064D01*
X71910000Y-51547936D02*
X71910000Y-52752064D01*
X72847936Y-32110000D02*
X74052064Y-32110000D01*
X72847936Y-30290000D02*
X74052064Y-30290000D01*
X66660000Y-40102064D02*
X66660000Y-38897936D01*
X64840000Y-40102064D02*
X64840000Y-38897936D01*
X65597936Y-46060000D02*
X66802064Y-46060000D01*
X65597936Y-44240000D02*
X66802064Y-44240000D01*
X62202064Y-41990000D02*
X60997936Y-41990000D01*
X62202064Y-43810000D02*
X60997936Y-43810000D01*
X65597936Y-48310000D02*
X66802064Y-48310000D01*
X65597936Y-46490000D02*
X66802064Y-46490000D01*
X64360000Y-40102064D02*
X64360000Y-38897936D01*
X62540000Y-40102064D02*
X62540000Y-38897936D01*
X62202064Y-46490000D02*
X60997936Y-46490000D01*
X62202064Y-48310000D02*
X60997936Y-48310000D01*
X62202064Y-44240000D02*
X60997936Y-44240000D01*
X62202064Y-46060000D02*
X60997936Y-46060000D01*
X59060000Y-48802064D02*
X59060000Y-47597936D01*
X57240000Y-48802064D02*
X57240000Y-47597936D01*
X65597936Y-43810000D02*
X66802064Y-43810000D01*
X65597936Y-41990000D02*
X66802064Y-41990000D01*
X50947936Y-34590001D02*
X55052064Y-34590001D01*
X50947936Y-31170001D02*
X55052064Y-31170001D01*
X42948000Y-34775999D02*
X48548000Y-34775999D01*
X42948000Y-29575999D02*
X47748000Y-29575999D01*
X36000000Y-30080000D02*
X41600000Y-30080000D01*
X36000000Y-24880000D02*
X40800000Y-24880000D01*
X42948000Y-48634000D02*
X48548000Y-48634000D01*
X42948000Y-43434000D02*
X47748000Y-43434000D01*
X36000000Y-44000000D02*
X41600000Y-44000000D01*
X36000000Y-38800000D02*
X40800000Y-38800000D01*
X42948000Y-62992000D02*
X48548000Y-62992000D01*
X42948000Y-57792000D02*
X47748000Y-57792000D01*
X36000000Y-58300000D02*
X41600000Y-58300000D01*
X36000000Y-53100000D02*
X40800000Y-53100000D01*
X50947935Y-48506000D02*
X55052063Y-48506000D01*
X50947935Y-45086000D02*
X55052063Y-45086000D01*
X50947936Y-62730000D02*
X55052064Y-62730000D01*
X50947936Y-59310000D02*
X55052064Y-59310000D01*
M02*
