G04 #@! TF.GenerationSoftware,KiCad,Pcbnew,5.1.0*
G04 #@! TF.CreationDate,2019-05-14T15:50:41+02:00*
G04 #@! TF.ProjectId,AluPCB,416c7550-4342-42e6-9b69-6361645f7063,rev?*
G04 #@! TF.SameCoordinates,Original*
G04 #@! TF.FileFunction,Soldermask,Top*
G04 #@! TF.FilePolarity,Negative*
%FSLAX46Y46*%
G04 Gerber Fmt 4.6, Leading zero omitted, Abs format (unit mm)*
G04 Created by KiCad (PCBNEW 5.1.0) date 2019-05-14 15:50:41*
%MOMM*%
%LPD*%
G04 APERTURE LIST*
%ADD10C,0.100000*%
G04 APERTURE END LIST*
D10*
G36*
X25800000Y-66000000D02*
G01*
X21800000Y-66000000D01*
X21800000Y-59000000D01*
X25800000Y-59000000D01*
X25800000Y-66000000D01*
G37*
X25800000Y-66000000D02*
X21800000Y-66000000D01*
X21800000Y-59000000D01*
X25800000Y-59000000D01*
X25800000Y-66000000D01*
G36*
X79600000Y-65800000D02*
G01*
X75600000Y-65800000D01*
X75600000Y-58800000D01*
X79600000Y-58800000D01*
X79600000Y-65800000D01*
G37*
X79600000Y-65800000D02*
X75600000Y-65800000D01*
X75600000Y-58800000D01*
X79600000Y-58800000D01*
X79600000Y-65800000D01*
G36*
X41800000Y-35700000D02*
G01*
X34600000Y-35700000D01*
X34600000Y-30900000D01*
X41800000Y-30900000D01*
X41800000Y-35700000D01*
G37*
X41800000Y-35700000D02*
X34600000Y-35700000D01*
X34600000Y-30900000D01*
X41800000Y-30900000D01*
X41800000Y-35700000D01*
G36*
X41800000Y-49600000D02*
G01*
X34600000Y-49600000D01*
X34600000Y-44800000D01*
X41800000Y-44800000D01*
X41800000Y-49600000D01*
G37*
X41800000Y-49600000D02*
X34600000Y-49600000D01*
X34600000Y-44800000D01*
X41800000Y-44800000D01*
X41800000Y-49600000D01*
G36*
X41800000Y-63900000D02*
G01*
X34600000Y-63900000D01*
X34600000Y-59100000D01*
X41800000Y-59100000D01*
X41800000Y-63900000D01*
G37*
X41800000Y-63900000D02*
X34600000Y-63900000D01*
X34600000Y-59100000D01*
X41800000Y-59100000D01*
X41800000Y-63900000D01*
G36*
X70518604Y-62678347D02*
G01*
X70555144Y-62689432D01*
X70588821Y-62707433D01*
X70618341Y-62731659D01*
X70642567Y-62761179D01*
X70660568Y-62794856D01*
X70671653Y-62831396D01*
X70676000Y-62875538D01*
X70676000Y-64324462D01*
X70671653Y-64368604D01*
X70660568Y-64405144D01*
X70642567Y-64438821D01*
X70618341Y-64468341D01*
X70588821Y-64492567D01*
X70555144Y-64510568D01*
X70518604Y-64521653D01*
X70474462Y-64526000D01*
X69525538Y-64526000D01*
X69481396Y-64521653D01*
X69444856Y-64510568D01*
X69411179Y-64492567D01*
X69381659Y-64468341D01*
X69357433Y-64438821D01*
X69339432Y-64405144D01*
X69328347Y-64368604D01*
X69324000Y-64324462D01*
X69324000Y-62875538D01*
X69328347Y-62831396D01*
X69339432Y-62794856D01*
X69357433Y-62761179D01*
X69381659Y-62731659D01*
X69411179Y-62707433D01*
X69444856Y-62689432D01*
X69481396Y-62678347D01*
X69525538Y-62674000D01*
X70474462Y-62674000D01*
X70518604Y-62678347D01*
X70518604Y-62678347D01*
G37*
G36*
X67718604Y-62678347D02*
G01*
X67755144Y-62689432D01*
X67788821Y-62707433D01*
X67818341Y-62731659D01*
X67842567Y-62761179D01*
X67860568Y-62794856D01*
X67871653Y-62831396D01*
X67876000Y-62875538D01*
X67876000Y-64324462D01*
X67871653Y-64368604D01*
X67860568Y-64405144D01*
X67842567Y-64438821D01*
X67818341Y-64468341D01*
X67788821Y-64492567D01*
X67755144Y-64510568D01*
X67718604Y-64521653D01*
X67674462Y-64526000D01*
X66725538Y-64526000D01*
X66681396Y-64521653D01*
X66644856Y-64510568D01*
X66611179Y-64492567D01*
X66581659Y-64468341D01*
X66557433Y-64438821D01*
X66539432Y-64405144D01*
X66528347Y-64368604D01*
X66524000Y-64324462D01*
X66524000Y-62875538D01*
X66528347Y-62831396D01*
X66539432Y-62794856D01*
X66557433Y-62761179D01*
X66581659Y-62731659D01*
X66611179Y-62707433D01*
X66644856Y-62689432D01*
X66681396Y-62678347D01*
X66725538Y-62674000D01*
X67674462Y-62674000D01*
X67718604Y-62678347D01*
X67718604Y-62678347D01*
G37*
G36*
X72318604Y-62658347D02*
G01*
X72355144Y-62669432D01*
X72388821Y-62687433D01*
X72418341Y-62711659D01*
X72442567Y-62741179D01*
X72460568Y-62774856D01*
X72471653Y-62811396D01*
X72476000Y-62855538D01*
X72476000Y-64304462D01*
X72471653Y-64348604D01*
X72460568Y-64385144D01*
X72442567Y-64418821D01*
X72418341Y-64448341D01*
X72388821Y-64472567D01*
X72355144Y-64490568D01*
X72318604Y-64501653D01*
X72274462Y-64506000D01*
X71325538Y-64506000D01*
X71281396Y-64501653D01*
X71244856Y-64490568D01*
X71211179Y-64472567D01*
X71181659Y-64448341D01*
X71157433Y-64418821D01*
X71139432Y-64385144D01*
X71128347Y-64348604D01*
X71124000Y-64304462D01*
X71124000Y-62855538D01*
X71128347Y-62811396D01*
X71139432Y-62774856D01*
X71157433Y-62741179D01*
X71181659Y-62711659D01*
X71211179Y-62687433D01*
X71244856Y-62669432D01*
X71281396Y-62658347D01*
X71325538Y-62654000D01*
X72274462Y-62654000D01*
X72318604Y-62658347D01*
X72318604Y-62658347D01*
G37*
G36*
X75118604Y-62658347D02*
G01*
X75155144Y-62669432D01*
X75188821Y-62687433D01*
X75218341Y-62711659D01*
X75242567Y-62741179D01*
X75260568Y-62774856D01*
X75271653Y-62811396D01*
X75276000Y-62855538D01*
X75276000Y-64304462D01*
X75271653Y-64348604D01*
X75260568Y-64385144D01*
X75242567Y-64418821D01*
X75218341Y-64448341D01*
X75188821Y-64472567D01*
X75155144Y-64490568D01*
X75118604Y-64501653D01*
X75074462Y-64506000D01*
X74125538Y-64506000D01*
X74081396Y-64501653D01*
X74044856Y-64490568D01*
X74011179Y-64472567D01*
X73981659Y-64448341D01*
X73957433Y-64418821D01*
X73939432Y-64385144D01*
X73928347Y-64348604D01*
X73924000Y-64304462D01*
X73924000Y-62855538D01*
X73928347Y-62811396D01*
X73939432Y-62774856D01*
X73957433Y-62741179D01*
X73981659Y-62711659D01*
X74011179Y-62687433D01*
X74044856Y-62669432D01*
X74081396Y-62658347D01*
X74125538Y-62654000D01*
X75074462Y-62654000D01*
X75118604Y-62658347D01*
X75118604Y-62658347D01*
G37*
G36*
X63118605Y-62658347D02*
G01*
X63155145Y-62669432D01*
X63188822Y-62687433D01*
X63218342Y-62711659D01*
X63242568Y-62741179D01*
X63260569Y-62774856D01*
X63271654Y-62811396D01*
X63276001Y-62855538D01*
X63276001Y-64304462D01*
X63271654Y-64348604D01*
X63260569Y-64385144D01*
X63242568Y-64418821D01*
X63218342Y-64448341D01*
X63188822Y-64472567D01*
X63155145Y-64490568D01*
X63118605Y-64501653D01*
X63074463Y-64506000D01*
X62125539Y-64506000D01*
X62081397Y-64501653D01*
X62044857Y-64490568D01*
X62011180Y-64472567D01*
X61981660Y-64448341D01*
X61957434Y-64418821D01*
X61939433Y-64385144D01*
X61928348Y-64348604D01*
X61924001Y-64304462D01*
X61924001Y-62855538D01*
X61928348Y-62811396D01*
X61939433Y-62774856D01*
X61957434Y-62741179D01*
X61981660Y-62711659D01*
X62011180Y-62687433D01*
X62044857Y-62669432D01*
X62081397Y-62658347D01*
X62125539Y-62654000D01*
X63074463Y-62654000D01*
X63118605Y-62658347D01*
X63118605Y-62658347D01*
G37*
G36*
X65918605Y-62658347D02*
G01*
X65955145Y-62669432D01*
X65988822Y-62687433D01*
X66018342Y-62711659D01*
X66042568Y-62741179D01*
X66060569Y-62774856D01*
X66071654Y-62811396D01*
X66076001Y-62855538D01*
X66076001Y-64304462D01*
X66071654Y-64348604D01*
X66060569Y-64385144D01*
X66042568Y-64418821D01*
X66018342Y-64448341D01*
X65988822Y-64472567D01*
X65955145Y-64490568D01*
X65918605Y-64501653D01*
X65874463Y-64506000D01*
X64925539Y-64506000D01*
X64881397Y-64501653D01*
X64844857Y-64490568D01*
X64811180Y-64472567D01*
X64781660Y-64448341D01*
X64757434Y-64418821D01*
X64739433Y-64385144D01*
X64728348Y-64348604D01*
X64724001Y-64304462D01*
X64724001Y-62855538D01*
X64728348Y-62811396D01*
X64739433Y-62774856D01*
X64757434Y-62741179D01*
X64781660Y-62711659D01*
X64811180Y-62687433D01*
X64844857Y-62669432D01*
X64881397Y-62658347D01*
X64925539Y-62654000D01*
X65874463Y-62654000D01*
X65918605Y-62658347D01*
X65918605Y-62658347D01*
G37*
G36*
X50672798Y-59298247D02*
G01*
X50708367Y-59309037D01*
X50741139Y-59326554D01*
X50769869Y-59350131D01*
X50793446Y-59378861D01*
X50810963Y-59411633D01*
X50821753Y-59447202D01*
X50826000Y-59490325D01*
X50826000Y-62549675D01*
X50821753Y-62592798D01*
X50810963Y-62628367D01*
X50793446Y-62661139D01*
X50769869Y-62689869D01*
X50741139Y-62713446D01*
X50708367Y-62730963D01*
X50672798Y-62741753D01*
X50629675Y-62746000D01*
X49570325Y-62746000D01*
X49527202Y-62741753D01*
X49491633Y-62730963D01*
X49458861Y-62713446D01*
X49430131Y-62689869D01*
X49406554Y-62661139D01*
X49389037Y-62628367D01*
X49378247Y-62592798D01*
X49374000Y-62549675D01*
X49374000Y-59490325D01*
X49378247Y-59447202D01*
X49389037Y-59411633D01*
X49406554Y-59378861D01*
X49430131Y-59350131D01*
X49458861Y-59326554D01*
X49491633Y-59309037D01*
X49527202Y-59298247D01*
X49570325Y-59294000D01*
X50629675Y-59294000D01*
X50672798Y-59298247D01*
X50672798Y-59298247D01*
G37*
G36*
X56472798Y-59298247D02*
G01*
X56508367Y-59309037D01*
X56541139Y-59326554D01*
X56569869Y-59350131D01*
X56593446Y-59378861D01*
X56610963Y-59411633D01*
X56621753Y-59447202D01*
X56626000Y-59490325D01*
X56626000Y-62549675D01*
X56621753Y-62592798D01*
X56610963Y-62628367D01*
X56593446Y-62661139D01*
X56569869Y-62689869D01*
X56541139Y-62713446D01*
X56508367Y-62730963D01*
X56472798Y-62741753D01*
X56429675Y-62746000D01*
X55370325Y-62746000D01*
X55327202Y-62741753D01*
X55291633Y-62730963D01*
X55258861Y-62713446D01*
X55230131Y-62689869D01*
X55206554Y-62661139D01*
X55189037Y-62628367D01*
X55178247Y-62592798D01*
X55174000Y-62549675D01*
X55174000Y-59490325D01*
X55178247Y-59447202D01*
X55189037Y-59411633D01*
X55206554Y-59378861D01*
X55230131Y-59350131D01*
X55258861Y-59326554D01*
X55291633Y-59309037D01*
X55327202Y-59298247D01*
X55370325Y-59294000D01*
X56429675Y-59294000D01*
X56472798Y-59298247D01*
X56472798Y-59298247D01*
G37*
G36*
X48549000Y-62698000D02*
G01*
X47747000Y-62698000D01*
X47747000Y-61896000D01*
X48549000Y-61896000D01*
X48549000Y-62698000D01*
X48549000Y-62698000D01*
G37*
G36*
X47244000Y-62698000D02*
G01*
X42147000Y-62698000D01*
X42147000Y-61896000D01*
X42667001Y-61896000D01*
X42691387Y-61893598D01*
X42714836Y-61886485D01*
X42736447Y-61874934D01*
X42755389Y-61859389D01*
X42770934Y-61840447D01*
X42782485Y-61818836D01*
X42789598Y-61795387D01*
X42792000Y-61771001D01*
X42792000Y-61552999D01*
X42789598Y-61528613D01*
X42782485Y-61505164D01*
X42770934Y-61483553D01*
X42755389Y-61464611D01*
X42736447Y-61449066D01*
X42714836Y-61437515D01*
X42691387Y-61430402D01*
X42667001Y-61428000D01*
X42147000Y-61428000D01*
X42147000Y-60626000D01*
X42667001Y-60626000D01*
X42691387Y-60623598D01*
X42714836Y-60616485D01*
X42736447Y-60604934D01*
X42755389Y-60589389D01*
X42770934Y-60570447D01*
X42782485Y-60548836D01*
X42789598Y-60525387D01*
X42792000Y-60501001D01*
X42792000Y-60282999D01*
X42789598Y-60258613D01*
X42782485Y-60235164D01*
X42770934Y-60213553D01*
X42755389Y-60194611D01*
X42736447Y-60179066D01*
X42714836Y-60167515D01*
X42691387Y-60160402D01*
X42667001Y-60158000D01*
X42147000Y-60158000D01*
X42147000Y-59356000D01*
X42667001Y-59356000D01*
X42691387Y-59353598D01*
X42714836Y-59346485D01*
X42736447Y-59334934D01*
X42755389Y-59319389D01*
X42770934Y-59300447D01*
X42782485Y-59278836D01*
X42789598Y-59255387D01*
X42792000Y-59231001D01*
X42792000Y-59012999D01*
X42789598Y-58988613D01*
X42782485Y-58965164D01*
X42770934Y-58943553D01*
X42755389Y-58924611D01*
X42736447Y-58909066D01*
X42714836Y-58897515D01*
X42691387Y-58890402D01*
X42667001Y-58888000D01*
X42147000Y-58888000D01*
X42147000Y-58086000D01*
X47244000Y-58086000D01*
X47244000Y-62698000D01*
X47244000Y-62698000D01*
G37*
G36*
X70518604Y-60478347D02*
G01*
X70555144Y-60489432D01*
X70588821Y-60507433D01*
X70618341Y-60531659D01*
X70642567Y-60561179D01*
X70660568Y-60594856D01*
X70671653Y-60631396D01*
X70676000Y-60675538D01*
X70676000Y-62124462D01*
X70671653Y-62168604D01*
X70660568Y-62205144D01*
X70642567Y-62238821D01*
X70618341Y-62268341D01*
X70588821Y-62292567D01*
X70555144Y-62310568D01*
X70518604Y-62321653D01*
X70474462Y-62326000D01*
X69525538Y-62326000D01*
X69481396Y-62321653D01*
X69444856Y-62310568D01*
X69411179Y-62292567D01*
X69381659Y-62268341D01*
X69357433Y-62238821D01*
X69339432Y-62205144D01*
X69328347Y-62168604D01*
X69324000Y-62124462D01*
X69324000Y-60675538D01*
X69328347Y-60631396D01*
X69339432Y-60594856D01*
X69357433Y-60561179D01*
X69381659Y-60531659D01*
X69411179Y-60507433D01*
X69444856Y-60489432D01*
X69481396Y-60478347D01*
X69525538Y-60474000D01*
X70474462Y-60474000D01*
X70518604Y-60478347D01*
X70518604Y-60478347D01*
G37*
G36*
X67718604Y-60478347D02*
G01*
X67755144Y-60489432D01*
X67788821Y-60507433D01*
X67818341Y-60531659D01*
X67842567Y-60561179D01*
X67860568Y-60594856D01*
X67871653Y-60631396D01*
X67876000Y-60675538D01*
X67876000Y-62124462D01*
X67871653Y-62168604D01*
X67860568Y-62205144D01*
X67842567Y-62238821D01*
X67818341Y-62268341D01*
X67788821Y-62292567D01*
X67755144Y-62310568D01*
X67718604Y-62321653D01*
X67674462Y-62326000D01*
X66725538Y-62326000D01*
X66681396Y-62321653D01*
X66644856Y-62310568D01*
X66611179Y-62292567D01*
X66581659Y-62268341D01*
X66557433Y-62238821D01*
X66539432Y-62205144D01*
X66528347Y-62168604D01*
X66524000Y-62124462D01*
X66524000Y-60675538D01*
X66528347Y-60631396D01*
X66539432Y-60594856D01*
X66557433Y-60561179D01*
X66581659Y-60531659D01*
X66611179Y-60507433D01*
X66644856Y-60489432D01*
X66681396Y-60478347D01*
X66725538Y-60474000D01*
X67674462Y-60474000D01*
X67718604Y-60478347D01*
X67718604Y-60478347D01*
G37*
G36*
X72318604Y-60478347D02*
G01*
X72355144Y-60489432D01*
X72388821Y-60507433D01*
X72418341Y-60531659D01*
X72442567Y-60561179D01*
X72460568Y-60594856D01*
X72471653Y-60631396D01*
X72476000Y-60675538D01*
X72476000Y-62124462D01*
X72471653Y-62168604D01*
X72460568Y-62205144D01*
X72442567Y-62238821D01*
X72418341Y-62268341D01*
X72388821Y-62292567D01*
X72355144Y-62310568D01*
X72318604Y-62321653D01*
X72274462Y-62326000D01*
X71325538Y-62326000D01*
X71281396Y-62321653D01*
X71244856Y-62310568D01*
X71211179Y-62292567D01*
X71181659Y-62268341D01*
X71157433Y-62238821D01*
X71139432Y-62205144D01*
X71128347Y-62168604D01*
X71124000Y-62124462D01*
X71124000Y-60675538D01*
X71128347Y-60631396D01*
X71139432Y-60594856D01*
X71157433Y-60561179D01*
X71181659Y-60531659D01*
X71211179Y-60507433D01*
X71244856Y-60489432D01*
X71281396Y-60478347D01*
X71325538Y-60474000D01*
X72274462Y-60474000D01*
X72318604Y-60478347D01*
X72318604Y-60478347D01*
G37*
G36*
X75118604Y-60478347D02*
G01*
X75155144Y-60489432D01*
X75188821Y-60507433D01*
X75218341Y-60531659D01*
X75242567Y-60561179D01*
X75260568Y-60594856D01*
X75271653Y-60631396D01*
X75276000Y-60675538D01*
X75276000Y-62124462D01*
X75271653Y-62168604D01*
X75260568Y-62205144D01*
X75242567Y-62238821D01*
X75218341Y-62268341D01*
X75188821Y-62292567D01*
X75155144Y-62310568D01*
X75118604Y-62321653D01*
X75074462Y-62326000D01*
X74125538Y-62326000D01*
X74081396Y-62321653D01*
X74044856Y-62310568D01*
X74011179Y-62292567D01*
X73981659Y-62268341D01*
X73957433Y-62238821D01*
X73939432Y-62205144D01*
X73928347Y-62168604D01*
X73924000Y-62124462D01*
X73924000Y-60675538D01*
X73928347Y-60631396D01*
X73939432Y-60594856D01*
X73957433Y-60561179D01*
X73981659Y-60531659D01*
X74011179Y-60507433D01*
X74044856Y-60489432D01*
X74081396Y-60478347D01*
X74125538Y-60474000D01*
X75074462Y-60474000D01*
X75118604Y-60478347D01*
X75118604Y-60478347D01*
G37*
G36*
X65918604Y-60478347D02*
G01*
X65955144Y-60489432D01*
X65988821Y-60507433D01*
X66018341Y-60531659D01*
X66042567Y-60561179D01*
X66060568Y-60594856D01*
X66071653Y-60631396D01*
X66076000Y-60675538D01*
X66076000Y-62124462D01*
X66071653Y-62168604D01*
X66060568Y-62205144D01*
X66042567Y-62238821D01*
X66018341Y-62268341D01*
X65988821Y-62292567D01*
X65955144Y-62310568D01*
X65918604Y-62321653D01*
X65874462Y-62326000D01*
X64925538Y-62326000D01*
X64881396Y-62321653D01*
X64844856Y-62310568D01*
X64811179Y-62292567D01*
X64781659Y-62268341D01*
X64757433Y-62238821D01*
X64739432Y-62205144D01*
X64728347Y-62168604D01*
X64724000Y-62124462D01*
X64724000Y-60675538D01*
X64728347Y-60631396D01*
X64739432Y-60594856D01*
X64757433Y-60561179D01*
X64781659Y-60531659D01*
X64811179Y-60507433D01*
X64844856Y-60489432D01*
X64881396Y-60478347D01*
X64925538Y-60474000D01*
X65874462Y-60474000D01*
X65918604Y-60478347D01*
X65918604Y-60478347D01*
G37*
G36*
X63118604Y-60478347D02*
G01*
X63155144Y-60489432D01*
X63188821Y-60507433D01*
X63218341Y-60531659D01*
X63242567Y-60561179D01*
X63260568Y-60594856D01*
X63271653Y-60631396D01*
X63276000Y-60675538D01*
X63276000Y-62124462D01*
X63271653Y-62168604D01*
X63260568Y-62205144D01*
X63242567Y-62238821D01*
X63218341Y-62268341D01*
X63188821Y-62292567D01*
X63155144Y-62310568D01*
X63118604Y-62321653D01*
X63074462Y-62326000D01*
X62125538Y-62326000D01*
X62081396Y-62321653D01*
X62044856Y-62310568D01*
X62011179Y-62292567D01*
X61981659Y-62268341D01*
X61957433Y-62238821D01*
X61939432Y-62205144D01*
X61928347Y-62168604D01*
X61924000Y-62124462D01*
X61924000Y-60675538D01*
X61928347Y-60631396D01*
X61939432Y-60594856D01*
X61957433Y-60561179D01*
X61981659Y-60531659D01*
X62011179Y-60507433D01*
X62044856Y-60489432D01*
X62081396Y-60478347D01*
X62125538Y-60474000D01*
X63074462Y-60474000D01*
X63118604Y-60478347D01*
X63118604Y-60478347D01*
G37*
G36*
X58518604Y-60478347D02*
G01*
X58555144Y-60489432D01*
X58588821Y-60507433D01*
X58618341Y-60531659D01*
X58642567Y-60561179D01*
X58660568Y-60594856D01*
X58671653Y-60631396D01*
X58676000Y-60675538D01*
X58676000Y-62124462D01*
X58671653Y-62168604D01*
X58660568Y-62205144D01*
X58642567Y-62238821D01*
X58618341Y-62268341D01*
X58588821Y-62292567D01*
X58555144Y-62310568D01*
X58518604Y-62321653D01*
X58474462Y-62326000D01*
X57525538Y-62326000D01*
X57481396Y-62321653D01*
X57444856Y-62310568D01*
X57411179Y-62292567D01*
X57381659Y-62268341D01*
X57357433Y-62238821D01*
X57339432Y-62205144D01*
X57328347Y-62168604D01*
X57324000Y-62124462D01*
X57324000Y-60675538D01*
X57328347Y-60631396D01*
X57339432Y-60594856D01*
X57357433Y-60561179D01*
X57381659Y-60531659D01*
X57411179Y-60507433D01*
X57444856Y-60489432D01*
X57481396Y-60478347D01*
X57525538Y-60474000D01*
X58474462Y-60474000D01*
X58518604Y-60478347D01*
X58518604Y-60478347D01*
G37*
G36*
X61318604Y-60478347D02*
G01*
X61355144Y-60489432D01*
X61388821Y-60507433D01*
X61418341Y-60531659D01*
X61442567Y-60561179D01*
X61460568Y-60594856D01*
X61471653Y-60631396D01*
X61476000Y-60675538D01*
X61476000Y-62124462D01*
X61471653Y-62168604D01*
X61460568Y-62205144D01*
X61442567Y-62238821D01*
X61418341Y-62268341D01*
X61388821Y-62292567D01*
X61355144Y-62310568D01*
X61318604Y-62321653D01*
X61274462Y-62326000D01*
X60325538Y-62326000D01*
X60281396Y-62321653D01*
X60244856Y-62310568D01*
X60211179Y-62292567D01*
X60181659Y-62268341D01*
X60157433Y-62238821D01*
X60139432Y-62205144D01*
X60128347Y-62168604D01*
X60124000Y-62124462D01*
X60124000Y-60675538D01*
X60128347Y-60631396D01*
X60139432Y-60594856D01*
X60157433Y-60561179D01*
X60181659Y-60531659D01*
X60211179Y-60507433D01*
X60244856Y-60489432D01*
X60281396Y-60478347D01*
X60325538Y-60474000D01*
X61274462Y-60474000D01*
X61318604Y-60478347D01*
X61318604Y-60478347D01*
G37*
G36*
X48549000Y-61428000D02*
G01*
X47747000Y-61428000D01*
X47747000Y-60626000D01*
X48549000Y-60626000D01*
X48549000Y-61428000D01*
X48549000Y-61428000D01*
G37*
G36*
X48549000Y-60158000D02*
G01*
X47747000Y-60158000D01*
X47747000Y-59356000D01*
X48549000Y-59356000D01*
X48549000Y-60158000D01*
X48549000Y-60158000D01*
G37*
G36*
X67718605Y-58298347D02*
G01*
X67755145Y-58309432D01*
X67788822Y-58327433D01*
X67818342Y-58351659D01*
X67842568Y-58381179D01*
X67860569Y-58414856D01*
X67871654Y-58451396D01*
X67876001Y-58495538D01*
X67876001Y-59944462D01*
X67871654Y-59988604D01*
X67860569Y-60025144D01*
X67842568Y-60058821D01*
X67818342Y-60088341D01*
X67788822Y-60112567D01*
X67755145Y-60130568D01*
X67718605Y-60141653D01*
X67674463Y-60146000D01*
X66725539Y-60146000D01*
X66681397Y-60141653D01*
X66644857Y-60130568D01*
X66611180Y-60112567D01*
X66581660Y-60088341D01*
X66557434Y-60058821D01*
X66539433Y-60025144D01*
X66528348Y-59988604D01*
X66524001Y-59944462D01*
X66524001Y-58495538D01*
X66528348Y-58451396D01*
X66539433Y-58414856D01*
X66557434Y-58381179D01*
X66581660Y-58351659D01*
X66611180Y-58327433D01*
X66644857Y-58309432D01*
X66681397Y-58298347D01*
X66725539Y-58294000D01*
X67674463Y-58294000D01*
X67718605Y-58298347D01*
X67718605Y-58298347D01*
G37*
G36*
X70518605Y-58298347D02*
G01*
X70555145Y-58309432D01*
X70588822Y-58327433D01*
X70618342Y-58351659D01*
X70642568Y-58381179D01*
X70660569Y-58414856D01*
X70671654Y-58451396D01*
X70676001Y-58495538D01*
X70676001Y-59944462D01*
X70671654Y-59988604D01*
X70660569Y-60025144D01*
X70642568Y-60058821D01*
X70618342Y-60088341D01*
X70588822Y-60112567D01*
X70555145Y-60130568D01*
X70518605Y-60141653D01*
X70474463Y-60146000D01*
X69525539Y-60146000D01*
X69481397Y-60141653D01*
X69444857Y-60130568D01*
X69411180Y-60112567D01*
X69381660Y-60088341D01*
X69357434Y-60058821D01*
X69339433Y-60025144D01*
X69328348Y-59988604D01*
X69324001Y-59944462D01*
X69324001Y-58495538D01*
X69328348Y-58451396D01*
X69339433Y-58414856D01*
X69357434Y-58381179D01*
X69381660Y-58351659D01*
X69411180Y-58327433D01*
X69444857Y-58309432D01*
X69481397Y-58298347D01*
X69525539Y-58294000D01*
X70474463Y-58294000D01*
X70518605Y-58298347D01*
X70518605Y-58298347D01*
G37*
G36*
X58518603Y-58298347D02*
G01*
X58555143Y-58309432D01*
X58588820Y-58327433D01*
X58618340Y-58351659D01*
X58642566Y-58381179D01*
X58660567Y-58414856D01*
X58671652Y-58451396D01*
X58675999Y-58495538D01*
X58675999Y-59944462D01*
X58671652Y-59988604D01*
X58660567Y-60025144D01*
X58642566Y-60058821D01*
X58618340Y-60088341D01*
X58588820Y-60112567D01*
X58555143Y-60130568D01*
X58518603Y-60141653D01*
X58474461Y-60146000D01*
X57525537Y-60146000D01*
X57481395Y-60141653D01*
X57444855Y-60130568D01*
X57411178Y-60112567D01*
X57381658Y-60088341D01*
X57357432Y-60058821D01*
X57339431Y-60025144D01*
X57328346Y-59988604D01*
X57323999Y-59944462D01*
X57323999Y-58495538D01*
X57328346Y-58451396D01*
X57339431Y-58414856D01*
X57357432Y-58381179D01*
X57381658Y-58351659D01*
X57411178Y-58327433D01*
X57444855Y-58309432D01*
X57481395Y-58298347D01*
X57525537Y-58294000D01*
X58474461Y-58294000D01*
X58518603Y-58298347D01*
X58518603Y-58298347D01*
G37*
G36*
X61318603Y-58298347D02*
G01*
X61355143Y-58309432D01*
X61388820Y-58327433D01*
X61418340Y-58351659D01*
X61442566Y-58381179D01*
X61460567Y-58414856D01*
X61471652Y-58451396D01*
X61475999Y-58495538D01*
X61475999Y-59944462D01*
X61471652Y-59988604D01*
X61460567Y-60025144D01*
X61442566Y-60058821D01*
X61418340Y-60088341D01*
X61388820Y-60112567D01*
X61355143Y-60130568D01*
X61318603Y-60141653D01*
X61274461Y-60146000D01*
X60325537Y-60146000D01*
X60281395Y-60141653D01*
X60244855Y-60130568D01*
X60211178Y-60112567D01*
X60181658Y-60088341D01*
X60157432Y-60058821D01*
X60139431Y-60025144D01*
X60128346Y-59988604D01*
X60123999Y-59944462D01*
X60123999Y-58495538D01*
X60128346Y-58451396D01*
X60139431Y-58414856D01*
X60157432Y-58381179D01*
X60181658Y-58351659D01*
X60211178Y-58327433D01*
X60244855Y-58309432D01*
X60281395Y-58298347D01*
X60325537Y-58294000D01*
X61274461Y-58294000D01*
X61318603Y-58298347D01*
X61318603Y-58298347D01*
G37*
G36*
X63118604Y-58278347D02*
G01*
X63155144Y-58289432D01*
X63188821Y-58307433D01*
X63218341Y-58331659D01*
X63242567Y-58361179D01*
X63260568Y-58394856D01*
X63271653Y-58431396D01*
X63276000Y-58475538D01*
X63276000Y-59924462D01*
X63271653Y-59968604D01*
X63260568Y-60005144D01*
X63242567Y-60038821D01*
X63218341Y-60068341D01*
X63188821Y-60092567D01*
X63155144Y-60110568D01*
X63118604Y-60121653D01*
X63074462Y-60126000D01*
X62125538Y-60126000D01*
X62081396Y-60121653D01*
X62044856Y-60110568D01*
X62011179Y-60092567D01*
X61981659Y-60068341D01*
X61957433Y-60038821D01*
X61939432Y-60005144D01*
X61928347Y-59968604D01*
X61924000Y-59924462D01*
X61924000Y-58475538D01*
X61928347Y-58431396D01*
X61939432Y-58394856D01*
X61957433Y-58361179D01*
X61981659Y-58331659D01*
X62011179Y-58307433D01*
X62044856Y-58289432D01*
X62081396Y-58278347D01*
X62125538Y-58274000D01*
X63074462Y-58274000D01*
X63118604Y-58278347D01*
X63118604Y-58278347D01*
G37*
G36*
X75118604Y-58278347D02*
G01*
X75155144Y-58289432D01*
X75188821Y-58307433D01*
X75218341Y-58331659D01*
X75242567Y-58361179D01*
X75260568Y-58394856D01*
X75271653Y-58431396D01*
X75276000Y-58475538D01*
X75276000Y-59924462D01*
X75271653Y-59968604D01*
X75260568Y-60005144D01*
X75242567Y-60038821D01*
X75218341Y-60068341D01*
X75188821Y-60092567D01*
X75155144Y-60110568D01*
X75118604Y-60121653D01*
X75074462Y-60126000D01*
X74125538Y-60126000D01*
X74081396Y-60121653D01*
X74044856Y-60110568D01*
X74011179Y-60092567D01*
X73981659Y-60068341D01*
X73957433Y-60038821D01*
X73939432Y-60005144D01*
X73928347Y-59968604D01*
X73924000Y-59924462D01*
X73924000Y-58475538D01*
X73928347Y-58431396D01*
X73939432Y-58394856D01*
X73957433Y-58361179D01*
X73981659Y-58331659D01*
X74011179Y-58307433D01*
X74044856Y-58289432D01*
X74081396Y-58278347D01*
X74125538Y-58274000D01*
X75074462Y-58274000D01*
X75118604Y-58278347D01*
X75118604Y-58278347D01*
G37*
G36*
X65918604Y-58278347D02*
G01*
X65955144Y-58289432D01*
X65988821Y-58307433D01*
X66018341Y-58331659D01*
X66042567Y-58361179D01*
X66060568Y-58394856D01*
X66071653Y-58431396D01*
X66076000Y-58475538D01*
X66076000Y-59924462D01*
X66071653Y-59968604D01*
X66060568Y-60005144D01*
X66042567Y-60038821D01*
X66018341Y-60068341D01*
X65988821Y-60092567D01*
X65955144Y-60110568D01*
X65918604Y-60121653D01*
X65874462Y-60126000D01*
X64925538Y-60126000D01*
X64881396Y-60121653D01*
X64844856Y-60110568D01*
X64811179Y-60092567D01*
X64781659Y-60068341D01*
X64757433Y-60038821D01*
X64739432Y-60005144D01*
X64728347Y-59968604D01*
X64724000Y-59924462D01*
X64724000Y-58475538D01*
X64728347Y-58431396D01*
X64739432Y-58394856D01*
X64757433Y-58361179D01*
X64781659Y-58331659D01*
X64811179Y-58307433D01*
X64844856Y-58289432D01*
X64881396Y-58278347D01*
X64925538Y-58274000D01*
X65874462Y-58274000D01*
X65918604Y-58278347D01*
X65918604Y-58278347D01*
G37*
G36*
X72318604Y-58278347D02*
G01*
X72355144Y-58289432D01*
X72388821Y-58307433D01*
X72418341Y-58331659D01*
X72442567Y-58361179D01*
X72460568Y-58394856D01*
X72471653Y-58431396D01*
X72476000Y-58475538D01*
X72476000Y-59924462D01*
X72471653Y-59968604D01*
X72460568Y-60005144D01*
X72442567Y-60038821D01*
X72418341Y-60068341D01*
X72388821Y-60092567D01*
X72355144Y-60110568D01*
X72318604Y-60121653D01*
X72274462Y-60126000D01*
X71325538Y-60126000D01*
X71281396Y-60121653D01*
X71244856Y-60110568D01*
X71211179Y-60092567D01*
X71181659Y-60068341D01*
X71157433Y-60038821D01*
X71139432Y-60005144D01*
X71128347Y-59968604D01*
X71124000Y-59924462D01*
X71124000Y-58475538D01*
X71128347Y-58431396D01*
X71139432Y-58394856D01*
X71157433Y-58361179D01*
X71181659Y-58331659D01*
X71211179Y-58307433D01*
X71244856Y-58289432D01*
X71281396Y-58278347D01*
X71325538Y-58274000D01*
X72274462Y-58274000D01*
X72318604Y-58278347D01*
X72318604Y-58278347D01*
G37*
G36*
X48549000Y-58888000D02*
G01*
X47747000Y-58888000D01*
X47747000Y-58086000D01*
X48549000Y-58086000D01*
X48549000Y-58888000D01*
X48549000Y-58888000D01*
G37*
G36*
X51491938Y-57831716D02*
G01*
X51512557Y-57837971D01*
X51531553Y-57848124D01*
X51548208Y-57861792D01*
X51561876Y-57878447D01*
X51572029Y-57897443D01*
X51578284Y-57918062D01*
X51581000Y-57945640D01*
X51581000Y-58454360D01*
X51578284Y-58481938D01*
X51572029Y-58502557D01*
X51561876Y-58521553D01*
X51548208Y-58538208D01*
X51531553Y-58551876D01*
X51512557Y-58562029D01*
X51491938Y-58568284D01*
X51464360Y-58571000D01*
X51005640Y-58571000D01*
X50978062Y-58568284D01*
X50957443Y-58562029D01*
X50938447Y-58551876D01*
X50921792Y-58538208D01*
X50908124Y-58521553D01*
X50897971Y-58502557D01*
X50891716Y-58481938D01*
X50889000Y-58454360D01*
X50889000Y-57945640D01*
X50891716Y-57918062D01*
X50897971Y-57897443D01*
X50908124Y-57878447D01*
X50921792Y-57861792D01*
X50938447Y-57848124D01*
X50957443Y-57837971D01*
X50978062Y-57831716D01*
X51005640Y-57829000D01*
X51464360Y-57829000D01*
X51491938Y-57831716D01*
X51491938Y-57831716D01*
G37*
G36*
X50521938Y-57831716D02*
G01*
X50542557Y-57837971D01*
X50561553Y-57848124D01*
X50578208Y-57861792D01*
X50591876Y-57878447D01*
X50602029Y-57897443D01*
X50608284Y-57918062D01*
X50611000Y-57945640D01*
X50611000Y-58454360D01*
X50608284Y-58481938D01*
X50602029Y-58502557D01*
X50591876Y-58521553D01*
X50578208Y-58538208D01*
X50561553Y-58551876D01*
X50542557Y-58562029D01*
X50521938Y-58568284D01*
X50494360Y-58571000D01*
X50035640Y-58571000D01*
X50008062Y-58568284D01*
X49987443Y-58562029D01*
X49968447Y-58551876D01*
X49951792Y-58538208D01*
X49938124Y-58521553D01*
X49927971Y-58502557D01*
X49921716Y-58481938D01*
X49919000Y-58454360D01*
X49919000Y-57945640D01*
X49921716Y-57918062D01*
X49927971Y-57897443D01*
X49938124Y-57878447D01*
X49951792Y-57861792D01*
X49968447Y-57848124D01*
X49987443Y-57837971D01*
X50008062Y-57831716D01*
X50035640Y-57829000D01*
X50494360Y-57829000D01*
X50521938Y-57831716D01*
X50521938Y-57831716D01*
G37*
G36*
X52671938Y-57831716D02*
G01*
X52692557Y-57837971D01*
X52711553Y-57848124D01*
X52728208Y-57861792D01*
X52741876Y-57878447D01*
X52752029Y-57897443D01*
X52758284Y-57918062D01*
X52761000Y-57945640D01*
X52761000Y-58454360D01*
X52758284Y-58481938D01*
X52752029Y-58502557D01*
X52741876Y-58521553D01*
X52728208Y-58538208D01*
X52711553Y-58551876D01*
X52692557Y-58562029D01*
X52671938Y-58568284D01*
X52644360Y-58571000D01*
X52185640Y-58571000D01*
X52158062Y-58568284D01*
X52137443Y-58562029D01*
X52118447Y-58551876D01*
X52101792Y-58538208D01*
X52088124Y-58521553D01*
X52077971Y-58502557D01*
X52071716Y-58481938D01*
X52069000Y-58454360D01*
X52069000Y-57945640D01*
X52071716Y-57918062D01*
X52077971Y-57897443D01*
X52088124Y-57878447D01*
X52101792Y-57861792D01*
X52118447Y-57848124D01*
X52137443Y-57837971D01*
X52158062Y-57831716D01*
X52185640Y-57829000D01*
X52644360Y-57829000D01*
X52671938Y-57831716D01*
X52671938Y-57831716D01*
G37*
G36*
X53641938Y-57831716D02*
G01*
X53662557Y-57837971D01*
X53681553Y-57848124D01*
X53698208Y-57861792D01*
X53711876Y-57878447D01*
X53722029Y-57897443D01*
X53728284Y-57918062D01*
X53731000Y-57945640D01*
X53731000Y-58454360D01*
X53728284Y-58481938D01*
X53722029Y-58502557D01*
X53711876Y-58521553D01*
X53698208Y-58538208D01*
X53681553Y-58551876D01*
X53662557Y-58562029D01*
X53641938Y-58568284D01*
X53614360Y-58571000D01*
X53155640Y-58571000D01*
X53128062Y-58568284D01*
X53107443Y-58562029D01*
X53088447Y-58551876D01*
X53071792Y-58538208D01*
X53058124Y-58521553D01*
X53047971Y-58502557D01*
X53041716Y-58481938D01*
X53039000Y-58454360D01*
X53039000Y-57945640D01*
X53041716Y-57918062D01*
X53047971Y-57897443D01*
X53058124Y-57878447D01*
X53071792Y-57861792D01*
X53088447Y-57848124D01*
X53107443Y-57837971D01*
X53128062Y-57831716D01*
X53155640Y-57829000D01*
X53614360Y-57829000D01*
X53641938Y-57831716D01*
X53641938Y-57831716D01*
G37*
G36*
X55641938Y-57831716D02*
G01*
X55662557Y-57837971D01*
X55681553Y-57848124D01*
X55698208Y-57861792D01*
X55711876Y-57878447D01*
X55722029Y-57897443D01*
X55728284Y-57918062D01*
X55731000Y-57945640D01*
X55731000Y-58454360D01*
X55728284Y-58481938D01*
X55722029Y-58502557D01*
X55711876Y-58521553D01*
X55698208Y-58538208D01*
X55681553Y-58551876D01*
X55662557Y-58562029D01*
X55641938Y-58568284D01*
X55614360Y-58571000D01*
X55155640Y-58571000D01*
X55128062Y-58568284D01*
X55107443Y-58562029D01*
X55088447Y-58551876D01*
X55071792Y-58538208D01*
X55058124Y-58521553D01*
X55047971Y-58502557D01*
X55041716Y-58481938D01*
X55039000Y-58454360D01*
X55039000Y-57945640D01*
X55041716Y-57918062D01*
X55047971Y-57897443D01*
X55058124Y-57878447D01*
X55071792Y-57861792D01*
X55088447Y-57848124D01*
X55107443Y-57837971D01*
X55128062Y-57831716D01*
X55155640Y-57829000D01*
X55614360Y-57829000D01*
X55641938Y-57831716D01*
X55641938Y-57831716D01*
G37*
G36*
X54671938Y-57831716D02*
G01*
X54692557Y-57837971D01*
X54711553Y-57848124D01*
X54728208Y-57861792D01*
X54741876Y-57878447D01*
X54752029Y-57897443D01*
X54758284Y-57918062D01*
X54761000Y-57945640D01*
X54761000Y-58454360D01*
X54758284Y-58481938D01*
X54752029Y-58502557D01*
X54741876Y-58521553D01*
X54728208Y-58538208D01*
X54711553Y-58551876D01*
X54692557Y-58562029D01*
X54671938Y-58568284D01*
X54644360Y-58571000D01*
X54185640Y-58571000D01*
X54158062Y-58568284D01*
X54137443Y-58562029D01*
X54118447Y-58551876D01*
X54101792Y-58538208D01*
X54088124Y-58521553D01*
X54077971Y-58502557D01*
X54071716Y-58481938D01*
X54069000Y-58454360D01*
X54069000Y-57945640D01*
X54071716Y-57918062D01*
X54077971Y-57897443D01*
X54088124Y-57878447D01*
X54101792Y-57861792D01*
X54118447Y-57848124D01*
X54137443Y-57837971D01*
X54158062Y-57831716D01*
X54185640Y-57829000D01*
X54644360Y-57829000D01*
X54671938Y-57831716D01*
X54671938Y-57831716D01*
G37*
G36*
X40296000Y-58006000D02*
G01*
X35199000Y-58006000D01*
X35199000Y-57204000D01*
X35719001Y-57204000D01*
X35743387Y-57201598D01*
X35766836Y-57194485D01*
X35788447Y-57182934D01*
X35807389Y-57167389D01*
X35822934Y-57148447D01*
X35834485Y-57126836D01*
X35841598Y-57103387D01*
X35844000Y-57079001D01*
X35844000Y-56860999D01*
X35841598Y-56836613D01*
X35834485Y-56813164D01*
X35822934Y-56791553D01*
X35807389Y-56772611D01*
X35788447Y-56757066D01*
X35766836Y-56745515D01*
X35743387Y-56738402D01*
X35719001Y-56736000D01*
X35199000Y-56736000D01*
X35199000Y-55934000D01*
X35719001Y-55934000D01*
X35743387Y-55931598D01*
X35766836Y-55924485D01*
X35788447Y-55912934D01*
X35807389Y-55897389D01*
X35822934Y-55878447D01*
X35834485Y-55856836D01*
X35841598Y-55833387D01*
X35844000Y-55809001D01*
X35844000Y-55590999D01*
X35841598Y-55566613D01*
X35834485Y-55543164D01*
X35822934Y-55521553D01*
X35807389Y-55502611D01*
X35788447Y-55487066D01*
X35766836Y-55475515D01*
X35743387Y-55468402D01*
X35719001Y-55466000D01*
X35199000Y-55466000D01*
X35199000Y-54664000D01*
X35719001Y-54664000D01*
X35743387Y-54661598D01*
X35766836Y-54654485D01*
X35788447Y-54642934D01*
X35807389Y-54627389D01*
X35822934Y-54608447D01*
X35834485Y-54586836D01*
X35841598Y-54563387D01*
X35844000Y-54539001D01*
X35844000Y-54320999D01*
X35841598Y-54296613D01*
X35834485Y-54273164D01*
X35822934Y-54251553D01*
X35807389Y-54232611D01*
X35788447Y-54217066D01*
X35766836Y-54205515D01*
X35743387Y-54198402D01*
X35719001Y-54196000D01*
X35199000Y-54196000D01*
X35199000Y-53394000D01*
X40296000Y-53394000D01*
X40296000Y-58006000D01*
X40296000Y-58006000D01*
G37*
G36*
X41601000Y-58006000D02*
G01*
X40799000Y-58006000D01*
X40799000Y-57204000D01*
X41601000Y-57204000D01*
X41601000Y-58006000D01*
X41601000Y-58006000D01*
G37*
G36*
X67718604Y-56078347D02*
G01*
X67755144Y-56089432D01*
X67788821Y-56107433D01*
X67818341Y-56131659D01*
X67842567Y-56161179D01*
X67860568Y-56194856D01*
X67871653Y-56231396D01*
X67876000Y-56275538D01*
X67876000Y-57724462D01*
X67871653Y-57768604D01*
X67860568Y-57805144D01*
X67842567Y-57838821D01*
X67818341Y-57868341D01*
X67788821Y-57892567D01*
X67755144Y-57910568D01*
X67718604Y-57921653D01*
X67674462Y-57926000D01*
X66725538Y-57926000D01*
X66681396Y-57921653D01*
X66644856Y-57910568D01*
X66611179Y-57892567D01*
X66581659Y-57868341D01*
X66557433Y-57838821D01*
X66539432Y-57805144D01*
X66528347Y-57768604D01*
X66524000Y-57724462D01*
X66524000Y-56275538D01*
X66528347Y-56231396D01*
X66539432Y-56194856D01*
X66557433Y-56161179D01*
X66581659Y-56131659D01*
X66611179Y-56107433D01*
X66644856Y-56089432D01*
X66681396Y-56078347D01*
X66725538Y-56074000D01*
X67674462Y-56074000D01*
X67718604Y-56078347D01*
X67718604Y-56078347D01*
G37*
G36*
X75118604Y-56078347D02*
G01*
X75155144Y-56089432D01*
X75188821Y-56107433D01*
X75218341Y-56131659D01*
X75242567Y-56161179D01*
X75260568Y-56194856D01*
X75271653Y-56231396D01*
X75276000Y-56275538D01*
X75276000Y-57724462D01*
X75271653Y-57768604D01*
X75260568Y-57805144D01*
X75242567Y-57838821D01*
X75218341Y-57868341D01*
X75188821Y-57892567D01*
X75155144Y-57910568D01*
X75118604Y-57921653D01*
X75074462Y-57926000D01*
X74125538Y-57926000D01*
X74081396Y-57921653D01*
X74044856Y-57910568D01*
X74011179Y-57892567D01*
X73981659Y-57868341D01*
X73957433Y-57838821D01*
X73939432Y-57805144D01*
X73928347Y-57768604D01*
X73924000Y-57724462D01*
X73924000Y-56275538D01*
X73928347Y-56231396D01*
X73939432Y-56194856D01*
X73957433Y-56161179D01*
X73981659Y-56131659D01*
X74011179Y-56107433D01*
X74044856Y-56089432D01*
X74081396Y-56078347D01*
X74125538Y-56074000D01*
X75074462Y-56074000D01*
X75118604Y-56078347D01*
X75118604Y-56078347D01*
G37*
G36*
X72318604Y-56078347D02*
G01*
X72355144Y-56089432D01*
X72388821Y-56107433D01*
X72418341Y-56131659D01*
X72442567Y-56161179D01*
X72460568Y-56194856D01*
X72471653Y-56231396D01*
X72476000Y-56275538D01*
X72476000Y-57724462D01*
X72471653Y-57768604D01*
X72460568Y-57805144D01*
X72442567Y-57838821D01*
X72418341Y-57868341D01*
X72388821Y-57892567D01*
X72355144Y-57910568D01*
X72318604Y-57921653D01*
X72274462Y-57926000D01*
X71325538Y-57926000D01*
X71281396Y-57921653D01*
X71244856Y-57910568D01*
X71211179Y-57892567D01*
X71181659Y-57868341D01*
X71157433Y-57838821D01*
X71139432Y-57805144D01*
X71128347Y-57768604D01*
X71124000Y-57724462D01*
X71124000Y-56275538D01*
X71128347Y-56231396D01*
X71139432Y-56194856D01*
X71157433Y-56161179D01*
X71181659Y-56131659D01*
X71211179Y-56107433D01*
X71244856Y-56089432D01*
X71281396Y-56078347D01*
X71325538Y-56074000D01*
X72274462Y-56074000D01*
X72318604Y-56078347D01*
X72318604Y-56078347D01*
G37*
G36*
X70518604Y-56078347D02*
G01*
X70555144Y-56089432D01*
X70588821Y-56107433D01*
X70618341Y-56131659D01*
X70642567Y-56161179D01*
X70660568Y-56194856D01*
X70671653Y-56231396D01*
X70676000Y-56275538D01*
X70676000Y-57724462D01*
X70671653Y-57768604D01*
X70660568Y-57805144D01*
X70642567Y-57838821D01*
X70618341Y-57868341D01*
X70588821Y-57892567D01*
X70555144Y-57910568D01*
X70518604Y-57921653D01*
X70474462Y-57926000D01*
X69525538Y-57926000D01*
X69481396Y-57921653D01*
X69444856Y-57910568D01*
X69411179Y-57892567D01*
X69381659Y-57868341D01*
X69357433Y-57838821D01*
X69339432Y-57805144D01*
X69328347Y-57768604D01*
X69324000Y-57724462D01*
X69324000Y-56275538D01*
X69328347Y-56231396D01*
X69339432Y-56194856D01*
X69357433Y-56161179D01*
X69381659Y-56131659D01*
X69411179Y-56107433D01*
X69444856Y-56089432D01*
X69481396Y-56078347D01*
X69525538Y-56074000D01*
X70474462Y-56074000D01*
X70518604Y-56078347D01*
X70518604Y-56078347D01*
G37*
G36*
X48476000Y-56821000D02*
G01*
X47524000Y-56821000D01*
X47524000Y-54369000D01*
X48476000Y-54369000D01*
X48476000Y-56821000D01*
X48476000Y-56821000D01*
G37*
G36*
X52476000Y-56821000D02*
G01*
X51524000Y-56821000D01*
X51524000Y-54369000D01*
X52476000Y-54369000D01*
X52476000Y-56821000D01*
X52476000Y-56821000D01*
G37*
G36*
X56476000Y-56821000D02*
G01*
X55524000Y-56821000D01*
X55524000Y-54369000D01*
X56476000Y-54369000D01*
X56476000Y-56821000D01*
X56476000Y-56821000D01*
G37*
G36*
X41601000Y-56736000D02*
G01*
X40799000Y-56736000D01*
X40799000Y-55934000D01*
X41601000Y-55934000D01*
X41601000Y-56736000D01*
X41601000Y-56736000D01*
G37*
G36*
X23801000Y-56386000D02*
G01*
X21349000Y-56386000D01*
X21349000Y-55434000D01*
X23801000Y-55434000D01*
X23801000Y-56386000D01*
X23801000Y-56386000D01*
G37*
G36*
X79401000Y-56386000D02*
G01*
X76949000Y-56386000D01*
X76949000Y-55434000D01*
X79401000Y-55434000D01*
X79401000Y-56386000D01*
X79401000Y-56386000D01*
G37*
G36*
X41601000Y-55466000D02*
G01*
X40799000Y-55466000D01*
X40799000Y-54664000D01*
X41601000Y-54664000D01*
X41601000Y-55466000D01*
X41601000Y-55466000D01*
G37*
G36*
X58476000Y-54471000D02*
G01*
X57524000Y-54471000D01*
X57524000Y-52019000D01*
X58476000Y-52019000D01*
X58476000Y-54471000D01*
X58476000Y-54471000D01*
G37*
G36*
X54476000Y-54471000D02*
G01*
X53524000Y-54471000D01*
X53524000Y-52019000D01*
X54476000Y-52019000D01*
X54476000Y-54471000D01*
X54476000Y-54471000D01*
G37*
G36*
X50476000Y-54471000D02*
G01*
X49524000Y-54471000D01*
X49524000Y-52019000D01*
X50476000Y-52019000D01*
X50476000Y-54471000D01*
X50476000Y-54471000D01*
G37*
G36*
X77051000Y-54386000D02*
G01*
X74599000Y-54386000D01*
X74599000Y-53434000D01*
X77051000Y-53434000D01*
X77051000Y-54386000D01*
X77051000Y-54386000D01*
G37*
G36*
X26151000Y-54386000D02*
G01*
X23699000Y-54386000D01*
X23699000Y-53434000D01*
X26151000Y-53434000D01*
X26151000Y-54386000D01*
X26151000Y-54386000D01*
G37*
G36*
X71768604Y-52878347D02*
G01*
X71805144Y-52889432D01*
X71838821Y-52907433D01*
X71868341Y-52931659D01*
X71892567Y-52961179D01*
X71910568Y-52994856D01*
X71921653Y-53031396D01*
X71926000Y-53075538D01*
X71926000Y-54024462D01*
X71921653Y-54068604D01*
X71910568Y-54105144D01*
X71892567Y-54138821D01*
X71868341Y-54168341D01*
X71838821Y-54192567D01*
X71805144Y-54210568D01*
X71768604Y-54221653D01*
X71724462Y-54226000D01*
X70275538Y-54226000D01*
X70231396Y-54221653D01*
X70194856Y-54210568D01*
X70161179Y-54192567D01*
X70131659Y-54168341D01*
X70107433Y-54138821D01*
X70089432Y-54105144D01*
X70078347Y-54068604D01*
X70074000Y-54024462D01*
X70074000Y-53075538D01*
X70078347Y-53031396D01*
X70089432Y-52994856D01*
X70107433Y-52961179D01*
X70131659Y-52931659D01*
X70161179Y-52907433D01*
X70194856Y-52889432D01*
X70231396Y-52878347D01*
X70275538Y-52874000D01*
X71724462Y-52874000D01*
X71768604Y-52878347D01*
X71768604Y-52878347D01*
G37*
G36*
X41601000Y-54196000D02*
G01*
X40799000Y-54196000D01*
X40799000Y-53394000D01*
X41601000Y-53394000D01*
X41601000Y-54196000D01*
X41601000Y-54196000D01*
G37*
G36*
X69568604Y-52228347D02*
G01*
X69605144Y-52239432D01*
X69638821Y-52257433D01*
X69668341Y-52281659D01*
X69692567Y-52311179D01*
X69710568Y-52344856D01*
X69721653Y-52381396D01*
X69726000Y-52425538D01*
X69726000Y-53374462D01*
X69721653Y-53418604D01*
X69710568Y-53455144D01*
X69692567Y-53488821D01*
X69668341Y-53518341D01*
X69638821Y-53542567D01*
X69605144Y-53560568D01*
X69568604Y-53571653D01*
X69524462Y-53576000D01*
X68075538Y-53576000D01*
X68031396Y-53571653D01*
X67994856Y-53560568D01*
X67961179Y-53542567D01*
X67931659Y-53518341D01*
X67907433Y-53488821D01*
X67889432Y-53455144D01*
X67878347Y-53418604D01*
X67874000Y-53374462D01*
X67874000Y-52425538D01*
X67878347Y-52381396D01*
X67889432Y-52344856D01*
X67907433Y-52311179D01*
X67931659Y-52281659D01*
X67961179Y-52257433D01*
X67994856Y-52239432D01*
X68031396Y-52228347D01*
X68075538Y-52224000D01*
X69524462Y-52224000D01*
X69568604Y-52228347D01*
X69568604Y-52228347D01*
G37*
G36*
X67318604Y-52228347D02*
G01*
X67355144Y-52239432D01*
X67388821Y-52257433D01*
X67418341Y-52281659D01*
X67442567Y-52311179D01*
X67460568Y-52344856D01*
X67471653Y-52381396D01*
X67476000Y-52425538D01*
X67476000Y-53374462D01*
X67471653Y-53418604D01*
X67460568Y-53455144D01*
X67442567Y-53488821D01*
X67418341Y-53518341D01*
X67388821Y-53542567D01*
X67355144Y-53560568D01*
X67318604Y-53571653D01*
X67274462Y-53576000D01*
X65825538Y-53576000D01*
X65781396Y-53571653D01*
X65744856Y-53560568D01*
X65711179Y-53542567D01*
X65681659Y-53518341D01*
X65657433Y-53488821D01*
X65639432Y-53455144D01*
X65628347Y-53418604D01*
X65624000Y-53374462D01*
X65624000Y-52425538D01*
X65628347Y-52381396D01*
X65639432Y-52344856D01*
X65657433Y-52311179D01*
X65681659Y-52281659D01*
X65711179Y-52257433D01*
X65744856Y-52239432D01*
X65781396Y-52228347D01*
X65825538Y-52224000D01*
X67274462Y-52224000D01*
X67318604Y-52228347D01*
X67318604Y-52228347D01*
G37*
G36*
X62918604Y-52228347D02*
G01*
X62955144Y-52239432D01*
X62988821Y-52257433D01*
X63018341Y-52281659D01*
X63042567Y-52311179D01*
X63060568Y-52344856D01*
X63071653Y-52381396D01*
X63076000Y-52425538D01*
X63076000Y-53374462D01*
X63071653Y-53418604D01*
X63060568Y-53455144D01*
X63042567Y-53488821D01*
X63018341Y-53518341D01*
X62988821Y-53542567D01*
X62955144Y-53560568D01*
X62918604Y-53571653D01*
X62874462Y-53576000D01*
X61425538Y-53576000D01*
X61381396Y-53571653D01*
X61344856Y-53560568D01*
X61311179Y-53542567D01*
X61281659Y-53518341D01*
X61257433Y-53488821D01*
X61239432Y-53455144D01*
X61228347Y-53418604D01*
X61224000Y-53374462D01*
X61224000Y-52425538D01*
X61228347Y-52381396D01*
X61239432Y-52344856D01*
X61257433Y-52311179D01*
X61281659Y-52281659D01*
X61311179Y-52257433D01*
X61344856Y-52239432D01*
X61381396Y-52228347D01*
X61425538Y-52224000D01*
X62874462Y-52224000D01*
X62918604Y-52228347D01*
X62918604Y-52228347D01*
G37*
G36*
X65118604Y-52228346D02*
G01*
X65155144Y-52239431D01*
X65188821Y-52257432D01*
X65218341Y-52281658D01*
X65242567Y-52311178D01*
X65260568Y-52344855D01*
X65271653Y-52381395D01*
X65276000Y-52425537D01*
X65276000Y-53374461D01*
X65271653Y-53418603D01*
X65260568Y-53455143D01*
X65242567Y-53488820D01*
X65218341Y-53518340D01*
X65188821Y-53542566D01*
X65155144Y-53560567D01*
X65118604Y-53571652D01*
X65074462Y-53575999D01*
X63625538Y-53575999D01*
X63581396Y-53571652D01*
X63544856Y-53560567D01*
X63511179Y-53542566D01*
X63481659Y-53518340D01*
X63457433Y-53488820D01*
X63439432Y-53455143D01*
X63428347Y-53418603D01*
X63424000Y-53374461D01*
X63424000Y-52425537D01*
X63428347Y-52381395D01*
X63439432Y-52344855D01*
X63457433Y-52311178D01*
X63481659Y-52281658D01*
X63511179Y-52257432D01*
X63544856Y-52239431D01*
X63581396Y-52228346D01*
X63625538Y-52223999D01*
X65074462Y-52223999D01*
X65118604Y-52228346D01*
X65118604Y-52228346D01*
G37*
G36*
X27879591Y-51828085D02*
G01*
X27913569Y-51838393D01*
X27944890Y-51855134D01*
X27972339Y-51877661D01*
X27994866Y-51905110D01*
X28011607Y-51936431D01*
X28021915Y-51970409D01*
X28026000Y-52011890D01*
X28026000Y-52688110D01*
X28021915Y-52729591D01*
X28011607Y-52763569D01*
X27994866Y-52794890D01*
X27972339Y-52822339D01*
X27944890Y-52844866D01*
X27913569Y-52861607D01*
X27879591Y-52871915D01*
X27838110Y-52876000D01*
X27236890Y-52876000D01*
X27195409Y-52871915D01*
X27161431Y-52861607D01*
X27130110Y-52844866D01*
X27102661Y-52822339D01*
X27080134Y-52794890D01*
X27063393Y-52763569D01*
X27053085Y-52729591D01*
X27049000Y-52688110D01*
X27049000Y-52011890D01*
X27053085Y-51970409D01*
X27063393Y-51936431D01*
X27080134Y-51905110D01*
X27102661Y-51877661D01*
X27130110Y-51855134D01*
X27161431Y-51838393D01*
X27195409Y-51828085D01*
X27236890Y-51824000D01*
X27838110Y-51824000D01*
X27879591Y-51828085D01*
X27879591Y-51828085D01*
G37*
G36*
X26304591Y-51828085D02*
G01*
X26338569Y-51838393D01*
X26369890Y-51855134D01*
X26397339Y-51877661D01*
X26419866Y-51905110D01*
X26436607Y-51936431D01*
X26446915Y-51970409D01*
X26451000Y-52011890D01*
X26451000Y-52688110D01*
X26446915Y-52729591D01*
X26436607Y-52763569D01*
X26419866Y-52794890D01*
X26397339Y-52822339D01*
X26369890Y-52844866D01*
X26338569Y-52861607D01*
X26304591Y-52871915D01*
X26263110Y-52876000D01*
X25661890Y-52876000D01*
X25620409Y-52871915D01*
X25586431Y-52861607D01*
X25555110Y-52844866D01*
X25527661Y-52822339D01*
X25505134Y-52794890D01*
X25488393Y-52763569D01*
X25478085Y-52729591D01*
X25474000Y-52688110D01*
X25474000Y-52011890D01*
X25478085Y-51970409D01*
X25488393Y-51936431D01*
X25505134Y-51905110D01*
X25527661Y-51877661D01*
X25555110Y-51855134D01*
X25586431Y-51838393D01*
X25620409Y-51828085D01*
X25661890Y-51824000D01*
X26263110Y-51824000D01*
X26304591Y-51828085D01*
X26304591Y-51828085D01*
G37*
G36*
X23801000Y-52386000D02*
G01*
X21349000Y-52386000D01*
X21349000Y-51434000D01*
X23801000Y-51434000D01*
X23801000Y-52386000D01*
X23801000Y-52386000D01*
G37*
G36*
X79401000Y-52386000D02*
G01*
X76949000Y-52386000D01*
X76949000Y-51434000D01*
X79401000Y-51434000D01*
X79401000Y-52386000D01*
X79401000Y-52386000D01*
G37*
G36*
X71768604Y-50078347D02*
G01*
X71805144Y-50089432D01*
X71838821Y-50107433D01*
X71868341Y-50131659D01*
X71892567Y-50161179D01*
X71910568Y-50194856D01*
X71921653Y-50231396D01*
X71926000Y-50275538D01*
X71926000Y-51224462D01*
X71921653Y-51268604D01*
X71910568Y-51305144D01*
X71892567Y-51338821D01*
X71868341Y-51368341D01*
X71838821Y-51392567D01*
X71805144Y-51410568D01*
X71768604Y-51421653D01*
X71724462Y-51426000D01*
X70275538Y-51426000D01*
X70231396Y-51421653D01*
X70194856Y-51410568D01*
X70161179Y-51392567D01*
X70131659Y-51368341D01*
X70107433Y-51338821D01*
X70089432Y-51305144D01*
X70078347Y-51268604D01*
X70074000Y-51224462D01*
X70074000Y-50275538D01*
X70078347Y-50231396D01*
X70089432Y-50194856D01*
X70107433Y-50161179D01*
X70131659Y-50131659D01*
X70161179Y-50107433D01*
X70194856Y-50089432D01*
X70231396Y-50078347D01*
X70275538Y-50074000D01*
X71724462Y-50074000D01*
X71768604Y-50078347D01*
X71768604Y-50078347D01*
G37*
G36*
X69568604Y-49428347D02*
G01*
X69605144Y-49439432D01*
X69638821Y-49457433D01*
X69668341Y-49481659D01*
X69692567Y-49511179D01*
X69710568Y-49544856D01*
X69721653Y-49581396D01*
X69726000Y-49625538D01*
X69726000Y-50574462D01*
X69721653Y-50618604D01*
X69710568Y-50655144D01*
X69692567Y-50688821D01*
X69668341Y-50718341D01*
X69638821Y-50742567D01*
X69605144Y-50760568D01*
X69568604Y-50771653D01*
X69524462Y-50776000D01*
X68075538Y-50776000D01*
X68031396Y-50771653D01*
X67994856Y-50760568D01*
X67961179Y-50742567D01*
X67931659Y-50718341D01*
X67907433Y-50688821D01*
X67889432Y-50655144D01*
X67878347Y-50618604D01*
X67874000Y-50574462D01*
X67874000Y-49625538D01*
X67878347Y-49581396D01*
X67889432Y-49544856D01*
X67907433Y-49511179D01*
X67931659Y-49481659D01*
X67961179Y-49457433D01*
X67994856Y-49439432D01*
X68031396Y-49428347D01*
X68075538Y-49424000D01*
X69524462Y-49424000D01*
X69568604Y-49428347D01*
X69568604Y-49428347D01*
G37*
G36*
X62918604Y-49428347D02*
G01*
X62955144Y-49439432D01*
X62988821Y-49457433D01*
X63018341Y-49481659D01*
X63042567Y-49511179D01*
X63060568Y-49544856D01*
X63071653Y-49581396D01*
X63076000Y-49625538D01*
X63076000Y-50574462D01*
X63071653Y-50618604D01*
X63060568Y-50655144D01*
X63042567Y-50688821D01*
X63018341Y-50718341D01*
X62988821Y-50742567D01*
X62955144Y-50760568D01*
X62918604Y-50771653D01*
X62874462Y-50776000D01*
X61425538Y-50776000D01*
X61381396Y-50771653D01*
X61344856Y-50760568D01*
X61311179Y-50742567D01*
X61281659Y-50718341D01*
X61257433Y-50688821D01*
X61239432Y-50655144D01*
X61228347Y-50618604D01*
X61224000Y-50574462D01*
X61224000Y-49625538D01*
X61228347Y-49581396D01*
X61239432Y-49544856D01*
X61257433Y-49511179D01*
X61281659Y-49481659D01*
X61311179Y-49457433D01*
X61344856Y-49439432D01*
X61381396Y-49428347D01*
X61425538Y-49424000D01*
X62874462Y-49424000D01*
X62918604Y-49428347D01*
X62918604Y-49428347D01*
G37*
G36*
X67318604Y-49428347D02*
G01*
X67355144Y-49439432D01*
X67388821Y-49457433D01*
X67418341Y-49481659D01*
X67442567Y-49511179D01*
X67460568Y-49544856D01*
X67471653Y-49581396D01*
X67476000Y-49625538D01*
X67476000Y-50574462D01*
X67471653Y-50618604D01*
X67460568Y-50655144D01*
X67442567Y-50688821D01*
X67418341Y-50718341D01*
X67388821Y-50742567D01*
X67355144Y-50760568D01*
X67318604Y-50771653D01*
X67274462Y-50776000D01*
X65825538Y-50776000D01*
X65781396Y-50771653D01*
X65744856Y-50760568D01*
X65711179Y-50742567D01*
X65681659Y-50718341D01*
X65657433Y-50688821D01*
X65639432Y-50655144D01*
X65628347Y-50618604D01*
X65624000Y-50574462D01*
X65624000Y-49625538D01*
X65628347Y-49581396D01*
X65639432Y-49544856D01*
X65657433Y-49511179D01*
X65681659Y-49481659D01*
X65711179Y-49457433D01*
X65744856Y-49439432D01*
X65781396Y-49428347D01*
X65825538Y-49424000D01*
X67274462Y-49424000D01*
X67318604Y-49428347D01*
X67318604Y-49428347D01*
G37*
G36*
X65118604Y-49428346D02*
G01*
X65155144Y-49439431D01*
X65188821Y-49457432D01*
X65218341Y-49481658D01*
X65242567Y-49511178D01*
X65260568Y-49544855D01*
X65271653Y-49581395D01*
X65276000Y-49625537D01*
X65276000Y-50574461D01*
X65271653Y-50618603D01*
X65260568Y-50655143D01*
X65242567Y-50688820D01*
X65218341Y-50718340D01*
X65188821Y-50742566D01*
X65155144Y-50760567D01*
X65118604Y-50771652D01*
X65074462Y-50775999D01*
X63625538Y-50775999D01*
X63581396Y-50771652D01*
X63544856Y-50760567D01*
X63511179Y-50742566D01*
X63481659Y-50718340D01*
X63457433Y-50688820D01*
X63439432Y-50655143D01*
X63428347Y-50618603D01*
X63424000Y-50574461D01*
X63424000Y-49625537D01*
X63428347Y-49581395D01*
X63439432Y-49544855D01*
X63457433Y-49511178D01*
X63481659Y-49481658D01*
X63511179Y-49457432D01*
X63544856Y-49439431D01*
X63581396Y-49428346D01*
X63625538Y-49423999D01*
X65074462Y-49423999D01*
X65118604Y-49428346D01*
X65118604Y-49428346D01*
G37*
G36*
X58918604Y-48928347D02*
G01*
X58955144Y-48939432D01*
X58988821Y-48957433D01*
X59018341Y-48981659D01*
X59042567Y-49011179D01*
X59060568Y-49044856D01*
X59071653Y-49081396D01*
X59076000Y-49125538D01*
X59076000Y-50074462D01*
X59071653Y-50118604D01*
X59060568Y-50155144D01*
X59042567Y-50188821D01*
X59018341Y-50218341D01*
X58988821Y-50242567D01*
X58955144Y-50260568D01*
X58918604Y-50271653D01*
X58874462Y-50276000D01*
X57425538Y-50276000D01*
X57381396Y-50271653D01*
X57344856Y-50260568D01*
X57311179Y-50242567D01*
X57281659Y-50218341D01*
X57257433Y-50188821D01*
X57239432Y-50155144D01*
X57228347Y-50118604D01*
X57224000Y-50074462D01*
X57224000Y-49125538D01*
X57228347Y-49081396D01*
X57239432Y-49044856D01*
X57257433Y-49011179D01*
X57281659Y-48981659D01*
X57311179Y-48957433D01*
X57344856Y-48939432D01*
X57381396Y-48928347D01*
X57425538Y-48924000D01*
X58874462Y-48924000D01*
X58918604Y-48928347D01*
X58918604Y-48928347D01*
G37*
G36*
X74858710Y-41345070D02*
G01*
X75550447Y-41631597D01*
X75550448Y-41631598D01*
X76172996Y-42047571D01*
X76702429Y-42577004D01*
X76980374Y-42992978D01*
X77118403Y-43199553D01*
X77404930Y-43891290D01*
X77551000Y-44625633D01*
X77551000Y-45374367D01*
X77404930Y-46108710D01*
X77118403Y-46800447D01*
X77118402Y-46800448D01*
X76702429Y-47422996D01*
X76172996Y-47952429D01*
X75849467Y-48168604D01*
X75550447Y-48368403D01*
X74858710Y-48654930D01*
X74124367Y-48801000D01*
X73375633Y-48801000D01*
X72641290Y-48654930D01*
X71949553Y-48368403D01*
X71650533Y-48168604D01*
X71327004Y-47952429D01*
X70797571Y-47422996D01*
X70381598Y-46800448D01*
X70381597Y-46800447D01*
X70095070Y-46108710D01*
X69949000Y-45374367D01*
X69949000Y-44625633D01*
X70095070Y-43891290D01*
X70381597Y-43199553D01*
X70519626Y-42992978D01*
X70797571Y-42577004D01*
X71327004Y-42047571D01*
X71949552Y-41631598D01*
X71949553Y-41631597D01*
X72641290Y-41345070D01*
X73375633Y-41199000D01*
X74124367Y-41199000D01*
X74858710Y-41345070D01*
X74858710Y-41345070D01*
G37*
G36*
X27358710Y-41345070D02*
G01*
X28050447Y-41631597D01*
X28050448Y-41631598D01*
X28672996Y-42047571D01*
X29202429Y-42577004D01*
X29480374Y-42992978D01*
X29618403Y-43199553D01*
X29904930Y-43891290D01*
X30051000Y-44625633D01*
X30051000Y-45374367D01*
X29904930Y-46108710D01*
X29618403Y-46800447D01*
X29618402Y-46800448D01*
X29202429Y-47422996D01*
X28672996Y-47952429D01*
X28349467Y-48168604D01*
X28050447Y-48368403D01*
X27358710Y-48654930D01*
X26624367Y-48801000D01*
X25875633Y-48801000D01*
X25141290Y-48654930D01*
X24449553Y-48368403D01*
X24150533Y-48168604D01*
X23827004Y-47952429D01*
X23297571Y-47422996D01*
X22881598Y-46800448D01*
X22881597Y-46800447D01*
X22595070Y-46108710D01*
X22449000Y-45374367D01*
X22449000Y-44625633D01*
X22595070Y-43891290D01*
X22881597Y-43199553D01*
X23019626Y-42992978D01*
X23297571Y-42577004D01*
X23827004Y-42047571D01*
X24449552Y-41631598D01*
X24449553Y-41631597D01*
X25141290Y-41345070D01*
X25875633Y-41199000D01*
X26624367Y-41199000D01*
X27358710Y-41345070D01*
X27358710Y-41345070D01*
G37*
G36*
X50672797Y-45074247D02*
G01*
X50708366Y-45085037D01*
X50741138Y-45102554D01*
X50769868Y-45126131D01*
X50793445Y-45154861D01*
X50810962Y-45187633D01*
X50821752Y-45223202D01*
X50825999Y-45266325D01*
X50825999Y-48325675D01*
X50821752Y-48368798D01*
X50810962Y-48404367D01*
X50793445Y-48437139D01*
X50769868Y-48465869D01*
X50741138Y-48489446D01*
X50708366Y-48506963D01*
X50672797Y-48517753D01*
X50629674Y-48522000D01*
X49570324Y-48522000D01*
X49527201Y-48517753D01*
X49491632Y-48506963D01*
X49458860Y-48489446D01*
X49430130Y-48465869D01*
X49406553Y-48437139D01*
X49389036Y-48404367D01*
X49378246Y-48368798D01*
X49373999Y-48325675D01*
X49373999Y-45266325D01*
X49378246Y-45223202D01*
X49389036Y-45187633D01*
X49406553Y-45154861D01*
X49430130Y-45126131D01*
X49458860Y-45102554D01*
X49491632Y-45085037D01*
X49527201Y-45074247D01*
X49570324Y-45070000D01*
X50629674Y-45070000D01*
X50672797Y-45074247D01*
X50672797Y-45074247D01*
G37*
G36*
X56472797Y-45074247D02*
G01*
X56508366Y-45085037D01*
X56541138Y-45102554D01*
X56569868Y-45126131D01*
X56593445Y-45154861D01*
X56610962Y-45187633D01*
X56621752Y-45223202D01*
X56625999Y-45266325D01*
X56625999Y-48325675D01*
X56621752Y-48368798D01*
X56610962Y-48404367D01*
X56593445Y-48437139D01*
X56569868Y-48465869D01*
X56541138Y-48489446D01*
X56508366Y-48506963D01*
X56472797Y-48517753D01*
X56429674Y-48522000D01*
X55370324Y-48522000D01*
X55327201Y-48517753D01*
X55291632Y-48506963D01*
X55258860Y-48489446D01*
X55230130Y-48465869D01*
X55206553Y-48437139D01*
X55189036Y-48404367D01*
X55178246Y-48368798D01*
X55173999Y-48325675D01*
X55173999Y-45266325D01*
X55178246Y-45223202D01*
X55189036Y-45187633D01*
X55206553Y-45154861D01*
X55230130Y-45126131D01*
X55258860Y-45102554D01*
X55291632Y-45085037D01*
X55327201Y-45074247D01*
X55370324Y-45070000D01*
X56429674Y-45070000D01*
X56472797Y-45074247D01*
X56472797Y-45074247D01*
G37*
G36*
X48549000Y-48340000D02*
G01*
X47747000Y-48340000D01*
X47747000Y-47538000D01*
X48549000Y-47538000D01*
X48549000Y-48340000D01*
X48549000Y-48340000D01*
G37*
G36*
X47244000Y-48340000D02*
G01*
X42147000Y-48340000D01*
X42147000Y-47538000D01*
X42667001Y-47538000D01*
X42691387Y-47535598D01*
X42714836Y-47528485D01*
X42736447Y-47516934D01*
X42755389Y-47501389D01*
X42770934Y-47482447D01*
X42782485Y-47460836D01*
X42789598Y-47437387D01*
X42792000Y-47413001D01*
X42792000Y-47194999D01*
X42789598Y-47170613D01*
X42782485Y-47147164D01*
X42770934Y-47125553D01*
X42755389Y-47106611D01*
X42736447Y-47091066D01*
X42714836Y-47079515D01*
X42691387Y-47072402D01*
X42667001Y-47070000D01*
X42147000Y-47070000D01*
X42147000Y-46268000D01*
X42667001Y-46268000D01*
X42691387Y-46265598D01*
X42714836Y-46258485D01*
X42736447Y-46246934D01*
X42755389Y-46231389D01*
X42770934Y-46212447D01*
X42782485Y-46190836D01*
X42789598Y-46167387D01*
X42792000Y-46143001D01*
X42792000Y-45924999D01*
X42789598Y-45900613D01*
X42782485Y-45877164D01*
X42770934Y-45855553D01*
X42755389Y-45836611D01*
X42736447Y-45821066D01*
X42714836Y-45809515D01*
X42691387Y-45802402D01*
X42667001Y-45800000D01*
X42147000Y-45800000D01*
X42147000Y-44998000D01*
X42667001Y-44998000D01*
X42691387Y-44995598D01*
X42714836Y-44988485D01*
X42736447Y-44976934D01*
X42755389Y-44961389D01*
X42770934Y-44942447D01*
X42782485Y-44920836D01*
X42789598Y-44897387D01*
X42792000Y-44873001D01*
X42792000Y-44654999D01*
X42789598Y-44630613D01*
X42782485Y-44607164D01*
X42770934Y-44585553D01*
X42755389Y-44566611D01*
X42736447Y-44551066D01*
X42714836Y-44539515D01*
X42691387Y-44532402D01*
X42667001Y-44530000D01*
X42147000Y-44530000D01*
X42147000Y-43728000D01*
X47244000Y-43728000D01*
X47244000Y-48340000D01*
X47244000Y-48340000D01*
G37*
G36*
X63518604Y-46478347D02*
G01*
X63555144Y-46489432D01*
X63588821Y-46507433D01*
X63618341Y-46531659D01*
X63642567Y-46561179D01*
X63660568Y-46594856D01*
X63671653Y-46631396D01*
X63676000Y-46675538D01*
X63676000Y-48124462D01*
X63671653Y-48168604D01*
X63660568Y-48205144D01*
X63642567Y-48238821D01*
X63618341Y-48268341D01*
X63588821Y-48292567D01*
X63555144Y-48310568D01*
X63518604Y-48321653D01*
X63474462Y-48326000D01*
X62525538Y-48326000D01*
X62481396Y-48321653D01*
X62444856Y-48310568D01*
X62411179Y-48292567D01*
X62381659Y-48268341D01*
X62357433Y-48238821D01*
X62339432Y-48205144D01*
X62328347Y-48168604D01*
X62324000Y-48124462D01*
X62324000Y-46675538D01*
X62328347Y-46631396D01*
X62339432Y-46594856D01*
X62357433Y-46561179D01*
X62381659Y-46531659D01*
X62411179Y-46507433D01*
X62444856Y-46489432D01*
X62481396Y-46478347D01*
X62525538Y-46474000D01*
X63474462Y-46474000D01*
X63518604Y-46478347D01*
X63518604Y-46478347D01*
G37*
G36*
X68118604Y-46478347D02*
G01*
X68155144Y-46489432D01*
X68188821Y-46507433D01*
X68218341Y-46531659D01*
X68242567Y-46561179D01*
X68260568Y-46594856D01*
X68271653Y-46631396D01*
X68276000Y-46675538D01*
X68276000Y-48124462D01*
X68271653Y-48168604D01*
X68260568Y-48205144D01*
X68242567Y-48238821D01*
X68218341Y-48268341D01*
X68188821Y-48292567D01*
X68155144Y-48310568D01*
X68118604Y-48321653D01*
X68074462Y-48326000D01*
X67125538Y-48326000D01*
X67081396Y-48321653D01*
X67044856Y-48310568D01*
X67011179Y-48292567D01*
X66981659Y-48268341D01*
X66957433Y-48238821D01*
X66939432Y-48205144D01*
X66928347Y-48168604D01*
X66924000Y-48124462D01*
X66924000Y-46675538D01*
X66928347Y-46631396D01*
X66939432Y-46594856D01*
X66957433Y-46561179D01*
X66981659Y-46531659D01*
X67011179Y-46507433D01*
X67044856Y-46489432D01*
X67081396Y-46478347D01*
X67125538Y-46474000D01*
X68074462Y-46474000D01*
X68118604Y-46478347D01*
X68118604Y-46478347D01*
G37*
G36*
X65318604Y-46478347D02*
G01*
X65355144Y-46489432D01*
X65388821Y-46507433D01*
X65418341Y-46531659D01*
X65442567Y-46561179D01*
X65460568Y-46594856D01*
X65471653Y-46631396D01*
X65476000Y-46675538D01*
X65476000Y-48124462D01*
X65471653Y-48168604D01*
X65460568Y-48205144D01*
X65442567Y-48238821D01*
X65418341Y-48268341D01*
X65388821Y-48292567D01*
X65355144Y-48310568D01*
X65318604Y-48321653D01*
X65274462Y-48326000D01*
X64325538Y-48326000D01*
X64281396Y-48321653D01*
X64244856Y-48310568D01*
X64211179Y-48292567D01*
X64181659Y-48268341D01*
X64157433Y-48238821D01*
X64139432Y-48205144D01*
X64128347Y-48168604D01*
X64124000Y-48124462D01*
X64124000Y-46675538D01*
X64128347Y-46631396D01*
X64139432Y-46594856D01*
X64157433Y-46561179D01*
X64181659Y-46531659D01*
X64211179Y-46507433D01*
X64244856Y-46489432D01*
X64281396Y-46478347D01*
X64325538Y-46474000D01*
X65274462Y-46474000D01*
X65318604Y-46478347D01*
X65318604Y-46478347D01*
G37*
G36*
X60718604Y-46478347D02*
G01*
X60755144Y-46489432D01*
X60788821Y-46507433D01*
X60818341Y-46531659D01*
X60842567Y-46561179D01*
X60860568Y-46594856D01*
X60871653Y-46631396D01*
X60876000Y-46675538D01*
X60876000Y-48124462D01*
X60871653Y-48168604D01*
X60860568Y-48205144D01*
X60842567Y-48238821D01*
X60818341Y-48268341D01*
X60788821Y-48292567D01*
X60755144Y-48310568D01*
X60718604Y-48321653D01*
X60674462Y-48326000D01*
X59725538Y-48326000D01*
X59681396Y-48321653D01*
X59644856Y-48310568D01*
X59611179Y-48292567D01*
X59581659Y-48268341D01*
X59557433Y-48238821D01*
X59539432Y-48205144D01*
X59528347Y-48168604D01*
X59524000Y-48124462D01*
X59524000Y-46675538D01*
X59528347Y-46631396D01*
X59539432Y-46594856D01*
X59557433Y-46561179D01*
X59581659Y-46531659D01*
X59611179Y-46507433D01*
X59644856Y-46489432D01*
X59681396Y-46478347D01*
X59725538Y-46474000D01*
X60674462Y-46474000D01*
X60718604Y-46478347D01*
X60718604Y-46478347D01*
G37*
G36*
X58918604Y-46128347D02*
G01*
X58955144Y-46139432D01*
X58988821Y-46157433D01*
X59018341Y-46181659D01*
X59042567Y-46211179D01*
X59060568Y-46244856D01*
X59071653Y-46281396D01*
X59076000Y-46325538D01*
X59076000Y-47274462D01*
X59071653Y-47318604D01*
X59060568Y-47355144D01*
X59042567Y-47388821D01*
X59018341Y-47418341D01*
X58988821Y-47442567D01*
X58955144Y-47460568D01*
X58918604Y-47471653D01*
X58874462Y-47476000D01*
X57425538Y-47476000D01*
X57381396Y-47471653D01*
X57344856Y-47460568D01*
X57311179Y-47442567D01*
X57281659Y-47418341D01*
X57257433Y-47388821D01*
X57239432Y-47355144D01*
X57228347Y-47318604D01*
X57224000Y-47274462D01*
X57224000Y-46325538D01*
X57228347Y-46281396D01*
X57239432Y-46244856D01*
X57257433Y-46211179D01*
X57281659Y-46181659D01*
X57311179Y-46157433D01*
X57344856Y-46139432D01*
X57381396Y-46128347D01*
X57425538Y-46124000D01*
X58874462Y-46124000D01*
X58918604Y-46128347D01*
X58918604Y-46128347D01*
G37*
G36*
X48549000Y-47070000D02*
G01*
X47747000Y-47070000D01*
X47747000Y-46268000D01*
X48549000Y-46268000D01*
X48549000Y-47070000D01*
X48549000Y-47070000D01*
G37*
G36*
X63518604Y-44228347D02*
G01*
X63555144Y-44239432D01*
X63588821Y-44257433D01*
X63618341Y-44281659D01*
X63642567Y-44311179D01*
X63660568Y-44344856D01*
X63671653Y-44381396D01*
X63676000Y-44425538D01*
X63676000Y-45874462D01*
X63671653Y-45918604D01*
X63660568Y-45955144D01*
X63642567Y-45988821D01*
X63618341Y-46018341D01*
X63588821Y-46042567D01*
X63555144Y-46060568D01*
X63518604Y-46071653D01*
X63474462Y-46076000D01*
X62525538Y-46076000D01*
X62481396Y-46071653D01*
X62444856Y-46060568D01*
X62411179Y-46042567D01*
X62381659Y-46018341D01*
X62357433Y-45988821D01*
X62339432Y-45955144D01*
X62328347Y-45918604D01*
X62324000Y-45874462D01*
X62324000Y-44425538D01*
X62328347Y-44381396D01*
X62339432Y-44344856D01*
X62357433Y-44311179D01*
X62381659Y-44281659D01*
X62411179Y-44257433D01*
X62444856Y-44239432D01*
X62481396Y-44228347D01*
X62525538Y-44224000D01*
X63474462Y-44224000D01*
X63518604Y-44228347D01*
X63518604Y-44228347D01*
G37*
G36*
X60718604Y-44228347D02*
G01*
X60755144Y-44239432D01*
X60788821Y-44257433D01*
X60818341Y-44281659D01*
X60842567Y-44311179D01*
X60860568Y-44344856D01*
X60871653Y-44381396D01*
X60876000Y-44425538D01*
X60876000Y-45874462D01*
X60871653Y-45918604D01*
X60860568Y-45955144D01*
X60842567Y-45988821D01*
X60818341Y-46018341D01*
X60788821Y-46042567D01*
X60755144Y-46060568D01*
X60718604Y-46071653D01*
X60674462Y-46076000D01*
X59725538Y-46076000D01*
X59681396Y-46071653D01*
X59644856Y-46060568D01*
X59611179Y-46042567D01*
X59581659Y-46018341D01*
X59557433Y-45988821D01*
X59539432Y-45955144D01*
X59528347Y-45918604D01*
X59524000Y-45874462D01*
X59524000Y-44425538D01*
X59528347Y-44381396D01*
X59539432Y-44344856D01*
X59557433Y-44311179D01*
X59581659Y-44281659D01*
X59611179Y-44257433D01*
X59644856Y-44239432D01*
X59681396Y-44228347D01*
X59725538Y-44224000D01*
X60674462Y-44224000D01*
X60718604Y-44228347D01*
X60718604Y-44228347D01*
G37*
G36*
X68118604Y-44228347D02*
G01*
X68155144Y-44239432D01*
X68188821Y-44257433D01*
X68218341Y-44281659D01*
X68242567Y-44311179D01*
X68260568Y-44344856D01*
X68271653Y-44381396D01*
X68276000Y-44425538D01*
X68276000Y-45874462D01*
X68271653Y-45918604D01*
X68260568Y-45955144D01*
X68242567Y-45988821D01*
X68218341Y-46018341D01*
X68188821Y-46042567D01*
X68155144Y-46060568D01*
X68118604Y-46071653D01*
X68074462Y-46076000D01*
X67125538Y-46076000D01*
X67081396Y-46071653D01*
X67044856Y-46060568D01*
X67011179Y-46042567D01*
X66981659Y-46018341D01*
X66957433Y-45988821D01*
X66939432Y-45955144D01*
X66928347Y-45918604D01*
X66924000Y-45874462D01*
X66924000Y-44425538D01*
X66928347Y-44381396D01*
X66939432Y-44344856D01*
X66957433Y-44311179D01*
X66981659Y-44281659D01*
X67011179Y-44257433D01*
X67044856Y-44239432D01*
X67081396Y-44228347D01*
X67125538Y-44224000D01*
X68074462Y-44224000D01*
X68118604Y-44228347D01*
X68118604Y-44228347D01*
G37*
G36*
X65318604Y-44228347D02*
G01*
X65355144Y-44239432D01*
X65388821Y-44257433D01*
X65418341Y-44281659D01*
X65442567Y-44311179D01*
X65460568Y-44344856D01*
X65471653Y-44381396D01*
X65476000Y-44425538D01*
X65476000Y-45874462D01*
X65471653Y-45918604D01*
X65460568Y-45955144D01*
X65442567Y-45988821D01*
X65418341Y-46018341D01*
X65388821Y-46042567D01*
X65355144Y-46060568D01*
X65318604Y-46071653D01*
X65274462Y-46076000D01*
X64325538Y-46076000D01*
X64281396Y-46071653D01*
X64244856Y-46060568D01*
X64211179Y-46042567D01*
X64181659Y-46018341D01*
X64157433Y-45988821D01*
X64139432Y-45955144D01*
X64128347Y-45918604D01*
X64124000Y-45874462D01*
X64124000Y-44425538D01*
X64128347Y-44381396D01*
X64139432Y-44344856D01*
X64157433Y-44311179D01*
X64181659Y-44281659D01*
X64211179Y-44257433D01*
X64244856Y-44239432D01*
X64281396Y-44228347D01*
X64325538Y-44224000D01*
X65274462Y-44224000D01*
X65318604Y-44228347D01*
X65318604Y-44228347D01*
G37*
G36*
X48549000Y-45800000D02*
G01*
X47747000Y-45800000D01*
X47747000Y-44998000D01*
X48549000Y-44998000D01*
X48549000Y-45800000D01*
X48549000Y-45800000D01*
G37*
G36*
X48549000Y-44530000D02*
G01*
X47747000Y-44530000D01*
X47747000Y-43728000D01*
X48549000Y-43728000D01*
X48549000Y-44530000D01*
X48549000Y-44530000D01*
G37*
G36*
X52636938Y-43631716D02*
G01*
X52657557Y-43637971D01*
X52676553Y-43648124D01*
X52693208Y-43661792D01*
X52706876Y-43678447D01*
X52717029Y-43697443D01*
X52723284Y-43718062D01*
X52726000Y-43745640D01*
X52726000Y-44254360D01*
X52723284Y-44281938D01*
X52717029Y-44302557D01*
X52706876Y-44321553D01*
X52693208Y-44338208D01*
X52676553Y-44351876D01*
X52657557Y-44362029D01*
X52636938Y-44368284D01*
X52609360Y-44371000D01*
X52150640Y-44371000D01*
X52123062Y-44368284D01*
X52102443Y-44362029D01*
X52083447Y-44351876D01*
X52066792Y-44338208D01*
X52053124Y-44321553D01*
X52042971Y-44302557D01*
X52036716Y-44281938D01*
X52034000Y-44254360D01*
X52034000Y-43745640D01*
X52036716Y-43718062D01*
X52042971Y-43697443D01*
X52053124Y-43678447D01*
X52066792Y-43661792D01*
X52083447Y-43648124D01*
X52102443Y-43637971D01*
X52123062Y-43631716D01*
X52150640Y-43629000D01*
X52609360Y-43629000D01*
X52636938Y-43631716D01*
X52636938Y-43631716D01*
G37*
G36*
X50456938Y-43631716D02*
G01*
X50477557Y-43637971D01*
X50496553Y-43648124D01*
X50513208Y-43661792D01*
X50526876Y-43678447D01*
X50537029Y-43697443D01*
X50543284Y-43718062D01*
X50546000Y-43745640D01*
X50546000Y-44254360D01*
X50543284Y-44281938D01*
X50537029Y-44302557D01*
X50526876Y-44321553D01*
X50513208Y-44338208D01*
X50496553Y-44351876D01*
X50477557Y-44362029D01*
X50456938Y-44368284D01*
X50429360Y-44371000D01*
X49970640Y-44371000D01*
X49943062Y-44368284D01*
X49922443Y-44362029D01*
X49903447Y-44351876D01*
X49886792Y-44338208D01*
X49873124Y-44321553D01*
X49862971Y-44302557D01*
X49856716Y-44281938D01*
X49854000Y-44254360D01*
X49854000Y-43745640D01*
X49856716Y-43718062D01*
X49862971Y-43697443D01*
X49873124Y-43678447D01*
X49886792Y-43661792D01*
X49903447Y-43648124D01*
X49922443Y-43637971D01*
X49943062Y-43631716D01*
X49970640Y-43629000D01*
X50429360Y-43629000D01*
X50456938Y-43631716D01*
X50456938Y-43631716D01*
G37*
G36*
X51426938Y-43631716D02*
G01*
X51447557Y-43637971D01*
X51466553Y-43648124D01*
X51483208Y-43661792D01*
X51496876Y-43678447D01*
X51507029Y-43697443D01*
X51513284Y-43718062D01*
X51516000Y-43745640D01*
X51516000Y-44254360D01*
X51513284Y-44281938D01*
X51507029Y-44302557D01*
X51496876Y-44321553D01*
X51483208Y-44338208D01*
X51466553Y-44351876D01*
X51447557Y-44362029D01*
X51426938Y-44368284D01*
X51399360Y-44371000D01*
X50940640Y-44371000D01*
X50913062Y-44368284D01*
X50892443Y-44362029D01*
X50873447Y-44351876D01*
X50856792Y-44338208D01*
X50843124Y-44321553D01*
X50832971Y-44302557D01*
X50826716Y-44281938D01*
X50824000Y-44254360D01*
X50824000Y-43745640D01*
X50826716Y-43718062D01*
X50832971Y-43697443D01*
X50843124Y-43678447D01*
X50856792Y-43661792D01*
X50873447Y-43648124D01*
X50892443Y-43637971D01*
X50913062Y-43631716D01*
X50940640Y-43629000D01*
X51399360Y-43629000D01*
X51426938Y-43631716D01*
X51426938Y-43631716D01*
G37*
G36*
X55641938Y-43631716D02*
G01*
X55662557Y-43637971D01*
X55681553Y-43648124D01*
X55698208Y-43661792D01*
X55711876Y-43678447D01*
X55722029Y-43697443D01*
X55728284Y-43718062D01*
X55731000Y-43745640D01*
X55731000Y-44254360D01*
X55728284Y-44281938D01*
X55722029Y-44302557D01*
X55711876Y-44321553D01*
X55698208Y-44338208D01*
X55681553Y-44351876D01*
X55662557Y-44362029D01*
X55641938Y-44368284D01*
X55614360Y-44371000D01*
X55155640Y-44371000D01*
X55128062Y-44368284D01*
X55107443Y-44362029D01*
X55088447Y-44351876D01*
X55071792Y-44338208D01*
X55058124Y-44321553D01*
X55047971Y-44302557D01*
X55041716Y-44281938D01*
X55039000Y-44254360D01*
X55039000Y-43745640D01*
X55041716Y-43718062D01*
X55047971Y-43697443D01*
X55058124Y-43678447D01*
X55071792Y-43661792D01*
X55088447Y-43648124D01*
X55107443Y-43637971D01*
X55128062Y-43631716D01*
X55155640Y-43629000D01*
X55614360Y-43629000D01*
X55641938Y-43631716D01*
X55641938Y-43631716D01*
G37*
G36*
X54671938Y-43631716D02*
G01*
X54692557Y-43637971D01*
X54711553Y-43648124D01*
X54728208Y-43661792D01*
X54741876Y-43678447D01*
X54752029Y-43697443D01*
X54758284Y-43718062D01*
X54761000Y-43745640D01*
X54761000Y-44254360D01*
X54758284Y-44281938D01*
X54752029Y-44302557D01*
X54741876Y-44321553D01*
X54728208Y-44338208D01*
X54711553Y-44351876D01*
X54692557Y-44362029D01*
X54671938Y-44368284D01*
X54644360Y-44371000D01*
X54185640Y-44371000D01*
X54158062Y-44368284D01*
X54137443Y-44362029D01*
X54118447Y-44351876D01*
X54101792Y-44338208D01*
X54088124Y-44321553D01*
X54077971Y-44302557D01*
X54071716Y-44281938D01*
X54069000Y-44254360D01*
X54069000Y-43745640D01*
X54071716Y-43718062D01*
X54077971Y-43697443D01*
X54088124Y-43678447D01*
X54101792Y-43661792D01*
X54118447Y-43648124D01*
X54137443Y-43637971D01*
X54158062Y-43631716D01*
X54185640Y-43629000D01*
X54644360Y-43629000D01*
X54671938Y-43631716D01*
X54671938Y-43631716D01*
G37*
G36*
X53606938Y-43631716D02*
G01*
X53627557Y-43637971D01*
X53646553Y-43648124D01*
X53663208Y-43661792D01*
X53676876Y-43678447D01*
X53687029Y-43697443D01*
X53693284Y-43718062D01*
X53696000Y-43745640D01*
X53696000Y-44254360D01*
X53693284Y-44281938D01*
X53687029Y-44302557D01*
X53676876Y-44321553D01*
X53663208Y-44338208D01*
X53646553Y-44351876D01*
X53627557Y-44362029D01*
X53606938Y-44368284D01*
X53579360Y-44371000D01*
X53120640Y-44371000D01*
X53093062Y-44368284D01*
X53072443Y-44362029D01*
X53053447Y-44351876D01*
X53036792Y-44338208D01*
X53023124Y-44321553D01*
X53012971Y-44302557D01*
X53006716Y-44281938D01*
X53004000Y-44254360D01*
X53004000Y-43745640D01*
X53006716Y-43718062D01*
X53012971Y-43697443D01*
X53023124Y-43678447D01*
X53036792Y-43661792D01*
X53053447Y-43648124D01*
X53072443Y-43637971D01*
X53093062Y-43631716D01*
X53120640Y-43629000D01*
X53579360Y-43629000D01*
X53606938Y-43631716D01*
X53606938Y-43631716D01*
G37*
G36*
X68118604Y-41978347D02*
G01*
X68155144Y-41989432D01*
X68188821Y-42007433D01*
X68218341Y-42031659D01*
X68242567Y-42061179D01*
X68260568Y-42094856D01*
X68271653Y-42131396D01*
X68276000Y-42175538D01*
X68276000Y-43624462D01*
X68271653Y-43668604D01*
X68260568Y-43705144D01*
X68242567Y-43738821D01*
X68218341Y-43768341D01*
X68188821Y-43792567D01*
X68155144Y-43810568D01*
X68118604Y-43821653D01*
X68074462Y-43826000D01*
X67125538Y-43826000D01*
X67081396Y-43821653D01*
X67044856Y-43810568D01*
X67011179Y-43792567D01*
X66981659Y-43768341D01*
X66957433Y-43738821D01*
X66939432Y-43705144D01*
X66928347Y-43668604D01*
X66924000Y-43624462D01*
X66924000Y-42175538D01*
X66928347Y-42131396D01*
X66939432Y-42094856D01*
X66957433Y-42061179D01*
X66981659Y-42031659D01*
X67011179Y-42007433D01*
X67044856Y-41989432D01*
X67081396Y-41978347D01*
X67125538Y-41974000D01*
X68074462Y-41974000D01*
X68118604Y-41978347D01*
X68118604Y-41978347D01*
G37*
G36*
X60718604Y-41978347D02*
G01*
X60755144Y-41989432D01*
X60788821Y-42007433D01*
X60818341Y-42031659D01*
X60842567Y-42061179D01*
X60860568Y-42094856D01*
X60871653Y-42131396D01*
X60876000Y-42175538D01*
X60876000Y-43624462D01*
X60871653Y-43668604D01*
X60860568Y-43705144D01*
X60842567Y-43738821D01*
X60818341Y-43768341D01*
X60788821Y-43792567D01*
X60755144Y-43810568D01*
X60718604Y-43821653D01*
X60674462Y-43826000D01*
X59725538Y-43826000D01*
X59681396Y-43821653D01*
X59644856Y-43810568D01*
X59611179Y-43792567D01*
X59581659Y-43768341D01*
X59557433Y-43738821D01*
X59539432Y-43705144D01*
X59528347Y-43668604D01*
X59524000Y-43624462D01*
X59524000Y-42175538D01*
X59528347Y-42131396D01*
X59539432Y-42094856D01*
X59557433Y-42061179D01*
X59581659Y-42031659D01*
X59611179Y-42007433D01*
X59644856Y-41989432D01*
X59681396Y-41978347D01*
X59725538Y-41974000D01*
X60674462Y-41974000D01*
X60718604Y-41978347D01*
X60718604Y-41978347D01*
G37*
G36*
X63518604Y-41978347D02*
G01*
X63555144Y-41989432D01*
X63588821Y-42007433D01*
X63618341Y-42031659D01*
X63642567Y-42061179D01*
X63660568Y-42094856D01*
X63671653Y-42131396D01*
X63676000Y-42175538D01*
X63676000Y-43624462D01*
X63671653Y-43668604D01*
X63660568Y-43705144D01*
X63642567Y-43738821D01*
X63618341Y-43768341D01*
X63588821Y-43792567D01*
X63555144Y-43810568D01*
X63518604Y-43821653D01*
X63474462Y-43826000D01*
X62525538Y-43826000D01*
X62481396Y-43821653D01*
X62444856Y-43810568D01*
X62411179Y-43792567D01*
X62381659Y-43768341D01*
X62357433Y-43738821D01*
X62339432Y-43705144D01*
X62328347Y-43668604D01*
X62324000Y-43624462D01*
X62324000Y-42175538D01*
X62328347Y-42131396D01*
X62339432Y-42094856D01*
X62357433Y-42061179D01*
X62381659Y-42031659D01*
X62411179Y-42007433D01*
X62444856Y-41989432D01*
X62481396Y-41978347D01*
X62525538Y-41974000D01*
X63474462Y-41974000D01*
X63518604Y-41978347D01*
X63518604Y-41978347D01*
G37*
G36*
X65318604Y-41978347D02*
G01*
X65355144Y-41989432D01*
X65388821Y-42007433D01*
X65418341Y-42031659D01*
X65442567Y-42061179D01*
X65460568Y-42094856D01*
X65471653Y-42131396D01*
X65476000Y-42175538D01*
X65476000Y-43624462D01*
X65471653Y-43668604D01*
X65460568Y-43705144D01*
X65442567Y-43738821D01*
X65418341Y-43768341D01*
X65388821Y-43792567D01*
X65355144Y-43810568D01*
X65318604Y-43821653D01*
X65274462Y-43826000D01*
X64325538Y-43826000D01*
X64281396Y-43821653D01*
X64244856Y-43810568D01*
X64211179Y-43792567D01*
X64181659Y-43768341D01*
X64157433Y-43738821D01*
X64139432Y-43705144D01*
X64128347Y-43668604D01*
X64124000Y-43624462D01*
X64124000Y-42175538D01*
X64128347Y-42131396D01*
X64139432Y-42094856D01*
X64157433Y-42061179D01*
X64181659Y-42031659D01*
X64211179Y-42007433D01*
X64244856Y-41989432D01*
X64281396Y-41978347D01*
X64325538Y-41974000D01*
X65274462Y-41974000D01*
X65318604Y-41978347D01*
X65318604Y-41978347D01*
G37*
G36*
X40296000Y-43706000D02*
G01*
X35199000Y-43706000D01*
X35199000Y-42904000D01*
X35719001Y-42904000D01*
X35743387Y-42901598D01*
X35766836Y-42894485D01*
X35788447Y-42882934D01*
X35807389Y-42867389D01*
X35822934Y-42848447D01*
X35834485Y-42826836D01*
X35841598Y-42803387D01*
X35844000Y-42779001D01*
X35844000Y-42560999D01*
X35841598Y-42536613D01*
X35834485Y-42513164D01*
X35822934Y-42491553D01*
X35807389Y-42472611D01*
X35788447Y-42457066D01*
X35766836Y-42445515D01*
X35743387Y-42438402D01*
X35719001Y-42436000D01*
X35199000Y-42436000D01*
X35199000Y-41634000D01*
X35719001Y-41634000D01*
X35743387Y-41631598D01*
X35766836Y-41624485D01*
X35788447Y-41612934D01*
X35807389Y-41597389D01*
X35822934Y-41578447D01*
X35834485Y-41556836D01*
X35841598Y-41533387D01*
X35844000Y-41509001D01*
X35844000Y-41290999D01*
X35841598Y-41266613D01*
X35834485Y-41243164D01*
X35822934Y-41221553D01*
X35807389Y-41202611D01*
X35788447Y-41187066D01*
X35766836Y-41175515D01*
X35743387Y-41168402D01*
X35719001Y-41166000D01*
X35199000Y-41166000D01*
X35199000Y-40364000D01*
X35719001Y-40364000D01*
X35743387Y-40361598D01*
X35766836Y-40354485D01*
X35788447Y-40342934D01*
X35807389Y-40327389D01*
X35822934Y-40308447D01*
X35834485Y-40286836D01*
X35841598Y-40263387D01*
X35844000Y-40239001D01*
X35844000Y-40020999D01*
X35841598Y-39996613D01*
X35834485Y-39973164D01*
X35822934Y-39951553D01*
X35807389Y-39932611D01*
X35788447Y-39917066D01*
X35766836Y-39905515D01*
X35743387Y-39898402D01*
X35719001Y-39896000D01*
X35199000Y-39896000D01*
X35199000Y-39094000D01*
X40296000Y-39094000D01*
X40296000Y-43706000D01*
X40296000Y-43706000D01*
G37*
G36*
X41601000Y-43706000D02*
G01*
X40799000Y-43706000D01*
X40799000Y-42904000D01*
X41601000Y-42904000D01*
X41601000Y-43706000D01*
X41601000Y-43706000D01*
G37*
G36*
X56476000Y-42601000D02*
G01*
X55524000Y-42601000D01*
X55524000Y-40149000D01*
X56476000Y-40149000D01*
X56476000Y-42601000D01*
X56476000Y-42601000D01*
G37*
G36*
X48476000Y-42601000D02*
G01*
X47524000Y-42601000D01*
X47524000Y-40149000D01*
X48476000Y-40149000D01*
X48476000Y-42601000D01*
X48476000Y-42601000D01*
G37*
G36*
X52476000Y-42601000D02*
G01*
X51524000Y-42601000D01*
X51524000Y-40149000D01*
X52476000Y-40149000D01*
X52476000Y-42601000D01*
X52476000Y-42601000D01*
G37*
G36*
X41601000Y-42436000D02*
G01*
X40799000Y-42436000D01*
X40799000Y-41634000D01*
X41601000Y-41634000D01*
X41601000Y-42436000D01*
X41601000Y-42436000D01*
G37*
G36*
X64218604Y-40228347D02*
G01*
X64255144Y-40239432D01*
X64288821Y-40257433D01*
X64318341Y-40281659D01*
X64342567Y-40311179D01*
X64360568Y-40344856D01*
X64371653Y-40381396D01*
X64376000Y-40425538D01*
X64376000Y-41374462D01*
X64371653Y-41418604D01*
X64360568Y-41455144D01*
X64342567Y-41488821D01*
X64318341Y-41518341D01*
X64288821Y-41542567D01*
X64255144Y-41560568D01*
X64218604Y-41571653D01*
X64174462Y-41576000D01*
X62725538Y-41576000D01*
X62681396Y-41571653D01*
X62644856Y-41560568D01*
X62611179Y-41542567D01*
X62581659Y-41518341D01*
X62557433Y-41488821D01*
X62539432Y-41455144D01*
X62528347Y-41418604D01*
X62524000Y-41374462D01*
X62524000Y-40425538D01*
X62528347Y-40381396D01*
X62539432Y-40344856D01*
X62557433Y-40311179D01*
X62581659Y-40281659D01*
X62611179Y-40257433D01*
X62644856Y-40239432D01*
X62681396Y-40228347D01*
X62725538Y-40224000D01*
X64174462Y-40224000D01*
X64218604Y-40228347D01*
X64218604Y-40228347D01*
G37*
G36*
X66518604Y-40228347D02*
G01*
X66555144Y-40239432D01*
X66588821Y-40257433D01*
X66618341Y-40281659D01*
X66642567Y-40311179D01*
X66660568Y-40344856D01*
X66671653Y-40381396D01*
X66676000Y-40425538D01*
X66676000Y-41374462D01*
X66671653Y-41418604D01*
X66660568Y-41455144D01*
X66642567Y-41488821D01*
X66618341Y-41518341D01*
X66588821Y-41542567D01*
X66555144Y-41560568D01*
X66518604Y-41571653D01*
X66474462Y-41576000D01*
X65025538Y-41576000D01*
X64981396Y-41571653D01*
X64944856Y-41560568D01*
X64911179Y-41542567D01*
X64881659Y-41518341D01*
X64857433Y-41488821D01*
X64839432Y-41455144D01*
X64828347Y-41418604D01*
X64824000Y-41374462D01*
X64824000Y-40425538D01*
X64828347Y-40381396D01*
X64839432Y-40344856D01*
X64857433Y-40311179D01*
X64881659Y-40281659D01*
X64911179Y-40257433D01*
X64944856Y-40239432D01*
X64981396Y-40228347D01*
X65025538Y-40224000D01*
X66474462Y-40224000D01*
X66518604Y-40228347D01*
X66518604Y-40228347D01*
G37*
G36*
X68768604Y-40228347D02*
G01*
X68805144Y-40239432D01*
X68838821Y-40257433D01*
X68868341Y-40281659D01*
X68892567Y-40311179D01*
X68910568Y-40344856D01*
X68921653Y-40381396D01*
X68926000Y-40425538D01*
X68926000Y-41374462D01*
X68921653Y-41418604D01*
X68910568Y-41455144D01*
X68892567Y-41488821D01*
X68868341Y-41518341D01*
X68838821Y-41542567D01*
X68805144Y-41560568D01*
X68768604Y-41571653D01*
X68724462Y-41576000D01*
X67275538Y-41576000D01*
X67231396Y-41571653D01*
X67194856Y-41560568D01*
X67161179Y-41542567D01*
X67131659Y-41518341D01*
X67107433Y-41488821D01*
X67089432Y-41455144D01*
X67078347Y-41418604D01*
X67074000Y-41374462D01*
X67074000Y-40425538D01*
X67078347Y-40381396D01*
X67089432Y-40344856D01*
X67107433Y-40311179D01*
X67131659Y-40281659D01*
X67161179Y-40257433D01*
X67194856Y-40239432D01*
X67231396Y-40228347D01*
X67275538Y-40224000D01*
X68724462Y-40224000D01*
X68768604Y-40228347D01*
X68768604Y-40228347D01*
G37*
G36*
X41601000Y-41166000D02*
G01*
X40799000Y-41166000D01*
X40799000Y-40364000D01*
X41601000Y-40364000D01*
X41601000Y-41166000D01*
X41601000Y-41166000D01*
G37*
G36*
X58476000Y-40251000D02*
G01*
X57524000Y-40251000D01*
X57524000Y-37799000D01*
X58476000Y-37799000D01*
X58476000Y-40251000D01*
X58476000Y-40251000D01*
G37*
G36*
X50476000Y-40251000D02*
G01*
X49524000Y-40251000D01*
X49524000Y-37799000D01*
X50476000Y-37799000D01*
X50476000Y-40251000D01*
X50476000Y-40251000D01*
G37*
G36*
X54476000Y-40251000D02*
G01*
X53524000Y-40251000D01*
X53524000Y-37799000D01*
X54476000Y-37799000D01*
X54476000Y-40251000D01*
X54476000Y-40251000D01*
G37*
G36*
X41601000Y-39896000D02*
G01*
X40799000Y-39896000D01*
X40799000Y-39094000D01*
X41601000Y-39094000D01*
X41601000Y-39896000D01*
X41601000Y-39896000D01*
G37*
G36*
X68768604Y-37428347D02*
G01*
X68805144Y-37439432D01*
X68838821Y-37457433D01*
X68868341Y-37481659D01*
X68892567Y-37511179D01*
X68910568Y-37544856D01*
X68921653Y-37581396D01*
X68926000Y-37625538D01*
X68926000Y-38574462D01*
X68921653Y-38618604D01*
X68910568Y-38655144D01*
X68892567Y-38688821D01*
X68868341Y-38718341D01*
X68838821Y-38742567D01*
X68805144Y-38760568D01*
X68768604Y-38771653D01*
X68724462Y-38776000D01*
X67275538Y-38776000D01*
X67231396Y-38771653D01*
X67194856Y-38760568D01*
X67161179Y-38742567D01*
X67131659Y-38718341D01*
X67107433Y-38688821D01*
X67089432Y-38655144D01*
X67078347Y-38618604D01*
X67074000Y-38574462D01*
X67074000Y-37625538D01*
X67078347Y-37581396D01*
X67089432Y-37544856D01*
X67107433Y-37511179D01*
X67131659Y-37481659D01*
X67161179Y-37457433D01*
X67194856Y-37439432D01*
X67231396Y-37428347D01*
X67275538Y-37424000D01*
X68724462Y-37424000D01*
X68768604Y-37428347D01*
X68768604Y-37428347D01*
G37*
G36*
X66518604Y-37428347D02*
G01*
X66555144Y-37439432D01*
X66588821Y-37457433D01*
X66618341Y-37481659D01*
X66642567Y-37511179D01*
X66660568Y-37544856D01*
X66671653Y-37581396D01*
X66676000Y-37625538D01*
X66676000Y-38574462D01*
X66671653Y-38618604D01*
X66660568Y-38655144D01*
X66642567Y-38688821D01*
X66618341Y-38718341D01*
X66588821Y-38742567D01*
X66555144Y-38760568D01*
X66518604Y-38771653D01*
X66474462Y-38776000D01*
X65025538Y-38776000D01*
X64981396Y-38771653D01*
X64944856Y-38760568D01*
X64911179Y-38742567D01*
X64881659Y-38718341D01*
X64857433Y-38688821D01*
X64839432Y-38655144D01*
X64828347Y-38618604D01*
X64824000Y-38574462D01*
X64824000Y-37625538D01*
X64828347Y-37581396D01*
X64839432Y-37544856D01*
X64857433Y-37511179D01*
X64881659Y-37481659D01*
X64911179Y-37457433D01*
X64944856Y-37439432D01*
X64981396Y-37428347D01*
X65025538Y-37424000D01*
X66474462Y-37424000D01*
X66518604Y-37428347D01*
X66518604Y-37428347D01*
G37*
G36*
X64218604Y-37428347D02*
G01*
X64255144Y-37439432D01*
X64288821Y-37457433D01*
X64318341Y-37481659D01*
X64342567Y-37511179D01*
X64360568Y-37544856D01*
X64371653Y-37581396D01*
X64376000Y-37625538D01*
X64376000Y-38574462D01*
X64371653Y-38618604D01*
X64360568Y-38655144D01*
X64342567Y-38688821D01*
X64318341Y-38718341D01*
X64288821Y-38742567D01*
X64255144Y-38760568D01*
X64218604Y-38771653D01*
X64174462Y-38776000D01*
X62725538Y-38776000D01*
X62681396Y-38771653D01*
X62644856Y-38760568D01*
X62611179Y-38742567D01*
X62581659Y-38718341D01*
X62557433Y-38688821D01*
X62539432Y-38655144D01*
X62528347Y-38618604D01*
X62524000Y-38574462D01*
X62524000Y-37625538D01*
X62528347Y-37581396D01*
X62539432Y-37544856D01*
X62557433Y-37511179D01*
X62581659Y-37481659D01*
X62611179Y-37457433D01*
X62644856Y-37439432D01*
X62681396Y-37428347D01*
X62725538Y-37424000D01*
X64174462Y-37424000D01*
X64218604Y-37428347D01*
X64218604Y-37428347D01*
G37*
G36*
X68168604Y-35328348D02*
G01*
X68205144Y-35339433D01*
X68238821Y-35357434D01*
X68268341Y-35381660D01*
X68292567Y-35411180D01*
X68310568Y-35444857D01*
X68321653Y-35481397D01*
X68326000Y-35525539D01*
X68326000Y-36474463D01*
X68321653Y-36518605D01*
X68310568Y-36555145D01*
X68292567Y-36588822D01*
X68268341Y-36618342D01*
X68238821Y-36642568D01*
X68205144Y-36660569D01*
X68168604Y-36671654D01*
X68124462Y-36676001D01*
X66675538Y-36676001D01*
X66631396Y-36671654D01*
X66594856Y-36660569D01*
X66561179Y-36642568D01*
X66531659Y-36618342D01*
X66507433Y-36588822D01*
X66489432Y-36555145D01*
X66478347Y-36518605D01*
X66474000Y-36474463D01*
X66474000Y-35525539D01*
X66478347Y-35481397D01*
X66489432Y-35444857D01*
X66507433Y-35411180D01*
X66531659Y-35381660D01*
X66561179Y-35357434D01*
X66594856Y-35339433D01*
X66631396Y-35328348D01*
X66675538Y-35324001D01*
X68124462Y-35324001D01*
X68168604Y-35328348D01*
X68168604Y-35328348D01*
G37*
G36*
X70368604Y-35328347D02*
G01*
X70405144Y-35339432D01*
X70438821Y-35357433D01*
X70468341Y-35381659D01*
X70492567Y-35411179D01*
X70510568Y-35444856D01*
X70521653Y-35481396D01*
X70526000Y-35525538D01*
X70526000Y-36474462D01*
X70521653Y-36518604D01*
X70510568Y-36555144D01*
X70492567Y-36588821D01*
X70468341Y-36618341D01*
X70438821Y-36642567D01*
X70405144Y-36660568D01*
X70368604Y-36671653D01*
X70324462Y-36676000D01*
X68875538Y-36676000D01*
X68831396Y-36671653D01*
X68794856Y-36660568D01*
X68761179Y-36642567D01*
X68731659Y-36618341D01*
X68707433Y-36588821D01*
X68689432Y-36555144D01*
X68678347Y-36518604D01*
X68674000Y-36474462D01*
X68674000Y-35525538D01*
X68678347Y-35481396D01*
X68689432Y-35444856D01*
X68707433Y-35411179D01*
X68731659Y-35381659D01*
X68761179Y-35357433D01*
X68794856Y-35339432D01*
X68831396Y-35328347D01*
X68875538Y-35324000D01*
X70324462Y-35324000D01*
X70368604Y-35328347D01*
X70368604Y-35328347D01*
G37*
G36*
X65968604Y-35328347D02*
G01*
X66005144Y-35339432D01*
X66038821Y-35357433D01*
X66068341Y-35381659D01*
X66092567Y-35411179D01*
X66110568Y-35444856D01*
X66121653Y-35481396D01*
X66126000Y-35525538D01*
X66126000Y-36474462D01*
X66121653Y-36518604D01*
X66110568Y-36555144D01*
X66092567Y-36588821D01*
X66068341Y-36618341D01*
X66038821Y-36642567D01*
X66005144Y-36660568D01*
X65968604Y-36671653D01*
X65924462Y-36676000D01*
X64475538Y-36676000D01*
X64431396Y-36671653D01*
X64394856Y-36660568D01*
X64361179Y-36642567D01*
X64331659Y-36618341D01*
X64307433Y-36588821D01*
X64289432Y-36555144D01*
X64278347Y-36518604D01*
X64274000Y-36474462D01*
X64274000Y-35525538D01*
X64278347Y-35481396D01*
X64289432Y-35444856D01*
X64307433Y-35411179D01*
X64331659Y-35381659D01*
X64361179Y-35357433D01*
X64394856Y-35339432D01*
X64431396Y-35328347D01*
X64475538Y-35324000D01*
X65924462Y-35324000D01*
X65968604Y-35328347D01*
X65968604Y-35328347D01*
G37*
G36*
X63768604Y-35328347D02*
G01*
X63805144Y-35339432D01*
X63838821Y-35357433D01*
X63868341Y-35381659D01*
X63892567Y-35411179D01*
X63910568Y-35444856D01*
X63921653Y-35481396D01*
X63926000Y-35525538D01*
X63926000Y-36474462D01*
X63921653Y-36518604D01*
X63910568Y-36555144D01*
X63892567Y-36588821D01*
X63868341Y-36618341D01*
X63838821Y-36642567D01*
X63805144Y-36660568D01*
X63768604Y-36671653D01*
X63724462Y-36676000D01*
X62275538Y-36676000D01*
X62231396Y-36671653D01*
X62194856Y-36660568D01*
X62161179Y-36642567D01*
X62131659Y-36618341D01*
X62107433Y-36588821D01*
X62089432Y-36555144D01*
X62078347Y-36518604D01*
X62074000Y-36474462D01*
X62074000Y-35525538D01*
X62078347Y-35481396D01*
X62089432Y-35444856D01*
X62107433Y-35411179D01*
X62131659Y-35381659D01*
X62161179Y-35357433D01*
X62194856Y-35339432D01*
X62231396Y-35328347D01*
X62275538Y-35324000D01*
X63724462Y-35324000D01*
X63768604Y-35328347D01*
X63768604Y-35328347D01*
G37*
G36*
X56472798Y-31158248D02*
G01*
X56508367Y-31169038D01*
X56541139Y-31186555D01*
X56569869Y-31210132D01*
X56593446Y-31238862D01*
X56610963Y-31271634D01*
X56621753Y-31307203D01*
X56626000Y-31350326D01*
X56626000Y-34409676D01*
X56621753Y-34452799D01*
X56610963Y-34488368D01*
X56593446Y-34521140D01*
X56569869Y-34549870D01*
X56541139Y-34573447D01*
X56508367Y-34590964D01*
X56472798Y-34601754D01*
X56429675Y-34606001D01*
X55370325Y-34606001D01*
X55327202Y-34601754D01*
X55291633Y-34590964D01*
X55258861Y-34573447D01*
X55230131Y-34549870D01*
X55206554Y-34521140D01*
X55189037Y-34488368D01*
X55178247Y-34452799D01*
X55174000Y-34409676D01*
X55174000Y-31350326D01*
X55178247Y-31307203D01*
X55189037Y-31271634D01*
X55206554Y-31238862D01*
X55230131Y-31210132D01*
X55258861Y-31186555D01*
X55291633Y-31169038D01*
X55327202Y-31158248D01*
X55370325Y-31154001D01*
X56429675Y-31154001D01*
X56472798Y-31158248D01*
X56472798Y-31158248D01*
G37*
G36*
X50672798Y-31158248D02*
G01*
X50708367Y-31169038D01*
X50741139Y-31186555D01*
X50769869Y-31210132D01*
X50793446Y-31238862D01*
X50810963Y-31271634D01*
X50821753Y-31307203D01*
X50826000Y-31350326D01*
X50826000Y-34409676D01*
X50821753Y-34452799D01*
X50810963Y-34488368D01*
X50793446Y-34521140D01*
X50769869Y-34549870D01*
X50741139Y-34573447D01*
X50708367Y-34590964D01*
X50672798Y-34601754D01*
X50629675Y-34606001D01*
X49570325Y-34606001D01*
X49527202Y-34601754D01*
X49491633Y-34590964D01*
X49458861Y-34573447D01*
X49430131Y-34549870D01*
X49406554Y-34521140D01*
X49389037Y-34488368D01*
X49378247Y-34452799D01*
X49374000Y-34409676D01*
X49374000Y-31350326D01*
X49378247Y-31307203D01*
X49389037Y-31271634D01*
X49406554Y-31238862D01*
X49430131Y-31210132D01*
X49458861Y-31186555D01*
X49491633Y-31169038D01*
X49527202Y-31158248D01*
X49570325Y-31154001D01*
X50629675Y-31154001D01*
X50672798Y-31158248D01*
X50672798Y-31158248D01*
G37*
G36*
X47244000Y-34481999D02*
G01*
X42147000Y-34481999D01*
X42147000Y-33679999D01*
X42667001Y-33679999D01*
X42691387Y-33677597D01*
X42714836Y-33670484D01*
X42736447Y-33658933D01*
X42755389Y-33643388D01*
X42770934Y-33624446D01*
X42782485Y-33602835D01*
X42789598Y-33579386D01*
X42792000Y-33555000D01*
X42792000Y-33336998D01*
X42789598Y-33312612D01*
X42782485Y-33289163D01*
X42770934Y-33267552D01*
X42755389Y-33248610D01*
X42736447Y-33233065D01*
X42714836Y-33221514D01*
X42691387Y-33214401D01*
X42667001Y-33211999D01*
X42147000Y-33211999D01*
X42147000Y-32409999D01*
X42667001Y-32409999D01*
X42691387Y-32407597D01*
X42714836Y-32400484D01*
X42736447Y-32388933D01*
X42755389Y-32373388D01*
X42770934Y-32354446D01*
X42782485Y-32332835D01*
X42789598Y-32309386D01*
X42792000Y-32285000D01*
X42792000Y-32066998D01*
X42789598Y-32042612D01*
X42782485Y-32019163D01*
X42770934Y-31997552D01*
X42755389Y-31978610D01*
X42736447Y-31963065D01*
X42714836Y-31951514D01*
X42691387Y-31944401D01*
X42667001Y-31941999D01*
X42147000Y-31941999D01*
X42147000Y-31139999D01*
X42667001Y-31139999D01*
X42691387Y-31137597D01*
X42714836Y-31130484D01*
X42736447Y-31118933D01*
X42755389Y-31103388D01*
X42770934Y-31084446D01*
X42782485Y-31062835D01*
X42789598Y-31039386D01*
X42792000Y-31015000D01*
X42792000Y-30796998D01*
X42789598Y-30772612D01*
X42782485Y-30749163D01*
X42770934Y-30727552D01*
X42755389Y-30708610D01*
X42736447Y-30693065D01*
X42714836Y-30681514D01*
X42691387Y-30674401D01*
X42667001Y-30671999D01*
X42147000Y-30671999D01*
X42147000Y-29869999D01*
X47244000Y-29869999D01*
X47244000Y-34481999D01*
X47244000Y-34481999D01*
G37*
G36*
X48549000Y-34481999D02*
G01*
X47747000Y-34481999D01*
X47747000Y-33679999D01*
X48549000Y-33679999D01*
X48549000Y-34481999D01*
X48549000Y-34481999D01*
G37*
G36*
X75368604Y-32478347D02*
G01*
X75405144Y-32489432D01*
X75438821Y-32507433D01*
X75468341Y-32531659D01*
X75492567Y-32561179D01*
X75510568Y-32594856D01*
X75521653Y-32631396D01*
X75526000Y-32675538D01*
X75526000Y-34124462D01*
X75521653Y-34168604D01*
X75510568Y-34205144D01*
X75492567Y-34238821D01*
X75468341Y-34268341D01*
X75438821Y-34292567D01*
X75405144Y-34310568D01*
X75368604Y-34321653D01*
X75324462Y-34326000D01*
X74375538Y-34326000D01*
X74331396Y-34321653D01*
X74294856Y-34310568D01*
X74261179Y-34292567D01*
X74231659Y-34268341D01*
X74207433Y-34238821D01*
X74189432Y-34205144D01*
X74178347Y-34168604D01*
X74174000Y-34124462D01*
X74174000Y-32675538D01*
X74178347Y-32631396D01*
X74189432Y-32594856D01*
X74207433Y-32561179D01*
X74231659Y-32531659D01*
X74261179Y-32507433D01*
X74294856Y-32489432D01*
X74331396Y-32478347D01*
X74375538Y-32474000D01*
X75324462Y-32474000D01*
X75368604Y-32478347D01*
X75368604Y-32478347D01*
G37*
G36*
X72568604Y-32478347D02*
G01*
X72605144Y-32489432D01*
X72638821Y-32507433D01*
X72668341Y-32531659D01*
X72692567Y-32561179D01*
X72710568Y-32594856D01*
X72721653Y-32631396D01*
X72726000Y-32675538D01*
X72726000Y-34124462D01*
X72721653Y-34168604D01*
X72710568Y-34205144D01*
X72692567Y-34238821D01*
X72668341Y-34268341D01*
X72638821Y-34292567D01*
X72605144Y-34310568D01*
X72568604Y-34321653D01*
X72524462Y-34326000D01*
X71575538Y-34326000D01*
X71531396Y-34321653D01*
X71494856Y-34310568D01*
X71461179Y-34292567D01*
X71431659Y-34268341D01*
X71407433Y-34238821D01*
X71389432Y-34205144D01*
X71378347Y-34168604D01*
X71374000Y-34124462D01*
X71374000Y-32675538D01*
X71378347Y-32631396D01*
X71389432Y-32594856D01*
X71407433Y-32561179D01*
X71431659Y-32531659D01*
X71461179Y-32507433D01*
X71494856Y-32489432D01*
X71531396Y-32478347D01*
X71575538Y-32474000D01*
X72524462Y-32474000D01*
X72568604Y-32478347D01*
X72568604Y-32478347D01*
G37*
G36*
X68168604Y-32528348D02*
G01*
X68205144Y-32539433D01*
X68238821Y-32557434D01*
X68268341Y-32581660D01*
X68292567Y-32611180D01*
X68310568Y-32644857D01*
X68321653Y-32681397D01*
X68326000Y-32725539D01*
X68326000Y-33674463D01*
X68321653Y-33718605D01*
X68310568Y-33755145D01*
X68292567Y-33788822D01*
X68268341Y-33818342D01*
X68238821Y-33842568D01*
X68205144Y-33860569D01*
X68168604Y-33871654D01*
X68124462Y-33876001D01*
X66675538Y-33876001D01*
X66631396Y-33871654D01*
X66594856Y-33860569D01*
X66561179Y-33842568D01*
X66531659Y-33818342D01*
X66507433Y-33788822D01*
X66489432Y-33755145D01*
X66478347Y-33718605D01*
X66474000Y-33674463D01*
X66474000Y-32725539D01*
X66478347Y-32681397D01*
X66489432Y-32644857D01*
X66507433Y-32611180D01*
X66531659Y-32581660D01*
X66561179Y-32557434D01*
X66594856Y-32539433D01*
X66631396Y-32528348D01*
X66675538Y-32524001D01*
X68124462Y-32524001D01*
X68168604Y-32528348D01*
X68168604Y-32528348D01*
G37*
G36*
X63768604Y-32528347D02*
G01*
X63805144Y-32539432D01*
X63838821Y-32557433D01*
X63868341Y-32581659D01*
X63892567Y-32611179D01*
X63910568Y-32644856D01*
X63921653Y-32681396D01*
X63926000Y-32725538D01*
X63926000Y-33674462D01*
X63921653Y-33718604D01*
X63910568Y-33755144D01*
X63892567Y-33788821D01*
X63868341Y-33818341D01*
X63838821Y-33842567D01*
X63805144Y-33860568D01*
X63768604Y-33871653D01*
X63724462Y-33876000D01*
X62275538Y-33876000D01*
X62231396Y-33871653D01*
X62194856Y-33860568D01*
X62161179Y-33842567D01*
X62131659Y-33818341D01*
X62107433Y-33788821D01*
X62089432Y-33755144D01*
X62078347Y-33718604D01*
X62074000Y-33674462D01*
X62074000Y-32725538D01*
X62078347Y-32681396D01*
X62089432Y-32644856D01*
X62107433Y-32611179D01*
X62131659Y-32581659D01*
X62161179Y-32557433D01*
X62194856Y-32539432D01*
X62231396Y-32528347D01*
X62275538Y-32524000D01*
X63724462Y-32524000D01*
X63768604Y-32528347D01*
X63768604Y-32528347D01*
G37*
G36*
X70368604Y-32528347D02*
G01*
X70405144Y-32539432D01*
X70438821Y-32557433D01*
X70468341Y-32581659D01*
X70492567Y-32611179D01*
X70510568Y-32644856D01*
X70521653Y-32681396D01*
X70526000Y-32725538D01*
X70526000Y-33674462D01*
X70521653Y-33718604D01*
X70510568Y-33755144D01*
X70492567Y-33788821D01*
X70468341Y-33818341D01*
X70438821Y-33842567D01*
X70405144Y-33860568D01*
X70368604Y-33871653D01*
X70324462Y-33876000D01*
X68875538Y-33876000D01*
X68831396Y-33871653D01*
X68794856Y-33860568D01*
X68761179Y-33842567D01*
X68731659Y-33818341D01*
X68707433Y-33788821D01*
X68689432Y-33755144D01*
X68678347Y-33718604D01*
X68674000Y-33674462D01*
X68674000Y-32725538D01*
X68678347Y-32681396D01*
X68689432Y-32644856D01*
X68707433Y-32611179D01*
X68731659Y-32581659D01*
X68761179Y-32557433D01*
X68794856Y-32539432D01*
X68831396Y-32528347D01*
X68875538Y-32524000D01*
X70324462Y-32524000D01*
X70368604Y-32528347D01*
X70368604Y-32528347D01*
G37*
G36*
X65968604Y-32528347D02*
G01*
X66005144Y-32539432D01*
X66038821Y-32557433D01*
X66068341Y-32581659D01*
X66092567Y-32611179D01*
X66110568Y-32644856D01*
X66121653Y-32681396D01*
X66126000Y-32725538D01*
X66126000Y-33674462D01*
X66121653Y-33718604D01*
X66110568Y-33755144D01*
X66092567Y-33788821D01*
X66068341Y-33818341D01*
X66038821Y-33842567D01*
X66005144Y-33860568D01*
X65968604Y-33871653D01*
X65924462Y-33876000D01*
X64475538Y-33876000D01*
X64431396Y-33871653D01*
X64394856Y-33860568D01*
X64361179Y-33842567D01*
X64331659Y-33818341D01*
X64307433Y-33788821D01*
X64289432Y-33755144D01*
X64278347Y-33718604D01*
X64274000Y-33674462D01*
X64274000Y-32725538D01*
X64278347Y-32681396D01*
X64289432Y-32644856D01*
X64307433Y-32611179D01*
X64331659Y-32581659D01*
X64361179Y-32557433D01*
X64394856Y-32539432D01*
X64431396Y-32528347D01*
X64475538Y-32524000D01*
X65924462Y-32524000D01*
X65968604Y-32528347D01*
X65968604Y-32528347D01*
G37*
G36*
X48549000Y-33211999D02*
G01*
X47747000Y-33211999D01*
X47747000Y-32409999D01*
X48549000Y-32409999D01*
X48549000Y-33211999D01*
X48549000Y-33211999D01*
G37*
G36*
X58802919Y-30312662D02*
G01*
X58839459Y-30323747D01*
X58873136Y-30341748D01*
X58902656Y-30365974D01*
X58926882Y-30395494D01*
X58944883Y-30429171D01*
X58955968Y-30465711D01*
X58960315Y-30509853D01*
X58960315Y-31958777D01*
X58955968Y-32002919D01*
X58944883Y-32039459D01*
X58926882Y-32073136D01*
X58902656Y-32102656D01*
X58873136Y-32126882D01*
X58839459Y-32144883D01*
X58802919Y-32155968D01*
X58758777Y-32160315D01*
X57809853Y-32160315D01*
X57765711Y-32155968D01*
X57729171Y-32144883D01*
X57695494Y-32126882D01*
X57665974Y-32102656D01*
X57641748Y-32073136D01*
X57623747Y-32039459D01*
X57612662Y-32002919D01*
X57608315Y-31958777D01*
X57608315Y-30509853D01*
X57612662Y-30465711D01*
X57623747Y-30429171D01*
X57641748Y-30395494D01*
X57665974Y-30365974D01*
X57695494Y-30341748D01*
X57729171Y-30323747D01*
X57765711Y-30312662D01*
X57809853Y-30308315D01*
X58758777Y-30308315D01*
X58802919Y-30312662D01*
X58802919Y-30312662D01*
G37*
G36*
X61602919Y-30312662D02*
G01*
X61639459Y-30323747D01*
X61673136Y-30341748D01*
X61702656Y-30365974D01*
X61726882Y-30395494D01*
X61744883Y-30429171D01*
X61755968Y-30465711D01*
X61760315Y-30509853D01*
X61760315Y-31958777D01*
X61755968Y-32002919D01*
X61744883Y-32039459D01*
X61726882Y-32073136D01*
X61702656Y-32102656D01*
X61673136Y-32126882D01*
X61639459Y-32144883D01*
X61602919Y-32155968D01*
X61558777Y-32160315D01*
X60609853Y-32160315D01*
X60565711Y-32155968D01*
X60529171Y-32144883D01*
X60495494Y-32126882D01*
X60465974Y-32102656D01*
X60441748Y-32073136D01*
X60423747Y-32039459D01*
X60412662Y-32002919D01*
X60408315Y-31958777D01*
X60408315Y-30509853D01*
X60412662Y-30465711D01*
X60423747Y-30429171D01*
X60441748Y-30395494D01*
X60465974Y-30365974D01*
X60495494Y-30341748D01*
X60529171Y-30323747D01*
X60565711Y-30312662D01*
X60609853Y-30308315D01*
X61558777Y-30308315D01*
X61602919Y-30312662D01*
X61602919Y-30312662D01*
G37*
G36*
X67968604Y-30278347D02*
G01*
X68005144Y-30289432D01*
X68038821Y-30307433D01*
X68068341Y-30331659D01*
X68092567Y-30361179D01*
X68110568Y-30394856D01*
X68121653Y-30431396D01*
X68126000Y-30475538D01*
X68126000Y-31924462D01*
X68121653Y-31968604D01*
X68110568Y-32005144D01*
X68092567Y-32038821D01*
X68068341Y-32068341D01*
X68038821Y-32092567D01*
X68005144Y-32110568D01*
X67968604Y-32121653D01*
X67924462Y-32126000D01*
X66975538Y-32126000D01*
X66931396Y-32121653D01*
X66894856Y-32110568D01*
X66861179Y-32092567D01*
X66831659Y-32068341D01*
X66807433Y-32038821D01*
X66789432Y-32005144D01*
X66778347Y-31968604D01*
X66774000Y-31924462D01*
X66774000Y-30475538D01*
X66778347Y-30431396D01*
X66789432Y-30394856D01*
X66807433Y-30361179D01*
X66831659Y-30331659D01*
X66861179Y-30307433D01*
X66894856Y-30289432D01*
X66931396Y-30278347D01*
X66975538Y-30274000D01*
X67924462Y-30274000D01*
X67968604Y-30278347D01*
X67968604Y-30278347D01*
G37*
G36*
X70768604Y-30278347D02*
G01*
X70805144Y-30289432D01*
X70838821Y-30307433D01*
X70868341Y-30331659D01*
X70892567Y-30361179D01*
X70910568Y-30394856D01*
X70921653Y-30431396D01*
X70926000Y-30475538D01*
X70926000Y-31924462D01*
X70921653Y-31968604D01*
X70910568Y-32005144D01*
X70892567Y-32038821D01*
X70868341Y-32068341D01*
X70838821Y-32092567D01*
X70805144Y-32110568D01*
X70768604Y-32121653D01*
X70724462Y-32126000D01*
X69775538Y-32126000D01*
X69731396Y-32121653D01*
X69694856Y-32110568D01*
X69661179Y-32092567D01*
X69631659Y-32068341D01*
X69607433Y-32038821D01*
X69589432Y-32005144D01*
X69578347Y-31968604D01*
X69574000Y-31924462D01*
X69574000Y-30475538D01*
X69578347Y-30431396D01*
X69589432Y-30394856D01*
X69607433Y-30361179D01*
X69631659Y-30331659D01*
X69661179Y-30307433D01*
X69694856Y-30289432D01*
X69731396Y-30278347D01*
X69775538Y-30274000D01*
X70724462Y-30274000D01*
X70768604Y-30278347D01*
X70768604Y-30278347D01*
G37*
G36*
X63368604Y-30278347D02*
G01*
X63405144Y-30289432D01*
X63438821Y-30307433D01*
X63468341Y-30331659D01*
X63492567Y-30361179D01*
X63510568Y-30394856D01*
X63521653Y-30431396D01*
X63526000Y-30475538D01*
X63526000Y-31924462D01*
X63521653Y-31968604D01*
X63510568Y-32005144D01*
X63492567Y-32038821D01*
X63468341Y-32068341D01*
X63438821Y-32092567D01*
X63405144Y-32110568D01*
X63368604Y-32121653D01*
X63324462Y-32126000D01*
X62375538Y-32126000D01*
X62331396Y-32121653D01*
X62294856Y-32110568D01*
X62261179Y-32092567D01*
X62231659Y-32068341D01*
X62207433Y-32038821D01*
X62189432Y-32005144D01*
X62178347Y-31968604D01*
X62174000Y-31924462D01*
X62174000Y-30475538D01*
X62178347Y-30431396D01*
X62189432Y-30394856D01*
X62207433Y-30361179D01*
X62231659Y-30331659D01*
X62261179Y-30307433D01*
X62294856Y-30289432D01*
X62331396Y-30278347D01*
X62375538Y-30274000D01*
X63324462Y-30274000D01*
X63368604Y-30278347D01*
X63368604Y-30278347D01*
G37*
G36*
X72568604Y-30278347D02*
G01*
X72605144Y-30289432D01*
X72638821Y-30307433D01*
X72668341Y-30331659D01*
X72692567Y-30361179D01*
X72710568Y-30394856D01*
X72721653Y-30431396D01*
X72726000Y-30475538D01*
X72726000Y-31924462D01*
X72721653Y-31968604D01*
X72710568Y-32005144D01*
X72692567Y-32038821D01*
X72668341Y-32068341D01*
X72638821Y-32092567D01*
X72605144Y-32110568D01*
X72568604Y-32121653D01*
X72524462Y-32126000D01*
X71575538Y-32126000D01*
X71531396Y-32121653D01*
X71494856Y-32110568D01*
X71461179Y-32092567D01*
X71431659Y-32068341D01*
X71407433Y-32038821D01*
X71389432Y-32005144D01*
X71378347Y-31968604D01*
X71374000Y-31924462D01*
X71374000Y-30475538D01*
X71378347Y-30431396D01*
X71389432Y-30394856D01*
X71407433Y-30361179D01*
X71431659Y-30331659D01*
X71461179Y-30307433D01*
X71494856Y-30289432D01*
X71531396Y-30278347D01*
X71575538Y-30274000D01*
X72524462Y-30274000D01*
X72568604Y-30278347D01*
X72568604Y-30278347D01*
G37*
G36*
X75368604Y-30278347D02*
G01*
X75405144Y-30289432D01*
X75438821Y-30307433D01*
X75468341Y-30331659D01*
X75492567Y-30361179D01*
X75510568Y-30394856D01*
X75521653Y-30431396D01*
X75526000Y-30475538D01*
X75526000Y-31924462D01*
X75521653Y-31968604D01*
X75510568Y-32005144D01*
X75492567Y-32038821D01*
X75468341Y-32068341D01*
X75438821Y-32092567D01*
X75405144Y-32110568D01*
X75368604Y-32121653D01*
X75324462Y-32126000D01*
X74375538Y-32126000D01*
X74331396Y-32121653D01*
X74294856Y-32110568D01*
X74261179Y-32092567D01*
X74231659Y-32068341D01*
X74207433Y-32038821D01*
X74189432Y-32005144D01*
X74178347Y-31968604D01*
X74174000Y-31924462D01*
X74174000Y-30475538D01*
X74178347Y-30431396D01*
X74189432Y-30394856D01*
X74207433Y-30361179D01*
X74231659Y-30331659D01*
X74261179Y-30307433D01*
X74294856Y-30289432D01*
X74331396Y-30278347D01*
X74375538Y-30274000D01*
X75324462Y-30274000D01*
X75368604Y-30278347D01*
X75368604Y-30278347D01*
G37*
G36*
X66168604Y-30278347D02*
G01*
X66205144Y-30289432D01*
X66238821Y-30307433D01*
X66268341Y-30331659D01*
X66292567Y-30361179D01*
X66310568Y-30394856D01*
X66321653Y-30431396D01*
X66326000Y-30475538D01*
X66326000Y-31924462D01*
X66321653Y-31968604D01*
X66310568Y-32005144D01*
X66292567Y-32038821D01*
X66268341Y-32068341D01*
X66238821Y-32092567D01*
X66205144Y-32110568D01*
X66168604Y-32121653D01*
X66124462Y-32126000D01*
X65175538Y-32126000D01*
X65131396Y-32121653D01*
X65094856Y-32110568D01*
X65061179Y-32092567D01*
X65031659Y-32068341D01*
X65007433Y-32038821D01*
X64989432Y-32005144D01*
X64978347Y-31968604D01*
X64974000Y-31924462D01*
X64974000Y-30475538D01*
X64978347Y-30431396D01*
X64989432Y-30394856D01*
X65007433Y-30361179D01*
X65031659Y-30331659D01*
X65061179Y-30307433D01*
X65094856Y-30289432D01*
X65131396Y-30278347D01*
X65175538Y-30274000D01*
X66124462Y-30274000D01*
X66168604Y-30278347D01*
X66168604Y-30278347D01*
G37*
G36*
X48549000Y-31941999D02*
G01*
X47747000Y-31941999D01*
X47747000Y-31139999D01*
X48549000Y-31139999D01*
X48549000Y-31941999D01*
X48549000Y-31941999D01*
G37*
G36*
X48549000Y-30671999D02*
G01*
X47747000Y-30671999D01*
X47747000Y-29869999D01*
X48549000Y-29869999D01*
X48549000Y-30671999D01*
X48549000Y-30671999D01*
G37*
G36*
X55641938Y-29711716D02*
G01*
X55662557Y-29717971D01*
X55681553Y-29728124D01*
X55698208Y-29741792D01*
X55711876Y-29758447D01*
X55722029Y-29777443D01*
X55728284Y-29798062D01*
X55731000Y-29825640D01*
X55731000Y-30334360D01*
X55728284Y-30361938D01*
X55722029Y-30382557D01*
X55711876Y-30401553D01*
X55698208Y-30418208D01*
X55681553Y-30431876D01*
X55662557Y-30442029D01*
X55641938Y-30448284D01*
X55614360Y-30451000D01*
X55155640Y-30451000D01*
X55128062Y-30448284D01*
X55107443Y-30442029D01*
X55088447Y-30431876D01*
X55071792Y-30418208D01*
X55058124Y-30401553D01*
X55047971Y-30382557D01*
X55041716Y-30361938D01*
X55039000Y-30334360D01*
X55039000Y-29825640D01*
X55041716Y-29798062D01*
X55047971Y-29777443D01*
X55058124Y-29758447D01*
X55071792Y-29741792D01*
X55088447Y-29728124D01*
X55107443Y-29717971D01*
X55128062Y-29711716D01*
X55155640Y-29709000D01*
X55614360Y-29709000D01*
X55641938Y-29711716D01*
X55641938Y-29711716D01*
G37*
G36*
X53591938Y-29711716D02*
G01*
X53612557Y-29717971D01*
X53631553Y-29728124D01*
X53648208Y-29741792D01*
X53661876Y-29758447D01*
X53672029Y-29777443D01*
X53678284Y-29798062D01*
X53681000Y-29825640D01*
X53681000Y-30334360D01*
X53678284Y-30361938D01*
X53672029Y-30382557D01*
X53661876Y-30401553D01*
X53648208Y-30418208D01*
X53631553Y-30431876D01*
X53612557Y-30442029D01*
X53591938Y-30448284D01*
X53564360Y-30451000D01*
X53105640Y-30451000D01*
X53078062Y-30448284D01*
X53057443Y-30442029D01*
X53038447Y-30431876D01*
X53021792Y-30418208D01*
X53008124Y-30401553D01*
X52997971Y-30382557D01*
X52991716Y-30361938D01*
X52989000Y-30334360D01*
X52989000Y-29825640D01*
X52991716Y-29798062D01*
X52997971Y-29777443D01*
X53008124Y-29758447D01*
X53021792Y-29741792D01*
X53038447Y-29728124D01*
X53057443Y-29717971D01*
X53078062Y-29711716D01*
X53105640Y-29709000D01*
X53564360Y-29709000D01*
X53591938Y-29711716D01*
X53591938Y-29711716D01*
G37*
G36*
X52621938Y-29711716D02*
G01*
X52642557Y-29717971D01*
X52661553Y-29728124D01*
X52678208Y-29741792D01*
X52691876Y-29758447D01*
X52702029Y-29777443D01*
X52708284Y-29798062D01*
X52711000Y-29825640D01*
X52711000Y-30334360D01*
X52708284Y-30361938D01*
X52702029Y-30382557D01*
X52691876Y-30401553D01*
X52678208Y-30418208D01*
X52661553Y-30431876D01*
X52642557Y-30442029D01*
X52621938Y-30448284D01*
X52594360Y-30451000D01*
X52135640Y-30451000D01*
X52108062Y-30448284D01*
X52087443Y-30442029D01*
X52068447Y-30431876D01*
X52051792Y-30418208D01*
X52038124Y-30401553D01*
X52027971Y-30382557D01*
X52021716Y-30361938D01*
X52019000Y-30334360D01*
X52019000Y-29825640D01*
X52021716Y-29798062D01*
X52027971Y-29777443D01*
X52038124Y-29758447D01*
X52051792Y-29741792D01*
X52068447Y-29728124D01*
X52087443Y-29717971D01*
X52108062Y-29711716D01*
X52135640Y-29709000D01*
X52594360Y-29709000D01*
X52621938Y-29711716D01*
X52621938Y-29711716D01*
G37*
G36*
X54671938Y-29711716D02*
G01*
X54692557Y-29717971D01*
X54711553Y-29728124D01*
X54728208Y-29741792D01*
X54741876Y-29758447D01*
X54752029Y-29777443D01*
X54758284Y-29798062D01*
X54761000Y-29825640D01*
X54761000Y-30334360D01*
X54758284Y-30361938D01*
X54752029Y-30382557D01*
X54741876Y-30401553D01*
X54728208Y-30418208D01*
X54711553Y-30431876D01*
X54692557Y-30442029D01*
X54671938Y-30448284D01*
X54644360Y-30451000D01*
X54185640Y-30451000D01*
X54158062Y-30448284D01*
X54137443Y-30442029D01*
X54118447Y-30431876D01*
X54101792Y-30418208D01*
X54088124Y-30401553D01*
X54077971Y-30382557D01*
X54071716Y-30361938D01*
X54069000Y-30334360D01*
X54069000Y-29825640D01*
X54071716Y-29798062D01*
X54077971Y-29777443D01*
X54088124Y-29758447D01*
X54101792Y-29741792D01*
X54118447Y-29728124D01*
X54137443Y-29717971D01*
X54158062Y-29711716D01*
X54185640Y-29709000D01*
X54644360Y-29709000D01*
X54671938Y-29711716D01*
X54671938Y-29711716D01*
G37*
G36*
X50471938Y-29681716D02*
G01*
X50492557Y-29687971D01*
X50511553Y-29698124D01*
X50528208Y-29711792D01*
X50541876Y-29728447D01*
X50552029Y-29747443D01*
X50558284Y-29768062D01*
X50561000Y-29795640D01*
X50561000Y-30304360D01*
X50558284Y-30331938D01*
X50552029Y-30352557D01*
X50541876Y-30371553D01*
X50528208Y-30388208D01*
X50511553Y-30401876D01*
X50492557Y-30412029D01*
X50471938Y-30418284D01*
X50444360Y-30421000D01*
X49985640Y-30421000D01*
X49958062Y-30418284D01*
X49937443Y-30412029D01*
X49918447Y-30401876D01*
X49901792Y-30388208D01*
X49888124Y-30371553D01*
X49877971Y-30352557D01*
X49871716Y-30331938D01*
X49869000Y-30304360D01*
X49869000Y-29795640D01*
X49871716Y-29768062D01*
X49877971Y-29747443D01*
X49888124Y-29728447D01*
X49901792Y-29711792D01*
X49918447Y-29698124D01*
X49937443Y-29687971D01*
X49958062Y-29681716D01*
X49985640Y-29679000D01*
X50444360Y-29679000D01*
X50471938Y-29681716D01*
X50471938Y-29681716D01*
G37*
G36*
X51441938Y-29681716D02*
G01*
X51462557Y-29687971D01*
X51481553Y-29698124D01*
X51498208Y-29711792D01*
X51511876Y-29728447D01*
X51522029Y-29747443D01*
X51528284Y-29768062D01*
X51531000Y-29795640D01*
X51531000Y-30304360D01*
X51528284Y-30331938D01*
X51522029Y-30352557D01*
X51511876Y-30371553D01*
X51498208Y-30388208D01*
X51481553Y-30401876D01*
X51462557Y-30412029D01*
X51441938Y-30418284D01*
X51414360Y-30421000D01*
X50955640Y-30421000D01*
X50928062Y-30418284D01*
X50907443Y-30412029D01*
X50888447Y-30401876D01*
X50871792Y-30388208D01*
X50858124Y-30371553D01*
X50847971Y-30352557D01*
X50841716Y-30331938D01*
X50839000Y-30304360D01*
X50839000Y-29795640D01*
X50841716Y-29768062D01*
X50847971Y-29747443D01*
X50858124Y-29728447D01*
X50871792Y-29711792D01*
X50888447Y-29698124D01*
X50907443Y-29687971D01*
X50928062Y-29681716D01*
X50955640Y-29679000D01*
X51414360Y-29679000D01*
X51441938Y-29681716D01*
X51441938Y-29681716D01*
G37*
G36*
X58802919Y-28112662D02*
G01*
X58839459Y-28123747D01*
X58873136Y-28141748D01*
X58902656Y-28165974D01*
X58926882Y-28195494D01*
X58944883Y-28229171D01*
X58955968Y-28265711D01*
X58960315Y-28309853D01*
X58960315Y-29758777D01*
X58955968Y-29802919D01*
X58944883Y-29839459D01*
X58926882Y-29873136D01*
X58902656Y-29902656D01*
X58873136Y-29926882D01*
X58839459Y-29944883D01*
X58802919Y-29955968D01*
X58758777Y-29960315D01*
X57809853Y-29960315D01*
X57765711Y-29955968D01*
X57729171Y-29944883D01*
X57695494Y-29926882D01*
X57665974Y-29902656D01*
X57641748Y-29873136D01*
X57623747Y-29839459D01*
X57612662Y-29802919D01*
X57608315Y-29758777D01*
X57608315Y-28309853D01*
X57612662Y-28265711D01*
X57623747Y-28229171D01*
X57641748Y-28195494D01*
X57665974Y-28165974D01*
X57695494Y-28141748D01*
X57729171Y-28123747D01*
X57765711Y-28112662D01*
X57809853Y-28108315D01*
X58758777Y-28108315D01*
X58802919Y-28112662D01*
X58802919Y-28112662D01*
G37*
G36*
X61602919Y-28112662D02*
G01*
X61639459Y-28123747D01*
X61673136Y-28141748D01*
X61702656Y-28165974D01*
X61726882Y-28195494D01*
X61744883Y-28229171D01*
X61755968Y-28265711D01*
X61760315Y-28309853D01*
X61760315Y-29758777D01*
X61755968Y-29802919D01*
X61744883Y-29839459D01*
X61726882Y-29873136D01*
X61702656Y-29902656D01*
X61673136Y-29926882D01*
X61639459Y-29944883D01*
X61602919Y-29955968D01*
X61558777Y-29960315D01*
X60609853Y-29960315D01*
X60565711Y-29955968D01*
X60529171Y-29944883D01*
X60495494Y-29926882D01*
X60465974Y-29902656D01*
X60441748Y-29873136D01*
X60423747Y-29839459D01*
X60412662Y-29802919D01*
X60408315Y-29758777D01*
X60408315Y-28309853D01*
X60412662Y-28265711D01*
X60423747Y-28229171D01*
X60441748Y-28195494D01*
X60465974Y-28165974D01*
X60495494Y-28141748D01*
X60529171Y-28123747D01*
X60565711Y-28112662D01*
X60609853Y-28108315D01*
X61558777Y-28108315D01*
X61602919Y-28112662D01*
X61602919Y-28112662D01*
G37*
G36*
X75368604Y-28078347D02*
G01*
X75405144Y-28089432D01*
X75438821Y-28107433D01*
X75468341Y-28131659D01*
X75492567Y-28161179D01*
X75510568Y-28194856D01*
X75521653Y-28231396D01*
X75526000Y-28275538D01*
X75526000Y-29724462D01*
X75521653Y-29768604D01*
X75510568Y-29805144D01*
X75492567Y-29838821D01*
X75468341Y-29868341D01*
X75438821Y-29892567D01*
X75405144Y-29910568D01*
X75368604Y-29921653D01*
X75324462Y-29926000D01*
X74375538Y-29926000D01*
X74331396Y-29921653D01*
X74294856Y-29910568D01*
X74261179Y-29892567D01*
X74231659Y-29868341D01*
X74207433Y-29838821D01*
X74189432Y-29805144D01*
X74178347Y-29768604D01*
X74174000Y-29724462D01*
X74174000Y-28275538D01*
X74178347Y-28231396D01*
X74189432Y-28194856D01*
X74207433Y-28161179D01*
X74231659Y-28131659D01*
X74261179Y-28107433D01*
X74294856Y-28089432D01*
X74331396Y-28078347D01*
X74375538Y-28074000D01*
X75324462Y-28074000D01*
X75368604Y-28078347D01*
X75368604Y-28078347D01*
G37*
G36*
X72568604Y-28078347D02*
G01*
X72605144Y-28089432D01*
X72638821Y-28107433D01*
X72668341Y-28131659D01*
X72692567Y-28161179D01*
X72710568Y-28194856D01*
X72721653Y-28231396D01*
X72726000Y-28275538D01*
X72726000Y-29724462D01*
X72721653Y-29768604D01*
X72710568Y-29805144D01*
X72692567Y-29838821D01*
X72668341Y-29868341D01*
X72638821Y-29892567D01*
X72605144Y-29910568D01*
X72568604Y-29921653D01*
X72524462Y-29926000D01*
X71575538Y-29926000D01*
X71531396Y-29921653D01*
X71494856Y-29910568D01*
X71461179Y-29892567D01*
X71431659Y-29868341D01*
X71407433Y-29838821D01*
X71389432Y-29805144D01*
X71378347Y-29768604D01*
X71374000Y-29724462D01*
X71374000Y-28275538D01*
X71378347Y-28231396D01*
X71389432Y-28194856D01*
X71407433Y-28161179D01*
X71431659Y-28131659D01*
X71461179Y-28107433D01*
X71494856Y-28089432D01*
X71531396Y-28078347D01*
X71575538Y-28074000D01*
X72524462Y-28074000D01*
X72568604Y-28078347D01*
X72568604Y-28078347D01*
G37*
G36*
X67968604Y-28078347D02*
G01*
X68005144Y-28089432D01*
X68038821Y-28107433D01*
X68068341Y-28131659D01*
X68092567Y-28161179D01*
X68110568Y-28194856D01*
X68121653Y-28231396D01*
X68126000Y-28275538D01*
X68126000Y-29724462D01*
X68121653Y-29768604D01*
X68110568Y-29805144D01*
X68092567Y-29838821D01*
X68068341Y-29868341D01*
X68038821Y-29892567D01*
X68005144Y-29910568D01*
X67968604Y-29921653D01*
X67924462Y-29926000D01*
X66975538Y-29926000D01*
X66931396Y-29921653D01*
X66894856Y-29910568D01*
X66861179Y-29892567D01*
X66831659Y-29868341D01*
X66807433Y-29838821D01*
X66789432Y-29805144D01*
X66778347Y-29768604D01*
X66774000Y-29724462D01*
X66774000Y-28275538D01*
X66778347Y-28231396D01*
X66789432Y-28194856D01*
X66807433Y-28161179D01*
X66831659Y-28131659D01*
X66861179Y-28107433D01*
X66894856Y-28089432D01*
X66931396Y-28078347D01*
X66975538Y-28074000D01*
X67924462Y-28074000D01*
X67968604Y-28078347D01*
X67968604Y-28078347D01*
G37*
G36*
X63368604Y-28078347D02*
G01*
X63405144Y-28089432D01*
X63438821Y-28107433D01*
X63468341Y-28131659D01*
X63492567Y-28161179D01*
X63510568Y-28194856D01*
X63521653Y-28231396D01*
X63526000Y-28275538D01*
X63526000Y-29724462D01*
X63521653Y-29768604D01*
X63510568Y-29805144D01*
X63492567Y-29838821D01*
X63468341Y-29868341D01*
X63438821Y-29892567D01*
X63405144Y-29910568D01*
X63368604Y-29921653D01*
X63324462Y-29926000D01*
X62375538Y-29926000D01*
X62331396Y-29921653D01*
X62294856Y-29910568D01*
X62261179Y-29892567D01*
X62231659Y-29868341D01*
X62207433Y-29838821D01*
X62189432Y-29805144D01*
X62178347Y-29768604D01*
X62174000Y-29724462D01*
X62174000Y-28275538D01*
X62178347Y-28231396D01*
X62189432Y-28194856D01*
X62207433Y-28161179D01*
X62231659Y-28131659D01*
X62261179Y-28107433D01*
X62294856Y-28089432D01*
X62331396Y-28078347D01*
X62375538Y-28074000D01*
X63324462Y-28074000D01*
X63368604Y-28078347D01*
X63368604Y-28078347D01*
G37*
G36*
X66168604Y-28078347D02*
G01*
X66205144Y-28089432D01*
X66238821Y-28107433D01*
X66268341Y-28131659D01*
X66292567Y-28161179D01*
X66310568Y-28194856D01*
X66321653Y-28231396D01*
X66326000Y-28275538D01*
X66326000Y-29724462D01*
X66321653Y-29768604D01*
X66310568Y-29805144D01*
X66292567Y-29838821D01*
X66268341Y-29868341D01*
X66238821Y-29892567D01*
X66205144Y-29910568D01*
X66168604Y-29921653D01*
X66124462Y-29926000D01*
X65175538Y-29926000D01*
X65131396Y-29921653D01*
X65094856Y-29910568D01*
X65061179Y-29892567D01*
X65031659Y-29868341D01*
X65007433Y-29838821D01*
X64989432Y-29805144D01*
X64978347Y-29768604D01*
X64974000Y-29724462D01*
X64974000Y-28275538D01*
X64978347Y-28231396D01*
X64989432Y-28194856D01*
X65007433Y-28161179D01*
X65031659Y-28131659D01*
X65061179Y-28107433D01*
X65094856Y-28089432D01*
X65131396Y-28078347D01*
X65175538Y-28074000D01*
X66124462Y-28074000D01*
X66168604Y-28078347D01*
X66168604Y-28078347D01*
G37*
G36*
X70768604Y-28078347D02*
G01*
X70805144Y-28089432D01*
X70838821Y-28107433D01*
X70868341Y-28131659D01*
X70892567Y-28161179D01*
X70910568Y-28194856D01*
X70921653Y-28231396D01*
X70926000Y-28275538D01*
X70926000Y-29724462D01*
X70921653Y-29768604D01*
X70910568Y-29805144D01*
X70892567Y-29838821D01*
X70868341Y-29868341D01*
X70838821Y-29892567D01*
X70805144Y-29910568D01*
X70768604Y-29921653D01*
X70724462Y-29926000D01*
X69775538Y-29926000D01*
X69731396Y-29921653D01*
X69694856Y-29910568D01*
X69661179Y-29892567D01*
X69631659Y-29868341D01*
X69607433Y-29838821D01*
X69589432Y-29805144D01*
X69578347Y-29768604D01*
X69574000Y-29724462D01*
X69574000Y-28275538D01*
X69578347Y-28231396D01*
X69589432Y-28194856D01*
X69607433Y-28161179D01*
X69631659Y-28131659D01*
X69661179Y-28107433D01*
X69694856Y-28089432D01*
X69731396Y-28078347D01*
X69775538Y-28074000D01*
X70724462Y-28074000D01*
X70768604Y-28078347D01*
X70768604Y-28078347D01*
G37*
G36*
X40296000Y-29786000D02*
G01*
X35199000Y-29786000D01*
X35199000Y-28984000D01*
X35719001Y-28984000D01*
X35743387Y-28981598D01*
X35766836Y-28974485D01*
X35788447Y-28962934D01*
X35807389Y-28947389D01*
X35822934Y-28928447D01*
X35834485Y-28906836D01*
X35841598Y-28883387D01*
X35844000Y-28859001D01*
X35844000Y-28640999D01*
X35841598Y-28616613D01*
X35834485Y-28593164D01*
X35822934Y-28571553D01*
X35807389Y-28552611D01*
X35788447Y-28537066D01*
X35766836Y-28525515D01*
X35743387Y-28518402D01*
X35719001Y-28516000D01*
X35199000Y-28516000D01*
X35199000Y-27714000D01*
X35719001Y-27714000D01*
X35743387Y-27711598D01*
X35766836Y-27704485D01*
X35788447Y-27692934D01*
X35807389Y-27677389D01*
X35822934Y-27658447D01*
X35834485Y-27636836D01*
X35841598Y-27613387D01*
X35844000Y-27589001D01*
X35844000Y-27370999D01*
X35841598Y-27346613D01*
X35834485Y-27323164D01*
X35822934Y-27301553D01*
X35807389Y-27282611D01*
X35788447Y-27267066D01*
X35766836Y-27255515D01*
X35743387Y-27248402D01*
X35719001Y-27246000D01*
X35199000Y-27246000D01*
X35199000Y-26444000D01*
X35719001Y-26444000D01*
X35743387Y-26441598D01*
X35766836Y-26434485D01*
X35788447Y-26422934D01*
X35807389Y-26407389D01*
X35822934Y-26388447D01*
X35834485Y-26366836D01*
X35841598Y-26343387D01*
X35844000Y-26319001D01*
X35844000Y-26100999D01*
X35841598Y-26076613D01*
X35834485Y-26053164D01*
X35822934Y-26031553D01*
X35807389Y-26012611D01*
X35788447Y-25997066D01*
X35766836Y-25985515D01*
X35743387Y-25978402D01*
X35719001Y-25976000D01*
X35199000Y-25976000D01*
X35199000Y-25174000D01*
X40296000Y-25174000D01*
X40296000Y-29786000D01*
X40296000Y-29786000D01*
G37*
G36*
X41601000Y-29786000D02*
G01*
X40799000Y-29786000D01*
X40799000Y-28984000D01*
X41601000Y-28984000D01*
X41601000Y-29786000D01*
X41601000Y-29786000D01*
G37*
G36*
X52476000Y-28681000D02*
G01*
X51524000Y-28681000D01*
X51524000Y-26229000D01*
X52476000Y-26229000D01*
X52476000Y-28681000D01*
X52476000Y-28681000D01*
G37*
G36*
X56476000Y-28681000D02*
G01*
X55524000Y-28681000D01*
X55524000Y-26229000D01*
X56476000Y-26229000D01*
X56476000Y-28681000D01*
X56476000Y-28681000D01*
G37*
G36*
X48476000Y-28681000D02*
G01*
X47524000Y-28681000D01*
X47524000Y-26229000D01*
X48476000Y-26229000D01*
X48476000Y-28681000D01*
X48476000Y-28681000D01*
G37*
G36*
X41601000Y-28516000D02*
G01*
X40799000Y-28516000D01*
X40799000Y-27714000D01*
X41601000Y-27714000D01*
X41601000Y-28516000D01*
X41601000Y-28516000D01*
G37*
G36*
X72568604Y-25878347D02*
G01*
X72605144Y-25889432D01*
X72638821Y-25907433D01*
X72668341Y-25931659D01*
X72692567Y-25961179D01*
X72710568Y-25994856D01*
X72721653Y-26031396D01*
X72726000Y-26075538D01*
X72726000Y-27524462D01*
X72721653Y-27568604D01*
X72710568Y-27605144D01*
X72692567Y-27638821D01*
X72668341Y-27668341D01*
X72638821Y-27692567D01*
X72605144Y-27710568D01*
X72568604Y-27721653D01*
X72524462Y-27726000D01*
X71575538Y-27726000D01*
X71531396Y-27721653D01*
X71494856Y-27710568D01*
X71461179Y-27692567D01*
X71431659Y-27668341D01*
X71407433Y-27638821D01*
X71389432Y-27605144D01*
X71378347Y-27568604D01*
X71374000Y-27524462D01*
X71374000Y-26075538D01*
X71378347Y-26031396D01*
X71389432Y-25994856D01*
X71407433Y-25961179D01*
X71431659Y-25931659D01*
X71461179Y-25907433D01*
X71494856Y-25889432D01*
X71531396Y-25878347D01*
X71575538Y-25874000D01*
X72524462Y-25874000D01*
X72568604Y-25878347D01*
X72568604Y-25878347D01*
G37*
G36*
X63368604Y-25878347D02*
G01*
X63405144Y-25889432D01*
X63438821Y-25907433D01*
X63468341Y-25931659D01*
X63492567Y-25961179D01*
X63510568Y-25994856D01*
X63521653Y-26031396D01*
X63526000Y-26075538D01*
X63526000Y-27524462D01*
X63521653Y-27568604D01*
X63510568Y-27605144D01*
X63492567Y-27638821D01*
X63468341Y-27668341D01*
X63438821Y-27692567D01*
X63405144Y-27710568D01*
X63368604Y-27721653D01*
X63324462Y-27726000D01*
X62375538Y-27726000D01*
X62331396Y-27721653D01*
X62294856Y-27710568D01*
X62261179Y-27692567D01*
X62231659Y-27668341D01*
X62207433Y-27638821D01*
X62189432Y-27605144D01*
X62178347Y-27568604D01*
X62174000Y-27524462D01*
X62174000Y-26075538D01*
X62178347Y-26031396D01*
X62189432Y-25994856D01*
X62207433Y-25961179D01*
X62231659Y-25931659D01*
X62261179Y-25907433D01*
X62294856Y-25889432D01*
X62331396Y-25878347D01*
X62375538Y-25874000D01*
X63324462Y-25874000D01*
X63368604Y-25878347D01*
X63368604Y-25878347D01*
G37*
G36*
X66168604Y-25878347D02*
G01*
X66205144Y-25889432D01*
X66238821Y-25907433D01*
X66268341Y-25931659D01*
X66292567Y-25961179D01*
X66310568Y-25994856D01*
X66321653Y-26031396D01*
X66326000Y-26075538D01*
X66326000Y-27524462D01*
X66321653Y-27568604D01*
X66310568Y-27605144D01*
X66292567Y-27638821D01*
X66268341Y-27668341D01*
X66238821Y-27692567D01*
X66205144Y-27710568D01*
X66168604Y-27721653D01*
X66124462Y-27726000D01*
X65175538Y-27726000D01*
X65131396Y-27721653D01*
X65094856Y-27710568D01*
X65061179Y-27692567D01*
X65031659Y-27668341D01*
X65007433Y-27638821D01*
X64989432Y-27605144D01*
X64978347Y-27568604D01*
X64974000Y-27524462D01*
X64974000Y-26075538D01*
X64978347Y-26031396D01*
X64989432Y-25994856D01*
X65007433Y-25961179D01*
X65031659Y-25931659D01*
X65061179Y-25907433D01*
X65094856Y-25889432D01*
X65131396Y-25878347D01*
X65175538Y-25874000D01*
X66124462Y-25874000D01*
X66168604Y-25878347D01*
X66168604Y-25878347D01*
G37*
G36*
X67968605Y-25878347D02*
G01*
X68005145Y-25889432D01*
X68038822Y-25907433D01*
X68068342Y-25931659D01*
X68092568Y-25961179D01*
X68110569Y-25994856D01*
X68121654Y-26031396D01*
X68126001Y-26075538D01*
X68126001Y-27524462D01*
X68121654Y-27568604D01*
X68110569Y-27605144D01*
X68092568Y-27638821D01*
X68068342Y-27668341D01*
X68038822Y-27692567D01*
X68005145Y-27710568D01*
X67968605Y-27721653D01*
X67924463Y-27726000D01*
X66975539Y-27726000D01*
X66931397Y-27721653D01*
X66894857Y-27710568D01*
X66861180Y-27692567D01*
X66831660Y-27668341D01*
X66807434Y-27638821D01*
X66789433Y-27605144D01*
X66778348Y-27568604D01*
X66774001Y-27524462D01*
X66774001Y-26075538D01*
X66778348Y-26031396D01*
X66789433Y-25994856D01*
X66807434Y-25961179D01*
X66831660Y-25931659D01*
X66861180Y-25907433D01*
X66894857Y-25889432D01*
X66931397Y-25878347D01*
X66975539Y-25874000D01*
X67924463Y-25874000D01*
X67968605Y-25878347D01*
X67968605Y-25878347D01*
G37*
G36*
X75368604Y-25878347D02*
G01*
X75405144Y-25889432D01*
X75438821Y-25907433D01*
X75468341Y-25931659D01*
X75492567Y-25961179D01*
X75510568Y-25994856D01*
X75521653Y-26031396D01*
X75526000Y-26075538D01*
X75526000Y-27524462D01*
X75521653Y-27568604D01*
X75510568Y-27605144D01*
X75492567Y-27638821D01*
X75468341Y-27668341D01*
X75438821Y-27692567D01*
X75405144Y-27710568D01*
X75368604Y-27721653D01*
X75324462Y-27726000D01*
X74375538Y-27726000D01*
X74331396Y-27721653D01*
X74294856Y-27710568D01*
X74261179Y-27692567D01*
X74231659Y-27668341D01*
X74207433Y-27638821D01*
X74189432Y-27605144D01*
X74178347Y-27568604D01*
X74174000Y-27524462D01*
X74174000Y-26075538D01*
X74178347Y-26031396D01*
X74189432Y-25994856D01*
X74207433Y-25961179D01*
X74231659Y-25931659D01*
X74261179Y-25907433D01*
X74294856Y-25889432D01*
X74331396Y-25878347D01*
X74375538Y-25874000D01*
X75324462Y-25874000D01*
X75368604Y-25878347D01*
X75368604Y-25878347D01*
G37*
G36*
X70768605Y-25878347D02*
G01*
X70805145Y-25889432D01*
X70838822Y-25907433D01*
X70868342Y-25931659D01*
X70892568Y-25961179D01*
X70910569Y-25994856D01*
X70921654Y-26031396D01*
X70926001Y-26075538D01*
X70926001Y-27524462D01*
X70921654Y-27568604D01*
X70910569Y-27605144D01*
X70892568Y-27638821D01*
X70868342Y-27668341D01*
X70838822Y-27692567D01*
X70805145Y-27710568D01*
X70768605Y-27721653D01*
X70724463Y-27726000D01*
X69775539Y-27726000D01*
X69731397Y-27721653D01*
X69694857Y-27710568D01*
X69661180Y-27692567D01*
X69631660Y-27668341D01*
X69607434Y-27638821D01*
X69589433Y-27605144D01*
X69578348Y-27568604D01*
X69574001Y-27524462D01*
X69574001Y-26075538D01*
X69578348Y-26031396D01*
X69589433Y-25994856D01*
X69607434Y-25961179D01*
X69631660Y-25931659D01*
X69661180Y-25907433D01*
X69694857Y-25889432D01*
X69731397Y-25878347D01*
X69775539Y-25874000D01*
X70724463Y-25874000D01*
X70768605Y-25878347D01*
X70768605Y-25878347D01*
G37*
G36*
X41601000Y-27246000D02*
G01*
X40799000Y-27246000D01*
X40799000Y-26444000D01*
X41601000Y-26444000D01*
X41601000Y-27246000D01*
X41601000Y-27246000D01*
G37*
G36*
X58476000Y-26331000D02*
G01*
X57524000Y-26331000D01*
X57524000Y-23879000D01*
X58476000Y-23879000D01*
X58476000Y-26331000D01*
X58476000Y-26331000D01*
G37*
G36*
X54476000Y-26331000D02*
G01*
X53524000Y-26331000D01*
X53524000Y-23879000D01*
X54476000Y-23879000D01*
X54476000Y-26331000D01*
X54476000Y-26331000D01*
G37*
G36*
X50476000Y-26331000D02*
G01*
X49524000Y-26331000D01*
X49524000Y-23879000D01*
X50476000Y-23879000D01*
X50476000Y-26331000D01*
X50476000Y-26331000D01*
G37*
G36*
X41601000Y-25976000D02*
G01*
X40799000Y-25976000D01*
X40799000Y-25174000D01*
X41601000Y-25174000D01*
X41601000Y-25976000D01*
X41601000Y-25976000D01*
G37*
M02*
