G04 #@! TF.GenerationSoftware,KiCad,Pcbnew,5.1.2*
G04 #@! TF.CreationDate,2019-05-22T13:07:44+02:00*
G04 #@! TF.ProjectId,PAC5523,50414335-3532-4332-9e6b-696361645f70,rev?*
G04 #@! TF.SameCoordinates,Original*
G04 #@! TF.FileFunction,Soldermask,Bot*
G04 #@! TF.FilePolarity,Negative*
%FSLAX46Y46*%
G04 Gerber Fmt 4.6, Leading zero omitted, Abs format (unit mm)*
G04 Created by KiCad (PCBNEW 5.1.2) date 2019-05-22 13:07:44*
%MOMM*%
%LPD*%
G04 APERTURE LIST*
%ADD10C,0.150000*%
%ADD11C,0.050000*%
%ADD12C,0.100000*%
G04 APERTURE END LIST*
D10*
X30650284Y-45000000D02*
G75*
G03X30650284Y-45000000I-4400284J0D01*
G01*
X78104595Y-45000000D02*
G75*
G03X78104595Y-45000000I-4354595J0D01*
G01*
D11*
X20000000Y-23000000D02*
X80000000Y-23000000D01*
X20000000Y-67000000D02*
X20000000Y-23000000D01*
X80000000Y-67000000D02*
X20000000Y-67000000D01*
X80000000Y-23000000D02*
X80000000Y-67000000D01*
D12*
G36*
X77726000Y-56636000D02*
G01*
X76274000Y-56636000D01*
X76274000Y-55184000D01*
X77726000Y-55184000D01*
X77726000Y-56636000D01*
X77726000Y-56636000D01*
G37*
G36*
X23821213Y-55187502D02*
G01*
X23892321Y-55194505D01*
X24029172Y-55236019D01*
X24029175Y-55236020D01*
X24155294Y-55303432D01*
X24265843Y-55394157D01*
X24356568Y-55504706D01*
X24423980Y-55630825D01*
X24423981Y-55630828D01*
X24465495Y-55767679D01*
X24479512Y-55910000D01*
X24465495Y-56052321D01*
X24423981Y-56189172D01*
X24423980Y-56189175D01*
X24356568Y-56315294D01*
X24265843Y-56425843D01*
X24155294Y-56516568D01*
X24029175Y-56583980D01*
X24029172Y-56583981D01*
X23892321Y-56625495D01*
X23821213Y-56632498D01*
X23785660Y-56636000D01*
X23714340Y-56636000D01*
X23678787Y-56632498D01*
X23607679Y-56625495D01*
X23470828Y-56583981D01*
X23470825Y-56583980D01*
X23344706Y-56516568D01*
X23234157Y-56425843D01*
X23143432Y-56315294D01*
X23076020Y-56189175D01*
X23076019Y-56189172D01*
X23034505Y-56052321D01*
X23020488Y-55910000D01*
X23034505Y-55767679D01*
X23076019Y-55630828D01*
X23076020Y-55630825D01*
X23143432Y-55504706D01*
X23234157Y-55394157D01*
X23344706Y-55303432D01*
X23470825Y-55236020D01*
X23470828Y-55236019D01*
X23607679Y-55194505D01*
X23678787Y-55187502D01*
X23714340Y-55184000D01*
X23785660Y-55184000D01*
X23821213Y-55187502D01*
X23821213Y-55187502D01*
G37*
G36*
X58726000Y-55146000D02*
G01*
X57274000Y-55146000D01*
X57274000Y-53694000D01*
X58726000Y-53694000D01*
X58726000Y-55146000D01*
X58726000Y-55146000D01*
G37*
G36*
X48071213Y-53697502D02*
G01*
X48142321Y-53704505D01*
X48279172Y-53746019D01*
X48279175Y-53746020D01*
X48405294Y-53813432D01*
X48515843Y-53904157D01*
X48606568Y-54014706D01*
X48673980Y-54140825D01*
X48673981Y-54140828D01*
X48715495Y-54277679D01*
X48729512Y-54420000D01*
X48715495Y-54562321D01*
X48708924Y-54583981D01*
X48673980Y-54699175D01*
X48606568Y-54825294D01*
X48515843Y-54935843D01*
X48405294Y-55026568D01*
X48279175Y-55093980D01*
X48279172Y-55093981D01*
X48142321Y-55135495D01*
X48071213Y-55142498D01*
X48035660Y-55146000D01*
X47964340Y-55146000D01*
X47928787Y-55142498D01*
X47857679Y-55135495D01*
X47720828Y-55093981D01*
X47720825Y-55093980D01*
X47594706Y-55026568D01*
X47484157Y-54935843D01*
X47393432Y-54825294D01*
X47326020Y-54699175D01*
X47291076Y-54583981D01*
X47284505Y-54562321D01*
X47270488Y-54420000D01*
X47284505Y-54277679D01*
X47326019Y-54140828D01*
X47326020Y-54140825D01*
X47393432Y-54014706D01*
X47484157Y-53904157D01*
X47594706Y-53813432D01*
X47720825Y-53746020D01*
X47720828Y-53746019D01*
X47857679Y-53704505D01*
X47928787Y-53697502D01*
X47964340Y-53694000D01*
X48035660Y-53694000D01*
X48071213Y-53697502D01*
X48071213Y-53697502D01*
G37*
G36*
X50071213Y-53697502D02*
G01*
X50142321Y-53704505D01*
X50279172Y-53746019D01*
X50279175Y-53746020D01*
X50405294Y-53813432D01*
X50515843Y-53904157D01*
X50606568Y-54014706D01*
X50673980Y-54140825D01*
X50673981Y-54140828D01*
X50715495Y-54277679D01*
X50729512Y-54420000D01*
X50715495Y-54562321D01*
X50708924Y-54583981D01*
X50673980Y-54699175D01*
X50606568Y-54825294D01*
X50515843Y-54935843D01*
X50405294Y-55026568D01*
X50279175Y-55093980D01*
X50279172Y-55093981D01*
X50142321Y-55135495D01*
X50071213Y-55142498D01*
X50035660Y-55146000D01*
X49964340Y-55146000D01*
X49928787Y-55142498D01*
X49857679Y-55135495D01*
X49720828Y-55093981D01*
X49720825Y-55093980D01*
X49594706Y-55026568D01*
X49484157Y-54935843D01*
X49393432Y-54825294D01*
X49326020Y-54699175D01*
X49291076Y-54583981D01*
X49284505Y-54562321D01*
X49270488Y-54420000D01*
X49284505Y-54277679D01*
X49326019Y-54140828D01*
X49326020Y-54140825D01*
X49393432Y-54014706D01*
X49484157Y-53904157D01*
X49594706Y-53813432D01*
X49720825Y-53746020D01*
X49720828Y-53746019D01*
X49857679Y-53704505D01*
X49928787Y-53697502D01*
X49964340Y-53694000D01*
X50035660Y-53694000D01*
X50071213Y-53697502D01*
X50071213Y-53697502D01*
G37*
G36*
X52071213Y-53697502D02*
G01*
X52142321Y-53704505D01*
X52279172Y-53746019D01*
X52279175Y-53746020D01*
X52405294Y-53813432D01*
X52515843Y-53904157D01*
X52606568Y-54014706D01*
X52673980Y-54140825D01*
X52673981Y-54140828D01*
X52715495Y-54277679D01*
X52729512Y-54420000D01*
X52715495Y-54562321D01*
X52708924Y-54583981D01*
X52673980Y-54699175D01*
X52606568Y-54825294D01*
X52515843Y-54935843D01*
X52405294Y-55026568D01*
X52279175Y-55093980D01*
X52279172Y-55093981D01*
X52142321Y-55135495D01*
X52071213Y-55142498D01*
X52035660Y-55146000D01*
X51964340Y-55146000D01*
X51928787Y-55142498D01*
X51857679Y-55135495D01*
X51720828Y-55093981D01*
X51720825Y-55093980D01*
X51594706Y-55026568D01*
X51484157Y-54935843D01*
X51393432Y-54825294D01*
X51326020Y-54699175D01*
X51291076Y-54583981D01*
X51284505Y-54562321D01*
X51270488Y-54420000D01*
X51284505Y-54277679D01*
X51326019Y-54140828D01*
X51326020Y-54140825D01*
X51393432Y-54014706D01*
X51484157Y-53904157D01*
X51594706Y-53813432D01*
X51720825Y-53746020D01*
X51720828Y-53746019D01*
X51857679Y-53704505D01*
X51928787Y-53697502D01*
X51964340Y-53694000D01*
X52035660Y-53694000D01*
X52071213Y-53697502D01*
X52071213Y-53697502D01*
G37*
G36*
X54071213Y-53697502D02*
G01*
X54142321Y-53704505D01*
X54279172Y-53746019D01*
X54279175Y-53746020D01*
X54405294Y-53813432D01*
X54515843Y-53904157D01*
X54606568Y-54014706D01*
X54673980Y-54140825D01*
X54673981Y-54140828D01*
X54715495Y-54277679D01*
X54729512Y-54420000D01*
X54715495Y-54562321D01*
X54708924Y-54583981D01*
X54673980Y-54699175D01*
X54606568Y-54825294D01*
X54515843Y-54935843D01*
X54405294Y-55026568D01*
X54279175Y-55093980D01*
X54279172Y-55093981D01*
X54142321Y-55135495D01*
X54071213Y-55142498D01*
X54035660Y-55146000D01*
X53964340Y-55146000D01*
X53928787Y-55142498D01*
X53857679Y-55135495D01*
X53720828Y-55093981D01*
X53720825Y-55093980D01*
X53594706Y-55026568D01*
X53484157Y-54935843D01*
X53393432Y-54825294D01*
X53326020Y-54699175D01*
X53291076Y-54583981D01*
X53284505Y-54562321D01*
X53270488Y-54420000D01*
X53284505Y-54277679D01*
X53326019Y-54140828D01*
X53326020Y-54140825D01*
X53393432Y-54014706D01*
X53484157Y-53904157D01*
X53594706Y-53813432D01*
X53720825Y-53746020D01*
X53720828Y-53746019D01*
X53857679Y-53704505D01*
X53928787Y-53697502D01*
X53964340Y-53694000D01*
X54035660Y-53694000D01*
X54071213Y-53697502D01*
X54071213Y-53697502D01*
G37*
G36*
X56071213Y-53697502D02*
G01*
X56142321Y-53704505D01*
X56279172Y-53746019D01*
X56279175Y-53746020D01*
X56405294Y-53813432D01*
X56515843Y-53904157D01*
X56606568Y-54014706D01*
X56673980Y-54140825D01*
X56673981Y-54140828D01*
X56715495Y-54277679D01*
X56729512Y-54420000D01*
X56715495Y-54562321D01*
X56708924Y-54583981D01*
X56673980Y-54699175D01*
X56606568Y-54825294D01*
X56515843Y-54935843D01*
X56405294Y-55026568D01*
X56279175Y-55093980D01*
X56279172Y-55093981D01*
X56142321Y-55135495D01*
X56071213Y-55142498D01*
X56035660Y-55146000D01*
X55964340Y-55146000D01*
X55928787Y-55142498D01*
X55857679Y-55135495D01*
X55720828Y-55093981D01*
X55720825Y-55093980D01*
X55594706Y-55026568D01*
X55484157Y-54935843D01*
X55393432Y-54825294D01*
X55326020Y-54699175D01*
X55291076Y-54583981D01*
X55284505Y-54562321D01*
X55270488Y-54420000D01*
X55284505Y-54277679D01*
X55326019Y-54140828D01*
X55326020Y-54140825D01*
X55393432Y-54014706D01*
X55484157Y-53904157D01*
X55594706Y-53813432D01*
X55720825Y-53746020D01*
X55720828Y-53746019D01*
X55857679Y-53704505D01*
X55928787Y-53697502D01*
X55964340Y-53694000D01*
X56035660Y-53694000D01*
X56071213Y-53697502D01*
X56071213Y-53697502D01*
G37*
G36*
X77071213Y-53187502D02*
G01*
X77142321Y-53194505D01*
X77279172Y-53236019D01*
X77279175Y-53236020D01*
X77405294Y-53303432D01*
X77515843Y-53394157D01*
X77606568Y-53504706D01*
X77673980Y-53630825D01*
X77673981Y-53630828D01*
X77715495Y-53767679D01*
X77729512Y-53910000D01*
X77715495Y-54052321D01*
X77688647Y-54140825D01*
X77673980Y-54189175D01*
X77606568Y-54315294D01*
X77515843Y-54425843D01*
X77405294Y-54516568D01*
X77279175Y-54583980D01*
X77279172Y-54583981D01*
X77142321Y-54625495D01*
X77071213Y-54632498D01*
X77035660Y-54636000D01*
X76964340Y-54636000D01*
X76928787Y-54632498D01*
X76857679Y-54625495D01*
X76720828Y-54583981D01*
X76720825Y-54583980D01*
X76594706Y-54516568D01*
X76484157Y-54425843D01*
X76393432Y-54315294D01*
X76326020Y-54189175D01*
X76311353Y-54140825D01*
X76284505Y-54052321D01*
X76270488Y-53910000D01*
X76284505Y-53767679D01*
X76326019Y-53630828D01*
X76326020Y-53630825D01*
X76393432Y-53504706D01*
X76484157Y-53394157D01*
X76594706Y-53303432D01*
X76720825Y-53236020D01*
X76720828Y-53236019D01*
X76857679Y-53194505D01*
X76928787Y-53187502D01*
X76964340Y-53184000D01*
X77035660Y-53184000D01*
X77071213Y-53187502D01*
X77071213Y-53187502D01*
G37*
G36*
X23821213Y-53187502D02*
G01*
X23892321Y-53194505D01*
X24029172Y-53236019D01*
X24029175Y-53236020D01*
X24155294Y-53303432D01*
X24265843Y-53394157D01*
X24356568Y-53504706D01*
X24423980Y-53630825D01*
X24423981Y-53630828D01*
X24465495Y-53767679D01*
X24479512Y-53910000D01*
X24465495Y-54052321D01*
X24438647Y-54140825D01*
X24423980Y-54189175D01*
X24356568Y-54315294D01*
X24265843Y-54425843D01*
X24155294Y-54516568D01*
X24029175Y-54583980D01*
X24029172Y-54583981D01*
X23892321Y-54625495D01*
X23821213Y-54632498D01*
X23785660Y-54636000D01*
X23714340Y-54636000D01*
X23678787Y-54632498D01*
X23607679Y-54625495D01*
X23470828Y-54583981D01*
X23470825Y-54583980D01*
X23344706Y-54516568D01*
X23234157Y-54425843D01*
X23143432Y-54315294D01*
X23076020Y-54189175D01*
X23061353Y-54140825D01*
X23034505Y-54052321D01*
X23020488Y-53910000D01*
X23034505Y-53767679D01*
X23076019Y-53630828D01*
X23076020Y-53630825D01*
X23143432Y-53504706D01*
X23234157Y-53394157D01*
X23344706Y-53303432D01*
X23470825Y-53236020D01*
X23470828Y-53236019D01*
X23607679Y-53194505D01*
X23678787Y-53187502D01*
X23714340Y-53184000D01*
X23785660Y-53184000D01*
X23821213Y-53187502D01*
X23821213Y-53187502D01*
G37*
G36*
X24476000Y-52636000D02*
G01*
X23024000Y-52636000D01*
X23024000Y-51184000D01*
X24476000Y-51184000D01*
X24476000Y-52636000D01*
X24476000Y-52636000D01*
G37*
G36*
X77071213Y-51187502D02*
G01*
X77142321Y-51194505D01*
X77279172Y-51236019D01*
X77279175Y-51236020D01*
X77405294Y-51303432D01*
X77515843Y-51394157D01*
X77606568Y-51504706D01*
X77673980Y-51630825D01*
X77673981Y-51630828D01*
X77715495Y-51767679D01*
X77729512Y-51910000D01*
X77715495Y-52052321D01*
X77673981Y-52189172D01*
X77673980Y-52189175D01*
X77606568Y-52315294D01*
X77515843Y-52425843D01*
X77405294Y-52516568D01*
X77279175Y-52583980D01*
X77279172Y-52583981D01*
X77142321Y-52625495D01*
X77071213Y-52632498D01*
X77035660Y-52636000D01*
X76964340Y-52636000D01*
X76928787Y-52632498D01*
X76857679Y-52625495D01*
X76720828Y-52583981D01*
X76720825Y-52583980D01*
X76594706Y-52516568D01*
X76484157Y-52425843D01*
X76393432Y-52315294D01*
X76326020Y-52189175D01*
X76326019Y-52189172D01*
X76284505Y-52052321D01*
X76270488Y-51910000D01*
X76284505Y-51767679D01*
X76326019Y-51630828D01*
X76326020Y-51630825D01*
X76393432Y-51504706D01*
X76484157Y-51394157D01*
X76594706Y-51303432D01*
X76720825Y-51236020D01*
X76720828Y-51236019D01*
X76857679Y-51194505D01*
X76928787Y-51187502D01*
X76964340Y-51184000D01*
X77035660Y-51184000D01*
X77071213Y-51187502D01*
X77071213Y-51187502D01*
G37*
G36*
X78056330Y-39985442D02*
G01*
X78108979Y-39995915D01*
X78142042Y-40009610D01*
X78208170Y-40037001D01*
X78297434Y-40096645D01*
X78373355Y-40172566D01*
X78432999Y-40261830D01*
X78474085Y-40361022D01*
X78495030Y-40466318D01*
X78495030Y-40573682D01*
X78474085Y-40678978D01*
X78432999Y-40778170D01*
X78373355Y-40867434D01*
X78297434Y-40943355D01*
X78208170Y-41002999D01*
X78142042Y-41030390D01*
X78108979Y-41044085D01*
X78056330Y-41054558D01*
X78003682Y-41065030D01*
X77896318Y-41065030D01*
X77843670Y-41054558D01*
X77791021Y-41044085D01*
X77757958Y-41030390D01*
X77691830Y-41002999D01*
X77602566Y-40943355D01*
X77526645Y-40867434D01*
X77467001Y-40778170D01*
X77425915Y-40678978D01*
X77404970Y-40573682D01*
X77404970Y-40466318D01*
X77425915Y-40361022D01*
X77467001Y-40261830D01*
X77526645Y-40172566D01*
X77602566Y-40096645D01*
X77691830Y-40037001D01*
X77757958Y-40009610D01*
X77791021Y-39995915D01*
X77843670Y-39985442D01*
X77896318Y-39974970D01*
X78003682Y-39974970D01*
X78056330Y-39985442D01*
X78056330Y-39985442D01*
G37*
G36*
X48071213Y-39477502D02*
G01*
X48142321Y-39484505D01*
X48279172Y-39526019D01*
X48279175Y-39526020D01*
X48405294Y-39593432D01*
X48515843Y-39684157D01*
X48606568Y-39794706D01*
X48673980Y-39920825D01*
X48673981Y-39920828D01*
X48715495Y-40057679D01*
X48729512Y-40200000D01*
X48715495Y-40342321D01*
X48677880Y-40466318D01*
X48673980Y-40479175D01*
X48606568Y-40605294D01*
X48515843Y-40715843D01*
X48405294Y-40806568D01*
X48279175Y-40873980D01*
X48279172Y-40873981D01*
X48142321Y-40915495D01*
X48071213Y-40922498D01*
X48035660Y-40926000D01*
X47964340Y-40926000D01*
X47928787Y-40922498D01*
X47857679Y-40915495D01*
X47720828Y-40873981D01*
X47720825Y-40873980D01*
X47594706Y-40806568D01*
X47484157Y-40715843D01*
X47393432Y-40605294D01*
X47326020Y-40479175D01*
X47322120Y-40466318D01*
X47284505Y-40342321D01*
X47270488Y-40200000D01*
X47284505Y-40057679D01*
X47326019Y-39920828D01*
X47326020Y-39920825D01*
X47393432Y-39794706D01*
X47484157Y-39684157D01*
X47594706Y-39593432D01*
X47720825Y-39526020D01*
X47720828Y-39526019D01*
X47857679Y-39484505D01*
X47928787Y-39477502D01*
X47964340Y-39474000D01*
X48035660Y-39474000D01*
X48071213Y-39477502D01*
X48071213Y-39477502D01*
G37*
G36*
X52071213Y-39477502D02*
G01*
X52142321Y-39484505D01*
X52279172Y-39526019D01*
X52279175Y-39526020D01*
X52405294Y-39593432D01*
X52515843Y-39684157D01*
X52606568Y-39794706D01*
X52673980Y-39920825D01*
X52673981Y-39920828D01*
X52715495Y-40057679D01*
X52729512Y-40200000D01*
X52715495Y-40342321D01*
X52677880Y-40466318D01*
X52673980Y-40479175D01*
X52606568Y-40605294D01*
X52515843Y-40715843D01*
X52405294Y-40806568D01*
X52279175Y-40873980D01*
X52279172Y-40873981D01*
X52142321Y-40915495D01*
X52071213Y-40922498D01*
X52035660Y-40926000D01*
X51964340Y-40926000D01*
X51928787Y-40922498D01*
X51857679Y-40915495D01*
X51720828Y-40873981D01*
X51720825Y-40873980D01*
X51594706Y-40806568D01*
X51484157Y-40715843D01*
X51393432Y-40605294D01*
X51326020Y-40479175D01*
X51322120Y-40466318D01*
X51284505Y-40342321D01*
X51270488Y-40200000D01*
X51284505Y-40057679D01*
X51326019Y-39920828D01*
X51326020Y-39920825D01*
X51393432Y-39794706D01*
X51484157Y-39684157D01*
X51594706Y-39593432D01*
X51720825Y-39526020D01*
X51720828Y-39526019D01*
X51857679Y-39484505D01*
X51928787Y-39477502D01*
X51964340Y-39474000D01*
X52035660Y-39474000D01*
X52071213Y-39477502D01*
X52071213Y-39477502D01*
G37*
G36*
X54071213Y-39477502D02*
G01*
X54142321Y-39484505D01*
X54279172Y-39526019D01*
X54279175Y-39526020D01*
X54405294Y-39593432D01*
X54515843Y-39684157D01*
X54606568Y-39794706D01*
X54673980Y-39920825D01*
X54673981Y-39920828D01*
X54715495Y-40057679D01*
X54729512Y-40200000D01*
X54715495Y-40342321D01*
X54677880Y-40466318D01*
X54673980Y-40479175D01*
X54606568Y-40605294D01*
X54515843Y-40715843D01*
X54405294Y-40806568D01*
X54279175Y-40873980D01*
X54279172Y-40873981D01*
X54142321Y-40915495D01*
X54071213Y-40922498D01*
X54035660Y-40926000D01*
X53964340Y-40926000D01*
X53928787Y-40922498D01*
X53857679Y-40915495D01*
X53720828Y-40873981D01*
X53720825Y-40873980D01*
X53594706Y-40806568D01*
X53484157Y-40715843D01*
X53393432Y-40605294D01*
X53326020Y-40479175D01*
X53322120Y-40466318D01*
X53284505Y-40342321D01*
X53270488Y-40200000D01*
X53284505Y-40057679D01*
X53326019Y-39920828D01*
X53326020Y-39920825D01*
X53393432Y-39794706D01*
X53484157Y-39684157D01*
X53594706Y-39593432D01*
X53720825Y-39526020D01*
X53720828Y-39526019D01*
X53857679Y-39484505D01*
X53928787Y-39477502D01*
X53964340Y-39474000D01*
X54035660Y-39474000D01*
X54071213Y-39477502D01*
X54071213Y-39477502D01*
G37*
G36*
X50071213Y-39477502D02*
G01*
X50142321Y-39484505D01*
X50279172Y-39526019D01*
X50279175Y-39526020D01*
X50405294Y-39593432D01*
X50515843Y-39684157D01*
X50606568Y-39794706D01*
X50673980Y-39920825D01*
X50673981Y-39920828D01*
X50715495Y-40057679D01*
X50729512Y-40200000D01*
X50715495Y-40342321D01*
X50677880Y-40466318D01*
X50673980Y-40479175D01*
X50606568Y-40605294D01*
X50515843Y-40715843D01*
X50405294Y-40806568D01*
X50279175Y-40873980D01*
X50279172Y-40873981D01*
X50142321Y-40915495D01*
X50071213Y-40922498D01*
X50035660Y-40926000D01*
X49964340Y-40926000D01*
X49928787Y-40922498D01*
X49857679Y-40915495D01*
X49720828Y-40873981D01*
X49720825Y-40873980D01*
X49594706Y-40806568D01*
X49484157Y-40715843D01*
X49393432Y-40605294D01*
X49326020Y-40479175D01*
X49322120Y-40466318D01*
X49284505Y-40342321D01*
X49270488Y-40200000D01*
X49284505Y-40057679D01*
X49326019Y-39920828D01*
X49326020Y-39920825D01*
X49393432Y-39794706D01*
X49484157Y-39684157D01*
X49594706Y-39593432D01*
X49720825Y-39526020D01*
X49720828Y-39526019D01*
X49857679Y-39484505D01*
X49928787Y-39477502D01*
X49964340Y-39474000D01*
X50035660Y-39474000D01*
X50071213Y-39477502D01*
X50071213Y-39477502D01*
G37*
G36*
X56071213Y-39477502D02*
G01*
X56142321Y-39484505D01*
X56279172Y-39526019D01*
X56279175Y-39526020D01*
X56405294Y-39593432D01*
X56515843Y-39684157D01*
X56606568Y-39794706D01*
X56673980Y-39920825D01*
X56673981Y-39920828D01*
X56715495Y-40057679D01*
X56729512Y-40200000D01*
X56715495Y-40342321D01*
X56677880Y-40466318D01*
X56673980Y-40479175D01*
X56606568Y-40605294D01*
X56515843Y-40715843D01*
X56405294Y-40806568D01*
X56279175Y-40873980D01*
X56279172Y-40873981D01*
X56142321Y-40915495D01*
X56071213Y-40922498D01*
X56035660Y-40926000D01*
X55964340Y-40926000D01*
X55928787Y-40922498D01*
X55857679Y-40915495D01*
X55720828Y-40873981D01*
X55720825Y-40873980D01*
X55594706Y-40806568D01*
X55484157Y-40715843D01*
X55393432Y-40605294D01*
X55326020Y-40479175D01*
X55322120Y-40466318D01*
X55284505Y-40342321D01*
X55270488Y-40200000D01*
X55284505Y-40057679D01*
X55326019Y-39920828D01*
X55326020Y-39920825D01*
X55393432Y-39794706D01*
X55484157Y-39684157D01*
X55594706Y-39593432D01*
X55720825Y-39526020D01*
X55720828Y-39526019D01*
X55857679Y-39484505D01*
X55928787Y-39477502D01*
X55964340Y-39474000D01*
X56035660Y-39474000D01*
X56071213Y-39477502D01*
X56071213Y-39477502D01*
G37*
G36*
X58726000Y-40926000D02*
G01*
X57274000Y-40926000D01*
X57274000Y-39474000D01*
X58726000Y-39474000D01*
X58726000Y-40926000D01*
X58726000Y-40926000D01*
G37*
G36*
X79124609Y-34917136D02*
G01*
X79223567Y-34958126D01*
X79312627Y-35017634D01*
X79388366Y-35093373D01*
X79447874Y-35182433D01*
X79488864Y-35281391D01*
X79509760Y-35386444D01*
X79509760Y-35493556D01*
X79488864Y-35598609D01*
X79447874Y-35697567D01*
X79388366Y-35786627D01*
X79312627Y-35862366D01*
X79223567Y-35921874D01*
X79223566Y-35921875D01*
X79223565Y-35921875D01*
X79124609Y-35962864D01*
X79019557Y-35983760D01*
X78912443Y-35983760D01*
X78807391Y-35962864D01*
X78708435Y-35921875D01*
X78708434Y-35921875D01*
X78708433Y-35921874D01*
X78619373Y-35862366D01*
X78543634Y-35786627D01*
X78484126Y-35697567D01*
X78443136Y-35598609D01*
X78422240Y-35493556D01*
X78422240Y-35386444D01*
X78443136Y-35281391D01*
X78484126Y-35182433D01*
X78543634Y-35093373D01*
X78619373Y-35017634D01*
X78708433Y-34958126D01*
X78807391Y-34917136D01*
X78912443Y-34896240D01*
X79019557Y-34896240D01*
X79124609Y-34917136D01*
X79124609Y-34917136D01*
G37*
G36*
X77092609Y-34917136D02*
G01*
X77191567Y-34958126D01*
X77280627Y-35017634D01*
X77356366Y-35093373D01*
X77415874Y-35182433D01*
X77456864Y-35281391D01*
X77477760Y-35386444D01*
X77477760Y-35493556D01*
X77456864Y-35598609D01*
X77415874Y-35697567D01*
X77356366Y-35786627D01*
X77280627Y-35862366D01*
X77191567Y-35921874D01*
X77191566Y-35921875D01*
X77191565Y-35921875D01*
X77092609Y-35962864D01*
X76987557Y-35983760D01*
X76880443Y-35983760D01*
X76775391Y-35962864D01*
X76676435Y-35921875D01*
X76676434Y-35921875D01*
X76676433Y-35921874D01*
X76587373Y-35862366D01*
X76511634Y-35786627D01*
X76452126Y-35697567D01*
X76411136Y-35598609D01*
X76390240Y-35493556D01*
X76390240Y-35386444D01*
X76411136Y-35281391D01*
X76452126Y-35182433D01*
X76511634Y-35093373D01*
X76587373Y-35017634D01*
X76676433Y-34958126D01*
X76775391Y-34917136D01*
X76880443Y-34896240D01*
X76987557Y-34896240D01*
X77092609Y-34917136D01*
X77092609Y-34917136D01*
G37*
G36*
X48071213Y-25557502D02*
G01*
X48142321Y-25564505D01*
X48279172Y-25606019D01*
X48279175Y-25606020D01*
X48405294Y-25673432D01*
X48515843Y-25764157D01*
X48606568Y-25874706D01*
X48673980Y-26000825D01*
X48673981Y-26000828D01*
X48715495Y-26137679D01*
X48729512Y-26280000D01*
X48715495Y-26422321D01*
X48673981Y-26559172D01*
X48673980Y-26559175D01*
X48606568Y-26685294D01*
X48515843Y-26795843D01*
X48405294Y-26886568D01*
X48279175Y-26953980D01*
X48279172Y-26953981D01*
X48142321Y-26995495D01*
X48071213Y-27002498D01*
X48035660Y-27006000D01*
X47964340Y-27006000D01*
X47928787Y-27002498D01*
X47857679Y-26995495D01*
X47720828Y-26953981D01*
X47720825Y-26953980D01*
X47594706Y-26886568D01*
X47484157Y-26795843D01*
X47393432Y-26685294D01*
X47326020Y-26559175D01*
X47326019Y-26559172D01*
X47284505Y-26422321D01*
X47270488Y-26280000D01*
X47284505Y-26137679D01*
X47326019Y-26000828D01*
X47326020Y-26000825D01*
X47393432Y-25874706D01*
X47484157Y-25764157D01*
X47594706Y-25673432D01*
X47720825Y-25606020D01*
X47720828Y-25606019D01*
X47857679Y-25564505D01*
X47928787Y-25557502D01*
X47964340Y-25554000D01*
X48035660Y-25554000D01*
X48071213Y-25557502D01*
X48071213Y-25557502D01*
G37*
G36*
X50071213Y-25557502D02*
G01*
X50142321Y-25564505D01*
X50279172Y-25606019D01*
X50279175Y-25606020D01*
X50405294Y-25673432D01*
X50515843Y-25764157D01*
X50606568Y-25874706D01*
X50673980Y-26000825D01*
X50673981Y-26000828D01*
X50715495Y-26137679D01*
X50729512Y-26280000D01*
X50715495Y-26422321D01*
X50673981Y-26559172D01*
X50673980Y-26559175D01*
X50606568Y-26685294D01*
X50515843Y-26795843D01*
X50405294Y-26886568D01*
X50279175Y-26953980D01*
X50279172Y-26953981D01*
X50142321Y-26995495D01*
X50071213Y-27002498D01*
X50035660Y-27006000D01*
X49964340Y-27006000D01*
X49928787Y-27002498D01*
X49857679Y-26995495D01*
X49720828Y-26953981D01*
X49720825Y-26953980D01*
X49594706Y-26886568D01*
X49484157Y-26795843D01*
X49393432Y-26685294D01*
X49326020Y-26559175D01*
X49326019Y-26559172D01*
X49284505Y-26422321D01*
X49270488Y-26280000D01*
X49284505Y-26137679D01*
X49326019Y-26000828D01*
X49326020Y-26000825D01*
X49393432Y-25874706D01*
X49484157Y-25764157D01*
X49594706Y-25673432D01*
X49720825Y-25606020D01*
X49720828Y-25606019D01*
X49857679Y-25564505D01*
X49928787Y-25557502D01*
X49964340Y-25554000D01*
X50035660Y-25554000D01*
X50071213Y-25557502D01*
X50071213Y-25557502D01*
G37*
G36*
X52071213Y-25557502D02*
G01*
X52142321Y-25564505D01*
X52279172Y-25606019D01*
X52279175Y-25606020D01*
X52405294Y-25673432D01*
X52515843Y-25764157D01*
X52606568Y-25874706D01*
X52673980Y-26000825D01*
X52673981Y-26000828D01*
X52715495Y-26137679D01*
X52729512Y-26280000D01*
X52715495Y-26422321D01*
X52673981Y-26559172D01*
X52673980Y-26559175D01*
X52606568Y-26685294D01*
X52515843Y-26795843D01*
X52405294Y-26886568D01*
X52279175Y-26953980D01*
X52279172Y-26953981D01*
X52142321Y-26995495D01*
X52071213Y-27002498D01*
X52035660Y-27006000D01*
X51964340Y-27006000D01*
X51928787Y-27002498D01*
X51857679Y-26995495D01*
X51720828Y-26953981D01*
X51720825Y-26953980D01*
X51594706Y-26886568D01*
X51484157Y-26795843D01*
X51393432Y-26685294D01*
X51326020Y-26559175D01*
X51326019Y-26559172D01*
X51284505Y-26422321D01*
X51270488Y-26280000D01*
X51284505Y-26137679D01*
X51326019Y-26000828D01*
X51326020Y-26000825D01*
X51393432Y-25874706D01*
X51484157Y-25764157D01*
X51594706Y-25673432D01*
X51720825Y-25606020D01*
X51720828Y-25606019D01*
X51857679Y-25564505D01*
X51928787Y-25557502D01*
X51964340Y-25554000D01*
X52035660Y-25554000D01*
X52071213Y-25557502D01*
X52071213Y-25557502D01*
G37*
G36*
X54071213Y-25557502D02*
G01*
X54142321Y-25564505D01*
X54279172Y-25606019D01*
X54279175Y-25606020D01*
X54405294Y-25673432D01*
X54515843Y-25764157D01*
X54606568Y-25874706D01*
X54673980Y-26000825D01*
X54673981Y-26000828D01*
X54715495Y-26137679D01*
X54729512Y-26280000D01*
X54715495Y-26422321D01*
X54673981Y-26559172D01*
X54673980Y-26559175D01*
X54606568Y-26685294D01*
X54515843Y-26795843D01*
X54405294Y-26886568D01*
X54279175Y-26953980D01*
X54279172Y-26953981D01*
X54142321Y-26995495D01*
X54071213Y-27002498D01*
X54035660Y-27006000D01*
X53964340Y-27006000D01*
X53928787Y-27002498D01*
X53857679Y-26995495D01*
X53720828Y-26953981D01*
X53720825Y-26953980D01*
X53594706Y-26886568D01*
X53484157Y-26795843D01*
X53393432Y-26685294D01*
X53326020Y-26559175D01*
X53326019Y-26559172D01*
X53284505Y-26422321D01*
X53270488Y-26280000D01*
X53284505Y-26137679D01*
X53326019Y-26000828D01*
X53326020Y-26000825D01*
X53393432Y-25874706D01*
X53484157Y-25764157D01*
X53594706Y-25673432D01*
X53720825Y-25606020D01*
X53720828Y-25606019D01*
X53857679Y-25564505D01*
X53928787Y-25557502D01*
X53964340Y-25554000D01*
X54035660Y-25554000D01*
X54071213Y-25557502D01*
X54071213Y-25557502D01*
G37*
G36*
X56071213Y-25557502D02*
G01*
X56142321Y-25564505D01*
X56279172Y-25606019D01*
X56279175Y-25606020D01*
X56405294Y-25673432D01*
X56515843Y-25764157D01*
X56606568Y-25874706D01*
X56673980Y-26000825D01*
X56673981Y-26000828D01*
X56715495Y-26137679D01*
X56729512Y-26280000D01*
X56715495Y-26422321D01*
X56673981Y-26559172D01*
X56673980Y-26559175D01*
X56606568Y-26685294D01*
X56515843Y-26795843D01*
X56405294Y-26886568D01*
X56279175Y-26953980D01*
X56279172Y-26953981D01*
X56142321Y-26995495D01*
X56071213Y-27002498D01*
X56035660Y-27006000D01*
X55964340Y-27006000D01*
X55928787Y-27002498D01*
X55857679Y-26995495D01*
X55720828Y-26953981D01*
X55720825Y-26953980D01*
X55594706Y-26886568D01*
X55484157Y-26795843D01*
X55393432Y-26685294D01*
X55326020Y-26559175D01*
X55326019Y-26559172D01*
X55284505Y-26422321D01*
X55270488Y-26280000D01*
X55284505Y-26137679D01*
X55326019Y-26000828D01*
X55326020Y-26000825D01*
X55393432Y-25874706D01*
X55484157Y-25764157D01*
X55594706Y-25673432D01*
X55720825Y-25606020D01*
X55720828Y-25606019D01*
X55857679Y-25564505D01*
X55928787Y-25557502D01*
X55964340Y-25554000D01*
X56035660Y-25554000D01*
X56071213Y-25557502D01*
X56071213Y-25557502D01*
G37*
G36*
X58726000Y-27006000D02*
G01*
X57274000Y-27006000D01*
X57274000Y-25554000D01*
X58726000Y-25554000D01*
X58726000Y-27006000D01*
X58726000Y-27006000D01*
G37*
M02*
