G04 #@! TF.GenerationSoftware,KiCad,Pcbnew,5.1.2*
G04 #@! TF.CreationDate,2019-05-22T13:07:44+02:00*
G04 #@! TF.ProjectId,PAC5523,50414335-3532-4332-9e6b-696361645f70,rev?*
G04 #@! TF.SameCoordinates,Original*
G04 #@! TF.FileFunction,Copper,L2,Inr*
G04 #@! TF.FilePolarity,Positive*
%FSLAX46Y46*%
G04 Gerber Fmt 4.6, Leading zero omitted, Abs format (unit mm)*
G04 Created by KiCad (PCBNEW 5.1.2) date 2019-05-22 13:07:44*
%MOMM*%
%LPD*%
G04 APERTURE LIST*
%ADD10C,0.150000*%
%ADD11C,0.050000*%
%ADD12R,1.350000X1.350000*%
%ADD13O,1.350000X1.350000*%
%ADD14C,0.600000*%
%ADD15C,0.154000*%
%ADD16C,0.400000*%
%ADD17C,0.200000*%
G04 APERTURE END LIST*
D10*
X30650284Y-45000000D02*
G75*
G03X30650284Y-45000000I-4400284J0D01*
G01*
X78104595Y-45000000D02*
G75*
G03X78104595Y-45000000I-4354595J0D01*
G01*
D11*
X20000000Y-23000000D02*
X80000000Y-23000000D01*
X20000000Y-67000000D02*
X20000000Y-23000000D01*
X80000000Y-67000000D02*
X20000000Y-67000000D01*
X80000000Y-23000000D02*
X80000000Y-67000000D01*
D12*
X23750000Y-51910000D03*
D13*
X23750000Y-53910000D03*
X23750000Y-55910000D03*
D12*
X77000000Y-55910000D03*
D13*
X77000000Y-53910000D03*
X77000000Y-51910000D03*
X48000000Y-40200000D03*
X50000000Y-40200000D03*
X52000000Y-40200000D03*
X54000000Y-40200000D03*
X56000000Y-40200000D03*
D12*
X58000000Y-40200000D03*
D13*
X48000000Y-54420000D03*
X50000000Y-54420000D03*
X52000000Y-54420000D03*
X54000000Y-54420000D03*
X56000000Y-54420000D03*
D12*
X58000000Y-54420000D03*
D13*
X48000000Y-26280000D03*
X50000000Y-26280000D03*
X52000000Y-26280000D03*
X54000000Y-26280000D03*
X56000000Y-26280000D03*
D12*
X58000000Y-26280000D03*
D14*
X35610000Y-53230000D03*
X37460000Y-61580000D03*
X55531010Y-43400000D03*
X61500000Y-33900000D03*
X61500000Y-32200000D03*
X56041653Y-44561761D03*
X63800000Y-33100000D03*
X53500000Y-37500000D03*
X63400000Y-31600000D03*
X55500000Y-36200000D03*
X65200000Y-33100000D03*
X65168469Y-31567507D03*
X78200000Y-63200000D03*
X78200000Y-65400000D03*
X76900000Y-65400000D03*
X76900000Y-63200000D03*
X63000000Y-36600000D03*
X63000000Y-40000000D03*
X58550000Y-63200000D03*
X58550000Y-65400000D03*
X57250000Y-65400000D03*
X57250000Y-63200000D03*
X69350000Y-63200000D03*
X69350000Y-65400000D03*
X68050000Y-65400000D03*
X68050000Y-63200000D03*
X66150000Y-63200000D03*
X66150000Y-65400000D03*
X64850000Y-65400000D03*
X64850000Y-63200000D03*
X78950000Y-24500000D03*
X78950000Y-26700000D03*
X77650000Y-26700000D03*
X77650000Y-24500000D03*
X71350000Y-24500000D03*
X71350000Y-26700000D03*
X70050000Y-26700000D03*
X70050000Y-24500000D03*
X68400000Y-24500000D03*
X67100000Y-24500000D03*
X62100000Y-26700000D03*
X60800000Y-26700000D03*
X46250000Y-26700000D03*
X44950000Y-26700000D03*
X22200000Y-24500000D03*
X22200000Y-26700000D03*
X20900000Y-26700000D03*
X20900000Y-24500000D03*
X34900000Y-24500000D03*
X34900000Y-26700000D03*
X33600000Y-26700000D03*
X33600000Y-24500000D03*
X31000000Y-24500000D03*
X32300000Y-24500000D03*
X32300000Y-26700000D03*
X31000000Y-26700000D03*
X58050000Y-49000000D03*
X69595000Y-57755000D03*
X74975000Y-59925000D03*
X35987500Y-28500000D03*
X61931250Y-31081250D03*
X66450000Y-31300000D03*
X73250000Y-29750000D03*
X39250000Y-44500000D03*
X36900000Y-45900000D03*
X37000000Y-44300000D03*
X34900000Y-47700000D03*
X32000000Y-48400000D03*
X42200000Y-46500000D03*
X41900000Y-49700000D03*
X39400000Y-49700000D03*
X44500000Y-49700000D03*
X79212984Y-36353989D03*
X62900000Y-62600000D03*
X66345255Y-48986858D03*
X47400000Y-46499996D03*
X54000000Y-58900000D03*
X51200000Y-37700000D03*
X54437989Y-43588367D03*
X57862500Y-34662500D03*
X66268990Y-39944005D03*
X66268990Y-36600000D03*
X76600000Y-32800000D03*
X70140998Y-33309965D03*
X23200000Y-29100000D03*
X23450000Y-64650000D03*
X27600000Y-55650000D03*
X44750000Y-58000000D03*
X44750000Y-58900000D03*
X28250000Y-62050000D03*
X27300000Y-61500000D03*
X31450000Y-61900000D03*
X31550000Y-60350000D03*
X31550000Y-58700000D03*
X55170000Y-29595990D03*
X63600000Y-46650000D03*
X44282988Y-32302988D03*
X31550000Y-32800000D03*
X28775000Y-52375000D03*
X71125000Y-35375000D03*
X71150000Y-38200000D03*
X71100000Y-39600000D03*
X74550000Y-34350000D03*
X74095988Y-38000000D03*
X38850000Y-31249999D03*
X36240000Y-35580000D03*
X41610000Y-35630000D03*
X35260000Y-57530000D03*
X33460000Y-57550000D03*
X34490000Y-53900000D03*
X36230000Y-55800000D03*
X36310000Y-52070000D03*
X38670000Y-55850000D03*
X38430000Y-53830000D03*
X63213120Y-52336224D03*
X52700000Y-57600000D03*
X65900000Y-46200000D03*
X74150000Y-36600000D03*
X69746250Y-37246250D03*
X76900000Y-34250000D03*
X28325989Y-31363489D03*
X62350000Y-59000000D03*
X57454012Y-46343954D03*
X48107984Y-46054009D03*
X46700000Y-45200000D03*
X57200000Y-45100000D03*
X59350000Y-39650000D03*
X29900000Y-55949998D03*
X60700000Y-47800000D03*
X32350000Y-54200000D03*
X59717675Y-38708852D03*
X59300000Y-32100000D03*
X45600000Y-35350000D03*
X51400000Y-34700000D03*
X59400000Y-33000000D03*
X56600000Y-32400000D03*
X45587501Y-30787501D03*
X65225000Y-50225000D03*
X67350000Y-60050000D03*
X74068750Y-56931250D03*
X41600000Y-39850000D03*
X59200000Y-51950000D03*
X76780000Y-30990000D03*
X64997807Y-42293012D03*
X51239802Y-50293256D03*
X62950000Y-44350000D03*
X59000000Y-47100000D03*
X54200000Y-47100000D03*
X61700000Y-41750000D03*
X56300000Y-37500000D03*
X37470000Y-62240000D03*
X35100000Y-52720000D03*
X59106152Y-38267748D03*
X44600002Y-38300000D03*
X59300000Y-40600000D03*
X57000000Y-43800008D03*
X68800000Y-36600000D03*
X70200000Y-34400000D03*
X67550000Y-41300000D03*
X33273310Y-30921979D03*
X68750000Y-41600000D03*
X33350000Y-31850000D03*
X68700155Y-40847638D03*
X33350000Y-32700000D03*
X68400000Y-35700000D03*
X21700000Y-62100000D03*
X69225000Y-39625000D03*
X69949996Y-48275000D03*
X68400004Y-34900000D03*
X38100000Y-26400000D03*
X38100000Y-24100000D03*
X38100000Y-34100000D03*
X43499996Y-26500000D03*
X68331010Y-33948848D03*
X43500000Y-24099998D03*
X43650000Y-29640000D03*
X68100000Y-43100000D03*
X79000000Y-33850000D03*
X61850000Y-34700000D03*
X59600000Y-49700000D03*
X54950000Y-61750000D03*
X49045000Y-60220000D03*
X54250000Y-28200000D03*
X68375000Y-49775000D03*
X68360000Y-53360000D03*
X61000000Y-29150000D03*
X66568990Y-29200000D03*
D15*
X53799999Y-37200001D02*
X53500000Y-37500000D01*
X57368998Y-36731002D02*
X54268998Y-36731002D01*
X61000000Y-33100000D02*
X57368998Y-36731002D01*
X54268998Y-36731002D02*
X53799999Y-37200001D01*
X63800000Y-33100000D02*
X61000000Y-33100000D01*
X57464408Y-36200000D02*
X55924264Y-36200000D01*
X55924264Y-36200000D02*
X55500000Y-36200000D01*
X62208011Y-32791989D02*
X60872418Y-32791989D01*
X60872418Y-32791989D02*
X57464408Y-36200000D01*
X63400000Y-31600000D02*
X62208011Y-32791989D01*
X63200000Y-30350000D02*
X58070000Y-30350000D01*
X58070000Y-30350000D02*
X54000000Y-26280000D01*
X65200000Y-32350000D02*
X63200000Y-30350000D01*
X65200000Y-33100000D02*
X65200000Y-32350000D01*
X64868470Y-31267508D02*
X65168469Y-31567507D01*
X63400962Y-29800000D02*
X64868470Y-31267508D01*
X59520000Y-29800000D02*
X63400962Y-29800000D01*
X56000000Y-26280000D02*
X59520000Y-29800000D01*
D16*
X62245998Y-49854002D02*
X65600001Y-46499999D01*
X52700000Y-57600000D02*
X56807202Y-57600000D01*
X65600001Y-46499999D02*
X65900000Y-46200000D01*
X56807202Y-57600000D02*
X62245998Y-52161204D01*
X62245998Y-52161204D02*
X62245998Y-49854002D01*
X74150000Y-36600000D02*
X70300000Y-36600000D01*
X70300000Y-36600000D02*
X69746250Y-37153750D01*
D15*
X74400000Y-36600000D02*
X74150000Y-36600000D01*
X76900000Y-34250000D02*
X76750000Y-34250000D01*
X76750000Y-34250000D02*
X74400000Y-36600000D01*
D16*
X48111993Y-46050000D02*
X48107984Y-46054009D01*
X57454012Y-46343954D02*
X57160058Y-46050000D01*
X57160058Y-46050000D02*
X48111993Y-46050000D01*
X56900001Y-45399999D02*
X57200000Y-45100000D01*
X46899999Y-45399999D02*
X56900001Y-45399999D01*
X46700000Y-45200000D02*
X46899999Y-45399999D01*
D17*
X59350000Y-39650000D02*
X58650000Y-38950000D01*
X58650000Y-38950000D02*
X46475734Y-38950000D01*
X29900000Y-55525734D02*
X29900000Y-55949998D01*
X46475734Y-38950000D02*
X29900000Y-55525734D01*
D16*
X38750000Y-47800000D02*
X60700000Y-47800000D01*
X32350000Y-54200000D02*
X38750000Y-47800000D01*
X59717675Y-38708852D02*
X60700000Y-39691177D01*
X60700000Y-39691177D02*
X60700000Y-47800000D01*
D15*
X55899999Y-34100001D02*
X46849999Y-34100001D01*
X59300000Y-32100000D02*
X57900000Y-32100000D01*
X57900000Y-32100000D02*
X55899999Y-34100001D01*
X46849999Y-34100001D02*
X45899999Y-35050001D01*
X45899999Y-35050001D02*
X45600000Y-35350000D01*
X59400000Y-33000000D02*
X59300000Y-32900000D01*
X57800000Y-32900000D02*
X56000000Y-34700000D01*
X56000000Y-34700000D02*
X51400000Y-34700000D01*
X59300000Y-32900000D02*
X57800000Y-32900000D01*
X54937501Y-30787501D02*
X45587501Y-30787501D01*
X56600000Y-32400000D02*
X56550000Y-32400000D01*
X56550000Y-32400000D02*
X54937501Y-30787501D01*
D16*
X51539801Y-50593255D02*
X51239802Y-50293256D01*
X60706745Y-50593255D02*
X51539801Y-50593255D01*
X64997807Y-42293012D02*
X64997807Y-46302193D01*
X64997807Y-46302193D02*
X60706745Y-50593255D01*
X59000000Y-47100000D02*
X54200000Y-47100000D01*
X61700000Y-41750000D02*
X61700000Y-39400000D01*
X61700000Y-39400000D02*
X59800000Y-37500000D01*
X59800000Y-37500000D02*
X56300000Y-37500000D01*
D15*
X44632254Y-38267748D02*
X44600002Y-38300000D01*
X59106152Y-38267748D02*
X44632254Y-38267748D01*
D17*
X59300000Y-41500008D02*
X57299999Y-43500009D01*
X57299999Y-43500009D02*
X57000000Y-43800008D01*
X59300000Y-40600000D02*
X59300000Y-41500008D01*
D15*
X68800000Y-36600000D02*
X70200000Y-35200000D01*
X70200000Y-35200000D02*
X70200000Y-34400000D01*
X44000000Y-25700000D02*
X37800000Y-25700000D01*
X66800000Y-40550000D02*
X66800000Y-33350000D01*
X37800000Y-25700000D02*
X33273310Y-30226690D01*
X33273310Y-30226690D02*
X33273310Y-30497715D01*
X33273310Y-30497715D02*
X33273310Y-30921979D01*
X44600000Y-25100000D02*
X44000000Y-25700000D01*
X63750000Y-25100000D02*
X44600000Y-25100000D01*
X67700000Y-29050000D02*
X63750000Y-25100000D01*
X67699999Y-32450001D02*
X67700000Y-29050000D01*
X67550000Y-41300000D02*
X66800000Y-40550000D01*
X66800000Y-33350000D02*
X67699999Y-32450001D01*
X40308011Y-25391989D02*
X40008011Y-25391989D01*
X43872419Y-25391989D02*
X40308011Y-25391989D01*
X68008010Y-28922418D02*
X63877582Y-24791989D01*
X63877582Y-24791989D02*
X44472418Y-24791989D01*
X67108011Y-40008011D02*
X67108011Y-33477581D01*
X68700000Y-41600000D02*
X67108011Y-40008011D01*
X68008010Y-32577583D02*
X68008010Y-28922418D01*
X67108011Y-33477581D02*
X68008010Y-32577583D01*
X68750000Y-41600000D02*
X68700000Y-41600000D01*
X44472418Y-24791989D02*
X43872419Y-25391989D01*
X32658011Y-30341989D02*
X37608011Y-25391989D01*
X37608011Y-25391989D02*
X40308011Y-25391989D01*
X32658011Y-31158011D02*
X32658011Y-30341989D01*
X33350000Y-31850000D02*
X32658011Y-31158011D01*
X32350000Y-31900000D02*
X33150000Y-32700000D01*
X32350000Y-30150000D02*
X32350000Y-31900000D01*
X43744837Y-25083978D02*
X37416022Y-25083978D01*
X64005164Y-24483978D02*
X44344836Y-24483978D01*
X68316021Y-32705165D02*
X68316021Y-28794836D01*
X67450749Y-33570435D02*
X68316021Y-32705165D01*
X44344836Y-24483978D02*
X43744837Y-25083978D01*
X33150000Y-32700000D02*
X33350000Y-32700000D01*
X68316021Y-28794836D02*
X64005164Y-24483978D01*
X68700155Y-40847638D02*
X67450749Y-39598232D01*
X37416022Y-25083978D02*
X32350000Y-30150000D01*
X67450749Y-39598232D02*
X67450749Y-33570435D01*
X21400001Y-61800001D02*
X21700000Y-62100000D01*
X20700000Y-61100000D02*
X21400001Y-61800001D01*
X20700000Y-30300000D02*
X20700000Y-61100000D01*
X35800000Y-23750000D02*
X27250000Y-23750000D01*
X36800000Y-24750000D02*
X35800000Y-23750000D01*
X43643221Y-24750000D02*
X36800000Y-24750000D01*
X67800000Y-35100000D02*
X67800000Y-33656775D01*
X68633978Y-32822801D02*
X68633978Y-28655163D01*
X27250000Y-23750000D02*
X20700000Y-30300000D01*
X44217254Y-24175967D02*
X43643221Y-24750000D01*
X68400000Y-35700000D02*
X67800000Y-35100000D01*
X67800000Y-33656775D02*
X68633978Y-32822801D01*
X68633978Y-28655163D02*
X64154781Y-24175967D01*
X64154781Y-24175967D02*
X44217254Y-24175967D01*
X69649997Y-47975001D02*
X69949996Y-48275000D01*
X68900000Y-47225004D02*
X69649997Y-47975001D01*
X68900000Y-43200000D02*
X68900000Y-47225004D01*
X69850000Y-42250000D02*
X68900000Y-43200000D01*
X69225000Y-39625000D02*
X69850000Y-40250000D01*
X69850000Y-40250000D02*
X69850000Y-42250000D01*
X38750000Y-23450000D02*
X38399999Y-23800001D01*
X64300000Y-23450000D02*
X38750000Y-23450000D01*
X69250000Y-28400000D02*
X64300000Y-23450000D01*
X38399999Y-23800001D02*
X38100000Y-24100000D01*
X68400004Y-34900000D02*
X69250000Y-34050004D01*
X69250000Y-34050004D02*
X69250000Y-28400000D01*
X38100000Y-26400000D02*
X38100000Y-34100000D01*
X43500002Y-26500006D02*
X43499996Y-26500000D01*
X68941989Y-28527581D02*
X64172418Y-23758011D01*
X43799999Y-23799999D02*
X43500000Y-24099998D01*
X64172418Y-23758011D02*
X43841987Y-23758011D01*
X68331010Y-33948848D02*
X68941989Y-33337869D01*
X43841987Y-23758011D02*
X43799999Y-23799999D01*
X68941989Y-33337869D02*
X68941989Y-28527581D01*
X43539588Y-29699998D02*
X43614586Y-29625000D01*
X43500002Y-29699998D02*
X43539588Y-29699998D01*
X43500002Y-29699998D02*
X43500002Y-26500006D01*
X79000000Y-34150000D02*
X79000000Y-33850000D01*
X78000000Y-35150000D02*
X79000000Y-34150000D01*
X78000000Y-35550000D02*
X78000000Y-35150000D01*
X74550000Y-39000000D02*
X78000000Y-35550000D01*
X69300000Y-41900000D02*
X69300000Y-40500000D01*
X68100000Y-43100000D02*
X69300000Y-41900000D01*
X68600000Y-39800000D02*
X68600000Y-39400000D01*
X69300000Y-40500000D02*
X68600000Y-39800000D01*
X68600000Y-39400000D02*
X69000000Y-39000000D01*
X69000000Y-39000000D02*
X74550000Y-39000000D01*
X61850000Y-34700000D02*
X62300000Y-35150000D01*
X59899999Y-49400001D02*
X59600000Y-49700000D01*
X62300000Y-47000000D02*
X59899999Y-49400001D01*
X62300000Y-35150000D02*
X62300000Y-47000000D01*
D17*
X55000000Y-61800000D02*
X54950000Y-61750000D01*
X54950000Y-61750000D02*
X54200000Y-61000000D01*
X54200000Y-61000000D02*
X50000000Y-61000000D01*
X50000000Y-61000000D02*
X49220000Y-60220000D01*
X49220000Y-60220000D02*
X49045000Y-60220000D01*
D15*
X23750000Y-51081000D02*
X23750000Y-51910000D01*
X21350000Y-48681000D02*
X23750000Y-51081000D01*
X46750000Y-28200000D02*
X40250000Y-34700000D01*
X21350000Y-41850000D02*
X21350000Y-48681000D01*
X54250000Y-28200000D02*
X46750000Y-28200000D01*
X40250000Y-34700000D02*
X35300000Y-34700000D01*
X24150000Y-39050000D02*
X21350000Y-41850000D01*
X35300000Y-34700000D02*
X30950000Y-39050000D01*
X30950000Y-39050000D02*
X24150000Y-39050000D01*
X68375000Y-53345000D02*
X68360000Y-53360000D01*
X68375000Y-49775000D02*
X68375000Y-53345000D01*
D17*
X61050000Y-29200000D02*
X66568990Y-29200000D01*
M02*
