M48
; DRILL file {KiCad 5.1.4+dfsg1-1} date Di 10 Dez 2019 16:08:15 CET
; FORMAT={-:-/ absolute / inch / decimal}
; #@! TF.CreationDate,2019-12-10T16:08:15+01:00
; #@! TF.GenerationSoftware,Kicad,Pcbnew,5.1.4+dfsg1-1
; #@! TF.FileFunction,Plated,1,4,PTH
FMAT,2
INCH
T1C0.0118
T2C0.0315
%
G90
G05
T1
X0.8307Y-2.3898
X0.8425Y-2.5768
X0.8681Y-0.9626
X0.8681Y-1.0492
X0.9193Y-0.9626
X0.9193Y-1.0492
X1.1063Y-1.2303
X1.1181Y-0.9626
X1.1181Y-1.0492
X1.1657Y-2.4469
X1.1693Y-0.9626
X1.1693Y-1.0492
X1.1988Y-2.4854
X1.2043Y-2.4327
X1.2067Y-1.2244
X1.2361Y-1.132
X1.2429Y-2.4157
X1.2508Y-2.4693
X1.2753Y-1.2601
X1.2783Y-0.9626
X1.2783Y-1.0492
X1.2874Y-2.5846
X1.289Y-2.4933
X1.2898Y-2.5307
X1.3295Y-0.9626
X1.3295Y-1.0492
X1.3417Y-1.6933
X1.3417Y-1.7181
X1.3417Y-1.7425
X1.3417Y-2.472
X1.3563Y-2.0138
X1.3563Y-2.0531
X1.3563Y-2.0925
X1.3563Y-2.1319
X1.3563Y-2.1713
X1.3689Y-1.1437
X1.3957Y-2.0138
X1.3957Y-2.0531
X1.3957Y-2.0925
X1.3957Y-2.1319
X1.3957Y-2.1713
X1.399Y-1.2865
X1.435Y-2.0138
X1.435Y-2.0531
X1.435Y-2.0925
X1.435Y-2.1319
X1.435Y-2.1713
X1.4502Y-1.7852
X1.4744Y-2.0138
X1.4744Y-2.0531
X1.4744Y-2.0925
X1.4744Y-2.1319
X1.4744Y-2.1713
X1.4872Y-2.2677
X1.4965Y-1.3038
X1.5138Y-2.0531
X1.5138Y-2.0925
X1.5138Y-2.1319
X1.5138Y-2.1713
X1.5303Y-1.7862
X1.5437Y-1.722
X1.5594Y-2.2437
X1.5697Y-1.6807
X1.5717Y-1.7398
X1.5799Y-1.3106
X1.6051Y-1.3028
X1.6378Y-1.1142
X1.6378Y-1.622
X1.6614Y-2.1457
X1.6614Y-2.1732
X1.6614Y-2.2008
X1.6614Y-2.2283
X1.6614Y-2.2559
X1.6614Y-2.2835
X1.6614Y-2.311
X1.676Y-0.9626
X1.676Y-1.0492
X1.6768Y-1.2673
X1.7154Y-2.3701
X1.7224Y-1.7185
X1.7224Y-1.75
X1.7224Y-1.7815
X1.7256Y-1.6689
X1.7272Y-0.9626
X1.7272Y-1.0492
X1.7417Y-1.4681
X1.7417Y-1.5016
X1.7421Y-1.1476
X1.7425Y-1.2098
X1.7441Y-1.3406
X1.748Y-2.3406
X1.7594Y-2.0402
X1.7622Y-2.3654
X1.7677Y-2.2008
X1.7795Y-2.3366
X1.7819Y-1.2236
X1.7874Y-1.2736
X1.8031Y-2.248
X1.8327Y-2.3854
X1.8346Y-1.6201
X1.8508Y-2.4055
X1.9134Y-2.0197
X1.9705Y-1.7146
X2.0216Y-2.3759
X2.0335Y-2.3043
X2.0362Y-2.4598
X2.0394Y-2.3937
X2.0437Y-2.5453
X2.0531Y-1.5236
X2.0591Y-2.4134
X2.0642Y-2.3055
X2.0772Y-2.5146
X2.0827Y-1.0
X2.1039Y-2.4843
X2.128Y-1.3642
X2.128Y-1.7185
X2.1335Y-2.2831
X2.1339Y-1.4134
X2.1378Y-1.315
X2.1575Y-1.8465
X2.1614Y-1.3386
X2.1811Y-1.3583
X2.185Y-1.8465
X2.2126Y-1.8465
X2.2303Y-2.4882
X2.2303Y-2.5748
X2.2362Y-1.9429
X2.2549Y-1.397
X2.2549Y-1.447
X2.2657Y-1.2461
X2.2717Y-1.6634
X2.2736Y-1.1969
X2.2815Y-2.4882
X2.2815Y-2.5748
X2.2843Y-1.1189
X2.2913Y-1.248
X2.2976Y-2.4169
X2.3209Y-1.6654
X2.3287Y-2.063
X2.3333Y-2.0239
X2.3406Y-2.1201
X2.3437Y-2.5134
X2.3622Y-1.8504
X2.3622Y-1.878
X2.3622Y-1.9055
X2.3622Y-1.9331
X2.365Y-0.9945
X2.3699Y-2.1159
X2.3957Y-1.5098
X2.3983Y-2.5066
X2.4035Y-1.6457
X2.4041Y-1.5458
X2.4055Y-1.6063
X2.4055Y-1.6772
X2.4079Y-0.9949
X2.4094Y-2.4646
X2.4181Y-1.3817
X2.4547Y-2.4823
X2.4587Y-2.3228
X2.4791Y-1.3435
X2.4815Y-1.4323
X2.4859Y-1.2326
X2.4882Y-0.9882
X2.4883Y-1.7047
X2.4961Y-1.1929
X2.5079Y-1.4646
X2.5236Y-1.9705
X2.5244Y-2.4724
X2.5354Y-1.1535
X2.5374Y-2.0889
X2.5472Y-1.0748
X2.5551Y-2.4154
X2.566Y-1.6644
X2.5673Y-1.0646
X2.5709Y-1.1339
X2.5709Y-1.0984
X2.5807Y-2.4882
X2.5807Y-2.5748
X2.5866Y-1.2559
X2.5866Y-1.3917
X2.5948Y-1.1519
X2.6024Y-1.4902
X2.6245Y-1.152
X2.6319Y-2.4882
X2.6319Y-2.5748
X2.6323Y-2.0571
X2.6354Y-2.0067
X2.6362Y-2.2921
X2.639Y-1.011
X2.6398Y-2.1004
X2.6404Y-1.9761
X2.642Y-1.1095
X2.6536Y-1.1463
X2.6554Y-1.9487
X2.6571Y-2.3819
X2.6614Y-1.7067
X2.6614Y-1.7323
X2.6681Y-1.4961
X2.6791Y-2.4882
X2.6791Y-2.5748
X2.6929Y-1.0299
X2.6988Y-1.9665
X2.7079Y-2.2665
X2.7083Y-2.2083
X2.7126Y-1.1205
X2.7244Y-1.2559
X2.7244Y-1.3917
X2.7303Y-2.4882
X2.7303Y-2.5748
X2.74Y-2.2738
X2.7441Y-1.9783
X2.7453Y-2.3799
X2.749Y-1.1163
X2.7598Y-0.9587
X2.7795Y-1.126
X2.7874Y-1.4567
X2.8031Y-1.1591
X2.811Y-0.9587
X2.811Y-1.0453
X2.8132Y-2.0337
X2.8198Y-1.2539
X2.8228Y-1.4331
X2.8228Y-1.5906
X2.8248Y-1.378
X2.825Y-1.1793
X2.8268Y-1.3467
X2.8425Y-2.1457
X2.8442Y-1.4859
X2.8738Y-1.252
X2.8752Y-2.1043
X2.9075Y-1.2539
X2.9306Y-1.3528
X2.9311Y-2.0546
X2.9518Y-2.3593
X2.963Y-1.4713
X2.965Y-1.2598
X2.9724Y-1.3461
X2.9727Y-1.3164
X2.9769Y-1.287
X3.0039Y-1.5354
X3.0276Y-2.4882
X3.0276Y-2.5748
X3.0591Y-0.9587
X3.0591Y-1.0453
X3.0591Y-1.2756
X3.0787Y-2.4882
X3.0787Y-2.5748
X3.0795Y-1.6602
X3.097Y-1.3502
X3.1102Y-0.9587
X3.1102Y-1.0453
T2
X1.0661Y-2.3409
X1.2157Y-2.3409
X1.8898Y-1.0346
X1.9685Y-1.0346
X2.0472Y-1.0346
X2.126Y-1.0346
X2.2047Y-1.0346
X2.2835Y-1.0346
X1.8898Y-1.5827
X1.9685Y-1.5827
X2.0472Y-1.5827
X2.126Y-1.5827
X2.2047Y-1.5827
X2.2835Y-1.5827
X1.8898Y-2.1425
X1.9685Y-2.1425
X2.0472Y-2.1425
X2.126Y-2.1425
X2.2047Y-2.1425
X2.2835Y-2.1425
X3.0315Y-2.0437
X3.0315Y-2.1224
X3.0315Y-2.2012
X0.935Y-2.0437
X0.935Y-2.1224
X0.935Y-2.2012
T0
M30
