G04 #@! TF.GenerationSoftware,KiCad,Pcbnew,5.1.2*
G04 #@! TF.CreationDate,2019-05-22T13:07:44+02:00*
G04 #@! TF.ProjectId,PAC5523,50414335-3532-4332-9e6b-696361645f70,rev?*
G04 #@! TF.SameCoordinates,Original*
G04 #@! TF.FileFunction,Legend,Top*
G04 #@! TF.FilePolarity,Positive*
%FSLAX46Y46*%
G04 Gerber Fmt 4.6, Leading zero omitted, Abs format (unit mm)*
G04 Created by KiCad (PCBNEW 5.1.2) date 2019-05-22 13:07:44*
%MOMM*%
%LPD*%
G04 APERTURE LIST*
%ADD10C,0.100000*%
%ADD11C,0.150000*%
%ADD12C,0.200000*%
%ADD13C,0.050000*%
%ADD14C,0.010000*%
%ADD15C,0.120000*%
%ADD16C,0.127000*%
G04 APERTURE END LIST*
D10*
X63436904Y-60126190D02*
X63746428Y-60126190D01*
X63579761Y-60316666D01*
X63651190Y-60316666D01*
X63698809Y-60340476D01*
X63722619Y-60364285D01*
X63746428Y-60411904D01*
X63746428Y-60530952D01*
X63722619Y-60578571D01*
X63698809Y-60602380D01*
X63651190Y-60626190D01*
X63508333Y-60626190D01*
X63460714Y-60602380D01*
X63436904Y-60578571D01*
X63960714Y-60578571D02*
X63984523Y-60602380D01*
X63960714Y-60626190D01*
X63936904Y-60602380D01*
X63960714Y-60578571D01*
X63960714Y-60626190D01*
X64151190Y-60126190D02*
X64460714Y-60126190D01*
X64294047Y-60316666D01*
X64365476Y-60316666D01*
X64413095Y-60340476D01*
X64436904Y-60364285D01*
X64460714Y-60411904D01*
X64460714Y-60530952D01*
X64436904Y-60578571D01*
X64413095Y-60602380D01*
X64365476Y-60626190D01*
X64222619Y-60626190D01*
X64175000Y-60602380D01*
X64151190Y-60578571D01*
X64603571Y-60126190D02*
X64770238Y-60626190D01*
X64936904Y-60126190D01*
X65479761Y-60126190D02*
X65241666Y-60126190D01*
X65217857Y-60364285D01*
X65241666Y-60340476D01*
X65289285Y-60316666D01*
X65408333Y-60316666D01*
X65455952Y-60340476D01*
X65479761Y-60364285D01*
X65503571Y-60411904D01*
X65503571Y-60530952D01*
X65479761Y-60578571D01*
X65455952Y-60602380D01*
X65408333Y-60626190D01*
X65289285Y-60626190D01*
X65241666Y-60602380D01*
X65217857Y-60578571D01*
X65646428Y-60126190D02*
X65813095Y-60626190D01*
X65979761Y-60126190D01*
D11*
X30650284Y-45000000D02*
G75*
G03X30650284Y-45000000I-4400284J0D01*
G01*
X78104595Y-45000000D02*
G75*
G03X78104595Y-45000000I-4354595J0D01*
G01*
X23697619Y-38586904D02*
X23697619Y-37786904D01*
X23888095Y-37786904D01*
X24002380Y-37825000D01*
X24078571Y-37901190D01*
X24116666Y-37977380D01*
X24154761Y-38129761D01*
X24154761Y-38244047D01*
X24116666Y-38396428D01*
X24078571Y-38472619D01*
X24002380Y-38548809D01*
X23888095Y-38586904D01*
X23697619Y-38586904D01*
X24802380Y-38548809D02*
X24726190Y-38586904D01*
X24573809Y-38586904D01*
X24497619Y-38548809D01*
X24459523Y-38472619D01*
X24459523Y-38167857D01*
X24497619Y-38091666D01*
X24573809Y-38053571D01*
X24726190Y-38053571D01*
X24802380Y-38091666D01*
X24840476Y-38167857D01*
X24840476Y-38244047D01*
X24459523Y-38320238D01*
X25145238Y-38548809D02*
X25221428Y-38586904D01*
X25373809Y-38586904D01*
X25450000Y-38548809D01*
X25488095Y-38472619D01*
X25488095Y-38434523D01*
X25450000Y-38358333D01*
X25373809Y-38320238D01*
X25259523Y-38320238D01*
X25183333Y-38282142D01*
X25145238Y-38205952D01*
X25145238Y-38167857D01*
X25183333Y-38091666D01*
X25259523Y-38053571D01*
X25373809Y-38053571D01*
X25450000Y-38091666D01*
X25830952Y-38586904D02*
X25830952Y-38053571D01*
X25830952Y-37786904D02*
X25792857Y-37825000D01*
X25830952Y-37863095D01*
X25869047Y-37825000D01*
X25830952Y-37786904D01*
X25830952Y-37863095D01*
X26554761Y-38053571D02*
X26554761Y-38701190D01*
X26516666Y-38777380D01*
X26478571Y-38815476D01*
X26402380Y-38853571D01*
X26288095Y-38853571D01*
X26211904Y-38815476D01*
X26554761Y-38548809D02*
X26478571Y-38586904D01*
X26326190Y-38586904D01*
X26250000Y-38548809D01*
X26211904Y-38510714D01*
X26173809Y-38434523D01*
X26173809Y-38205952D01*
X26211904Y-38129761D01*
X26250000Y-38091666D01*
X26326190Y-38053571D01*
X26478571Y-38053571D01*
X26554761Y-38091666D01*
X26935714Y-38053571D02*
X26935714Y-38586904D01*
X26935714Y-38129761D02*
X26973809Y-38091666D01*
X27050000Y-38053571D01*
X27164285Y-38053571D01*
X27240476Y-38091666D01*
X27278571Y-38167857D01*
X27278571Y-38586904D01*
X28269047Y-38586904D02*
X28269047Y-37786904D01*
X28269047Y-38091666D02*
X28345238Y-38053571D01*
X28497619Y-38053571D01*
X28573809Y-38091666D01*
X28611904Y-38129761D01*
X28650000Y-38205952D01*
X28650000Y-38434523D01*
X28611904Y-38510714D01*
X28573809Y-38548809D01*
X28497619Y-38586904D01*
X28345238Y-38586904D01*
X28269047Y-38548809D01*
X28916666Y-38053571D02*
X29107142Y-38586904D01*
X29297619Y-38053571D02*
X29107142Y-38586904D01*
X29030952Y-38777380D01*
X28992857Y-38815476D01*
X28916666Y-38853571D01*
X29602380Y-38510714D02*
X29640476Y-38548809D01*
X29602380Y-38586904D01*
X29564285Y-38548809D01*
X29602380Y-38510714D01*
X29602380Y-38586904D01*
X29602380Y-38091666D02*
X29640476Y-38129761D01*
X29602380Y-38167857D01*
X29564285Y-38129761D01*
X29602380Y-38091666D01*
X29602380Y-38167857D01*
X21011904Y-39136904D02*
X21011904Y-39708333D01*
X20973809Y-39822619D01*
X20897619Y-39898809D01*
X20783333Y-39936904D01*
X20707142Y-39936904D01*
X21735714Y-39936904D02*
X21735714Y-39517857D01*
X21697619Y-39441666D01*
X21621428Y-39403571D01*
X21469047Y-39403571D01*
X21392857Y-39441666D01*
X21735714Y-39898809D02*
X21659523Y-39936904D01*
X21469047Y-39936904D01*
X21392857Y-39898809D01*
X21354761Y-39822619D01*
X21354761Y-39746428D01*
X21392857Y-39670238D01*
X21469047Y-39632142D01*
X21659523Y-39632142D01*
X21735714Y-39594047D01*
X22116666Y-39403571D02*
X22116666Y-39936904D01*
X22116666Y-39479761D02*
X22154761Y-39441666D01*
X22230952Y-39403571D01*
X22345238Y-39403571D01*
X22421428Y-39441666D01*
X22459523Y-39517857D01*
X22459523Y-39936904D01*
X23450000Y-39936904D02*
X23450000Y-39136904D01*
X23450000Y-39517857D02*
X23907142Y-39517857D01*
X23907142Y-39936904D02*
X23907142Y-39136904D01*
X24592857Y-39898809D02*
X24516666Y-39936904D01*
X24364285Y-39936904D01*
X24288095Y-39898809D01*
X24250000Y-39822619D01*
X24250000Y-39517857D01*
X24288095Y-39441666D01*
X24364285Y-39403571D01*
X24516666Y-39403571D01*
X24592857Y-39441666D01*
X24630952Y-39517857D01*
X24630952Y-39594047D01*
X24250000Y-39670238D01*
X24973809Y-39403571D02*
X24973809Y-39936904D01*
X24973809Y-39479761D02*
X25011904Y-39441666D01*
X25088095Y-39403571D01*
X25202380Y-39403571D01*
X25278571Y-39441666D01*
X25316666Y-39517857D01*
X25316666Y-39936904D01*
X25697619Y-39936904D02*
X25697619Y-39403571D01*
X25697619Y-39555952D02*
X25735714Y-39479761D01*
X25773809Y-39441666D01*
X25849999Y-39403571D01*
X25926190Y-39403571D01*
X26192857Y-39936904D02*
X26192857Y-39403571D01*
X26192857Y-39136904D02*
X26154761Y-39175000D01*
X26192857Y-39213095D01*
X26230952Y-39175000D01*
X26192857Y-39136904D01*
X26192857Y-39213095D01*
X26573809Y-39936904D02*
X26573809Y-39136904D01*
X26649999Y-39632142D02*
X26878571Y-39936904D01*
X26878571Y-39403571D02*
X26573809Y-39708333D01*
X27830952Y-39936904D02*
X27830952Y-39136904D01*
X27830952Y-39517857D02*
X28288095Y-39517857D01*
X28288095Y-39936904D02*
X28288095Y-39136904D01*
X28973809Y-39898809D02*
X28897619Y-39936904D01*
X28745238Y-39936904D01*
X28669047Y-39898809D01*
X28630952Y-39822619D01*
X28630952Y-39517857D01*
X28669047Y-39441666D01*
X28745238Y-39403571D01*
X28897619Y-39403571D01*
X28973809Y-39441666D01*
X29011904Y-39517857D01*
X29011904Y-39594047D01*
X28630952Y-39670238D01*
X29354761Y-39936904D02*
X29354761Y-39403571D01*
X29354761Y-39479761D02*
X29392857Y-39441666D01*
X29469047Y-39403571D01*
X29583333Y-39403571D01*
X29659523Y-39441666D01*
X29697619Y-39517857D01*
X29697619Y-39936904D01*
X29697619Y-39517857D02*
X29735714Y-39441666D01*
X29811904Y-39403571D01*
X29926190Y-39403571D01*
X30002380Y-39441666D01*
X30040476Y-39517857D01*
X30040476Y-39936904D01*
X30383333Y-39898809D02*
X30459523Y-39936904D01*
X30611904Y-39936904D01*
X30688095Y-39898809D01*
X30726190Y-39822619D01*
X30726190Y-39784523D01*
X30688095Y-39708333D01*
X30611904Y-39670238D01*
X30497619Y-39670238D01*
X30421428Y-39632142D01*
X30383333Y-39555952D01*
X30383333Y-39517857D01*
X30421428Y-39441666D01*
X30497619Y-39403571D01*
X30611904Y-39403571D01*
X30688095Y-39441666D01*
X31069047Y-39936904D02*
X31069047Y-39403571D01*
X31069047Y-39136904D02*
X31030952Y-39175000D01*
X31069047Y-39213095D01*
X31107142Y-39175000D01*
X31069047Y-39136904D01*
X31069047Y-39213095D01*
X31449999Y-39403571D02*
X31449999Y-39936904D01*
X31449999Y-39479761D02*
X31488095Y-39441666D01*
X31564285Y-39403571D01*
X31678571Y-39403571D01*
X31754761Y-39441666D01*
X31792857Y-39517857D01*
X31792857Y-39936904D01*
X32516666Y-39403571D02*
X32516666Y-40051190D01*
X32478571Y-40127380D01*
X32440476Y-40165476D01*
X32364285Y-40203571D01*
X32249999Y-40203571D01*
X32173809Y-40165476D01*
X32516666Y-39898809D02*
X32440476Y-39936904D01*
X32288095Y-39936904D01*
X32211904Y-39898809D01*
X32173809Y-39860714D01*
X32135714Y-39784523D01*
X32135714Y-39555952D01*
X32173809Y-39479761D01*
X32211904Y-39441666D01*
X32288095Y-39403571D01*
X32440476Y-39403571D01*
X32516666Y-39441666D01*
D10*
X23400000Y-36051190D02*
X23400000Y-36455952D01*
X23423809Y-36503571D01*
X23447619Y-36527380D01*
X23495238Y-36551190D01*
X23590476Y-36551190D01*
X23638095Y-36527380D01*
X23661904Y-36503571D01*
X23685714Y-36455952D01*
X23685714Y-36051190D01*
X23900000Y-36408333D02*
X24138095Y-36408333D01*
X23852380Y-36551190D02*
X24019047Y-36051190D01*
X24185714Y-36551190D01*
X24638095Y-36551190D02*
X24471428Y-36313095D01*
X24352380Y-36551190D02*
X24352380Y-36051190D01*
X24542857Y-36051190D01*
X24590476Y-36075000D01*
X24614285Y-36098809D01*
X24638095Y-36146428D01*
X24638095Y-36217857D01*
X24614285Y-36265476D01*
X24590476Y-36289285D01*
X24542857Y-36313095D01*
X24352380Y-36313095D01*
X24780952Y-36051190D02*
X25066666Y-36051190D01*
X24923809Y-36551190D02*
X24923809Y-36051190D01*
X25590476Y-36027380D02*
X25161904Y-36670238D01*
X26042857Y-36503571D02*
X26019047Y-36527380D01*
X25947619Y-36551190D01*
X25900000Y-36551190D01*
X25828571Y-36527380D01*
X25780952Y-36479761D01*
X25757142Y-36432142D01*
X25733333Y-36336904D01*
X25733333Y-36265476D01*
X25757142Y-36170238D01*
X25780952Y-36122619D01*
X25828571Y-36075000D01*
X25900000Y-36051190D01*
X25947619Y-36051190D01*
X26019047Y-36075000D01*
X26042857Y-36098809D01*
X26233333Y-36408333D02*
X26471428Y-36408333D01*
X26185714Y-36551190D02*
X26352380Y-36051190D01*
X26519047Y-36551190D01*
X26685714Y-36551190D02*
X26685714Y-36051190D01*
X26971428Y-36551190D01*
X26971428Y-36051190D01*
X27566666Y-36027380D02*
X27138095Y-36670238D01*
X28019047Y-36551190D02*
X27852380Y-36313095D01*
X27733333Y-36551190D02*
X27733333Y-36051190D01*
X27923809Y-36051190D01*
X27971428Y-36075000D01*
X27995238Y-36098809D01*
X28019047Y-36146428D01*
X28019047Y-36217857D01*
X27995238Y-36265476D01*
X27971428Y-36289285D01*
X27923809Y-36313095D01*
X27733333Y-36313095D01*
X28209523Y-36527380D02*
X28280952Y-36551190D01*
X28400000Y-36551190D01*
X28447619Y-36527380D01*
X28471428Y-36503571D01*
X28495238Y-36455952D01*
X28495238Y-36408333D01*
X28471428Y-36360714D01*
X28447619Y-36336904D01*
X28400000Y-36313095D01*
X28304761Y-36289285D01*
X28257142Y-36265476D01*
X28233333Y-36241666D01*
X28209523Y-36194047D01*
X28209523Y-36146428D01*
X28233333Y-36098809D01*
X28257142Y-36075000D01*
X28304761Y-36051190D01*
X28423809Y-36051190D01*
X28495238Y-36075000D01*
X28923809Y-36217857D02*
X28923809Y-36551190D01*
X28804761Y-36027380D02*
X28685714Y-36384523D01*
X28995238Y-36384523D01*
X29257142Y-36265476D02*
X29209523Y-36241666D01*
X29185714Y-36217857D01*
X29161904Y-36170238D01*
X29161904Y-36146428D01*
X29185714Y-36098809D01*
X29209523Y-36075000D01*
X29257142Y-36051190D01*
X29352380Y-36051190D01*
X29400000Y-36075000D01*
X29423809Y-36098809D01*
X29447619Y-36146428D01*
X29447619Y-36170238D01*
X29423809Y-36217857D01*
X29400000Y-36241666D01*
X29352380Y-36265476D01*
X29257142Y-36265476D01*
X29209523Y-36289285D01*
X29185714Y-36313095D01*
X29161904Y-36360714D01*
X29161904Y-36455952D01*
X29185714Y-36503571D01*
X29209523Y-36527380D01*
X29257142Y-36551190D01*
X29352380Y-36551190D01*
X29400000Y-36527380D01*
X29423809Y-36503571D01*
X29447619Y-36455952D01*
X29447619Y-36360714D01*
X29423809Y-36313095D01*
X29400000Y-36289285D01*
X29352380Y-36265476D01*
X29900000Y-36051190D02*
X29661904Y-36051190D01*
X29638095Y-36289285D01*
X29661904Y-36265476D01*
X29709523Y-36241666D01*
X29828571Y-36241666D01*
X29876190Y-36265476D01*
X29900000Y-36289285D01*
X29923809Y-36336904D01*
X29923809Y-36455952D01*
X29900000Y-36503571D01*
X29876190Y-36527380D01*
X29828571Y-36551190D01*
X29709523Y-36551190D01*
X29661904Y-36527380D01*
X29638095Y-36503571D01*
X23352380Y-37258333D02*
X23590476Y-37258333D01*
X23304761Y-37401190D02*
X23471428Y-36901190D01*
X23638095Y-37401190D01*
X23804761Y-37401190D02*
X23804761Y-36901190D01*
X24090476Y-37401190D01*
X24090476Y-36901190D01*
X24304761Y-37258333D02*
X24542857Y-37258333D01*
X24257142Y-37401190D02*
X24423809Y-36901190D01*
X24590476Y-37401190D01*
X24995238Y-37401190D02*
X24757142Y-37401190D01*
X24757142Y-36901190D01*
X25257142Y-36901190D02*
X25352380Y-36901190D01*
X25400000Y-36925000D01*
X25447619Y-36972619D01*
X25471428Y-37067857D01*
X25471428Y-37234523D01*
X25447619Y-37329761D01*
X25400000Y-37377380D01*
X25352380Y-37401190D01*
X25257142Y-37401190D01*
X25209523Y-37377380D01*
X25161904Y-37329761D01*
X25138095Y-37234523D01*
X25138095Y-37067857D01*
X25161904Y-36972619D01*
X25209523Y-36925000D01*
X25257142Y-36901190D01*
X25947619Y-36925000D02*
X25900000Y-36901190D01*
X25828571Y-36901190D01*
X25757142Y-36925000D01*
X25709523Y-36972619D01*
X25685714Y-37020238D01*
X25661904Y-37115476D01*
X25661904Y-37186904D01*
X25685714Y-37282142D01*
X25709523Y-37329761D01*
X25757142Y-37377380D01*
X25828571Y-37401190D01*
X25876190Y-37401190D01*
X25947619Y-37377380D01*
X25971428Y-37353571D01*
X25971428Y-37186904D01*
X25876190Y-37186904D01*
X26542857Y-36877380D02*
X26114285Y-37520238D01*
X26709523Y-37139285D02*
X26876190Y-37139285D01*
X26947619Y-37401190D02*
X26709523Y-37401190D01*
X26709523Y-36901190D01*
X26947619Y-36901190D01*
X27161904Y-37401190D02*
X27161904Y-36901190D01*
X27447619Y-37401190D01*
X27447619Y-36901190D01*
X27971428Y-37353571D02*
X27947619Y-37377380D01*
X27876190Y-37401190D01*
X27828571Y-37401190D01*
X27757142Y-37377380D01*
X27709523Y-37329761D01*
X27685714Y-37282142D01*
X27661904Y-37186904D01*
X27661904Y-37115476D01*
X27685714Y-37020238D01*
X27709523Y-36972619D01*
X27757142Y-36925000D01*
X27828571Y-36901190D01*
X27876190Y-36901190D01*
X27947619Y-36925000D01*
X27971428Y-36948809D01*
X28280952Y-36901190D02*
X28376190Y-36901190D01*
X28423809Y-36925000D01*
X28471428Y-36972619D01*
X28495238Y-37067857D01*
X28495238Y-37234523D01*
X28471428Y-37329761D01*
X28423809Y-37377380D01*
X28376190Y-37401190D01*
X28280952Y-37401190D01*
X28233333Y-37377380D01*
X28185714Y-37329761D01*
X28161904Y-37234523D01*
X28161904Y-37067857D01*
X28185714Y-36972619D01*
X28233333Y-36925000D01*
X28280952Y-36901190D01*
X28709523Y-37401190D02*
X28709523Y-36901190D01*
X28828571Y-36901190D01*
X28900000Y-36925000D01*
X28947619Y-36972619D01*
X28971428Y-37020238D01*
X28995238Y-37115476D01*
X28995238Y-37186904D01*
X28971428Y-37282142D01*
X28947619Y-37329761D01*
X28900000Y-37377380D01*
X28828571Y-37401190D01*
X28709523Y-37401190D01*
X29209523Y-37139285D02*
X29376190Y-37139285D01*
X29447619Y-37401190D02*
X29209523Y-37401190D01*
X29209523Y-36901190D01*
X29447619Y-36901190D01*
X29947619Y-37401190D02*
X29780952Y-37163095D01*
X29661904Y-37401190D02*
X29661904Y-36901190D01*
X29852380Y-36901190D01*
X29900000Y-36925000D01*
X29923809Y-36948809D01*
X29947619Y-36996428D01*
X29947619Y-37067857D01*
X29923809Y-37115476D01*
X29900000Y-37139285D01*
X29852380Y-37163095D01*
X29661904Y-37163095D01*
D12*
X25235714Y-35621428D02*
X25192857Y-35664285D01*
X25064285Y-35707142D01*
X24978571Y-35707142D01*
X24850000Y-35664285D01*
X24764285Y-35578571D01*
X24721428Y-35492857D01*
X24678571Y-35321428D01*
X24678571Y-35192857D01*
X24721428Y-35021428D01*
X24764285Y-34935714D01*
X24850000Y-34850000D01*
X24978571Y-34807142D01*
X25064285Y-34807142D01*
X25192857Y-34850000D01*
X25235714Y-34892857D01*
X25621428Y-35707142D02*
X25621428Y-34807142D01*
X25964285Y-34807142D01*
X26050000Y-34850000D01*
X26092857Y-34892857D01*
X26135714Y-34978571D01*
X26135714Y-35107142D01*
X26092857Y-35192857D01*
X26050000Y-35235714D01*
X25964285Y-35278571D01*
X25621428Y-35278571D01*
X26521428Y-34807142D02*
X26521428Y-35535714D01*
X26564285Y-35621428D01*
X26607142Y-35664285D01*
X26692857Y-35707142D01*
X26864285Y-35707142D01*
X26950000Y-35664285D01*
X26992857Y-35621428D01*
X27035714Y-35535714D01*
X27035714Y-34807142D01*
X28621428Y-35707142D02*
X28107142Y-35707142D01*
X28364285Y-35707142D02*
X28364285Y-34807142D01*
X28278571Y-34935714D01*
X28192857Y-35021428D01*
X28107142Y-35064285D01*
X20971428Y-33247619D02*
X21180952Y-33247619D01*
X21285714Y-33300000D01*
X21390476Y-33404761D01*
X21442857Y-33614285D01*
X21442857Y-33980952D01*
X21390476Y-34190476D01*
X21285714Y-34295238D01*
X21180952Y-34347619D01*
X20971428Y-34347619D01*
X20866666Y-34295238D01*
X20761904Y-34190476D01*
X20709523Y-33980952D01*
X20709523Y-33614285D01*
X20761904Y-33404761D01*
X20866666Y-33300000D01*
X20971428Y-33247619D01*
X21757142Y-33614285D02*
X22176190Y-33614285D01*
X21914285Y-33247619D02*
X21914285Y-34190476D01*
X21966666Y-34295238D01*
X22071428Y-34347619D01*
X22176190Y-34347619D01*
X22385714Y-33614285D02*
X22804761Y-33614285D01*
X22542857Y-33247619D02*
X22542857Y-34190476D01*
X22595238Y-34295238D01*
X22700000Y-34347619D01*
X22804761Y-34347619D01*
X23590476Y-34295238D02*
X23485714Y-34347619D01*
X23276190Y-34347619D01*
X23171428Y-34295238D01*
X23119047Y-34190476D01*
X23119047Y-33771428D01*
X23171428Y-33666666D01*
X23276190Y-33614285D01*
X23485714Y-33614285D01*
X23590476Y-33666666D01*
X23642857Y-33771428D01*
X23642857Y-33876190D01*
X23119047Y-33980952D01*
X24114285Y-34347619D02*
X24114285Y-33614285D01*
X24114285Y-33823809D02*
X24166666Y-33719047D01*
X24219047Y-33666666D01*
X24323809Y-33614285D01*
X24428571Y-33614285D01*
X25266666Y-34295238D02*
X25161904Y-34347619D01*
X24952380Y-34347619D01*
X24847619Y-34295238D01*
X24795238Y-34242857D01*
X24742857Y-34138095D01*
X24742857Y-33823809D01*
X24795238Y-33719047D01*
X24847619Y-33666666D01*
X24952380Y-33614285D01*
X25161904Y-33614285D01*
X25266666Y-33666666D01*
X25895238Y-34347619D02*
X25790476Y-34295238D01*
X25738095Y-34242857D01*
X25685714Y-34138095D01*
X25685714Y-33823809D01*
X25738095Y-33719047D01*
X25790476Y-33666666D01*
X25895238Y-33614285D01*
X26052380Y-33614285D01*
X26157142Y-33666666D01*
X26209523Y-33719047D01*
X26261904Y-33823809D01*
X26261904Y-34138095D01*
X26209523Y-34242857D01*
X26157142Y-34295238D01*
X26052380Y-34347619D01*
X25895238Y-34347619D01*
X26733333Y-33614285D02*
X26733333Y-34347619D01*
X26733333Y-33719047D02*
X26785714Y-33666666D01*
X26890476Y-33614285D01*
X27047619Y-33614285D01*
X27152380Y-33666666D01*
X27204761Y-33771428D01*
X27204761Y-34347619D01*
X27571428Y-33614285D02*
X27990476Y-33614285D01*
X27728571Y-33247619D02*
X27728571Y-34190476D01*
X27780952Y-34295238D01*
X27885714Y-34347619D01*
X27990476Y-34347619D01*
X28357142Y-34347619D02*
X28357142Y-33614285D01*
X28357142Y-33823809D02*
X28409523Y-33719047D01*
X28461904Y-33666666D01*
X28566666Y-33614285D01*
X28671428Y-33614285D01*
X29195238Y-34347619D02*
X29090476Y-34295238D01*
X29038095Y-34242857D01*
X28985714Y-34138095D01*
X28985714Y-33823809D01*
X29038095Y-33719047D01*
X29090476Y-33666666D01*
X29195238Y-33614285D01*
X29352380Y-33614285D01*
X29457142Y-33666666D01*
X29509523Y-33719047D01*
X29561904Y-33823809D01*
X29561904Y-34138095D01*
X29509523Y-34242857D01*
X29457142Y-34295238D01*
X29352380Y-34347619D01*
X29195238Y-34347619D01*
X30190476Y-34347619D02*
X30085714Y-34295238D01*
X30033333Y-34190476D01*
X30033333Y-33247619D01*
X30609523Y-34347619D02*
X30609523Y-33247619D01*
X31238095Y-34347619D01*
X31238095Y-33247619D01*
X32338095Y-33300000D02*
X32233333Y-33247619D01*
X32076190Y-33247619D01*
X31919047Y-33300000D01*
X31814285Y-33404761D01*
X31761904Y-33509523D01*
X31709523Y-33719047D01*
X31709523Y-33876190D01*
X31761904Y-34085714D01*
X31814285Y-34190476D01*
X31919047Y-34295238D01*
X32076190Y-34347619D01*
X32180952Y-34347619D01*
X32338095Y-34295238D01*
X32390476Y-34242857D01*
X32390476Y-33876190D01*
X32180952Y-33876190D01*
D13*
X20000000Y-23000000D02*
X80000000Y-23000000D01*
X20000000Y-67000000D02*
X20000000Y-23000000D01*
X80000000Y-67000000D02*
X20000000Y-67000000D01*
X80000000Y-23000000D02*
X80000000Y-67000000D01*
D10*
X32800000Y-56200000D02*
X40800000Y-56200000D01*
X32800000Y-56200000D02*
X32800000Y-63800000D01*
X40800000Y-63800000D02*
X32800000Y-63800000D01*
X40800000Y-56200000D02*
X40800000Y-63800000D01*
D14*
X32400000Y-50500000D02*
X31200000Y-50500000D01*
X34000000Y-50500000D02*
X35000000Y-50500000D01*
X37400000Y-50500000D02*
X36400000Y-50500000D01*
X40000000Y-50500000D02*
X39000000Y-50500000D01*
X41400000Y-50500000D02*
X42400000Y-50500000D01*
X45200000Y-50500000D02*
X44000000Y-50500000D01*
X44000000Y-64500000D02*
X45200000Y-64500000D01*
X41400000Y-64500000D02*
X42400000Y-64500000D01*
X39000000Y-64500000D02*
X40000000Y-64500000D01*
X36400000Y-64500000D02*
X37400000Y-64500000D01*
X34000000Y-64500000D02*
X35000000Y-64500000D01*
X31200000Y-64500000D02*
X32400000Y-64500000D01*
X31200000Y-50500000D02*
X31200000Y-64500000D01*
X45200000Y-64500000D02*
X45200000Y-50500000D01*
D15*
X60370000Y-53650000D02*
X62820000Y-53650000D01*
X62170000Y-50430000D02*
X60370000Y-50430000D01*
X29930000Y-30160000D02*
X29930000Y-32610000D01*
X33150000Y-31960000D02*
X33150000Y-30160000D01*
X70300000Y-31810000D02*
X70300000Y-34260000D01*
X73520000Y-33610000D02*
X73520000Y-31810000D01*
X33650000Y-34320000D02*
X33650000Y-37770000D01*
X33650000Y-34320000D02*
X33650000Y-32370000D01*
X38770000Y-34320000D02*
X38770000Y-36270000D01*
X38770000Y-34320000D02*
X38770000Y-32370000D01*
X39040000Y-34330000D02*
X39040000Y-37780000D01*
X39040000Y-34330000D02*
X39040000Y-32380000D01*
X44160000Y-34330000D02*
X44160000Y-36280000D01*
X44160000Y-34330000D02*
X44160000Y-32380000D01*
X74050000Y-54130000D02*
X74050000Y-50680000D01*
X74050000Y-54130000D02*
X74050000Y-56080000D01*
X68930000Y-54130000D02*
X68930000Y-52180000D01*
X68930000Y-54130000D02*
X68930000Y-56080000D01*
X37790000Y-44280000D02*
X35340000Y-44280000D01*
X35990000Y-47500000D02*
X37790000Y-47500000D01*
X68440000Y-54130000D02*
X68440000Y-50680000D01*
X68440000Y-54130000D02*
X68440000Y-56080000D01*
X63320000Y-54130000D02*
X63320000Y-52180000D01*
X63320000Y-54130000D02*
X63320000Y-56080000D01*
X40210000Y-46662779D02*
X40210000Y-46337221D01*
X39190000Y-46662779D02*
X39190000Y-46337221D01*
X40790000Y-46349720D02*
X40790000Y-46675278D01*
X41810000Y-46349720D02*
X41810000Y-46675278D01*
X68549721Y-59360000D02*
X68875279Y-59360000D01*
X68549721Y-58340000D02*
X68875279Y-58340000D01*
X33820000Y-42280000D02*
X37820000Y-42280000D01*
X33820000Y-38080000D02*
X37820000Y-38080000D01*
X34720000Y-43420000D02*
X34720000Y-47270000D01*
X32720000Y-43420000D02*
X32720000Y-47270000D01*
X34720000Y-43420000D02*
X32720000Y-43420000D01*
X79410000Y-33630000D02*
X79410000Y-32555000D01*
X73510000Y-33630000D02*
X79410000Y-33630000D01*
X73510000Y-29730000D02*
X79410000Y-29730000D01*
X38390000Y-42499720D02*
X38390000Y-42825278D01*
X39410000Y-42499720D02*
X39410000Y-42825278D01*
X39840000Y-41987937D02*
X39840000Y-43192065D01*
X41660000Y-41987937D02*
X41660000Y-43192065D01*
X36800280Y-42690000D02*
X36474722Y-42690000D01*
X36800280Y-43710000D02*
X36474722Y-43710000D01*
X31340000Y-46474722D02*
X31340000Y-46800280D01*
X32360000Y-46474722D02*
X32360000Y-46800280D01*
X37424721Y-30585000D02*
X37750279Y-30585000D01*
X37424721Y-29565000D02*
X37750279Y-29565000D01*
X41212221Y-30585000D02*
X41537779Y-30585000D01*
X41212221Y-29565000D02*
X41537779Y-29565000D01*
X74850279Y-33790000D02*
X74524721Y-33790000D01*
X74850279Y-34810000D02*
X74524721Y-34810000D01*
X62750000Y-58700000D02*
G75*
G02X63450000Y-58000000I700000J0D01*
G01*
X63450000Y-60000000D02*
G75*
G02X62750000Y-59300000I0J700000D01*
G01*
X66850000Y-59300000D02*
G75*
G02X66150000Y-60000000I-700000J0D01*
G01*
X66150000Y-58000000D02*
G75*
G02X66850000Y-58700000I0J-700000D01*
G01*
X63400000Y-58000000D02*
X66200000Y-58000000D01*
X66850000Y-58700000D02*
X66850000Y-59300000D01*
X66200000Y-60000000D02*
X63400000Y-60000000D01*
X62750000Y-59300000D02*
X62750000Y-58700000D01*
X22490000Y-23390000D02*
X22490000Y-23840000D01*
X30710000Y-23390000D02*
X22490000Y-23390000D01*
X30710000Y-23840000D02*
X30710000Y-23390000D01*
X22490000Y-27810000D02*
X23440000Y-27810000D01*
X22490000Y-27360000D02*
X22490000Y-27810000D01*
X29760000Y-27810000D02*
X29760000Y-29300000D01*
X30710000Y-27810000D02*
X29760000Y-27810000D01*
X30710000Y-27360000D02*
X30710000Y-27810000D01*
X35165000Y-23390000D02*
X35165000Y-23840000D01*
X44635000Y-23390000D02*
X35165000Y-23390000D01*
X44635000Y-23840000D02*
X44635000Y-23390000D01*
X35165000Y-27810000D02*
X36115000Y-27810000D01*
X35165000Y-27360000D02*
X35165000Y-27810000D01*
X43685000Y-27810000D02*
X43685000Y-29300000D01*
X44635000Y-27810000D02*
X43685000Y-27810000D01*
X44635000Y-27360000D02*
X44635000Y-27810000D01*
X21990000Y-63749721D02*
X21990000Y-64075279D01*
X23010000Y-63749721D02*
X23010000Y-64075279D01*
X21190000Y-58449720D02*
X21190000Y-58775278D01*
X22210000Y-58449720D02*
X22210000Y-58775278D01*
X20690000Y-63749720D02*
X20690000Y-64075278D01*
X21710000Y-63749720D02*
X21710000Y-64075278D01*
X53550000Y-65420000D02*
X53550000Y-59820000D01*
X48350000Y-65420000D02*
X48350000Y-60620000D01*
X50099721Y-58060000D02*
X50425279Y-58060000D01*
X50099721Y-57040000D02*
X50425279Y-57040000D01*
X67810000Y-35740000D02*
X67810000Y-35190000D01*
X61590000Y-41410000D02*
X62140000Y-41410000D01*
X61590000Y-40860000D02*
X61590000Y-41410000D01*
X61590000Y-35190000D02*
X62140000Y-35190000D01*
X61590000Y-35740000D02*
X61590000Y-35190000D01*
X67810000Y-41410000D02*
X67260000Y-41410000D01*
X67810000Y-40860000D02*
X67810000Y-41410000D01*
D13*
X74500000Y-35150000D02*
X73800000Y-35150000D01*
X75450000Y-37450000D02*
X75450000Y-36350000D01*
X73800000Y-38650000D02*
X74500000Y-38650000D01*
X72850000Y-36350000D02*
X72850000Y-37450000D01*
D15*
X57375279Y-29170000D02*
X57049721Y-29170000D01*
X57375279Y-30190000D02*
X57049721Y-30190000D01*
X66642779Y-30030000D02*
X66317221Y-30030000D01*
X66642779Y-31050000D02*
X66317221Y-31050000D01*
X71300000Y-28270000D02*
X71300000Y-29730000D01*
X68140000Y-28270000D02*
X68140000Y-30430000D01*
X68140000Y-28270000D02*
X69070000Y-28270000D01*
X71300000Y-28270000D02*
X70370000Y-28270000D01*
X58770000Y-28030000D02*
X62620000Y-28030000D01*
X58770000Y-30030000D02*
X62620000Y-30030000D01*
X58770000Y-28030000D02*
X58770000Y-30030000D01*
X74312779Y-39090000D02*
X73987221Y-39090000D01*
X74312779Y-40110000D02*
X73987221Y-40110000D01*
X57375279Y-30690000D02*
X57049721Y-30690000D01*
X57375279Y-31710000D02*
X57049721Y-31710000D01*
X63750280Y-30030000D02*
X63424722Y-30030000D01*
X63750280Y-31050000D02*
X63424722Y-31050000D01*
D16*
X76997500Y-34424000D02*
G75*
G03X76045000Y-35376500I0J-952500D01*
G01*
X79855000Y-35376500D02*
G75*
G03X78902500Y-34424000I-952500J0D01*
G01*
X76997500Y-34424000D02*
X78902500Y-34424000D01*
X77226100Y-41243900D02*
G75*
G03X78673900Y-41243900I723900J723900D01*
G01*
X77226100Y-41243900D02*
X76045000Y-40062800D01*
X78673900Y-41243900D02*
X79855000Y-40062800D01*
X76045000Y-35376500D02*
X76045000Y-40062800D01*
X79855000Y-35376500D02*
X79855000Y-40062800D01*
D15*
X47258578Y-57790000D02*
X46741422Y-57790000D01*
X47258578Y-59210000D02*
X46741422Y-59210000D01*
X47500000Y-62300000D02*
X47500000Y-66150000D01*
X45500000Y-62300000D02*
X45500000Y-66150000D01*
X47500000Y-62300000D02*
X45500000Y-62300000D01*
X28900000Y-57800000D02*
X28900000Y-53950000D01*
X30900000Y-57800000D02*
X30900000Y-53950000D01*
X28900000Y-57800000D02*
X30900000Y-57800000D01*
X26500000Y-50975000D02*
X30350000Y-50975000D01*
X26500000Y-52975000D02*
X30350000Y-52975000D01*
X26500000Y-50975000D02*
X26500000Y-52975000D01*
X22800000Y-62050000D02*
X22800000Y-58200000D01*
X24800000Y-62050000D02*
X24800000Y-58200000D01*
X22800000Y-62050000D02*
X24800000Y-62050000D01*
X56100000Y-33900000D02*
X52250000Y-33900000D01*
X56100000Y-31900000D02*
X52250000Y-31900000D01*
X56100000Y-33900000D02*
X56100000Y-31900000D01*
X51700000Y-33950000D02*
X47850000Y-33950000D01*
X51700000Y-31950000D02*
X47850000Y-31950000D01*
X51700000Y-33950000D02*
X51700000Y-31950000D01*
X61000000Y-44400000D02*
X61000000Y-48250000D01*
X59000000Y-44400000D02*
X59000000Y-48250000D01*
X61000000Y-44400000D02*
X59000000Y-44400000D01*
X56100000Y-35850000D02*
X52250000Y-35850000D01*
X56100000Y-33850000D02*
X52250000Y-33850000D01*
X56100000Y-35850000D02*
X56100000Y-33850000D01*
X53300000Y-46600000D02*
X49450000Y-46600000D01*
X53300000Y-44600000D02*
X49450000Y-44600000D01*
X53300000Y-46600000D02*
X53300000Y-44600000D01*
X64925000Y-44400000D02*
X64925000Y-48250000D01*
X62925000Y-44400000D02*
X62925000Y-48250000D01*
X64925000Y-44400000D02*
X62925000Y-44400000D01*
X59050000Y-44400000D02*
X59050000Y-48250000D01*
X57050000Y-44400000D02*
X57050000Y-48250000D01*
X59050000Y-44400000D02*
X57050000Y-44400000D01*
X62950000Y-44400000D02*
X62950000Y-48250000D01*
X60950000Y-44400000D02*
X60950000Y-48250000D01*
X62950000Y-44400000D02*
X60950000Y-44400000D01*
X56100000Y-49800000D02*
X52250000Y-49800000D01*
X56100000Y-47800000D02*
X52250000Y-47800000D01*
X56100000Y-49800000D02*
X56100000Y-47800000D01*
X51650000Y-49850000D02*
X47800000Y-49850000D01*
X51650000Y-47850000D02*
X47800000Y-47850000D01*
X51650000Y-49850000D02*
X51650000Y-47850000D01*
X68875000Y-44400000D02*
X68875000Y-48250000D01*
X66875000Y-44400000D02*
X66875000Y-48250000D01*
X68875000Y-44400000D02*
X66875000Y-44400000D01*
X66900000Y-44400000D02*
X66900000Y-48250000D01*
X64900000Y-44400000D02*
X64900000Y-48250000D01*
X66900000Y-44400000D02*
X64900000Y-44400000D01*
X64560000Y-66510000D02*
X64560000Y-66060000D01*
X58840000Y-66510000D02*
X64560000Y-66510000D01*
X58840000Y-66060000D02*
X58840000Y-66510000D01*
X64560000Y-62090000D02*
X63610000Y-62090000D01*
X64560000Y-62540000D02*
X64560000Y-62090000D01*
X59790000Y-62090000D02*
X59790000Y-60600000D01*
X58840000Y-62090000D02*
X59790000Y-62090000D01*
X58840000Y-62540000D02*
X58840000Y-62090000D01*
X60662779Y-58990000D02*
X60337221Y-58990000D01*
X60662779Y-60010000D02*
X60337221Y-60010000D01*
X59065000Y-57112221D02*
X59065000Y-57437779D01*
X60085000Y-57112221D02*
X60085000Y-57437779D01*
X54290000Y-61278923D02*
X54290000Y-61796079D01*
X55710000Y-61278923D02*
X55710000Y-61796079D01*
X52978923Y-31710000D02*
X53496079Y-31710000D01*
X52978923Y-30290000D02*
X53496079Y-30290000D01*
X49703922Y-31760000D02*
X50221078Y-31760000D01*
X49703922Y-30340000D02*
X50221078Y-30340000D01*
X53241422Y-37410000D02*
X53758578Y-37410000D01*
X53241422Y-35990000D02*
X53758578Y-35990000D01*
X50791422Y-44410000D02*
X51308578Y-44410000D01*
X50791422Y-42990000D02*
X51308578Y-42990000D01*
X46090000Y-32237221D02*
X46090000Y-32562779D01*
X47110000Y-32237221D02*
X47110000Y-32562779D01*
X47490000Y-44149721D02*
X47490000Y-44475279D01*
X48510000Y-44149721D02*
X48510000Y-44475279D01*
X52853921Y-51610000D02*
X53371077Y-51610000D01*
X52853921Y-50190000D02*
X53371077Y-50190000D01*
X49441422Y-51560000D02*
X49958578Y-51560000D01*
X49441422Y-50140000D02*
X49958578Y-50140000D01*
X22690000Y-56970000D02*
X24810000Y-56970000D01*
X22690000Y-52910000D02*
X22690000Y-56970000D01*
X24810000Y-52910000D02*
X24810000Y-56970000D01*
X22690000Y-52910000D02*
X24810000Y-52910000D01*
X22690000Y-51910000D02*
X22690000Y-50850000D01*
X22690000Y-50850000D02*
X23750000Y-50850000D01*
X78060000Y-50850000D02*
X75940000Y-50850000D01*
X78060000Y-54910000D02*
X78060000Y-50850000D01*
X75940000Y-54910000D02*
X75940000Y-50850000D01*
X78060000Y-54910000D02*
X75940000Y-54910000D01*
X78060000Y-55910000D02*
X78060000Y-56970000D01*
X78060000Y-56970000D02*
X77000000Y-56970000D01*
X59060000Y-39140000D02*
X59060000Y-40200000D01*
X58000000Y-39140000D02*
X59060000Y-39140000D01*
X57000000Y-39140000D02*
X57000000Y-41260000D01*
X57000000Y-41260000D02*
X46940000Y-41260000D01*
X57000000Y-39140000D02*
X46940000Y-39140000D01*
X46940000Y-39140000D02*
X46940000Y-41260000D01*
X59060000Y-53360000D02*
X59060000Y-54420000D01*
X58000000Y-53360000D02*
X59060000Y-53360000D01*
X57000000Y-53360000D02*
X57000000Y-55480000D01*
X57000000Y-55480000D02*
X46940000Y-55480000D01*
X57000000Y-53360000D02*
X46940000Y-53360000D01*
X46940000Y-53360000D02*
X46940000Y-55480000D01*
X59060000Y-25220000D02*
X59060000Y-26280000D01*
X58000000Y-25220000D02*
X59060000Y-25220000D01*
X57000000Y-25220000D02*
X57000000Y-27340000D01*
X57000000Y-27340000D02*
X46940000Y-27340000D01*
X57000000Y-25220000D02*
X46940000Y-25220000D01*
X46940000Y-25220000D02*
X46940000Y-27340000D01*
X69780000Y-33202779D02*
X69780000Y-32877221D01*
X68760000Y-33202779D02*
X68760000Y-32877221D01*
X46962779Y-60990000D02*
X46637221Y-60990000D01*
X46962779Y-62010000D02*
X46637221Y-62010000D01*
X29530000Y-31432779D02*
X29530000Y-31107221D01*
X28510000Y-31432779D02*
X28510000Y-31107221D01*
X26600000Y-31427779D02*
X26600000Y-31102221D01*
X25580000Y-31427779D02*
X25580000Y-31102221D01*
X23695000Y-31432779D02*
X23695000Y-31107221D01*
X22675000Y-31432779D02*
X22675000Y-31107221D01*
X44540000Y-32187221D02*
X44540000Y-32512779D01*
X45560000Y-32187221D02*
X45560000Y-32512779D01*
X45790000Y-29124722D02*
X45790000Y-29450280D01*
X46810000Y-29124722D02*
X46810000Y-29450280D01*
X21210000Y-31107221D02*
X21210000Y-31432779D01*
X22230000Y-31107221D02*
X22230000Y-31432779D01*
X24130000Y-31099720D02*
X24130000Y-31425278D01*
X25150000Y-31099720D02*
X25150000Y-31425278D01*
X27040000Y-31104720D02*
X27040000Y-31430278D01*
X28060000Y-31104720D02*
X28060000Y-31430278D01*
X50237221Y-37310000D02*
X50562779Y-37310000D01*
X50237221Y-36290000D02*
X50562779Y-36290000D01*
X47337221Y-37410000D02*
X47662779Y-37410000D01*
X47337221Y-36390000D02*
X47662779Y-36390000D01*
X47010000Y-47462779D02*
X47010000Y-47137221D01*
X45990000Y-47462779D02*
X45990000Y-47137221D01*
X47010000Y-50362779D02*
X47010000Y-50037221D01*
X45990000Y-50362779D02*
X45990000Y-50037221D01*
X71787221Y-59460000D02*
X72112779Y-59460000D01*
X71787221Y-58440000D02*
X72112779Y-58440000D01*
X26695279Y-58240000D02*
X26369721Y-58240000D01*
X26695279Y-59260000D02*
X26369721Y-59260000D01*
X58812779Y-36360000D02*
X58487221Y-36360000D01*
X58812779Y-37380000D02*
X58487221Y-37380000D01*
X62910000Y-55562779D02*
X62910000Y-55237221D01*
X61890000Y-55562779D02*
X61890000Y-55237221D01*
X61410000Y-55562779D02*
X61410000Y-55237221D01*
X60390000Y-55562779D02*
X60390000Y-55237221D01*
X71640000Y-23390000D02*
X71640000Y-23840000D01*
X77360000Y-23390000D02*
X71640000Y-23390000D01*
X77360000Y-23840000D02*
X77360000Y-23390000D01*
X71640000Y-27810000D02*
X72590000Y-27810000D01*
X71640000Y-27360000D02*
X71640000Y-27810000D01*
X76410000Y-27810000D02*
X76410000Y-29300000D01*
X77360000Y-27810000D02*
X76410000Y-27810000D01*
X77360000Y-27360000D02*
X77360000Y-27810000D01*
X62365000Y-23390000D02*
X62365000Y-23840000D01*
X66835000Y-23390000D02*
X62365000Y-23390000D01*
X66835000Y-23840000D02*
X66835000Y-23390000D01*
X62365000Y-27810000D02*
X63315000Y-27810000D01*
X62365000Y-27360000D02*
X62365000Y-27810000D01*
X65885000Y-27810000D02*
X65885000Y-29300000D01*
X66835000Y-27810000D02*
X65885000Y-27810000D01*
X66835000Y-27360000D02*
X66835000Y-27810000D01*
X76585000Y-66510000D02*
X76585000Y-66060000D01*
X69615000Y-66510000D02*
X76585000Y-66510000D01*
X69615000Y-66060000D02*
X69615000Y-66510000D01*
X76585000Y-62090000D02*
X75635000Y-62090000D01*
X76585000Y-62540000D02*
X76585000Y-62090000D01*
X70565000Y-62090000D02*
X70565000Y-60600000D01*
X69615000Y-62090000D02*
X70565000Y-62090000D01*
X69615000Y-62540000D02*
X69615000Y-62090000D01*
X34437221Y-29610000D02*
X34762779Y-29610000D01*
X34437221Y-28590000D02*
X34762779Y-28590000D01*
X26740000Y-54997936D02*
X26740000Y-56202064D01*
X28560000Y-54997936D02*
X28560000Y-56202064D01*
X46637221Y-60610000D02*
X46962779Y-60610000D01*
X46637221Y-59590000D02*
X46962779Y-59590000D01*
X58812779Y-34920000D02*
X58487221Y-34920000D01*
X58812779Y-35940000D02*
X58487221Y-35940000D01*
X58812779Y-33480000D02*
X58487221Y-33480000D01*
X58812779Y-34500000D02*
X58487221Y-34500000D01*
X61110000Y-32462779D02*
X61110000Y-32137221D01*
X60090000Y-32462779D02*
X60090000Y-32137221D01*
X78014722Y-29440000D02*
X78340280Y-29440000D01*
X78014722Y-28420000D02*
X78340280Y-28420000D01*
X74140000Y-58137221D02*
X74140000Y-58462779D01*
X75160000Y-58137221D02*
X75160000Y-58462779D01*
X25290000Y-56199721D02*
X25290000Y-56525279D01*
X26310000Y-56199721D02*
X26310000Y-56525279D01*
X65849721Y-50060000D02*
X66175279Y-50060000D01*
X65849721Y-49040000D02*
X66175279Y-49040000D01*
X29407221Y-59260000D02*
X29732779Y-59260000D01*
X29407221Y-58240000D02*
X29732779Y-58240000D01*
X29407221Y-60860000D02*
X29732779Y-60860000D01*
X29407221Y-59840000D02*
X29732779Y-59840000D01*
X26357221Y-60860000D02*
X26682779Y-60860000D01*
X26357221Y-59840000D02*
X26682779Y-59840000D01*
X30810000Y-64002064D02*
X30810000Y-62797936D01*
X28990000Y-64002064D02*
X28990000Y-62797936D01*
X65710000Y-33072779D02*
X65710000Y-32747221D01*
X64690000Y-33072779D02*
X64690000Y-32747221D01*
X64270000Y-33072779D02*
X64270000Y-32747221D01*
X63250000Y-33072779D02*
X63250000Y-32747221D01*
X62830000Y-33062779D02*
X62830000Y-32737221D01*
X61810000Y-33062779D02*
X61810000Y-32737221D01*
X52999721Y-29960000D02*
X53325279Y-29960000D01*
X52999721Y-28940000D02*
X53325279Y-28940000D01*
X48674721Y-29910000D02*
X49000279Y-29910000D01*
X48674721Y-28890000D02*
X49000279Y-28890000D01*
X53090000Y-42687221D02*
X53090000Y-43012779D01*
X54110000Y-42687221D02*
X54110000Y-43012779D01*
X47649721Y-38810000D02*
X47975279Y-38810000D01*
X47649721Y-37790000D02*
X47975279Y-37790000D01*
X59271078Y-42765000D02*
X58753922Y-42765000D01*
X59271078Y-44185000D02*
X58753922Y-44185000D01*
X63208578Y-42765000D02*
X62691422Y-42765000D01*
X63208578Y-44185000D02*
X62691422Y-44185000D01*
X44190000Y-29187221D02*
X44190000Y-29512779D01*
X45210000Y-29187221D02*
X45210000Y-29512779D01*
X67160000Y-33072779D02*
X67160000Y-32747221D01*
X66140000Y-33072779D02*
X66140000Y-32747221D01*
X70827221Y-37300000D02*
X71152779Y-37300000D01*
X70827221Y-36280000D02*
X71152779Y-36280000D01*
X70827221Y-38700001D02*
X71152779Y-38700001D01*
X70827221Y-37680001D02*
X71152779Y-37680001D01*
X70827221Y-40100000D02*
X71152779Y-40100000D01*
X70827221Y-39080000D02*
X71152779Y-39080000D01*
X70837221Y-35910000D02*
X71162779Y-35910000D01*
X70837221Y-34890000D02*
X71162779Y-34890000D01*
X53490000Y-57049721D02*
X53490000Y-57375279D01*
X54510000Y-57049721D02*
X54510000Y-57375279D01*
X47699721Y-53010000D02*
X48025279Y-53010000D01*
X47699721Y-51990000D02*
X48025279Y-51990000D01*
X66408578Y-42765000D02*
X65891422Y-42765000D01*
X66408578Y-44185000D02*
X65891422Y-44185000D01*
D10*
X37704761Y-57280952D02*
X37704761Y-57604761D01*
X37723809Y-57642857D01*
X37742857Y-57661904D01*
X37780952Y-57680952D01*
X37857142Y-57680952D01*
X37895238Y-57661904D01*
X37914285Y-57642857D01*
X37933333Y-57604761D01*
X37933333Y-57280952D01*
X38333333Y-57680952D02*
X38104761Y-57680952D01*
X38219047Y-57680952D02*
X38219047Y-57280952D01*
X38180952Y-57338095D01*
X38142857Y-57376190D01*
X38104761Y-57395238D01*
X38580952Y-57280952D02*
X38619047Y-57280952D01*
X38657142Y-57300000D01*
X38676190Y-57319047D01*
X38695238Y-57357142D01*
X38714285Y-57433333D01*
X38714285Y-57528571D01*
X38695238Y-57604761D01*
X38676190Y-57642857D01*
X38657142Y-57661904D01*
X38619047Y-57680952D01*
X38580952Y-57680952D01*
X38542857Y-57661904D01*
X38523809Y-57642857D01*
X38504761Y-57604761D01*
X38485714Y-57528571D01*
X38485714Y-57433333D01*
X38504761Y-57357142D01*
X38523809Y-57319047D01*
X38542857Y-57300000D01*
X38580952Y-57280952D01*
X60774761Y-54720952D02*
X60774761Y-55044761D01*
X60793809Y-55082857D01*
X60812857Y-55101904D01*
X60850952Y-55120952D01*
X60927142Y-55120952D01*
X60965238Y-55101904D01*
X60984285Y-55082857D01*
X61003333Y-55044761D01*
X61003333Y-54720952D01*
X61403333Y-55120952D02*
X61174761Y-55120952D01*
X61289047Y-55120952D02*
X61289047Y-54720952D01*
X61250952Y-54778095D01*
X61212857Y-54816190D01*
X61174761Y-54835238D01*
X61784285Y-55120952D02*
X61555714Y-55120952D01*
X61670000Y-55120952D02*
X61670000Y-54720952D01*
X61631904Y-54778095D01*
X61593809Y-54816190D01*
X61555714Y-54835238D01*
X28420952Y-31364761D02*
X28744761Y-31364761D01*
X28782857Y-31345714D01*
X28801904Y-31326666D01*
X28820952Y-31288571D01*
X28820952Y-31212380D01*
X28801904Y-31174285D01*
X28782857Y-31155238D01*
X28744761Y-31136190D01*
X28420952Y-31136190D01*
X28820952Y-30926666D02*
X28820952Y-30850476D01*
X28801904Y-30812380D01*
X28782857Y-30793333D01*
X28725714Y-30755238D01*
X28649523Y-30736190D01*
X28497142Y-30736190D01*
X28459047Y-30755238D01*
X28440000Y-30774285D01*
X28420952Y-30812380D01*
X28420952Y-30888571D01*
X28440000Y-30926666D01*
X28459047Y-30945714D01*
X28497142Y-30964761D01*
X28592380Y-30964761D01*
X28630476Y-30945714D01*
X28649523Y-30926666D01*
X28668571Y-30888571D01*
X28668571Y-30812380D01*
X28649523Y-30774285D01*
X28630476Y-30755238D01*
X28592380Y-30736190D01*
X68790952Y-33014761D02*
X69114761Y-33014761D01*
X69152857Y-32995714D01*
X69171904Y-32976666D01*
X69190952Y-32938571D01*
X69190952Y-32862380D01*
X69171904Y-32824285D01*
X69152857Y-32805238D01*
X69114761Y-32786190D01*
X68790952Y-32786190D01*
X68962380Y-32538571D02*
X68943333Y-32576666D01*
X68924285Y-32595714D01*
X68886190Y-32614761D01*
X68867142Y-32614761D01*
X68829047Y-32595714D01*
X68810000Y-32576666D01*
X68790952Y-32538571D01*
X68790952Y-32462380D01*
X68810000Y-32424285D01*
X68829047Y-32405238D01*
X68867142Y-32386190D01*
X68886190Y-32386190D01*
X68924285Y-32405238D01*
X68943333Y-32424285D01*
X68962380Y-32462380D01*
X68962380Y-32538571D01*
X68981428Y-32576666D01*
X69000476Y-32595714D01*
X69038571Y-32614761D01*
X69114761Y-32614761D01*
X69152857Y-32595714D01*
X69171904Y-32576666D01*
X69190952Y-32538571D01*
X69190952Y-32462380D01*
X69171904Y-32424285D01*
X69152857Y-32405238D01*
X69114761Y-32386190D01*
X69038571Y-32386190D01*
X69000476Y-32405238D01*
X68981428Y-32424285D01*
X68962380Y-32462380D01*
X34045238Y-30080952D02*
X34045238Y-30404761D01*
X34064285Y-30442857D01*
X34083333Y-30461904D01*
X34121428Y-30480952D01*
X34197619Y-30480952D01*
X34235714Y-30461904D01*
X34254761Y-30442857D01*
X34273809Y-30404761D01*
X34273809Y-30080952D01*
X34426190Y-30080952D02*
X34692857Y-30080952D01*
X34521428Y-30480952D01*
X44145238Y-36580952D02*
X44145238Y-36904761D01*
X44164285Y-36942857D01*
X44183333Y-36961904D01*
X44221428Y-36980952D01*
X44297619Y-36980952D01*
X44335714Y-36961904D01*
X44354761Y-36942857D01*
X44373809Y-36904761D01*
X44373809Y-36580952D01*
X44735714Y-36580952D02*
X44659523Y-36580952D01*
X44621428Y-36600000D01*
X44602380Y-36619047D01*
X44564285Y-36676190D01*
X44545238Y-36752380D01*
X44545238Y-36904761D01*
X44564285Y-36942857D01*
X44583333Y-36961904D01*
X44621428Y-36980952D01*
X44697619Y-36980952D01*
X44735714Y-36961904D01*
X44754761Y-36942857D01*
X44773809Y-36904761D01*
X44773809Y-36809523D01*
X44754761Y-36771428D01*
X44735714Y-36752380D01*
X44697619Y-36733333D01*
X44621428Y-36733333D01*
X44583333Y-36752380D01*
X44564285Y-36771428D01*
X44545238Y-36809523D01*
X74035238Y-50050952D02*
X74035238Y-50374761D01*
X74054285Y-50412857D01*
X74073333Y-50431904D01*
X74111428Y-50450952D01*
X74187619Y-50450952D01*
X74225714Y-50431904D01*
X74244761Y-50412857D01*
X74263809Y-50374761D01*
X74263809Y-50050952D01*
X74644761Y-50050952D02*
X74454285Y-50050952D01*
X74435238Y-50241428D01*
X74454285Y-50222380D01*
X74492380Y-50203333D01*
X74587619Y-50203333D01*
X74625714Y-50222380D01*
X74644761Y-50241428D01*
X74663809Y-50279523D01*
X74663809Y-50374761D01*
X74644761Y-50412857D01*
X74625714Y-50431904D01*
X74587619Y-50450952D01*
X74492380Y-50450952D01*
X74454285Y-50431904D01*
X74435238Y-50412857D01*
X36555238Y-47840952D02*
X36555238Y-48164761D01*
X36574285Y-48202857D01*
X36593333Y-48221904D01*
X36631428Y-48240952D01*
X36707619Y-48240952D01*
X36745714Y-48221904D01*
X36764761Y-48202857D01*
X36783809Y-48164761D01*
X36783809Y-47840952D01*
X36936190Y-47840952D02*
X37183809Y-47840952D01*
X37050476Y-47993333D01*
X37107619Y-47993333D01*
X37145714Y-48012380D01*
X37164761Y-48031428D01*
X37183809Y-48069523D01*
X37183809Y-48164761D01*
X37164761Y-48202857D01*
X37145714Y-48221904D01*
X37107619Y-48240952D01*
X36993333Y-48240952D01*
X36955238Y-48221904D01*
X36936190Y-48202857D01*
X68415238Y-50180952D02*
X68415238Y-50504761D01*
X68434285Y-50542857D01*
X68453333Y-50561904D01*
X68491428Y-50580952D01*
X68567619Y-50580952D01*
X68605714Y-50561904D01*
X68624761Y-50542857D01*
X68643809Y-50504761D01*
X68643809Y-50180952D01*
X68815238Y-50219047D02*
X68834285Y-50200000D01*
X68872380Y-50180952D01*
X68967619Y-50180952D01*
X69005714Y-50200000D01*
X69024761Y-50219047D01*
X69043809Y-50257142D01*
X69043809Y-50295238D01*
X69024761Y-50352380D01*
X68796190Y-50580952D01*
X69043809Y-50580952D01*
X38192857Y-48040952D02*
X38059523Y-47850476D01*
X37964285Y-48040952D02*
X37964285Y-47640952D01*
X38116666Y-47640952D01*
X38154761Y-47660000D01*
X38173809Y-47679047D01*
X38192857Y-47717142D01*
X38192857Y-47774285D01*
X38173809Y-47812380D01*
X38154761Y-47831428D01*
X38116666Y-47850476D01*
X37964285Y-47850476D01*
X38326190Y-47640952D02*
X38573809Y-47640952D01*
X38440476Y-47793333D01*
X38497619Y-47793333D01*
X38535714Y-47812380D01*
X38554761Y-47831428D01*
X38573809Y-47869523D01*
X38573809Y-47964761D01*
X38554761Y-48002857D01*
X38535714Y-48021904D01*
X38497619Y-48040952D01*
X38383333Y-48040952D01*
X38345238Y-48021904D01*
X38326190Y-48002857D01*
X38802380Y-47812380D02*
X38764285Y-47793333D01*
X38745238Y-47774285D01*
X38726190Y-47736190D01*
X38726190Y-47717142D01*
X38745238Y-47679047D01*
X38764285Y-47660000D01*
X38802380Y-47640952D01*
X38878571Y-47640952D01*
X38916666Y-47660000D01*
X38935714Y-47679047D01*
X38954761Y-47717142D01*
X38954761Y-47736190D01*
X38935714Y-47774285D01*
X38916666Y-47793333D01*
X38878571Y-47812380D01*
X38802380Y-47812380D01*
X38764285Y-47831428D01*
X38745238Y-47850476D01*
X38726190Y-47888571D01*
X38726190Y-47964761D01*
X38745238Y-48002857D01*
X38764285Y-48021904D01*
X38802380Y-48040952D01*
X38878571Y-48040952D01*
X38916666Y-48021904D01*
X38935714Y-48002857D01*
X38954761Y-47964761D01*
X38954761Y-47888571D01*
X38935714Y-47850476D01*
X38916666Y-47831428D01*
X38878571Y-47812380D01*
X42242857Y-48060952D02*
X42109523Y-47870476D01*
X42014285Y-48060952D02*
X42014285Y-47660952D01*
X42166666Y-47660952D01*
X42204761Y-47680000D01*
X42223809Y-47699047D01*
X42242857Y-47737142D01*
X42242857Y-47794285D01*
X42223809Y-47832380D01*
X42204761Y-47851428D01*
X42166666Y-47870476D01*
X42014285Y-47870476D01*
X42376190Y-47660952D02*
X42623809Y-47660952D01*
X42490476Y-47813333D01*
X42547619Y-47813333D01*
X42585714Y-47832380D01*
X42604761Y-47851428D01*
X42623809Y-47889523D01*
X42623809Y-47984761D01*
X42604761Y-48022857D01*
X42585714Y-48041904D01*
X42547619Y-48060952D01*
X42433333Y-48060952D01*
X42395238Y-48041904D01*
X42376190Y-48022857D01*
X42757142Y-47660952D02*
X43023809Y-47660952D01*
X42852380Y-48060952D01*
X68452857Y-59940952D02*
X68319523Y-59750476D01*
X68224285Y-59940952D02*
X68224285Y-59540952D01*
X68376666Y-59540952D01*
X68414761Y-59560000D01*
X68433809Y-59579047D01*
X68452857Y-59617142D01*
X68452857Y-59674285D01*
X68433809Y-59712380D01*
X68414761Y-59731428D01*
X68376666Y-59750476D01*
X68224285Y-59750476D01*
X68586190Y-59540952D02*
X68833809Y-59540952D01*
X68700476Y-59693333D01*
X68757619Y-59693333D01*
X68795714Y-59712380D01*
X68814761Y-59731428D01*
X68833809Y-59769523D01*
X68833809Y-59864761D01*
X68814761Y-59902857D01*
X68795714Y-59921904D01*
X68757619Y-59940952D01*
X68643333Y-59940952D01*
X68605238Y-59921904D01*
X68586190Y-59902857D01*
X68986190Y-59579047D02*
X69005238Y-59560000D01*
X69043333Y-59540952D01*
X69138571Y-59540952D01*
X69176666Y-59560000D01*
X69195714Y-59579047D01*
X69214761Y-59617142D01*
X69214761Y-59655238D01*
X69195714Y-59712380D01*
X68967142Y-59940952D01*
X69214761Y-59940952D01*
X38463333Y-38640952D02*
X38272857Y-38640952D01*
X38272857Y-38240952D01*
X38806190Y-38640952D02*
X38577619Y-38640952D01*
X38691904Y-38640952D02*
X38691904Y-38240952D01*
X38653809Y-38298095D01*
X38615714Y-38336190D01*
X38577619Y-38355238D01*
X33244285Y-48210952D02*
X33244285Y-47810952D01*
X33339523Y-47810952D01*
X33396666Y-47830000D01*
X33434761Y-47868095D01*
X33453809Y-47906190D01*
X33472857Y-47982380D01*
X33472857Y-48039523D01*
X33453809Y-48115714D01*
X33434761Y-48153809D01*
X33396666Y-48191904D01*
X33339523Y-48210952D01*
X33244285Y-48210952D01*
X33853809Y-48210952D02*
X33625238Y-48210952D01*
X33739523Y-48210952D02*
X33739523Y-47810952D01*
X33701428Y-47868095D01*
X33663333Y-47906190D01*
X33625238Y-47925238D01*
X34082380Y-47982380D02*
X34044285Y-47963333D01*
X34025238Y-47944285D01*
X34006190Y-47906190D01*
X34006190Y-47887142D01*
X34025238Y-47849047D01*
X34044285Y-47830000D01*
X34082380Y-47810952D01*
X34158571Y-47810952D01*
X34196666Y-47830000D01*
X34215714Y-47849047D01*
X34234761Y-47887142D01*
X34234761Y-47906190D01*
X34215714Y-47944285D01*
X34196666Y-47963333D01*
X34158571Y-47982380D01*
X34082380Y-47982380D01*
X34044285Y-48001428D01*
X34025238Y-48020476D01*
X34006190Y-48058571D01*
X34006190Y-48134761D01*
X34025238Y-48172857D01*
X34044285Y-48191904D01*
X34082380Y-48210952D01*
X34158571Y-48210952D01*
X34196666Y-48191904D01*
X34215714Y-48172857D01*
X34234761Y-48134761D01*
X34234761Y-48058571D01*
X34215714Y-48020476D01*
X34196666Y-48001428D01*
X34158571Y-47982380D01*
X71864285Y-30300952D02*
X71864285Y-29900952D01*
X71959523Y-29900952D01*
X72016666Y-29920000D01*
X72054761Y-29958095D01*
X72073809Y-29996190D01*
X72092857Y-30072380D01*
X72092857Y-30129523D01*
X72073809Y-30205714D01*
X72054761Y-30243809D01*
X72016666Y-30281904D01*
X71959523Y-30300952D01*
X71864285Y-30300952D01*
X72473809Y-30300952D02*
X72245238Y-30300952D01*
X72359523Y-30300952D02*
X72359523Y-29900952D01*
X72321428Y-29958095D01*
X72283333Y-29996190D01*
X72245238Y-30015238D01*
X72607142Y-29900952D02*
X72873809Y-29900952D01*
X72702380Y-30300952D01*
X38652857Y-41192857D02*
X38633809Y-41211904D01*
X38576666Y-41230952D01*
X38538571Y-41230952D01*
X38481428Y-41211904D01*
X38443333Y-41173809D01*
X38424285Y-41135714D01*
X38405238Y-41059523D01*
X38405238Y-41002380D01*
X38424285Y-40926190D01*
X38443333Y-40888095D01*
X38481428Y-40850000D01*
X38538571Y-40830952D01*
X38576666Y-40830952D01*
X38633809Y-40850000D01*
X38652857Y-40869047D01*
X38786190Y-40830952D02*
X39033809Y-40830952D01*
X38900476Y-40983333D01*
X38957619Y-40983333D01*
X38995714Y-41002380D01*
X39014761Y-41021428D01*
X39033809Y-41059523D01*
X39033809Y-41154761D01*
X39014761Y-41192857D01*
X38995714Y-41211904D01*
X38957619Y-41230952D01*
X38843333Y-41230952D01*
X38805238Y-41211904D01*
X38786190Y-41192857D01*
X39167142Y-40830952D02*
X39433809Y-40830952D01*
X39262380Y-41230952D01*
X40482857Y-40312857D02*
X40463809Y-40331904D01*
X40406666Y-40350952D01*
X40368571Y-40350952D01*
X40311428Y-40331904D01*
X40273333Y-40293809D01*
X40254285Y-40255714D01*
X40235238Y-40179523D01*
X40235238Y-40122380D01*
X40254285Y-40046190D01*
X40273333Y-40008095D01*
X40311428Y-39970000D01*
X40368571Y-39950952D01*
X40406666Y-39950952D01*
X40463809Y-39970000D01*
X40482857Y-39989047D01*
X40616190Y-39950952D02*
X40863809Y-39950952D01*
X40730476Y-40103333D01*
X40787619Y-40103333D01*
X40825714Y-40122380D01*
X40844761Y-40141428D01*
X40863809Y-40179523D01*
X40863809Y-40274761D01*
X40844761Y-40312857D01*
X40825714Y-40331904D01*
X40787619Y-40350952D01*
X40673333Y-40350952D01*
X40635238Y-40331904D01*
X40616190Y-40312857D01*
X41206666Y-39950952D02*
X41130476Y-39950952D01*
X41092380Y-39970000D01*
X41073333Y-39989047D01*
X41035238Y-40046190D01*
X41016190Y-40122380D01*
X41016190Y-40274761D01*
X41035238Y-40312857D01*
X41054285Y-40331904D01*
X41092380Y-40350952D01*
X41168571Y-40350952D01*
X41206666Y-40331904D01*
X41225714Y-40312857D01*
X41244761Y-40274761D01*
X41244761Y-40179523D01*
X41225714Y-40141428D01*
X41206666Y-40122380D01*
X41168571Y-40103333D01*
X41092380Y-40103333D01*
X41054285Y-40122380D01*
X41035238Y-40141428D01*
X41016190Y-40179523D01*
X34182857Y-42942857D02*
X34163809Y-42961904D01*
X34106666Y-42980952D01*
X34068571Y-42980952D01*
X34011428Y-42961904D01*
X33973333Y-42923809D01*
X33954285Y-42885714D01*
X33935238Y-42809523D01*
X33935238Y-42752380D01*
X33954285Y-42676190D01*
X33973333Y-42638095D01*
X34011428Y-42600000D01*
X34068571Y-42580952D01*
X34106666Y-42580952D01*
X34163809Y-42600000D01*
X34182857Y-42619047D01*
X34316190Y-42580952D02*
X34563809Y-42580952D01*
X34430476Y-42733333D01*
X34487619Y-42733333D01*
X34525714Y-42752380D01*
X34544761Y-42771428D01*
X34563809Y-42809523D01*
X34563809Y-42904761D01*
X34544761Y-42942857D01*
X34525714Y-42961904D01*
X34487619Y-42980952D01*
X34373333Y-42980952D01*
X34335238Y-42961904D01*
X34316190Y-42942857D01*
X34925714Y-42580952D02*
X34735238Y-42580952D01*
X34716190Y-42771428D01*
X34735238Y-42752380D01*
X34773333Y-42733333D01*
X34868571Y-42733333D01*
X34906666Y-42752380D01*
X34925714Y-42771428D01*
X34944761Y-42809523D01*
X34944761Y-42904761D01*
X34925714Y-42942857D01*
X34906666Y-42961904D01*
X34868571Y-42980952D01*
X34773333Y-42980952D01*
X34735238Y-42961904D01*
X34716190Y-42942857D01*
X31592857Y-45072857D02*
X31573809Y-45091904D01*
X31516666Y-45110952D01*
X31478571Y-45110952D01*
X31421428Y-45091904D01*
X31383333Y-45053809D01*
X31364285Y-45015714D01*
X31345238Y-44939523D01*
X31345238Y-44882380D01*
X31364285Y-44806190D01*
X31383333Y-44768095D01*
X31421428Y-44730000D01*
X31478571Y-44710952D01*
X31516666Y-44710952D01*
X31573809Y-44730000D01*
X31592857Y-44749047D01*
X31745238Y-44749047D02*
X31764285Y-44730000D01*
X31802380Y-44710952D01*
X31897619Y-44710952D01*
X31935714Y-44730000D01*
X31954761Y-44749047D01*
X31973809Y-44787142D01*
X31973809Y-44825238D01*
X31954761Y-44882380D01*
X31726190Y-45110952D01*
X31973809Y-45110952D01*
X32107142Y-44710952D02*
X32373809Y-44710952D01*
X32202380Y-45110952D01*
X35317857Y-30255952D02*
X35184523Y-30065476D01*
X35089285Y-30255952D02*
X35089285Y-29855952D01*
X35241666Y-29855952D01*
X35279761Y-29875000D01*
X35298809Y-29894047D01*
X35317857Y-29932142D01*
X35317857Y-29989285D01*
X35298809Y-30027380D01*
X35279761Y-30046428D01*
X35241666Y-30065476D01*
X35089285Y-30065476D01*
X35470238Y-29894047D02*
X35489285Y-29875000D01*
X35527380Y-29855952D01*
X35622619Y-29855952D01*
X35660714Y-29875000D01*
X35679761Y-29894047D01*
X35698809Y-29932142D01*
X35698809Y-29970238D01*
X35679761Y-30027380D01*
X35451190Y-30255952D01*
X35698809Y-30255952D01*
X35851190Y-29894047D02*
X35870238Y-29875000D01*
X35908333Y-29855952D01*
X36003571Y-29855952D01*
X36041666Y-29875000D01*
X36060714Y-29894047D01*
X36079761Y-29932142D01*
X36079761Y-29970238D01*
X36060714Y-30027380D01*
X35832142Y-30255952D01*
X36079761Y-30255952D01*
X39217857Y-30305952D02*
X39084523Y-30115476D01*
X38989285Y-30305952D02*
X38989285Y-29905952D01*
X39141666Y-29905952D01*
X39179761Y-29925000D01*
X39198809Y-29944047D01*
X39217857Y-29982142D01*
X39217857Y-30039285D01*
X39198809Y-30077380D01*
X39179761Y-30096428D01*
X39141666Y-30115476D01*
X38989285Y-30115476D01*
X39598809Y-30305952D02*
X39370238Y-30305952D01*
X39484523Y-30305952D02*
X39484523Y-29905952D01*
X39446428Y-29963095D01*
X39408333Y-30001190D01*
X39370238Y-30020238D01*
X39827380Y-30077380D02*
X39789285Y-30058333D01*
X39770238Y-30039285D01*
X39751190Y-30001190D01*
X39751190Y-29982142D01*
X39770238Y-29944047D01*
X39789285Y-29925000D01*
X39827380Y-29905952D01*
X39903571Y-29905952D01*
X39941666Y-29925000D01*
X39960714Y-29944047D01*
X39979761Y-29982142D01*
X39979761Y-30001190D01*
X39960714Y-30039285D01*
X39941666Y-30058333D01*
X39903571Y-30077380D01*
X39827380Y-30077380D01*
X39789285Y-30096428D01*
X39770238Y-30115476D01*
X39751190Y-30153571D01*
X39751190Y-30229761D01*
X39770238Y-30267857D01*
X39789285Y-30286904D01*
X39827380Y-30305952D01*
X39903571Y-30305952D01*
X39941666Y-30286904D01*
X39960714Y-30267857D01*
X39979761Y-30229761D01*
X39979761Y-30153571D01*
X39960714Y-30115476D01*
X39941666Y-30096428D01*
X39903571Y-30077380D01*
X74620833Y-35872857D02*
X74601785Y-35891904D01*
X74544642Y-35910952D01*
X74506547Y-35910952D01*
X74449404Y-35891904D01*
X74411309Y-35853809D01*
X74392261Y-35815714D01*
X74373214Y-35739523D01*
X74373214Y-35682380D01*
X74392261Y-35606190D01*
X74411309Y-35568095D01*
X74449404Y-35530000D01*
X74506547Y-35510952D01*
X74544642Y-35510952D01*
X74601785Y-35530000D01*
X74620833Y-35549047D01*
X74963690Y-35644285D02*
X74963690Y-35910952D01*
X74868452Y-35491904D02*
X74773214Y-35777619D01*
X75020833Y-35777619D01*
X62541666Y-57455952D02*
X62541666Y-57741666D01*
X62522619Y-57798809D01*
X62484523Y-57836904D01*
X62427380Y-57855952D01*
X62389285Y-57855952D01*
X62732142Y-57855952D02*
X62732142Y-57455952D01*
X62884523Y-57455952D01*
X62922619Y-57475000D01*
X62941666Y-57494047D01*
X62960714Y-57532142D01*
X62960714Y-57589285D01*
X62941666Y-57627380D01*
X62922619Y-57646428D01*
X62884523Y-57665476D01*
X62732142Y-57665476D01*
X63113095Y-57494047D02*
X63132142Y-57475000D01*
X63170238Y-57455952D01*
X63265476Y-57455952D01*
X63303571Y-57475000D01*
X63322619Y-57494047D01*
X63341666Y-57532142D01*
X63341666Y-57570238D01*
X63322619Y-57627380D01*
X63094047Y-57855952D01*
X63341666Y-57855952D01*
X22716666Y-27955952D02*
X22716666Y-28241666D01*
X22697619Y-28298809D01*
X22659523Y-28336904D01*
X22602380Y-28355952D01*
X22564285Y-28355952D01*
X22964285Y-28127380D02*
X22926190Y-28108333D01*
X22907142Y-28089285D01*
X22888095Y-28051190D01*
X22888095Y-28032142D01*
X22907142Y-27994047D01*
X22926190Y-27975000D01*
X22964285Y-27955952D01*
X23040476Y-27955952D01*
X23078571Y-27975000D01*
X23097619Y-27994047D01*
X23116666Y-28032142D01*
X23116666Y-28051190D01*
X23097619Y-28089285D01*
X23078571Y-28108333D01*
X23040476Y-28127380D01*
X22964285Y-28127380D01*
X22926190Y-28146428D01*
X22907142Y-28165476D01*
X22888095Y-28203571D01*
X22888095Y-28279761D01*
X22907142Y-28317857D01*
X22926190Y-28336904D01*
X22964285Y-28355952D01*
X23040476Y-28355952D01*
X23078571Y-28336904D01*
X23097619Y-28317857D01*
X23116666Y-28279761D01*
X23116666Y-28203571D01*
X23097619Y-28165476D01*
X23078571Y-28146428D01*
X23040476Y-28127380D01*
X35266666Y-27980952D02*
X35266666Y-28266666D01*
X35247619Y-28323809D01*
X35209523Y-28361904D01*
X35152380Y-28380952D01*
X35114285Y-28380952D01*
X35419047Y-27980952D02*
X35685714Y-27980952D01*
X35514285Y-28380952D01*
X22242857Y-65780952D02*
X22109523Y-65590476D01*
X22014285Y-65780952D02*
X22014285Y-65380952D01*
X22166666Y-65380952D01*
X22204761Y-65400000D01*
X22223809Y-65419047D01*
X22242857Y-65457142D01*
X22242857Y-65514285D01*
X22223809Y-65552380D01*
X22204761Y-65571428D01*
X22166666Y-65590476D01*
X22014285Y-65590476D01*
X22623809Y-65780952D02*
X22395238Y-65780952D01*
X22509523Y-65780952D02*
X22509523Y-65380952D01*
X22471428Y-65438095D01*
X22433333Y-65476190D01*
X22395238Y-65495238D01*
X22757142Y-65380952D02*
X23023809Y-65380952D01*
X22852380Y-65780952D01*
X21633333Y-57230952D02*
X21500000Y-57040476D01*
X21404761Y-57230952D02*
X21404761Y-56830952D01*
X21557142Y-56830952D01*
X21595238Y-56850000D01*
X21614285Y-56869047D01*
X21633333Y-56907142D01*
X21633333Y-56964285D01*
X21614285Y-57002380D01*
X21595238Y-57021428D01*
X21557142Y-57040476D01*
X21404761Y-57040476D01*
X21976190Y-56830952D02*
X21900000Y-56830952D01*
X21861904Y-56850000D01*
X21842857Y-56869047D01*
X21804761Y-56926190D01*
X21785714Y-57002380D01*
X21785714Y-57154761D01*
X21804761Y-57192857D01*
X21823809Y-57211904D01*
X21861904Y-57230952D01*
X21938095Y-57230952D01*
X21976190Y-57211904D01*
X21995238Y-57192857D01*
X22014285Y-57154761D01*
X22014285Y-57059523D01*
X21995238Y-57021428D01*
X21976190Y-57002380D01*
X21938095Y-56983333D01*
X21861904Y-56983333D01*
X21823809Y-57002380D01*
X21804761Y-57021428D01*
X21785714Y-57059523D01*
X20967857Y-65767857D02*
X20948809Y-65786904D01*
X20891666Y-65805952D01*
X20853571Y-65805952D01*
X20796428Y-65786904D01*
X20758333Y-65748809D01*
X20739285Y-65710714D01*
X20720238Y-65634523D01*
X20720238Y-65577380D01*
X20739285Y-65501190D01*
X20758333Y-65463095D01*
X20796428Y-65425000D01*
X20853571Y-65405952D01*
X20891666Y-65405952D01*
X20948809Y-65425000D01*
X20967857Y-65444047D01*
X21310714Y-65539285D02*
X21310714Y-65805952D01*
X21215476Y-65386904D02*
X21120238Y-65672619D01*
X21367857Y-65672619D01*
X21501190Y-65444047D02*
X21520238Y-65425000D01*
X21558333Y-65405952D01*
X21653571Y-65405952D01*
X21691666Y-65425000D01*
X21710714Y-65444047D01*
X21729761Y-65482142D01*
X21729761Y-65520238D01*
X21710714Y-65577380D01*
X21482142Y-65805952D01*
X21729761Y-65805952D01*
X53961904Y-66144047D02*
X53923809Y-66125000D01*
X53885714Y-66086904D01*
X53828571Y-66029761D01*
X53790476Y-66010714D01*
X53752380Y-66010714D01*
X53771428Y-66105952D02*
X53733333Y-66086904D01*
X53695238Y-66048809D01*
X53676190Y-65972619D01*
X53676190Y-65839285D01*
X53695238Y-65763095D01*
X53733333Y-65725000D01*
X53771428Y-65705952D01*
X53847619Y-65705952D01*
X53885714Y-65725000D01*
X53923809Y-65763095D01*
X53942857Y-65839285D01*
X53942857Y-65972619D01*
X53923809Y-66048809D01*
X53885714Y-66086904D01*
X53847619Y-66105952D01*
X53771428Y-66105952D01*
X54323809Y-66105952D02*
X54095238Y-66105952D01*
X54209523Y-66105952D02*
X54209523Y-65705952D01*
X54171428Y-65763095D01*
X54133333Y-65801190D01*
X54095238Y-65820238D01*
X50183333Y-56855952D02*
X50050000Y-56665476D01*
X49954761Y-56855952D02*
X49954761Y-56455952D01*
X50107142Y-56455952D01*
X50145238Y-56475000D01*
X50164285Y-56494047D01*
X50183333Y-56532142D01*
X50183333Y-56589285D01*
X50164285Y-56627380D01*
X50145238Y-56646428D01*
X50107142Y-56665476D01*
X49954761Y-56665476D01*
X50564285Y-56855952D02*
X50335714Y-56855952D01*
X50450000Y-56855952D02*
X50450000Y-56455952D01*
X50411904Y-56513095D01*
X50373809Y-56551190D01*
X50335714Y-56570238D01*
X67345238Y-34605952D02*
X67345238Y-34929761D01*
X67364285Y-34967857D01*
X67383333Y-34986904D01*
X67421428Y-35005952D01*
X67497619Y-35005952D01*
X67535714Y-34986904D01*
X67554761Y-34967857D01*
X67573809Y-34929761D01*
X67573809Y-34605952D01*
X67973809Y-35005952D02*
X67745238Y-35005952D01*
X67859523Y-35005952D02*
X67859523Y-34605952D01*
X67821428Y-34663095D01*
X67783333Y-34701190D01*
X67745238Y-34720238D01*
X73820238Y-34495952D02*
X73820238Y-34819761D01*
X73839285Y-34857857D01*
X73858333Y-34876904D01*
X73896428Y-34895952D01*
X73972619Y-34895952D01*
X74010714Y-34876904D01*
X74029761Y-34857857D01*
X74048809Y-34819761D01*
X74048809Y-34495952D01*
X74410714Y-34629285D02*
X74410714Y-34895952D01*
X74315476Y-34476904D02*
X74220238Y-34762619D01*
X74467857Y-34762619D01*
X56955357Y-28930952D02*
X56822023Y-28740476D01*
X56726785Y-28930952D02*
X56726785Y-28530952D01*
X56879166Y-28530952D01*
X56917261Y-28550000D01*
X56936309Y-28569047D01*
X56955357Y-28607142D01*
X56955357Y-28664285D01*
X56936309Y-28702380D01*
X56917261Y-28721428D01*
X56879166Y-28740476D01*
X56726785Y-28740476D01*
X57107738Y-28569047D02*
X57126785Y-28550000D01*
X57164880Y-28530952D01*
X57260119Y-28530952D01*
X57298214Y-28550000D01*
X57317261Y-28569047D01*
X57336309Y-28607142D01*
X57336309Y-28645238D01*
X57317261Y-28702380D01*
X57088690Y-28930952D01*
X57336309Y-28930952D01*
X57717261Y-28930952D02*
X57488690Y-28930952D01*
X57602976Y-28930952D02*
X57602976Y-28530952D01*
X57564880Y-28588095D01*
X57526785Y-28626190D01*
X57488690Y-28645238D01*
X67142857Y-29830952D02*
X67009523Y-29640476D01*
X66914285Y-29830952D02*
X66914285Y-29430952D01*
X67066666Y-29430952D01*
X67104761Y-29450000D01*
X67123809Y-29469047D01*
X67142857Y-29507142D01*
X67142857Y-29564285D01*
X67123809Y-29602380D01*
X67104761Y-29621428D01*
X67066666Y-29640476D01*
X66914285Y-29640476D01*
X67295238Y-29469047D02*
X67314285Y-29450000D01*
X67352380Y-29430952D01*
X67447619Y-29430952D01*
X67485714Y-29450000D01*
X67504761Y-29469047D01*
X67523809Y-29507142D01*
X67523809Y-29545238D01*
X67504761Y-29602380D01*
X67276190Y-29830952D01*
X67523809Y-29830952D01*
X67771428Y-29430952D02*
X67809523Y-29430952D01*
X67847619Y-29450000D01*
X67866666Y-29469047D01*
X67885714Y-29507142D01*
X67904761Y-29583333D01*
X67904761Y-29678571D01*
X67885714Y-29754761D01*
X67866666Y-29792857D01*
X67847619Y-29811904D01*
X67809523Y-29830952D01*
X67771428Y-29830952D01*
X67733333Y-29811904D01*
X67714285Y-29792857D01*
X67695238Y-29754761D01*
X67676190Y-29678571D01*
X67676190Y-29583333D01*
X67695238Y-29507142D01*
X67714285Y-29469047D01*
X67733333Y-29450000D01*
X67771428Y-29430952D01*
X68511904Y-28069047D02*
X68473809Y-28050000D01*
X68435714Y-28011904D01*
X68378571Y-27954761D01*
X68340476Y-27935714D01*
X68302380Y-27935714D01*
X68321428Y-28030952D02*
X68283333Y-28011904D01*
X68245238Y-27973809D01*
X68226190Y-27897619D01*
X68226190Y-27764285D01*
X68245238Y-27688095D01*
X68283333Y-27650000D01*
X68321428Y-27630952D01*
X68397619Y-27630952D01*
X68435714Y-27650000D01*
X68473809Y-27688095D01*
X68492857Y-27764285D01*
X68492857Y-27897619D01*
X68473809Y-27973809D01*
X68435714Y-28011904D01*
X68397619Y-28030952D01*
X68321428Y-28030952D01*
X68645238Y-27669047D02*
X68664285Y-27650000D01*
X68702380Y-27630952D01*
X68797619Y-27630952D01*
X68835714Y-27650000D01*
X68854761Y-27669047D01*
X68873809Y-27707142D01*
X68873809Y-27745238D01*
X68854761Y-27802380D01*
X68626190Y-28030952D01*
X68873809Y-28030952D01*
X60489285Y-27805952D02*
X60489285Y-27405952D01*
X60584523Y-27405952D01*
X60641666Y-27425000D01*
X60679761Y-27463095D01*
X60698809Y-27501190D01*
X60717857Y-27577380D01*
X60717857Y-27634523D01*
X60698809Y-27710714D01*
X60679761Y-27748809D01*
X60641666Y-27786904D01*
X60584523Y-27805952D01*
X60489285Y-27805952D01*
X61098809Y-27805952D02*
X60870238Y-27805952D01*
X60984523Y-27805952D02*
X60984523Y-27405952D01*
X60946428Y-27463095D01*
X60908333Y-27501190D01*
X60870238Y-27520238D01*
X61289285Y-27805952D02*
X61365476Y-27805952D01*
X61403571Y-27786904D01*
X61422619Y-27767857D01*
X61460714Y-27710714D01*
X61479761Y-27634523D01*
X61479761Y-27482142D01*
X61460714Y-27444047D01*
X61441666Y-27425000D01*
X61403571Y-27405952D01*
X61327380Y-27405952D01*
X61289285Y-27425000D01*
X61270238Y-27444047D01*
X61251190Y-27482142D01*
X61251190Y-27577380D01*
X61270238Y-27615476D01*
X61289285Y-27634523D01*
X61327380Y-27653571D01*
X61403571Y-27653571D01*
X61441666Y-27634523D01*
X61460714Y-27615476D01*
X61479761Y-27577380D01*
X75167857Y-40727857D02*
X75148809Y-40746904D01*
X75091666Y-40765952D01*
X75053571Y-40765952D01*
X74996428Y-40746904D01*
X74958333Y-40708809D01*
X74939285Y-40670714D01*
X74920238Y-40594523D01*
X74920238Y-40537380D01*
X74939285Y-40461190D01*
X74958333Y-40423095D01*
X74996428Y-40385000D01*
X75053571Y-40365952D01*
X75091666Y-40365952D01*
X75148809Y-40385000D01*
X75167857Y-40404047D01*
X75510714Y-40499285D02*
X75510714Y-40765952D01*
X75415476Y-40346904D02*
X75320238Y-40632619D01*
X75567857Y-40632619D01*
X75929761Y-40765952D02*
X75701190Y-40765952D01*
X75815476Y-40765952D02*
X75815476Y-40365952D01*
X75777380Y-40423095D01*
X75739285Y-40461190D01*
X75701190Y-40480238D01*
X57267857Y-32292857D02*
X57248809Y-32311904D01*
X57191666Y-32330952D01*
X57153571Y-32330952D01*
X57096428Y-32311904D01*
X57058333Y-32273809D01*
X57039285Y-32235714D01*
X57020238Y-32159523D01*
X57020238Y-32102380D01*
X57039285Y-32026190D01*
X57058333Y-31988095D01*
X57096428Y-31950000D01*
X57153571Y-31930952D01*
X57191666Y-31930952D01*
X57248809Y-31950000D01*
X57267857Y-31969047D01*
X57610714Y-32064285D02*
X57610714Y-32330952D01*
X57515476Y-31911904D02*
X57420238Y-32197619D01*
X57667857Y-32197619D01*
X57896428Y-31930952D02*
X57934523Y-31930952D01*
X57972619Y-31950000D01*
X57991666Y-31969047D01*
X58010714Y-32007142D01*
X58029761Y-32083333D01*
X58029761Y-32178571D01*
X58010714Y-32254761D01*
X57991666Y-32292857D01*
X57972619Y-32311904D01*
X57934523Y-32330952D01*
X57896428Y-32330952D01*
X57858333Y-32311904D01*
X57839285Y-32292857D01*
X57820238Y-32254761D01*
X57801190Y-32178571D01*
X57801190Y-32083333D01*
X57820238Y-32007142D01*
X57839285Y-31969047D01*
X57858333Y-31950000D01*
X57896428Y-31930952D01*
X61342857Y-30567857D02*
X61323809Y-30586904D01*
X61266666Y-30605952D01*
X61228571Y-30605952D01*
X61171428Y-30586904D01*
X61133333Y-30548809D01*
X61114285Y-30510714D01*
X61095238Y-30434523D01*
X61095238Y-30377380D01*
X61114285Y-30301190D01*
X61133333Y-30263095D01*
X61171428Y-30225000D01*
X61228571Y-30205952D01*
X61266666Y-30205952D01*
X61323809Y-30225000D01*
X61342857Y-30244047D01*
X61476190Y-30205952D02*
X61723809Y-30205952D01*
X61590476Y-30358333D01*
X61647619Y-30358333D01*
X61685714Y-30377380D01*
X61704761Y-30396428D01*
X61723809Y-30434523D01*
X61723809Y-30529761D01*
X61704761Y-30567857D01*
X61685714Y-30586904D01*
X61647619Y-30605952D01*
X61533333Y-30605952D01*
X61495238Y-30586904D01*
X61476190Y-30567857D01*
X61914285Y-30605952D02*
X61990476Y-30605952D01*
X62028571Y-30586904D01*
X62047619Y-30567857D01*
X62085714Y-30510714D01*
X62104761Y-30434523D01*
X62104761Y-30282142D01*
X62085714Y-30244047D01*
X62066666Y-30225000D01*
X62028571Y-30205952D01*
X61952380Y-30205952D01*
X61914285Y-30225000D01*
X61895238Y-30244047D01*
X61876190Y-30282142D01*
X61876190Y-30377380D01*
X61895238Y-30415476D01*
X61914285Y-30434523D01*
X61952380Y-30453571D01*
X62028571Y-30453571D01*
X62066666Y-30434523D01*
X62085714Y-30415476D01*
X62104761Y-30377380D01*
X46742857Y-57580952D02*
X46609523Y-57390476D01*
X46514285Y-57580952D02*
X46514285Y-57180952D01*
X46666666Y-57180952D01*
X46704761Y-57200000D01*
X46723809Y-57219047D01*
X46742857Y-57257142D01*
X46742857Y-57314285D01*
X46723809Y-57352380D01*
X46704761Y-57371428D01*
X46666666Y-57390476D01*
X46514285Y-57390476D01*
X47123809Y-57580952D02*
X46895238Y-57580952D01*
X47009523Y-57580952D02*
X47009523Y-57180952D01*
X46971428Y-57238095D01*
X46933333Y-57276190D01*
X46895238Y-57295238D01*
X47466666Y-57314285D02*
X47466666Y-57580952D01*
X47371428Y-57161904D02*
X47276190Y-57447619D01*
X47523809Y-57447619D01*
X44314285Y-62755952D02*
X44314285Y-62355952D01*
X44409523Y-62355952D01*
X44466666Y-62375000D01*
X44504761Y-62413095D01*
X44523809Y-62451190D01*
X44542857Y-62527380D01*
X44542857Y-62584523D01*
X44523809Y-62660714D01*
X44504761Y-62698809D01*
X44466666Y-62736904D01*
X44409523Y-62755952D01*
X44314285Y-62755952D01*
X44923809Y-62755952D02*
X44695238Y-62755952D01*
X44809523Y-62755952D02*
X44809523Y-62355952D01*
X44771428Y-62413095D01*
X44733333Y-62451190D01*
X44695238Y-62470238D01*
X45266666Y-62355952D02*
X45190476Y-62355952D01*
X45152380Y-62375000D01*
X45133333Y-62394047D01*
X45095238Y-62451190D01*
X45076190Y-62527380D01*
X45076190Y-62679761D01*
X45095238Y-62717857D01*
X45114285Y-62736904D01*
X45152380Y-62755952D01*
X45228571Y-62755952D01*
X45266666Y-62736904D01*
X45285714Y-62717857D01*
X45304761Y-62679761D01*
X45304761Y-62584523D01*
X45285714Y-62546428D01*
X45266666Y-62527380D01*
X45228571Y-62508333D01*
X45152380Y-62508333D01*
X45114285Y-62527380D01*
X45095238Y-62546428D01*
X45076190Y-62584523D01*
X30739285Y-53705952D02*
X30739285Y-53305952D01*
X30834523Y-53305952D01*
X30891666Y-53325000D01*
X30929761Y-53363095D01*
X30948809Y-53401190D01*
X30967857Y-53477380D01*
X30967857Y-53534523D01*
X30948809Y-53610714D01*
X30929761Y-53648809D01*
X30891666Y-53686904D01*
X30834523Y-53705952D01*
X30739285Y-53705952D01*
X31348809Y-53705952D02*
X31120238Y-53705952D01*
X31234523Y-53705952D02*
X31234523Y-53305952D01*
X31196428Y-53363095D01*
X31158333Y-53401190D01*
X31120238Y-53420238D01*
X31710714Y-53305952D02*
X31520238Y-53305952D01*
X31501190Y-53496428D01*
X31520238Y-53477380D01*
X31558333Y-53458333D01*
X31653571Y-53458333D01*
X31691666Y-53477380D01*
X31710714Y-53496428D01*
X31729761Y-53534523D01*
X31729761Y-53629761D01*
X31710714Y-53667857D01*
X31691666Y-53686904D01*
X31653571Y-53705952D01*
X31558333Y-53705952D01*
X31520238Y-53686904D01*
X31501190Y-53667857D01*
X28214285Y-50805952D02*
X28214285Y-50405952D01*
X28309523Y-50405952D01*
X28366666Y-50425000D01*
X28404761Y-50463095D01*
X28423809Y-50501190D01*
X28442857Y-50577380D01*
X28442857Y-50634523D01*
X28423809Y-50710714D01*
X28404761Y-50748809D01*
X28366666Y-50786904D01*
X28309523Y-50805952D01*
X28214285Y-50805952D01*
X28823809Y-50805952D02*
X28595238Y-50805952D01*
X28709523Y-50805952D02*
X28709523Y-50405952D01*
X28671428Y-50463095D01*
X28633333Y-50501190D01*
X28595238Y-50520238D01*
X29166666Y-50539285D02*
X29166666Y-50805952D01*
X29071428Y-50386904D02*
X28976190Y-50672619D01*
X29223809Y-50672619D01*
X23314285Y-62605952D02*
X23314285Y-62205952D01*
X23409523Y-62205952D01*
X23466666Y-62225000D01*
X23504761Y-62263095D01*
X23523809Y-62301190D01*
X23542857Y-62377380D01*
X23542857Y-62434523D01*
X23523809Y-62510714D01*
X23504761Y-62548809D01*
X23466666Y-62586904D01*
X23409523Y-62605952D01*
X23314285Y-62605952D01*
X23923809Y-62605952D02*
X23695238Y-62605952D01*
X23809523Y-62605952D02*
X23809523Y-62205952D01*
X23771428Y-62263095D01*
X23733333Y-62301190D01*
X23695238Y-62320238D01*
X24057142Y-62205952D02*
X24304761Y-62205952D01*
X24171428Y-62358333D01*
X24228571Y-62358333D01*
X24266666Y-62377380D01*
X24285714Y-62396428D01*
X24304761Y-62434523D01*
X24304761Y-62529761D01*
X24285714Y-62567857D01*
X24266666Y-62586904D01*
X24228571Y-62605952D01*
X24114285Y-62605952D01*
X24076190Y-62586904D01*
X24057142Y-62567857D01*
X56264285Y-33080952D02*
X56264285Y-32680952D01*
X56359523Y-32680952D01*
X56416666Y-32700000D01*
X56454761Y-32738095D01*
X56473809Y-32776190D01*
X56492857Y-32852380D01*
X56492857Y-32909523D01*
X56473809Y-32985714D01*
X56454761Y-33023809D01*
X56416666Y-33061904D01*
X56359523Y-33080952D01*
X56264285Y-33080952D01*
X56873809Y-33080952D02*
X56645238Y-33080952D01*
X56759523Y-33080952D02*
X56759523Y-32680952D01*
X56721428Y-32738095D01*
X56683333Y-32776190D01*
X56645238Y-32795238D01*
X57026190Y-32719047D02*
X57045238Y-32700000D01*
X57083333Y-32680952D01*
X57178571Y-32680952D01*
X57216666Y-32700000D01*
X57235714Y-32719047D01*
X57254761Y-32757142D01*
X57254761Y-32795238D01*
X57235714Y-32852380D01*
X57007142Y-33080952D01*
X57254761Y-33080952D01*
X49014285Y-34530952D02*
X49014285Y-34130952D01*
X49109523Y-34130952D01*
X49166666Y-34150000D01*
X49204761Y-34188095D01*
X49223809Y-34226190D01*
X49242857Y-34302380D01*
X49242857Y-34359523D01*
X49223809Y-34435714D01*
X49204761Y-34473809D01*
X49166666Y-34511904D01*
X49109523Y-34530952D01*
X49014285Y-34530952D01*
X49623809Y-34530952D02*
X49395238Y-34530952D01*
X49509523Y-34530952D02*
X49509523Y-34130952D01*
X49471428Y-34188095D01*
X49433333Y-34226190D01*
X49395238Y-34245238D01*
X50004761Y-34530952D02*
X49776190Y-34530952D01*
X49890476Y-34530952D02*
X49890476Y-34130952D01*
X49852380Y-34188095D01*
X49814285Y-34226190D01*
X49776190Y-34245238D01*
X59514285Y-49205952D02*
X59514285Y-48805952D01*
X59609523Y-48805952D01*
X59666666Y-48825000D01*
X59704761Y-48863095D01*
X59723809Y-48901190D01*
X59742857Y-48977380D01*
X59742857Y-49034523D01*
X59723809Y-49110714D01*
X59704761Y-49148809D01*
X59666666Y-49186904D01*
X59609523Y-49205952D01*
X59514285Y-49205952D01*
X60123809Y-49205952D02*
X59895238Y-49205952D01*
X60009523Y-49205952D02*
X60009523Y-48805952D01*
X59971428Y-48863095D01*
X59933333Y-48901190D01*
X59895238Y-48920238D01*
X60371428Y-48805952D02*
X60409523Y-48805952D01*
X60447619Y-48825000D01*
X60466666Y-48844047D01*
X60485714Y-48882142D01*
X60504761Y-48958333D01*
X60504761Y-49053571D01*
X60485714Y-49129761D01*
X60466666Y-49167857D01*
X60447619Y-49186904D01*
X60409523Y-49205952D01*
X60371428Y-49205952D01*
X60333333Y-49186904D01*
X60314285Y-49167857D01*
X60295238Y-49129761D01*
X60276190Y-49053571D01*
X60276190Y-48958333D01*
X60295238Y-48882142D01*
X60314285Y-48844047D01*
X60333333Y-48825000D01*
X60371428Y-48805952D01*
X56254761Y-35030952D02*
X56254761Y-34630952D01*
X56350000Y-34630952D01*
X56407142Y-34650000D01*
X56445238Y-34688095D01*
X56464285Y-34726190D01*
X56483333Y-34802380D01*
X56483333Y-34859523D01*
X56464285Y-34935714D01*
X56445238Y-34973809D01*
X56407142Y-35011904D01*
X56350000Y-35030952D01*
X56254761Y-35030952D01*
X56673809Y-35030952D02*
X56750000Y-35030952D01*
X56788095Y-35011904D01*
X56807142Y-34992857D01*
X56845238Y-34935714D01*
X56864285Y-34859523D01*
X56864285Y-34707142D01*
X56845238Y-34669047D01*
X56826190Y-34650000D01*
X56788095Y-34630952D01*
X56711904Y-34630952D01*
X56673809Y-34650000D01*
X56654761Y-34669047D01*
X56635714Y-34707142D01*
X56635714Y-34802380D01*
X56654761Y-34840476D01*
X56673809Y-34859523D01*
X56711904Y-34878571D01*
X56788095Y-34878571D01*
X56826190Y-34859523D01*
X56845238Y-34840476D01*
X56864285Y-34802380D01*
X50804761Y-47180952D02*
X50804761Y-46780952D01*
X50900000Y-46780952D01*
X50957142Y-46800000D01*
X50995238Y-46838095D01*
X51014285Y-46876190D01*
X51033333Y-46952380D01*
X51033333Y-47009523D01*
X51014285Y-47085714D01*
X50995238Y-47123809D01*
X50957142Y-47161904D01*
X50900000Y-47180952D01*
X50804761Y-47180952D01*
X51261904Y-46952380D02*
X51223809Y-46933333D01*
X51204761Y-46914285D01*
X51185714Y-46876190D01*
X51185714Y-46857142D01*
X51204761Y-46819047D01*
X51223809Y-46800000D01*
X51261904Y-46780952D01*
X51338095Y-46780952D01*
X51376190Y-46800000D01*
X51395238Y-46819047D01*
X51414285Y-46857142D01*
X51414285Y-46876190D01*
X51395238Y-46914285D01*
X51376190Y-46933333D01*
X51338095Y-46952380D01*
X51261904Y-46952380D01*
X51223809Y-46971428D01*
X51204761Y-46990476D01*
X51185714Y-47028571D01*
X51185714Y-47104761D01*
X51204761Y-47142857D01*
X51223809Y-47161904D01*
X51261904Y-47180952D01*
X51338095Y-47180952D01*
X51376190Y-47161904D01*
X51395238Y-47142857D01*
X51414285Y-47104761D01*
X51414285Y-47028571D01*
X51395238Y-46990476D01*
X51376190Y-46971428D01*
X51338095Y-46952380D01*
X63629761Y-49205952D02*
X63629761Y-48805952D01*
X63725000Y-48805952D01*
X63782142Y-48825000D01*
X63820238Y-48863095D01*
X63839285Y-48901190D01*
X63858333Y-48977380D01*
X63858333Y-49034523D01*
X63839285Y-49110714D01*
X63820238Y-49148809D01*
X63782142Y-49186904D01*
X63725000Y-49205952D01*
X63629761Y-49205952D01*
X63991666Y-48805952D02*
X64258333Y-48805952D01*
X64086904Y-49205952D01*
X58454761Y-49205952D02*
X58454761Y-48805952D01*
X58550000Y-48805952D01*
X58607142Y-48825000D01*
X58645238Y-48863095D01*
X58664285Y-48901190D01*
X58683333Y-48977380D01*
X58683333Y-49034523D01*
X58664285Y-49110714D01*
X58645238Y-49148809D01*
X58607142Y-49186904D01*
X58550000Y-49205952D01*
X58454761Y-49205952D01*
X59026190Y-48805952D02*
X58950000Y-48805952D01*
X58911904Y-48825000D01*
X58892857Y-48844047D01*
X58854761Y-48901190D01*
X58835714Y-48977380D01*
X58835714Y-49129761D01*
X58854761Y-49167857D01*
X58873809Y-49186904D01*
X58911904Y-49205952D01*
X58988095Y-49205952D01*
X59026190Y-49186904D01*
X59045238Y-49167857D01*
X59064285Y-49129761D01*
X59064285Y-49034523D01*
X59045238Y-48996428D01*
X59026190Y-48977380D01*
X58988095Y-48958333D01*
X58911904Y-48958333D01*
X58873809Y-48977380D01*
X58854761Y-48996428D01*
X58835714Y-49034523D01*
X61654761Y-49180952D02*
X61654761Y-48780952D01*
X61750000Y-48780952D01*
X61807142Y-48800000D01*
X61845238Y-48838095D01*
X61864285Y-48876190D01*
X61883333Y-48952380D01*
X61883333Y-49009523D01*
X61864285Y-49085714D01*
X61845238Y-49123809D01*
X61807142Y-49161904D01*
X61750000Y-49180952D01*
X61654761Y-49180952D01*
X62245238Y-48780952D02*
X62054761Y-48780952D01*
X62035714Y-48971428D01*
X62054761Y-48952380D01*
X62092857Y-48933333D01*
X62188095Y-48933333D01*
X62226190Y-48952380D01*
X62245238Y-48971428D01*
X62264285Y-49009523D01*
X62264285Y-49104761D01*
X62245238Y-49142857D01*
X62226190Y-49161904D01*
X62188095Y-49180952D01*
X62092857Y-49180952D01*
X62054761Y-49161904D01*
X62035714Y-49142857D01*
X53604761Y-47655952D02*
X53604761Y-47255952D01*
X53700000Y-47255952D01*
X53757142Y-47275000D01*
X53795238Y-47313095D01*
X53814285Y-47351190D01*
X53833333Y-47427380D01*
X53833333Y-47484523D01*
X53814285Y-47560714D01*
X53795238Y-47598809D01*
X53757142Y-47636904D01*
X53700000Y-47655952D01*
X53604761Y-47655952D01*
X54176190Y-47389285D02*
X54176190Y-47655952D01*
X54080952Y-47236904D02*
X53985714Y-47522619D01*
X54233333Y-47522619D01*
X49154761Y-47680952D02*
X49154761Y-47280952D01*
X49250000Y-47280952D01*
X49307142Y-47300000D01*
X49345238Y-47338095D01*
X49364285Y-47376190D01*
X49383333Y-47452380D01*
X49383333Y-47509523D01*
X49364285Y-47585714D01*
X49345238Y-47623809D01*
X49307142Y-47661904D01*
X49250000Y-47680952D01*
X49154761Y-47680952D01*
X49516666Y-47280952D02*
X49764285Y-47280952D01*
X49630952Y-47433333D01*
X49688095Y-47433333D01*
X49726190Y-47452380D01*
X49745238Y-47471428D01*
X49764285Y-47509523D01*
X49764285Y-47604761D01*
X49745238Y-47642857D01*
X49726190Y-47661904D01*
X49688095Y-47680952D01*
X49573809Y-47680952D01*
X49535714Y-47661904D01*
X49516666Y-47642857D01*
X68479761Y-49255952D02*
X68479761Y-48855952D01*
X68575000Y-48855952D01*
X68632142Y-48875000D01*
X68670238Y-48913095D01*
X68689285Y-48951190D01*
X68708333Y-49027380D01*
X68708333Y-49084523D01*
X68689285Y-49160714D01*
X68670238Y-49198809D01*
X68632142Y-49236904D01*
X68575000Y-49255952D01*
X68479761Y-49255952D01*
X68860714Y-48894047D02*
X68879761Y-48875000D01*
X68917857Y-48855952D01*
X69013095Y-48855952D01*
X69051190Y-48875000D01*
X69070238Y-48894047D01*
X69089285Y-48932142D01*
X69089285Y-48970238D01*
X69070238Y-49027380D01*
X68841666Y-49255952D01*
X69089285Y-49255952D01*
X67479761Y-49230952D02*
X67479761Y-48830952D01*
X67575000Y-48830952D01*
X67632142Y-48850000D01*
X67670238Y-48888095D01*
X67689285Y-48926190D01*
X67708333Y-49002380D01*
X67708333Y-49059523D01*
X67689285Y-49135714D01*
X67670238Y-49173809D01*
X67632142Y-49211904D01*
X67575000Y-49230952D01*
X67479761Y-49230952D01*
X68089285Y-49230952D02*
X67860714Y-49230952D01*
X67975000Y-49230952D02*
X67975000Y-48830952D01*
X67936904Y-48888095D01*
X67898809Y-48926190D01*
X67860714Y-48945238D01*
X63941666Y-61505952D02*
X63941666Y-61791666D01*
X63922619Y-61848809D01*
X63884523Y-61886904D01*
X63827380Y-61905952D01*
X63789285Y-61905952D01*
X64151190Y-61905952D02*
X64227380Y-61905952D01*
X64265476Y-61886904D01*
X64284523Y-61867857D01*
X64322619Y-61810714D01*
X64341666Y-61734523D01*
X64341666Y-61582142D01*
X64322619Y-61544047D01*
X64303571Y-61525000D01*
X64265476Y-61505952D01*
X64189285Y-61505952D01*
X64151190Y-61525000D01*
X64132142Y-61544047D01*
X64113095Y-61582142D01*
X64113095Y-61677380D01*
X64132142Y-61715476D01*
X64151190Y-61734523D01*
X64189285Y-61753571D01*
X64265476Y-61753571D01*
X64303571Y-61734523D01*
X64322619Y-61715476D01*
X64341666Y-61677380D01*
X60592857Y-58780952D02*
X60459523Y-58590476D01*
X60364285Y-58780952D02*
X60364285Y-58380952D01*
X60516666Y-58380952D01*
X60554761Y-58400000D01*
X60573809Y-58419047D01*
X60592857Y-58457142D01*
X60592857Y-58514285D01*
X60573809Y-58552380D01*
X60554761Y-58571428D01*
X60516666Y-58590476D01*
X60364285Y-58590476D01*
X60935714Y-58514285D02*
X60935714Y-58780952D01*
X60840476Y-58361904D02*
X60745238Y-58647619D01*
X60992857Y-58647619D01*
X61316666Y-58380952D02*
X61240476Y-58380952D01*
X61202380Y-58400000D01*
X61183333Y-58419047D01*
X61145238Y-58476190D01*
X61126190Y-58552380D01*
X61126190Y-58704761D01*
X61145238Y-58742857D01*
X61164285Y-58761904D01*
X61202380Y-58780952D01*
X61278571Y-58780952D01*
X61316666Y-58761904D01*
X61335714Y-58742857D01*
X61354761Y-58704761D01*
X61354761Y-58609523D01*
X61335714Y-58571428D01*
X61316666Y-58552380D01*
X61278571Y-58533333D01*
X61202380Y-58533333D01*
X61164285Y-58552380D01*
X61145238Y-58571428D01*
X61126190Y-58609523D01*
X60592857Y-58030952D02*
X60459523Y-57840476D01*
X60364285Y-58030952D02*
X60364285Y-57630952D01*
X60516666Y-57630952D01*
X60554761Y-57650000D01*
X60573809Y-57669047D01*
X60592857Y-57707142D01*
X60592857Y-57764285D01*
X60573809Y-57802380D01*
X60554761Y-57821428D01*
X60516666Y-57840476D01*
X60364285Y-57840476D01*
X60935714Y-57764285D02*
X60935714Y-58030952D01*
X60840476Y-57611904D02*
X60745238Y-57897619D01*
X60992857Y-57897619D01*
X61335714Y-57630952D02*
X61145238Y-57630952D01*
X61126190Y-57821428D01*
X61145238Y-57802380D01*
X61183333Y-57783333D01*
X61278571Y-57783333D01*
X61316666Y-57802380D01*
X61335714Y-57821428D01*
X61354761Y-57859523D01*
X61354761Y-57954761D01*
X61335714Y-57992857D01*
X61316666Y-58011904D01*
X61278571Y-58030952D01*
X61183333Y-58030952D01*
X61145238Y-58011904D01*
X61126190Y-57992857D01*
X54767857Y-63655952D02*
X54634523Y-63465476D01*
X54539285Y-63655952D02*
X54539285Y-63255952D01*
X54691666Y-63255952D01*
X54729761Y-63275000D01*
X54748809Y-63294047D01*
X54767857Y-63332142D01*
X54767857Y-63389285D01*
X54748809Y-63427380D01*
X54729761Y-63446428D01*
X54691666Y-63465476D01*
X54539285Y-63465476D01*
X55148809Y-63655952D02*
X54920238Y-63655952D01*
X55034523Y-63655952D02*
X55034523Y-63255952D01*
X54996428Y-63313095D01*
X54958333Y-63351190D01*
X54920238Y-63370238D01*
X55510714Y-63255952D02*
X55320238Y-63255952D01*
X55301190Y-63446428D01*
X55320238Y-63427380D01*
X55358333Y-63408333D01*
X55453571Y-63408333D01*
X55491666Y-63427380D01*
X55510714Y-63446428D01*
X55529761Y-63484523D01*
X55529761Y-63579761D01*
X55510714Y-63617857D01*
X55491666Y-63636904D01*
X55453571Y-63655952D01*
X55358333Y-63655952D01*
X55320238Y-63636904D01*
X55301190Y-63617857D01*
X55117857Y-30655952D02*
X54984523Y-30465476D01*
X54889285Y-30655952D02*
X54889285Y-30255952D01*
X55041666Y-30255952D01*
X55079761Y-30275000D01*
X55098809Y-30294047D01*
X55117857Y-30332142D01*
X55117857Y-30389285D01*
X55098809Y-30427380D01*
X55079761Y-30446428D01*
X55041666Y-30465476D01*
X54889285Y-30465476D01*
X55498809Y-30655952D02*
X55270238Y-30655952D01*
X55384523Y-30655952D02*
X55384523Y-30255952D01*
X55346428Y-30313095D01*
X55308333Y-30351190D01*
X55270238Y-30370238D01*
X55632142Y-30255952D02*
X55879761Y-30255952D01*
X55746428Y-30408333D01*
X55803571Y-30408333D01*
X55841666Y-30427380D01*
X55860714Y-30446428D01*
X55879761Y-30484523D01*
X55879761Y-30579761D01*
X55860714Y-30617857D01*
X55841666Y-30636904D01*
X55803571Y-30655952D01*
X55689285Y-30655952D01*
X55651190Y-30636904D01*
X55632142Y-30617857D01*
X50642857Y-30055952D02*
X50509523Y-29865476D01*
X50414285Y-30055952D02*
X50414285Y-29655952D01*
X50566666Y-29655952D01*
X50604761Y-29675000D01*
X50623809Y-29694047D01*
X50642857Y-29732142D01*
X50642857Y-29789285D01*
X50623809Y-29827380D01*
X50604761Y-29846428D01*
X50566666Y-29865476D01*
X50414285Y-29865476D01*
X51023809Y-30055952D02*
X50795238Y-30055952D01*
X50909523Y-30055952D02*
X50909523Y-29655952D01*
X50871428Y-29713095D01*
X50833333Y-29751190D01*
X50795238Y-29770238D01*
X51176190Y-29694047D02*
X51195238Y-29675000D01*
X51233333Y-29655952D01*
X51328571Y-29655952D01*
X51366666Y-29675000D01*
X51385714Y-29694047D01*
X51404761Y-29732142D01*
X51404761Y-29770238D01*
X51385714Y-29827380D01*
X51157142Y-30055952D01*
X51404761Y-30055952D01*
X55417857Y-36980952D02*
X55284523Y-36790476D01*
X55189285Y-36980952D02*
X55189285Y-36580952D01*
X55341666Y-36580952D01*
X55379761Y-36600000D01*
X55398809Y-36619047D01*
X55417857Y-36657142D01*
X55417857Y-36714285D01*
X55398809Y-36752380D01*
X55379761Y-36771428D01*
X55341666Y-36790476D01*
X55189285Y-36790476D01*
X55798809Y-36980952D02*
X55570238Y-36980952D01*
X55684523Y-36980952D02*
X55684523Y-36580952D01*
X55646428Y-36638095D01*
X55608333Y-36676190D01*
X55570238Y-36695238D01*
X56179761Y-36980952D02*
X55951190Y-36980952D01*
X56065476Y-36980952D02*
X56065476Y-36580952D01*
X56027380Y-36638095D01*
X55989285Y-36676190D01*
X55951190Y-36695238D01*
X50467857Y-42755952D02*
X50334523Y-42565476D01*
X50239285Y-42755952D02*
X50239285Y-42355952D01*
X50391666Y-42355952D01*
X50429761Y-42375000D01*
X50448809Y-42394047D01*
X50467857Y-42432142D01*
X50467857Y-42489285D01*
X50448809Y-42527380D01*
X50429761Y-42546428D01*
X50391666Y-42565476D01*
X50239285Y-42565476D01*
X50848809Y-42755952D02*
X50620238Y-42755952D01*
X50734523Y-42755952D02*
X50734523Y-42355952D01*
X50696428Y-42413095D01*
X50658333Y-42451190D01*
X50620238Y-42470238D01*
X51096428Y-42355952D02*
X51134523Y-42355952D01*
X51172619Y-42375000D01*
X51191666Y-42394047D01*
X51210714Y-42432142D01*
X51229761Y-42508333D01*
X51229761Y-42603571D01*
X51210714Y-42679761D01*
X51191666Y-42717857D01*
X51172619Y-42736904D01*
X51134523Y-42755952D01*
X51096428Y-42755952D01*
X51058333Y-42736904D01*
X51039285Y-42717857D01*
X51020238Y-42679761D01*
X51001190Y-42603571D01*
X51001190Y-42508333D01*
X51020238Y-42432142D01*
X51039285Y-42394047D01*
X51058333Y-42375000D01*
X51096428Y-42355952D01*
X46558333Y-34330952D02*
X46425000Y-34140476D01*
X46329761Y-34330952D02*
X46329761Y-33930952D01*
X46482142Y-33930952D01*
X46520238Y-33950000D01*
X46539285Y-33969047D01*
X46558333Y-34007142D01*
X46558333Y-34064285D01*
X46539285Y-34102380D01*
X46520238Y-34121428D01*
X46482142Y-34140476D01*
X46329761Y-34140476D01*
X46748809Y-34330952D02*
X46825000Y-34330952D01*
X46863095Y-34311904D01*
X46882142Y-34292857D01*
X46920238Y-34235714D01*
X46939285Y-34159523D01*
X46939285Y-34007142D01*
X46920238Y-33969047D01*
X46901190Y-33950000D01*
X46863095Y-33930952D01*
X46786904Y-33930952D01*
X46748809Y-33950000D01*
X46729761Y-33969047D01*
X46710714Y-34007142D01*
X46710714Y-34102380D01*
X46729761Y-34140476D01*
X46748809Y-34159523D01*
X46786904Y-34178571D01*
X46863095Y-34178571D01*
X46901190Y-34159523D01*
X46920238Y-34140476D01*
X46939285Y-34102380D01*
X48908333Y-44505952D02*
X48775000Y-44315476D01*
X48679761Y-44505952D02*
X48679761Y-44105952D01*
X48832142Y-44105952D01*
X48870238Y-44125000D01*
X48889285Y-44144047D01*
X48908333Y-44182142D01*
X48908333Y-44239285D01*
X48889285Y-44277380D01*
X48870238Y-44296428D01*
X48832142Y-44315476D01*
X48679761Y-44315476D01*
X49136904Y-44277380D02*
X49098809Y-44258333D01*
X49079761Y-44239285D01*
X49060714Y-44201190D01*
X49060714Y-44182142D01*
X49079761Y-44144047D01*
X49098809Y-44125000D01*
X49136904Y-44105952D01*
X49213095Y-44105952D01*
X49251190Y-44125000D01*
X49270238Y-44144047D01*
X49289285Y-44182142D01*
X49289285Y-44201190D01*
X49270238Y-44239285D01*
X49251190Y-44258333D01*
X49213095Y-44277380D01*
X49136904Y-44277380D01*
X49098809Y-44296428D01*
X49079761Y-44315476D01*
X49060714Y-44353571D01*
X49060714Y-44429761D01*
X49079761Y-44467857D01*
X49098809Y-44486904D01*
X49136904Y-44505952D01*
X49213095Y-44505952D01*
X49251190Y-44486904D01*
X49270238Y-44467857D01*
X49289285Y-44429761D01*
X49289285Y-44353571D01*
X49270238Y-44315476D01*
X49251190Y-44296428D01*
X49213095Y-44277380D01*
X52933333Y-52205952D02*
X52800000Y-52015476D01*
X52704761Y-52205952D02*
X52704761Y-51805952D01*
X52857142Y-51805952D01*
X52895238Y-51825000D01*
X52914285Y-51844047D01*
X52933333Y-51882142D01*
X52933333Y-51939285D01*
X52914285Y-51977380D01*
X52895238Y-51996428D01*
X52857142Y-52015476D01*
X52704761Y-52015476D01*
X53066666Y-51805952D02*
X53314285Y-51805952D01*
X53180952Y-51958333D01*
X53238095Y-51958333D01*
X53276190Y-51977380D01*
X53295238Y-51996428D01*
X53314285Y-52034523D01*
X53314285Y-52129761D01*
X53295238Y-52167857D01*
X53276190Y-52186904D01*
X53238095Y-52205952D01*
X53123809Y-52205952D01*
X53085714Y-52186904D01*
X53066666Y-52167857D01*
X51008333Y-52230952D02*
X50875000Y-52040476D01*
X50779761Y-52230952D02*
X50779761Y-51830952D01*
X50932142Y-51830952D01*
X50970238Y-51850000D01*
X50989285Y-51869047D01*
X51008333Y-51907142D01*
X51008333Y-51964285D01*
X50989285Y-52002380D01*
X50970238Y-52021428D01*
X50932142Y-52040476D01*
X50779761Y-52040476D01*
X51160714Y-51869047D02*
X51179761Y-51850000D01*
X51217857Y-51830952D01*
X51313095Y-51830952D01*
X51351190Y-51850000D01*
X51370238Y-51869047D01*
X51389285Y-51907142D01*
X51389285Y-51945238D01*
X51370238Y-52002380D01*
X51141666Y-52230952D01*
X51389285Y-52230952D01*
X59840952Y-40333333D02*
X60126666Y-40333333D01*
X60183809Y-40352380D01*
X60221904Y-40390476D01*
X60240952Y-40447619D01*
X60240952Y-40485714D01*
X59840952Y-40180952D02*
X59840952Y-39933333D01*
X59993333Y-40066666D01*
X59993333Y-40009523D01*
X60012380Y-39971428D01*
X60031428Y-39952380D01*
X60069523Y-39933333D01*
X60164761Y-39933333D01*
X60202857Y-39952380D01*
X60221904Y-39971428D01*
X60240952Y-40009523D01*
X60240952Y-40123809D01*
X60221904Y-40161904D01*
X60202857Y-40180952D01*
X67792857Y-33220952D02*
X67659523Y-33030476D01*
X67564285Y-33220952D02*
X67564285Y-32820952D01*
X67716666Y-32820952D01*
X67754761Y-32840000D01*
X67773809Y-32859047D01*
X67792857Y-32897142D01*
X67792857Y-32954285D01*
X67773809Y-32992380D01*
X67754761Y-33011428D01*
X67716666Y-33030476D01*
X67564285Y-33030476D01*
X67926190Y-32820952D02*
X68173809Y-32820952D01*
X68040476Y-32973333D01*
X68097619Y-32973333D01*
X68135714Y-32992380D01*
X68154761Y-33011428D01*
X68173809Y-33049523D01*
X68173809Y-33144761D01*
X68154761Y-33182857D01*
X68135714Y-33201904D01*
X68097619Y-33220952D01*
X67983333Y-33220952D01*
X67945238Y-33201904D01*
X67926190Y-33182857D01*
X68364285Y-33220952D02*
X68440476Y-33220952D01*
X68478571Y-33201904D01*
X68497619Y-33182857D01*
X68535714Y-33125714D01*
X68554761Y-33049523D01*
X68554761Y-32897142D01*
X68535714Y-32859047D01*
X68516666Y-32840000D01*
X68478571Y-32820952D01*
X68402380Y-32820952D01*
X68364285Y-32840000D01*
X68345238Y-32859047D01*
X68326190Y-32897142D01*
X68326190Y-32992380D01*
X68345238Y-33030476D01*
X68364285Y-33049523D01*
X68402380Y-33068571D01*
X68478571Y-33068571D01*
X68516666Y-33049523D01*
X68535714Y-33030476D01*
X68554761Y-32992380D01*
X44517857Y-61705952D02*
X44384523Y-61515476D01*
X44289285Y-61705952D02*
X44289285Y-61305952D01*
X44441666Y-61305952D01*
X44479761Y-61325000D01*
X44498809Y-61344047D01*
X44517857Y-61382142D01*
X44517857Y-61439285D01*
X44498809Y-61477380D01*
X44479761Y-61496428D01*
X44441666Y-61515476D01*
X44289285Y-61515476D01*
X44651190Y-61305952D02*
X44898809Y-61305952D01*
X44765476Y-61458333D01*
X44822619Y-61458333D01*
X44860714Y-61477380D01*
X44879761Y-61496428D01*
X44898809Y-61534523D01*
X44898809Y-61629761D01*
X44879761Y-61667857D01*
X44860714Y-61686904D01*
X44822619Y-61705952D01*
X44708333Y-61705952D01*
X44670238Y-61686904D01*
X44651190Y-61667857D01*
X45241666Y-61305952D02*
X45165476Y-61305952D01*
X45127380Y-61325000D01*
X45108333Y-61344047D01*
X45070238Y-61401190D01*
X45051190Y-61477380D01*
X45051190Y-61629761D01*
X45070238Y-61667857D01*
X45089285Y-61686904D01*
X45127380Y-61705952D01*
X45203571Y-61705952D01*
X45241666Y-61686904D01*
X45260714Y-61667857D01*
X45279761Y-61629761D01*
X45279761Y-61534523D01*
X45260714Y-61496428D01*
X45241666Y-61477380D01*
X45203571Y-61458333D01*
X45127380Y-61458333D01*
X45089285Y-61477380D01*
X45070238Y-61496428D01*
X45051190Y-61534523D01*
X28742857Y-29880952D02*
X28609523Y-29690476D01*
X28514285Y-29880952D02*
X28514285Y-29480952D01*
X28666666Y-29480952D01*
X28704761Y-29500000D01*
X28723809Y-29519047D01*
X28742857Y-29557142D01*
X28742857Y-29614285D01*
X28723809Y-29652380D01*
X28704761Y-29671428D01*
X28666666Y-29690476D01*
X28514285Y-29690476D01*
X28876190Y-29480952D02*
X29123809Y-29480952D01*
X28990476Y-29633333D01*
X29047619Y-29633333D01*
X29085714Y-29652380D01*
X29104761Y-29671428D01*
X29123809Y-29709523D01*
X29123809Y-29804761D01*
X29104761Y-29842857D01*
X29085714Y-29861904D01*
X29047619Y-29880952D01*
X28933333Y-29880952D01*
X28895238Y-29861904D01*
X28876190Y-29842857D01*
X29485714Y-29480952D02*
X29295238Y-29480952D01*
X29276190Y-29671428D01*
X29295238Y-29652380D01*
X29333333Y-29633333D01*
X29428571Y-29633333D01*
X29466666Y-29652380D01*
X29485714Y-29671428D01*
X29504761Y-29709523D01*
X29504761Y-29804761D01*
X29485714Y-29842857D01*
X29466666Y-29861904D01*
X29428571Y-29880952D01*
X29333333Y-29880952D01*
X29295238Y-29861904D01*
X29276190Y-29842857D01*
X25842857Y-29880952D02*
X25709523Y-29690476D01*
X25614285Y-29880952D02*
X25614285Y-29480952D01*
X25766666Y-29480952D01*
X25804761Y-29500000D01*
X25823809Y-29519047D01*
X25842857Y-29557142D01*
X25842857Y-29614285D01*
X25823809Y-29652380D01*
X25804761Y-29671428D01*
X25766666Y-29690476D01*
X25614285Y-29690476D01*
X25976190Y-29480952D02*
X26223809Y-29480952D01*
X26090476Y-29633333D01*
X26147619Y-29633333D01*
X26185714Y-29652380D01*
X26204761Y-29671428D01*
X26223809Y-29709523D01*
X26223809Y-29804761D01*
X26204761Y-29842857D01*
X26185714Y-29861904D01*
X26147619Y-29880952D01*
X26033333Y-29880952D01*
X25995238Y-29861904D01*
X25976190Y-29842857D01*
X26566666Y-29614285D02*
X26566666Y-29880952D01*
X26471428Y-29461904D02*
X26376190Y-29747619D01*
X26623809Y-29747619D01*
X22917857Y-29880952D02*
X22784523Y-29690476D01*
X22689285Y-29880952D02*
X22689285Y-29480952D01*
X22841666Y-29480952D01*
X22879761Y-29500000D01*
X22898809Y-29519047D01*
X22917857Y-29557142D01*
X22917857Y-29614285D01*
X22898809Y-29652380D01*
X22879761Y-29671428D01*
X22841666Y-29690476D01*
X22689285Y-29690476D01*
X23051190Y-29480952D02*
X23298809Y-29480952D01*
X23165476Y-29633333D01*
X23222619Y-29633333D01*
X23260714Y-29652380D01*
X23279761Y-29671428D01*
X23298809Y-29709523D01*
X23298809Y-29804761D01*
X23279761Y-29842857D01*
X23260714Y-29861904D01*
X23222619Y-29880952D01*
X23108333Y-29880952D01*
X23070238Y-29861904D01*
X23051190Y-29842857D01*
X23432142Y-29480952D02*
X23679761Y-29480952D01*
X23546428Y-29633333D01*
X23603571Y-29633333D01*
X23641666Y-29652380D01*
X23660714Y-29671428D01*
X23679761Y-29709523D01*
X23679761Y-29804761D01*
X23660714Y-29842857D01*
X23641666Y-29861904D01*
X23603571Y-29880952D01*
X23489285Y-29880952D01*
X23451190Y-29861904D01*
X23432142Y-29842857D01*
X44792857Y-34280952D02*
X44659523Y-34090476D01*
X44564285Y-34280952D02*
X44564285Y-33880952D01*
X44716666Y-33880952D01*
X44754761Y-33900000D01*
X44773809Y-33919047D01*
X44792857Y-33957142D01*
X44792857Y-34014285D01*
X44773809Y-34052380D01*
X44754761Y-34071428D01*
X44716666Y-34090476D01*
X44564285Y-34090476D01*
X44926190Y-33880952D02*
X45173809Y-33880952D01*
X45040476Y-34033333D01*
X45097619Y-34033333D01*
X45135714Y-34052380D01*
X45154761Y-34071428D01*
X45173809Y-34109523D01*
X45173809Y-34204761D01*
X45154761Y-34242857D01*
X45135714Y-34261904D01*
X45097619Y-34280952D01*
X44983333Y-34280952D01*
X44945238Y-34261904D01*
X44926190Y-34242857D01*
X45554761Y-34280952D02*
X45326190Y-34280952D01*
X45440476Y-34280952D02*
X45440476Y-33880952D01*
X45402380Y-33938095D01*
X45364285Y-33976190D01*
X45326190Y-33995238D01*
X46292857Y-27880952D02*
X46159523Y-27690476D01*
X46064285Y-27880952D02*
X46064285Y-27480952D01*
X46216666Y-27480952D01*
X46254761Y-27500000D01*
X46273809Y-27519047D01*
X46292857Y-27557142D01*
X46292857Y-27614285D01*
X46273809Y-27652380D01*
X46254761Y-27671428D01*
X46216666Y-27690476D01*
X46064285Y-27690476D01*
X46426190Y-27480952D02*
X46673809Y-27480952D01*
X46540476Y-27633333D01*
X46597619Y-27633333D01*
X46635714Y-27652380D01*
X46654761Y-27671428D01*
X46673809Y-27709523D01*
X46673809Y-27804761D01*
X46654761Y-27842857D01*
X46635714Y-27861904D01*
X46597619Y-27880952D01*
X46483333Y-27880952D01*
X46445238Y-27861904D01*
X46426190Y-27842857D01*
X46921428Y-27480952D02*
X46959523Y-27480952D01*
X46997619Y-27500000D01*
X47016666Y-27519047D01*
X47035714Y-27557142D01*
X47054761Y-27633333D01*
X47054761Y-27728571D01*
X47035714Y-27804761D01*
X47016666Y-27842857D01*
X46997619Y-27861904D01*
X46959523Y-27880952D01*
X46921428Y-27880952D01*
X46883333Y-27861904D01*
X46864285Y-27842857D01*
X46845238Y-27804761D01*
X46826190Y-27728571D01*
X46826190Y-27633333D01*
X46845238Y-27557142D01*
X46864285Y-27519047D01*
X46883333Y-27500000D01*
X46921428Y-27480952D01*
X21442857Y-29880952D02*
X21309523Y-29690476D01*
X21214285Y-29880952D02*
X21214285Y-29480952D01*
X21366666Y-29480952D01*
X21404761Y-29500000D01*
X21423809Y-29519047D01*
X21442857Y-29557142D01*
X21442857Y-29614285D01*
X21423809Y-29652380D01*
X21404761Y-29671428D01*
X21366666Y-29690476D01*
X21214285Y-29690476D01*
X21595238Y-29519047D02*
X21614285Y-29500000D01*
X21652380Y-29480952D01*
X21747619Y-29480952D01*
X21785714Y-29500000D01*
X21804761Y-29519047D01*
X21823809Y-29557142D01*
X21823809Y-29595238D01*
X21804761Y-29652380D01*
X21576190Y-29880952D01*
X21823809Y-29880952D01*
X22014285Y-29880952D02*
X22090476Y-29880952D01*
X22128571Y-29861904D01*
X22147619Y-29842857D01*
X22185714Y-29785714D01*
X22204761Y-29709523D01*
X22204761Y-29557142D01*
X22185714Y-29519047D01*
X22166666Y-29500000D01*
X22128571Y-29480952D01*
X22052380Y-29480952D01*
X22014285Y-29500000D01*
X21995238Y-29519047D01*
X21976190Y-29557142D01*
X21976190Y-29652380D01*
X21995238Y-29690476D01*
X22014285Y-29709523D01*
X22052380Y-29728571D01*
X22128571Y-29728571D01*
X22166666Y-29709523D01*
X22185714Y-29690476D01*
X22204761Y-29652380D01*
X24392857Y-29880952D02*
X24259523Y-29690476D01*
X24164285Y-29880952D02*
X24164285Y-29480952D01*
X24316666Y-29480952D01*
X24354761Y-29500000D01*
X24373809Y-29519047D01*
X24392857Y-29557142D01*
X24392857Y-29614285D01*
X24373809Y-29652380D01*
X24354761Y-29671428D01*
X24316666Y-29690476D01*
X24164285Y-29690476D01*
X24545238Y-29519047D02*
X24564285Y-29500000D01*
X24602380Y-29480952D01*
X24697619Y-29480952D01*
X24735714Y-29500000D01*
X24754761Y-29519047D01*
X24773809Y-29557142D01*
X24773809Y-29595238D01*
X24754761Y-29652380D01*
X24526190Y-29880952D01*
X24773809Y-29880952D01*
X25002380Y-29652380D02*
X24964285Y-29633333D01*
X24945238Y-29614285D01*
X24926190Y-29576190D01*
X24926190Y-29557142D01*
X24945238Y-29519047D01*
X24964285Y-29500000D01*
X25002380Y-29480952D01*
X25078571Y-29480952D01*
X25116666Y-29500000D01*
X25135714Y-29519047D01*
X25154761Y-29557142D01*
X25154761Y-29576190D01*
X25135714Y-29614285D01*
X25116666Y-29633333D01*
X25078571Y-29652380D01*
X25002380Y-29652380D01*
X24964285Y-29671428D01*
X24945238Y-29690476D01*
X24926190Y-29728571D01*
X24926190Y-29804761D01*
X24945238Y-29842857D01*
X24964285Y-29861904D01*
X25002380Y-29880952D01*
X25078571Y-29880952D01*
X25116666Y-29861904D01*
X25135714Y-29842857D01*
X25154761Y-29804761D01*
X25154761Y-29728571D01*
X25135714Y-29690476D01*
X25116666Y-29671428D01*
X25078571Y-29652380D01*
X27292857Y-29880952D02*
X27159523Y-29690476D01*
X27064285Y-29880952D02*
X27064285Y-29480952D01*
X27216666Y-29480952D01*
X27254761Y-29500000D01*
X27273809Y-29519047D01*
X27292857Y-29557142D01*
X27292857Y-29614285D01*
X27273809Y-29652380D01*
X27254761Y-29671428D01*
X27216666Y-29690476D01*
X27064285Y-29690476D01*
X27445238Y-29519047D02*
X27464285Y-29500000D01*
X27502380Y-29480952D01*
X27597619Y-29480952D01*
X27635714Y-29500000D01*
X27654761Y-29519047D01*
X27673809Y-29557142D01*
X27673809Y-29595238D01*
X27654761Y-29652380D01*
X27426190Y-29880952D01*
X27673809Y-29880952D01*
X27807142Y-29480952D02*
X28073809Y-29480952D01*
X27902380Y-29880952D01*
X50142857Y-36105952D02*
X50009523Y-35915476D01*
X49914285Y-36105952D02*
X49914285Y-35705952D01*
X50066666Y-35705952D01*
X50104761Y-35725000D01*
X50123809Y-35744047D01*
X50142857Y-35782142D01*
X50142857Y-35839285D01*
X50123809Y-35877380D01*
X50104761Y-35896428D01*
X50066666Y-35915476D01*
X49914285Y-35915476D01*
X50295238Y-35744047D02*
X50314285Y-35725000D01*
X50352380Y-35705952D01*
X50447619Y-35705952D01*
X50485714Y-35725000D01*
X50504761Y-35744047D01*
X50523809Y-35782142D01*
X50523809Y-35820238D01*
X50504761Y-35877380D01*
X50276190Y-36105952D01*
X50523809Y-36105952D01*
X50866666Y-35705952D02*
X50790476Y-35705952D01*
X50752380Y-35725000D01*
X50733333Y-35744047D01*
X50695238Y-35801190D01*
X50676190Y-35877380D01*
X50676190Y-36029761D01*
X50695238Y-36067857D01*
X50714285Y-36086904D01*
X50752380Y-36105952D01*
X50828571Y-36105952D01*
X50866666Y-36086904D01*
X50885714Y-36067857D01*
X50904761Y-36029761D01*
X50904761Y-35934523D01*
X50885714Y-35896428D01*
X50866666Y-35877380D01*
X50828571Y-35858333D01*
X50752380Y-35858333D01*
X50714285Y-35877380D01*
X50695238Y-35896428D01*
X50676190Y-35934523D01*
X47242857Y-36205952D02*
X47109523Y-36015476D01*
X47014285Y-36205952D02*
X47014285Y-35805952D01*
X47166666Y-35805952D01*
X47204761Y-35825000D01*
X47223809Y-35844047D01*
X47242857Y-35882142D01*
X47242857Y-35939285D01*
X47223809Y-35977380D01*
X47204761Y-35996428D01*
X47166666Y-36015476D01*
X47014285Y-36015476D01*
X47395238Y-35844047D02*
X47414285Y-35825000D01*
X47452380Y-35805952D01*
X47547619Y-35805952D01*
X47585714Y-35825000D01*
X47604761Y-35844047D01*
X47623809Y-35882142D01*
X47623809Y-35920238D01*
X47604761Y-35977380D01*
X47376190Y-36205952D01*
X47623809Y-36205952D01*
X47985714Y-35805952D02*
X47795238Y-35805952D01*
X47776190Y-35996428D01*
X47795238Y-35977380D01*
X47833333Y-35958333D01*
X47928571Y-35958333D01*
X47966666Y-35977380D01*
X47985714Y-35996428D01*
X48004761Y-36034523D01*
X48004761Y-36129761D01*
X47985714Y-36167857D01*
X47966666Y-36186904D01*
X47928571Y-36205952D01*
X47833333Y-36205952D01*
X47795238Y-36186904D01*
X47776190Y-36167857D01*
X45042857Y-47480952D02*
X44909523Y-47290476D01*
X44814285Y-47480952D02*
X44814285Y-47080952D01*
X44966666Y-47080952D01*
X45004761Y-47100000D01*
X45023809Y-47119047D01*
X45042857Y-47157142D01*
X45042857Y-47214285D01*
X45023809Y-47252380D01*
X45004761Y-47271428D01*
X44966666Y-47290476D01*
X44814285Y-47290476D01*
X45195238Y-47119047D02*
X45214285Y-47100000D01*
X45252380Y-47080952D01*
X45347619Y-47080952D01*
X45385714Y-47100000D01*
X45404761Y-47119047D01*
X45423809Y-47157142D01*
X45423809Y-47195238D01*
X45404761Y-47252380D01*
X45176190Y-47480952D01*
X45423809Y-47480952D01*
X45766666Y-47214285D02*
X45766666Y-47480952D01*
X45671428Y-47061904D02*
X45576190Y-47347619D01*
X45823809Y-47347619D01*
X45067857Y-50380952D02*
X44934523Y-50190476D01*
X44839285Y-50380952D02*
X44839285Y-49980952D01*
X44991666Y-49980952D01*
X45029761Y-50000000D01*
X45048809Y-50019047D01*
X45067857Y-50057142D01*
X45067857Y-50114285D01*
X45048809Y-50152380D01*
X45029761Y-50171428D01*
X44991666Y-50190476D01*
X44839285Y-50190476D01*
X45220238Y-50019047D02*
X45239285Y-50000000D01*
X45277380Y-49980952D01*
X45372619Y-49980952D01*
X45410714Y-50000000D01*
X45429761Y-50019047D01*
X45448809Y-50057142D01*
X45448809Y-50095238D01*
X45429761Y-50152380D01*
X45201190Y-50380952D01*
X45448809Y-50380952D01*
X45582142Y-49980952D02*
X45829761Y-49980952D01*
X45696428Y-50133333D01*
X45753571Y-50133333D01*
X45791666Y-50152380D01*
X45810714Y-50171428D01*
X45829761Y-50209523D01*
X45829761Y-50304761D01*
X45810714Y-50342857D01*
X45791666Y-50361904D01*
X45753571Y-50380952D01*
X45639285Y-50380952D01*
X45601190Y-50361904D01*
X45582142Y-50342857D01*
X71692857Y-58230952D02*
X71559523Y-58040476D01*
X71464285Y-58230952D02*
X71464285Y-57830952D01*
X71616666Y-57830952D01*
X71654761Y-57850000D01*
X71673809Y-57869047D01*
X71692857Y-57907142D01*
X71692857Y-57964285D01*
X71673809Y-58002380D01*
X71654761Y-58021428D01*
X71616666Y-58040476D01*
X71464285Y-58040476D01*
X72073809Y-58230952D02*
X71845238Y-58230952D01*
X71959523Y-58230952D02*
X71959523Y-57830952D01*
X71921428Y-57888095D01*
X71883333Y-57926190D01*
X71845238Y-57945238D01*
X72264285Y-58230952D02*
X72340476Y-58230952D01*
X72378571Y-58211904D01*
X72397619Y-58192857D01*
X72435714Y-58135714D01*
X72454761Y-58059523D01*
X72454761Y-57907142D01*
X72435714Y-57869047D01*
X72416666Y-57850000D01*
X72378571Y-57830952D01*
X72302380Y-57830952D01*
X72264285Y-57850000D01*
X72245238Y-57869047D01*
X72226190Y-57907142D01*
X72226190Y-58002380D01*
X72245238Y-58040476D01*
X72264285Y-58059523D01*
X72302380Y-58078571D01*
X72378571Y-58078571D01*
X72416666Y-58059523D01*
X72435714Y-58040476D01*
X72454761Y-58002380D01*
X26275357Y-58080952D02*
X26142023Y-57890476D01*
X26046785Y-58080952D02*
X26046785Y-57680952D01*
X26199166Y-57680952D01*
X26237261Y-57700000D01*
X26256309Y-57719047D01*
X26275357Y-57757142D01*
X26275357Y-57814285D01*
X26256309Y-57852380D01*
X26237261Y-57871428D01*
X26199166Y-57890476D01*
X26046785Y-57890476D01*
X26656309Y-58080952D02*
X26427738Y-58080952D01*
X26542023Y-58080952D02*
X26542023Y-57680952D01*
X26503928Y-57738095D01*
X26465833Y-57776190D01*
X26427738Y-57795238D01*
X26999166Y-57680952D02*
X26922976Y-57680952D01*
X26884880Y-57700000D01*
X26865833Y-57719047D01*
X26827738Y-57776190D01*
X26808690Y-57852380D01*
X26808690Y-58004761D01*
X26827738Y-58042857D01*
X26846785Y-58061904D01*
X26884880Y-58080952D01*
X26961071Y-58080952D01*
X26999166Y-58061904D01*
X27018214Y-58042857D01*
X27037261Y-58004761D01*
X27037261Y-57909523D01*
X27018214Y-57871428D01*
X26999166Y-57852380D01*
X26961071Y-57833333D01*
X26884880Y-57833333D01*
X26846785Y-57852380D01*
X26827738Y-57871428D01*
X26808690Y-57909523D01*
X60383333Y-37030952D02*
X60250000Y-36840476D01*
X60154761Y-37030952D02*
X60154761Y-36630952D01*
X60307142Y-36630952D01*
X60345238Y-36650000D01*
X60364285Y-36669047D01*
X60383333Y-36707142D01*
X60383333Y-36764285D01*
X60364285Y-36802380D01*
X60345238Y-36821428D01*
X60307142Y-36840476D01*
X60154761Y-36840476D01*
X60516666Y-36630952D02*
X60783333Y-36630952D01*
X60611904Y-37030952D01*
X62333333Y-57280952D02*
X62200000Y-57090476D01*
X62104761Y-57280952D02*
X62104761Y-56880952D01*
X62257142Y-56880952D01*
X62295238Y-56900000D01*
X62314285Y-56919047D01*
X62333333Y-56957142D01*
X62333333Y-57014285D01*
X62314285Y-57052380D01*
X62295238Y-57071428D01*
X62257142Y-57090476D01*
X62104761Y-57090476D01*
X62695238Y-56880952D02*
X62504761Y-56880952D01*
X62485714Y-57071428D01*
X62504761Y-57052380D01*
X62542857Y-57033333D01*
X62638095Y-57033333D01*
X62676190Y-57052380D01*
X62695238Y-57071428D01*
X62714285Y-57109523D01*
X62714285Y-57204761D01*
X62695238Y-57242857D01*
X62676190Y-57261904D01*
X62638095Y-57280952D01*
X62542857Y-57280952D01*
X62504761Y-57261904D01*
X62485714Y-57242857D01*
X60858333Y-57305952D02*
X60725000Y-57115476D01*
X60629761Y-57305952D02*
X60629761Y-56905952D01*
X60782142Y-56905952D01*
X60820238Y-56925000D01*
X60839285Y-56944047D01*
X60858333Y-56982142D01*
X60858333Y-57039285D01*
X60839285Y-57077380D01*
X60820238Y-57096428D01*
X60782142Y-57115476D01*
X60629761Y-57115476D01*
X61201190Y-57039285D02*
X61201190Y-57305952D01*
X61105952Y-56886904D02*
X61010714Y-57172619D01*
X61258333Y-57172619D01*
X71776190Y-28030952D02*
X71776190Y-28316666D01*
X71757142Y-28373809D01*
X71719047Y-28411904D01*
X71661904Y-28430952D01*
X71623809Y-28430952D01*
X72176190Y-28430952D02*
X71947619Y-28430952D01*
X72061904Y-28430952D02*
X72061904Y-28030952D01*
X72023809Y-28088095D01*
X71985714Y-28126190D01*
X71947619Y-28145238D01*
X72557142Y-28430952D02*
X72328571Y-28430952D01*
X72442857Y-28430952D02*
X72442857Y-28030952D01*
X72404761Y-28088095D01*
X72366666Y-28126190D01*
X72328571Y-28145238D01*
X66176190Y-28030952D02*
X66176190Y-28316666D01*
X66157142Y-28373809D01*
X66119047Y-28411904D01*
X66061904Y-28430952D01*
X66023809Y-28430952D01*
X66576190Y-28430952D02*
X66347619Y-28430952D01*
X66461904Y-28430952D02*
X66461904Y-28030952D01*
X66423809Y-28088095D01*
X66385714Y-28126190D01*
X66347619Y-28145238D01*
X66823809Y-28030952D02*
X66861904Y-28030952D01*
X66900000Y-28050000D01*
X66919047Y-28069047D01*
X66938095Y-28107142D01*
X66957142Y-28183333D01*
X66957142Y-28278571D01*
X66938095Y-28354761D01*
X66919047Y-28392857D01*
X66900000Y-28411904D01*
X66861904Y-28430952D01*
X66823809Y-28430952D01*
X66785714Y-28411904D01*
X66766666Y-28392857D01*
X66747619Y-28354761D01*
X66728571Y-28278571D01*
X66728571Y-28183333D01*
X66747619Y-28107142D01*
X66766666Y-28069047D01*
X66785714Y-28050000D01*
X66823809Y-28030952D01*
X75991666Y-61505952D02*
X75991666Y-61791666D01*
X75972619Y-61848809D01*
X75934523Y-61886904D01*
X75877380Y-61905952D01*
X75839285Y-61905952D01*
X76353571Y-61505952D02*
X76277380Y-61505952D01*
X76239285Y-61525000D01*
X76220238Y-61544047D01*
X76182142Y-61601190D01*
X76163095Y-61677380D01*
X76163095Y-61829761D01*
X76182142Y-61867857D01*
X76201190Y-61886904D01*
X76239285Y-61905952D01*
X76315476Y-61905952D01*
X76353571Y-61886904D01*
X76372619Y-61867857D01*
X76391666Y-61829761D01*
X76391666Y-61734523D01*
X76372619Y-61696428D01*
X76353571Y-61677380D01*
X76315476Y-61658333D01*
X76239285Y-61658333D01*
X76201190Y-61677380D01*
X76182142Y-61696428D01*
X76163095Y-61734523D01*
X34042857Y-28367857D02*
X34023809Y-28386904D01*
X33966666Y-28405952D01*
X33928571Y-28405952D01*
X33871428Y-28386904D01*
X33833333Y-28348809D01*
X33814285Y-28310714D01*
X33795238Y-28234523D01*
X33795238Y-28177380D01*
X33814285Y-28101190D01*
X33833333Y-28063095D01*
X33871428Y-28025000D01*
X33928571Y-28005952D01*
X33966666Y-28005952D01*
X34023809Y-28025000D01*
X34042857Y-28044047D01*
X34176190Y-28005952D02*
X34423809Y-28005952D01*
X34290476Y-28158333D01*
X34347619Y-28158333D01*
X34385714Y-28177380D01*
X34404761Y-28196428D01*
X34423809Y-28234523D01*
X34423809Y-28329761D01*
X34404761Y-28367857D01*
X34385714Y-28386904D01*
X34347619Y-28405952D01*
X34233333Y-28405952D01*
X34195238Y-28386904D01*
X34176190Y-28367857D01*
X34766666Y-28139285D02*
X34766666Y-28405952D01*
X34671428Y-27986904D02*
X34576190Y-28272619D01*
X34823809Y-28272619D01*
X25867857Y-54892857D02*
X25848809Y-54911904D01*
X25791666Y-54930952D01*
X25753571Y-54930952D01*
X25696428Y-54911904D01*
X25658333Y-54873809D01*
X25639285Y-54835714D01*
X25620238Y-54759523D01*
X25620238Y-54702380D01*
X25639285Y-54626190D01*
X25658333Y-54588095D01*
X25696428Y-54550000D01*
X25753571Y-54530952D01*
X25791666Y-54530952D01*
X25848809Y-54550000D01*
X25867857Y-54569047D01*
X26001190Y-54530952D02*
X26248809Y-54530952D01*
X26115476Y-54683333D01*
X26172619Y-54683333D01*
X26210714Y-54702380D01*
X26229761Y-54721428D01*
X26248809Y-54759523D01*
X26248809Y-54854761D01*
X26229761Y-54892857D01*
X26210714Y-54911904D01*
X26172619Y-54930952D01*
X26058333Y-54930952D01*
X26020238Y-54911904D01*
X26001190Y-54892857D01*
X26382142Y-54530952D02*
X26629761Y-54530952D01*
X26496428Y-54683333D01*
X26553571Y-54683333D01*
X26591666Y-54702380D01*
X26610714Y-54721428D01*
X26629761Y-54759523D01*
X26629761Y-54854761D01*
X26610714Y-54892857D01*
X26591666Y-54911904D01*
X26553571Y-54930952D01*
X26439285Y-54930952D01*
X26401190Y-54911904D01*
X26382142Y-54892857D01*
X44542857Y-60242857D02*
X44523809Y-60261904D01*
X44466666Y-60280952D01*
X44428571Y-60280952D01*
X44371428Y-60261904D01*
X44333333Y-60223809D01*
X44314285Y-60185714D01*
X44295238Y-60109523D01*
X44295238Y-60052380D01*
X44314285Y-59976190D01*
X44333333Y-59938095D01*
X44371428Y-59900000D01*
X44428571Y-59880952D01*
X44466666Y-59880952D01*
X44523809Y-59900000D01*
X44542857Y-59919047D01*
X44676190Y-59880952D02*
X44923809Y-59880952D01*
X44790476Y-60033333D01*
X44847619Y-60033333D01*
X44885714Y-60052380D01*
X44904761Y-60071428D01*
X44923809Y-60109523D01*
X44923809Y-60204761D01*
X44904761Y-60242857D01*
X44885714Y-60261904D01*
X44847619Y-60280952D01*
X44733333Y-60280952D01*
X44695238Y-60261904D01*
X44676190Y-60242857D01*
X45076190Y-59919047D02*
X45095238Y-59900000D01*
X45133333Y-59880952D01*
X45228571Y-59880952D01*
X45266666Y-59900000D01*
X45285714Y-59919047D01*
X45304761Y-59957142D01*
X45304761Y-59995238D01*
X45285714Y-60052380D01*
X45057142Y-60280952D01*
X45304761Y-60280952D01*
X60392857Y-35542857D02*
X60373809Y-35561904D01*
X60316666Y-35580952D01*
X60278571Y-35580952D01*
X60221428Y-35561904D01*
X60183333Y-35523809D01*
X60164285Y-35485714D01*
X60145238Y-35409523D01*
X60145238Y-35352380D01*
X60164285Y-35276190D01*
X60183333Y-35238095D01*
X60221428Y-35200000D01*
X60278571Y-35180952D01*
X60316666Y-35180952D01*
X60373809Y-35200000D01*
X60392857Y-35219047D01*
X60526190Y-35180952D02*
X60773809Y-35180952D01*
X60640476Y-35333333D01*
X60697619Y-35333333D01*
X60735714Y-35352380D01*
X60754761Y-35371428D01*
X60773809Y-35409523D01*
X60773809Y-35504761D01*
X60754761Y-35542857D01*
X60735714Y-35561904D01*
X60697619Y-35580952D01*
X60583333Y-35580952D01*
X60545238Y-35561904D01*
X60526190Y-35542857D01*
X61154761Y-35580952D02*
X60926190Y-35580952D01*
X61040476Y-35580952D02*
X61040476Y-35180952D01*
X61002380Y-35238095D01*
X60964285Y-35276190D01*
X60926190Y-35295238D01*
X60392857Y-34142857D02*
X60373809Y-34161904D01*
X60316666Y-34180952D01*
X60278571Y-34180952D01*
X60221428Y-34161904D01*
X60183333Y-34123809D01*
X60164285Y-34085714D01*
X60145238Y-34009523D01*
X60145238Y-33952380D01*
X60164285Y-33876190D01*
X60183333Y-33838095D01*
X60221428Y-33800000D01*
X60278571Y-33780952D01*
X60316666Y-33780952D01*
X60373809Y-33800000D01*
X60392857Y-33819047D01*
X60526190Y-33780952D02*
X60773809Y-33780952D01*
X60640476Y-33933333D01*
X60697619Y-33933333D01*
X60735714Y-33952380D01*
X60754761Y-33971428D01*
X60773809Y-34009523D01*
X60773809Y-34104761D01*
X60754761Y-34142857D01*
X60735714Y-34161904D01*
X60697619Y-34180952D01*
X60583333Y-34180952D01*
X60545238Y-34161904D01*
X60526190Y-34142857D01*
X61021428Y-33780952D02*
X61059523Y-33780952D01*
X61097619Y-33800000D01*
X61116666Y-33819047D01*
X61135714Y-33857142D01*
X61154761Y-33933333D01*
X61154761Y-34028571D01*
X61135714Y-34104761D01*
X61116666Y-34142857D01*
X61097619Y-34161904D01*
X61059523Y-34180952D01*
X61021428Y-34180952D01*
X60983333Y-34161904D01*
X60964285Y-34142857D01*
X60945238Y-34104761D01*
X60926190Y-34028571D01*
X60926190Y-33933333D01*
X60945238Y-33857142D01*
X60964285Y-33819047D01*
X60983333Y-33800000D01*
X61021428Y-33780952D01*
X60117857Y-30742857D02*
X60098809Y-30761904D01*
X60041666Y-30780952D01*
X60003571Y-30780952D01*
X59946428Y-30761904D01*
X59908333Y-30723809D01*
X59889285Y-30685714D01*
X59870238Y-30609523D01*
X59870238Y-30552380D01*
X59889285Y-30476190D01*
X59908333Y-30438095D01*
X59946428Y-30400000D01*
X60003571Y-30380952D01*
X60041666Y-30380952D01*
X60098809Y-30400000D01*
X60117857Y-30419047D01*
X60270238Y-30419047D02*
X60289285Y-30400000D01*
X60327380Y-30380952D01*
X60422619Y-30380952D01*
X60460714Y-30400000D01*
X60479761Y-30419047D01*
X60498809Y-30457142D01*
X60498809Y-30495238D01*
X60479761Y-30552380D01*
X60251190Y-30780952D01*
X60498809Y-30780952D01*
X60689285Y-30780952D02*
X60765476Y-30780952D01*
X60803571Y-30761904D01*
X60822619Y-30742857D01*
X60860714Y-30685714D01*
X60879761Y-30609523D01*
X60879761Y-30457142D01*
X60860714Y-30419047D01*
X60841666Y-30400000D01*
X60803571Y-30380952D01*
X60727380Y-30380952D01*
X60689285Y-30400000D01*
X60670238Y-30419047D01*
X60651190Y-30457142D01*
X60651190Y-30552380D01*
X60670238Y-30590476D01*
X60689285Y-30609523D01*
X60727380Y-30628571D01*
X60803571Y-30628571D01*
X60841666Y-30609523D01*
X60860714Y-30590476D01*
X60879761Y-30552380D01*
X77920358Y-28242857D02*
X77901310Y-28261904D01*
X77844167Y-28280952D01*
X77806072Y-28280952D01*
X77748929Y-28261904D01*
X77710834Y-28223809D01*
X77691786Y-28185714D01*
X77672739Y-28109523D01*
X77672739Y-28052380D01*
X77691786Y-27976190D01*
X77710834Y-27938095D01*
X77748929Y-27900000D01*
X77806072Y-27880952D01*
X77844167Y-27880952D01*
X77901310Y-27900000D01*
X77920358Y-27919047D01*
X78072739Y-27919047D02*
X78091786Y-27900000D01*
X78129881Y-27880952D01*
X78225120Y-27880952D01*
X78263215Y-27900000D01*
X78282262Y-27919047D01*
X78301310Y-27957142D01*
X78301310Y-27995238D01*
X78282262Y-28052380D01*
X78053691Y-28280952D01*
X78301310Y-28280952D01*
X78529881Y-28052380D02*
X78491786Y-28033333D01*
X78472739Y-28014285D01*
X78453691Y-27976190D01*
X78453691Y-27957142D01*
X78472739Y-27919047D01*
X78491786Y-27900000D01*
X78529881Y-27880952D01*
X78606072Y-27880952D01*
X78644167Y-27900000D01*
X78663215Y-27919047D01*
X78682262Y-27957142D01*
X78682262Y-27976190D01*
X78663215Y-28014285D01*
X78644167Y-28033333D01*
X78606072Y-28052380D01*
X78529881Y-28052380D01*
X78491786Y-28071428D01*
X78472739Y-28090476D01*
X78453691Y-28128571D01*
X78453691Y-28204761D01*
X78472739Y-28242857D01*
X78491786Y-28261904D01*
X78529881Y-28280952D01*
X78606072Y-28280952D01*
X78644167Y-28261904D01*
X78663215Y-28242857D01*
X78682262Y-28204761D01*
X78682262Y-28128571D01*
X78663215Y-28090476D01*
X78644167Y-28071428D01*
X78606072Y-28052380D01*
X74617857Y-56717857D02*
X74598809Y-56736904D01*
X74541666Y-56755952D01*
X74503571Y-56755952D01*
X74446428Y-56736904D01*
X74408333Y-56698809D01*
X74389285Y-56660714D01*
X74370238Y-56584523D01*
X74370238Y-56527380D01*
X74389285Y-56451190D01*
X74408333Y-56413095D01*
X74446428Y-56375000D01*
X74503571Y-56355952D01*
X74541666Y-56355952D01*
X74598809Y-56375000D01*
X74617857Y-56394047D01*
X74770238Y-56394047D02*
X74789285Y-56375000D01*
X74827380Y-56355952D01*
X74922619Y-56355952D01*
X74960714Y-56375000D01*
X74979761Y-56394047D01*
X74998809Y-56432142D01*
X74998809Y-56470238D01*
X74979761Y-56527380D01*
X74751190Y-56755952D01*
X74998809Y-56755952D01*
X75341666Y-56355952D02*
X75265476Y-56355952D01*
X75227380Y-56375000D01*
X75208333Y-56394047D01*
X75170238Y-56451190D01*
X75151190Y-56527380D01*
X75151190Y-56679761D01*
X75170238Y-56717857D01*
X75189285Y-56736904D01*
X75227380Y-56755952D01*
X75303571Y-56755952D01*
X75341666Y-56736904D01*
X75360714Y-56717857D01*
X75379761Y-56679761D01*
X75379761Y-56584523D01*
X75360714Y-56546428D01*
X75341666Y-56527380D01*
X75303571Y-56508333D01*
X75227380Y-56508333D01*
X75189285Y-56527380D01*
X75170238Y-56546428D01*
X75151190Y-56584523D01*
X24317857Y-57542857D02*
X24298809Y-57561904D01*
X24241666Y-57580952D01*
X24203571Y-57580952D01*
X24146428Y-57561904D01*
X24108333Y-57523809D01*
X24089285Y-57485714D01*
X24070238Y-57409523D01*
X24070238Y-57352380D01*
X24089285Y-57276190D01*
X24108333Y-57238095D01*
X24146428Y-57200000D01*
X24203571Y-57180952D01*
X24241666Y-57180952D01*
X24298809Y-57200000D01*
X24317857Y-57219047D01*
X24470238Y-57219047D02*
X24489285Y-57200000D01*
X24527380Y-57180952D01*
X24622619Y-57180952D01*
X24660714Y-57200000D01*
X24679761Y-57219047D01*
X24698809Y-57257142D01*
X24698809Y-57295238D01*
X24679761Y-57352380D01*
X24451190Y-57580952D01*
X24698809Y-57580952D01*
X25060714Y-57180952D02*
X24870238Y-57180952D01*
X24851190Y-57371428D01*
X24870238Y-57352380D01*
X24908333Y-57333333D01*
X25003571Y-57333333D01*
X25041666Y-57352380D01*
X25060714Y-57371428D01*
X25079761Y-57409523D01*
X25079761Y-57504761D01*
X25060714Y-57542857D01*
X25041666Y-57561904D01*
X25003571Y-57580952D01*
X24908333Y-57580952D01*
X24870238Y-57561904D01*
X24851190Y-57542857D01*
X63717857Y-49717857D02*
X63698809Y-49736904D01*
X63641666Y-49755952D01*
X63603571Y-49755952D01*
X63546428Y-49736904D01*
X63508333Y-49698809D01*
X63489285Y-49660714D01*
X63470238Y-49584523D01*
X63470238Y-49527380D01*
X63489285Y-49451190D01*
X63508333Y-49413095D01*
X63546428Y-49375000D01*
X63603571Y-49355952D01*
X63641666Y-49355952D01*
X63698809Y-49375000D01*
X63717857Y-49394047D01*
X63870238Y-49394047D02*
X63889285Y-49375000D01*
X63927380Y-49355952D01*
X64022619Y-49355952D01*
X64060714Y-49375000D01*
X64079761Y-49394047D01*
X64098809Y-49432142D01*
X64098809Y-49470238D01*
X64079761Y-49527380D01*
X63851190Y-49755952D01*
X64098809Y-49755952D01*
X64441666Y-49489285D02*
X64441666Y-49755952D01*
X64346428Y-49336904D02*
X64251190Y-49622619D01*
X64498809Y-49622619D01*
X31167857Y-58267857D02*
X31148809Y-58286904D01*
X31091666Y-58305952D01*
X31053571Y-58305952D01*
X30996428Y-58286904D01*
X30958333Y-58248809D01*
X30939285Y-58210714D01*
X30920238Y-58134523D01*
X30920238Y-58077380D01*
X30939285Y-58001190D01*
X30958333Y-57963095D01*
X30996428Y-57925000D01*
X31053571Y-57905952D01*
X31091666Y-57905952D01*
X31148809Y-57925000D01*
X31167857Y-57944047D01*
X31320238Y-57944047D02*
X31339285Y-57925000D01*
X31377380Y-57905952D01*
X31472619Y-57905952D01*
X31510714Y-57925000D01*
X31529761Y-57944047D01*
X31548809Y-57982142D01*
X31548809Y-58020238D01*
X31529761Y-58077380D01*
X31301190Y-58305952D01*
X31548809Y-58305952D01*
X31682142Y-57905952D02*
X31929761Y-57905952D01*
X31796428Y-58058333D01*
X31853571Y-58058333D01*
X31891666Y-58077380D01*
X31910714Y-58096428D01*
X31929761Y-58134523D01*
X31929761Y-58229761D01*
X31910714Y-58267857D01*
X31891666Y-58286904D01*
X31853571Y-58305952D01*
X31739285Y-58305952D01*
X31701190Y-58286904D01*
X31682142Y-58267857D01*
X27992857Y-61417857D02*
X27973809Y-61436904D01*
X27916666Y-61455952D01*
X27878571Y-61455952D01*
X27821428Y-61436904D01*
X27783333Y-61398809D01*
X27764285Y-61360714D01*
X27745238Y-61284523D01*
X27745238Y-61227380D01*
X27764285Y-61151190D01*
X27783333Y-61113095D01*
X27821428Y-61075000D01*
X27878571Y-61055952D01*
X27916666Y-61055952D01*
X27973809Y-61075000D01*
X27992857Y-61094047D01*
X28145238Y-61094047D02*
X28164285Y-61075000D01*
X28202380Y-61055952D01*
X28297619Y-61055952D01*
X28335714Y-61075000D01*
X28354761Y-61094047D01*
X28373809Y-61132142D01*
X28373809Y-61170238D01*
X28354761Y-61227380D01*
X28126190Y-61455952D01*
X28373809Y-61455952D01*
X28526190Y-61094047D02*
X28545238Y-61075000D01*
X28583333Y-61055952D01*
X28678571Y-61055952D01*
X28716666Y-61075000D01*
X28735714Y-61094047D01*
X28754761Y-61132142D01*
X28754761Y-61170238D01*
X28735714Y-61227380D01*
X28507142Y-61455952D01*
X28754761Y-61455952D01*
X26262857Y-61442857D02*
X26243809Y-61461904D01*
X26186666Y-61480952D01*
X26148571Y-61480952D01*
X26091428Y-61461904D01*
X26053333Y-61423809D01*
X26034285Y-61385714D01*
X26015238Y-61309523D01*
X26015238Y-61252380D01*
X26034285Y-61176190D01*
X26053333Y-61138095D01*
X26091428Y-61100000D01*
X26148571Y-61080952D01*
X26186666Y-61080952D01*
X26243809Y-61100000D01*
X26262857Y-61119047D01*
X26415238Y-61119047D02*
X26434285Y-61100000D01*
X26472380Y-61080952D01*
X26567619Y-61080952D01*
X26605714Y-61100000D01*
X26624761Y-61119047D01*
X26643809Y-61157142D01*
X26643809Y-61195238D01*
X26624761Y-61252380D01*
X26396190Y-61480952D01*
X26643809Y-61480952D01*
X27024761Y-61480952D02*
X26796190Y-61480952D01*
X26910476Y-61480952D02*
X26910476Y-61080952D01*
X26872380Y-61138095D01*
X26834285Y-61176190D01*
X26796190Y-61195238D01*
X31192857Y-61342857D02*
X31173809Y-61361904D01*
X31116666Y-61380952D01*
X31078571Y-61380952D01*
X31021428Y-61361904D01*
X30983333Y-61323809D01*
X30964285Y-61285714D01*
X30945238Y-61209523D01*
X30945238Y-61152380D01*
X30964285Y-61076190D01*
X30983333Y-61038095D01*
X31021428Y-61000000D01*
X31078571Y-60980952D01*
X31116666Y-60980952D01*
X31173809Y-61000000D01*
X31192857Y-61019047D01*
X31345238Y-61019047D02*
X31364285Y-61000000D01*
X31402380Y-60980952D01*
X31497619Y-60980952D01*
X31535714Y-61000000D01*
X31554761Y-61019047D01*
X31573809Y-61057142D01*
X31573809Y-61095238D01*
X31554761Y-61152380D01*
X31326190Y-61380952D01*
X31573809Y-61380952D01*
X31821428Y-60980952D02*
X31859523Y-60980952D01*
X31897619Y-61000000D01*
X31916666Y-61019047D01*
X31935714Y-61057142D01*
X31954761Y-61133333D01*
X31954761Y-61228571D01*
X31935714Y-61304761D01*
X31916666Y-61342857D01*
X31897619Y-61361904D01*
X31859523Y-61380952D01*
X31821428Y-61380952D01*
X31783333Y-61361904D01*
X31764285Y-61342857D01*
X31745238Y-61304761D01*
X31726190Y-61228571D01*
X31726190Y-61133333D01*
X31745238Y-61057142D01*
X31764285Y-61019047D01*
X31783333Y-61000000D01*
X31821428Y-60980952D01*
X65442857Y-31542857D02*
X65423809Y-31561904D01*
X65366666Y-31580952D01*
X65328571Y-31580952D01*
X65271428Y-31561904D01*
X65233333Y-31523809D01*
X65214285Y-31485714D01*
X65195238Y-31409523D01*
X65195238Y-31352380D01*
X65214285Y-31276190D01*
X65233333Y-31238095D01*
X65271428Y-31200000D01*
X65328571Y-31180952D01*
X65366666Y-31180952D01*
X65423809Y-31200000D01*
X65442857Y-31219047D01*
X65823809Y-31580952D02*
X65595238Y-31580952D01*
X65709523Y-31580952D02*
X65709523Y-31180952D01*
X65671428Y-31238095D01*
X65633333Y-31276190D01*
X65595238Y-31295238D01*
X66014285Y-31580952D02*
X66090476Y-31580952D01*
X66128571Y-31561904D01*
X66147619Y-31542857D01*
X66185714Y-31485714D01*
X66204761Y-31409523D01*
X66204761Y-31257142D01*
X66185714Y-31219047D01*
X66166666Y-31200000D01*
X66128571Y-31180952D01*
X66052380Y-31180952D01*
X66014285Y-31200000D01*
X65995238Y-31219047D01*
X65976190Y-31257142D01*
X65976190Y-31352380D01*
X65995238Y-31390476D01*
X66014285Y-31409523D01*
X66052380Y-31428571D01*
X66128571Y-31428571D01*
X66166666Y-31409523D01*
X66185714Y-31390476D01*
X66204761Y-31352380D01*
X63942857Y-31567857D02*
X63923809Y-31586904D01*
X63866666Y-31605952D01*
X63828571Y-31605952D01*
X63771428Y-31586904D01*
X63733333Y-31548809D01*
X63714285Y-31510714D01*
X63695238Y-31434523D01*
X63695238Y-31377380D01*
X63714285Y-31301190D01*
X63733333Y-31263095D01*
X63771428Y-31225000D01*
X63828571Y-31205952D01*
X63866666Y-31205952D01*
X63923809Y-31225000D01*
X63942857Y-31244047D01*
X64323809Y-31605952D02*
X64095238Y-31605952D01*
X64209523Y-31605952D02*
X64209523Y-31205952D01*
X64171428Y-31263095D01*
X64133333Y-31301190D01*
X64095238Y-31320238D01*
X64552380Y-31377380D02*
X64514285Y-31358333D01*
X64495238Y-31339285D01*
X64476190Y-31301190D01*
X64476190Y-31282142D01*
X64495238Y-31244047D01*
X64514285Y-31225000D01*
X64552380Y-31205952D01*
X64628571Y-31205952D01*
X64666666Y-31225000D01*
X64685714Y-31244047D01*
X64704761Y-31282142D01*
X64704761Y-31301190D01*
X64685714Y-31339285D01*
X64666666Y-31358333D01*
X64628571Y-31377380D01*
X64552380Y-31377380D01*
X64514285Y-31396428D01*
X64495238Y-31415476D01*
X64476190Y-31453571D01*
X64476190Y-31529761D01*
X64495238Y-31567857D01*
X64514285Y-31586904D01*
X64552380Y-31605952D01*
X64628571Y-31605952D01*
X64666666Y-31586904D01*
X64685714Y-31567857D01*
X64704761Y-31529761D01*
X64704761Y-31453571D01*
X64685714Y-31415476D01*
X64666666Y-31396428D01*
X64628571Y-31377380D01*
X52905357Y-28717857D02*
X52886309Y-28736904D01*
X52829166Y-28755952D01*
X52791071Y-28755952D01*
X52733928Y-28736904D01*
X52695833Y-28698809D01*
X52676785Y-28660714D01*
X52657738Y-28584523D01*
X52657738Y-28527380D01*
X52676785Y-28451190D01*
X52695833Y-28413095D01*
X52733928Y-28375000D01*
X52791071Y-28355952D01*
X52829166Y-28355952D01*
X52886309Y-28375000D01*
X52905357Y-28394047D01*
X53286309Y-28755952D02*
X53057738Y-28755952D01*
X53172023Y-28755952D02*
X53172023Y-28355952D01*
X53133928Y-28413095D01*
X53095833Y-28451190D01*
X53057738Y-28470238D01*
X53629166Y-28355952D02*
X53552976Y-28355952D01*
X53514880Y-28375000D01*
X53495833Y-28394047D01*
X53457738Y-28451190D01*
X53438690Y-28527380D01*
X53438690Y-28679761D01*
X53457738Y-28717857D01*
X53476785Y-28736904D01*
X53514880Y-28755952D01*
X53591071Y-28755952D01*
X53629166Y-28736904D01*
X53648214Y-28717857D01*
X53667261Y-28679761D01*
X53667261Y-28584523D01*
X53648214Y-28546428D01*
X53629166Y-28527380D01*
X53591071Y-28508333D01*
X53514880Y-28508333D01*
X53476785Y-28527380D01*
X53457738Y-28546428D01*
X53438690Y-28584523D01*
X48967857Y-28617857D02*
X48948809Y-28636904D01*
X48891666Y-28655952D01*
X48853571Y-28655952D01*
X48796428Y-28636904D01*
X48758333Y-28598809D01*
X48739285Y-28560714D01*
X48720238Y-28484523D01*
X48720238Y-28427380D01*
X48739285Y-28351190D01*
X48758333Y-28313095D01*
X48796428Y-28275000D01*
X48853571Y-28255952D01*
X48891666Y-28255952D01*
X48948809Y-28275000D01*
X48967857Y-28294047D01*
X49348809Y-28655952D02*
X49120238Y-28655952D01*
X49234523Y-28655952D02*
X49234523Y-28255952D01*
X49196428Y-28313095D01*
X49158333Y-28351190D01*
X49120238Y-28370238D01*
X49710714Y-28255952D02*
X49520238Y-28255952D01*
X49501190Y-28446428D01*
X49520238Y-28427380D01*
X49558333Y-28408333D01*
X49653571Y-28408333D01*
X49691666Y-28427380D01*
X49710714Y-28446428D01*
X49729761Y-28484523D01*
X49729761Y-28579761D01*
X49710714Y-28617857D01*
X49691666Y-28636904D01*
X49653571Y-28655952D01*
X49558333Y-28655952D01*
X49520238Y-28636904D01*
X49501190Y-28617857D01*
X54517857Y-42992857D02*
X54498809Y-43011904D01*
X54441666Y-43030952D01*
X54403571Y-43030952D01*
X54346428Y-43011904D01*
X54308333Y-42973809D01*
X54289285Y-42935714D01*
X54270238Y-42859523D01*
X54270238Y-42802380D01*
X54289285Y-42726190D01*
X54308333Y-42688095D01*
X54346428Y-42650000D01*
X54403571Y-42630952D01*
X54441666Y-42630952D01*
X54498809Y-42650000D01*
X54517857Y-42669047D01*
X54898809Y-43030952D02*
X54670238Y-43030952D01*
X54784523Y-43030952D02*
X54784523Y-42630952D01*
X54746428Y-42688095D01*
X54708333Y-42726190D01*
X54670238Y-42745238D01*
X55241666Y-42764285D02*
X55241666Y-43030952D01*
X55146428Y-42611904D02*
X55051190Y-42897619D01*
X55298809Y-42897619D01*
X45592857Y-38442857D02*
X45573809Y-38461904D01*
X45516666Y-38480952D01*
X45478571Y-38480952D01*
X45421428Y-38461904D01*
X45383333Y-38423809D01*
X45364285Y-38385714D01*
X45345238Y-38309523D01*
X45345238Y-38252380D01*
X45364285Y-38176190D01*
X45383333Y-38138095D01*
X45421428Y-38100000D01*
X45478571Y-38080952D01*
X45516666Y-38080952D01*
X45573809Y-38100000D01*
X45592857Y-38119047D01*
X45973809Y-38480952D02*
X45745238Y-38480952D01*
X45859523Y-38480952D02*
X45859523Y-38080952D01*
X45821428Y-38138095D01*
X45783333Y-38176190D01*
X45745238Y-38195238D01*
X46107142Y-38080952D02*
X46354761Y-38080952D01*
X46221428Y-38233333D01*
X46278571Y-38233333D01*
X46316666Y-38252380D01*
X46335714Y-38271428D01*
X46354761Y-38309523D01*
X46354761Y-38404761D01*
X46335714Y-38442857D01*
X46316666Y-38461904D01*
X46278571Y-38480952D01*
X46164285Y-38480952D01*
X46126190Y-38461904D01*
X46107142Y-38442857D01*
X58767857Y-42542857D02*
X58748809Y-42561904D01*
X58691666Y-42580952D01*
X58653571Y-42580952D01*
X58596428Y-42561904D01*
X58558333Y-42523809D01*
X58539285Y-42485714D01*
X58520238Y-42409523D01*
X58520238Y-42352380D01*
X58539285Y-42276190D01*
X58558333Y-42238095D01*
X58596428Y-42200000D01*
X58653571Y-42180952D01*
X58691666Y-42180952D01*
X58748809Y-42200000D01*
X58767857Y-42219047D01*
X59148809Y-42580952D02*
X58920238Y-42580952D01*
X59034523Y-42580952D02*
X59034523Y-42180952D01*
X58996428Y-42238095D01*
X58958333Y-42276190D01*
X58920238Y-42295238D01*
X59301190Y-42219047D02*
X59320238Y-42200000D01*
X59358333Y-42180952D01*
X59453571Y-42180952D01*
X59491666Y-42200000D01*
X59510714Y-42219047D01*
X59529761Y-42257142D01*
X59529761Y-42295238D01*
X59510714Y-42352380D01*
X59282142Y-42580952D01*
X59529761Y-42580952D01*
X62692857Y-42542857D02*
X62673809Y-42561904D01*
X62616666Y-42580952D01*
X62578571Y-42580952D01*
X62521428Y-42561904D01*
X62483333Y-42523809D01*
X62464285Y-42485714D01*
X62445238Y-42409523D01*
X62445238Y-42352380D01*
X62464285Y-42276190D01*
X62483333Y-42238095D01*
X62521428Y-42200000D01*
X62578571Y-42180952D01*
X62616666Y-42180952D01*
X62673809Y-42200000D01*
X62692857Y-42219047D01*
X63073809Y-42580952D02*
X62845238Y-42580952D01*
X62959523Y-42580952D02*
X62959523Y-42180952D01*
X62921428Y-42238095D01*
X62883333Y-42276190D01*
X62845238Y-42295238D01*
X63454761Y-42580952D02*
X63226190Y-42580952D01*
X63340476Y-42580952D02*
X63340476Y-42180952D01*
X63302380Y-42238095D01*
X63264285Y-42276190D01*
X63226190Y-42295238D01*
X45017857Y-27867857D02*
X44998809Y-27886904D01*
X44941666Y-27905952D01*
X44903571Y-27905952D01*
X44846428Y-27886904D01*
X44808333Y-27848809D01*
X44789285Y-27810714D01*
X44770238Y-27734523D01*
X44770238Y-27677380D01*
X44789285Y-27601190D01*
X44808333Y-27563095D01*
X44846428Y-27525000D01*
X44903571Y-27505952D01*
X44941666Y-27505952D01*
X44998809Y-27525000D01*
X45017857Y-27544047D01*
X45398809Y-27905952D02*
X45170238Y-27905952D01*
X45284523Y-27905952D02*
X45284523Y-27505952D01*
X45246428Y-27563095D01*
X45208333Y-27601190D01*
X45170238Y-27620238D01*
X45646428Y-27505952D02*
X45684523Y-27505952D01*
X45722619Y-27525000D01*
X45741666Y-27544047D01*
X45760714Y-27582142D01*
X45779761Y-27658333D01*
X45779761Y-27753571D01*
X45760714Y-27829761D01*
X45741666Y-27867857D01*
X45722619Y-27886904D01*
X45684523Y-27905952D01*
X45646428Y-27905952D01*
X45608333Y-27886904D01*
X45589285Y-27867857D01*
X45570238Y-27829761D01*
X45551190Y-27753571D01*
X45551190Y-27658333D01*
X45570238Y-27582142D01*
X45589285Y-27544047D01*
X45608333Y-27525000D01*
X45646428Y-27505952D01*
X67633333Y-32292857D02*
X67614285Y-32311904D01*
X67557142Y-32330952D01*
X67519047Y-32330952D01*
X67461904Y-32311904D01*
X67423809Y-32273809D01*
X67404761Y-32235714D01*
X67385714Y-32159523D01*
X67385714Y-32102380D01*
X67404761Y-32026190D01*
X67423809Y-31988095D01*
X67461904Y-31950000D01*
X67519047Y-31930952D01*
X67557142Y-31930952D01*
X67614285Y-31950000D01*
X67633333Y-31969047D01*
X67823809Y-32330952D02*
X67900000Y-32330952D01*
X67938095Y-32311904D01*
X67957142Y-32292857D01*
X67995238Y-32235714D01*
X68014285Y-32159523D01*
X68014285Y-32007142D01*
X67995238Y-31969047D01*
X67976190Y-31950000D01*
X67938095Y-31930952D01*
X67861904Y-31930952D01*
X67823809Y-31950000D01*
X67804761Y-31969047D01*
X67785714Y-32007142D01*
X67785714Y-32102380D01*
X67804761Y-32140476D01*
X67823809Y-32159523D01*
X67861904Y-32178571D01*
X67938095Y-32178571D01*
X67976190Y-32159523D01*
X67995238Y-32140476D01*
X68014285Y-32102380D01*
X69108333Y-36942857D02*
X69089285Y-36961904D01*
X69032142Y-36980952D01*
X68994047Y-36980952D01*
X68936904Y-36961904D01*
X68898809Y-36923809D01*
X68879761Y-36885714D01*
X68860714Y-36809523D01*
X68860714Y-36752380D01*
X68879761Y-36676190D01*
X68898809Y-36638095D01*
X68936904Y-36600000D01*
X68994047Y-36580952D01*
X69032142Y-36580952D01*
X69089285Y-36600000D01*
X69108333Y-36619047D01*
X69336904Y-36752380D02*
X69298809Y-36733333D01*
X69279761Y-36714285D01*
X69260714Y-36676190D01*
X69260714Y-36657142D01*
X69279761Y-36619047D01*
X69298809Y-36600000D01*
X69336904Y-36580952D01*
X69413095Y-36580952D01*
X69451190Y-36600000D01*
X69470238Y-36619047D01*
X69489285Y-36657142D01*
X69489285Y-36676190D01*
X69470238Y-36714285D01*
X69451190Y-36733333D01*
X69413095Y-36752380D01*
X69336904Y-36752380D01*
X69298809Y-36771428D01*
X69279761Y-36790476D01*
X69260714Y-36828571D01*
X69260714Y-36904761D01*
X69279761Y-36942857D01*
X69298809Y-36961904D01*
X69336904Y-36980952D01*
X69413095Y-36980952D01*
X69451190Y-36961904D01*
X69470238Y-36942857D01*
X69489285Y-36904761D01*
X69489285Y-36828571D01*
X69470238Y-36790476D01*
X69451190Y-36771428D01*
X69413095Y-36752380D01*
X69108333Y-38342857D02*
X69089285Y-38361904D01*
X69032142Y-38380952D01*
X68994047Y-38380952D01*
X68936904Y-38361904D01*
X68898809Y-38323809D01*
X68879761Y-38285714D01*
X68860714Y-38209523D01*
X68860714Y-38152380D01*
X68879761Y-38076190D01*
X68898809Y-38038095D01*
X68936904Y-38000000D01*
X68994047Y-37980952D01*
X69032142Y-37980952D01*
X69089285Y-38000000D01*
X69108333Y-38019047D01*
X69241666Y-37980952D02*
X69508333Y-37980952D01*
X69336904Y-38380952D01*
X70923333Y-40642857D02*
X70904285Y-40661904D01*
X70847142Y-40680952D01*
X70809047Y-40680952D01*
X70751904Y-40661904D01*
X70713809Y-40623809D01*
X70694761Y-40585714D01*
X70675714Y-40509523D01*
X70675714Y-40452380D01*
X70694761Y-40376190D01*
X70713809Y-40338095D01*
X70751904Y-40300000D01*
X70809047Y-40280952D01*
X70847142Y-40280952D01*
X70904285Y-40300000D01*
X70923333Y-40319047D01*
X71266190Y-40280952D02*
X71190000Y-40280952D01*
X71151904Y-40300000D01*
X71132857Y-40319047D01*
X71094761Y-40376190D01*
X71075714Y-40452380D01*
X71075714Y-40604761D01*
X71094761Y-40642857D01*
X71113809Y-40661904D01*
X71151904Y-40680952D01*
X71228095Y-40680952D01*
X71266190Y-40661904D01*
X71285238Y-40642857D01*
X71304285Y-40604761D01*
X71304285Y-40509523D01*
X71285238Y-40471428D01*
X71266190Y-40452380D01*
X71228095Y-40433333D01*
X71151904Y-40433333D01*
X71113809Y-40452380D01*
X71094761Y-40471428D01*
X71075714Y-40509523D01*
X69133333Y-35542857D02*
X69114285Y-35561904D01*
X69057142Y-35580952D01*
X69019047Y-35580952D01*
X68961904Y-35561904D01*
X68923809Y-35523809D01*
X68904761Y-35485714D01*
X68885714Y-35409523D01*
X68885714Y-35352380D01*
X68904761Y-35276190D01*
X68923809Y-35238095D01*
X68961904Y-35200000D01*
X69019047Y-35180952D01*
X69057142Y-35180952D01*
X69114285Y-35200000D01*
X69133333Y-35219047D01*
X69495238Y-35180952D02*
X69304761Y-35180952D01*
X69285714Y-35371428D01*
X69304761Y-35352380D01*
X69342857Y-35333333D01*
X69438095Y-35333333D01*
X69476190Y-35352380D01*
X69495238Y-35371428D01*
X69514285Y-35409523D01*
X69514285Y-35504761D01*
X69495238Y-35542857D01*
X69476190Y-35561904D01*
X69438095Y-35580952D01*
X69342857Y-35580952D01*
X69304761Y-35561904D01*
X69285714Y-35542857D01*
X54908333Y-57342857D02*
X54889285Y-57361904D01*
X54832142Y-57380952D01*
X54794047Y-57380952D01*
X54736904Y-57361904D01*
X54698809Y-57323809D01*
X54679761Y-57285714D01*
X54660714Y-57209523D01*
X54660714Y-57152380D01*
X54679761Y-57076190D01*
X54698809Y-57038095D01*
X54736904Y-57000000D01*
X54794047Y-56980952D01*
X54832142Y-56980952D01*
X54889285Y-57000000D01*
X54908333Y-57019047D01*
X55041666Y-56980952D02*
X55289285Y-56980952D01*
X55155952Y-57133333D01*
X55213095Y-57133333D01*
X55251190Y-57152380D01*
X55270238Y-57171428D01*
X55289285Y-57209523D01*
X55289285Y-57304761D01*
X55270238Y-57342857D01*
X55251190Y-57361904D01*
X55213095Y-57380952D01*
X55098809Y-57380952D01*
X55060714Y-57361904D01*
X55041666Y-57342857D01*
X47558333Y-51417857D02*
X47539285Y-51436904D01*
X47482142Y-51455952D01*
X47444047Y-51455952D01*
X47386904Y-51436904D01*
X47348809Y-51398809D01*
X47329761Y-51360714D01*
X47310714Y-51284523D01*
X47310714Y-51227380D01*
X47329761Y-51151190D01*
X47348809Y-51113095D01*
X47386904Y-51075000D01*
X47444047Y-51055952D01*
X47482142Y-51055952D01*
X47539285Y-51075000D01*
X47558333Y-51094047D01*
X47710714Y-51094047D02*
X47729761Y-51075000D01*
X47767857Y-51055952D01*
X47863095Y-51055952D01*
X47901190Y-51075000D01*
X47920238Y-51094047D01*
X47939285Y-51132142D01*
X47939285Y-51170238D01*
X47920238Y-51227380D01*
X47691666Y-51455952D01*
X47939285Y-51455952D01*
X66083333Y-42567857D02*
X66064285Y-42586904D01*
X66007142Y-42605952D01*
X65969047Y-42605952D01*
X65911904Y-42586904D01*
X65873809Y-42548809D01*
X65854761Y-42510714D01*
X65835714Y-42434523D01*
X65835714Y-42377380D01*
X65854761Y-42301190D01*
X65873809Y-42263095D01*
X65911904Y-42225000D01*
X65969047Y-42205952D01*
X66007142Y-42205952D01*
X66064285Y-42225000D01*
X66083333Y-42244047D01*
X66464285Y-42605952D02*
X66235714Y-42605952D01*
X66350000Y-42605952D02*
X66350000Y-42205952D01*
X66311904Y-42263095D01*
X66273809Y-42301190D01*
X66235714Y-42320238D01*
M02*
