G04 #@! TF.GenerationSoftware,KiCad,Pcbnew,5.1.4+dfsg1-1*
G04 #@! TF.CreationDate,2019-11-17T14:33:06+01:00*
G04 #@! TF.ProjectId,PAC5523,50414335-3532-4332-9e6b-696361645f70,rev?*
G04 #@! TF.SameCoordinates,Original*
G04 #@! TF.FileFunction,Copper,L2,Inr*
G04 #@! TF.FilePolarity,Positive*
%FSLAX46Y46*%
G04 Gerber Fmt 4.6, Leading zero omitted, Abs format (unit mm)*
G04 Created by KiCad (PCBNEW 5.1.4+dfsg1-1) date 2019-11-17 14:33:06*
%MOMM*%
%LPD*%
G04 APERTURE LIST*
%ADD10C,0.150000*%
%ADD11C,0.050000*%
%ADD12C,1.600000*%
%ADD13R,1.600000X1.600000*%
%ADD14R,1.350000X1.350000*%
%ADD15O,1.350000X1.350000*%
%ADD16C,0.600000*%
%ADD17C,0.154000*%
%ADD18C,0.200000*%
G04 APERTURE END LIST*
D10*
X30650284Y-45000000D02*
G75*
G03X30650284Y-45000000I-4400284J0D01*
G01*
X78104595Y-45000000D02*
G75*
G03X78104595Y-45000000I-4354595J0D01*
G01*
D11*
X20000000Y-23000000D02*
X80000000Y-23000000D01*
X20000000Y-67000000D02*
X20000000Y-23000000D01*
X80000000Y-67000000D02*
X20000000Y-67000000D01*
X80000000Y-23000000D02*
X80000000Y-67000000D01*
D12*
X27080000Y-59460000D03*
D13*
X30880000Y-59460000D03*
D14*
X23750000Y-51910000D03*
D15*
X23750000Y-53910000D03*
X23750000Y-55910000D03*
D14*
X77000000Y-55910000D03*
D15*
X77000000Y-53910000D03*
X77000000Y-51910000D03*
X48000000Y-40200000D03*
X50000000Y-40200000D03*
X52000000Y-40200000D03*
X54000000Y-40200000D03*
X56000000Y-40200000D03*
D14*
X58000000Y-40200000D03*
D15*
X48000000Y-54420000D03*
X50000000Y-54420000D03*
X52000000Y-54420000D03*
X54000000Y-54420000D03*
X56000000Y-54420000D03*
D14*
X58000000Y-54420000D03*
D15*
X48000000Y-26280000D03*
X50000000Y-26280000D03*
X52000000Y-26280000D03*
X54000000Y-26280000D03*
X56000000Y-26280000D03*
D14*
X58000000Y-26280000D03*
D16*
X59150000Y-52400000D03*
X65175962Y-42275000D03*
X67770000Y-38000000D03*
X61100000Y-40800000D03*
X61064512Y-39264512D03*
X57750000Y-30400000D03*
X61426071Y-35089718D03*
X47010000Y-61100000D03*
X79000000Y-26550000D03*
X79000000Y-24350000D03*
X77700000Y-24350000D03*
X77700000Y-26550000D03*
X71400000Y-26550000D03*
X71400000Y-24350000D03*
X70100000Y-24350000D03*
X23350000Y-26650000D03*
X23350000Y-24450000D03*
X22050000Y-24450000D03*
X22050000Y-26650000D03*
X29700000Y-26650000D03*
X29700000Y-24450000D03*
X28400000Y-24450000D03*
X28400000Y-26650000D03*
X57950000Y-65400000D03*
X57950000Y-63200000D03*
X56650000Y-63200000D03*
X56650000Y-65400000D03*
X66850000Y-65400000D03*
X66850000Y-63200000D03*
X65550000Y-63200000D03*
X65550000Y-65400000D03*
X34450000Y-55150000D03*
X69200000Y-35350000D03*
X65700000Y-35350000D03*
X69200000Y-31900000D03*
X65700000Y-31900000D03*
X78200000Y-63200000D03*
X78200000Y-65400000D03*
X76900000Y-65400000D03*
X76900000Y-63200000D03*
X69350000Y-63200000D03*
X69350000Y-65400000D03*
X68050000Y-65400000D03*
X68050000Y-63200000D03*
X33770000Y-24450000D03*
X33770000Y-26650000D03*
X32470000Y-26650000D03*
X32470000Y-24450000D03*
X42570000Y-24450000D03*
X43870000Y-24450000D03*
X43870000Y-26650000D03*
X42570000Y-26650000D03*
X69595000Y-57755000D03*
X74975000Y-59925000D03*
X39210000Y-43740000D03*
X34770000Y-29050000D03*
X77700000Y-32400000D03*
X73850000Y-31850000D03*
X61050000Y-41800000D03*
X52150000Y-38700000D03*
X52900000Y-25400000D03*
X30650000Y-31100000D03*
X28100000Y-31250000D03*
X58200000Y-31700000D03*
X57550000Y-31650000D03*
X54050000Y-34650000D03*
X54200000Y-35900000D03*
X58950000Y-42300000D03*
X57700000Y-42250000D03*
X61100000Y-42600000D03*
X54050000Y-43650000D03*
X50050000Y-43550000D03*
X43750000Y-45250000D03*
X43750000Y-44450000D03*
X43750000Y-43650000D03*
X39870001Y-42689999D03*
X39920000Y-44190000D03*
X38870000Y-45370000D03*
X35450000Y-55150000D03*
X36450000Y-55150000D03*
X37450000Y-55150000D03*
X38450000Y-55150000D03*
X34450000Y-54150000D03*
X35450000Y-54150000D03*
X36450000Y-54150000D03*
X37450000Y-54150000D03*
X38450000Y-54150000D03*
X34450000Y-53150000D03*
X35450000Y-53150000D03*
X36450000Y-53150000D03*
X37450000Y-53150000D03*
X38450000Y-53150000D03*
X34450000Y-52150000D03*
X35450000Y-52150000D03*
X36450000Y-52150000D03*
X37450000Y-52150000D03*
X38450000Y-52150000D03*
X34450000Y-51150000D03*
X35450000Y-51150000D03*
X36450000Y-51150000D03*
X37450000Y-51150000D03*
X21400000Y-65450000D03*
X21100000Y-60700000D03*
X32700000Y-65650000D03*
X44760000Y-60080000D03*
X45200000Y-59350000D03*
X44400000Y-59450000D03*
X63900000Y-36800000D03*
X75260000Y-37370000D03*
X65210000Y-27040000D03*
X61160000Y-25270000D03*
X60070000Y-25260000D03*
X65250000Y-27680000D03*
X67030000Y-25680000D03*
X68400000Y-26160000D03*
X58020000Y-28420000D03*
X45260000Y-31080000D03*
X44240000Y-37290000D03*
X44240000Y-38140000D03*
X44250000Y-29150000D03*
X44260000Y-30730000D03*
X40770000Y-33090000D03*
X40130000Y-33290000D03*
X42590000Y-32190000D03*
X43830000Y-42390000D03*
X39610000Y-56990000D03*
X46550000Y-60590000D03*
X51650000Y-58530000D03*
X52430000Y-58560000D03*
X54190000Y-57990000D03*
X53440000Y-63100000D03*
X52760000Y-63870000D03*
X51910000Y-64650000D03*
X51720000Y-62480000D03*
X64900000Y-61350000D03*
X64120000Y-62800000D03*
X59530000Y-63840000D03*
X58360000Y-61390000D03*
X69730000Y-60450000D03*
X67490000Y-60500000D03*
X68780000Y-57570000D03*
X68790000Y-56090000D03*
X66940000Y-50970000D03*
X66860000Y-52250000D03*
X73030000Y-53450000D03*
X76050000Y-38940000D03*
X78220000Y-42170000D03*
X64450000Y-53058980D03*
X32760000Y-64280000D03*
X32740000Y-63330000D03*
X31570000Y-61360000D03*
X30590000Y-61790000D03*
X29610000Y-62150000D03*
X34080000Y-62790000D03*
X31770000Y-62720000D03*
X30450000Y-63130000D03*
X36834001Y-45343797D03*
X45800000Y-57100000D03*
X70650000Y-36550000D03*
X59450000Y-53850000D03*
X46600000Y-41150000D03*
X66100474Y-37850474D03*
X44300000Y-34050000D03*
X63030000Y-36380000D03*
X41600000Y-28300000D03*
X41600000Y-41200000D03*
X63200000Y-25100000D03*
X72200000Y-54500000D03*
X67050000Y-53350000D03*
X59265998Y-51405940D03*
X48600000Y-51300000D03*
X66960000Y-58220000D03*
X38011214Y-33117309D03*
X65085989Y-29259810D03*
X35533989Y-32676010D03*
X65852521Y-29243556D03*
X32392500Y-32007500D03*
X66609399Y-29261641D03*
X63450000Y-30800000D03*
X62969000Y-34125000D03*
X71200000Y-29500000D03*
X71455000Y-51655000D03*
X71858891Y-34205775D03*
X67105988Y-28181980D03*
X71400000Y-36100000D03*
X60196424Y-53743368D03*
X73750000Y-34250000D03*
X31397000Y-28753000D03*
X69800000Y-28400000D03*
X78664185Y-34294061D03*
X68550000Y-49950000D03*
X64490000Y-29770000D03*
X75317241Y-32012709D03*
X67066186Y-50193397D03*
X67600000Y-44000002D03*
X67600000Y-43350000D03*
X62450000Y-59000000D03*
X60850000Y-38350000D03*
X71688388Y-37611612D03*
X72981010Y-31800000D03*
X63204012Y-43300000D03*
X65097822Y-28461408D03*
X43570000Y-60200000D03*
X37775000Y-57600000D03*
X42200000Y-54500000D03*
X42200000Y-55200000D03*
X42200000Y-55900000D03*
X42200000Y-56600000D03*
X42200000Y-57300000D03*
X42200000Y-58000000D03*
X42200000Y-58700000D03*
X54800000Y-46900000D03*
X55500000Y-46900000D03*
X56200000Y-46900000D03*
X60000000Y-47000000D03*
X60000000Y-47700000D03*
X60000000Y-48400000D03*
X60000000Y-49100000D03*
X55400000Y-34500000D03*
X54900000Y-34000000D03*
X54300000Y-33400000D03*
X51348750Y-60348750D03*
X51800000Y-60800000D03*
X52300000Y-61300000D03*
X34080000Y-44260000D03*
X34080000Y-43640000D03*
X34080000Y-43010000D03*
X44900000Y-55900000D03*
X44690000Y-51820000D03*
X67490000Y-29210000D03*
X45400000Y-32350000D03*
X71700000Y-30099998D03*
X61200000Y-62600000D03*
X64100000Y-50050000D03*
X68731082Y-29010988D03*
X69700000Y-50250000D03*
X70400000Y-29200000D03*
X74450000Y-52186000D03*
X71600000Y-31900020D03*
X56800000Y-49350000D03*
X57275000Y-36755000D03*
X75399953Y-34200335D03*
X75506587Y-33453902D03*
X67448048Y-49498048D03*
X60917941Y-63667941D03*
X75610980Y-32707152D03*
X63561924Y-31545659D03*
X57275000Y-35485000D03*
X71577477Y-34905318D03*
X71700000Y-40400000D03*
X62350000Y-63050000D03*
D17*
X61426071Y-34076071D02*
X61426071Y-34665454D01*
X57750000Y-30400000D02*
X61426071Y-34076071D01*
X61426071Y-34665454D02*
X61426071Y-35089718D01*
X59200000Y-54100000D02*
X59450000Y-53850000D01*
X45800000Y-56500000D02*
X46727999Y-55572001D01*
X46727999Y-55572001D02*
X58613801Y-55572001D01*
X58613801Y-55572001D02*
X59200000Y-54985802D01*
X45800000Y-57100000D02*
X45800000Y-56500000D01*
X59200000Y-54985802D02*
X59200000Y-54100000D01*
X46899999Y-41449999D02*
X59000001Y-41449999D01*
X46600000Y-41150000D02*
X46899999Y-41449999D01*
X59000001Y-41449999D02*
X60500000Y-39950000D01*
X60500000Y-39950000D02*
X64000948Y-39950000D01*
X64000948Y-39950000D02*
X66100474Y-37850474D01*
X47570000Y-37320000D02*
X62090000Y-37320000D01*
X62090000Y-37320000D02*
X62730001Y-36679999D01*
X44300000Y-34050000D02*
X47570000Y-37320000D01*
X62730001Y-36679999D02*
X63030000Y-36380000D01*
D18*
X72200000Y-54500000D02*
X71050000Y-53350000D01*
X71050000Y-53350000D02*
X67050000Y-53350000D01*
X48600000Y-51300000D02*
X59160058Y-51300000D01*
X67050000Y-53350000D02*
X67050000Y-58130000D01*
D17*
X65085989Y-29224204D02*
X65085989Y-29259810D01*
X65874503Y-28435690D02*
X65085989Y-29224204D01*
X65874503Y-25845685D02*
X65874503Y-28435690D01*
X64147819Y-24119001D02*
X65874503Y-25845685D01*
X38011214Y-29788789D02*
X41681004Y-26118999D01*
X44352186Y-26118999D02*
X46352184Y-24119001D01*
X38011214Y-33117309D02*
X38011214Y-29788789D01*
X41681004Y-26118999D02*
X44352186Y-26118999D01*
X46352184Y-24119001D02*
X64147819Y-24119001D01*
X66152520Y-28943557D02*
X65852521Y-29243556D01*
X44235592Y-25800001D02*
X46224602Y-23810990D01*
X66190988Y-28905089D02*
X66152520Y-28943557D01*
X41564410Y-25800001D02*
X44235592Y-25800001D01*
X46224602Y-23810990D02*
X64275400Y-23810990D01*
X64275400Y-23810990D02*
X66190988Y-25726578D01*
X66190988Y-25726578D02*
X66190988Y-28905089D01*
X35533989Y-31830422D02*
X41564410Y-25800001D01*
X35533989Y-32676010D02*
X35533989Y-31830422D01*
X66498999Y-29151241D02*
X66609399Y-29261641D01*
X66498999Y-25598997D02*
X66498999Y-29151241D01*
X41436829Y-25491990D02*
X44108010Y-25491990D01*
X64402981Y-23502979D02*
X66498999Y-25598997D01*
X34921319Y-32007500D02*
X41436829Y-25491990D01*
X32392500Y-32007500D02*
X34921319Y-32007500D01*
X46097021Y-23502979D02*
X64402981Y-23502979D01*
X44108010Y-25491990D02*
X46097021Y-23502979D01*
X62969000Y-33700736D02*
X62969000Y-34125000D01*
X62969000Y-31281000D02*
X62969000Y-33700736D01*
X63450000Y-30800000D02*
X62969000Y-31281000D01*
X75902229Y-36252231D02*
X79341990Y-39691991D01*
X74894999Y-51655000D02*
X71879264Y-51655000D01*
X75902229Y-34947772D02*
X75902229Y-36252231D01*
X71200000Y-29500000D02*
X74349998Y-29500000D01*
X79341990Y-39691991D02*
X79341990Y-47208009D01*
X71879264Y-51655000D02*
X71455000Y-51655000D01*
X76508011Y-31658013D02*
X76508011Y-34341991D01*
X76508011Y-34341991D02*
X75902229Y-34947772D01*
X79341990Y-47208009D02*
X74894999Y-51655000D01*
X74349998Y-29500000D02*
X76508011Y-31658013D01*
X74121180Y-28400000D02*
X77150000Y-31428820D01*
X69800000Y-28400000D02*
X74121180Y-28400000D01*
X77150000Y-31428820D02*
X77150000Y-32779876D01*
X77150000Y-32779876D02*
X78664185Y-34294061D01*
X43570000Y-60200000D02*
X40375000Y-60200000D01*
X40375000Y-60200000D02*
X38074999Y-57899999D01*
X38074999Y-57899999D02*
X37775000Y-57600000D01*
D18*
X44900000Y-52030000D02*
X44690000Y-51820000D01*
X44900000Y-55900000D02*
X44900000Y-52030000D01*
D17*
X45699999Y-32050001D02*
X45400000Y-32350000D01*
X64063660Y-30423660D02*
X63290000Y-29650000D01*
X67490000Y-29210000D02*
X66276340Y-30423660D01*
X66276340Y-30423660D02*
X64063660Y-30423660D01*
X63290000Y-29650000D02*
X48100000Y-29650000D01*
X48100000Y-29650000D02*
X45699999Y-32050001D01*
X79033979Y-47080430D02*
X75864409Y-50250000D01*
X79033979Y-39819573D02*
X79033979Y-47080430D01*
X75594218Y-36379812D02*
X79033979Y-39819573D01*
X75594218Y-34820191D02*
X75594218Y-36379812D01*
X70370094Y-30650000D02*
X75050000Y-30650000D01*
X75050000Y-30650000D02*
X76200000Y-31800000D01*
X75864409Y-50250000D02*
X69700000Y-50250000D01*
X68731082Y-29010988D02*
X70370094Y-30650000D01*
X76200000Y-31800000D02*
X76200000Y-34214409D01*
X76200000Y-34214409D02*
X75594218Y-34820191D01*
X76714113Y-34571481D02*
X76210240Y-35075353D01*
X76816022Y-31530432D02*
X76816022Y-34469573D01*
X74185591Y-28900001D02*
X76816022Y-31530432D01*
X76816022Y-34469573D02*
X76714113Y-34571481D01*
X70699999Y-28900001D02*
X74185591Y-28900001D01*
X70400000Y-29200000D02*
X70699999Y-28900001D01*
X76210240Y-35075353D02*
X76210240Y-36124649D01*
X76210240Y-36124649D02*
X79650001Y-39564409D01*
X79650001Y-39564409D02*
X79650000Y-47410264D01*
X79650000Y-47410264D02*
X74874264Y-52186000D01*
X74874264Y-52186000D02*
X74450000Y-52186000D01*
X61745000Y-36755000D02*
X64825226Y-33674774D01*
X75099954Y-33900336D02*
X75399953Y-34200335D01*
X64825226Y-33674774D02*
X74874392Y-33674774D01*
X74874392Y-33674774D02*
X75099954Y-33900336D01*
X57275000Y-36755000D02*
X61745000Y-36755000D01*
X63561924Y-34502484D02*
X63561924Y-31969923D01*
X58004746Y-36214746D02*
X61849662Y-36214746D01*
X61849662Y-36214746D02*
X63561924Y-34502484D01*
X63561924Y-31969923D02*
X63561924Y-31545659D01*
X57275000Y-35485000D02*
X58004746Y-36214746D01*
X71931001Y-36583117D02*
X71250000Y-37264118D01*
X71577477Y-34905318D02*
X71931001Y-35258842D01*
X71931001Y-35258842D02*
X71931001Y-36583117D01*
X71157387Y-39857387D02*
X71700000Y-40400000D01*
X71931001Y-36583117D02*
X71157387Y-37356731D01*
X71157387Y-37356731D02*
X71157387Y-39857387D01*
M02*
