G04 #@! TF.GenerationSoftware,KiCad,Pcbnew,5.1.4+dfsg1-1*
G04 #@! TF.CreationDate,2019-12-10T16:08:12+01:00*
G04 #@! TF.ProjectId,PAC5523,50414335-3532-4332-9e6b-696361645f70,rev?*
G04 #@! TF.SameCoordinates,Original*
G04 #@! TF.FileFunction,Copper,L4,Bot*
G04 #@! TF.FilePolarity,Positive*
%FSLAX46Y46*%
G04 Gerber Fmt 4.6, Leading zero omitted, Abs format (unit mm)*
G04 Created by KiCad (PCBNEW 5.1.4+dfsg1-1) date 2019-12-10 16:08:12*
%MOMM*%
%LPD*%
G04 APERTURE LIST*
%ADD10C,0.150000*%
%ADD11C,0.050000*%
%ADD12C,1.600000*%
%ADD13R,1.600000X1.600000*%
%ADD14R,1.350000X1.350000*%
%ADD15O,1.350000X1.350000*%
%ADD16C,0.600000*%
%ADD17C,0.154000*%
%ADD18C,0.200000*%
%ADD19C,0.600000*%
%ADD20C,0.400000*%
%ADD21C,0.800000*%
%ADD22C,1.000000*%
G04 APERTURE END LIST*
D10*
X30650284Y-45000000D02*
G75*
G03X30650284Y-45000000I-4400284J0D01*
G01*
X78104595Y-45000000D02*
G75*
G03X78104595Y-45000000I-4354595J0D01*
G01*
D11*
X20000000Y-23000000D02*
X80000000Y-23000000D01*
X20000000Y-67000000D02*
X20000000Y-23000000D01*
X80000000Y-67000000D02*
X20000000Y-67000000D01*
X80000000Y-23000000D02*
X80000000Y-67000000D01*
D12*
X27080000Y-59460000D03*
D13*
X30880000Y-59460000D03*
D14*
X23750000Y-51910000D03*
D15*
X23750000Y-53910000D03*
X23750000Y-55910000D03*
D14*
X77000000Y-55910000D03*
D15*
X77000000Y-53910000D03*
X77000000Y-51910000D03*
X48000000Y-40200000D03*
X50000000Y-40200000D03*
X52000000Y-40200000D03*
X54000000Y-40200000D03*
X56000000Y-40200000D03*
D14*
X58000000Y-40200000D03*
D15*
X48000000Y-54420000D03*
X50000000Y-54420000D03*
X52000000Y-54420000D03*
X54000000Y-54420000D03*
X56000000Y-54420000D03*
D14*
X58000000Y-54420000D03*
D15*
X48000000Y-26280000D03*
X50000000Y-26280000D03*
X52000000Y-26280000D03*
X54000000Y-26280000D03*
X56000000Y-26280000D03*
D14*
X58000000Y-26280000D03*
D16*
X59150000Y-52400000D03*
X65175962Y-42275000D03*
X67770000Y-38000000D03*
X61100000Y-40800000D03*
X61064512Y-39264512D03*
X57750000Y-30400000D03*
X61420634Y-35095155D03*
X47010000Y-61100000D03*
X79000000Y-26550000D03*
X79000000Y-24350000D03*
X77700000Y-24350000D03*
X77700000Y-26550000D03*
X71400000Y-26550000D03*
X71400000Y-24350000D03*
X70100000Y-24350000D03*
X23350000Y-26650000D03*
X23350000Y-24450000D03*
X22050000Y-24450000D03*
X22050000Y-26650000D03*
X29700000Y-26650000D03*
X29700000Y-24450000D03*
X28400000Y-24450000D03*
X28400000Y-26650000D03*
X57950000Y-65400000D03*
X57950000Y-63200000D03*
X56650000Y-63200000D03*
X56650000Y-65400000D03*
X66850000Y-65400000D03*
X66850000Y-63200000D03*
X65550000Y-63200000D03*
X65550000Y-65400000D03*
X34450000Y-55150000D03*
X69200000Y-35350000D03*
X65700000Y-35350000D03*
X69200000Y-31900000D03*
X65700000Y-31900000D03*
X78200000Y-63200000D03*
X78200000Y-65400000D03*
X76900000Y-65400000D03*
X76900000Y-63200000D03*
X69350000Y-63200000D03*
X69350000Y-65400000D03*
X68050000Y-65400000D03*
X68050000Y-63200000D03*
X33770000Y-24450000D03*
X33770000Y-26650000D03*
X32470000Y-26650000D03*
X32470000Y-24450000D03*
X42570000Y-24450000D03*
X43870000Y-24450000D03*
X43870000Y-26650000D03*
X42570000Y-26650000D03*
X69595000Y-57755000D03*
X74975000Y-59925000D03*
X39210000Y-43740000D03*
X34770000Y-29050000D03*
X77700000Y-32400000D03*
X73850000Y-31850000D03*
X61050000Y-41800000D03*
X52150000Y-38700000D03*
X52900000Y-25400000D03*
X30650000Y-31100000D03*
X28100000Y-31250000D03*
X58200000Y-31700000D03*
X57550000Y-31650000D03*
X54050000Y-34650000D03*
X54200000Y-35900000D03*
X58950000Y-42300000D03*
X57700000Y-42250000D03*
X61100000Y-42600000D03*
X54050000Y-43650000D03*
X50050000Y-43550000D03*
X43750000Y-45250000D03*
X43750000Y-44450000D03*
X43750000Y-43650000D03*
X39870001Y-42689999D03*
X39920000Y-44190000D03*
X38870000Y-45370000D03*
X35450000Y-55150000D03*
X36450000Y-55150000D03*
X37450000Y-55150000D03*
X38450000Y-55150000D03*
X34450000Y-54150000D03*
X35450000Y-54150000D03*
X36450000Y-54150000D03*
X37450000Y-54150000D03*
X38450000Y-54150000D03*
X34450000Y-53150000D03*
X35450000Y-53150000D03*
X36450000Y-53150000D03*
X37450000Y-53150000D03*
X38450000Y-53150000D03*
X34450000Y-52150000D03*
X35450000Y-52150000D03*
X36450000Y-52150000D03*
X37450000Y-52150000D03*
X38450000Y-52150000D03*
X34450000Y-51150000D03*
X35450000Y-51150000D03*
X36450000Y-51150000D03*
X37450000Y-51150000D03*
X21400000Y-65450000D03*
X21100000Y-60700000D03*
X32700000Y-65650000D03*
X44760000Y-60080000D03*
X45200000Y-59350000D03*
X44400000Y-59450000D03*
X63700000Y-37200000D03*
X75260000Y-37370000D03*
X65210000Y-27040000D03*
X61160000Y-25270000D03*
X60070000Y-25260000D03*
X64700000Y-27300000D03*
X67030000Y-25680000D03*
X68400000Y-26160000D03*
X58020000Y-28420000D03*
X45260000Y-31080000D03*
X44240000Y-37290000D03*
X44240000Y-38140000D03*
X44250000Y-29150000D03*
X44260000Y-30730000D03*
X40770000Y-33090000D03*
X40130000Y-33290000D03*
X42590000Y-32190000D03*
X43830000Y-42390000D03*
X39610000Y-56990000D03*
X46550000Y-60590000D03*
X51650000Y-58530000D03*
X52430000Y-58560000D03*
X54190000Y-57990000D03*
X53440000Y-63100000D03*
X52760000Y-63870000D03*
X51910000Y-64650000D03*
X51720000Y-62480000D03*
X64900000Y-61350000D03*
X64120000Y-62800000D03*
X59530000Y-63840000D03*
X58360000Y-61390000D03*
X69730000Y-60450000D03*
X67490000Y-60500000D03*
X68780000Y-57570000D03*
X68790000Y-56090000D03*
X66940000Y-50970000D03*
X66860000Y-52250000D03*
X73030000Y-53450000D03*
X76300000Y-39000000D03*
X78220000Y-42170000D03*
X64450000Y-53058980D03*
X32760000Y-64280000D03*
X32740000Y-63330000D03*
X31570000Y-61360000D03*
X30590000Y-61790000D03*
X29610000Y-62150000D03*
X34080000Y-62790000D03*
X31770000Y-62720000D03*
X30450000Y-63130000D03*
X36834001Y-45343797D03*
X45800000Y-57100000D03*
X70800000Y-37000000D03*
X59450000Y-53850000D03*
X46600000Y-41150000D03*
X66100474Y-37850474D03*
X44300000Y-34050000D03*
X63029977Y-36381010D03*
X41600000Y-28300000D03*
X41600000Y-41200000D03*
X63200000Y-25100000D03*
X72200000Y-54500000D03*
X67050000Y-53350000D03*
X59265998Y-51405940D03*
X48600000Y-51300000D03*
X66960000Y-58220000D03*
X38011214Y-33117309D03*
X65299998Y-28800000D03*
X35533989Y-32676010D03*
X65907866Y-29259281D03*
X32392500Y-32007500D03*
X66661873Y-29262017D03*
X62969000Y-34125000D03*
X63400000Y-30300000D03*
X71455000Y-51655000D03*
X71198611Y-29440789D03*
X71800000Y-34205775D03*
X67105988Y-28181980D03*
X60196424Y-53743368D03*
X71700000Y-36400004D03*
X31397000Y-28753000D03*
X74437508Y-34360000D03*
X78664185Y-34294061D03*
X68550000Y-49950000D03*
X64400000Y-29300000D03*
X69825366Y-28352969D03*
X67066186Y-50193397D03*
X75311432Y-31999412D03*
X67600000Y-44000002D03*
X67600000Y-43350000D03*
X62450000Y-59000000D03*
X60850000Y-38350000D03*
X63204012Y-43300000D03*
X72993668Y-31800000D03*
X65300000Y-27900000D03*
X72243802Y-37742753D03*
X43570000Y-60200000D03*
X37775000Y-57600000D03*
X42200000Y-54500000D03*
X42200000Y-55200000D03*
X42200000Y-55900000D03*
X42200000Y-56600000D03*
X42200000Y-57300000D03*
X42200000Y-58000000D03*
X42200000Y-58700000D03*
X54800000Y-46900000D03*
X55500000Y-46900000D03*
X56200000Y-46900000D03*
X60000000Y-47000000D03*
X60000000Y-47700000D03*
X60000000Y-48400000D03*
X60000000Y-49100000D03*
X55400000Y-34500000D03*
X54900000Y-34000000D03*
X54300000Y-33400000D03*
X51348750Y-60348750D03*
X51800000Y-60800000D03*
X52300000Y-61300000D03*
X34080000Y-44260000D03*
X34080000Y-43640000D03*
X34080000Y-43010000D03*
X44900000Y-55900000D03*
X44690000Y-51820000D03*
X45400000Y-32350000D03*
X67401502Y-29115447D03*
X61200000Y-62600000D03*
X64100000Y-50050000D03*
X71754602Y-29954741D03*
X69700000Y-50250000D03*
X68901138Y-28461405D03*
X74450000Y-52186000D03*
X70600000Y-28599996D03*
X56800000Y-49350000D03*
X71623646Y-31848184D03*
X57275000Y-36755000D03*
X75499513Y-34190754D03*
X67448048Y-49498048D03*
X75506870Y-33436778D03*
X60917941Y-63667941D03*
X75613379Y-32690326D03*
X57275000Y-35485000D03*
X63143038Y-31307924D03*
X71750000Y-35000000D03*
X71700000Y-40400000D03*
X62350000Y-63050000D03*
D17*
X59799999Y-52100001D02*
X65300000Y-46600000D01*
X59150000Y-52400000D02*
X59449999Y-52100001D01*
X65300000Y-46600000D02*
X65300000Y-42399038D01*
X59449999Y-52100001D02*
X59799999Y-52100001D01*
X65300000Y-42399038D02*
X65175962Y-42275000D01*
X67937500Y-40012500D02*
X67937500Y-38167500D01*
X59349998Y-53000000D02*
X65706964Y-46643034D01*
X57420000Y-53000000D02*
X59349998Y-53000000D01*
X56000000Y-54420000D02*
X57420000Y-53000000D01*
X65706964Y-42243036D02*
X67937500Y-40012500D01*
X67937500Y-38167500D02*
X67770000Y-38000000D01*
X65706964Y-46643034D02*
X65706964Y-42243036D01*
D18*
X61100000Y-40800000D02*
X61100000Y-39300000D01*
X61100000Y-39300000D02*
X61064512Y-39264512D01*
D17*
X56000000Y-26516241D02*
X56000000Y-26280000D01*
X70800000Y-37585592D02*
X70800000Y-36824264D01*
X66014975Y-42370617D02*
X70800000Y-37585592D01*
X66014975Y-46770616D02*
X66014975Y-42370617D01*
X59450000Y-53335590D02*
X66014975Y-46770616D01*
X59450000Y-53850000D02*
X59450000Y-53335590D01*
D19*
X41600000Y-28300000D02*
X41600000Y-41200000D01*
X43944998Y-28300000D02*
X47744998Y-24500000D01*
X41600000Y-28300000D02*
X43944998Y-28300000D01*
X47744998Y-24500000D02*
X62600000Y-24500000D01*
X62600000Y-24500000D02*
X63200000Y-25100000D01*
D18*
X59160058Y-51300000D02*
X59265998Y-51405940D01*
X67050000Y-58130000D02*
X66960000Y-58220000D01*
D17*
X71858891Y-34205775D02*
X72462658Y-33602008D01*
X72462658Y-33602008D02*
X72462658Y-29676776D01*
X72462658Y-29676776D02*
X70585882Y-27800000D01*
X67487968Y-27800000D02*
X67405987Y-27881981D01*
X70585882Y-27800000D02*
X67487968Y-27800000D01*
X67405987Y-27881981D02*
X67105988Y-28181980D01*
X71700000Y-37100000D02*
X71700000Y-36824268D01*
X71108011Y-37691989D02*
X71700000Y-37100000D01*
X71108011Y-37713174D02*
X71108011Y-37691989D01*
X66350000Y-42471184D02*
X71108011Y-37713174D01*
X60196424Y-53167694D02*
X66350000Y-47014118D01*
X60196424Y-53743368D02*
X60196424Y-53167694D01*
X66350000Y-47014118D02*
X66350000Y-42471184D01*
X71700000Y-36824268D02*
X71700000Y-36400004D01*
X32968999Y-27181001D02*
X44313036Y-27181001D01*
X47525047Y-23968990D02*
X67973954Y-23968990D01*
X31397000Y-28753000D02*
X32968999Y-27181001D01*
X74437508Y-30432544D02*
X74437508Y-33935736D01*
X74437508Y-33935736D02*
X74437508Y-34360000D01*
X67973954Y-23968990D02*
X74437508Y-30432544D01*
X44313036Y-27181001D02*
X47525047Y-23968990D01*
X78664185Y-34294061D02*
X78100000Y-34858246D01*
X78100000Y-34858246D02*
X78100000Y-38128817D01*
X78100000Y-38128817D02*
X79566020Y-39594836D01*
X79566020Y-47205163D02*
X77471182Y-49300000D01*
X79566020Y-39594836D02*
X79566020Y-47205163D01*
X77471182Y-49300000D02*
X76491396Y-50279787D01*
X70708604Y-50279787D02*
X69928817Y-49500000D01*
X76491396Y-50279787D02*
X70708604Y-50279787D01*
X69928817Y-49500000D02*
X69000000Y-49500000D01*
X69000000Y-49500000D02*
X68550000Y-49950000D01*
X65090000Y-29390000D02*
X64490000Y-29390000D01*
X64490000Y-29390000D02*
X64400000Y-29300000D01*
X65500000Y-29800000D02*
X65090000Y-29390000D01*
X69825366Y-28352969D02*
X68378335Y-29800000D01*
X68378335Y-29800000D02*
X65500000Y-29800000D01*
X77750000Y-38214407D02*
X77750000Y-34013716D01*
X76363815Y-49971777D02*
X79258010Y-47077582D01*
X70014409Y-49150000D02*
X70836185Y-49971777D01*
X67066186Y-50193397D02*
X67538583Y-50193397D01*
X75735696Y-31999412D02*
X75311432Y-31999412D01*
X68581980Y-49150000D02*
X70014409Y-49150000D01*
X67538583Y-50193397D02*
X68581980Y-49150000D01*
X70836185Y-49971777D02*
X76363815Y-49971777D01*
X77750000Y-34013716D02*
X75735696Y-31999412D01*
X79258010Y-47077582D02*
X79258010Y-39722417D01*
X79258010Y-39722417D02*
X77750000Y-38214407D01*
X63204012Y-40279748D02*
X63204012Y-42875736D01*
X60850000Y-38350000D02*
X61274264Y-38350000D01*
X63204012Y-42875736D02*
X63204012Y-43300000D01*
X61274264Y-38350000D02*
X63204012Y-40279748D01*
D20*
X67600000Y-47550000D02*
X62450000Y-52700000D01*
X67600000Y-43350000D02*
X67600000Y-47550000D01*
X62450000Y-58575736D02*
X62450000Y-59000000D01*
X62450000Y-52700000D02*
X62450000Y-58575736D01*
X65900000Y-27300000D02*
X65599999Y-27600001D01*
X70695423Y-27300000D02*
X65900000Y-27300000D01*
X72893669Y-36972648D02*
X72893669Y-29498246D01*
X67600000Y-44000002D02*
X67600000Y-42266317D01*
X67600000Y-42266317D02*
X72893669Y-36972648D01*
X65599999Y-27600001D02*
X65300000Y-27900000D01*
X72893669Y-29498246D02*
X70695423Y-27300000D01*
D21*
X42200000Y-54500000D02*
X42200000Y-55200000D01*
X42200000Y-55900000D02*
X42200000Y-56600000D01*
X42200000Y-57300000D02*
X42200000Y-58000000D01*
D22*
X42200000Y-58700000D02*
X42200000Y-54500000D01*
X54800000Y-46900000D02*
X59900000Y-46900000D01*
X59900000Y-46900000D02*
X60000000Y-47000000D01*
X60000000Y-49100000D02*
X60000000Y-47000000D01*
X54900000Y-34000000D02*
X54300000Y-33400000D01*
X55400000Y-34500000D02*
X54900000Y-34000000D01*
X42200000Y-54500000D02*
X45500000Y-54500000D01*
X45500000Y-54500000D02*
X51348750Y-60348750D01*
X52300000Y-61300000D02*
X51348750Y-60348750D01*
X42200000Y-54500000D02*
X42200000Y-53900000D01*
X34080000Y-43180000D02*
X34080000Y-43980000D01*
X55400000Y-36800000D02*
X55400000Y-34500000D01*
X60000000Y-47000000D02*
X60000000Y-39672798D01*
X60000000Y-39672798D02*
X58727202Y-38400000D01*
X58727202Y-38400000D02*
X57000000Y-38400000D01*
X57000000Y-38400000D02*
X55400000Y-36800000D01*
X45250000Y-46900000D02*
X54800000Y-46900000D01*
X42200000Y-54500000D02*
X42200000Y-49950000D01*
X42200000Y-49950000D02*
X45250000Y-46900000D01*
X34080000Y-45750000D02*
X34080000Y-44260000D01*
X42180000Y-52360000D02*
X40690000Y-52360000D01*
X40690000Y-52360000D02*
X34080000Y-45750000D01*
D17*
X61724000Y-52426000D02*
X63800001Y-50349999D01*
X61200000Y-62600000D02*
X61724000Y-62076000D01*
X63800001Y-50349999D02*
X64100000Y-50050000D01*
X61724000Y-62076000D02*
X61724000Y-52426000D01*
X72300000Y-36100000D02*
X71750000Y-35550000D01*
X64100000Y-50050000D02*
X66658010Y-47491990D01*
X72154647Y-33095353D02*
X72154647Y-30354786D01*
X72054601Y-30254740D02*
X71754602Y-29954741D01*
X72300000Y-36935592D02*
X72300000Y-36100000D01*
X71550000Y-35550000D02*
X71531001Y-35531001D01*
X71495119Y-35531001D02*
X71046476Y-35082358D01*
X71750000Y-35550000D02*
X71550000Y-35550000D01*
X71531001Y-35531001D02*
X71495119Y-35531001D01*
X66658011Y-47141700D02*
X66658011Y-42598765D01*
X71046476Y-34203524D02*
X72154647Y-33095353D01*
X66658011Y-42598765D02*
X71416022Y-37840756D01*
X71416022Y-37819570D02*
X72300000Y-36935592D01*
X71046476Y-35082358D02*
X71046476Y-34203524D01*
X66658010Y-47491990D02*
X66658011Y-47141700D01*
X71416022Y-37840756D02*
X71416022Y-37819570D01*
X72154647Y-30354786D02*
X72054601Y-30254740D01*
X71600000Y-33100000D02*
X71600000Y-31871830D01*
X70738466Y-33961534D02*
X71600000Y-33100000D01*
X70738466Y-35659474D02*
X70738466Y-33961534D01*
X68948942Y-37448998D02*
X70738466Y-35659474D01*
X67525118Y-37448998D02*
X68948942Y-37448998D01*
X57281010Y-49831010D02*
X61568990Y-49831010D01*
X56800000Y-49350000D02*
X57281010Y-49831010D01*
X61568990Y-49831010D02*
X64568999Y-46831001D01*
X71600000Y-31871830D02*
X71623646Y-31848184D01*
X64568999Y-46831001D02*
X64568999Y-40405117D01*
X64568999Y-40405117D02*
X67525118Y-37448998D01*
X76236233Y-49663766D02*
X78949999Y-46950000D01*
X67448048Y-49498048D02*
X68104107Y-48841989D01*
X76030513Y-33960421D02*
X75806869Y-33736777D01*
X70141991Y-48841989D02*
X70963767Y-49663766D01*
X78949999Y-39849999D02*
X76030513Y-36930513D01*
X75806869Y-33736777D02*
X75506870Y-33436778D01*
X76030513Y-36930513D02*
X76030513Y-33960421D01*
X70963767Y-49663766D02*
X76236233Y-49663766D01*
X78949999Y-46950000D02*
X78949999Y-39849999D01*
X68104107Y-48841989D02*
X70141991Y-48841989D01*
X75189115Y-32690326D02*
X75613379Y-32690326D01*
X74968509Y-32910932D02*
X75189115Y-32690326D01*
X62177989Y-60296418D02*
X63049999Y-59424409D01*
X68141989Y-42630448D02*
X74968509Y-35803928D01*
X68141989Y-47617551D02*
X68141989Y-42630448D01*
X63049999Y-52709540D02*
X68141989Y-47617551D01*
X60917941Y-63667941D02*
X62177989Y-62407893D01*
X74968509Y-35803928D02*
X74968509Y-32910932D01*
X62177989Y-62407893D02*
X62177989Y-60296418D01*
X63049999Y-59424409D02*
X63049999Y-52709540D01*
X62486000Y-60424000D02*
X62486000Y-62914000D01*
X63358010Y-59551990D02*
X62486000Y-60424000D01*
X63358010Y-52837122D02*
X63358010Y-59551990D01*
X68450000Y-47745132D02*
X63358010Y-52837122D01*
X68450000Y-43650000D02*
X68450000Y-47745132D01*
X62486000Y-62914000D02*
X62350000Y-63050000D01*
X71700000Y-40400000D02*
X68450000Y-43650000D01*
G36*
X79798000Y-39392002D02*
G01*
X79794506Y-39387744D01*
X79794502Y-39387740D01*
X79784862Y-39375994D01*
X79773117Y-39366355D01*
X78408000Y-38001240D01*
X78408000Y-35905551D01*
X78504630Y-36002181D01*
X78623171Y-36081388D01*
X78754887Y-36135946D01*
X78894716Y-36163760D01*
X79037284Y-36163760D01*
X79177113Y-36135946D01*
X79308829Y-36081388D01*
X79427370Y-36002181D01*
X79528181Y-35901370D01*
X79607388Y-35782829D01*
X79661946Y-35651113D01*
X79689760Y-35511284D01*
X79689760Y-35368716D01*
X79661946Y-35228887D01*
X79607388Y-35097171D01*
X79528181Y-34978630D01*
X79427370Y-34877819D01*
X79308829Y-34798612D01*
X79177113Y-34744054D01*
X79037284Y-34716240D01*
X78988124Y-34716240D01*
X79002678Y-34706515D01*
X79076639Y-34632554D01*
X79134751Y-34545584D01*
X79174779Y-34448948D01*
X79195185Y-34346360D01*
X79195185Y-34241762D01*
X79174779Y-34139174D01*
X79134751Y-34042538D01*
X79076639Y-33955568D01*
X79002678Y-33881607D01*
X78915708Y-33823495D01*
X78819072Y-33783467D01*
X78716484Y-33763061D01*
X78611886Y-33763061D01*
X78509298Y-33783467D01*
X78412662Y-33823495D01*
X78325692Y-33881607D01*
X78251731Y-33955568D01*
X78193619Y-34042538D01*
X78153591Y-34139174D01*
X78133185Y-34241762D01*
X78133185Y-34346360D01*
X78140340Y-34382330D01*
X78058000Y-34464670D01*
X78058000Y-34028835D01*
X78059489Y-34013715D01*
X78058000Y-33998595D01*
X78058000Y-33998588D01*
X78053543Y-33953337D01*
X78051834Y-33947701D01*
X78035931Y-33895279D01*
X78025283Y-33875358D01*
X78007332Y-33841773D01*
X77968842Y-33794874D01*
X77957091Y-33785230D01*
X75964187Y-31792327D01*
X75954538Y-31780570D01*
X75907639Y-31742080D01*
X75854133Y-31713481D01*
X75796075Y-31695869D01*
X75750824Y-31691412D01*
X75750816Y-31691412D01*
X75743799Y-31690721D01*
X75723886Y-31660919D01*
X75649925Y-31586958D01*
X75562955Y-31528846D01*
X75466319Y-31488818D01*
X75363731Y-31468412D01*
X75259133Y-31468412D01*
X75156545Y-31488818D01*
X75059909Y-31528846D01*
X74972939Y-31586958D01*
X74898978Y-31660919D01*
X74840866Y-31747889D01*
X74800838Y-31844525D01*
X74780432Y-31947113D01*
X74780432Y-32051711D01*
X74800838Y-32154299D01*
X74840866Y-32250935D01*
X74898978Y-32337905D01*
X74972939Y-32411866D01*
X75011512Y-32437640D01*
X74997396Y-32449224D01*
X74982023Y-32461840D01*
X74982019Y-32461844D01*
X74970273Y-32471484D01*
X74960633Y-32483231D01*
X74761418Y-32682447D01*
X74749668Y-32692090D01*
X74745508Y-32697159D01*
X74745508Y-30447664D01*
X74746997Y-30432544D01*
X74745508Y-30417424D01*
X74745508Y-30417416D01*
X74741051Y-30372165D01*
X74723439Y-30314107D01*
X74694840Y-30260601D01*
X74674937Y-30236350D01*
X74665994Y-30225452D01*
X74665990Y-30225448D01*
X74656350Y-30213702D01*
X74644605Y-30204063D01*
X68202445Y-23761905D01*
X68192796Y-23750148D01*
X68145897Y-23711658D01*
X68092391Y-23683059D01*
X68034333Y-23665447D01*
X67989082Y-23660990D01*
X67989074Y-23660990D01*
X67973954Y-23659501D01*
X67958834Y-23660990D01*
X47540167Y-23660990D01*
X47525047Y-23659501D01*
X47509927Y-23660990D01*
X47509919Y-23660990D01*
X47464668Y-23665447D01*
X47406610Y-23683059D01*
X47353104Y-23711658D01*
X47317955Y-23740504D01*
X47317951Y-23740508D01*
X47306205Y-23750148D01*
X47296565Y-23761894D01*
X44185460Y-26873001D01*
X32984118Y-26873001D01*
X32968998Y-26871512D01*
X32953878Y-26873001D01*
X32953871Y-26873001D01*
X32914374Y-26876891D01*
X32908619Y-26877458D01*
X32850562Y-26895070D01*
X32797056Y-26923669D01*
X32750157Y-26962159D01*
X32740513Y-26973910D01*
X31485269Y-28229155D01*
X31449299Y-28222000D01*
X31344701Y-28222000D01*
X31242113Y-28242406D01*
X31145477Y-28282434D01*
X31058507Y-28340546D01*
X30984546Y-28414507D01*
X30926434Y-28501477D01*
X30886406Y-28598113D01*
X30866000Y-28700701D01*
X30866000Y-28805299D01*
X30886406Y-28907887D01*
X30926434Y-29004523D01*
X30984546Y-29091493D01*
X31058507Y-29165454D01*
X31145477Y-29223566D01*
X31242113Y-29263594D01*
X31344701Y-29284000D01*
X31449299Y-29284000D01*
X31551887Y-29263594D01*
X31648523Y-29223566D01*
X31735493Y-29165454D01*
X31809454Y-29091493D01*
X31867566Y-29004523D01*
X31907594Y-28907887D01*
X31928000Y-28805299D01*
X31928000Y-28700701D01*
X31920845Y-28664731D01*
X33096576Y-27489001D01*
X44005051Y-27489001D01*
X43725052Y-27769000D01*
X41626084Y-27769000D01*
X41600000Y-27766431D01*
X41573916Y-27769000D01*
X41547701Y-27769000D01*
X41521992Y-27774114D01*
X41495906Y-27776683D01*
X41470824Y-27784292D01*
X41445113Y-27789406D01*
X41420890Y-27799439D01*
X41395812Y-27807047D01*
X41372701Y-27819400D01*
X41348477Y-27829434D01*
X41326677Y-27844000D01*
X41303565Y-27856354D01*
X41283305Y-27872981D01*
X41261507Y-27887546D01*
X41242970Y-27906083D01*
X41222710Y-27922710D01*
X41206083Y-27942970D01*
X41187546Y-27961507D01*
X41172981Y-27983305D01*
X41156354Y-28003565D01*
X41144000Y-28026677D01*
X41129434Y-28048477D01*
X41119400Y-28072701D01*
X41107047Y-28095812D01*
X41099439Y-28120890D01*
X41089406Y-28145113D01*
X41084292Y-28170824D01*
X41076683Y-28195906D01*
X41074114Y-28221992D01*
X41069000Y-28247701D01*
X41069000Y-28273916D01*
X41066431Y-28300000D01*
X41069000Y-28326084D01*
X41069001Y-41147696D01*
X41069000Y-41147701D01*
X41069000Y-41252299D01*
X41074116Y-41278018D01*
X41076684Y-41304094D01*
X41084290Y-41329167D01*
X41089406Y-41354887D01*
X41099443Y-41379119D01*
X41107048Y-41404188D01*
X41119397Y-41427291D01*
X41129434Y-41451523D01*
X41144005Y-41473330D01*
X41156355Y-41496435D01*
X41172976Y-41516688D01*
X41187546Y-41538493D01*
X41206089Y-41557036D01*
X41222711Y-41577290D01*
X41242965Y-41593912D01*
X41261507Y-41612454D01*
X41283311Y-41627023D01*
X41303566Y-41643646D01*
X41326673Y-41655997D01*
X41348477Y-41670566D01*
X41372705Y-41680602D01*
X41395813Y-41692953D01*
X41420888Y-41700560D01*
X41445113Y-41710594D01*
X41470827Y-41715709D01*
X41495907Y-41723317D01*
X41521991Y-41725886D01*
X41547701Y-41731000D01*
X41573916Y-41731000D01*
X41600000Y-41733569D01*
X41626084Y-41731000D01*
X41652299Y-41731000D01*
X41678008Y-41725886D01*
X41704094Y-41723317D01*
X41729176Y-41715708D01*
X41754887Y-41710594D01*
X41779110Y-41700561D01*
X41804188Y-41692953D01*
X41827299Y-41680600D01*
X41851523Y-41670566D01*
X41873323Y-41656000D01*
X41896435Y-41643646D01*
X41916695Y-41627019D01*
X41938493Y-41612454D01*
X41957030Y-41593917D01*
X41977290Y-41577290D01*
X41993917Y-41557030D01*
X42012454Y-41538493D01*
X42027019Y-41516695D01*
X42043646Y-41496435D01*
X42056000Y-41473323D01*
X42070566Y-41451523D01*
X42080600Y-41427299D01*
X42092953Y-41404188D01*
X42100561Y-41379110D01*
X42110594Y-41354887D01*
X42115708Y-41329176D01*
X42123317Y-41304094D01*
X42125886Y-41278008D01*
X42131000Y-41252299D01*
X42131000Y-41097701D01*
X46069000Y-41097701D01*
X46069000Y-41202299D01*
X46089406Y-41304887D01*
X46129434Y-41401523D01*
X46187546Y-41488493D01*
X46261507Y-41562454D01*
X46348477Y-41620566D01*
X46445113Y-41660594D01*
X46547701Y-41681000D01*
X46652299Y-41681000D01*
X46754887Y-41660594D01*
X46851523Y-41620566D01*
X46938493Y-41562454D01*
X47012454Y-41488493D01*
X47070566Y-41401523D01*
X47110594Y-41304887D01*
X47131000Y-41202299D01*
X47131000Y-41097701D01*
X47110594Y-40995113D01*
X47070566Y-40898477D01*
X47012454Y-40811507D01*
X46938493Y-40737546D01*
X46851523Y-40679434D01*
X46754887Y-40639406D01*
X46652299Y-40619000D01*
X46547701Y-40619000D01*
X46445113Y-40639406D01*
X46348477Y-40679434D01*
X46261507Y-40737546D01*
X46187546Y-40811507D01*
X46129434Y-40898477D01*
X46089406Y-40995113D01*
X46069000Y-41097701D01*
X42131000Y-41097701D01*
X42131000Y-40200000D01*
X46842426Y-40200000D01*
X46864668Y-40425831D01*
X46930541Y-40642984D01*
X47037512Y-40843114D01*
X47181472Y-41018528D01*
X47356886Y-41162488D01*
X47557016Y-41269459D01*
X47774169Y-41335332D01*
X47943405Y-41352000D01*
X48056595Y-41352000D01*
X48225831Y-41335332D01*
X48442984Y-41269459D01*
X48643114Y-41162488D01*
X48818528Y-41018528D01*
X48962488Y-40843114D01*
X49069459Y-40642984D01*
X49128535Y-40448237D01*
X49158916Y-40548388D01*
X49243044Y-40705782D01*
X49356262Y-40843738D01*
X49494218Y-40956956D01*
X49651612Y-41041084D01*
X49822393Y-41092890D01*
X49955499Y-41106000D01*
X50044501Y-41106000D01*
X50177607Y-41092890D01*
X50348388Y-41041084D01*
X50505782Y-40956956D01*
X50643738Y-40843738D01*
X50756956Y-40705782D01*
X50841084Y-40548388D01*
X50892890Y-40377607D01*
X50910383Y-40200000D01*
X51089617Y-40200000D01*
X51107110Y-40377607D01*
X51158916Y-40548388D01*
X51243044Y-40705782D01*
X51356262Y-40843738D01*
X51494218Y-40956956D01*
X51651612Y-41041084D01*
X51822393Y-41092890D01*
X51955499Y-41106000D01*
X52044501Y-41106000D01*
X52177607Y-41092890D01*
X52348388Y-41041084D01*
X52505782Y-40956956D01*
X52643738Y-40843738D01*
X52756956Y-40705782D01*
X52841084Y-40548388D01*
X52892890Y-40377607D01*
X52910383Y-40200000D01*
X53089617Y-40200000D01*
X53107110Y-40377607D01*
X53158916Y-40548388D01*
X53243044Y-40705782D01*
X53356262Y-40843738D01*
X53494218Y-40956956D01*
X53651612Y-41041084D01*
X53822393Y-41092890D01*
X53955499Y-41106000D01*
X54044501Y-41106000D01*
X54177607Y-41092890D01*
X54348388Y-41041084D01*
X54505782Y-40956956D01*
X54643738Y-40843738D01*
X54756956Y-40705782D01*
X54841084Y-40548388D01*
X54892890Y-40377607D01*
X54910383Y-40200000D01*
X55089617Y-40200000D01*
X55107110Y-40377607D01*
X55158916Y-40548388D01*
X55243044Y-40705782D01*
X55356262Y-40843738D01*
X55494218Y-40956956D01*
X55651612Y-41041084D01*
X55822393Y-41092890D01*
X55955499Y-41106000D01*
X56044501Y-41106000D01*
X56177607Y-41092890D01*
X56348388Y-41041084D01*
X56505782Y-40956956D01*
X56643738Y-40843738D01*
X56756956Y-40705782D01*
X56841084Y-40548388D01*
X56892890Y-40377607D01*
X56910383Y-40200000D01*
X56892890Y-40022393D01*
X56841084Y-39851612D01*
X56756956Y-39694218D01*
X56643738Y-39556262D01*
X56505782Y-39443044D01*
X56348388Y-39358916D01*
X56177607Y-39307110D01*
X56044501Y-39294000D01*
X55955499Y-39294000D01*
X55822393Y-39307110D01*
X55651612Y-39358916D01*
X55494218Y-39443044D01*
X55356262Y-39556262D01*
X55243044Y-39694218D01*
X55158916Y-39851612D01*
X55107110Y-40022393D01*
X55089617Y-40200000D01*
X54910383Y-40200000D01*
X54892890Y-40022393D01*
X54841084Y-39851612D01*
X54756956Y-39694218D01*
X54643738Y-39556262D01*
X54505782Y-39443044D01*
X54348388Y-39358916D01*
X54177607Y-39307110D01*
X54044501Y-39294000D01*
X53955499Y-39294000D01*
X53822393Y-39307110D01*
X53651612Y-39358916D01*
X53494218Y-39443044D01*
X53356262Y-39556262D01*
X53243044Y-39694218D01*
X53158916Y-39851612D01*
X53107110Y-40022393D01*
X53089617Y-40200000D01*
X52910383Y-40200000D01*
X52892890Y-40022393D01*
X52841084Y-39851612D01*
X52756956Y-39694218D01*
X52643738Y-39556262D01*
X52505782Y-39443044D01*
X52348388Y-39358916D01*
X52177607Y-39307110D01*
X52044501Y-39294000D01*
X51955499Y-39294000D01*
X51822393Y-39307110D01*
X51651612Y-39358916D01*
X51494218Y-39443044D01*
X51356262Y-39556262D01*
X51243044Y-39694218D01*
X51158916Y-39851612D01*
X51107110Y-40022393D01*
X51089617Y-40200000D01*
X50910383Y-40200000D01*
X50892890Y-40022393D01*
X50841084Y-39851612D01*
X50756956Y-39694218D01*
X50643738Y-39556262D01*
X50505782Y-39443044D01*
X50348388Y-39358916D01*
X50177607Y-39307110D01*
X50044501Y-39294000D01*
X49955499Y-39294000D01*
X49822393Y-39307110D01*
X49651612Y-39358916D01*
X49494218Y-39443044D01*
X49356262Y-39556262D01*
X49243044Y-39694218D01*
X49158916Y-39851612D01*
X49128535Y-39951763D01*
X49069459Y-39757016D01*
X48962488Y-39556886D01*
X48818528Y-39381472D01*
X48643114Y-39237512D01*
X48442984Y-39130541D01*
X48225831Y-39064668D01*
X48056595Y-39048000D01*
X47943405Y-39048000D01*
X47774169Y-39064668D01*
X47557016Y-39130541D01*
X47356886Y-39237512D01*
X47181472Y-39381472D01*
X47037512Y-39556886D01*
X46930541Y-39757016D01*
X46864668Y-39974169D01*
X46842426Y-40200000D01*
X42131000Y-40200000D01*
X42131000Y-33997701D01*
X43769000Y-33997701D01*
X43769000Y-34102299D01*
X43789406Y-34204887D01*
X43829434Y-34301523D01*
X43887546Y-34388493D01*
X43961507Y-34462454D01*
X44048477Y-34520566D01*
X44145113Y-34560594D01*
X44247701Y-34581000D01*
X44352299Y-34581000D01*
X44454887Y-34560594D01*
X44551523Y-34520566D01*
X44638493Y-34462454D01*
X44712454Y-34388493D01*
X44770566Y-34301523D01*
X44810594Y-34204887D01*
X44831000Y-34102299D01*
X44831000Y-33997701D01*
X44810594Y-33895113D01*
X44770566Y-33798477D01*
X44712454Y-33711507D01*
X44638493Y-33637546D01*
X44551523Y-33579434D01*
X44454887Y-33539406D01*
X44352299Y-33519000D01*
X44247701Y-33519000D01*
X44145113Y-33539406D01*
X44048477Y-33579434D01*
X43961507Y-33637546D01*
X43887546Y-33711507D01*
X43829434Y-33798477D01*
X43789406Y-33895113D01*
X43769000Y-33997701D01*
X42131000Y-33997701D01*
X42131000Y-32297701D01*
X44869000Y-32297701D01*
X44869000Y-32402299D01*
X44889406Y-32504887D01*
X44929434Y-32601523D01*
X44987546Y-32688493D01*
X45061507Y-32762454D01*
X45148477Y-32820566D01*
X45245113Y-32860594D01*
X45347701Y-32881000D01*
X45452299Y-32881000D01*
X45554887Y-32860594D01*
X45651523Y-32820566D01*
X45738493Y-32762454D01*
X45812454Y-32688493D01*
X45870566Y-32601523D01*
X45910594Y-32504887D01*
X45931000Y-32402299D01*
X45931000Y-32297701D01*
X45910594Y-32195113D01*
X45870566Y-32098477D01*
X45812454Y-32011507D01*
X45738493Y-31937546D01*
X45651523Y-31879434D01*
X45554887Y-31839406D01*
X45452299Y-31819000D01*
X45347701Y-31819000D01*
X45245113Y-31839406D01*
X45148477Y-31879434D01*
X45061507Y-31937546D01*
X44987546Y-32011507D01*
X44929434Y-32098477D01*
X44889406Y-32195113D01*
X44869000Y-32297701D01*
X42131000Y-32297701D01*
X42131000Y-31255625D01*
X62612038Y-31255625D01*
X62612038Y-31360223D01*
X62632444Y-31462811D01*
X62672472Y-31559447D01*
X62730584Y-31646417D01*
X62804545Y-31720378D01*
X62891515Y-31778490D01*
X62988151Y-31818518D01*
X63090739Y-31838924D01*
X63195337Y-31838924D01*
X63297925Y-31818518D01*
X63394561Y-31778490D01*
X63481531Y-31720378D01*
X63555492Y-31646417D01*
X63613604Y-31559447D01*
X63653632Y-31462811D01*
X63674038Y-31360223D01*
X63674038Y-31255625D01*
X63653632Y-31153037D01*
X63613604Y-31056401D01*
X63555492Y-30969431D01*
X63481531Y-30895470D01*
X63394561Y-30837358D01*
X63379211Y-30831000D01*
X63452299Y-30831000D01*
X63554887Y-30810594D01*
X63651523Y-30770566D01*
X63738493Y-30712454D01*
X63812454Y-30638493D01*
X63870566Y-30551523D01*
X63910594Y-30454887D01*
X63931000Y-30352299D01*
X63931000Y-30247701D01*
X63910594Y-30145113D01*
X63870566Y-30048477D01*
X63812454Y-29961507D01*
X63738493Y-29887546D01*
X63651523Y-29829434D01*
X63554887Y-29789406D01*
X63452299Y-29769000D01*
X63347701Y-29769000D01*
X63245113Y-29789406D01*
X63148477Y-29829434D01*
X63061507Y-29887546D01*
X62987546Y-29961507D01*
X62929434Y-30048477D01*
X62889406Y-30145113D01*
X62869000Y-30247701D01*
X62869000Y-30352299D01*
X62889406Y-30454887D01*
X62929434Y-30551523D01*
X62987546Y-30638493D01*
X63061507Y-30712454D01*
X63148477Y-30770566D01*
X63163827Y-30776924D01*
X63090739Y-30776924D01*
X62988151Y-30797330D01*
X62891515Y-30837358D01*
X62804545Y-30895470D01*
X62730584Y-30969431D01*
X62672472Y-31056401D01*
X62632444Y-31153037D01*
X62612038Y-31255625D01*
X42131000Y-31255625D01*
X42131000Y-30347701D01*
X57219000Y-30347701D01*
X57219000Y-30452299D01*
X57239406Y-30554887D01*
X57279434Y-30651523D01*
X57337546Y-30738493D01*
X57411507Y-30812454D01*
X57498477Y-30870566D01*
X57595113Y-30910594D01*
X57697701Y-30931000D01*
X57802299Y-30931000D01*
X57904887Y-30910594D01*
X58001523Y-30870566D01*
X58088493Y-30812454D01*
X58162454Y-30738493D01*
X58220566Y-30651523D01*
X58260594Y-30554887D01*
X58281000Y-30452299D01*
X58281000Y-30347701D01*
X58260594Y-30245113D01*
X58220566Y-30148477D01*
X58162454Y-30061507D01*
X58088493Y-29987546D01*
X58001523Y-29929434D01*
X57904887Y-29889406D01*
X57802299Y-29869000D01*
X57697701Y-29869000D01*
X57595113Y-29889406D01*
X57498477Y-29929434D01*
X57411507Y-29987546D01*
X57337546Y-30061507D01*
X57279434Y-30148477D01*
X57239406Y-30245113D01*
X57219000Y-30347701D01*
X42131000Y-30347701D01*
X42131000Y-28831000D01*
X43918924Y-28831000D01*
X43944998Y-28833568D01*
X43971072Y-28831000D01*
X43971082Y-28831000D01*
X44049092Y-28823317D01*
X44149186Y-28792953D01*
X44241433Y-28743646D01*
X44322288Y-28677290D01*
X44338919Y-28657025D01*
X46856244Y-26139701D01*
X46842426Y-26280000D01*
X46864668Y-26505831D01*
X46930541Y-26722984D01*
X47037512Y-26923114D01*
X47181472Y-27098528D01*
X47356886Y-27242488D01*
X47557016Y-27349459D01*
X47774169Y-27415332D01*
X47943405Y-27432000D01*
X48056595Y-27432000D01*
X48225831Y-27415332D01*
X48442984Y-27349459D01*
X48643114Y-27242488D01*
X48818528Y-27098528D01*
X48962488Y-26923114D01*
X49069459Y-26722984D01*
X49128535Y-26528237D01*
X49158916Y-26628388D01*
X49243044Y-26785782D01*
X49356262Y-26923738D01*
X49494218Y-27036956D01*
X49651612Y-27121084D01*
X49822393Y-27172890D01*
X49955499Y-27186000D01*
X50044501Y-27186000D01*
X50177607Y-27172890D01*
X50348388Y-27121084D01*
X50505782Y-27036956D01*
X50643738Y-26923738D01*
X50756956Y-26785782D01*
X50841084Y-26628388D01*
X50892890Y-26457607D01*
X50910383Y-26280000D01*
X51089617Y-26280000D01*
X51107110Y-26457607D01*
X51158916Y-26628388D01*
X51243044Y-26785782D01*
X51356262Y-26923738D01*
X51494218Y-27036956D01*
X51651612Y-27121084D01*
X51822393Y-27172890D01*
X51955499Y-27186000D01*
X52044501Y-27186000D01*
X52177607Y-27172890D01*
X52348388Y-27121084D01*
X52505782Y-27036956D01*
X52643738Y-26923738D01*
X52756956Y-26785782D01*
X52841084Y-26628388D01*
X52892890Y-26457607D01*
X52910383Y-26280000D01*
X53089617Y-26280000D01*
X53107110Y-26457607D01*
X53158916Y-26628388D01*
X53243044Y-26785782D01*
X53356262Y-26923738D01*
X53494218Y-27036956D01*
X53651612Y-27121084D01*
X53822393Y-27172890D01*
X53955499Y-27186000D01*
X54044501Y-27186000D01*
X54177607Y-27172890D01*
X54348388Y-27121084D01*
X54505782Y-27036956D01*
X54643738Y-26923738D01*
X54756956Y-26785782D01*
X54841084Y-26628388D01*
X54892890Y-26457607D01*
X54910383Y-26280000D01*
X55089617Y-26280000D01*
X55107110Y-26457607D01*
X55158916Y-26628388D01*
X55243044Y-26785782D01*
X55356262Y-26923738D01*
X55494218Y-27036956D01*
X55651612Y-27121084D01*
X55822393Y-27172890D01*
X55955499Y-27186000D01*
X56044501Y-27186000D01*
X56177607Y-27172890D01*
X56348388Y-27121084D01*
X56505782Y-27036956D01*
X56643738Y-26923738D01*
X56756956Y-26785782D01*
X56841084Y-26628388D01*
X56892890Y-26457607D01*
X56910383Y-26280000D01*
X56892890Y-26102393D01*
X56841084Y-25931612D01*
X56756956Y-25774218D01*
X56643738Y-25636262D01*
X56605646Y-25605000D01*
X57092883Y-25605000D01*
X57092883Y-26955000D01*
X57097343Y-27000284D01*
X57110552Y-27043827D01*
X57132002Y-27083957D01*
X57160868Y-27119132D01*
X57196043Y-27147998D01*
X57236173Y-27169448D01*
X57279716Y-27182657D01*
X57325000Y-27187117D01*
X58675000Y-27187117D01*
X58720284Y-27182657D01*
X58763827Y-27169448D01*
X58803957Y-27147998D01*
X58839132Y-27119132D01*
X58867998Y-27083957D01*
X58889448Y-27043827D01*
X58902657Y-27000284D01*
X58907117Y-26955000D01*
X58907117Y-25605000D01*
X58902657Y-25559716D01*
X58889448Y-25516173D01*
X58867998Y-25476043D01*
X58839132Y-25440868D01*
X58803957Y-25412002D01*
X58763827Y-25390552D01*
X58720284Y-25377343D01*
X58675000Y-25372883D01*
X57325000Y-25372883D01*
X57279716Y-25377343D01*
X57236173Y-25390552D01*
X57196043Y-25412002D01*
X57160868Y-25440868D01*
X57132002Y-25476043D01*
X57110552Y-25516173D01*
X57097343Y-25559716D01*
X57092883Y-25605000D01*
X56605646Y-25605000D01*
X56505782Y-25523044D01*
X56348388Y-25438916D01*
X56177607Y-25387110D01*
X56044501Y-25374000D01*
X55955499Y-25374000D01*
X55822393Y-25387110D01*
X55651612Y-25438916D01*
X55494218Y-25523044D01*
X55356262Y-25636262D01*
X55243044Y-25774218D01*
X55158916Y-25931612D01*
X55107110Y-26102393D01*
X55089617Y-26280000D01*
X54910383Y-26280000D01*
X54892890Y-26102393D01*
X54841084Y-25931612D01*
X54756956Y-25774218D01*
X54643738Y-25636262D01*
X54505782Y-25523044D01*
X54348388Y-25438916D01*
X54177607Y-25387110D01*
X54044501Y-25374000D01*
X53955499Y-25374000D01*
X53822393Y-25387110D01*
X53651612Y-25438916D01*
X53494218Y-25523044D01*
X53356262Y-25636262D01*
X53243044Y-25774218D01*
X53158916Y-25931612D01*
X53107110Y-26102393D01*
X53089617Y-26280000D01*
X52910383Y-26280000D01*
X52892890Y-26102393D01*
X52841084Y-25931612D01*
X52756956Y-25774218D01*
X52643738Y-25636262D01*
X52505782Y-25523044D01*
X52348388Y-25438916D01*
X52177607Y-25387110D01*
X52044501Y-25374000D01*
X51955499Y-25374000D01*
X51822393Y-25387110D01*
X51651612Y-25438916D01*
X51494218Y-25523044D01*
X51356262Y-25636262D01*
X51243044Y-25774218D01*
X51158916Y-25931612D01*
X51107110Y-26102393D01*
X51089617Y-26280000D01*
X50910383Y-26280000D01*
X50892890Y-26102393D01*
X50841084Y-25931612D01*
X50756956Y-25774218D01*
X50643738Y-25636262D01*
X50505782Y-25523044D01*
X50348388Y-25438916D01*
X50177607Y-25387110D01*
X50044501Y-25374000D01*
X49955499Y-25374000D01*
X49822393Y-25387110D01*
X49651612Y-25438916D01*
X49494218Y-25523044D01*
X49356262Y-25636262D01*
X49243044Y-25774218D01*
X49158916Y-25931612D01*
X49128535Y-26031763D01*
X49069459Y-25837016D01*
X48962488Y-25636886D01*
X48818528Y-25461472D01*
X48643114Y-25317512D01*
X48442984Y-25210541D01*
X48225831Y-25144668D01*
X48056595Y-25128000D01*
X47943405Y-25128000D01*
X47859702Y-25136244D01*
X47964946Y-25031000D01*
X62380054Y-25031000D01*
X62787546Y-25438493D01*
X62861507Y-25512454D01*
X62883302Y-25527017D01*
X62903564Y-25543646D01*
X62926680Y-25556002D01*
X62948477Y-25570566D01*
X62972700Y-25580599D01*
X62995812Y-25592953D01*
X63020888Y-25600560D01*
X63045113Y-25610594D01*
X63070831Y-25615710D01*
X63095906Y-25623316D01*
X63121982Y-25625884D01*
X63147701Y-25631000D01*
X63173925Y-25631000D01*
X63199999Y-25633568D01*
X63226073Y-25631000D01*
X63252299Y-25631000D01*
X63278019Y-25625884D01*
X63304093Y-25623316D01*
X63329166Y-25615710D01*
X63354887Y-25610594D01*
X63379115Y-25600559D01*
X63404187Y-25592953D01*
X63427296Y-25580601D01*
X63451523Y-25570566D01*
X63473324Y-25555999D01*
X63496435Y-25543646D01*
X63516695Y-25527019D01*
X63538493Y-25512454D01*
X63557030Y-25493917D01*
X63577290Y-25477290D01*
X63593917Y-25457030D01*
X63612454Y-25438493D01*
X63627019Y-25416695D01*
X63643646Y-25396435D01*
X63655999Y-25373324D01*
X63670566Y-25351523D01*
X63680601Y-25327296D01*
X63692953Y-25304187D01*
X63700559Y-25279115D01*
X63710594Y-25254887D01*
X63715710Y-25229166D01*
X63723316Y-25204093D01*
X63725884Y-25178019D01*
X63731000Y-25152299D01*
X63731000Y-25126073D01*
X63733568Y-25099999D01*
X63731000Y-25073925D01*
X63731000Y-25047701D01*
X63725884Y-25021982D01*
X63723316Y-24995906D01*
X63715710Y-24970831D01*
X63710594Y-24945113D01*
X63700560Y-24920888D01*
X63692953Y-24895812D01*
X63680599Y-24872700D01*
X63670566Y-24848477D01*
X63656002Y-24826680D01*
X63643646Y-24803564D01*
X63627017Y-24783302D01*
X63612454Y-24761507D01*
X63538493Y-24687546D01*
X63127936Y-24276990D01*
X67846378Y-24276990D01*
X70438387Y-26869000D01*
X65921157Y-26869000D01*
X65899999Y-26866916D01*
X65878841Y-26869000D01*
X65878832Y-26869000D01*
X65815509Y-26875237D01*
X65734266Y-26899882D01*
X65659391Y-26939903D01*
X65593763Y-26993763D01*
X65580270Y-27010204D01*
X65310209Y-27280266D01*
X65310204Y-27280270D01*
X65214962Y-27375512D01*
X65145113Y-27389406D01*
X65048477Y-27429434D01*
X64961507Y-27487546D01*
X64887546Y-27561507D01*
X64829434Y-27648477D01*
X64789406Y-27745113D01*
X64769000Y-27847701D01*
X64769000Y-27952299D01*
X64789406Y-28054887D01*
X64829434Y-28151523D01*
X64887546Y-28238493D01*
X64961507Y-28312454D01*
X65017697Y-28349999D01*
X64961505Y-28387546D01*
X64887544Y-28461507D01*
X64829432Y-28548477D01*
X64789404Y-28645113D01*
X64768998Y-28747701D01*
X64768998Y-28852299D01*
X64785324Y-28934377D01*
X64738493Y-28887546D01*
X64651523Y-28829434D01*
X64554887Y-28789406D01*
X64452299Y-28769000D01*
X64347701Y-28769000D01*
X64245113Y-28789406D01*
X64148477Y-28829434D01*
X64061507Y-28887546D01*
X63987546Y-28961507D01*
X63929434Y-29048477D01*
X63889406Y-29145113D01*
X63869000Y-29247701D01*
X63869000Y-29352299D01*
X63889406Y-29454887D01*
X63929434Y-29551523D01*
X63987546Y-29638493D01*
X64061507Y-29712454D01*
X64148477Y-29770566D01*
X64245113Y-29810594D01*
X64347701Y-29831000D01*
X64452299Y-29831000D01*
X64554887Y-29810594D01*
X64651523Y-29770566D01*
X64738493Y-29712454D01*
X64752947Y-29698000D01*
X64962424Y-29698000D01*
X65271518Y-30007096D01*
X65281158Y-30018842D01*
X65292904Y-30028482D01*
X65292908Y-30028486D01*
X65301940Y-30035898D01*
X65328057Y-30057332D01*
X65381563Y-30085931D01*
X65439621Y-30103543D01*
X65484872Y-30108000D01*
X65484880Y-30108000D01*
X65500000Y-30109489D01*
X65515120Y-30108000D01*
X68363215Y-30108000D01*
X68378335Y-30109489D01*
X68393455Y-30108000D01*
X68393463Y-30108000D01*
X68438714Y-30103543D01*
X68496772Y-30085931D01*
X68550278Y-30057332D01*
X68597177Y-30018842D01*
X68606826Y-30007085D01*
X69737098Y-28876814D01*
X69773067Y-28883969D01*
X69877665Y-28883969D01*
X69980253Y-28863563D01*
X70076889Y-28823535D01*
X70108965Y-28802102D01*
X70129434Y-28851519D01*
X70187546Y-28938489D01*
X70261507Y-29012450D01*
X70348477Y-29070562D01*
X70445113Y-29110590D01*
X70547701Y-29130996D01*
X70652299Y-29130996D01*
X70754887Y-29110590D01*
X70794110Y-29094343D01*
X70786157Y-29102296D01*
X70728045Y-29189266D01*
X70688017Y-29285902D01*
X70667611Y-29388490D01*
X70667611Y-29493088D01*
X70688017Y-29595676D01*
X70728045Y-29692312D01*
X70786157Y-29779282D01*
X70860118Y-29853243D01*
X70947088Y-29911355D01*
X71043724Y-29951383D01*
X71146312Y-29971789D01*
X71223602Y-29971789D01*
X71223602Y-30007040D01*
X71244008Y-30109628D01*
X71284036Y-30206264D01*
X71342148Y-30293234D01*
X71416109Y-30367195D01*
X71503079Y-30425307D01*
X71599715Y-30465335D01*
X71702303Y-30485741D01*
X71806901Y-30485741D01*
X71842869Y-30478586D01*
X71846648Y-30482365D01*
X71846648Y-31365804D01*
X71778533Y-31337590D01*
X71675945Y-31317184D01*
X71571347Y-31317184D01*
X71468759Y-31337590D01*
X71372123Y-31377618D01*
X71285153Y-31435730D01*
X71211192Y-31509691D01*
X71153080Y-31596661D01*
X71113052Y-31693297D01*
X71092646Y-31795885D01*
X71092646Y-31900483D01*
X71113052Y-32003071D01*
X71153080Y-32099707D01*
X71211192Y-32186677D01*
X71285153Y-32260638D01*
X71292001Y-32265214D01*
X71292000Y-32972423D01*
X70531376Y-33733048D01*
X70519625Y-33742692D01*
X70481135Y-33789591D01*
X70470707Y-33809101D01*
X70452535Y-33843098D01*
X70434923Y-33901155D01*
X70428977Y-33961534D01*
X70430467Y-33976664D01*
X70430466Y-35531897D01*
X68821366Y-37140998D01*
X67540238Y-37140998D01*
X67525118Y-37139509D01*
X67509998Y-37140998D01*
X67509990Y-37140998D01*
X67464739Y-37145455D01*
X67406681Y-37163067D01*
X67360324Y-37187845D01*
X67353175Y-37191666D01*
X67318026Y-37220512D01*
X67318022Y-37220516D01*
X67306276Y-37230156D01*
X67296636Y-37241902D01*
X66630408Y-37908130D01*
X66631474Y-37902773D01*
X66631474Y-37798175D01*
X66611068Y-37695587D01*
X66571040Y-37598951D01*
X66512928Y-37511981D01*
X66438967Y-37438020D01*
X66351997Y-37379908D01*
X66255361Y-37339880D01*
X66152773Y-37319474D01*
X66048175Y-37319474D01*
X65945587Y-37339880D01*
X65848951Y-37379908D01*
X65761981Y-37438020D01*
X65688020Y-37511981D01*
X65629908Y-37598951D01*
X65589880Y-37695587D01*
X65569474Y-37798175D01*
X65569474Y-37902773D01*
X65589880Y-38005361D01*
X65629908Y-38101997D01*
X65688020Y-38188967D01*
X65761981Y-38262928D01*
X65848951Y-38321040D01*
X65945587Y-38361068D01*
X66048175Y-38381474D01*
X66152773Y-38381474D01*
X66158130Y-38380408D01*
X64361909Y-40176631D01*
X64350158Y-40186275D01*
X64311668Y-40233174D01*
X64305287Y-40245113D01*
X64283068Y-40286681D01*
X64265456Y-40344738D01*
X64259510Y-40405117D01*
X64261000Y-40420247D01*
X64260999Y-46703423D01*
X61441414Y-49523010D01*
X60598496Y-49523010D01*
X60610744Y-49508086D01*
X60678623Y-49381095D01*
X60720422Y-49243301D01*
X60731000Y-49135901D01*
X60731000Y-47035890D01*
X60734535Y-46999999D01*
X60731000Y-46964108D01*
X60731000Y-41181947D01*
X60761507Y-41212454D01*
X60848477Y-41270566D01*
X60945113Y-41310594D01*
X61047701Y-41331000D01*
X61152299Y-41331000D01*
X61254887Y-41310594D01*
X61351523Y-41270566D01*
X61438493Y-41212454D01*
X61512454Y-41138493D01*
X61570566Y-41051523D01*
X61610594Y-40954887D01*
X61631000Y-40852299D01*
X61631000Y-40747701D01*
X61610594Y-40645113D01*
X61570566Y-40548477D01*
X61512454Y-40461507D01*
X61438493Y-40387546D01*
X61431000Y-40382539D01*
X61431000Y-39648971D01*
X61476966Y-39603005D01*
X61535078Y-39516035D01*
X61575106Y-39419399D01*
X61595512Y-39316811D01*
X61595512Y-39212213D01*
X61575106Y-39109625D01*
X61558697Y-39070009D01*
X62896012Y-40407326D01*
X62896013Y-42860599D01*
X62896012Y-42860609D01*
X62896012Y-42867171D01*
X62865519Y-42887546D01*
X62791558Y-42961507D01*
X62733446Y-43048477D01*
X62693418Y-43145113D01*
X62673012Y-43247701D01*
X62673012Y-43352299D01*
X62693418Y-43454887D01*
X62733446Y-43551523D01*
X62791558Y-43638493D01*
X62865519Y-43712454D01*
X62952489Y-43770566D01*
X63049125Y-43810594D01*
X63151713Y-43831000D01*
X63256311Y-43831000D01*
X63358899Y-43810594D01*
X63455535Y-43770566D01*
X63542505Y-43712454D01*
X63616466Y-43638493D01*
X63674578Y-43551523D01*
X63714606Y-43454887D01*
X63735012Y-43352299D01*
X63735012Y-43247701D01*
X63714606Y-43145113D01*
X63674578Y-43048477D01*
X63616466Y-42961507D01*
X63542505Y-42887546D01*
X63512012Y-42867171D01*
X63512012Y-40294868D01*
X63513501Y-40279748D01*
X63512012Y-40264628D01*
X63512012Y-40264620D01*
X63507555Y-40219369D01*
X63489943Y-40161311D01*
X63461344Y-40107805D01*
X63439250Y-40080884D01*
X63432498Y-40072656D01*
X63432494Y-40072652D01*
X63422854Y-40060906D01*
X63411109Y-40051267D01*
X61502755Y-38142915D01*
X61493106Y-38131158D01*
X61446207Y-38092668D01*
X61392701Y-38064069D01*
X61334643Y-38046457D01*
X61289392Y-38042000D01*
X61289384Y-38042000D01*
X61282367Y-38041309D01*
X61262454Y-38011507D01*
X61188493Y-37937546D01*
X61101523Y-37879434D01*
X61004887Y-37839406D01*
X60902299Y-37819000D01*
X60797701Y-37819000D01*
X60695113Y-37839406D01*
X60598477Y-37879434D01*
X60511507Y-37937546D01*
X60437546Y-38011507D01*
X60379434Y-38098477D01*
X60339406Y-38195113D01*
X60319000Y-38297701D01*
X60319000Y-38402299D01*
X60339406Y-38504887D01*
X60379434Y-38601523D01*
X60437546Y-38688493D01*
X60511507Y-38762454D01*
X60598477Y-38820566D01*
X60695113Y-38860594D01*
X60713772Y-38864305D01*
X60652058Y-38926019D01*
X60593946Y-39012989D01*
X60553918Y-39109625D01*
X60540174Y-39178722D01*
X60519395Y-39153403D01*
X60491512Y-39130520D01*
X59269484Y-37908493D01*
X59246597Y-37880605D01*
X59135288Y-37789256D01*
X59008297Y-37721377D01*
X58870503Y-37679578D01*
X58763103Y-37669000D01*
X58763093Y-37669000D01*
X58727202Y-37665465D01*
X58691311Y-37669000D01*
X57302791Y-37669000D01*
X56336491Y-36702701D01*
X56744000Y-36702701D01*
X56744000Y-36807299D01*
X56764406Y-36909887D01*
X56804434Y-37006523D01*
X56862546Y-37093493D01*
X56936507Y-37167454D01*
X57023477Y-37225566D01*
X57120113Y-37265594D01*
X57222701Y-37286000D01*
X57327299Y-37286000D01*
X57429887Y-37265594D01*
X57526523Y-37225566D01*
X57613493Y-37167454D01*
X57687454Y-37093493D01*
X57745566Y-37006523D01*
X57785594Y-36909887D01*
X57806000Y-36807299D01*
X57806000Y-36702701D01*
X57785594Y-36600113D01*
X57745566Y-36503477D01*
X57687454Y-36416507D01*
X57613493Y-36342546D01*
X57592788Y-36328711D01*
X62498977Y-36328711D01*
X62498977Y-36433309D01*
X62519383Y-36535897D01*
X62559411Y-36632533D01*
X62617523Y-36719503D01*
X62691484Y-36793464D01*
X62778454Y-36851576D01*
X62875090Y-36891604D01*
X62977678Y-36912010D01*
X63082276Y-36912010D01*
X63184864Y-36891604D01*
X63281500Y-36851576D01*
X63368470Y-36793464D01*
X63442431Y-36719503D01*
X63500543Y-36632533D01*
X63540571Y-36535897D01*
X63560977Y-36433309D01*
X63560977Y-36328711D01*
X63540571Y-36226123D01*
X63500543Y-36129487D01*
X63442431Y-36042517D01*
X63368470Y-35968556D01*
X63281500Y-35910444D01*
X63184864Y-35870416D01*
X63082276Y-35850010D01*
X62977678Y-35850010D01*
X62875090Y-35870416D01*
X62778454Y-35910444D01*
X62691484Y-35968556D01*
X62617523Y-36042517D01*
X62559411Y-36129487D01*
X62519383Y-36226123D01*
X62498977Y-36328711D01*
X57592788Y-36328711D01*
X57526523Y-36284434D01*
X57429887Y-36244406D01*
X57327299Y-36224000D01*
X57222701Y-36224000D01*
X57120113Y-36244406D01*
X57023477Y-36284434D01*
X56936507Y-36342546D01*
X56862546Y-36416507D01*
X56804434Y-36503477D01*
X56764406Y-36600113D01*
X56744000Y-36702701D01*
X56336491Y-36702701D01*
X56131000Y-36497211D01*
X56131000Y-35432701D01*
X56744000Y-35432701D01*
X56744000Y-35537299D01*
X56764406Y-35639887D01*
X56804434Y-35736523D01*
X56862546Y-35823493D01*
X56936507Y-35897454D01*
X57023477Y-35955566D01*
X57120113Y-35995594D01*
X57222701Y-36016000D01*
X57327299Y-36016000D01*
X57429887Y-35995594D01*
X57526523Y-35955566D01*
X57613493Y-35897454D01*
X57687454Y-35823493D01*
X57745566Y-35736523D01*
X57785594Y-35639887D01*
X57806000Y-35537299D01*
X57806000Y-35432701D01*
X57785594Y-35330113D01*
X57745566Y-35233477D01*
X57687454Y-35146507D01*
X57613493Y-35072546D01*
X57569060Y-35042856D01*
X60889634Y-35042856D01*
X60889634Y-35147454D01*
X60910040Y-35250042D01*
X60950068Y-35346678D01*
X61008180Y-35433648D01*
X61082141Y-35507609D01*
X61169111Y-35565721D01*
X61265747Y-35605749D01*
X61368335Y-35626155D01*
X61472933Y-35626155D01*
X61575521Y-35605749D01*
X61672157Y-35565721D01*
X61759127Y-35507609D01*
X61833088Y-35433648D01*
X61891200Y-35346678D01*
X61931228Y-35250042D01*
X61951634Y-35147454D01*
X61951634Y-35042856D01*
X61931228Y-34940268D01*
X61891200Y-34843632D01*
X61833088Y-34756662D01*
X61759127Y-34682701D01*
X61672157Y-34624589D01*
X61575521Y-34584561D01*
X61472933Y-34564155D01*
X61368335Y-34564155D01*
X61265747Y-34584561D01*
X61169111Y-34624589D01*
X61082141Y-34682701D01*
X61008180Y-34756662D01*
X60950068Y-34843632D01*
X60910040Y-34940268D01*
X60889634Y-35042856D01*
X57569060Y-35042856D01*
X57526523Y-35014434D01*
X57429887Y-34974406D01*
X57327299Y-34954000D01*
X57222701Y-34954000D01*
X57120113Y-34974406D01*
X57023477Y-35014434D01*
X56936507Y-35072546D01*
X56862546Y-35146507D01*
X56804434Y-35233477D01*
X56764406Y-35330113D01*
X56744000Y-35432701D01*
X56131000Y-35432701D01*
X56131000Y-34535891D01*
X56134535Y-34500000D01*
X56131000Y-34464109D01*
X56131000Y-34464099D01*
X56120422Y-34356699D01*
X56078623Y-34218905D01*
X56062588Y-34188906D01*
X56010744Y-34091913D01*
X55994978Y-34072701D01*
X62438000Y-34072701D01*
X62438000Y-34177299D01*
X62458406Y-34279887D01*
X62498434Y-34376523D01*
X62556546Y-34463493D01*
X62630507Y-34537454D01*
X62717477Y-34595566D01*
X62814113Y-34635594D01*
X62916701Y-34656000D01*
X63021299Y-34656000D01*
X63123887Y-34635594D01*
X63220523Y-34595566D01*
X63307493Y-34537454D01*
X63381454Y-34463493D01*
X63439566Y-34376523D01*
X63479594Y-34279887D01*
X63500000Y-34177299D01*
X63500000Y-34072701D01*
X63479594Y-33970113D01*
X63439566Y-33873477D01*
X63381454Y-33786507D01*
X63307493Y-33712546D01*
X63220523Y-33654434D01*
X63123887Y-33614406D01*
X63021299Y-33594000D01*
X62916701Y-33594000D01*
X62814113Y-33614406D01*
X62717477Y-33654434D01*
X62630507Y-33712546D01*
X62556546Y-33786507D01*
X62498434Y-33873477D01*
X62458406Y-33970113D01*
X62438000Y-34072701D01*
X55994978Y-34072701D01*
X55942281Y-34008490D01*
X55942273Y-34008482D01*
X55919395Y-33980605D01*
X55891517Y-33957726D01*
X55442284Y-33508495D01*
X55442280Y-33508490D01*
X54791509Y-32857720D01*
X54708086Y-32789256D01*
X54581094Y-32721377D01*
X54443300Y-32679579D01*
X54300000Y-32665465D01*
X54156700Y-32679579D01*
X54018906Y-32721377D01*
X53891914Y-32789256D01*
X53780605Y-32880605D01*
X53689256Y-32991914D01*
X53621377Y-33118906D01*
X53579579Y-33256700D01*
X53565465Y-33400000D01*
X53579579Y-33543300D01*
X53621377Y-33681094D01*
X53689256Y-33808086D01*
X53757720Y-33891509D01*
X54408490Y-34542280D01*
X54408495Y-34542284D01*
X54669001Y-34802791D01*
X54669000Y-36764109D01*
X54665465Y-36800000D01*
X54669000Y-36835891D01*
X54669000Y-36835900D01*
X54679578Y-36943300D01*
X54714111Y-37057140D01*
X54721377Y-37081094D01*
X54789256Y-37208086D01*
X54853199Y-37286000D01*
X54880605Y-37319394D01*
X54908489Y-37342278D01*
X56457726Y-38891517D01*
X56480605Y-38919395D01*
X56508482Y-38942273D01*
X56508490Y-38942281D01*
X56591914Y-39010744D01*
X56718905Y-39078623D01*
X56856699Y-39120422D01*
X56964099Y-39131000D01*
X56964109Y-39131000D01*
X57000000Y-39134535D01*
X57035891Y-39131000D01*
X58424413Y-39131000D01*
X58586296Y-39292883D01*
X57325000Y-39292883D01*
X57279716Y-39297343D01*
X57236173Y-39310552D01*
X57196043Y-39332002D01*
X57160868Y-39360868D01*
X57132002Y-39396043D01*
X57110552Y-39436173D01*
X57097343Y-39479716D01*
X57092883Y-39525000D01*
X57092883Y-40875000D01*
X57097343Y-40920284D01*
X57110552Y-40963827D01*
X57132002Y-41003957D01*
X57160868Y-41039132D01*
X57196043Y-41067998D01*
X57236173Y-41089448D01*
X57279716Y-41102657D01*
X57325000Y-41107117D01*
X58675000Y-41107117D01*
X58720284Y-41102657D01*
X58763827Y-41089448D01*
X58803957Y-41067998D01*
X58839132Y-41039132D01*
X58867998Y-41003957D01*
X58889448Y-40963827D01*
X58902657Y-40920284D01*
X58907117Y-40875000D01*
X58907117Y-39613705D01*
X59269001Y-39975589D01*
X59269000Y-46169000D01*
X45285890Y-46169000D01*
X45249999Y-46165465D01*
X45214108Y-46169000D01*
X45214099Y-46169000D01*
X45106699Y-46179578D01*
X44968905Y-46221377D01*
X44931241Y-46241509D01*
X44841913Y-46289256D01*
X44776830Y-46342669D01*
X44730605Y-46380605D01*
X44707722Y-46408488D01*
X41708489Y-49407722D01*
X41680606Y-49430605D01*
X41657723Y-49458488D01*
X41657720Y-49458491D01*
X41589256Y-49541914D01*
X41521377Y-49668906D01*
X41504621Y-49724145D01*
X41479579Y-49806699D01*
X41479451Y-49808000D01*
X41465465Y-49950000D01*
X41469001Y-49985901D01*
X41469001Y-51629000D01*
X40992790Y-51629000D01*
X34811000Y-45447211D01*
X34811000Y-44224099D01*
X34800747Y-44120000D01*
X34811000Y-44015901D01*
X34811000Y-43144099D01*
X34800422Y-43036699D01*
X34758623Y-42898905D01*
X34690744Y-42771914D01*
X34599394Y-42660605D01*
X34488085Y-42569256D01*
X34361094Y-42501377D01*
X34223300Y-42459578D01*
X34080000Y-42445464D01*
X33936699Y-42459578D01*
X33798905Y-42501377D01*
X33671914Y-42569256D01*
X33560605Y-42660606D01*
X33469256Y-42771915D01*
X33401377Y-42898906D01*
X33359578Y-43036700D01*
X33349000Y-43144100D01*
X33349000Y-44015901D01*
X33359253Y-44120005D01*
X33349001Y-44224099D01*
X33349000Y-45714109D01*
X33345465Y-45750000D01*
X33349000Y-45785891D01*
X33349000Y-45785900D01*
X33359578Y-45893300D01*
X33401377Y-46031094D01*
X33469256Y-46158086D01*
X33521198Y-46221377D01*
X33560605Y-46269394D01*
X33588489Y-46292278D01*
X40147722Y-52851512D01*
X40170605Y-52879395D01*
X40198488Y-52902278D01*
X40198491Y-52902281D01*
X40263410Y-52955558D01*
X40281914Y-52970744D01*
X40408905Y-53038623D01*
X40546699Y-53080422D01*
X40654099Y-53091000D01*
X40654109Y-53091000D01*
X40690000Y-53094535D01*
X40725891Y-53091000D01*
X41469000Y-53091000D01*
X41469000Y-54464098D01*
X41465464Y-54500000D01*
X41469001Y-54535911D01*
X41469000Y-58735900D01*
X41479578Y-58843300D01*
X41521377Y-58981094D01*
X41589256Y-59108085D01*
X41680605Y-59219394D01*
X41791914Y-59310744D01*
X41918905Y-59378623D01*
X42056699Y-59420422D01*
X42200000Y-59434536D01*
X42343300Y-59420422D01*
X42481094Y-59378623D01*
X42608085Y-59310744D01*
X42719394Y-59219395D01*
X42810744Y-59108086D01*
X42878623Y-58981095D01*
X42920422Y-58843301D01*
X42931000Y-58735901D01*
X42931000Y-57047701D01*
X45269000Y-57047701D01*
X45269000Y-57152299D01*
X45289406Y-57254887D01*
X45329434Y-57351523D01*
X45387546Y-57438493D01*
X45461507Y-57512454D01*
X45548477Y-57570566D01*
X45645113Y-57610594D01*
X45747701Y-57631000D01*
X45852299Y-57631000D01*
X45954887Y-57610594D01*
X46051523Y-57570566D01*
X46138493Y-57512454D01*
X46212454Y-57438493D01*
X46270566Y-57351523D01*
X46310594Y-57254887D01*
X46331000Y-57152299D01*
X46331000Y-57047701D01*
X46310594Y-56945113D01*
X46270566Y-56848477D01*
X46212454Y-56761507D01*
X46138493Y-56687546D01*
X46051523Y-56629434D01*
X45954887Y-56589406D01*
X45852299Y-56569000D01*
X45747701Y-56569000D01*
X45645113Y-56589406D01*
X45548477Y-56629434D01*
X45461507Y-56687546D01*
X45387546Y-56761507D01*
X45329434Y-56848477D01*
X45289406Y-56945113D01*
X45269000Y-57047701D01*
X42931000Y-57047701D01*
X42931000Y-55847701D01*
X44369000Y-55847701D01*
X44369000Y-55952299D01*
X44389406Y-56054887D01*
X44429434Y-56151523D01*
X44487546Y-56238493D01*
X44561507Y-56312454D01*
X44648477Y-56370566D01*
X44745113Y-56410594D01*
X44847701Y-56431000D01*
X44952299Y-56431000D01*
X45054887Y-56410594D01*
X45151523Y-56370566D01*
X45238493Y-56312454D01*
X45312454Y-56238493D01*
X45370566Y-56151523D01*
X45410594Y-56054887D01*
X45431000Y-55952299D01*
X45431000Y-55847701D01*
X45410594Y-55745113D01*
X45370566Y-55648477D01*
X45312454Y-55561507D01*
X45238493Y-55487546D01*
X45151523Y-55429434D01*
X45054887Y-55389406D01*
X44952299Y-55369000D01*
X44847701Y-55369000D01*
X44745113Y-55389406D01*
X44648477Y-55429434D01*
X44561507Y-55487546D01*
X44487546Y-55561507D01*
X44429434Y-55648477D01*
X44389406Y-55745113D01*
X44369000Y-55847701D01*
X42931000Y-55847701D01*
X42931000Y-55231000D01*
X45197211Y-55231000D01*
X50857241Y-60891031D01*
X50857246Y-60891035D01*
X51808491Y-61842281D01*
X51891914Y-61910744D01*
X52018905Y-61978623D01*
X52156699Y-62020421D01*
X52300000Y-62034535D01*
X52443301Y-62020421D01*
X52581094Y-61978623D01*
X52708086Y-61910744D01*
X52819395Y-61819395D01*
X52910744Y-61708086D01*
X52978623Y-61581094D01*
X53020421Y-61443301D01*
X53034535Y-61300000D01*
X53020421Y-61156699D01*
X52978623Y-61018905D01*
X52910744Y-60891914D01*
X52842281Y-60808491D01*
X51891035Y-59857246D01*
X51891031Y-59857241D01*
X47484474Y-55450685D01*
X47557016Y-55489459D01*
X47774169Y-55555332D01*
X47943405Y-55572000D01*
X48056595Y-55572000D01*
X48225831Y-55555332D01*
X48442984Y-55489459D01*
X48643114Y-55382488D01*
X48818528Y-55238528D01*
X48962488Y-55063114D01*
X49069459Y-54862984D01*
X49128535Y-54668237D01*
X49158916Y-54768388D01*
X49243044Y-54925782D01*
X49356262Y-55063738D01*
X49494218Y-55176956D01*
X49651612Y-55261084D01*
X49822393Y-55312890D01*
X49955499Y-55326000D01*
X50044501Y-55326000D01*
X50177607Y-55312890D01*
X50348388Y-55261084D01*
X50505782Y-55176956D01*
X50643738Y-55063738D01*
X50756956Y-54925782D01*
X50841084Y-54768388D01*
X50892890Y-54597607D01*
X50910383Y-54420000D01*
X51089617Y-54420000D01*
X51107110Y-54597607D01*
X51158916Y-54768388D01*
X51243044Y-54925782D01*
X51356262Y-55063738D01*
X51494218Y-55176956D01*
X51651612Y-55261084D01*
X51822393Y-55312890D01*
X51955499Y-55326000D01*
X52044501Y-55326000D01*
X52177607Y-55312890D01*
X52348388Y-55261084D01*
X52505782Y-55176956D01*
X52643738Y-55063738D01*
X52756956Y-54925782D01*
X52841084Y-54768388D01*
X52892890Y-54597607D01*
X52910383Y-54420000D01*
X53089617Y-54420000D01*
X53107110Y-54597607D01*
X53158916Y-54768388D01*
X53243044Y-54925782D01*
X53356262Y-55063738D01*
X53494218Y-55176956D01*
X53651612Y-55261084D01*
X53822393Y-55312890D01*
X53955499Y-55326000D01*
X54044501Y-55326000D01*
X54177607Y-55312890D01*
X54348388Y-55261084D01*
X54505782Y-55176956D01*
X54643738Y-55063738D01*
X54756956Y-54925782D01*
X54841084Y-54768388D01*
X54892890Y-54597607D01*
X54910383Y-54420000D01*
X54892890Y-54242393D01*
X54841084Y-54071612D01*
X54756956Y-53914218D01*
X54643738Y-53776262D01*
X54505782Y-53663044D01*
X54348388Y-53578916D01*
X54177607Y-53527110D01*
X54044501Y-53514000D01*
X53955499Y-53514000D01*
X53822393Y-53527110D01*
X53651612Y-53578916D01*
X53494218Y-53663044D01*
X53356262Y-53776262D01*
X53243044Y-53914218D01*
X53158916Y-54071612D01*
X53107110Y-54242393D01*
X53089617Y-54420000D01*
X52910383Y-54420000D01*
X52892890Y-54242393D01*
X52841084Y-54071612D01*
X52756956Y-53914218D01*
X52643738Y-53776262D01*
X52505782Y-53663044D01*
X52348388Y-53578916D01*
X52177607Y-53527110D01*
X52044501Y-53514000D01*
X51955499Y-53514000D01*
X51822393Y-53527110D01*
X51651612Y-53578916D01*
X51494218Y-53663044D01*
X51356262Y-53776262D01*
X51243044Y-53914218D01*
X51158916Y-54071612D01*
X51107110Y-54242393D01*
X51089617Y-54420000D01*
X50910383Y-54420000D01*
X50892890Y-54242393D01*
X50841084Y-54071612D01*
X50756956Y-53914218D01*
X50643738Y-53776262D01*
X50505782Y-53663044D01*
X50348388Y-53578916D01*
X50177607Y-53527110D01*
X50044501Y-53514000D01*
X49955499Y-53514000D01*
X49822393Y-53527110D01*
X49651612Y-53578916D01*
X49494218Y-53663044D01*
X49356262Y-53776262D01*
X49243044Y-53914218D01*
X49158916Y-54071612D01*
X49128535Y-54171763D01*
X49069459Y-53977016D01*
X48962488Y-53776886D01*
X48818528Y-53601472D01*
X48643114Y-53457512D01*
X48442984Y-53350541D01*
X48225831Y-53284668D01*
X48056595Y-53268000D01*
X47943405Y-53268000D01*
X47774169Y-53284668D01*
X47557016Y-53350541D01*
X47356886Y-53457512D01*
X47181472Y-53601472D01*
X47037512Y-53776886D01*
X46930541Y-53977016D01*
X46864668Y-54194169D01*
X46842426Y-54420000D01*
X46864668Y-54645831D01*
X46930541Y-54862984D01*
X46969315Y-54935526D01*
X46042283Y-54008494D01*
X46019395Y-53980605D01*
X45908086Y-53889256D01*
X45781095Y-53821377D01*
X45643301Y-53779578D01*
X45535901Y-53769000D01*
X45535891Y-53769000D01*
X45500000Y-53765465D01*
X45464109Y-53769000D01*
X42931000Y-53769000D01*
X42931000Y-51767701D01*
X44159000Y-51767701D01*
X44159000Y-51872299D01*
X44179406Y-51974887D01*
X44219434Y-52071523D01*
X44277546Y-52158493D01*
X44351507Y-52232454D01*
X44438477Y-52290566D01*
X44535113Y-52330594D01*
X44637701Y-52351000D01*
X44742299Y-52351000D01*
X44844887Y-52330594D01*
X44941523Y-52290566D01*
X45028493Y-52232454D01*
X45102454Y-52158493D01*
X45160566Y-52071523D01*
X45200594Y-51974887D01*
X45221000Y-51872299D01*
X45221000Y-51767701D01*
X45200594Y-51665113D01*
X45160566Y-51568477D01*
X45102454Y-51481507D01*
X45028493Y-51407546D01*
X44941523Y-51349434D01*
X44844887Y-51309406D01*
X44742299Y-51289000D01*
X44637701Y-51289000D01*
X44535113Y-51309406D01*
X44438477Y-51349434D01*
X44351507Y-51407546D01*
X44277546Y-51481507D01*
X44219434Y-51568477D01*
X44179406Y-51665113D01*
X44159000Y-51767701D01*
X42931000Y-51767701D01*
X42931000Y-51247701D01*
X48069000Y-51247701D01*
X48069000Y-51352299D01*
X48089406Y-51454887D01*
X48129434Y-51551523D01*
X48187546Y-51638493D01*
X48261507Y-51712454D01*
X48348477Y-51770566D01*
X48445113Y-51810594D01*
X48547701Y-51831000D01*
X48652299Y-51831000D01*
X48754887Y-51810594D01*
X48851523Y-51770566D01*
X48938493Y-51712454D01*
X49012454Y-51638493D01*
X49070566Y-51551523D01*
X49110594Y-51454887D01*
X49131000Y-51352299D01*
X49131000Y-51247701D01*
X49110594Y-51145113D01*
X49070566Y-51048477D01*
X49012454Y-50961507D01*
X48938493Y-50887546D01*
X48851523Y-50829434D01*
X48754887Y-50789406D01*
X48652299Y-50769000D01*
X48547701Y-50769000D01*
X48445113Y-50789406D01*
X48348477Y-50829434D01*
X48261507Y-50887546D01*
X48187546Y-50961507D01*
X48129434Y-51048477D01*
X48089406Y-51145113D01*
X48069000Y-51247701D01*
X42931000Y-51247701D01*
X42931000Y-50252789D01*
X45552790Y-47631000D01*
X59269001Y-47631000D01*
X59269000Y-49135900D01*
X59279578Y-49243300D01*
X59321377Y-49381094D01*
X59389256Y-49508085D01*
X59401505Y-49523010D01*
X57408588Y-49523010D01*
X57323845Y-49438268D01*
X57331000Y-49402299D01*
X57331000Y-49297701D01*
X57310594Y-49195113D01*
X57270566Y-49098477D01*
X57212454Y-49011507D01*
X57138493Y-48937546D01*
X57051523Y-48879434D01*
X56954887Y-48839406D01*
X56852299Y-48819000D01*
X56747701Y-48819000D01*
X56645113Y-48839406D01*
X56548477Y-48879434D01*
X56461507Y-48937546D01*
X56387546Y-49011507D01*
X56329434Y-49098477D01*
X56289406Y-49195113D01*
X56269000Y-49297701D01*
X56269000Y-49402299D01*
X56289406Y-49504887D01*
X56329434Y-49601523D01*
X56387546Y-49688493D01*
X56461507Y-49762454D01*
X56548477Y-49820566D01*
X56645113Y-49860594D01*
X56747701Y-49881000D01*
X56852299Y-49881000D01*
X56888268Y-49873845D01*
X57052528Y-50038106D01*
X57062168Y-50049852D01*
X57073914Y-50059492D01*
X57073918Y-50059496D01*
X57084812Y-50068436D01*
X57109067Y-50088342D01*
X57162573Y-50116941D01*
X57220630Y-50134553D01*
X57225885Y-50135070D01*
X57265882Y-50139010D01*
X57265890Y-50139010D01*
X57281010Y-50140499D01*
X57296130Y-50139010D01*
X61325414Y-50139010D01*
X59672423Y-51792001D01*
X59630884Y-51792001D01*
X59678452Y-51744433D01*
X59736564Y-51657463D01*
X59776592Y-51560827D01*
X59796998Y-51458239D01*
X59796998Y-51353641D01*
X59776592Y-51251053D01*
X59736564Y-51154417D01*
X59678452Y-51067447D01*
X59604491Y-50993486D01*
X59517521Y-50935374D01*
X59420885Y-50895346D01*
X59318297Y-50874940D01*
X59213699Y-50874940D01*
X59111111Y-50895346D01*
X59014475Y-50935374D01*
X58927505Y-50993486D01*
X58853544Y-51067447D01*
X58795432Y-51154417D01*
X58755404Y-51251053D01*
X58734998Y-51353641D01*
X58734998Y-51458239D01*
X58755404Y-51560827D01*
X58795432Y-51657463D01*
X58853544Y-51744433D01*
X58927505Y-51818394D01*
X59014475Y-51876506D01*
X59029233Y-51882619D01*
X58995113Y-51889406D01*
X58898477Y-51929434D01*
X58811507Y-51987546D01*
X58737546Y-52061507D01*
X58679434Y-52148477D01*
X58639406Y-52245113D01*
X58619000Y-52347701D01*
X58619000Y-52452299D01*
X58639406Y-52554887D01*
X58679434Y-52651523D01*
X58706480Y-52692000D01*
X57435119Y-52692000D01*
X57419999Y-52690511D01*
X57404879Y-52692000D01*
X57404872Y-52692000D01*
X57365375Y-52695890D01*
X57359620Y-52696457D01*
X57316661Y-52709489D01*
X57301563Y-52714069D01*
X57248057Y-52742668D01*
X57201158Y-52781158D01*
X57191514Y-52792909D01*
X56385611Y-53598812D01*
X56348388Y-53578916D01*
X56177607Y-53527110D01*
X56044501Y-53514000D01*
X55955499Y-53514000D01*
X55822393Y-53527110D01*
X55651612Y-53578916D01*
X55494218Y-53663044D01*
X55356262Y-53776262D01*
X55243044Y-53914218D01*
X55158916Y-54071612D01*
X55107110Y-54242393D01*
X55089617Y-54420000D01*
X55107110Y-54597607D01*
X55158916Y-54768388D01*
X55243044Y-54925782D01*
X55356262Y-55063738D01*
X55494218Y-55176956D01*
X55651612Y-55261084D01*
X55822393Y-55312890D01*
X55955499Y-55326000D01*
X56044501Y-55326000D01*
X56177607Y-55312890D01*
X56348388Y-55261084D01*
X56505782Y-55176956D01*
X56643738Y-55063738D01*
X56756956Y-54925782D01*
X56841084Y-54768388D01*
X56892890Y-54597607D01*
X56910383Y-54420000D01*
X56892890Y-54242393D01*
X56841084Y-54071612D01*
X56821188Y-54034389D01*
X57092883Y-53762694D01*
X57092883Y-55095000D01*
X57097343Y-55140284D01*
X57110552Y-55183827D01*
X57132002Y-55223957D01*
X57160868Y-55259132D01*
X57196043Y-55287998D01*
X57236173Y-55309448D01*
X57279716Y-55322657D01*
X57325000Y-55327117D01*
X58675000Y-55327117D01*
X58720284Y-55322657D01*
X58763827Y-55309448D01*
X58803957Y-55287998D01*
X58839132Y-55259132D01*
X58867998Y-55223957D01*
X58889448Y-55183827D01*
X58902657Y-55140284D01*
X58907117Y-55095000D01*
X58907117Y-53745000D01*
X58902657Y-53699716D01*
X58889448Y-53656173D01*
X58867998Y-53616043D01*
X58839132Y-53580868D01*
X58803957Y-53552002D01*
X58763827Y-53530552D01*
X58720284Y-53517343D01*
X58675000Y-53512883D01*
X57342694Y-53512883D01*
X57547577Y-53308000D01*
X59143228Y-53308000D01*
X59140511Y-53335590D01*
X59142001Y-53350720D01*
X59142001Y-53417171D01*
X59111507Y-53437546D01*
X59037546Y-53511507D01*
X58979434Y-53598477D01*
X58939406Y-53695113D01*
X58919000Y-53797701D01*
X58919000Y-53902299D01*
X58939406Y-54004887D01*
X58979434Y-54101523D01*
X59037546Y-54188493D01*
X59111507Y-54262454D01*
X59198477Y-54320566D01*
X59295113Y-54360594D01*
X59397701Y-54381000D01*
X59502299Y-54381000D01*
X59604887Y-54360594D01*
X59701523Y-54320566D01*
X59788493Y-54262454D01*
X59862454Y-54188493D01*
X59876150Y-54167996D01*
X59944901Y-54213934D01*
X60041537Y-54253962D01*
X60144125Y-54274368D01*
X60248723Y-54274368D01*
X60351311Y-54253962D01*
X60447947Y-54213934D01*
X60534917Y-54155822D01*
X60608878Y-54081861D01*
X60666990Y-53994891D01*
X60707018Y-53898255D01*
X60727424Y-53795667D01*
X60727424Y-53691069D01*
X60707018Y-53588481D01*
X60666990Y-53491845D01*
X60608878Y-53404875D01*
X60534917Y-53330914D01*
X60504424Y-53310539D01*
X60504424Y-53295270D01*
X61418970Y-52380725D01*
X61414511Y-52426000D01*
X61416001Y-52441130D01*
X61416000Y-61948422D01*
X61288268Y-62076155D01*
X61252299Y-62069000D01*
X61147701Y-62069000D01*
X61045113Y-62089406D01*
X60948477Y-62129434D01*
X60861507Y-62187546D01*
X60787546Y-62261507D01*
X60729434Y-62348477D01*
X60689406Y-62445113D01*
X60669000Y-62547701D01*
X60669000Y-62652299D01*
X60689406Y-62754887D01*
X60729434Y-62851523D01*
X60787546Y-62938493D01*
X60861507Y-63012454D01*
X60948477Y-63070566D01*
X61041294Y-63109012D01*
X61006210Y-63144096D01*
X60970240Y-63136941D01*
X60865642Y-63136941D01*
X60763054Y-63157347D01*
X60666418Y-63197375D01*
X60579448Y-63255487D01*
X60505487Y-63329448D01*
X60447375Y-63416418D01*
X60407347Y-63513054D01*
X60386941Y-63615642D01*
X60386941Y-63720240D01*
X60407347Y-63822828D01*
X60447375Y-63919464D01*
X60505487Y-64006434D01*
X60579448Y-64080395D01*
X60666418Y-64138507D01*
X60763054Y-64178535D01*
X60865642Y-64198941D01*
X60970240Y-64198941D01*
X61072828Y-64178535D01*
X61169464Y-64138507D01*
X61256434Y-64080395D01*
X61330395Y-64006434D01*
X61388507Y-63919464D01*
X61428535Y-63822828D01*
X61448941Y-63720240D01*
X61448941Y-63615642D01*
X61441786Y-63579672D01*
X61835618Y-63185841D01*
X61839406Y-63204887D01*
X61879434Y-63301523D01*
X61937546Y-63388493D01*
X62011507Y-63462454D01*
X62098477Y-63520566D01*
X62195113Y-63560594D01*
X62297701Y-63581000D01*
X62402299Y-63581000D01*
X62504887Y-63560594D01*
X62601523Y-63520566D01*
X62688493Y-63462454D01*
X62762454Y-63388493D01*
X62820566Y-63301523D01*
X62860594Y-63204887D01*
X62881000Y-63102299D01*
X62881000Y-62997701D01*
X62860594Y-62895113D01*
X62820566Y-62798477D01*
X62794000Y-62758719D01*
X62794000Y-60551576D01*
X63565106Y-59780472D01*
X63576852Y-59770832D01*
X63586492Y-59759086D01*
X63586495Y-59759083D01*
X63615341Y-59723934D01*
X63643941Y-59670427D01*
X63661553Y-59612370D01*
X63662120Y-59606615D01*
X63666010Y-59567118D01*
X63666010Y-59567111D01*
X63667499Y-59551991D01*
X63666010Y-59536871D01*
X63666010Y-58167701D01*
X66429000Y-58167701D01*
X66429000Y-58272299D01*
X66449406Y-58374887D01*
X66489434Y-58471523D01*
X66547546Y-58558493D01*
X66621507Y-58632454D01*
X66708477Y-58690566D01*
X66805113Y-58730594D01*
X66907701Y-58751000D01*
X67012299Y-58751000D01*
X67114887Y-58730594D01*
X67211523Y-58690566D01*
X67298493Y-58632454D01*
X67372454Y-58558493D01*
X67430566Y-58471523D01*
X67470594Y-58374887D01*
X67491000Y-58272299D01*
X67491000Y-58167701D01*
X67470594Y-58065113D01*
X67430566Y-57968477D01*
X67372454Y-57881507D01*
X67298493Y-57807546D01*
X67211523Y-57749434D01*
X67114887Y-57709406D01*
X67012299Y-57689000D01*
X66907701Y-57689000D01*
X66805113Y-57709406D01*
X66708477Y-57749434D01*
X66621507Y-57807546D01*
X66547546Y-57881507D01*
X66489434Y-57968477D01*
X66449406Y-58065113D01*
X66429000Y-58167701D01*
X63666010Y-58167701D01*
X63666010Y-56585000D01*
X76092882Y-56585000D01*
X76097342Y-56630284D01*
X76110551Y-56673828D01*
X76132001Y-56713958D01*
X76160868Y-56749132D01*
X76196042Y-56777999D01*
X76236172Y-56799449D01*
X76279716Y-56812658D01*
X76325000Y-56817118D01*
X76869250Y-56816000D01*
X76927000Y-56758250D01*
X76927000Y-55983000D01*
X77073000Y-55983000D01*
X77073000Y-56758250D01*
X77130750Y-56816000D01*
X77675000Y-56817118D01*
X77720284Y-56812658D01*
X77763828Y-56799449D01*
X77803958Y-56777999D01*
X77839132Y-56749132D01*
X77867999Y-56713958D01*
X77889449Y-56673828D01*
X77902658Y-56630284D01*
X77907118Y-56585000D01*
X77906000Y-56040750D01*
X77848250Y-55983000D01*
X77073000Y-55983000D01*
X76927000Y-55983000D01*
X76151750Y-55983000D01*
X76094000Y-56040750D01*
X76092882Y-56585000D01*
X63666010Y-56585000D01*
X63666010Y-55235000D01*
X76092882Y-55235000D01*
X76094000Y-55779250D01*
X76151750Y-55837000D01*
X76927000Y-55837000D01*
X76927000Y-55061750D01*
X77073000Y-55061750D01*
X77073000Y-55837000D01*
X77848250Y-55837000D01*
X77906000Y-55779250D01*
X77907118Y-55235000D01*
X77902658Y-55189716D01*
X77889449Y-55146172D01*
X77867999Y-55106042D01*
X77839132Y-55070868D01*
X77803958Y-55042001D01*
X77763828Y-55020551D01*
X77720284Y-55007342D01*
X77675000Y-55002882D01*
X77130750Y-55004000D01*
X77073000Y-55061750D01*
X76927000Y-55061750D01*
X76869250Y-55004000D01*
X76325000Y-55002882D01*
X76279716Y-55007342D01*
X76236172Y-55020551D01*
X76196042Y-55042001D01*
X76160868Y-55070868D01*
X76132001Y-55106042D01*
X76110551Y-55146172D01*
X76097342Y-55189716D01*
X76092882Y-55235000D01*
X63666010Y-55235000D01*
X63666010Y-54447701D01*
X71669000Y-54447701D01*
X71669000Y-54552299D01*
X71689406Y-54654887D01*
X71729434Y-54751523D01*
X71787546Y-54838493D01*
X71861507Y-54912454D01*
X71948477Y-54970566D01*
X72045113Y-55010594D01*
X72147701Y-55031000D01*
X72252299Y-55031000D01*
X72354887Y-55010594D01*
X72451523Y-54970566D01*
X72538493Y-54912454D01*
X72612454Y-54838493D01*
X72670566Y-54751523D01*
X72710594Y-54654887D01*
X72731000Y-54552299D01*
X72731000Y-54447701D01*
X72710594Y-54345113D01*
X72670566Y-54248477D01*
X72612454Y-54161507D01*
X72574317Y-54123370D01*
X76119484Y-54123370D01*
X76149331Y-54221778D01*
X76226501Y-54381745D01*
X76333397Y-54523583D01*
X76465910Y-54641841D01*
X76618948Y-54731975D01*
X76786629Y-54790521D01*
X76927000Y-54755309D01*
X76927000Y-53983000D01*
X77073000Y-53983000D01*
X77073000Y-54755309D01*
X77213371Y-54790521D01*
X77381052Y-54731975D01*
X77534090Y-54641841D01*
X77666603Y-54523583D01*
X77773499Y-54381745D01*
X77850669Y-54221778D01*
X77880516Y-54123370D01*
X77845103Y-53983000D01*
X77073000Y-53983000D01*
X76927000Y-53983000D01*
X76154897Y-53983000D01*
X76119484Y-54123370D01*
X72574317Y-54123370D01*
X72538493Y-54087546D01*
X72451523Y-54029434D01*
X72354887Y-53989406D01*
X72252299Y-53969000D01*
X72147701Y-53969000D01*
X72045113Y-53989406D01*
X71948477Y-54029434D01*
X71861507Y-54087546D01*
X71787546Y-54161507D01*
X71729434Y-54248477D01*
X71689406Y-54345113D01*
X71669000Y-54447701D01*
X63666010Y-54447701D01*
X63666010Y-53297701D01*
X66519000Y-53297701D01*
X66519000Y-53402299D01*
X66539406Y-53504887D01*
X66579434Y-53601523D01*
X66637546Y-53688493D01*
X66711507Y-53762454D01*
X66798477Y-53820566D01*
X66895113Y-53860594D01*
X66997701Y-53881000D01*
X67102299Y-53881000D01*
X67204887Y-53860594D01*
X67301523Y-53820566D01*
X67388493Y-53762454D01*
X67454317Y-53696630D01*
X76119484Y-53696630D01*
X76154897Y-53837000D01*
X76927000Y-53837000D01*
X76927000Y-53064691D01*
X77073000Y-53064691D01*
X77073000Y-53837000D01*
X77845103Y-53837000D01*
X77880516Y-53696630D01*
X77850669Y-53598222D01*
X77773499Y-53438255D01*
X77666603Y-53296417D01*
X77534090Y-53178159D01*
X77381052Y-53088025D01*
X77213371Y-53029479D01*
X77073000Y-53064691D01*
X76927000Y-53064691D01*
X76786629Y-53029479D01*
X76618948Y-53088025D01*
X76465910Y-53178159D01*
X76333397Y-53296417D01*
X76226501Y-53438255D01*
X76149331Y-53598222D01*
X76119484Y-53696630D01*
X67454317Y-53696630D01*
X67462454Y-53688493D01*
X67520566Y-53601523D01*
X67560594Y-53504887D01*
X67581000Y-53402299D01*
X67581000Y-53297701D01*
X67560594Y-53195113D01*
X67520566Y-53098477D01*
X67462454Y-53011507D01*
X67388493Y-52937546D01*
X67301523Y-52879434D01*
X67204887Y-52839406D01*
X67102299Y-52819000D01*
X66997701Y-52819000D01*
X66895113Y-52839406D01*
X66798477Y-52879434D01*
X66711507Y-52937546D01*
X66637546Y-53011507D01*
X66579434Y-53098477D01*
X66539406Y-53195113D01*
X66519000Y-53297701D01*
X63666010Y-53297701D01*
X63666010Y-52964698D01*
X65028007Y-51602701D01*
X70924000Y-51602701D01*
X70924000Y-51707299D01*
X70944406Y-51809887D01*
X70984434Y-51906523D01*
X71042546Y-51993493D01*
X71116507Y-52067454D01*
X71203477Y-52125566D01*
X71300113Y-52165594D01*
X71402701Y-52186000D01*
X71507299Y-52186000D01*
X71609887Y-52165594D01*
X71686883Y-52133701D01*
X73919000Y-52133701D01*
X73919000Y-52238299D01*
X73939406Y-52340887D01*
X73979434Y-52437523D01*
X74037546Y-52524493D01*
X74111507Y-52598454D01*
X74198477Y-52656566D01*
X74295113Y-52696594D01*
X74397701Y-52717000D01*
X74502299Y-52717000D01*
X74604887Y-52696594D01*
X74701523Y-52656566D01*
X74788493Y-52598454D01*
X74862454Y-52524493D01*
X74920566Y-52437523D01*
X74960594Y-52340887D01*
X74981000Y-52238299D01*
X74981000Y-52133701D01*
X74978946Y-52123370D01*
X76119484Y-52123370D01*
X76149331Y-52221778D01*
X76226501Y-52381745D01*
X76333397Y-52523583D01*
X76465910Y-52641841D01*
X76618948Y-52731975D01*
X76786629Y-52790521D01*
X76927000Y-52755309D01*
X76927000Y-51983000D01*
X77073000Y-51983000D01*
X77073000Y-52755309D01*
X77213371Y-52790521D01*
X77381052Y-52731975D01*
X77534090Y-52641841D01*
X77666603Y-52523583D01*
X77773499Y-52381745D01*
X77850669Y-52221778D01*
X77880516Y-52123370D01*
X77845103Y-51983000D01*
X77073000Y-51983000D01*
X76927000Y-51983000D01*
X76154897Y-51983000D01*
X76119484Y-52123370D01*
X74978946Y-52123370D01*
X74960594Y-52031113D01*
X74920566Y-51934477D01*
X74862454Y-51847507D01*
X74788493Y-51773546D01*
X74701523Y-51715434D01*
X74656127Y-51696630D01*
X76119484Y-51696630D01*
X76154897Y-51837000D01*
X76927000Y-51837000D01*
X76927000Y-51064691D01*
X77073000Y-51064691D01*
X77073000Y-51837000D01*
X77845103Y-51837000D01*
X77880516Y-51696630D01*
X77850669Y-51598222D01*
X77773499Y-51438255D01*
X77666603Y-51296417D01*
X77534090Y-51178159D01*
X77381052Y-51088025D01*
X77213371Y-51029479D01*
X77073000Y-51064691D01*
X76927000Y-51064691D01*
X76786629Y-51029479D01*
X76618948Y-51088025D01*
X76465910Y-51178159D01*
X76333397Y-51296417D01*
X76226501Y-51438255D01*
X76149331Y-51598222D01*
X76119484Y-51696630D01*
X74656127Y-51696630D01*
X74604887Y-51675406D01*
X74502299Y-51655000D01*
X74397701Y-51655000D01*
X74295113Y-51675406D01*
X74198477Y-51715434D01*
X74111507Y-51773546D01*
X74037546Y-51847507D01*
X73979434Y-51934477D01*
X73939406Y-52031113D01*
X73919000Y-52133701D01*
X71686883Y-52133701D01*
X71706523Y-52125566D01*
X71793493Y-52067454D01*
X71867454Y-51993493D01*
X71925566Y-51906523D01*
X71965594Y-51809887D01*
X71986000Y-51707299D01*
X71986000Y-51602701D01*
X71965594Y-51500113D01*
X71925566Y-51403477D01*
X71867454Y-51316507D01*
X71793493Y-51242546D01*
X71706523Y-51184434D01*
X71609887Y-51144406D01*
X71507299Y-51124000D01*
X71402701Y-51124000D01*
X71300113Y-51144406D01*
X71203477Y-51184434D01*
X71116507Y-51242546D01*
X71042546Y-51316507D01*
X70984434Y-51403477D01*
X70944406Y-51500113D01*
X70924000Y-51602701D01*
X65028007Y-51602701D01*
X66546502Y-50084207D01*
X66535186Y-50141098D01*
X66535186Y-50245696D01*
X66555592Y-50348284D01*
X66595620Y-50444920D01*
X66653732Y-50531890D01*
X66727693Y-50605851D01*
X66814663Y-50663963D01*
X66911299Y-50703991D01*
X67013887Y-50724397D01*
X67118485Y-50724397D01*
X67221073Y-50703991D01*
X67317709Y-50663963D01*
X67404679Y-50605851D01*
X67478640Y-50531890D01*
X67499015Y-50501397D01*
X67523463Y-50501397D01*
X67538583Y-50502886D01*
X67553703Y-50501397D01*
X67553711Y-50501397D01*
X67598962Y-50496940D01*
X67657020Y-50479328D01*
X67710526Y-50450729D01*
X67757425Y-50412239D01*
X67767074Y-50400482D01*
X68046220Y-50121337D01*
X68079434Y-50201523D01*
X68137546Y-50288493D01*
X68211507Y-50362454D01*
X68298477Y-50420566D01*
X68395113Y-50460594D01*
X68497701Y-50481000D01*
X68602299Y-50481000D01*
X68704887Y-50460594D01*
X68801523Y-50420566D01*
X68888493Y-50362454D01*
X68962454Y-50288493D01*
X69020566Y-50201523D01*
X69060594Y-50104887D01*
X69081000Y-50002299D01*
X69081000Y-49897701D01*
X69073845Y-49861731D01*
X69127577Y-49808000D01*
X69405725Y-49808000D01*
X69361507Y-49837546D01*
X69287546Y-49911507D01*
X69229434Y-49998477D01*
X69189406Y-50095113D01*
X69169000Y-50197701D01*
X69169000Y-50302299D01*
X69189406Y-50404887D01*
X69229434Y-50501523D01*
X69287546Y-50588493D01*
X69361507Y-50662454D01*
X69448477Y-50720566D01*
X69545113Y-50760594D01*
X69647701Y-50781000D01*
X69752299Y-50781000D01*
X69854887Y-50760594D01*
X69951523Y-50720566D01*
X70038493Y-50662454D01*
X70112454Y-50588493D01*
X70170566Y-50501523D01*
X70210594Y-50404887D01*
X70231000Y-50302299D01*
X70231000Y-50237760D01*
X70480122Y-50486883D01*
X70489762Y-50498629D01*
X70501508Y-50508269D01*
X70501511Y-50508272D01*
X70518167Y-50521941D01*
X70536661Y-50537119D01*
X70580861Y-50560744D01*
X70590167Y-50565718D01*
X70648224Y-50583330D01*
X70653979Y-50583897D01*
X70693476Y-50587787D01*
X70693483Y-50587787D01*
X70708603Y-50589276D01*
X70723723Y-50587787D01*
X76476276Y-50587787D01*
X76491396Y-50589276D01*
X76506516Y-50587787D01*
X76506524Y-50587787D01*
X76551775Y-50583330D01*
X76609833Y-50565718D01*
X76663339Y-50537119D01*
X76710238Y-50498629D01*
X76719887Y-50486872D01*
X77699667Y-49507092D01*
X79773116Y-47433645D01*
X79784862Y-47424005D01*
X79794502Y-47412259D01*
X79794506Y-47412255D01*
X79798001Y-47407997D01*
X79798001Y-66798000D01*
X20202000Y-66798000D01*
X20202000Y-60201409D01*
X26441828Y-60201409D01*
X26531633Y-60338958D01*
X26713646Y-60429050D01*
X26909738Y-60481902D01*
X27112373Y-60495483D01*
X27313763Y-60469271D01*
X27506170Y-60404273D01*
X27628367Y-60338958D01*
X27718172Y-60201409D01*
X27080000Y-59563238D01*
X26441828Y-60201409D01*
X20202000Y-60201409D01*
X20202000Y-59492373D01*
X26044517Y-59492373D01*
X26070729Y-59693763D01*
X26135727Y-59886170D01*
X26201042Y-60008367D01*
X26338591Y-60098172D01*
X26976762Y-59460000D01*
X27183238Y-59460000D01*
X27821409Y-60098172D01*
X27958958Y-60008367D01*
X28049050Y-59826354D01*
X28101902Y-59630262D01*
X28115483Y-59427627D01*
X28089271Y-59226237D01*
X28024273Y-59033830D01*
X27958958Y-58911633D01*
X27821409Y-58821828D01*
X27183238Y-59460000D01*
X26976762Y-59460000D01*
X26338591Y-58821828D01*
X26201042Y-58911633D01*
X26110950Y-59093646D01*
X26058098Y-59289738D01*
X26044517Y-59492373D01*
X20202000Y-59492373D01*
X20202000Y-58718591D01*
X26441828Y-58718591D01*
X27080000Y-59356762D01*
X27718172Y-58718591D01*
X27679919Y-58660000D01*
X29600693Y-58660000D01*
X29600693Y-60260000D01*
X29609903Y-60353508D01*
X29637178Y-60443423D01*
X29681471Y-60526289D01*
X29741079Y-60598921D01*
X29813711Y-60658529D01*
X29896577Y-60702822D01*
X29986492Y-60730097D01*
X30080000Y-60739307D01*
X31680000Y-60739307D01*
X31773508Y-60730097D01*
X31863423Y-60702822D01*
X31946289Y-60658529D01*
X32018921Y-60598921D01*
X32078529Y-60526289D01*
X32122822Y-60443423D01*
X32150097Y-60353508D01*
X32159307Y-60260000D01*
X32159307Y-60147701D01*
X43039000Y-60147701D01*
X43039000Y-60252299D01*
X43059406Y-60354887D01*
X43099434Y-60451523D01*
X43157546Y-60538493D01*
X43231507Y-60612454D01*
X43318477Y-60670566D01*
X43415113Y-60710594D01*
X43517701Y-60731000D01*
X43622299Y-60731000D01*
X43724887Y-60710594D01*
X43821523Y-60670566D01*
X43908493Y-60612454D01*
X43982454Y-60538493D01*
X44040566Y-60451523D01*
X44080594Y-60354887D01*
X44101000Y-60252299D01*
X44101000Y-60147701D01*
X44080594Y-60045113D01*
X44040566Y-59948477D01*
X43982454Y-59861507D01*
X43908493Y-59787546D01*
X43821523Y-59729434D01*
X43724887Y-59689406D01*
X43622299Y-59669000D01*
X43517701Y-59669000D01*
X43415113Y-59689406D01*
X43318477Y-59729434D01*
X43231507Y-59787546D01*
X43157546Y-59861507D01*
X43099434Y-59948477D01*
X43059406Y-60045113D01*
X43039000Y-60147701D01*
X32159307Y-60147701D01*
X32159307Y-58660000D01*
X32150097Y-58566492D01*
X32122822Y-58476577D01*
X32078529Y-58393711D01*
X32018921Y-58321079D01*
X31946289Y-58261471D01*
X31863423Y-58217178D01*
X31773508Y-58189903D01*
X31680000Y-58180693D01*
X30080000Y-58180693D01*
X29986492Y-58189903D01*
X29896577Y-58217178D01*
X29813711Y-58261471D01*
X29741079Y-58321079D01*
X29681471Y-58393711D01*
X29637178Y-58476577D01*
X29609903Y-58566492D01*
X29600693Y-58660000D01*
X27679919Y-58660000D01*
X27628367Y-58581042D01*
X27446354Y-58490950D01*
X27250262Y-58438098D01*
X27047627Y-58424517D01*
X26846237Y-58450729D01*
X26653830Y-58515727D01*
X26531633Y-58581042D01*
X26441828Y-58718591D01*
X20202000Y-58718591D01*
X20202000Y-57547701D01*
X37244000Y-57547701D01*
X37244000Y-57652299D01*
X37264406Y-57754887D01*
X37304434Y-57851523D01*
X37362546Y-57938493D01*
X37436507Y-58012454D01*
X37523477Y-58070566D01*
X37620113Y-58110594D01*
X37722701Y-58131000D01*
X37827299Y-58131000D01*
X37929887Y-58110594D01*
X38026523Y-58070566D01*
X38113493Y-58012454D01*
X38187454Y-57938493D01*
X38245566Y-57851523D01*
X38285594Y-57754887D01*
X38306000Y-57652299D01*
X38306000Y-57547701D01*
X38285594Y-57445113D01*
X38245566Y-57348477D01*
X38187454Y-57261507D01*
X38113493Y-57187546D01*
X38026523Y-57129434D01*
X37929887Y-57089406D01*
X37827299Y-57069000D01*
X37722701Y-57069000D01*
X37620113Y-57089406D01*
X37523477Y-57129434D01*
X37436507Y-57187546D01*
X37362546Y-57261507D01*
X37304434Y-57348477D01*
X37264406Y-57445113D01*
X37244000Y-57547701D01*
X20202000Y-57547701D01*
X20202000Y-55910000D01*
X22592426Y-55910000D01*
X22614668Y-56135831D01*
X22680541Y-56352984D01*
X22787512Y-56553114D01*
X22931472Y-56728528D01*
X23106886Y-56872488D01*
X23307016Y-56979459D01*
X23524169Y-57045332D01*
X23693405Y-57062000D01*
X23806595Y-57062000D01*
X23975831Y-57045332D01*
X24192984Y-56979459D01*
X24393114Y-56872488D01*
X24568528Y-56728528D01*
X24712488Y-56553114D01*
X24819459Y-56352984D01*
X24885332Y-56135831D01*
X24907574Y-55910000D01*
X24885332Y-55684169D01*
X24819459Y-55467016D01*
X24712488Y-55266886D01*
X24568528Y-55091472D01*
X24393114Y-54947512D01*
X24192984Y-54840541D01*
X23993459Y-54780016D01*
X24131052Y-54731975D01*
X24284090Y-54641841D01*
X24416603Y-54523583D01*
X24523499Y-54381745D01*
X24600669Y-54221778D01*
X24630516Y-54123370D01*
X24595103Y-53983000D01*
X23823000Y-53983000D01*
X23823000Y-54003000D01*
X23677000Y-54003000D01*
X23677000Y-53983000D01*
X22904897Y-53983000D01*
X22869484Y-54123370D01*
X22899331Y-54221778D01*
X22976501Y-54381745D01*
X23083397Y-54523583D01*
X23215910Y-54641841D01*
X23368948Y-54731975D01*
X23506541Y-54780016D01*
X23307016Y-54840541D01*
X23106886Y-54947512D01*
X22931472Y-55091472D01*
X22787512Y-55266886D01*
X22680541Y-55467016D01*
X22614668Y-55684169D01*
X22592426Y-55910000D01*
X20202000Y-55910000D01*
X20202000Y-53696630D01*
X22869484Y-53696630D01*
X22904897Y-53837000D01*
X23677000Y-53837000D01*
X23677000Y-53064691D01*
X23823000Y-53064691D01*
X23823000Y-53837000D01*
X24595103Y-53837000D01*
X24630516Y-53696630D01*
X24600669Y-53598222D01*
X24523499Y-53438255D01*
X24416603Y-53296417D01*
X24284090Y-53178159D01*
X24131052Y-53088025D01*
X23963371Y-53029479D01*
X23823000Y-53064691D01*
X23677000Y-53064691D01*
X23536629Y-53029479D01*
X23368948Y-53088025D01*
X23215910Y-53178159D01*
X23083397Y-53296417D01*
X22976501Y-53438255D01*
X22899331Y-53598222D01*
X22869484Y-53696630D01*
X20202000Y-53696630D01*
X20202000Y-51235000D01*
X22842883Y-51235000D01*
X22842883Y-52585000D01*
X22847343Y-52630284D01*
X22860552Y-52673827D01*
X22882002Y-52713957D01*
X22910868Y-52749132D01*
X22946043Y-52777998D01*
X22986173Y-52799448D01*
X23029716Y-52812657D01*
X23075000Y-52817117D01*
X24425000Y-52817117D01*
X24470284Y-52812657D01*
X24513827Y-52799448D01*
X24553957Y-52777998D01*
X24589132Y-52749132D01*
X24617998Y-52713957D01*
X24639448Y-52673827D01*
X24652657Y-52630284D01*
X24657117Y-52585000D01*
X24657117Y-51235000D01*
X24652657Y-51189716D01*
X24639448Y-51146173D01*
X24617998Y-51106043D01*
X24589132Y-51070868D01*
X24553957Y-51042002D01*
X24513827Y-51020552D01*
X24470284Y-51007343D01*
X24425000Y-51002883D01*
X23075000Y-51002883D01*
X23029716Y-51007343D01*
X22986173Y-51020552D01*
X22946043Y-51042002D01*
X22910868Y-51070868D01*
X22882002Y-51106043D01*
X22860552Y-51146173D01*
X22847343Y-51189716D01*
X22842883Y-51235000D01*
X20202000Y-51235000D01*
X20202000Y-45000000D01*
X21577716Y-45000000D01*
X21662150Y-45884236D01*
X21912401Y-46736513D01*
X22319425Y-47526027D01*
X22868509Y-48224245D01*
X23539809Y-48805930D01*
X24309063Y-49250059D01*
X25148467Y-49540580D01*
X26027684Y-49666992D01*
X26914935Y-49624727D01*
X27778154Y-49415312D01*
X28586142Y-49046317D01*
X29309695Y-48531077D01*
X29922663Y-47888214D01*
X30402892Y-47140964D01*
X30733024Y-46316335D01*
X30901128Y-45444129D01*
X30901128Y-44555871D01*
X30733024Y-43683665D01*
X30402892Y-42859036D01*
X29922663Y-42111786D01*
X29309695Y-41468923D01*
X28586142Y-40953683D01*
X27778154Y-40584688D01*
X26914935Y-40375273D01*
X26027684Y-40333008D01*
X25148467Y-40459420D01*
X24309063Y-40749941D01*
X23539809Y-41194070D01*
X22868509Y-41775755D01*
X22319425Y-42473973D01*
X21912401Y-43263487D01*
X21662150Y-44115764D01*
X21577716Y-45000000D01*
X20202000Y-45000000D01*
X20202000Y-32623711D01*
X35002989Y-32623711D01*
X35002989Y-32728309D01*
X35023395Y-32830897D01*
X35063423Y-32927533D01*
X35121535Y-33014503D01*
X35195496Y-33088464D01*
X35282466Y-33146576D01*
X35379102Y-33186604D01*
X35481690Y-33207010D01*
X35586288Y-33207010D01*
X35688876Y-33186604D01*
X35785512Y-33146576D01*
X35872482Y-33088464D01*
X35895936Y-33065010D01*
X37480214Y-33065010D01*
X37480214Y-33169608D01*
X37500620Y-33272196D01*
X37540648Y-33368832D01*
X37598760Y-33455802D01*
X37672721Y-33529763D01*
X37759691Y-33587875D01*
X37856327Y-33627903D01*
X37958915Y-33648309D01*
X38063513Y-33648309D01*
X38166101Y-33627903D01*
X38262737Y-33587875D01*
X38349707Y-33529763D01*
X38423668Y-33455802D01*
X38481780Y-33368832D01*
X38521808Y-33272196D01*
X38542214Y-33169608D01*
X38542214Y-33065010D01*
X38521808Y-32962422D01*
X38481780Y-32865786D01*
X38423668Y-32778816D01*
X38349707Y-32704855D01*
X38262737Y-32646743D01*
X38166101Y-32606715D01*
X38063513Y-32586309D01*
X37958915Y-32586309D01*
X37856327Y-32606715D01*
X37759691Y-32646743D01*
X37672721Y-32704855D01*
X37598760Y-32778816D01*
X37540648Y-32865786D01*
X37500620Y-32962422D01*
X37480214Y-33065010D01*
X35895936Y-33065010D01*
X35946443Y-33014503D01*
X36004555Y-32927533D01*
X36044583Y-32830897D01*
X36064989Y-32728309D01*
X36064989Y-32623711D01*
X36044583Y-32521123D01*
X36004555Y-32424487D01*
X35946443Y-32337517D01*
X35872482Y-32263556D01*
X35785512Y-32205444D01*
X35688876Y-32165416D01*
X35586288Y-32145010D01*
X35481690Y-32145010D01*
X35379102Y-32165416D01*
X35282466Y-32205444D01*
X35195496Y-32263556D01*
X35121535Y-32337517D01*
X35063423Y-32424487D01*
X35023395Y-32521123D01*
X35002989Y-32623711D01*
X20202000Y-32623711D01*
X20202000Y-31955201D01*
X31861500Y-31955201D01*
X31861500Y-32059799D01*
X31881906Y-32162387D01*
X31921934Y-32259023D01*
X31980046Y-32345993D01*
X32054007Y-32419954D01*
X32140977Y-32478066D01*
X32237613Y-32518094D01*
X32340201Y-32538500D01*
X32444799Y-32538500D01*
X32547387Y-32518094D01*
X32644023Y-32478066D01*
X32730993Y-32419954D01*
X32804954Y-32345993D01*
X32863066Y-32259023D01*
X32903094Y-32162387D01*
X32923500Y-32059799D01*
X32923500Y-31955201D01*
X32903094Y-31852613D01*
X32863066Y-31755977D01*
X32804954Y-31669007D01*
X32730993Y-31595046D01*
X32644023Y-31536934D01*
X32547387Y-31496906D01*
X32444799Y-31476500D01*
X32340201Y-31476500D01*
X32237613Y-31496906D01*
X32140977Y-31536934D01*
X32054007Y-31595046D01*
X31980046Y-31669007D01*
X31921934Y-31755977D01*
X31881906Y-31852613D01*
X31861500Y-31955201D01*
X20202000Y-31955201D01*
X20202000Y-23202000D01*
X79798000Y-23202000D01*
X79798000Y-39392002D01*
X79798000Y-39392002D01*
G37*
X79798000Y-39392002D02*
X79794506Y-39387744D01*
X79794502Y-39387740D01*
X79784862Y-39375994D01*
X79773117Y-39366355D01*
X78408000Y-38001240D01*
X78408000Y-35905551D01*
X78504630Y-36002181D01*
X78623171Y-36081388D01*
X78754887Y-36135946D01*
X78894716Y-36163760D01*
X79037284Y-36163760D01*
X79177113Y-36135946D01*
X79308829Y-36081388D01*
X79427370Y-36002181D01*
X79528181Y-35901370D01*
X79607388Y-35782829D01*
X79661946Y-35651113D01*
X79689760Y-35511284D01*
X79689760Y-35368716D01*
X79661946Y-35228887D01*
X79607388Y-35097171D01*
X79528181Y-34978630D01*
X79427370Y-34877819D01*
X79308829Y-34798612D01*
X79177113Y-34744054D01*
X79037284Y-34716240D01*
X78988124Y-34716240D01*
X79002678Y-34706515D01*
X79076639Y-34632554D01*
X79134751Y-34545584D01*
X79174779Y-34448948D01*
X79195185Y-34346360D01*
X79195185Y-34241762D01*
X79174779Y-34139174D01*
X79134751Y-34042538D01*
X79076639Y-33955568D01*
X79002678Y-33881607D01*
X78915708Y-33823495D01*
X78819072Y-33783467D01*
X78716484Y-33763061D01*
X78611886Y-33763061D01*
X78509298Y-33783467D01*
X78412662Y-33823495D01*
X78325692Y-33881607D01*
X78251731Y-33955568D01*
X78193619Y-34042538D01*
X78153591Y-34139174D01*
X78133185Y-34241762D01*
X78133185Y-34346360D01*
X78140340Y-34382330D01*
X78058000Y-34464670D01*
X78058000Y-34028835D01*
X78059489Y-34013715D01*
X78058000Y-33998595D01*
X78058000Y-33998588D01*
X78053543Y-33953337D01*
X78051834Y-33947701D01*
X78035931Y-33895279D01*
X78025283Y-33875358D01*
X78007332Y-33841773D01*
X77968842Y-33794874D01*
X77957091Y-33785230D01*
X75964187Y-31792327D01*
X75954538Y-31780570D01*
X75907639Y-31742080D01*
X75854133Y-31713481D01*
X75796075Y-31695869D01*
X75750824Y-31691412D01*
X75750816Y-31691412D01*
X75743799Y-31690721D01*
X75723886Y-31660919D01*
X75649925Y-31586958D01*
X75562955Y-31528846D01*
X75466319Y-31488818D01*
X75363731Y-31468412D01*
X75259133Y-31468412D01*
X75156545Y-31488818D01*
X75059909Y-31528846D01*
X74972939Y-31586958D01*
X74898978Y-31660919D01*
X74840866Y-31747889D01*
X74800838Y-31844525D01*
X74780432Y-31947113D01*
X74780432Y-32051711D01*
X74800838Y-32154299D01*
X74840866Y-32250935D01*
X74898978Y-32337905D01*
X74972939Y-32411866D01*
X75011512Y-32437640D01*
X74997396Y-32449224D01*
X74982023Y-32461840D01*
X74982019Y-32461844D01*
X74970273Y-32471484D01*
X74960633Y-32483231D01*
X74761418Y-32682447D01*
X74749668Y-32692090D01*
X74745508Y-32697159D01*
X74745508Y-30447664D01*
X74746997Y-30432544D01*
X74745508Y-30417424D01*
X74745508Y-30417416D01*
X74741051Y-30372165D01*
X74723439Y-30314107D01*
X74694840Y-30260601D01*
X74674937Y-30236350D01*
X74665994Y-30225452D01*
X74665990Y-30225448D01*
X74656350Y-30213702D01*
X74644605Y-30204063D01*
X68202445Y-23761905D01*
X68192796Y-23750148D01*
X68145897Y-23711658D01*
X68092391Y-23683059D01*
X68034333Y-23665447D01*
X67989082Y-23660990D01*
X67989074Y-23660990D01*
X67973954Y-23659501D01*
X67958834Y-23660990D01*
X47540167Y-23660990D01*
X47525047Y-23659501D01*
X47509927Y-23660990D01*
X47509919Y-23660990D01*
X47464668Y-23665447D01*
X47406610Y-23683059D01*
X47353104Y-23711658D01*
X47317955Y-23740504D01*
X47317951Y-23740508D01*
X47306205Y-23750148D01*
X47296565Y-23761894D01*
X44185460Y-26873001D01*
X32984118Y-26873001D01*
X32968998Y-26871512D01*
X32953878Y-26873001D01*
X32953871Y-26873001D01*
X32914374Y-26876891D01*
X32908619Y-26877458D01*
X32850562Y-26895070D01*
X32797056Y-26923669D01*
X32750157Y-26962159D01*
X32740513Y-26973910D01*
X31485269Y-28229155D01*
X31449299Y-28222000D01*
X31344701Y-28222000D01*
X31242113Y-28242406D01*
X31145477Y-28282434D01*
X31058507Y-28340546D01*
X30984546Y-28414507D01*
X30926434Y-28501477D01*
X30886406Y-28598113D01*
X30866000Y-28700701D01*
X30866000Y-28805299D01*
X30886406Y-28907887D01*
X30926434Y-29004523D01*
X30984546Y-29091493D01*
X31058507Y-29165454D01*
X31145477Y-29223566D01*
X31242113Y-29263594D01*
X31344701Y-29284000D01*
X31449299Y-29284000D01*
X31551887Y-29263594D01*
X31648523Y-29223566D01*
X31735493Y-29165454D01*
X31809454Y-29091493D01*
X31867566Y-29004523D01*
X31907594Y-28907887D01*
X31928000Y-28805299D01*
X31928000Y-28700701D01*
X31920845Y-28664731D01*
X33096576Y-27489001D01*
X44005051Y-27489001D01*
X43725052Y-27769000D01*
X41626084Y-27769000D01*
X41600000Y-27766431D01*
X41573916Y-27769000D01*
X41547701Y-27769000D01*
X41521992Y-27774114D01*
X41495906Y-27776683D01*
X41470824Y-27784292D01*
X41445113Y-27789406D01*
X41420890Y-27799439D01*
X41395812Y-27807047D01*
X41372701Y-27819400D01*
X41348477Y-27829434D01*
X41326677Y-27844000D01*
X41303565Y-27856354D01*
X41283305Y-27872981D01*
X41261507Y-27887546D01*
X41242970Y-27906083D01*
X41222710Y-27922710D01*
X41206083Y-27942970D01*
X41187546Y-27961507D01*
X41172981Y-27983305D01*
X41156354Y-28003565D01*
X41144000Y-28026677D01*
X41129434Y-28048477D01*
X41119400Y-28072701D01*
X41107047Y-28095812D01*
X41099439Y-28120890D01*
X41089406Y-28145113D01*
X41084292Y-28170824D01*
X41076683Y-28195906D01*
X41074114Y-28221992D01*
X41069000Y-28247701D01*
X41069000Y-28273916D01*
X41066431Y-28300000D01*
X41069000Y-28326084D01*
X41069001Y-41147696D01*
X41069000Y-41147701D01*
X41069000Y-41252299D01*
X41074116Y-41278018D01*
X41076684Y-41304094D01*
X41084290Y-41329167D01*
X41089406Y-41354887D01*
X41099443Y-41379119D01*
X41107048Y-41404188D01*
X41119397Y-41427291D01*
X41129434Y-41451523D01*
X41144005Y-41473330D01*
X41156355Y-41496435D01*
X41172976Y-41516688D01*
X41187546Y-41538493D01*
X41206089Y-41557036D01*
X41222711Y-41577290D01*
X41242965Y-41593912D01*
X41261507Y-41612454D01*
X41283311Y-41627023D01*
X41303566Y-41643646D01*
X41326673Y-41655997D01*
X41348477Y-41670566D01*
X41372705Y-41680602D01*
X41395813Y-41692953D01*
X41420888Y-41700560D01*
X41445113Y-41710594D01*
X41470827Y-41715709D01*
X41495907Y-41723317D01*
X41521991Y-41725886D01*
X41547701Y-41731000D01*
X41573916Y-41731000D01*
X41600000Y-41733569D01*
X41626084Y-41731000D01*
X41652299Y-41731000D01*
X41678008Y-41725886D01*
X41704094Y-41723317D01*
X41729176Y-41715708D01*
X41754887Y-41710594D01*
X41779110Y-41700561D01*
X41804188Y-41692953D01*
X41827299Y-41680600D01*
X41851523Y-41670566D01*
X41873323Y-41656000D01*
X41896435Y-41643646D01*
X41916695Y-41627019D01*
X41938493Y-41612454D01*
X41957030Y-41593917D01*
X41977290Y-41577290D01*
X41993917Y-41557030D01*
X42012454Y-41538493D01*
X42027019Y-41516695D01*
X42043646Y-41496435D01*
X42056000Y-41473323D01*
X42070566Y-41451523D01*
X42080600Y-41427299D01*
X42092953Y-41404188D01*
X42100561Y-41379110D01*
X42110594Y-41354887D01*
X42115708Y-41329176D01*
X42123317Y-41304094D01*
X42125886Y-41278008D01*
X42131000Y-41252299D01*
X42131000Y-41097701D01*
X46069000Y-41097701D01*
X46069000Y-41202299D01*
X46089406Y-41304887D01*
X46129434Y-41401523D01*
X46187546Y-41488493D01*
X46261507Y-41562454D01*
X46348477Y-41620566D01*
X46445113Y-41660594D01*
X46547701Y-41681000D01*
X46652299Y-41681000D01*
X46754887Y-41660594D01*
X46851523Y-41620566D01*
X46938493Y-41562454D01*
X47012454Y-41488493D01*
X47070566Y-41401523D01*
X47110594Y-41304887D01*
X47131000Y-41202299D01*
X47131000Y-41097701D01*
X47110594Y-40995113D01*
X47070566Y-40898477D01*
X47012454Y-40811507D01*
X46938493Y-40737546D01*
X46851523Y-40679434D01*
X46754887Y-40639406D01*
X46652299Y-40619000D01*
X46547701Y-40619000D01*
X46445113Y-40639406D01*
X46348477Y-40679434D01*
X46261507Y-40737546D01*
X46187546Y-40811507D01*
X46129434Y-40898477D01*
X46089406Y-40995113D01*
X46069000Y-41097701D01*
X42131000Y-41097701D01*
X42131000Y-40200000D01*
X46842426Y-40200000D01*
X46864668Y-40425831D01*
X46930541Y-40642984D01*
X47037512Y-40843114D01*
X47181472Y-41018528D01*
X47356886Y-41162488D01*
X47557016Y-41269459D01*
X47774169Y-41335332D01*
X47943405Y-41352000D01*
X48056595Y-41352000D01*
X48225831Y-41335332D01*
X48442984Y-41269459D01*
X48643114Y-41162488D01*
X48818528Y-41018528D01*
X48962488Y-40843114D01*
X49069459Y-40642984D01*
X49128535Y-40448237D01*
X49158916Y-40548388D01*
X49243044Y-40705782D01*
X49356262Y-40843738D01*
X49494218Y-40956956D01*
X49651612Y-41041084D01*
X49822393Y-41092890D01*
X49955499Y-41106000D01*
X50044501Y-41106000D01*
X50177607Y-41092890D01*
X50348388Y-41041084D01*
X50505782Y-40956956D01*
X50643738Y-40843738D01*
X50756956Y-40705782D01*
X50841084Y-40548388D01*
X50892890Y-40377607D01*
X50910383Y-40200000D01*
X51089617Y-40200000D01*
X51107110Y-40377607D01*
X51158916Y-40548388D01*
X51243044Y-40705782D01*
X51356262Y-40843738D01*
X51494218Y-40956956D01*
X51651612Y-41041084D01*
X51822393Y-41092890D01*
X51955499Y-41106000D01*
X52044501Y-41106000D01*
X52177607Y-41092890D01*
X52348388Y-41041084D01*
X52505782Y-40956956D01*
X52643738Y-40843738D01*
X52756956Y-40705782D01*
X52841084Y-40548388D01*
X52892890Y-40377607D01*
X52910383Y-40200000D01*
X53089617Y-40200000D01*
X53107110Y-40377607D01*
X53158916Y-40548388D01*
X53243044Y-40705782D01*
X53356262Y-40843738D01*
X53494218Y-40956956D01*
X53651612Y-41041084D01*
X53822393Y-41092890D01*
X53955499Y-41106000D01*
X54044501Y-41106000D01*
X54177607Y-41092890D01*
X54348388Y-41041084D01*
X54505782Y-40956956D01*
X54643738Y-40843738D01*
X54756956Y-40705782D01*
X54841084Y-40548388D01*
X54892890Y-40377607D01*
X54910383Y-40200000D01*
X55089617Y-40200000D01*
X55107110Y-40377607D01*
X55158916Y-40548388D01*
X55243044Y-40705782D01*
X55356262Y-40843738D01*
X55494218Y-40956956D01*
X55651612Y-41041084D01*
X55822393Y-41092890D01*
X55955499Y-41106000D01*
X56044501Y-41106000D01*
X56177607Y-41092890D01*
X56348388Y-41041084D01*
X56505782Y-40956956D01*
X56643738Y-40843738D01*
X56756956Y-40705782D01*
X56841084Y-40548388D01*
X56892890Y-40377607D01*
X56910383Y-40200000D01*
X56892890Y-40022393D01*
X56841084Y-39851612D01*
X56756956Y-39694218D01*
X56643738Y-39556262D01*
X56505782Y-39443044D01*
X56348388Y-39358916D01*
X56177607Y-39307110D01*
X56044501Y-39294000D01*
X55955499Y-39294000D01*
X55822393Y-39307110D01*
X55651612Y-39358916D01*
X55494218Y-39443044D01*
X55356262Y-39556262D01*
X55243044Y-39694218D01*
X55158916Y-39851612D01*
X55107110Y-40022393D01*
X55089617Y-40200000D01*
X54910383Y-40200000D01*
X54892890Y-40022393D01*
X54841084Y-39851612D01*
X54756956Y-39694218D01*
X54643738Y-39556262D01*
X54505782Y-39443044D01*
X54348388Y-39358916D01*
X54177607Y-39307110D01*
X54044501Y-39294000D01*
X53955499Y-39294000D01*
X53822393Y-39307110D01*
X53651612Y-39358916D01*
X53494218Y-39443044D01*
X53356262Y-39556262D01*
X53243044Y-39694218D01*
X53158916Y-39851612D01*
X53107110Y-40022393D01*
X53089617Y-40200000D01*
X52910383Y-40200000D01*
X52892890Y-40022393D01*
X52841084Y-39851612D01*
X52756956Y-39694218D01*
X52643738Y-39556262D01*
X52505782Y-39443044D01*
X52348388Y-39358916D01*
X52177607Y-39307110D01*
X52044501Y-39294000D01*
X51955499Y-39294000D01*
X51822393Y-39307110D01*
X51651612Y-39358916D01*
X51494218Y-39443044D01*
X51356262Y-39556262D01*
X51243044Y-39694218D01*
X51158916Y-39851612D01*
X51107110Y-40022393D01*
X51089617Y-40200000D01*
X50910383Y-40200000D01*
X50892890Y-40022393D01*
X50841084Y-39851612D01*
X50756956Y-39694218D01*
X50643738Y-39556262D01*
X50505782Y-39443044D01*
X50348388Y-39358916D01*
X50177607Y-39307110D01*
X50044501Y-39294000D01*
X49955499Y-39294000D01*
X49822393Y-39307110D01*
X49651612Y-39358916D01*
X49494218Y-39443044D01*
X49356262Y-39556262D01*
X49243044Y-39694218D01*
X49158916Y-39851612D01*
X49128535Y-39951763D01*
X49069459Y-39757016D01*
X48962488Y-39556886D01*
X48818528Y-39381472D01*
X48643114Y-39237512D01*
X48442984Y-39130541D01*
X48225831Y-39064668D01*
X48056595Y-39048000D01*
X47943405Y-39048000D01*
X47774169Y-39064668D01*
X47557016Y-39130541D01*
X47356886Y-39237512D01*
X47181472Y-39381472D01*
X47037512Y-39556886D01*
X46930541Y-39757016D01*
X46864668Y-39974169D01*
X46842426Y-40200000D01*
X42131000Y-40200000D01*
X42131000Y-33997701D01*
X43769000Y-33997701D01*
X43769000Y-34102299D01*
X43789406Y-34204887D01*
X43829434Y-34301523D01*
X43887546Y-34388493D01*
X43961507Y-34462454D01*
X44048477Y-34520566D01*
X44145113Y-34560594D01*
X44247701Y-34581000D01*
X44352299Y-34581000D01*
X44454887Y-34560594D01*
X44551523Y-34520566D01*
X44638493Y-34462454D01*
X44712454Y-34388493D01*
X44770566Y-34301523D01*
X44810594Y-34204887D01*
X44831000Y-34102299D01*
X44831000Y-33997701D01*
X44810594Y-33895113D01*
X44770566Y-33798477D01*
X44712454Y-33711507D01*
X44638493Y-33637546D01*
X44551523Y-33579434D01*
X44454887Y-33539406D01*
X44352299Y-33519000D01*
X44247701Y-33519000D01*
X44145113Y-33539406D01*
X44048477Y-33579434D01*
X43961507Y-33637546D01*
X43887546Y-33711507D01*
X43829434Y-33798477D01*
X43789406Y-33895113D01*
X43769000Y-33997701D01*
X42131000Y-33997701D01*
X42131000Y-32297701D01*
X44869000Y-32297701D01*
X44869000Y-32402299D01*
X44889406Y-32504887D01*
X44929434Y-32601523D01*
X44987546Y-32688493D01*
X45061507Y-32762454D01*
X45148477Y-32820566D01*
X45245113Y-32860594D01*
X45347701Y-32881000D01*
X45452299Y-32881000D01*
X45554887Y-32860594D01*
X45651523Y-32820566D01*
X45738493Y-32762454D01*
X45812454Y-32688493D01*
X45870566Y-32601523D01*
X45910594Y-32504887D01*
X45931000Y-32402299D01*
X45931000Y-32297701D01*
X45910594Y-32195113D01*
X45870566Y-32098477D01*
X45812454Y-32011507D01*
X45738493Y-31937546D01*
X45651523Y-31879434D01*
X45554887Y-31839406D01*
X45452299Y-31819000D01*
X45347701Y-31819000D01*
X45245113Y-31839406D01*
X45148477Y-31879434D01*
X45061507Y-31937546D01*
X44987546Y-32011507D01*
X44929434Y-32098477D01*
X44889406Y-32195113D01*
X44869000Y-32297701D01*
X42131000Y-32297701D01*
X42131000Y-31255625D01*
X62612038Y-31255625D01*
X62612038Y-31360223D01*
X62632444Y-31462811D01*
X62672472Y-31559447D01*
X62730584Y-31646417D01*
X62804545Y-31720378D01*
X62891515Y-31778490D01*
X62988151Y-31818518D01*
X63090739Y-31838924D01*
X63195337Y-31838924D01*
X63297925Y-31818518D01*
X63394561Y-31778490D01*
X63481531Y-31720378D01*
X63555492Y-31646417D01*
X63613604Y-31559447D01*
X63653632Y-31462811D01*
X63674038Y-31360223D01*
X63674038Y-31255625D01*
X63653632Y-31153037D01*
X63613604Y-31056401D01*
X63555492Y-30969431D01*
X63481531Y-30895470D01*
X63394561Y-30837358D01*
X63379211Y-30831000D01*
X63452299Y-30831000D01*
X63554887Y-30810594D01*
X63651523Y-30770566D01*
X63738493Y-30712454D01*
X63812454Y-30638493D01*
X63870566Y-30551523D01*
X63910594Y-30454887D01*
X63931000Y-30352299D01*
X63931000Y-30247701D01*
X63910594Y-30145113D01*
X63870566Y-30048477D01*
X63812454Y-29961507D01*
X63738493Y-29887546D01*
X63651523Y-29829434D01*
X63554887Y-29789406D01*
X63452299Y-29769000D01*
X63347701Y-29769000D01*
X63245113Y-29789406D01*
X63148477Y-29829434D01*
X63061507Y-29887546D01*
X62987546Y-29961507D01*
X62929434Y-30048477D01*
X62889406Y-30145113D01*
X62869000Y-30247701D01*
X62869000Y-30352299D01*
X62889406Y-30454887D01*
X62929434Y-30551523D01*
X62987546Y-30638493D01*
X63061507Y-30712454D01*
X63148477Y-30770566D01*
X63163827Y-30776924D01*
X63090739Y-30776924D01*
X62988151Y-30797330D01*
X62891515Y-30837358D01*
X62804545Y-30895470D01*
X62730584Y-30969431D01*
X62672472Y-31056401D01*
X62632444Y-31153037D01*
X62612038Y-31255625D01*
X42131000Y-31255625D01*
X42131000Y-30347701D01*
X57219000Y-30347701D01*
X57219000Y-30452299D01*
X57239406Y-30554887D01*
X57279434Y-30651523D01*
X57337546Y-30738493D01*
X57411507Y-30812454D01*
X57498477Y-30870566D01*
X57595113Y-30910594D01*
X57697701Y-30931000D01*
X57802299Y-30931000D01*
X57904887Y-30910594D01*
X58001523Y-30870566D01*
X58088493Y-30812454D01*
X58162454Y-30738493D01*
X58220566Y-30651523D01*
X58260594Y-30554887D01*
X58281000Y-30452299D01*
X58281000Y-30347701D01*
X58260594Y-30245113D01*
X58220566Y-30148477D01*
X58162454Y-30061507D01*
X58088493Y-29987546D01*
X58001523Y-29929434D01*
X57904887Y-29889406D01*
X57802299Y-29869000D01*
X57697701Y-29869000D01*
X57595113Y-29889406D01*
X57498477Y-29929434D01*
X57411507Y-29987546D01*
X57337546Y-30061507D01*
X57279434Y-30148477D01*
X57239406Y-30245113D01*
X57219000Y-30347701D01*
X42131000Y-30347701D01*
X42131000Y-28831000D01*
X43918924Y-28831000D01*
X43944998Y-28833568D01*
X43971072Y-28831000D01*
X43971082Y-28831000D01*
X44049092Y-28823317D01*
X44149186Y-28792953D01*
X44241433Y-28743646D01*
X44322288Y-28677290D01*
X44338919Y-28657025D01*
X46856244Y-26139701D01*
X46842426Y-26280000D01*
X46864668Y-26505831D01*
X46930541Y-26722984D01*
X47037512Y-26923114D01*
X47181472Y-27098528D01*
X47356886Y-27242488D01*
X47557016Y-27349459D01*
X47774169Y-27415332D01*
X47943405Y-27432000D01*
X48056595Y-27432000D01*
X48225831Y-27415332D01*
X48442984Y-27349459D01*
X48643114Y-27242488D01*
X48818528Y-27098528D01*
X48962488Y-26923114D01*
X49069459Y-26722984D01*
X49128535Y-26528237D01*
X49158916Y-26628388D01*
X49243044Y-26785782D01*
X49356262Y-26923738D01*
X49494218Y-27036956D01*
X49651612Y-27121084D01*
X49822393Y-27172890D01*
X49955499Y-27186000D01*
X50044501Y-27186000D01*
X50177607Y-27172890D01*
X50348388Y-27121084D01*
X50505782Y-27036956D01*
X50643738Y-26923738D01*
X50756956Y-26785782D01*
X50841084Y-26628388D01*
X50892890Y-26457607D01*
X50910383Y-26280000D01*
X51089617Y-26280000D01*
X51107110Y-26457607D01*
X51158916Y-26628388D01*
X51243044Y-26785782D01*
X51356262Y-26923738D01*
X51494218Y-27036956D01*
X51651612Y-27121084D01*
X51822393Y-27172890D01*
X51955499Y-27186000D01*
X52044501Y-27186000D01*
X52177607Y-27172890D01*
X52348388Y-27121084D01*
X52505782Y-27036956D01*
X52643738Y-26923738D01*
X52756956Y-26785782D01*
X52841084Y-26628388D01*
X52892890Y-26457607D01*
X52910383Y-26280000D01*
X53089617Y-26280000D01*
X53107110Y-26457607D01*
X53158916Y-26628388D01*
X53243044Y-26785782D01*
X53356262Y-26923738D01*
X53494218Y-27036956D01*
X53651612Y-27121084D01*
X53822393Y-27172890D01*
X53955499Y-27186000D01*
X54044501Y-27186000D01*
X54177607Y-27172890D01*
X54348388Y-27121084D01*
X54505782Y-27036956D01*
X54643738Y-26923738D01*
X54756956Y-26785782D01*
X54841084Y-26628388D01*
X54892890Y-26457607D01*
X54910383Y-26280000D01*
X55089617Y-26280000D01*
X55107110Y-26457607D01*
X55158916Y-26628388D01*
X55243044Y-26785782D01*
X55356262Y-26923738D01*
X55494218Y-27036956D01*
X55651612Y-27121084D01*
X55822393Y-27172890D01*
X55955499Y-27186000D01*
X56044501Y-27186000D01*
X56177607Y-27172890D01*
X56348388Y-27121084D01*
X56505782Y-27036956D01*
X56643738Y-26923738D01*
X56756956Y-26785782D01*
X56841084Y-26628388D01*
X56892890Y-26457607D01*
X56910383Y-26280000D01*
X56892890Y-26102393D01*
X56841084Y-25931612D01*
X56756956Y-25774218D01*
X56643738Y-25636262D01*
X56605646Y-25605000D01*
X57092883Y-25605000D01*
X57092883Y-26955000D01*
X57097343Y-27000284D01*
X57110552Y-27043827D01*
X57132002Y-27083957D01*
X57160868Y-27119132D01*
X57196043Y-27147998D01*
X57236173Y-27169448D01*
X57279716Y-27182657D01*
X57325000Y-27187117D01*
X58675000Y-27187117D01*
X58720284Y-27182657D01*
X58763827Y-27169448D01*
X58803957Y-27147998D01*
X58839132Y-27119132D01*
X58867998Y-27083957D01*
X58889448Y-27043827D01*
X58902657Y-27000284D01*
X58907117Y-26955000D01*
X58907117Y-25605000D01*
X58902657Y-25559716D01*
X58889448Y-25516173D01*
X58867998Y-25476043D01*
X58839132Y-25440868D01*
X58803957Y-25412002D01*
X58763827Y-25390552D01*
X58720284Y-25377343D01*
X58675000Y-25372883D01*
X57325000Y-25372883D01*
X57279716Y-25377343D01*
X57236173Y-25390552D01*
X57196043Y-25412002D01*
X57160868Y-25440868D01*
X57132002Y-25476043D01*
X57110552Y-25516173D01*
X57097343Y-25559716D01*
X57092883Y-25605000D01*
X56605646Y-25605000D01*
X56505782Y-25523044D01*
X56348388Y-25438916D01*
X56177607Y-25387110D01*
X56044501Y-25374000D01*
X55955499Y-25374000D01*
X55822393Y-25387110D01*
X55651612Y-25438916D01*
X55494218Y-25523044D01*
X55356262Y-25636262D01*
X55243044Y-25774218D01*
X55158916Y-25931612D01*
X55107110Y-26102393D01*
X55089617Y-26280000D01*
X54910383Y-26280000D01*
X54892890Y-26102393D01*
X54841084Y-25931612D01*
X54756956Y-25774218D01*
X54643738Y-25636262D01*
X54505782Y-25523044D01*
X54348388Y-25438916D01*
X54177607Y-25387110D01*
X54044501Y-25374000D01*
X53955499Y-25374000D01*
X53822393Y-25387110D01*
X53651612Y-25438916D01*
X53494218Y-25523044D01*
X53356262Y-25636262D01*
X53243044Y-25774218D01*
X53158916Y-25931612D01*
X53107110Y-26102393D01*
X53089617Y-26280000D01*
X52910383Y-26280000D01*
X52892890Y-26102393D01*
X52841084Y-25931612D01*
X52756956Y-25774218D01*
X52643738Y-25636262D01*
X52505782Y-25523044D01*
X52348388Y-25438916D01*
X52177607Y-25387110D01*
X52044501Y-25374000D01*
X51955499Y-25374000D01*
X51822393Y-25387110D01*
X51651612Y-25438916D01*
X51494218Y-25523044D01*
X51356262Y-25636262D01*
X51243044Y-25774218D01*
X51158916Y-25931612D01*
X51107110Y-26102393D01*
X51089617Y-26280000D01*
X50910383Y-26280000D01*
X50892890Y-26102393D01*
X50841084Y-25931612D01*
X50756956Y-25774218D01*
X50643738Y-25636262D01*
X50505782Y-25523044D01*
X50348388Y-25438916D01*
X50177607Y-25387110D01*
X50044501Y-25374000D01*
X49955499Y-25374000D01*
X49822393Y-25387110D01*
X49651612Y-25438916D01*
X49494218Y-25523044D01*
X49356262Y-25636262D01*
X49243044Y-25774218D01*
X49158916Y-25931612D01*
X49128535Y-26031763D01*
X49069459Y-25837016D01*
X48962488Y-25636886D01*
X48818528Y-25461472D01*
X48643114Y-25317512D01*
X48442984Y-25210541D01*
X48225831Y-25144668D01*
X48056595Y-25128000D01*
X47943405Y-25128000D01*
X47859702Y-25136244D01*
X47964946Y-25031000D01*
X62380054Y-25031000D01*
X62787546Y-25438493D01*
X62861507Y-25512454D01*
X62883302Y-25527017D01*
X62903564Y-25543646D01*
X62926680Y-25556002D01*
X62948477Y-25570566D01*
X62972700Y-25580599D01*
X62995812Y-25592953D01*
X63020888Y-25600560D01*
X63045113Y-25610594D01*
X63070831Y-25615710D01*
X63095906Y-25623316D01*
X63121982Y-25625884D01*
X63147701Y-25631000D01*
X63173925Y-25631000D01*
X63199999Y-25633568D01*
X63226073Y-25631000D01*
X63252299Y-25631000D01*
X63278019Y-25625884D01*
X63304093Y-25623316D01*
X63329166Y-25615710D01*
X63354887Y-25610594D01*
X63379115Y-25600559D01*
X63404187Y-25592953D01*
X63427296Y-25580601D01*
X63451523Y-25570566D01*
X63473324Y-25555999D01*
X63496435Y-25543646D01*
X63516695Y-25527019D01*
X63538493Y-25512454D01*
X63557030Y-25493917D01*
X63577290Y-25477290D01*
X63593917Y-25457030D01*
X63612454Y-25438493D01*
X63627019Y-25416695D01*
X63643646Y-25396435D01*
X63655999Y-25373324D01*
X63670566Y-25351523D01*
X63680601Y-25327296D01*
X63692953Y-25304187D01*
X63700559Y-25279115D01*
X63710594Y-25254887D01*
X63715710Y-25229166D01*
X63723316Y-25204093D01*
X63725884Y-25178019D01*
X63731000Y-25152299D01*
X63731000Y-25126073D01*
X63733568Y-25099999D01*
X63731000Y-25073925D01*
X63731000Y-25047701D01*
X63725884Y-25021982D01*
X63723316Y-24995906D01*
X63715710Y-24970831D01*
X63710594Y-24945113D01*
X63700560Y-24920888D01*
X63692953Y-24895812D01*
X63680599Y-24872700D01*
X63670566Y-24848477D01*
X63656002Y-24826680D01*
X63643646Y-24803564D01*
X63627017Y-24783302D01*
X63612454Y-24761507D01*
X63538493Y-24687546D01*
X63127936Y-24276990D01*
X67846378Y-24276990D01*
X70438387Y-26869000D01*
X65921157Y-26869000D01*
X65899999Y-26866916D01*
X65878841Y-26869000D01*
X65878832Y-26869000D01*
X65815509Y-26875237D01*
X65734266Y-26899882D01*
X65659391Y-26939903D01*
X65593763Y-26993763D01*
X65580270Y-27010204D01*
X65310209Y-27280266D01*
X65310204Y-27280270D01*
X65214962Y-27375512D01*
X65145113Y-27389406D01*
X65048477Y-27429434D01*
X64961507Y-27487546D01*
X64887546Y-27561507D01*
X64829434Y-27648477D01*
X64789406Y-27745113D01*
X64769000Y-27847701D01*
X64769000Y-27952299D01*
X64789406Y-28054887D01*
X64829434Y-28151523D01*
X64887546Y-28238493D01*
X64961507Y-28312454D01*
X65017697Y-28349999D01*
X64961505Y-28387546D01*
X64887544Y-28461507D01*
X64829432Y-28548477D01*
X64789404Y-28645113D01*
X64768998Y-28747701D01*
X64768998Y-28852299D01*
X64785324Y-28934377D01*
X64738493Y-28887546D01*
X64651523Y-28829434D01*
X64554887Y-28789406D01*
X64452299Y-28769000D01*
X64347701Y-28769000D01*
X64245113Y-28789406D01*
X64148477Y-28829434D01*
X64061507Y-28887546D01*
X63987546Y-28961507D01*
X63929434Y-29048477D01*
X63889406Y-29145113D01*
X63869000Y-29247701D01*
X63869000Y-29352299D01*
X63889406Y-29454887D01*
X63929434Y-29551523D01*
X63987546Y-29638493D01*
X64061507Y-29712454D01*
X64148477Y-29770566D01*
X64245113Y-29810594D01*
X64347701Y-29831000D01*
X64452299Y-29831000D01*
X64554887Y-29810594D01*
X64651523Y-29770566D01*
X64738493Y-29712454D01*
X64752947Y-29698000D01*
X64962424Y-29698000D01*
X65271518Y-30007096D01*
X65281158Y-30018842D01*
X65292904Y-30028482D01*
X65292908Y-30028486D01*
X65301940Y-30035898D01*
X65328057Y-30057332D01*
X65381563Y-30085931D01*
X65439621Y-30103543D01*
X65484872Y-30108000D01*
X65484880Y-30108000D01*
X65500000Y-30109489D01*
X65515120Y-30108000D01*
X68363215Y-30108000D01*
X68378335Y-30109489D01*
X68393455Y-30108000D01*
X68393463Y-30108000D01*
X68438714Y-30103543D01*
X68496772Y-30085931D01*
X68550278Y-30057332D01*
X68597177Y-30018842D01*
X68606826Y-30007085D01*
X69737098Y-28876814D01*
X69773067Y-28883969D01*
X69877665Y-28883969D01*
X69980253Y-28863563D01*
X70076889Y-28823535D01*
X70108965Y-28802102D01*
X70129434Y-28851519D01*
X70187546Y-28938489D01*
X70261507Y-29012450D01*
X70348477Y-29070562D01*
X70445113Y-29110590D01*
X70547701Y-29130996D01*
X70652299Y-29130996D01*
X70754887Y-29110590D01*
X70794110Y-29094343D01*
X70786157Y-29102296D01*
X70728045Y-29189266D01*
X70688017Y-29285902D01*
X70667611Y-29388490D01*
X70667611Y-29493088D01*
X70688017Y-29595676D01*
X70728045Y-29692312D01*
X70786157Y-29779282D01*
X70860118Y-29853243D01*
X70947088Y-29911355D01*
X71043724Y-29951383D01*
X71146312Y-29971789D01*
X71223602Y-29971789D01*
X71223602Y-30007040D01*
X71244008Y-30109628D01*
X71284036Y-30206264D01*
X71342148Y-30293234D01*
X71416109Y-30367195D01*
X71503079Y-30425307D01*
X71599715Y-30465335D01*
X71702303Y-30485741D01*
X71806901Y-30485741D01*
X71842869Y-30478586D01*
X71846648Y-30482365D01*
X71846648Y-31365804D01*
X71778533Y-31337590D01*
X71675945Y-31317184D01*
X71571347Y-31317184D01*
X71468759Y-31337590D01*
X71372123Y-31377618D01*
X71285153Y-31435730D01*
X71211192Y-31509691D01*
X71153080Y-31596661D01*
X71113052Y-31693297D01*
X71092646Y-31795885D01*
X71092646Y-31900483D01*
X71113052Y-32003071D01*
X71153080Y-32099707D01*
X71211192Y-32186677D01*
X71285153Y-32260638D01*
X71292001Y-32265214D01*
X71292000Y-32972423D01*
X70531376Y-33733048D01*
X70519625Y-33742692D01*
X70481135Y-33789591D01*
X70470707Y-33809101D01*
X70452535Y-33843098D01*
X70434923Y-33901155D01*
X70428977Y-33961534D01*
X70430467Y-33976664D01*
X70430466Y-35531897D01*
X68821366Y-37140998D01*
X67540238Y-37140998D01*
X67525118Y-37139509D01*
X67509998Y-37140998D01*
X67509990Y-37140998D01*
X67464739Y-37145455D01*
X67406681Y-37163067D01*
X67360324Y-37187845D01*
X67353175Y-37191666D01*
X67318026Y-37220512D01*
X67318022Y-37220516D01*
X67306276Y-37230156D01*
X67296636Y-37241902D01*
X66630408Y-37908130D01*
X66631474Y-37902773D01*
X66631474Y-37798175D01*
X66611068Y-37695587D01*
X66571040Y-37598951D01*
X66512928Y-37511981D01*
X66438967Y-37438020D01*
X66351997Y-37379908D01*
X66255361Y-37339880D01*
X66152773Y-37319474D01*
X66048175Y-37319474D01*
X65945587Y-37339880D01*
X65848951Y-37379908D01*
X65761981Y-37438020D01*
X65688020Y-37511981D01*
X65629908Y-37598951D01*
X65589880Y-37695587D01*
X65569474Y-37798175D01*
X65569474Y-37902773D01*
X65589880Y-38005361D01*
X65629908Y-38101997D01*
X65688020Y-38188967D01*
X65761981Y-38262928D01*
X65848951Y-38321040D01*
X65945587Y-38361068D01*
X66048175Y-38381474D01*
X66152773Y-38381474D01*
X66158130Y-38380408D01*
X64361909Y-40176631D01*
X64350158Y-40186275D01*
X64311668Y-40233174D01*
X64305287Y-40245113D01*
X64283068Y-40286681D01*
X64265456Y-40344738D01*
X64259510Y-40405117D01*
X64261000Y-40420247D01*
X64260999Y-46703423D01*
X61441414Y-49523010D01*
X60598496Y-49523010D01*
X60610744Y-49508086D01*
X60678623Y-49381095D01*
X60720422Y-49243301D01*
X60731000Y-49135901D01*
X60731000Y-47035890D01*
X60734535Y-46999999D01*
X60731000Y-46964108D01*
X60731000Y-41181947D01*
X60761507Y-41212454D01*
X60848477Y-41270566D01*
X60945113Y-41310594D01*
X61047701Y-41331000D01*
X61152299Y-41331000D01*
X61254887Y-41310594D01*
X61351523Y-41270566D01*
X61438493Y-41212454D01*
X61512454Y-41138493D01*
X61570566Y-41051523D01*
X61610594Y-40954887D01*
X61631000Y-40852299D01*
X61631000Y-40747701D01*
X61610594Y-40645113D01*
X61570566Y-40548477D01*
X61512454Y-40461507D01*
X61438493Y-40387546D01*
X61431000Y-40382539D01*
X61431000Y-39648971D01*
X61476966Y-39603005D01*
X61535078Y-39516035D01*
X61575106Y-39419399D01*
X61595512Y-39316811D01*
X61595512Y-39212213D01*
X61575106Y-39109625D01*
X61558697Y-39070009D01*
X62896012Y-40407326D01*
X62896013Y-42860599D01*
X62896012Y-42860609D01*
X62896012Y-42867171D01*
X62865519Y-42887546D01*
X62791558Y-42961507D01*
X62733446Y-43048477D01*
X62693418Y-43145113D01*
X62673012Y-43247701D01*
X62673012Y-43352299D01*
X62693418Y-43454887D01*
X62733446Y-43551523D01*
X62791558Y-43638493D01*
X62865519Y-43712454D01*
X62952489Y-43770566D01*
X63049125Y-43810594D01*
X63151713Y-43831000D01*
X63256311Y-43831000D01*
X63358899Y-43810594D01*
X63455535Y-43770566D01*
X63542505Y-43712454D01*
X63616466Y-43638493D01*
X63674578Y-43551523D01*
X63714606Y-43454887D01*
X63735012Y-43352299D01*
X63735012Y-43247701D01*
X63714606Y-43145113D01*
X63674578Y-43048477D01*
X63616466Y-42961507D01*
X63542505Y-42887546D01*
X63512012Y-42867171D01*
X63512012Y-40294868D01*
X63513501Y-40279748D01*
X63512012Y-40264628D01*
X63512012Y-40264620D01*
X63507555Y-40219369D01*
X63489943Y-40161311D01*
X63461344Y-40107805D01*
X63439250Y-40080884D01*
X63432498Y-40072656D01*
X63432494Y-40072652D01*
X63422854Y-40060906D01*
X63411109Y-40051267D01*
X61502755Y-38142915D01*
X61493106Y-38131158D01*
X61446207Y-38092668D01*
X61392701Y-38064069D01*
X61334643Y-38046457D01*
X61289392Y-38042000D01*
X61289384Y-38042000D01*
X61282367Y-38041309D01*
X61262454Y-38011507D01*
X61188493Y-37937546D01*
X61101523Y-37879434D01*
X61004887Y-37839406D01*
X60902299Y-37819000D01*
X60797701Y-37819000D01*
X60695113Y-37839406D01*
X60598477Y-37879434D01*
X60511507Y-37937546D01*
X60437546Y-38011507D01*
X60379434Y-38098477D01*
X60339406Y-38195113D01*
X60319000Y-38297701D01*
X60319000Y-38402299D01*
X60339406Y-38504887D01*
X60379434Y-38601523D01*
X60437546Y-38688493D01*
X60511507Y-38762454D01*
X60598477Y-38820566D01*
X60695113Y-38860594D01*
X60713772Y-38864305D01*
X60652058Y-38926019D01*
X60593946Y-39012989D01*
X60553918Y-39109625D01*
X60540174Y-39178722D01*
X60519395Y-39153403D01*
X60491512Y-39130520D01*
X59269484Y-37908493D01*
X59246597Y-37880605D01*
X59135288Y-37789256D01*
X59008297Y-37721377D01*
X58870503Y-37679578D01*
X58763103Y-37669000D01*
X58763093Y-37669000D01*
X58727202Y-37665465D01*
X58691311Y-37669000D01*
X57302791Y-37669000D01*
X56336491Y-36702701D01*
X56744000Y-36702701D01*
X56744000Y-36807299D01*
X56764406Y-36909887D01*
X56804434Y-37006523D01*
X56862546Y-37093493D01*
X56936507Y-37167454D01*
X57023477Y-37225566D01*
X57120113Y-37265594D01*
X57222701Y-37286000D01*
X57327299Y-37286000D01*
X57429887Y-37265594D01*
X57526523Y-37225566D01*
X57613493Y-37167454D01*
X57687454Y-37093493D01*
X57745566Y-37006523D01*
X57785594Y-36909887D01*
X57806000Y-36807299D01*
X57806000Y-36702701D01*
X57785594Y-36600113D01*
X57745566Y-36503477D01*
X57687454Y-36416507D01*
X57613493Y-36342546D01*
X57592788Y-36328711D01*
X62498977Y-36328711D01*
X62498977Y-36433309D01*
X62519383Y-36535897D01*
X62559411Y-36632533D01*
X62617523Y-36719503D01*
X62691484Y-36793464D01*
X62778454Y-36851576D01*
X62875090Y-36891604D01*
X62977678Y-36912010D01*
X63082276Y-36912010D01*
X63184864Y-36891604D01*
X63281500Y-36851576D01*
X63368470Y-36793464D01*
X63442431Y-36719503D01*
X63500543Y-36632533D01*
X63540571Y-36535897D01*
X63560977Y-36433309D01*
X63560977Y-36328711D01*
X63540571Y-36226123D01*
X63500543Y-36129487D01*
X63442431Y-36042517D01*
X63368470Y-35968556D01*
X63281500Y-35910444D01*
X63184864Y-35870416D01*
X63082276Y-35850010D01*
X62977678Y-35850010D01*
X62875090Y-35870416D01*
X62778454Y-35910444D01*
X62691484Y-35968556D01*
X62617523Y-36042517D01*
X62559411Y-36129487D01*
X62519383Y-36226123D01*
X62498977Y-36328711D01*
X57592788Y-36328711D01*
X57526523Y-36284434D01*
X57429887Y-36244406D01*
X57327299Y-36224000D01*
X57222701Y-36224000D01*
X57120113Y-36244406D01*
X57023477Y-36284434D01*
X56936507Y-36342546D01*
X56862546Y-36416507D01*
X56804434Y-36503477D01*
X56764406Y-36600113D01*
X56744000Y-36702701D01*
X56336491Y-36702701D01*
X56131000Y-36497211D01*
X56131000Y-35432701D01*
X56744000Y-35432701D01*
X56744000Y-35537299D01*
X56764406Y-35639887D01*
X56804434Y-35736523D01*
X56862546Y-35823493D01*
X56936507Y-35897454D01*
X57023477Y-35955566D01*
X57120113Y-35995594D01*
X57222701Y-36016000D01*
X57327299Y-36016000D01*
X57429887Y-35995594D01*
X57526523Y-35955566D01*
X57613493Y-35897454D01*
X57687454Y-35823493D01*
X57745566Y-35736523D01*
X57785594Y-35639887D01*
X57806000Y-35537299D01*
X57806000Y-35432701D01*
X57785594Y-35330113D01*
X57745566Y-35233477D01*
X57687454Y-35146507D01*
X57613493Y-35072546D01*
X57569060Y-35042856D01*
X60889634Y-35042856D01*
X60889634Y-35147454D01*
X60910040Y-35250042D01*
X60950068Y-35346678D01*
X61008180Y-35433648D01*
X61082141Y-35507609D01*
X61169111Y-35565721D01*
X61265747Y-35605749D01*
X61368335Y-35626155D01*
X61472933Y-35626155D01*
X61575521Y-35605749D01*
X61672157Y-35565721D01*
X61759127Y-35507609D01*
X61833088Y-35433648D01*
X61891200Y-35346678D01*
X61931228Y-35250042D01*
X61951634Y-35147454D01*
X61951634Y-35042856D01*
X61931228Y-34940268D01*
X61891200Y-34843632D01*
X61833088Y-34756662D01*
X61759127Y-34682701D01*
X61672157Y-34624589D01*
X61575521Y-34584561D01*
X61472933Y-34564155D01*
X61368335Y-34564155D01*
X61265747Y-34584561D01*
X61169111Y-34624589D01*
X61082141Y-34682701D01*
X61008180Y-34756662D01*
X60950068Y-34843632D01*
X60910040Y-34940268D01*
X60889634Y-35042856D01*
X57569060Y-35042856D01*
X57526523Y-35014434D01*
X57429887Y-34974406D01*
X57327299Y-34954000D01*
X57222701Y-34954000D01*
X57120113Y-34974406D01*
X57023477Y-35014434D01*
X56936507Y-35072546D01*
X56862546Y-35146507D01*
X56804434Y-35233477D01*
X56764406Y-35330113D01*
X56744000Y-35432701D01*
X56131000Y-35432701D01*
X56131000Y-34535891D01*
X56134535Y-34500000D01*
X56131000Y-34464109D01*
X56131000Y-34464099D01*
X56120422Y-34356699D01*
X56078623Y-34218905D01*
X56062588Y-34188906D01*
X56010744Y-34091913D01*
X55994978Y-34072701D01*
X62438000Y-34072701D01*
X62438000Y-34177299D01*
X62458406Y-34279887D01*
X62498434Y-34376523D01*
X62556546Y-34463493D01*
X62630507Y-34537454D01*
X62717477Y-34595566D01*
X62814113Y-34635594D01*
X62916701Y-34656000D01*
X63021299Y-34656000D01*
X63123887Y-34635594D01*
X63220523Y-34595566D01*
X63307493Y-34537454D01*
X63381454Y-34463493D01*
X63439566Y-34376523D01*
X63479594Y-34279887D01*
X63500000Y-34177299D01*
X63500000Y-34072701D01*
X63479594Y-33970113D01*
X63439566Y-33873477D01*
X63381454Y-33786507D01*
X63307493Y-33712546D01*
X63220523Y-33654434D01*
X63123887Y-33614406D01*
X63021299Y-33594000D01*
X62916701Y-33594000D01*
X62814113Y-33614406D01*
X62717477Y-33654434D01*
X62630507Y-33712546D01*
X62556546Y-33786507D01*
X62498434Y-33873477D01*
X62458406Y-33970113D01*
X62438000Y-34072701D01*
X55994978Y-34072701D01*
X55942281Y-34008490D01*
X55942273Y-34008482D01*
X55919395Y-33980605D01*
X55891517Y-33957726D01*
X55442284Y-33508495D01*
X55442280Y-33508490D01*
X54791509Y-32857720D01*
X54708086Y-32789256D01*
X54581094Y-32721377D01*
X54443300Y-32679579D01*
X54300000Y-32665465D01*
X54156700Y-32679579D01*
X54018906Y-32721377D01*
X53891914Y-32789256D01*
X53780605Y-32880605D01*
X53689256Y-32991914D01*
X53621377Y-33118906D01*
X53579579Y-33256700D01*
X53565465Y-33400000D01*
X53579579Y-33543300D01*
X53621377Y-33681094D01*
X53689256Y-33808086D01*
X53757720Y-33891509D01*
X54408490Y-34542280D01*
X54408495Y-34542284D01*
X54669001Y-34802791D01*
X54669000Y-36764109D01*
X54665465Y-36800000D01*
X54669000Y-36835891D01*
X54669000Y-36835900D01*
X54679578Y-36943300D01*
X54714111Y-37057140D01*
X54721377Y-37081094D01*
X54789256Y-37208086D01*
X54853199Y-37286000D01*
X54880605Y-37319394D01*
X54908489Y-37342278D01*
X56457726Y-38891517D01*
X56480605Y-38919395D01*
X56508482Y-38942273D01*
X56508490Y-38942281D01*
X56591914Y-39010744D01*
X56718905Y-39078623D01*
X56856699Y-39120422D01*
X56964099Y-39131000D01*
X56964109Y-39131000D01*
X57000000Y-39134535D01*
X57035891Y-39131000D01*
X58424413Y-39131000D01*
X58586296Y-39292883D01*
X57325000Y-39292883D01*
X57279716Y-39297343D01*
X57236173Y-39310552D01*
X57196043Y-39332002D01*
X57160868Y-39360868D01*
X57132002Y-39396043D01*
X57110552Y-39436173D01*
X57097343Y-39479716D01*
X57092883Y-39525000D01*
X57092883Y-40875000D01*
X57097343Y-40920284D01*
X57110552Y-40963827D01*
X57132002Y-41003957D01*
X57160868Y-41039132D01*
X57196043Y-41067998D01*
X57236173Y-41089448D01*
X57279716Y-41102657D01*
X57325000Y-41107117D01*
X58675000Y-41107117D01*
X58720284Y-41102657D01*
X58763827Y-41089448D01*
X58803957Y-41067998D01*
X58839132Y-41039132D01*
X58867998Y-41003957D01*
X58889448Y-40963827D01*
X58902657Y-40920284D01*
X58907117Y-40875000D01*
X58907117Y-39613705D01*
X59269001Y-39975589D01*
X59269000Y-46169000D01*
X45285890Y-46169000D01*
X45249999Y-46165465D01*
X45214108Y-46169000D01*
X45214099Y-46169000D01*
X45106699Y-46179578D01*
X44968905Y-46221377D01*
X44931241Y-46241509D01*
X44841913Y-46289256D01*
X44776830Y-46342669D01*
X44730605Y-46380605D01*
X44707722Y-46408488D01*
X41708489Y-49407722D01*
X41680606Y-49430605D01*
X41657723Y-49458488D01*
X41657720Y-49458491D01*
X41589256Y-49541914D01*
X41521377Y-49668906D01*
X41504621Y-49724145D01*
X41479579Y-49806699D01*
X41479451Y-49808000D01*
X41465465Y-49950000D01*
X41469001Y-49985901D01*
X41469001Y-51629000D01*
X40992790Y-51629000D01*
X34811000Y-45447211D01*
X34811000Y-44224099D01*
X34800747Y-44120000D01*
X34811000Y-44015901D01*
X34811000Y-43144099D01*
X34800422Y-43036699D01*
X34758623Y-42898905D01*
X34690744Y-42771914D01*
X34599394Y-42660605D01*
X34488085Y-42569256D01*
X34361094Y-42501377D01*
X34223300Y-42459578D01*
X34080000Y-42445464D01*
X33936699Y-42459578D01*
X33798905Y-42501377D01*
X33671914Y-42569256D01*
X33560605Y-42660606D01*
X33469256Y-42771915D01*
X33401377Y-42898906D01*
X33359578Y-43036700D01*
X33349000Y-43144100D01*
X33349000Y-44015901D01*
X33359253Y-44120005D01*
X33349001Y-44224099D01*
X33349000Y-45714109D01*
X33345465Y-45750000D01*
X33349000Y-45785891D01*
X33349000Y-45785900D01*
X33359578Y-45893300D01*
X33401377Y-46031094D01*
X33469256Y-46158086D01*
X33521198Y-46221377D01*
X33560605Y-46269394D01*
X33588489Y-46292278D01*
X40147722Y-52851512D01*
X40170605Y-52879395D01*
X40198488Y-52902278D01*
X40198491Y-52902281D01*
X40263410Y-52955558D01*
X40281914Y-52970744D01*
X40408905Y-53038623D01*
X40546699Y-53080422D01*
X40654099Y-53091000D01*
X40654109Y-53091000D01*
X40690000Y-53094535D01*
X40725891Y-53091000D01*
X41469000Y-53091000D01*
X41469000Y-54464098D01*
X41465464Y-54500000D01*
X41469001Y-54535911D01*
X41469000Y-58735900D01*
X41479578Y-58843300D01*
X41521377Y-58981094D01*
X41589256Y-59108085D01*
X41680605Y-59219394D01*
X41791914Y-59310744D01*
X41918905Y-59378623D01*
X42056699Y-59420422D01*
X42200000Y-59434536D01*
X42343300Y-59420422D01*
X42481094Y-59378623D01*
X42608085Y-59310744D01*
X42719394Y-59219395D01*
X42810744Y-59108086D01*
X42878623Y-58981095D01*
X42920422Y-58843301D01*
X42931000Y-58735901D01*
X42931000Y-57047701D01*
X45269000Y-57047701D01*
X45269000Y-57152299D01*
X45289406Y-57254887D01*
X45329434Y-57351523D01*
X45387546Y-57438493D01*
X45461507Y-57512454D01*
X45548477Y-57570566D01*
X45645113Y-57610594D01*
X45747701Y-57631000D01*
X45852299Y-57631000D01*
X45954887Y-57610594D01*
X46051523Y-57570566D01*
X46138493Y-57512454D01*
X46212454Y-57438493D01*
X46270566Y-57351523D01*
X46310594Y-57254887D01*
X46331000Y-57152299D01*
X46331000Y-57047701D01*
X46310594Y-56945113D01*
X46270566Y-56848477D01*
X46212454Y-56761507D01*
X46138493Y-56687546D01*
X46051523Y-56629434D01*
X45954887Y-56589406D01*
X45852299Y-56569000D01*
X45747701Y-56569000D01*
X45645113Y-56589406D01*
X45548477Y-56629434D01*
X45461507Y-56687546D01*
X45387546Y-56761507D01*
X45329434Y-56848477D01*
X45289406Y-56945113D01*
X45269000Y-57047701D01*
X42931000Y-57047701D01*
X42931000Y-55847701D01*
X44369000Y-55847701D01*
X44369000Y-55952299D01*
X44389406Y-56054887D01*
X44429434Y-56151523D01*
X44487546Y-56238493D01*
X44561507Y-56312454D01*
X44648477Y-56370566D01*
X44745113Y-56410594D01*
X44847701Y-56431000D01*
X44952299Y-56431000D01*
X45054887Y-56410594D01*
X45151523Y-56370566D01*
X45238493Y-56312454D01*
X45312454Y-56238493D01*
X45370566Y-56151523D01*
X45410594Y-56054887D01*
X45431000Y-55952299D01*
X45431000Y-55847701D01*
X45410594Y-55745113D01*
X45370566Y-55648477D01*
X45312454Y-55561507D01*
X45238493Y-55487546D01*
X45151523Y-55429434D01*
X45054887Y-55389406D01*
X44952299Y-55369000D01*
X44847701Y-55369000D01*
X44745113Y-55389406D01*
X44648477Y-55429434D01*
X44561507Y-55487546D01*
X44487546Y-55561507D01*
X44429434Y-55648477D01*
X44389406Y-55745113D01*
X44369000Y-55847701D01*
X42931000Y-55847701D01*
X42931000Y-55231000D01*
X45197211Y-55231000D01*
X50857241Y-60891031D01*
X50857246Y-60891035D01*
X51808491Y-61842281D01*
X51891914Y-61910744D01*
X52018905Y-61978623D01*
X52156699Y-62020421D01*
X52300000Y-62034535D01*
X52443301Y-62020421D01*
X52581094Y-61978623D01*
X52708086Y-61910744D01*
X52819395Y-61819395D01*
X52910744Y-61708086D01*
X52978623Y-61581094D01*
X53020421Y-61443301D01*
X53034535Y-61300000D01*
X53020421Y-61156699D01*
X52978623Y-61018905D01*
X52910744Y-60891914D01*
X52842281Y-60808491D01*
X51891035Y-59857246D01*
X51891031Y-59857241D01*
X47484474Y-55450685D01*
X47557016Y-55489459D01*
X47774169Y-55555332D01*
X47943405Y-55572000D01*
X48056595Y-55572000D01*
X48225831Y-55555332D01*
X48442984Y-55489459D01*
X48643114Y-55382488D01*
X48818528Y-55238528D01*
X48962488Y-55063114D01*
X49069459Y-54862984D01*
X49128535Y-54668237D01*
X49158916Y-54768388D01*
X49243044Y-54925782D01*
X49356262Y-55063738D01*
X49494218Y-55176956D01*
X49651612Y-55261084D01*
X49822393Y-55312890D01*
X49955499Y-55326000D01*
X50044501Y-55326000D01*
X50177607Y-55312890D01*
X50348388Y-55261084D01*
X50505782Y-55176956D01*
X50643738Y-55063738D01*
X50756956Y-54925782D01*
X50841084Y-54768388D01*
X50892890Y-54597607D01*
X50910383Y-54420000D01*
X51089617Y-54420000D01*
X51107110Y-54597607D01*
X51158916Y-54768388D01*
X51243044Y-54925782D01*
X51356262Y-55063738D01*
X51494218Y-55176956D01*
X51651612Y-55261084D01*
X51822393Y-55312890D01*
X51955499Y-55326000D01*
X52044501Y-55326000D01*
X52177607Y-55312890D01*
X52348388Y-55261084D01*
X52505782Y-55176956D01*
X52643738Y-55063738D01*
X52756956Y-54925782D01*
X52841084Y-54768388D01*
X52892890Y-54597607D01*
X52910383Y-54420000D01*
X53089617Y-54420000D01*
X53107110Y-54597607D01*
X53158916Y-54768388D01*
X53243044Y-54925782D01*
X53356262Y-55063738D01*
X53494218Y-55176956D01*
X53651612Y-55261084D01*
X53822393Y-55312890D01*
X53955499Y-55326000D01*
X54044501Y-55326000D01*
X54177607Y-55312890D01*
X54348388Y-55261084D01*
X54505782Y-55176956D01*
X54643738Y-55063738D01*
X54756956Y-54925782D01*
X54841084Y-54768388D01*
X54892890Y-54597607D01*
X54910383Y-54420000D01*
X54892890Y-54242393D01*
X54841084Y-54071612D01*
X54756956Y-53914218D01*
X54643738Y-53776262D01*
X54505782Y-53663044D01*
X54348388Y-53578916D01*
X54177607Y-53527110D01*
X54044501Y-53514000D01*
X53955499Y-53514000D01*
X53822393Y-53527110D01*
X53651612Y-53578916D01*
X53494218Y-53663044D01*
X53356262Y-53776262D01*
X53243044Y-53914218D01*
X53158916Y-54071612D01*
X53107110Y-54242393D01*
X53089617Y-54420000D01*
X52910383Y-54420000D01*
X52892890Y-54242393D01*
X52841084Y-54071612D01*
X52756956Y-53914218D01*
X52643738Y-53776262D01*
X52505782Y-53663044D01*
X52348388Y-53578916D01*
X52177607Y-53527110D01*
X52044501Y-53514000D01*
X51955499Y-53514000D01*
X51822393Y-53527110D01*
X51651612Y-53578916D01*
X51494218Y-53663044D01*
X51356262Y-53776262D01*
X51243044Y-53914218D01*
X51158916Y-54071612D01*
X51107110Y-54242393D01*
X51089617Y-54420000D01*
X50910383Y-54420000D01*
X50892890Y-54242393D01*
X50841084Y-54071612D01*
X50756956Y-53914218D01*
X50643738Y-53776262D01*
X50505782Y-53663044D01*
X50348388Y-53578916D01*
X50177607Y-53527110D01*
X50044501Y-53514000D01*
X49955499Y-53514000D01*
X49822393Y-53527110D01*
X49651612Y-53578916D01*
X49494218Y-53663044D01*
X49356262Y-53776262D01*
X49243044Y-53914218D01*
X49158916Y-54071612D01*
X49128535Y-54171763D01*
X49069459Y-53977016D01*
X48962488Y-53776886D01*
X48818528Y-53601472D01*
X48643114Y-53457512D01*
X48442984Y-53350541D01*
X48225831Y-53284668D01*
X48056595Y-53268000D01*
X47943405Y-53268000D01*
X47774169Y-53284668D01*
X47557016Y-53350541D01*
X47356886Y-53457512D01*
X47181472Y-53601472D01*
X47037512Y-53776886D01*
X46930541Y-53977016D01*
X46864668Y-54194169D01*
X46842426Y-54420000D01*
X46864668Y-54645831D01*
X46930541Y-54862984D01*
X46969315Y-54935526D01*
X46042283Y-54008494D01*
X46019395Y-53980605D01*
X45908086Y-53889256D01*
X45781095Y-53821377D01*
X45643301Y-53779578D01*
X45535901Y-53769000D01*
X45535891Y-53769000D01*
X45500000Y-53765465D01*
X45464109Y-53769000D01*
X42931000Y-53769000D01*
X42931000Y-51767701D01*
X44159000Y-51767701D01*
X44159000Y-51872299D01*
X44179406Y-51974887D01*
X44219434Y-52071523D01*
X44277546Y-52158493D01*
X44351507Y-52232454D01*
X44438477Y-52290566D01*
X44535113Y-52330594D01*
X44637701Y-52351000D01*
X44742299Y-52351000D01*
X44844887Y-52330594D01*
X44941523Y-52290566D01*
X45028493Y-52232454D01*
X45102454Y-52158493D01*
X45160566Y-52071523D01*
X45200594Y-51974887D01*
X45221000Y-51872299D01*
X45221000Y-51767701D01*
X45200594Y-51665113D01*
X45160566Y-51568477D01*
X45102454Y-51481507D01*
X45028493Y-51407546D01*
X44941523Y-51349434D01*
X44844887Y-51309406D01*
X44742299Y-51289000D01*
X44637701Y-51289000D01*
X44535113Y-51309406D01*
X44438477Y-51349434D01*
X44351507Y-51407546D01*
X44277546Y-51481507D01*
X44219434Y-51568477D01*
X44179406Y-51665113D01*
X44159000Y-51767701D01*
X42931000Y-51767701D01*
X42931000Y-51247701D01*
X48069000Y-51247701D01*
X48069000Y-51352299D01*
X48089406Y-51454887D01*
X48129434Y-51551523D01*
X48187546Y-51638493D01*
X48261507Y-51712454D01*
X48348477Y-51770566D01*
X48445113Y-51810594D01*
X48547701Y-51831000D01*
X48652299Y-51831000D01*
X48754887Y-51810594D01*
X48851523Y-51770566D01*
X48938493Y-51712454D01*
X49012454Y-51638493D01*
X49070566Y-51551523D01*
X49110594Y-51454887D01*
X49131000Y-51352299D01*
X49131000Y-51247701D01*
X49110594Y-51145113D01*
X49070566Y-51048477D01*
X49012454Y-50961507D01*
X48938493Y-50887546D01*
X48851523Y-50829434D01*
X48754887Y-50789406D01*
X48652299Y-50769000D01*
X48547701Y-50769000D01*
X48445113Y-50789406D01*
X48348477Y-50829434D01*
X48261507Y-50887546D01*
X48187546Y-50961507D01*
X48129434Y-51048477D01*
X48089406Y-51145113D01*
X48069000Y-51247701D01*
X42931000Y-51247701D01*
X42931000Y-50252789D01*
X45552790Y-47631000D01*
X59269001Y-47631000D01*
X59269000Y-49135900D01*
X59279578Y-49243300D01*
X59321377Y-49381094D01*
X59389256Y-49508085D01*
X59401505Y-49523010D01*
X57408588Y-49523010D01*
X57323845Y-49438268D01*
X57331000Y-49402299D01*
X57331000Y-49297701D01*
X57310594Y-49195113D01*
X57270566Y-49098477D01*
X57212454Y-49011507D01*
X57138493Y-48937546D01*
X57051523Y-48879434D01*
X56954887Y-48839406D01*
X56852299Y-48819000D01*
X56747701Y-48819000D01*
X56645113Y-48839406D01*
X56548477Y-48879434D01*
X56461507Y-48937546D01*
X56387546Y-49011507D01*
X56329434Y-49098477D01*
X56289406Y-49195113D01*
X56269000Y-49297701D01*
X56269000Y-49402299D01*
X56289406Y-49504887D01*
X56329434Y-49601523D01*
X56387546Y-49688493D01*
X56461507Y-49762454D01*
X56548477Y-49820566D01*
X56645113Y-49860594D01*
X56747701Y-49881000D01*
X56852299Y-49881000D01*
X56888268Y-49873845D01*
X57052528Y-50038106D01*
X57062168Y-50049852D01*
X57073914Y-50059492D01*
X57073918Y-50059496D01*
X57084812Y-50068436D01*
X57109067Y-50088342D01*
X57162573Y-50116941D01*
X57220630Y-50134553D01*
X57225885Y-50135070D01*
X57265882Y-50139010D01*
X57265890Y-50139010D01*
X57281010Y-50140499D01*
X57296130Y-50139010D01*
X61325414Y-50139010D01*
X59672423Y-51792001D01*
X59630884Y-51792001D01*
X59678452Y-51744433D01*
X59736564Y-51657463D01*
X59776592Y-51560827D01*
X59796998Y-51458239D01*
X59796998Y-51353641D01*
X59776592Y-51251053D01*
X59736564Y-51154417D01*
X59678452Y-51067447D01*
X59604491Y-50993486D01*
X59517521Y-50935374D01*
X59420885Y-50895346D01*
X59318297Y-50874940D01*
X59213699Y-50874940D01*
X59111111Y-50895346D01*
X59014475Y-50935374D01*
X58927505Y-50993486D01*
X58853544Y-51067447D01*
X58795432Y-51154417D01*
X58755404Y-51251053D01*
X58734998Y-51353641D01*
X58734998Y-51458239D01*
X58755404Y-51560827D01*
X58795432Y-51657463D01*
X58853544Y-51744433D01*
X58927505Y-51818394D01*
X59014475Y-51876506D01*
X59029233Y-51882619D01*
X58995113Y-51889406D01*
X58898477Y-51929434D01*
X58811507Y-51987546D01*
X58737546Y-52061507D01*
X58679434Y-52148477D01*
X58639406Y-52245113D01*
X58619000Y-52347701D01*
X58619000Y-52452299D01*
X58639406Y-52554887D01*
X58679434Y-52651523D01*
X58706480Y-52692000D01*
X57435119Y-52692000D01*
X57419999Y-52690511D01*
X57404879Y-52692000D01*
X57404872Y-52692000D01*
X57365375Y-52695890D01*
X57359620Y-52696457D01*
X57316661Y-52709489D01*
X57301563Y-52714069D01*
X57248057Y-52742668D01*
X57201158Y-52781158D01*
X57191514Y-52792909D01*
X56385611Y-53598812D01*
X56348388Y-53578916D01*
X56177607Y-53527110D01*
X56044501Y-53514000D01*
X55955499Y-53514000D01*
X55822393Y-53527110D01*
X55651612Y-53578916D01*
X55494218Y-53663044D01*
X55356262Y-53776262D01*
X55243044Y-53914218D01*
X55158916Y-54071612D01*
X55107110Y-54242393D01*
X55089617Y-54420000D01*
X55107110Y-54597607D01*
X55158916Y-54768388D01*
X55243044Y-54925782D01*
X55356262Y-55063738D01*
X55494218Y-55176956D01*
X55651612Y-55261084D01*
X55822393Y-55312890D01*
X55955499Y-55326000D01*
X56044501Y-55326000D01*
X56177607Y-55312890D01*
X56348388Y-55261084D01*
X56505782Y-55176956D01*
X56643738Y-55063738D01*
X56756956Y-54925782D01*
X56841084Y-54768388D01*
X56892890Y-54597607D01*
X56910383Y-54420000D01*
X56892890Y-54242393D01*
X56841084Y-54071612D01*
X56821188Y-54034389D01*
X57092883Y-53762694D01*
X57092883Y-55095000D01*
X57097343Y-55140284D01*
X57110552Y-55183827D01*
X57132002Y-55223957D01*
X57160868Y-55259132D01*
X57196043Y-55287998D01*
X57236173Y-55309448D01*
X57279716Y-55322657D01*
X57325000Y-55327117D01*
X58675000Y-55327117D01*
X58720284Y-55322657D01*
X58763827Y-55309448D01*
X58803957Y-55287998D01*
X58839132Y-55259132D01*
X58867998Y-55223957D01*
X58889448Y-55183827D01*
X58902657Y-55140284D01*
X58907117Y-55095000D01*
X58907117Y-53745000D01*
X58902657Y-53699716D01*
X58889448Y-53656173D01*
X58867998Y-53616043D01*
X58839132Y-53580868D01*
X58803957Y-53552002D01*
X58763827Y-53530552D01*
X58720284Y-53517343D01*
X58675000Y-53512883D01*
X57342694Y-53512883D01*
X57547577Y-53308000D01*
X59143228Y-53308000D01*
X59140511Y-53335590D01*
X59142001Y-53350720D01*
X59142001Y-53417171D01*
X59111507Y-53437546D01*
X59037546Y-53511507D01*
X58979434Y-53598477D01*
X58939406Y-53695113D01*
X58919000Y-53797701D01*
X58919000Y-53902299D01*
X58939406Y-54004887D01*
X58979434Y-54101523D01*
X59037546Y-54188493D01*
X59111507Y-54262454D01*
X59198477Y-54320566D01*
X59295113Y-54360594D01*
X59397701Y-54381000D01*
X59502299Y-54381000D01*
X59604887Y-54360594D01*
X59701523Y-54320566D01*
X59788493Y-54262454D01*
X59862454Y-54188493D01*
X59876150Y-54167996D01*
X59944901Y-54213934D01*
X60041537Y-54253962D01*
X60144125Y-54274368D01*
X60248723Y-54274368D01*
X60351311Y-54253962D01*
X60447947Y-54213934D01*
X60534917Y-54155822D01*
X60608878Y-54081861D01*
X60666990Y-53994891D01*
X60707018Y-53898255D01*
X60727424Y-53795667D01*
X60727424Y-53691069D01*
X60707018Y-53588481D01*
X60666990Y-53491845D01*
X60608878Y-53404875D01*
X60534917Y-53330914D01*
X60504424Y-53310539D01*
X60504424Y-53295270D01*
X61418970Y-52380725D01*
X61414511Y-52426000D01*
X61416001Y-52441130D01*
X61416000Y-61948422D01*
X61288268Y-62076155D01*
X61252299Y-62069000D01*
X61147701Y-62069000D01*
X61045113Y-62089406D01*
X60948477Y-62129434D01*
X60861507Y-62187546D01*
X60787546Y-62261507D01*
X60729434Y-62348477D01*
X60689406Y-62445113D01*
X60669000Y-62547701D01*
X60669000Y-62652299D01*
X60689406Y-62754887D01*
X60729434Y-62851523D01*
X60787546Y-62938493D01*
X60861507Y-63012454D01*
X60948477Y-63070566D01*
X61041294Y-63109012D01*
X61006210Y-63144096D01*
X60970240Y-63136941D01*
X60865642Y-63136941D01*
X60763054Y-63157347D01*
X60666418Y-63197375D01*
X60579448Y-63255487D01*
X60505487Y-63329448D01*
X60447375Y-63416418D01*
X60407347Y-63513054D01*
X60386941Y-63615642D01*
X60386941Y-63720240D01*
X60407347Y-63822828D01*
X60447375Y-63919464D01*
X60505487Y-64006434D01*
X60579448Y-64080395D01*
X60666418Y-64138507D01*
X60763054Y-64178535D01*
X60865642Y-64198941D01*
X60970240Y-64198941D01*
X61072828Y-64178535D01*
X61169464Y-64138507D01*
X61256434Y-64080395D01*
X61330395Y-64006434D01*
X61388507Y-63919464D01*
X61428535Y-63822828D01*
X61448941Y-63720240D01*
X61448941Y-63615642D01*
X61441786Y-63579672D01*
X61835618Y-63185841D01*
X61839406Y-63204887D01*
X61879434Y-63301523D01*
X61937546Y-63388493D01*
X62011507Y-63462454D01*
X62098477Y-63520566D01*
X62195113Y-63560594D01*
X62297701Y-63581000D01*
X62402299Y-63581000D01*
X62504887Y-63560594D01*
X62601523Y-63520566D01*
X62688493Y-63462454D01*
X62762454Y-63388493D01*
X62820566Y-63301523D01*
X62860594Y-63204887D01*
X62881000Y-63102299D01*
X62881000Y-62997701D01*
X62860594Y-62895113D01*
X62820566Y-62798477D01*
X62794000Y-62758719D01*
X62794000Y-60551576D01*
X63565106Y-59780472D01*
X63576852Y-59770832D01*
X63586492Y-59759086D01*
X63586495Y-59759083D01*
X63615341Y-59723934D01*
X63643941Y-59670427D01*
X63661553Y-59612370D01*
X63662120Y-59606615D01*
X63666010Y-59567118D01*
X63666010Y-59567111D01*
X63667499Y-59551991D01*
X63666010Y-59536871D01*
X63666010Y-58167701D01*
X66429000Y-58167701D01*
X66429000Y-58272299D01*
X66449406Y-58374887D01*
X66489434Y-58471523D01*
X66547546Y-58558493D01*
X66621507Y-58632454D01*
X66708477Y-58690566D01*
X66805113Y-58730594D01*
X66907701Y-58751000D01*
X67012299Y-58751000D01*
X67114887Y-58730594D01*
X67211523Y-58690566D01*
X67298493Y-58632454D01*
X67372454Y-58558493D01*
X67430566Y-58471523D01*
X67470594Y-58374887D01*
X67491000Y-58272299D01*
X67491000Y-58167701D01*
X67470594Y-58065113D01*
X67430566Y-57968477D01*
X67372454Y-57881507D01*
X67298493Y-57807546D01*
X67211523Y-57749434D01*
X67114887Y-57709406D01*
X67012299Y-57689000D01*
X66907701Y-57689000D01*
X66805113Y-57709406D01*
X66708477Y-57749434D01*
X66621507Y-57807546D01*
X66547546Y-57881507D01*
X66489434Y-57968477D01*
X66449406Y-58065113D01*
X66429000Y-58167701D01*
X63666010Y-58167701D01*
X63666010Y-56585000D01*
X76092882Y-56585000D01*
X76097342Y-56630284D01*
X76110551Y-56673828D01*
X76132001Y-56713958D01*
X76160868Y-56749132D01*
X76196042Y-56777999D01*
X76236172Y-56799449D01*
X76279716Y-56812658D01*
X76325000Y-56817118D01*
X76869250Y-56816000D01*
X76927000Y-56758250D01*
X76927000Y-55983000D01*
X77073000Y-55983000D01*
X77073000Y-56758250D01*
X77130750Y-56816000D01*
X77675000Y-56817118D01*
X77720284Y-56812658D01*
X77763828Y-56799449D01*
X77803958Y-56777999D01*
X77839132Y-56749132D01*
X77867999Y-56713958D01*
X77889449Y-56673828D01*
X77902658Y-56630284D01*
X77907118Y-56585000D01*
X77906000Y-56040750D01*
X77848250Y-55983000D01*
X77073000Y-55983000D01*
X76927000Y-55983000D01*
X76151750Y-55983000D01*
X76094000Y-56040750D01*
X76092882Y-56585000D01*
X63666010Y-56585000D01*
X63666010Y-55235000D01*
X76092882Y-55235000D01*
X76094000Y-55779250D01*
X76151750Y-55837000D01*
X76927000Y-55837000D01*
X76927000Y-55061750D01*
X77073000Y-55061750D01*
X77073000Y-55837000D01*
X77848250Y-55837000D01*
X77906000Y-55779250D01*
X77907118Y-55235000D01*
X77902658Y-55189716D01*
X77889449Y-55146172D01*
X77867999Y-55106042D01*
X77839132Y-55070868D01*
X77803958Y-55042001D01*
X77763828Y-55020551D01*
X77720284Y-55007342D01*
X77675000Y-55002882D01*
X77130750Y-55004000D01*
X77073000Y-55061750D01*
X76927000Y-55061750D01*
X76869250Y-55004000D01*
X76325000Y-55002882D01*
X76279716Y-55007342D01*
X76236172Y-55020551D01*
X76196042Y-55042001D01*
X76160868Y-55070868D01*
X76132001Y-55106042D01*
X76110551Y-55146172D01*
X76097342Y-55189716D01*
X76092882Y-55235000D01*
X63666010Y-55235000D01*
X63666010Y-54447701D01*
X71669000Y-54447701D01*
X71669000Y-54552299D01*
X71689406Y-54654887D01*
X71729434Y-54751523D01*
X71787546Y-54838493D01*
X71861507Y-54912454D01*
X71948477Y-54970566D01*
X72045113Y-55010594D01*
X72147701Y-55031000D01*
X72252299Y-55031000D01*
X72354887Y-55010594D01*
X72451523Y-54970566D01*
X72538493Y-54912454D01*
X72612454Y-54838493D01*
X72670566Y-54751523D01*
X72710594Y-54654887D01*
X72731000Y-54552299D01*
X72731000Y-54447701D01*
X72710594Y-54345113D01*
X72670566Y-54248477D01*
X72612454Y-54161507D01*
X72574317Y-54123370D01*
X76119484Y-54123370D01*
X76149331Y-54221778D01*
X76226501Y-54381745D01*
X76333397Y-54523583D01*
X76465910Y-54641841D01*
X76618948Y-54731975D01*
X76786629Y-54790521D01*
X76927000Y-54755309D01*
X76927000Y-53983000D01*
X77073000Y-53983000D01*
X77073000Y-54755309D01*
X77213371Y-54790521D01*
X77381052Y-54731975D01*
X77534090Y-54641841D01*
X77666603Y-54523583D01*
X77773499Y-54381745D01*
X77850669Y-54221778D01*
X77880516Y-54123370D01*
X77845103Y-53983000D01*
X77073000Y-53983000D01*
X76927000Y-53983000D01*
X76154897Y-53983000D01*
X76119484Y-54123370D01*
X72574317Y-54123370D01*
X72538493Y-54087546D01*
X72451523Y-54029434D01*
X72354887Y-53989406D01*
X72252299Y-53969000D01*
X72147701Y-53969000D01*
X72045113Y-53989406D01*
X71948477Y-54029434D01*
X71861507Y-54087546D01*
X71787546Y-54161507D01*
X71729434Y-54248477D01*
X71689406Y-54345113D01*
X71669000Y-54447701D01*
X63666010Y-54447701D01*
X63666010Y-53297701D01*
X66519000Y-53297701D01*
X66519000Y-53402299D01*
X66539406Y-53504887D01*
X66579434Y-53601523D01*
X66637546Y-53688493D01*
X66711507Y-53762454D01*
X66798477Y-53820566D01*
X66895113Y-53860594D01*
X66997701Y-53881000D01*
X67102299Y-53881000D01*
X67204887Y-53860594D01*
X67301523Y-53820566D01*
X67388493Y-53762454D01*
X67454317Y-53696630D01*
X76119484Y-53696630D01*
X76154897Y-53837000D01*
X76927000Y-53837000D01*
X76927000Y-53064691D01*
X77073000Y-53064691D01*
X77073000Y-53837000D01*
X77845103Y-53837000D01*
X77880516Y-53696630D01*
X77850669Y-53598222D01*
X77773499Y-53438255D01*
X77666603Y-53296417D01*
X77534090Y-53178159D01*
X77381052Y-53088025D01*
X77213371Y-53029479D01*
X77073000Y-53064691D01*
X76927000Y-53064691D01*
X76786629Y-53029479D01*
X76618948Y-53088025D01*
X76465910Y-53178159D01*
X76333397Y-53296417D01*
X76226501Y-53438255D01*
X76149331Y-53598222D01*
X76119484Y-53696630D01*
X67454317Y-53696630D01*
X67462454Y-53688493D01*
X67520566Y-53601523D01*
X67560594Y-53504887D01*
X67581000Y-53402299D01*
X67581000Y-53297701D01*
X67560594Y-53195113D01*
X67520566Y-53098477D01*
X67462454Y-53011507D01*
X67388493Y-52937546D01*
X67301523Y-52879434D01*
X67204887Y-52839406D01*
X67102299Y-52819000D01*
X66997701Y-52819000D01*
X66895113Y-52839406D01*
X66798477Y-52879434D01*
X66711507Y-52937546D01*
X66637546Y-53011507D01*
X66579434Y-53098477D01*
X66539406Y-53195113D01*
X66519000Y-53297701D01*
X63666010Y-53297701D01*
X63666010Y-52964698D01*
X65028007Y-51602701D01*
X70924000Y-51602701D01*
X70924000Y-51707299D01*
X70944406Y-51809887D01*
X70984434Y-51906523D01*
X71042546Y-51993493D01*
X71116507Y-52067454D01*
X71203477Y-52125566D01*
X71300113Y-52165594D01*
X71402701Y-52186000D01*
X71507299Y-52186000D01*
X71609887Y-52165594D01*
X71686883Y-52133701D01*
X73919000Y-52133701D01*
X73919000Y-52238299D01*
X73939406Y-52340887D01*
X73979434Y-52437523D01*
X74037546Y-52524493D01*
X74111507Y-52598454D01*
X74198477Y-52656566D01*
X74295113Y-52696594D01*
X74397701Y-52717000D01*
X74502299Y-52717000D01*
X74604887Y-52696594D01*
X74701523Y-52656566D01*
X74788493Y-52598454D01*
X74862454Y-52524493D01*
X74920566Y-52437523D01*
X74960594Y-52340887D01*
X74981000Y-52238299D01*
X74981000Y-52133701D01*
X74978946Y-52123370D01*
X76119484Y-52123370D01*
X76149331Y-52221778D01*
X76226501Y-52381745D01*
X76333397Y-52523583D01*
X76465910Y-52641841D01*
X76618948Y-52731975D01*
X76786629Y-52790521D01*
X76927000Y-52755309D01*
X76927000Y-51983000D01*
X77073000Y-51983000D01*
X77073000Y-52755309D01*
X77213371Y-52790521D01*
X77381052Y-52731975D01*
X77534090Y-52641841D01*
X77666603Y-52523583D01*
X77773499Y-52381745D01*
X77850669Y-52221778D01*
X77880516Y-52123370D01*
X77845103Y-51983000D01*
X77073000Y-51983000D01*
X76927000Y-51983000D01*
X76154897Y-51983000D01*
X76119484Y-52123370D01*
X74978946Y-52123370D01*
X74960594Y-52031113D01*
X74920566Y-51934477D01*
X74862454Y-51847507D01*
X74788493Y-51773546D01*
X74701523Y-51715434D01*
X74656127Y-51696630D01*
X76119484Y-51696630D01*
X76154897Y-51837000D01*
X76927000Y-51837000D01*
X76927000Y-51064691D01*
X77073000Y-51064691D01*
X77073000Y-51837000D01*
X77845103Y-51837000D01*
X77880516Y-51696630D01*
X77850669Y-51598222D01*
X77773499Y-51438255D01*
X77666603Y-51296417D01*
X77534090Y-51178159D01*
X77381052Y-51088025D01*
X77213371Y-51029479D01*
X77073000Y-51064691D01*
X76927000Y-51064691D01*
X76786629Y-51029479D01*
X76618948Y-51088025D01*
X76465910Y-51178159D01*
X76333397Y-51296417D01*
X76226501Y-51438255D01*
X76149331Y-51598222D01*
X76119484Y-51696630D01*
X74656127Y-51696630D01*
X74604887Y-51675406D01*
X74502299Y-51655000D01*
X74397701Y-51655000D01*
X74295113Y-51675406D01*
X74198477Y-51715434D01*
X74111507Y-51773546D01*
X74037546Y-51847507D01*
X73979434Y-51934477D01*
X73939406Y-52031113D01*
X73919000Y-52133701D01*
X71686883Y-52133701D01*
X71706523Y-52125566D01*
X71793493Y-52067454D01*
X71867454Y-51993493D01*
X71925566Y-51906523D01*
X71965594Y-51809887D01*
X71986000Y-51707299D01*
X71986000Y-51602701D01*
X71965594Y-51500113D01*
X71925566Y-51403477D01*
X71867454Y-51316507D01*
X71793493Y-51242546D01*
X71706523Y-51184434D01*
X71609887Y-51144406D01*
X71507299Y-51124000D01*
X71402701Y-51124000D01*
X71300113Y-51144406D01*
X71203477Y-51184434D01*
X71116507Y-51242546D01*
X71042546Y-51316507D01*
X70984434Y-51403477D01*
X70944406Y-51500113D01*
X70924000Y-51602701D01*
X65028007Y-51602701D01*
X66546502Y-50084207D01*
X66535186Y-50141098D01*
X66535186Y-50245696D01*
X66555592Y-50348284D01*
X66595620Y-50444920D01*
X66653732Y-50531890D01*
X66727693Y-50605851D01*
X66814663Y-50663963D01*
X66911299Y-50703991D01*
X67013887Y-50724397D01*
X67118485Y-50724397D01*
X67221073Y-50703991D01*
X67317709Y-50663963D01*
X67404679Y-50605851D01*
X67478640Y-50531890D01*
X67499015Y-50501397D01*
X67523463Y-50501397D01*
X67538583Y-50502886D01*
X67553703Y-50501397D01*
X67553711Y-50501397D01*
X67598962Y-50496940D01*
X67657020Y-50479328D01*
X67710526Y-50450729D01*
X67757425Y-50412239D01*
X67767074Y-50400482D01*
X68046220Y-50121337D01*
X68079434Y-50201523D01*
X68137546Y-50288493D01*
X68211507Y-50362454D01*
X68298477Y-50420566D01*
X68395113Y-50460594D01*
X68497701Y-50481000D01*
X68602299Y-50481000D01*
X68704887Y-50460594D01*
X68801523Y-50420566D01*
X68888493Y-50362454D01*
X68962454Y-50288493D01*
X69020566Y-50201523D01*
X69060594Y-50104887D01*
X69081000Y-50002299D01*
X69081000Y-49897701D01*
X69073845Y-49861731D01*
X69127577Y-49808000D01*
X69405725Y-49808000D01*
X69361507Y-49837546D01*
X69287546Y-49911507D01*
X69229434Y-49998477D01*
X69189406Y-50095113D01*
X69169000Y-50197701D01*
X69169000Y-50302299D01*
X69189406Y-50404887D01*
X69229434Y-50501523D01*
X69287546Y-50588493D01*
X69361507Y-50662454D01*
X69448477Y-50720566D01*
X69545113Y-50760594D01*
X69647701Y-50781000D01*
X69752299Y-50781000D01*
X69854887Y-50760594D01*
X69951523Y-50720566D01*
X70038493Y-50662454D01*
X70112454Y-50588493D01*
X70170566Y-50501523D01*
X70210594Y-50404887D01*
X70231000Y-50302299D01*
X70231000Y-50237760D01*
X70480122Y-50486883D01*
X70489762Y-50498629D01*
X70501508Y-50508269D01*
X70501511Y-50508272D01*
X70518167Y-50521941D01*
X70536661Y-50537119D01*
X70580861Y-50560744D01*
X70590167Y-50565718D01*
X70648224Y-50583330D01*
X70653979Y-50583897D01*
X70693476Y-50587787D01*
X70693483Y-50587787D01*
X70708603Y-50589276D01*
X70723723Y-50587787D01*
X76476276Y-50587787D01*
X76491396Y-50589276D01*
X76506516Y-50587787D01*
X76506524Y-50587787D01*
X76551775Y-50583330D01*
X76609833Y-50565718D01*
X76663339Y-50537119D01*
X76710238Y-50498629D01*
X76719887Y-50486872D01*
X77699667Y-49507092D01*
X79773116Y-47433645D01*
X79784862Y-47424005D01*
X79794502Y-47412259D01*
X79794506Y-47412255D01*
X79798001Y-47407997D01*
X79798001Y-66798000D01*
X20202000Y-66798000D01*
X20202000Y-60201409D01*
X26441828Y-60201409D01*
X26531633Y-60338958D01*
X26713646Y-60429050D01*
X26909738Y-60481902D01*
X27112373Y-60495483D01*
X27313763Y-60469271D01*
X27506170Y-60404273D01*
X27628367Y-60338958D01*
X27718172Y-60201409D01*
X27080000Y-59563238D01*
X26441828Y-60201409D01*
X20202000Y-60201409D01*
X20202000Y-59492373D01*
X26044517Y-59492373D01*
X26070729Y-59693763D01*
X26135727Y-59886170D01*
X26201042Y-60008367D01*
X26338591Y-60098172D01*
X26976762Y-59460000D01*
X27183238Y-59460000D01*
X27821409Y-60098172D01*
X27958958Y-60008367D01*
X28049050Y-59826354D01*
X28101902Y-59630262D01*
X28115483Y-59427627D01*
X28089271Y-59226237D01*
X28024273Y-59033830D01*
X27958958Y-58911633D01*
X27821409Y-58821828D01*
X27183238Y-59460000D01*
X26976762Y-59460000D01*
X26338591Y-58821828D01*
X26201042Y-58911633D01*
X26110950Y-59093646D01*
X26058098Y-59289738D01*
X26044517Y-59492373D01*
X20202000Y-59492373D01*
X20202000Y-58718591D01*
X26441828Y-58718591D01*
X27080000Y-59356762D01*
X27718172Y-58718591D01*
X27679919Y-58660000D01*
X29600693Y-58660000D01*
X29600693Y-60260000D01*
X29609903Y-60353508D01*
X29637178Y-60443423D01*
X29681471Y-60526289D01*
X29741079Y-60598921D01*
X29813711Y-60658529D01*
X29896577Y-60702822D01*
X29986492Y-60730097D01*
X30080000Y-60739307D01*
X31680000Y-60739307D01*
X31773508Y-60730097D01*
X31863423Y-60702822D01*
X31946289Y-60658529D01*
X32018921Y-60598921D01*
X32078529Y-60526289D01*
X32122822Y-60443423D01*
X32150097Y-60353508D01*
X32159307Y-60260000D01*
X32159307Y-60147701D01*
X43039000Y-60147701D01*
X43039000Y-60252299D01*
X43059406Y-60354887D01*
X43099434Y-60451523D01*
X43157546Y-60538493D01*
X43231507Y-60612454D01*
X43318477Y-60670566D01*
X43415113Y-60710594D01*
X43517701Y-60731000D01*
X43622299Y-60731000D01*
X43724887Y-60710594D01*
X43821523Y-60670566D01*
X43908493Y-60612454D01*
X43982454Y-60538493D01*
X44040566Y-60451523D01*
X44080594Y-60354887D01*
X44101000Y-60252299D01*
X44101000Y-60147701D01*
X44080594Y-60045113D01*
X44040566Y-59948477D01*
X43982454Y-59861507D01*
X43908493Y-59787546D01*
X43821523Y-59729434D01*
X43724887Y-59689406D01*
X43622299Y-59669000D01*
X43517701Y-59669000D01*
X43415113Y-59689406D01*
X43318477Y-59729434D01*
X43231507Y-59787546D01*
X43157546Y-59861507D01*
X43099434Y-59948477D01*
X43059406Y-60045113D01*
X43039000Y-60147701D01*
X32159307Y-60147701D01*
X32159307Y-58660000D01*
X32150097Y-58566492D01*
X32122822Y-58476577D01*
X32078529Y-58393711D01*
X32018921Y-58321079D01*
X31946289Y-58261471D01*
X31863423Y-58217178D01*
X31773508Y-58189903D01*
X31680000Y-58180693D01*
X30080000Y-58180693D01*
X29986492Y-58189903D01*
X29896577Y-58217178D01*
X29813711Y-58261471D01*
X29741079Y-58321079D01*
X29681471Y-58393711D01*
X29637178Y-58476577D01*
X29609903Y-58566492D01*
X29600693Y-58660000D01*
X27679919Y-58660000D01*
X27628367Y-58581042D01*
X27446354Y-58490950D01*
X27250262Y-58438098D01*
X27047627Y-58424517D01*
X26846237Y-58450729D01*
X26653830Y-58515727D01*
X26531633Y-58581042D01*
X26441828Y-58718591D01*
X20202000Y-58718591D01*
X20202000Y-57547701D01*
X37244000Y-57547701D01*
X37244000Y-57652299D01*
X37264406Y-57754887D01*
X37304434Y-57851523D01*
X37362546Y-57938493D01*
X37436507Y-58012454D01*
X37523477Y-58070566D01*
X37620113Y-58110594D01*
X37722701Y-58131000D01*
X37827299Y-58131000D01*
X37929887Y-58110594D01*
X38026523Y-58070566D01*
X38113493Y-58012454D01*
X38187454Y-57938493D01*
X38245566Y-57851523D01*
X38285594Y-57754887D01*
X38306000Y-57652299D01*
X38306000Y-57547701D01*
X38285594Y-57445113D01*
X38245566Y-57348477D01*
X38187454Y-57261507D01*
X38113493Y-57187546D01*
X38026523Y-57129434D01*
X37929887Y-57089406D01*
X37827299Y-57069000D01*
X37722701Y-57069000D01*
X37620113Y-57089406D01*
X37523477Y-57129434D01*
X37436507Y-57187546D01*
X37362546Y-57261507D01*
X37304434Y-57348477D01*
X37264406Y-57445113D01*
X37244000Y-57547701D01*
X20202000Y-57547701D01*
X20202000Y-55910000D01*
X22592426Y-55910000D01*
X22614668Y-56135831D01*
X22680541Y-56352984D01*
X22787512Y-56553114D01*
X22931472Y-56728528D01*
X23106886Y-56872488D01*
X23307016Y-56979459D01*
X23524169Y-57045332D01*
X23693405Y-57062000D01*
X23806595Y-57062000D01*
X23975831Y-57045332D01*
X24192984Y-56979459D01*
X24393114Y-56872488D01*
X24568528Y-56728528D01*
X24712488Y-56553114D01*
X24819459Y-56352984D01*
X24885332Y-56135831D01*
X24907574Y-55910000D01*
X24885332Y-55684169D01*
X24819459Y-55467016D01*
X24712488Y-55266886D01*
X24568528Y-55091472D01*
X24393114Y-54947512D01*
X24192984Y-54840541D01*
X23993459Y-54780016D01*
X24131052Y-54731975D01*
X24284090Y-54641841D01*
X24416603Y-54523583D01*
X24523499Y-54381745D01*
X24600669Y-54221778D01*
X24630516Y-54123370D01*
X24595103Y-53983000D01*
X23823000Y-53983000D01*
X23823000Y-54003000D01*
X23677000Y-54003000D01*
X23677000Y-53983000D01*
X22904897Y-53983000D01*
X22869484Y-54123370D01*
X22899331Y-54221778D01*
X22976501Y-54381745D01*
X23083397Y-54523583D01*
X23215910Y-54641841D01*
X23368948Y-54731975D01*
X23506541Y-54780016D01*
X23307016Y-54840541D01*
X23106886Y-54947512D01*
X22931472Y-55091472D01*
X22787512Y-55266886D01*
X22680541Y-55467016D01*
X22614668Y-55684169D01*
X22592426Y-55910000D01*
X20202000Y-55910000D01*
X20202000Y-53696630D01*
X22869484Y-53696630D01*
X22904897Y-53837000D01*
X23677000Y-53837000D01*
X23677000Y-53064691D01*
X23823000Y-53064691D01*
X23823000Y-53837000D01*
X24595103Y-53837000D01*
X24630516Y-53696630D01*
X24600669Y-53598222D01*
X24523499Y-53438255D01*
X24416603Y-53296417D01*
X24284090Y-53178159D01*
X24131052Y-53088025D01*
X23963371Y-53029479D01*
X23823000Y-53064691D01*
X23677000Y-53064691D01*
X23536629Y-53029479D01*
X23368948Y-53088025D01*
X23215910Y-53178159D01*
X23083397Y-53296417D01*
X22976501Y-53438255D01*
X22899331Y-53598222D01*
X22869484Y-53696630D01*
X20202000Y-53696630D01*
X20202000Y-51235000D01*
X22842883Y-51235000D01*
X22842883Y-52585000D01*
X22847343Y-52630284D01*
X22860552Y-52673827D01*
X22882002Y-52713957D01*
X22910868Y-52749132D01*
X22946043Y-52777998D01*
X22986173Y-52799448D01*
X23029716Y-52812657D01*
X23075000Y-52817117D01*
X24425000Y-52817117D01*
X24470284Y-52812657D01*
X24513827Y-52799448D01*
X24553957Y-52777998D01*
X24589132Y-52749132D01*
X24617998Y-52713957D01*
X24639448Y-52673827D01*
X24652657Y-52630284D01*
X24657117Y-52585000D01*
X24657117Y-51235000D01*
X24652657Y-51189716D01*
X24639448Y-51146173D01*
X24617998Y-51106043D01*
X24589132Y-51070868D01*
X24553957Y-51042002D01*
X24513827Y-51020552D01*
X24470284Y-51007343D01*
X24425000Y-51002883D01*
X23075000Y-51002883D01*
X23029716Y-51007343D01*
X22986173Y-51020552D01*
X22946043Y-51042002D01*
X22910868Y-51070868D01*
X22882002Y-51106043D01*
X22860552Y-51146173D01*
X22847343Y-51189716D01*
X22842883Y-51235000D01*
X20202000Y-51235000D01*
X20202000Y-45000000D01*
X21577716Y-45000000D01*
X21662150Y-45884236D01*
X21912401Y-46736513D01*
X22319425Y-47526027D01*
X22868509Y-48224245D01*
X23539809Y-48805930D01*
X24309063Y-49250059D01*
X25148467Y-49540580D01*
X26027684Y-49666992D01*
X26914935Y-49624727D01*
X27778154Y-49415312D01*
X28586142Y-49046317D01*
X29309695Y-48531077D01*
X29922663Y-47888214D01*
X30402892Y-47140964D01*
X30733024Y-46316335D01*
X30901128Y-45444129D01*
X30901128Y-44555871D01*
X30733024Y-43683665D01*
X30402892Y-42859036D01*
X29922663Y-42111786D01*
X29309695Y-41468923D01*
X28586142Y-40953683D01*
X27778154Y-40584688D01*
X26914935Y-40375273D01*
X26027684Y-40333008D01*
X25148467Y-40459420D01*
X24309063Y-40749941D01*
X23539809Y-41194070D01*
X22868509Y-41775755D01*
X22319425Y-42473973D01*
X21912401Y-43263487D01*
X21662150Y-44115764D01*
X21577716Y-45000000D01*
X20202000Y-45000000D01*
X20202000Y-32623711D01*
X35002989Y-32623711D01*
X35002989Y-32728309D01*
X35023395Y-32830897D01*
X35063423Y-32927533D01*
X35121535Y-33014503D01*
X35195496Y-33088464D01*
X35282466Y-33146576D01*
X35379102Y-33186604D01*
X35481690Y-33207010D01*
X35586288Y-33207010D01*
X35688876Y-33186604D01*
X35785512Y-33146576D01*
X35872482Y-33088464D01*
X35895936Y-33065010D01*
X37480214Y-33065010D01*
X37480214Y-33169608D01*
X37500620Y-33272196D01*
X37540648Y-33368832D01*
X37598760Y-33455802D01*
X37672721Y-33529763D01*
X37759691Y-33587875D01*
X37856327Y-33627903D01*
X37958915Y-33648309D01*
X38063513Y-33648309D01*
X38166101Y-33627903D01*
X38262737Y-33587875D01*
X38349707Y-33529763D01*
X38423668Y-33455802D01*
X38481780Y-33368832D01*
X38521808Y-33272196D01*
X38542214Y-33169608D01*
X38542214Y-33065010D01*
X38521808Y-32962422D01*
X38481780Y-32865786D01*
X38423668Y-32778816D01*
X38349707Y-32704855D01*
X38262737Y-32646743D01*
X38166101Y-32606715D01*
X38063513Y-32586309D01*
X37958915Y-32586309D01*
X37856327Y-32606715D01*
X37759691Y-32646743D01*
X37672721Y-32704855D01*
X37598760Y-32778816D01*
X37540648Y-32865786D01*
X37500620Y-32962422D01*
X37480214Y-33065010D01*
X35895936Y-33065010D01*
X35946443Y-33014503D01*
X36004555Y-32927533D01*
X36044583Y-32830897D01*
X36064989Y-32728309D01*
X36064989Y-32623711D01*
X36044583Y-32521123D01*
X36004555Y-32424487D01*
X35946443Y-32337517D01*
X35872482Y-32263556D01*
X35785512Y-32205444D01*
X35688876Y-32165416D01*
X35586288Y-32145010D01*
X35481690Y-32145010D01*
X35379102Y-32165416D01*
X35282466Y-32205444D01*
X35195496Y-32263556D01*
X35121535Y-32337517D01*
X35063423Y-32424487D01*
X35023395Y-32521123D01*
X35002989Y-32623711D01*
X20202000Y-32623711D01*
X20202000Y-31955201D01*
X31861500Y-31955201D01*
X31861500Y-32059799D01*
X31881906Y-32162387D01*
X31921934Y-32259023D01*
X31980046Y-32345993D01*
X32054007Y-32419954D01*
X32140977Y-32478066D01*
X32237613Y-32518094D01*
X32340201Y-32538500D01*
X32444799Y-32538500D01*
X32547387Y-32518094D01*
X32644023Y-32478066D01*
X32730993Y-32419954D01*
X32804954Y-32345993D01*
X32863066Y-32259023D01*
X32903094Y-32162387D01*
X32923500Y-32059799D01*
X32923500Y-31955201D01*
X32903094Y-31852613D01*
X32863066Y-31755977D01*
X32804954Y-31669007D01*
X32730993Y-31595046D01*
X32644023Y-31536934D01*
X32547387Y-31496906D01*
X32444799Y-31476500D01*
X32340201Y-31476500D01*
X32237613Y-31496906D01*
X32140977Y-31536934D01*
X32054007Y-31595046D01*
X31980046Y-31669007D01*
X31921934Y-31755977D01*
X31881906Y-31852613D01*
X31861500Y-31955201D01*
X20202000Y-31955201D01*
X20202000Y-23202000D01*
X79798000Y-23202000D01*
X79798000Y-39392002D01*
G36*
X75344626Y-34701348D02*
G01*
X75447214Y-34721754D01*
X75551812Y-34721754D01*
X75654400Y-34701348D01*
X75722514Y-34673134D01*
X75722513Y-36915393D01*
X75721024Y-36930513D01*
X75722513Y-36945633D01*
X75722513Y-36945640D01*
X75725173Y-36972649D01*
X75726970Y-36990892D01*
X75728584Y-36996211D01*
X75744582Y-37048949D01*
X75773181Y-37102455D01*
X75811671Y-37149355D01*
X75823428Y-37159004D01*
X78642000Y-39977578D01*
X78642000Y-40296043D01*
X78592513Y-40176570D01*
X78513167Y-40057820D01*
X78412180Y-39956833D01*
X78293430Y-39877487D01*
X78161483Y-39822833D01*
X78021409Y-39794970D01*
X77878591Y-39794970D01*
X77738517Y-39822833D01*
X77606570Y-39877487D01*
X77487820Y-39956833D01*
X77386833Y-40057820D01*
X77307487Y-40176570D01*
X77252833Y-40308517D01*
X77224970Y-40448591D01*
X77224970Y-40591409D01*
X77252833Y-40731483D01*
X77307487Y-40863430D01*
X77386833Y-40982180D01*
X77487820Y-41083167D01*
X77606570Y-41162513D01*
X77738517Y-41217167D01*
X77878591Y-41245030D01*
X78021409Y-41245030D01*
X78161483Y-41217167D01*
X78293430Y-41162513D01*
X78412180Y-41083167D01*
X78513167Y-40982180D01*
X78592513Y-40863430D01*
X78642000Y-40743958D01*
X78641999Y-46822422D01*
X76108657Y-49355766D01*
X75299056Y-49355766D01*
X76063298Y-49006749D01*
X76779775Y-48496547D01*
X77386749Y-47859971D01*
X77862282Y-47120029D01*
X78189185Y-46303462D01*
X78355645Y-45439786D01*
X78355645Y-44560214D01*
X78189185Y-43696538D01*
X77862282Y-42879971D01*
X77386749Y-42140029D01*
X76779775Y-41503453D01*
X76063298Y-40993251D01*
X75263211Y-40627864D01*
X74408433Y-40420497D01*
X73529858Y-40378645D01*
X72659239Y-40503821D01*
X72151940Y-40679399D01*
X72170566Y-40651523D01*
X72210594Y-40554887D01*
X72231000Y-40452299D01*
X72231000Y-40347701D01*
X72210594Y-40245113D01*
X72170566Y-40148477D01*
X72112454Y-40061507D01*
X72038493Y-39987546D01*
X71951523Y-39929434D01*
X71854887Y-39889406D01*
X71752299Y-39869000D01*
X71647701Y-39869000D01*
X71545113Y-39889406D01*
X71448477Y-39929434D01*
X71361507Y-39987546D01*
X71287546Y-40061507D01*
X71229434Y-40148477D01*
X71189406Y-40245113D01*
X71169000Y-40347701D01*
X71169000Y-40452299D01*
X71176155Y-40488268D01*
X68449989Y-43214435D01*
X68449989Y-42758024D01*
X75175601Y-36032413D01*
X75187351Y-36022770D01*
X75225841Y-35975871D01*
X75254440Y-35922365D01*
X75266940Y-35881158D01*
X75272052Y-35864308D01*
X75274398Y-35840490D01*
X75276509Y-35819056D01*
X75276509Y-35819049D01*
X75277998Y-35803929D01*
X75276509Y-35788809D01*
X75276509Y-34673133D01*
X75344626Y-34701348D01*
X75344626Y-34701348D01*
G37*
X75344626Y-34701348D02*
X75447214Y-34721754D01*
X75551812Y-34721754D01*
X75654400Y-34701348D01*
X75722514Y-34673134D01*
X75722513Y-36915393D01*
X75721024Y-36930513D01*
X75722513Y-36945633D01*
X75722513Y-36945640D01*
X75725173Y-36972649D01*
X75726970Y-36990892D01*
X75728584Y-36996211D01*
X75744582Y-37048949D01*
X75773181Y-37102455D01*
X75811671Y-37149355D01*
X75823428Y-37159004D01*
X78642000Y-39977578D01*
X78642000Y-40296043D01*
X78592513Y-40176570D01*
X78513167Y-40057820D01*
X78412180Y-39956833D01*
X78293430Y-39877487D01*
X78161483Y-39822833D01*
X78021409Y-39794970D01*
X77878591Y-39794970D01*
X77738517Y-39822833D01*
X77606570Y-39877487D01*
X77487820Y-39956833D01*
X77386833Y-40057820D01*
X77307487Y-40176570D01*
X77252833Y-40308517D01*
X77224970Y-40448591D01*
X77224970Y-40591409D01*
X77252833Y-40731483D01*
X77307487Y-40863430D01*
X77386833Y-40982180D01*
X77487820Y-41083167D01*
X77606570Y-41162513D01*
X77738517Y-41217167D01*
X77878591Y-41245030D01*
X78021409Y-41245030D01*
X78161483Y-41217167D01*
X78293430Y-41162513D01*
X78412180Y-41083167D01*
X78513167Y-40982180D01*
X78592513Y-40863430D01*
X78642000Y-40743958D01*
X78641999Y-46822422D01*
X76108657Y-49355766D01*
X75299056Y-49355766D01*
X76063298Y-49006749D01*
X76779775Y-48496547D01*
X77386749Y-47859971D01*
X77862282Y-47120029D01*
X78189185Y-46303462D01*
X78355645Y-45439786D01*
X78355645Y-44560214D01*
X78189185Y-43696538D01*
X77862282Y-42879971D01*
X77386749Y-42140029D01*
X76779775Y-41503453D01*
X76063298Y-40993251D01*
X75263211Y-40627864D01*
X74408433Y-40420497D01*
X73529858Y-40378645D01*
X72659239Y-40503821D01*
X72151940Y-40679399D01*
X72170566Y-40651523D01*
X72210594Y-40554887D01*
X72231000Y-40452299D01*
X72231000Y-40347701D01*
X72210594Y-40245113D01*
X72170566Y-40148477D01*
X72112454Y-40061507D01*
X72038493Y-39987546D01*
X71951523Y-39929434D01*
X71854887Y-39889406D01*
X71752299Y-39869000D01*
X71647701Y-39869000D01*
X71545113Y-39889406D01*
X71448477Y-39929434D01*
X71361507Y-39987546D01*
X71287546Y-40061507D01*
X71229434Y-40148477D01*
X71189406Y-40245113D01*
X71169000Y-40347701D01*
X71169000Y-40452299D01*
X71176155Y-40488268D01*
X68449989Y-43214435D01*
X68449989Y-42758024D01*
X75175601Y-36032413D01*
X75187351Y-36022770D01*
X75225841Y-35975871D01*
X75254440Y-35922365D01*
X75266940Y-35881158D01*
X75272052Y-35864308D01*
X75274398Y-35840490D01*
X75276509Y-35819056D01*
X75276509Y-35819049D01*
X75277998Y-35803929D01*
X75276509Y-35788809D01*
X75276509Y-34673133D01*
X75344626Y-34701348D01*
G36*
X74129508Y-30560122D02*
G01*
X74129509Y-33920599D01*
X74129508Y-33920609D01*
X74129508Y-33927171D01*
X74099015Y-33947546D01*
X74025054Y-34021507D01*
X73966942Y-34108477D01*
X73926914Y-34205113D01*
X73906508Y-34307701D01*
X73906508Y-34412299D01*
X73926914Y-34514887D01*
X73966942Y-34611523D01*
X74025054Y-34698493D01*
X74099015Y-34772454D01*
X74185985Y-34830566D01*
X74282621Y-34870594D01*
X74385209Y-34891000D01*
X74489807Y-34891000D01*
X74592395Y-34870594D01*
X74660509Y-34842380D01*
X74660509Y-35676351D01*
X73322661Y-37014199D01*
X73324669Y-36993816D01*
X73324669Y-36993807D01*
X73326753Y-36972649D01*
X73324669Y-36951491D01*
X73324669Y-32217460D01*
X73332161Y-32212454D01*
X73406122Y-32138493D01*
X73464234Y-32051523D01*
X73504262Y-31954887D01*
X73524668Y-31852299D01*
X73524668Y-31747701D01*
X73504262Y-31645113D01*
X73464234Y-31548477D01*
X73406122Y-31461507D01*
X73332161Y-31387546D01*
X73324669Y-31382540D01*
X73324669Y-29755283D01*
X74129508Y-30560122D01*
X74129508Y-30560122D01*
G37*
X74129508Y-30560122D02*
X74129509Y-33920599D01*
X74129508Y-33920609D01*
X74129508Y-33927171D01*
X74099015Y-33947546D01*
X74025054Y-34021507D01*
X73966942Y-34108477D01*
X73926914Y-34205113D01*
X73906508Y-34307701D01*
X73906508Y-34412299D01*
X73926914Y-34514887D01*
X73966942Y-34611523D01*
X74025054Y-34698493D01*
X74099015Y-34772454D01*
X74185985Y-34830566D01*
X74282621Y-34870594D01*
X74385209Y-34891000D01*
X74489807Y-34891000D01*
X74592395Y-34870594D01*
X74660509Y-34842380D01*
X74660509Y-35676351D01*
X73322661Y-37014199D01*
X73324669Y-36993816D01*
X73324669Y-36993807D01*
X73326753Y-36972649D01*
X73324669Y-36951491D01*
X73324669Y-32217460D01*
X73332161Y-32212454D01*
X73406122Y-32138493D01*
X73464234Y-32051523D01*
X73504262Y-31954887D01*
X73524668Y-31852299D01*
X73524668Y-31747701D01*
X73504262Y-31645113D01*
X73464234Y-31548477D01*
X73406122Y-31461507D01*
X73332161Y-31387546D01*
X73324669Y-31382540D01*
X73324669Y-29755283D01*
X74129508Y-30560122D01*
M02*
