M48
; DRILL file {KiCad 5.1.4+dfsg1-1} date Di 17 Dez 2019 05:08:12 CET
; FORMAT={-:-/ absolute / inch / decimal}
; #@! TF.CreationDate,2019-12-17T05:08:12+01:00
; #@! TF.GenerationSoftware,Kicad,Pcbnew,5.1.4+dfsg1-1
; #@! TF.FileFunction,Plated,1,4,PTH
FMAT,2
INCH
T1C0.0118
T2C0.0315
%
G90
G05
T1
X0.8583Y-1.9094
X0.8622Y-1.1004
X0.8661Y-2.002
X0.876Y-1.3209
X0.8898Y-1.6063
X0.9291Y-1.1299
X0.9724Y-1.2283
X1.0551Y-1.0453
X1.1063Y-1.2303
X1.1831Y-1.2106
X1.2224Y-1.9528
X1.2224Y-1.9961
X1.2224Y-2.0394
X1.2224Y-2.0827
X1.2224Y-2.126
X1.2224Y-2.1693
X1.2244Y-0.9921
X1.2268Y-1.8382
X1.2276Y-1.9028
X1.228Y-1.8701
X1.2323Y-1.2992
X1.2453Y-1.7004
X1.2461Y-1.2126
X1.2657Y-1.9528
X1.2657Y-1.9961
X1.2657Y-2.0394
X1.2657Y-2.0827
X1.2657Y-2.126
X1.2657Y-2.1693
X1.2705Y-1.7173
X1.3091Y-1.9528
X1.3091Y-1.9961
X1.3091Y-2.0394
X1.3091Y-2.0827
X1.3091Y-2.126
X1.3091Y-2.1693
X1.311Y-1.2992
X1.3248Y-1.1004
X1.3524Y-1.9528
X1.3524Y-1.9961
X1.3524Y-2.0394
X1.3524Y-2.0827
X1.3524Y-2.126
X1.3524Y-2.1693
X1.3551Y-1.7421
X1.3559Y-1.6933
X1.3559Y-1.7181
X1.3573Y-2.2411
X1.3689Y-1.1437
X1.3957Y-1.9528
X1.3957Y-1.9961
X1.3957Y-2.0394
X1.3957Y-2.0827
X1.3957Y-2.126
X1.3957Y-2.1693
X1.4213Y-0.9921
X1.4252Y-1.2992
X1.4635Y-1.7848
X1.4902Y-1.8799
X1.5295Y-1.8799
X1.5354Y-2.124
X1.5354Y-2.1634
X1.5374Y-2.2008
X1.5387Y-1.2986
X1.5437Y-1.7858
X1.5496Y-1.7189
X1.5512Y-2.1437
X1.5531Y-2.1811
X1.5531Y-2.2205
X1.5697Y-1.6807
X1.5709Y-1.8799
X1.5717Y-1.7398
X1.5866Y-1.5413
X1.5984Y-1.5177
X1.6122Y-1.5413
X1.622Y-1.0433
X1.626Y-1.5177
X1.628Y-0.9961
X1.6378Y-1.5413
X1.6457Y-1.1122
X1.6476Y-2.25
X1.6535Y-1.3406
X1.6654Y-2.378
X1.6949Y-1.4508
X1.6969Y-2.1634
X1.7011Y-1.3425
X1.7402Y-2.2382
X1.7421Y-1.1476
X1.7421Y-2.4902
X1.748Y-1.5039
X1.7835Y-2.1654
X1.7874Y-2.4902
X1.7878Y-1.1598
X1.7913Y-1.6193
X1.8031Y-1.3189
X1.8087Y-1.0126
X1.8189Y-1.374
X1.8425Y-2.0945
X1.8465Y-1.374
X1.8465Y-1.5276
X1.9409Y-1.1457
X2.0296Y-2.3601
X2.0483Y-2.3788
X2.0674Y-2.3979
X2.0886Y-1.0059
X2.0965Y-2.3524
X2.1501Y-1.2897
X2.1501Y-1.3184
X2.1501Y-1.3479
X2.154Y-1.831
X2.154Y-1.8617
X2.154Y-1.8912
X2.187Y-1.2776
X2.189Y-1.3622
X2.189Y-1.3937
X2.189Y-2.5531
X2.189Y-2.5945
X2.1929Y-1.8248
X2.2165Y-2.2323
X2.2587Y-1.4353
X2.2677Y-1.5382
X2.2677Y-1.998
X2.2717Y-2.2972
X2.2776Y-2.3898
X2.3031Y-1.5118
X2.3071Y-1.4685
X2.3091Y-1.998
X2.3209Y-1.372
X2.3248Y-1.313
X2.3283Y-1.6732
X2.3287Y-1.7382
X2.334Y-1.771
X2.3386Y-2.4016
X2.3406Y-1.3445
X2.3425Y-0.9658
X2.3425Y-2.0945
X2.3493Y-2.1695
X2.3532Y-2.1356
X2.3579Y-1.0005
X2.3583Y-1.1614
X2.3661Y-1.4724
X2.3661Y-1.7106
X2.3741Y-1.7481
X2.376Y-0.9587
X2.3786Y-2.3458
X2.3827Y-1.6236
X2.3897Y-2.1117
X2.3957Y-1.5157
X2.3996Y-1.0866
X2.4043Y-1.8299
X2.4055Y-1.7047
X2.4094Y-2.1374
X2.4193Y-1.5413
X2.4213Y-1.0669
X2.4303Y-1.9795
X2.4307Y-1.9268
X2.4311Y-1.2244
X2.4382Y-1.7961
X2.4409Y-2.1358
X2.4429Y-0.998
X2.45Y-1.6882
X2.4764Y-0.998
X2.4783Y-1.565
X2.4882Y-1.6929
X2.4965Y-2.0917
X2.4976Y-1.7811
X2.498Y-1.5827
X2.5098Y-2.1516
X2.5157Y-1.1969
X2.5335Y-1.311
X2.5345Y-1.444
X2.5531Y-1.8071
X2.5542Y-1.6629
X2.5689Y-2.4154
X2.5748Y-1.8386
X2.5906Y-0.9803
X2.5945Y-1.128
X2.5965Y-1.8091
X2.6102Y-1.0728
X2.6122Y-2.4173
X2.6161Y-0.9823
X2.626Y-1.1004
X2.626Y-1.7169
X2.6339Y-1.6594
X2.6378Y-1.7441
X2.6378Y-1.8366
X2.6535Y-1.0886
X2.6535Y-1.2008
X2.6535Y-1.4311
X2.6555Y-1.8189
X2.6713Y-1.7972
X2.6772Y-1.9961
X2.6864Y-1.537
X2.6912Y-1.1069
X2.6929Y-2.1063
X2.6929Y-2.1858
X2.7008Y-1.563
X2.7165Y-1.4961
X2.7362Y-2.1083
X2.752Y-1.4646
X2.7559Y-2.2894
X2.7697Y-1.3091
X2.7756Y-2.122
X2.7785Y-1.1319
X2.7795Y-1.1654
X2.8012Y-2.122
X2.8031Y-1.189
X2.8141Y-1.4946
X2.8155Y-1.4023
X2.8189Y-1.4488
X2.8219Y-2.1644
X2.8241Y-1.21
X2.8268Y-2.122
X2.8386Y-1.1181
X2.8533Y-1.2178
X2.8533Y-1.2608
X2.8543Y-1.065
X2.8661Y-1.2913
X2.8661Y-2.0866
X2.9016Y-1.3574
X2.9016Y-1.4326
X2.9094Y-1.065
X2.9114Y-2.1122
X2.9449Y-2.0155
X2.9488Y-1.9843
X2.9567Y-1.063
X2.9862Y-2.3012
X2.9862Y-2.3386
X2.9882Y-1.1949
X2.9961Y-1.0531
X2.9961Y-1.2343
X3.0098Y-1.2815
X3.0098Y-1.5177
X3.0118Y-1.3445
X3.0167Y-1.0738
X3.0384Y-1.0955
T2
X0.935Y-2.0437
X0.935Y-2.1224
X0.935Y-2.2012
X1.8898Y-2.1425
X1.9685Y-2.1425
X2.0472Y-2.1425
X2.126Y-2.1425
X2.2047Y-2.1425
X2.2835Y-2.1425
X1.8898Y-1.0346
X1.9685Y-1.0346
X2.0472Y-1.0346
X2.126Y-1.0346
X2.2047Y-1.0346
X2.2835Y-1.0346
X3.0315Y-2.0437
X3.0315Y-2.1224
X3.0315Y-2.2012
X1.8898Y-1.5827
X1.9685Y-1.5827
X2.0472Y-1.5827
X2.126Y-1.5827
X2.2047Y-1.5827
X2.2835Y-1.5827
T0
M30
