G04 #@! TF.GenerationSoftware,KiCad,Pcbnew,5.1.4+dfsg1-1*
G04 #@! TF.CreationDate,2019-12-17T05:08:10+01:00*
G04 #@! TF.ProjectId,STM32G431,53544d33-3247-4343-9331-2e6b69636164,rev?*
G04 #@! TF.SameCoordinates,Original*
G04 #@! TF.FileFunction,Legend,Bot*
G04 #@! TF.FilePolarity,Positive*
%FSLAX46Y46*%
G04 Gerber Fmt 4.6, Leading zero omitted, Abs format (unit mm)*
G04 Created by KiCad (PCBNEW 5.1.4+dfsg1-1) date 2019-12-17 05:08:10*
%MOMM*%
%LPD*%
G04 APERTURE LIST*
%ADD10C,0.100000*%
%ADD11C,0.150000*%
%ADD12C,0.050000*%
G04 APERTURE END LIST*
D10*
X25150000Y-23478571D02*
X25150000Y-24078571D01*
X25492857Y-23478571D01*
X25492857Y-24078571D01*
X25692857Y-24078571D02*
X26035714Y-24078571D01*
X25864285Y-23478571D02*
X25864285Y-24078571D01*
X26578571Y-23535714D02*
X26550000Y-23507142D01*
X26464285Y-23478571D01*
X26407142Y-23478571D01*
X26321428Y-23507142D01*
X26264285Y-23564285D01*
X26235714Y-23621428D01*
X26207142Y-23735714D01*
X26207142Y-23821428D01*
X26235714Y-23935714D01*
X26264285Y-23992857D01*
X26321428Y-24050000D01*
X26407142Y-24078571D01*
X26464285Y-24078571D01*
X26550000Y-24050000D01*
X26578571Y-24021428D01*
X34455714Y-24020000D02*
X34398571Y-24048571D01*
X34312857Y-24048571D01*
X34227142Y-24020000D01*
X34170000Y-23962857D01*
X34141428Y-23905714D01*
X34112857Y-23791428D01*
X34112857Y-23705714D01*
X34141428Y-23591428D01*
X34170000Y-23534285D01*
X34227142Y-23477142D01*
X34312857Y-23448571D01*
X34370000Y-23448571D01*
X34455714Y-23477142D01*
X34484285Y-23505714D01*
X34484285Y-23705714D01*
X34370000Y-23705714D01*
X34741428Y-23448571D02*
X34741428Y-24048571D01*
X35084285Y-23448571D01*
X35084285Y-24048571D01*
X35370000Y-23448571D02*
X35370000Y-24048571D01*
X35512857Y-24048571D01*
X35598571Y-24020000D01*
X35655714Y-23962857D01*
X35684285Y-23905714D01*
X35712857Y-23791428D01*
X35712857Y-23705714D01*
X35684285Y-23591428D01*
X35655714Y-23534285D01*
X35598571Y-23477142D01*
X35512857Y-23448571D01*
X35370000Y-23448571D01*
X36427142Y-23448571D02*
X36427142Y-24048571D01*
X36427142Y-23762857D02*
X36770000Y-23762857D01*
X36770000Y-23448571D02*
X36770000Y-24048571D01*
X36998571Y-24048571D02*
X37370000Y-24048571D01*
X37170000Y-23820000D01*
X37255714Y-23820000D01*
X37312857Y-23791428D01*
X37341428Y-23762857D01*
X37370000Y-23705714D01*
X37370000Y-23562857D01*
X37341428Y-23505714D01*
X37312857Y-23477142D01*
X37255714Y-23448571D01*
X37084285Y-23448571D01*
X37027142Y-23477142D01*
X36998571Y-23505714D01*
X38084285Y-23448571D02*
X38084285Y-24048571D01*
X38084285Y-23762857D02*
X38427142Y-23762857D01*
X38427142Y-23448571D02*
X38427142Y-24048571D01*
X38684285Y-23991428D02*
X38712857Y-24020000D01*
X38770000Y-24048571D01*
X38912857Y-24048571D01*
X38970000Y-24020000D01*
X38998571Y-23991428D01*
X39027142Y-23934285D01*
X39027142Y-23877142D01*
X38998571Y-23791428D01*
X38655714Y-23448571D01*
X39027142Y-23448571D01*
X39741428Y-23448571D02*
X39741428Y-24048571D01*
X39741428Y-23762857D02*
X40084285Y-23762857D01*
X40084285Y-23448571D02*
X40084285Y-24048571D01*
X40684285Y-23448571D02*
X40341428Y-23448571D01*
X40512857Y-23448571D02*
X40512857Y-24048571D01*
X40455714Y-23962857D01*
X40398571Y-23905714D01*
X40341428Y-23877142D01*
X41684285Y-24048571D02*
X41398571Y-24048571D01*
X41370000Y-23762857D01*
X41398571Y-23791428D01*
X41455714Y-23820000D01*
X41598571Y-23820000D01*
X41655714Y-23791428D01*
X41684285Y-23762857D01*
X41712857Y-23705714D01*
X41712857Y-23562857D01*
X41684285Y-23505714D01*
X41655714Y-23477142D01*
X41598571Y-23448571D01*
X41455714Y-23448571D01*
X41398571Y-23477142D01*
X41370000Y-23505714D01*
X41884285Y-24048571D02*
X42084285Y-23448571D01*
X42284285Y-24048571D01*
X70932857Y-24080000D02*
X70875714Y-24108571D01*
X70790000Y-24108571D01*
X70704285Y-24080000D01*
X70647142Y-24022857D01*
X70618571Y-23965714D01*
X70590000Y-23851428D01*
X70590000Y-23765714D01*
X70618571Y-23651428D01*
X70647142Y-23594285D01*
X70704285Y-23537142D01*
X70790000Y-23508571D01*
X70847142Y-23508571D01*
X70932857Y-23537142D01*
X70961428Y-23565714D01*
X70961428Y-23765714D01*
X70847142Y-23765714D01*
X71218571Y-23508571D02*
X71218571Y-24108571D01*
X71561428Y-23508571D01*
X71561428Y-24108571D01*
X71847142Y-23508571D02*
X71847142Y-24108571D01*
X71990000Y-24108571D01*
X72075714Y-24080000D01*
X72132857Y-24022857D01*
X72161428Y-23965714D01*
X72190000Y-23851428D01*
X72190000Y-23765714D01*
X72161428Y-23651428D01*
X72132857Y-23594285D01*
X72075714Y-23537142D01*
X71990000Y-23508571D01*
X71847142Y-23508571D01*
X72875714Y-23537142D02*
X72961428Y-23508571D01*
X73104285Y-23508571D01*
X73161428Y-23537142D01*
X73190000Y-23565714D01*
X73218571Y-23622857D01*
X73218571Y-23680000D01*
X73190000Y-23737142D01*
X73161428Y-23765714D01*
X73104285Y-23794285D01*
X72990000Y-23822857D01*
X72932857Y-23851428D01*
X72904285Y-23880000D01*
X72875714Y-23937142D01*
X72875714Y-23994285D01*
X72904285Y-24051428D01*
X72932857Y-24080000D01*
X72990000Y-24108571D01*
X73132857Y-24108571D01*
X73218571Y-24080000D01*
X73475714Y-23508571D02*
X73475714Y-24108571D01*
X73818571Y-23508571D02*
X73561428Y-23851428D01*
X73818571Y-24108571D02*
X73475714Y-23765714D01*
X74332857Y-24108571D02*
X74218571Y-24108571D01*
X74161428Y-24080000D01*
X74132857Y-24051428D01*
X74075714Y-23965714D01*
X74047142Y-23851428D01*
X74047142Y-23622857D01*
X74075714Y-23565714D01*
X74104285Y-23537142D01*
X74161428Y-23508571D01*
X74275714Y-23508571D01*
X74332857Y-23537142D01*
X74361428Y-23565714D01*
X74390000Y-23622857D01*
X74390000Y-23765714D01*
X74361428Y-23822857D01*
X74332857Y-23851428D01*
X74275714Y-23880000D01*
X74161428Y-23880000D01*
X74104285Y-23851428D01*
X74075714Y-23822857D01*
X74047142Y-23765714D01*
X74732857Y-23851428D02*
X74675714Y-23880000D01*
X74647142Y-23908571D01*
X74618571Y-23965714D01*
X74618571Y-23994285D01*
X74647142Y-24051428D01*
X74675714Y-24080000D01*
X74732857Y-24108571D01*
X74847142Y-24108571D01*
X74904285Y-24080000D01*
X74932857Y-24051428D01*
X74961428Y-23994285D01*
X74961428Y-23965714D01*
X74932857Y-23908571D01*
X74904285Y-23880000D01*
X74847142Y-23851428D01*
X74732857Y-23851428D01*
X74675714Y-23822857D01*
X74647142Y-23794285D01*
X74618571Y-23737142D01*
X74618571Y-23622857D01*
X74647142Y-23565714D01*
X74675714Y-23537142D01*
X74732857Y-23508571D01*
X74847142Y-23508571D01*
X74904285Y-23537142D01*
X74932857Y-23565714D01*
X74961428Y-23622857D01*
X74961428Y-23737142D01*
X74932857Y-23794285D01*
X74904285Y-23822857D01*
X74847142Y-23851428D01*
X75532857Y-23508571D02*
X75190000Y-23508571D01*
X75361428Y-23508571D02*
X75361428Y-24108571D01*
X75304285Y-24022857D01*
X75247142Y-23965714D01*
X75190000Y-23937142D01*
X75761428Y-24051428D02*
X75790000Y-24080000D01*
X75847142Y-24108571D01*
X75990000Y-24108571D01*
X76047142Y-24080000D01*
X76075714Y-24051428D01*
X76104285Y-23994285D01*
X76104285Y-23937142D01*
X76075714Y-23851428D01*
X75732857Y-23508571D01*
X76104285Y-23508571D01*
X76818571Y-23737142D02*
X77275714Y-23737142D01*
X77047142Y-23508571D02*
X77047142Y-23965714D01*
X77847142Y-24108571D02*
X77561428Y-24108571D01*
X77532857Y-23822857D01*
X77561428Y-23851428D01*
X77618571Y-23880000D01*
X77761428Y-23880000D01*
X77818571Y-23851428D01*
X77847142Y-23822857D01*
X77875714Y-23765714D01*
X77875714Y-23622857D01*
X77847142Y-23565714D01*
X77818571Y-23537142D01*
X77761428Y-23508571D01*
X77618571Y-23508571D01*
X77561428Y-23537142D01*
X77532857Y-23565714D01*
X78047142Y-24108571D02*
X78247142Y-23508571D01*
X78447142Y-24108571D01*
X74161428Y-64931428D02*
X74361428Y-64645714D01*
X74504285Y-64931428D02*
X74504285Y-64331428D01*
X74275714Y-64331428D01*
X74218571Y-64360000D01*
X74190000Y-64388571D01*
X74161428Y-64445714D01*
X74161428Y-64531428D01*
X74190000Y-64588571D01*
X74218571Y-64617142D01*
X74275714Y-64645714D01*
X74504285Y-64645714D01*
X73961428Y-64331428D02*
X73561428Y-64931428D01*
X73561428Y-64331428D02*
X73961428Y-64931428D01*
X72504285Y-64331428D02*
X72161428Y-64331428D01*
X72332857Y-64931428D02*
X72332857Y-64331428D01*
X72018571Y-64331428D02*
X71618571Y-64931428D01*
X71618571Y-64331428D02*
X72018571Y-64931428D01*
X73761428Y-65337142D02*
X73675714Y-65365714D01*
X73647142Y-65394285D01*
X73618571Y-65451428D01*
X73618571Y-65537142D01*
X73647142Y-65594285D01*
X73675714Y-65622857D01*
X73732857Y-65651428D01*
X73961428Y-65651428D01*
X73961428Y-65051428D01*
X73761428Y-65051428D01*
X73704285Y-65080000D01*
X73675714Y-65108571D01*
X73647142Y-65165714D01*
X73647142Y-65222857D01*
X73675714Y-65280000D01*
X73704285Y-65308571D01*
X73761428Y-65337142D01*
X73961428Y-65337142D01*
X72475714Y-65480000D02*
X72190000Y-65480000D01*
X72532857Y-65651428D02*
X72332857Y-65051428D01*
X72132857Y-65651428D01*
X77400000Y-65830000D02*
X77457142Y-65801428D01*
X77542857Y-65801428D01*
X77628571Y-65830000D01*
X77685714Y-65887142D01*
X77714285Y-65944285D01*
X77742857Y-66058571D01*
X77742857Y-66144285D01*
X77714285Y-66258571D01*
X77685714Y-66315714D01*
X77628571Y-66372857D01*
X77542857Y-66401428D01*
X77485714Y-66401428D01*
X77400000Y-66372857D01*
X77371428Y-66344285D01*
X77371428Y-66144285D01*
X77485714Y-66144285D01*
X77114285Y-66401428D02*
X77114285Y-65801428D01*
X76771428Y-66401428D01*
X76771428Y-65801428D01*
X76485714Y-66401428D02*
X76485714Y-65801428D01*
X76342857Y-65801428D01*
X76257142Y-65830000D01*
X76200000Y-65887142D01*
X76171428Y-65944285D01*
X76142857Y-66058571D01*
X76142857Y-66144285D01*
X76171428Y-66258571D01*
X76200000Y-66315714D01*
X76257142Y-66372857D01*
X76342857Y-66401428D01*
X76485714Y-66401428D01*
X75085714Y-66344285D02*
X75114285Y-66372857D01*
X75200000Y-66401428D01*
X75257142Y-66401428D01*
X75342857Y-66372857D01*
X75400000Y-66315714D01*
X75428571Y-66258571D01*
X75457142Y-66144285D01*
X75457142Y-66058571D01*
X75428571Y-65944285D01*
X75400000Y-65887142D01*
X75342857Y-65830000D01*
X75257142Y-65801428D01*
X75200000Y-65801428D01*
X75114285Y-65830000D01*
X75085714Y-65858571D01*
X74857142Y-66230000D02*
X74571428Y-66230000D01*
X74914285Y-66401428D02*
X74714285Y-65801428D01*
X74514285Y-66401428D01*
X74314285Y-66401428D02*
X74314285Y-65801428D01*
X73971428Y-66401428D01*
X73971428Y-65801428D01*
X73400000Y-66401428D02*
X73685714Y-66401428D01*
X73685714Y-65801428D01*
X72400000Y-66344285D02*
X72428571Y-66372857D01*
X72514285Y-66401428D01*
X72571428Y-66401428D01*
X72657142Y-66372857D01*
X72714285Y-66315714D01*
X72742857Y-66258571D01*
X72771428Y-66144285D01*
X72771428Y-66058571D01*
X72742857Y-65944285D01*
X72714285Y-65887142D01*
X72657142Y-65830000D01*
X72571428Y-65801428D01*
X72514285Y-65801428D01*
X72428571Y-65830000D01*
X72400000Y-65858571D01*
X72171428Y-66230000D02*
X71885714Y-66230000D01*
X72228571Y-66401428D02*
X72028571Y-65801428D01*
X71828571Y-66401428D01*
X71628571Y-66401428D02*
X71628571Y-65801428D01*
X71285714Y-66401428D01*
X71285714Y-65801428D01*
X71000000Y-66401428D02*
X71000000Y-65801428D01*
X71000000Y-66087142D02*
X70657142Y-66087142D01*
X70657142Y-66401428D02*
X70657142Y-65801428D01*
X70000000Y-65801428D02*
X69800000Y-66401428D01*
X69600000Y-65801428D01*
X69057142Y-66344285D02*
X69085714Y-66372857D01*
X69171428Y-66401428D01*
X69228571Y-66401428D01*
X69314285Y-66372857D01*
X69371428Y-66315714D01*
X69400000Y-66258571D01*
X69428571Y-66144285D01*
X69428571Y-66058571D01*
X69400000Y-65944285D01*
X69371428Y-65887142D01*
X69314285Y-65830000D01*
X69228571Y-65801428D01*
X69171428Y-65801428D01*
X69085714Y-65830000D01*
X69057142Y-65858571D01*
X68457142Y-66344285D02*
X68485714Y-66372857D01*
X68571428Y-66401428D01*
X68628571Y-66401428D01*
X68714285Y-66372857D01*
X68771428Y-66315714D01*
X68800000Y-66258571D01*
X68828571Y-66144285D01*
X68828571Y-66058571D01*
X68800000Y-65944285D01*
X68771428Y-65887142D01*
X68714285Y-65830000D01*
X68628571Y-65801428D01*
X68571428Y-65801428D01*
X68485714Y-65830000D01*
X68457142Y-65858571D01*
X65762857Y-65850000D02*
X65820000Y-65821428D01*
X65905714Y-65821428D01*
X65991428Y-65850000D01*
X66048571Y-65907142D01*
X66077142Y-65964285D01*
X66105714Y-66078571D01*
X66105714Y-66164285D01*
X66077142Y-66278571D01*
X66048571Y-66335714D01*
X65991428Y-66392857D01*
X65905714Y-66421428D01*
X65848571Y-66421428D01*
X65762857Y-66392857D01*
X65734285Y-66364285D01*
X65734285Y-66164285D01*
X65848571Y-66164285D01*
X65477142Y-66421428D02*
X65477142Y-65821428D01*
X65134285Y-66421428D01*
X65134285Y-65821428D01*
X64848571Y-66421428D02*
X64848571Y-65821428D01*
X64705714Y-65821428D01*
X64620000Y-65850000D01*
X64562857Y-65907142D01*
X64534285Y-65964285D01*
X64505714Y-66078571D01*
X64505714Y-66164285D01*
X64534285Y-66278571D01*
X64562857Y-66335714D01*
X64620000Y-66392857D01*
X64705714Y-66421428D01*
X64848571Y-66421428D01*
X63820000Y-66250000D02*
X63534285Y-66250000D01*
X63877142Y-66421428D02*
X63677142Y-65821428D01*
X63477142Y-66421428D01*
X63277142Y-66421428D02*
X63277142Y-65821428D01*
X62991428Y-66421428D02*
X62991428Y-65821428D01*
X62648571Y-66421428D01*
X62648571Y-65821428D01*
X61448571Y-66421428D02*
X61448571Y-65821428D01*
X61220000Y-65821428D01*
X61162857Y-65850000D01*
X61134285Y-65878571D01*
X61105714Y-65935714D01*
X61105714Y-66021428D01*
X61134285Y-66078571D01*
X61162857Y-66107142D01*
X61220000Y-66135714D01*
X61448571Y-66135714D01*
X60905714Y-65821428D02*
X60762857Y-66421428D01*
X60648571Y-65992857D01*
X60534285Y-66421428D01*
X60391428Y-65821428D01*
X60162857Y-66421428D02*
X60162857Y-65821428D01*
X59962857Y-66250000D01*
X59762857Y-65821428D01*
X59762857Y-66421428D01*
X59077142Y-65821428D02*
X58705714Y-65821428D01*
X58905714Y-66050000D01*
X58820000Y-66050000D01*
X58762857Y-66078571D01*
X58734285Y-66107142D01*
X58705714Y-66164285D01*
X58705714Y-66307142D01*
X58734285Y-66364285D01*
X58762857Y-66392857D01*
X58820000Y-66421428D01*
X58991428Y-66421428D01*
X59048571Y-66392857D01*
X59077142Y-66364285D01*
X58448571Y-66364285D02*
X58420000Y-66392857D01*
X58448571Y-66421428D01*
X58477142Y-66392857D01*
X58448571Y-66364285D01*
X58448571Y-66421428D01*
X58220000Y-65821428D02*
X57848571Y-65821428D01*
X58048571Y-66050000D01*
X57962857Y-66050000D01*
X57905714Y-66078571D01*
X57877142Y-66107142D01*
X57848571Y-66164285D01*
X57848571Y-66307142D01*
X57877142Y-66364285D01*
X57905714Y-66392857D01*
X57962857Y-66421428D01*
X58134285Y-66421428D01*
X58191428Y-66392857D01*
X58220000Y-66364285D01*
X57677142Y-65821428D02*
X57477142Y-66421428D01*
X57277142Y-65821428D01*
D11*
X30650284Y-45000000D02*
G75*
G03X30650284Y-45000000I-4400284J0D01*
G01*
X78104595Y-45000000D02*
G75*
G03X78104595Y-45000000I-4354595J0D01*
G01*
D12*
X20000000Y-23000000D02*
X80000000Y-23000000D01*
X20000000Y-67000000D02*
X20000000Y-23000000D01*
X80000000Y-67000000D02*
X20000000Y-67000000D01*
X80000000Y-23000000D02*
X80000000Y-67000000D01*
M02*
