G04 #@! TF.GenerationSoftware,KiCad,Pcbnew,5.1.4+dfsg1-1*
G04 #@! TF.CreationDate,2019-12-21T13:49:23+01:00*
G04 #@! TF.ProjectId,STM32G431,53544d33-3247-4343-9331-2e6b69636164,rev?*
G04 #@! TF.SameCoordinates,Original*
G04 #@! TF.FileFunction,Legend,Top*
G04 #@! TF.FilePolarity,Positive*
%FSLAX46Y46*%
G04 Gerber Fmt 4.6, Leading zero omitted, Abs format (unit mm)*
G04 Created by KiCad (PCBNEW 5.1.4+dfsg1-1) date 2019-12-21 13:49:23*
%MOMM*%
%LPD*%
G04 APERTURE LIST*
%ADD10C,0.100000*%
%ADD11C,0.150000*%
%ADD12C,0.175000*%
%ADD13C,0.050000*%
%ADD14C,0.120000*%
%ADD15C,0.127000*%
G04 APERTURE END LIST*
D10*
X20816666Y-38430000D02*
X21350000Y-38430000D01*
X21083333Y-38696666D02*
X21083333Y-38163333D01*
X22050000Y-38696666D02*
X21650000Y-38696666D01*
X21850000Y-38696666D02*
X21850000Y-37996666D01*
X21783333Y-38096666D01*
X21716666Y-38163333D01*
X21650000Y-38196666D01*
X22316666Y-38063333D02*
X22350000Y-38030000D01*
X22416666Y-37996666D01*
X22583333Y-37996666D01*
X22650000Y-38030000D01*
X22683333Y-38063333D01*
X22716666Y-38130000D01*
X22716666Y-38196666D01*
X22683333Y-38296666D01*
X22283333Y-38696666D01*
X22716666Y-38696666D01*
X22916666Y-37996666D02*
X23150000Y-38696666D01*
X23383333Y-37996666D01*
X20650000Y-37030000D02*
X21183333Y-37030000D01*
X20916666Y-37296666D02*
X20916666Y-36763333D01*
X21850000Y-36596666D02*
X21516666Y-36596666D01*
X21483333Y-36930000D01*
X21516666Y-36896666D01*
X21583333Y-36863333D01*
X21750000Y-36863333D01*
X21816666Y-36896666D01*
X21850000Y-36930000D01*
X21883333Y-36996666D01*
X21883333Y-37163333D01*
X21850000Y-37230000D01*
X21816666Y-37263333D01*
X21750000Y-37296666D01*
X21583333Y-37296666D01*
X21516666Y-37263333D01*
X21483333Y-37230000D01*
X22183333Y-37230000D02*
X22216666Y-37263333D01*
X22183333Y-37296666D01*
X22150000Y-37263333D01*
X22183333Y-37230000D01*
X22183333Y-37296666D01*
X22650000Y-36596666D02*
X22716666Y-36596666D01*
X22783333Y-36630000D01*
X22816666Y-36663333D01*
X22850000Y-36730000D01*
X22883333Y-36863333D01*
X22883333Y-37030000D01*
X22850000Y-37163333D01*
X22816666Y-37230000D01*
X22783333Y-37263333D01*
X22716666Y-37296666D01*
X22650000Y-37296666D01*
X22583333Y-37263333D01*
X22550000Y-37230000D01*
X22516666Y-37163333D01*
X22483333Y-37030000D01*
X22483333Y-36863333D01*
X22516666Y-36730000D01*
X22550000Y-36663333D01*
X22583333Y-36630000D01*
X22650000Y-36596666D01*
X23083333Y-36596666D02*
X23316666Y-37296666D01*
X23550000Y-36596666D01*
X20650000Y-35630000D02*
X21183333Y-35630000D01*
X20916666Y-35896666D02*
X20916666Y-35363333D01*
X21450000Y-35196666D02*
X21883333Y-35196666D01*
X21650000Y-35463333D01*
X21750000Y-35463333D01*
X21816666Y-35496666D01*
X21850000Y-35530000D01*
X21883333Y-35596666D01*
X21883333Y-35763333D01*
X21850000Y-35830000D01*
X21816666Y-35863333D01*
X21750000Y-35896666D01*
X21550000Y-35896666D01*
X21483333Y-35863333D01*
X21450000Y-35830000D01*
X22183333Y-35830000D02*
X22216666Y-35863333D01*
X22183333Y-35896666D01*
X22150000Y-35863333D01*
X22183333Y-35830000D01*
X22183333Y-35896666D01*
X22450000Y-35196666D02*
X22883333Y-35196666D01*
X22650000Y-35463333D01*
X22750000Y-35463333D01*
X22816666Y-35496666D01*
X22850000Y-35530000D01*
X22883333Y-35596666D01*
X22883333Y-35763333D01*
X22850000Y-35830000D01*
X22816666Y-35863333D01*
X22750000Y-35896666D01*
X22550000Y-35896666D01*
X22483333Y-35863333D01*
X22450000Y-35830000D01*
X23083333Y-35196666D02*
X23316666Y-35896666D01*
X23550000Y-35196666D01*
X68361904Y-60226190D02*
X68671428Y-60226190D01*
X68504761Y-60416666D01*
X68576190Y-60416666D01*
X68623809Y-60440476D01*
X68647619Y-60464285D01*
X68671428Y-60511904D01*
X68671428Y-60630952D01*
X68647619Y-60678571D01*
X68623809Y-60702380D01*
X68576190Y-60726190D01*
X68433333Y-60726190D01*
X68385714Y-60702380D01*
X68361904Y-60678571D01*
X68885714Y-60678571D02*
X68909523Y-60702380D01*
X68885714Y-60726190D01*
X68861904Y-60702380D01*
X68885714Y-60678571D01*
X68885714Y-60726190D01*
X69076190Y-60226190D02*
X69385714Y-60226190D01*
X69219047Y-60416666D01*
X69290476Y-60416666D01*
X69338095Y-60440476D01*
X69361904Y-60464285D01*
X69385714Y-60511904D01*
X69385714Y-60630952D01*
X69361904Y-60678571D01*
X69338095Y-60702380D01*
X69290476Y-60726190D01*
X69147619Y-60726190D01*
X69100000Y-60702380D01*
X69076190Y-60678571D01*
X69528571Y-60226190D02*
X69695238Y-60726190D01*
X69861904Y-60226190D01*
X66654761Y-60226190D02*
X66416666Y-60226190D01*
X66392857Y-60464285D01*
X66416666Y-60440476D01*
X66464285Y-60416666D01*
X66583333Y-60416666D01*
X66630952Y-60440476D01*
X66654761Y-60464285D01*
X66678571Y-60511904D01*
X66678571Y-60630952D01*
X66654761Y-60678571D01*
X66630952Y-60702380D01*
X66583333Y-60726190D01*
X66464285Y-60726190D01*
X66416666Y-60702380D01*
X66392857Y-60678571D01*
X66821428Y-60226190D02*
X66988095Y-60726190D01*
X67154761Y-60226190D01*
D11*
X30650284Y-45000000D02*
G75*
G03X30650284Y-45000000I-4400284J0D01*
G01*
X78104595Y-45000000D02*
G75*
G03X78104595Y-45000000I-4354595J0D01*
G01*
D10*
X33414761Y-36591190D02*
X33414761Y-36091190D01*
X33533809Y-36091190D01*
X33605238Y-36115000D01*
X33652857Y-36162619D01*
X33676666Y-36210238D01*
X33700476Y-36305476D01*
X33700476Y-36376904D01*
X33676666Y-36472142D01*
X33652857Y-36519761D01*
X33605238Y-36567380D01*
X33533809Y-36591190D01*
X33414761Y-36591190D01*
X34105238Y-36567380D02*
X34057619Y-36591190D01*
X33962380Y-36591190D01*
X33914761Y-36567380D01*
X33890952Y-36519761D01*
X33890952Y-36329285D01*
X33914761Y-36281666D01*
X33962380Y-36257857D01*
X34057619Y-36257857D01*
X34105238Y-36281666D01*
X34129047Y-36329285D01*
X34129047Y-36376904D01*
X33890952Y-36424523D01*
X34319523Y-36567380D02*
X34367142Y-36591190D01*
X34462380Y-36591190D01*
X34510000Y-36567380D01*
X34533809Y-36519761D01*
X34533809Y-36495952D01*
X34510000Y-36448333D01*
X34462380Y-36424523D01*
X34390952Y-36424523D01*
X34343333Y-36400714D01*
X34319523Y-36353095D01*
X34319523Y-36329285D01*
X34343333Y-36281666D01*
X34390952Y-36257857D01*
X34462380Y-36257857D01*
X34510000Y-36281666D01*
X34748095Y-36591190D02*
X34748095Y-36257857D01*
X34748095Y-36091190D02*
X34724285Y-36115000D01*
X34748095Y-36138809D01*
X34771904Y-36115000D01*
X34748095Y-36091190D01*
X34748095Y-36138809D01*
X35200476Y-36257857D02*
X35200476Y-36662619D01*
X35176666Y-36710238D01*
X35152857Y-36734047D01*
X35105238Y-36757857D01*
X35033809Y-36757857D01*
X34986190Y-36734047D01*
X35200476Y-36567380D02*
X35152857Y-36591190D01*
X35057619Y-36591190D01*
X35010000Y-36567380D01*
X34986190Y-36543571D01*
X34962380Y-36495952D01*
X34962380Y-36353095D01*
X34986190Y-36305476D01*
X35010000Y-36281666D01*
X35057619Y-36257857D01*
X35152857Y-36257857D01*
X35200476Y-36281666D01*
X35438571Y-36257857D02*
X35438571Y-36591190D01*
X35438571Y-36305476D02*
X35462380Y-36281666D01*
X35510000Y-36257857D01*
X35581428Y-36257857D01*
X35629047Y-36281666D01*
X35652857Y-36329285D01*
X35652857Y-36591190D01*
X36271904Y-36591190D02*
X36271904Y-36091190D01*
X36271904Y-36281666D02*
X36319523Y-36257857D01*
X36414761Y-36257857D01*
X36462380Y-36281666D01*
X36486190Y-36305476D01*
X36510000Y-36353095D01*
X36510000Y-36495952D01*
X36486190Y-36543571D01*
X36462380Y-36567380D01*
X36414761Y-36591190D01*
X36319523Y-36591190D01*
X36271904Y-36567380D01*
X36676666Y-36257857D02*
X36795714Y-36591190D01*
X36914761Y-36257857D02*
X36795714Y-36591190D01*
X36748095Y-36710238D01*
X36724285Y-36734047D01*
X36676666Y-36757857D01*
X37105238Y-36543571D02*
X37129047Y-36567380D01*
X37105238Y-36591190D01*
X37081428Y-36567380D01*
X37105238Y-36543571D01*
X37105238Y-36591190D01*
X37105238Y-36281666D02*
X37129047Y-36305476D01*
X37105238Y-36329285D01*
X37081428Y-36305476D01*
X37105238Y-36281666D01*
X37105238Y-36329285D01*
X31736190Y-36941190D02*
X31736190Y-37298333D01*
X31712380Y-37369761D01*
X31664761Y-37417380D01*
X31593333Y-37441190D01*
X31545714Y-37441190D01*
X32188571Y-37441190D02*
X32188571Y-37179285D01*
X32164761Y-37131666D01*
X32117142Y-37107857D01*
X32021904Y-37107857D01*
X31974285Y-37131666D01*
X32188571Y-37417380D02*
X32140952Y-37441190D01*
X32021904Y-37441190D01*
X31974285Y-37417380D01*
X31950476Y-37369761D01*
X31950476Y-37322142D01*
X31974285Y-37274523D01*
X32021904Y-37250714D01*
X32140952Y-37250714D01*
X32188571Y-37226904D01*
X32426666Y-37107857D02*
X32426666Y-37441190D01*
X32426666Y-37155476D02*
X32450476Y-37131666D01*
X32498095Y-37107857D01*
X32569523Y-37107857D01*
X32617142Y-37131666D01*
X32640952Y-37179285D01*
X32640952Y-37441190D01*
X33260000Y-37441190D02*
X33260000Y-36941190D01*
X33260000Y-37179285D02*
X33545714Y-37179285D01*
X33545714Y-37441190D02*
X33545714Y-36941190D01*
X33974285Y-37417380D02*
X33926666Y-37441190D01*
X33831428Y-37441190D01*
X33783809Y-37417380D01*
X33760000Y-37369761D01*
X33760000Y-37179285D01*
X33783809Y-37131666D01*
X33831428Y-37107857D01*
X33926666Y-37107857D01*
X33974285Y-37131666D01*
X33998095Y-37179285D01*
X33998095Y-37226904D01*
X33760000Y-37274523D01*
X34212380Y-37107857D02*
X34212380Y-37441190D01*
X34212380Y-37155476D02*
X34236190Y-37131666D01*
X34283809Y-37107857D01*
X34355238Y-37107857D01*
X34402857Y-37131666D01*
X34426666Y-37179285D01*
X34426666Y-37441190D01*
X34664761Y-37441190D02*
X34664761Y-37107857D01*
X34664761Y-37203095D02*
X34688571Y-37155476D01*
X34712380Y-37131666D01*
X34760000Y-37107857D01*
X34807619Y-37107857D01*
X34974285Y-37441190D02*
X34974285Y-37107857D01*
X34974285Y-36941190D02*
X34950476Y-36965000D01*
X34974285Y-36988809D01*
X34998095Y-36965000D01*
X34974285Y-36941190D01*
X34974285Y-36988809D01*
X35212380Y-37441190D02*
X35212380Y-36941190D01*
X35260000Y-37250714D02*
X35402857Y-37441190D01*
X35402857Y-37107857D02*
X35212380Y-37298333D01*
X35998095Y-37441190D02*
X35998095Y-36941190D01*
X35998095Y-37179285D02*
X36283809Y-37179285D01*
X36283809Y-37441190D02*
X36283809Y-36941190D01*
X36712380Y-37417380D02*
X36664761Y-37441190D01*
X36569523Y-37441190D01*
X36521904Y-37417380D01*
X36498095Y-37369761D01*
X36498095Y-37179285D01*
X36521904Y-37131666D01*
X36569523Y-37107857D01*
X36664761Y-37107857D01*
X36712380Y-37131666D01*
X36736190Y-37179285D01*
X36736190Y-37226904D01*
X36498095Y-37274523D01*
X36950476Y-37441190D02*
X36950476Y-37107857D01*
X36950476Y-37155476D02*
X36974285Y-37131666D01*
X37021904Y-37107857D01*
X37093333Y-37107857D01*
X37140952Y-37131666D01*
X37164761Y-37179285D01*
X37164761Y-37441190D01*
X37164761Y-37179285D02*
X37188571Y-37131666D01*
X37236190Y-37107857D01*
X37307619Y-37107857D01*
X37355238Y-37131666D01*
X37379047Y-37179285D01*
X37379047Y-37441190D01*
X37593333Y-37417380D02*
X37640952Y-37441190D01*
X37736190Y-37441190D01*
X37783809Y-37417380D01*
X37807619Y-37369761D01*
X37807619Y-37345952D01*
X37783809Y-37298333D01*
X37736190Y-37274523D01*
X37664761Y-37274523D01*
X37617142Y-37250714D01*
X37593333Y-37203095D01*
X37593333Y-37179285D01*
X37617142Y-37131666D01*
X37664761Y-37107857D01*
X37736190Y-37107857D01*
X37783809Y-37131666D01*
X38021904Y-37441190D02*
X38021904Y-37107857D01*
X38021904Y-36941190D02*
X37998095Y-36965000D01*
X38021904Y-36988809D01*
X38045714Y-36965000D01*
X38021904Y-36941190D01*
X38021904Y-36988809D01*
X38260000Y-37107857D02*
X38260000Y-37441190D01*
X38260000Y-37155476D02*
X38283809Y-37131666D01*
X38331428Y-37107857D01*
X38402857Y-37107857D01*
X38450476Y-37131666D01*
X38474285Y-37179285D01*
X38474285Y-37441190D01*
X38926666Y-37107857D02*
X38926666Y-37512619D01*
X38902857Y-37560238D01*
X38879047Y-37584047D01*
X38831428Y-37607857D01*
X38760000Y-37607857D01*
X38712380Y-37584047D01*
X38926666Y-37417380D02*
X38879047Y-37441190D01*
X38783809Y-37441190D01*
X38736190Y-37417380D01*
X38712380Y-37393571D01*
X38688571Y-37345952D01*
X38688571Y-37203095D01*
X38712380Y-37155476D01*
X38736190Y-37131666D01*
X38783809Y-37107857D01*
X38879047Y-37107857D01*
X38926666Y-37131666D01*
X32680000Y-34660952D02*
X32680000Y-34984761D01*
X32699047Y-35022857D01*
X32718095Y-35041904D01*
X32756190Y-35060952D01*
X32832380Y-35060952D01*
X32870476Y-35041904D01*
X32889523Y-35022857D01*
X32908571Y-34984761D01*
X32908571Y-34660952D01*
X33080000Y-34946666D02*
X33270476Y-34946666D01*
X33041904Y-35060952D02*
X33175238Y-34660952D01*
X33308571Y-35060952D01*
X33670476Y-35060952D02*
X33537142Y-34870476D01*
X33441904Y-35060952D02*
X33441904Y-34660952D01*
X33594285Y-34660952D01*
X33632380Y-34680000D01*
X33651428Y-34699047D01*
X33670476Y-34737142D01*
X33670476Y-34794285D01*
X33651428Y-34832380D01*
X33632380Y-34851428D01*
X33594285Y-34870476D01*
X33441904Y-34870476D01*
X33784761Y-34660952D02*
X34013333Y-34660952D01*
X33899047Y-35060952D02*
X33899047Y-34660952D01*
X34432380Y-34641904D02*
X34089523Y-35156190D01*
X34794285Y-35022857D02*
X34775238Y-35041904D01*
X34718095Y-35060952D01*
X34680000Y-35060952D01*
X34622857Y-35041904D01*
X34584761Y-35003809D01*
X34565714Y-34965714D01*
X34546666Y-34889523D01*
X34546666Y-34832380D01*
X34565714Y-34756190D01*
X34584761Y-34718095D01*
X34622857Y-34680000D01*
X34680000Y-34660952D01*
X34718095Y-34660952D01*
X34775238Y-34680000D01*
X34794285Y-34699047D01*
X34946666Y-34946666D02*
X35137142Y-34946666D01*
X34908571Y-35060952D02*
X35041904Y-34660952D01*
X35175238Y-35060952D01*
X35308571Y-35060952D02*
X35308571Y-34660952D01*
X35537142Y-35060952D01*
X35537142Y-34660952D01*
X36013333Y-34641904D02*
X35670476Y-35156190D01*
X36375238Y-35060952D02*
X36241904Y-34870476D01*
X36146666Y-35060952D02*
X36146666Y-34660952D01*
X36299047Y-34660952D01*
X36337142Y-34680000D01*
X36356190Y-34699047D01*
X36375238Y-34737142D01*
X36375238Y-34794285D01*
X36356190Y-34832380D01*
X36337142Y-34851428D01*
X36299047Y-34870476D01*
X36146666Y-34870476D01*
X36527619Y-35041904D02*
X36584761Y-35060952D01*
X36680000Y-35060952D01*
X36718095Y-35041904D01*
X36737142Y-35022857D01*
X36756190Y-34984761D01*
X36756190Y-34946666D01*
X36737142Y-34908571D01*
X36718095Y-34889523D01*
X36680000Y-34870476D01*
X36603809Y-34851428D01*
X36565714Y-34832380D01*
X36546666Y-34813333D01*
X36527619Y-34775238D01*
X36527619Y-34737142D01*
X36546666Y-34699047D01*
X36565714Y-34680000D01*
X36603809Y-34660952D01*
X36699047Y-34660952D01*
X36756190Y-34680000D01*
X37099047Y-34794285D02*
X37099047Y-35060952D01*
X37003809Y-34641904D02*
X36908571Y-34927619D01*
X37156190Y-34927619D01*
X37365714Y-34832380D02*
X37327619Y-34813333D01*
X37308571Y-34794285D01*
X37289523Y-34756190D01*
X37289523Y-34737142D01*
X37308571Y-34699047D01*
X37327619Y-34680000D01*
X37365714Y-34660952D01*
X37441904Y-34660952D01*
X37480000Y-34680000D01*
X37499047Y-34699047D01*
X37518095Y-34737142D01*
X37518095Y-34756190D01*
X37499047Y-34794285D01*
X37480000Y-34813333D01*
X37441904Y-34832380D01*
X37365714Y-34832380D01*
X37327619Y-34851428D01*
X37308571Y-34870476D01*
X37289523Y-34908571D01*
X37289523Y-34984761D01*
X37308571Y-35022857D01*
X37327619Y-35041904D01*
X37365714Y-35060952D01*
X37441904Y-35060952D01*
X37480000Y-35041904D01*
X37499047Y-35022857D01*
X37518095Y-34984761D01*
X37518095Y-34908571D01*
X37499047Y-34870476D01*
X37480000Y-34851428D01*
X37441904Y-34832380D01*
X37880000Y-34660952D02*
X37689523Y-34660952D01*
X37670476Y-34851428D01*
X37689523Y-34832380D01*
X37727619Y-34813333D01*
X37822857Y-34813333D01*
X37860952Y-34832380D01*
X37880000Y-34851428D01*
X37899047Y-34889523D01*
X37899047Y-34984761D01*
X37880000Y-35022857D01*
X37860952Y-35041904D01*
X37822857Y-35060952D01*
X37727619Y-35060952D01*
X37689523Y-35041904D01*
X37670476Y-35022857D01*
X31775238Y-35646666D02*
X31965714Y-35646666D01*
X31737142Y-35760952D02*
X31870476Y-35360952D01*
X32003809Y-35760952D01*
X32137142Y-35760952D02*
X32137142Y-35360952D01*
X32365714Y-35760952D01*
X32365714Y-35360952D01*
X32537142Y-35646666D02*
X32727619Y-35646666D01*
X32499047Y-35760952D02*
X32632380Y-35360952D01*
X32765714Y-35760952D01*
X33089523Y-35760952D02*
X32899047Y-35760952D01*
X32899047Y-35360952D01*
X33299047Y-35360952D02*
X33375238Y-35360952D01*
X33413333Y-35380000D01*
X33451428Y-35418095D01*
X33470476Y-35494285D01*
X33470476Y-35627619D01*
X33451428Y-35703809D01*
X33413333Y-35741904D01*
X33375238Y-35760952D01*
X33299047Y-35760952D01*
X33260952Y-35741904D01*
X33222857Y-35703809D01*
X33203809Y-35627619D01*
X33203809Y-35494285D01*
X33222857Y-35418095D01*
X33260952Y-35380000D01*
X33299047Y-35360952D01*
X33851428Y-35380000D02*
X33813333Y-35360952D01*
X33756190Y-35360952D01*
X33699047Y-35380000D01*
X33660952Y-35418095D01*
X33641904Y-35456190D01*
X33622857Y-35532380D01*
X33622857Y-35589523D01*
X33641904Y-35665714D01*
X33660952Y-35703809D01*
X33699047Y-35741904D01*
X33756190Y-35760952D01*
X33794285Y-35760952D01*
X33851428Y-35741904D01*
X33870476Y-35722857D01*
X33870476Y-35589523D01*
X33794285Y-35589523D01*
X34327619Y-35341904D02*
X33984761Y-35856190D01*
X34460952Y-35760952D02*
X34460952Y-35360952D01*
X34613333Y-35360952D01*
X34651428Y-35380000D01*
X34670476Y-35399047D01*
X34689523Y-35437142D01*
X34689523Y-35494285D01*
X34670476Y-35532380D01*
X34651428Y-35551428D01*
X34613333Y-35570476D01*
X34460952Y-35570476D01*
X34822857Y-35360952D02*
X34918095Y-35760952D01*
X34994285Y-35475238D01*
X35070476Y-35760952D01*
X35165714Y-35360952D01*
X35318095Y-35760952D02*
X35318095Y-35360952D01*
X35451428Y-35646666D01*
X35584761Y-35360952D01*
X35584761Y-35760952D01*
X36060952Y-35341904D02*
X35718095Y-35856190D01*
X36194285Y-35551428D02*
X36327619Y-35551428D01*
X36384761Y-35760952D02*
X36194285Y-35760952D01*
X36194285Y-35360952D01*
X36384761Y-35360952D01*
X36556190Y-35760952D02*
X36556190Y-35360952D01*
X36784761Y-35760952D01*
X36784761Y-35360952D01*
X37203809Y-35722857D02*
X37184761Y-35741904D01*
X37127619Y-35760952D01*
X37089523Y-35760952D01*
X37032380Y-35741904D01*
X36994285Y-35703809D01*
X36975238Y-35665714D01*
X36956190Y-35589523D01*
X36956190Y-35532380D01*
X36975238Y-35456190D01*
X36994285Y-35418095D01*
X37032380Y-35380000D01*
X37089523Y-35360952D01*
X37127619Y-35360952D01*
X37184761Y-35380000D01*
X37203809Y-35399047D01*
X37451428Y-35360952D02*
X37527619Y-35360952D01*
X37565714Y-35380000D01*
X37603809Y-35418095D01*
X37622857Y-35494285D01*
X37622857Y-35627619D01*
X37603809Y-35703809D01*
X37565714Y-35741904D01*
X37527619Y-35760952D01*
X37451428Y-35760952D01*
X37413333Y-35741904D01*
X37375238Y-35703809D01*
X37356190Y-35627619D01*
X37356190Y-35494285D01*
X37375238Y-35418095D01*
X37413333Y-35380000D01*
X37451428Y-35360952D01*
X37794285Y-35760952D02*
X37794285Y-35360952D01*
X37889523Y-35360952D01*
X37946666Y-35380000D01*
X37984761Y-35418095D01*
X38003809Y-35456190D01*
X38022857Y-35532380D01*
X38022857Y-35589523D01*
X38003809Y-35665714D01*
X37984761Y-35703809D01*
X37946666Y-35741904D01*
X37889523Y-35760952D01*
X37794285Y-35760952D01*
X38194285Y-35551428D02*
X38327619Y-35551428D01*
X38384761Y-35760952D02*
X38194285Y-35760952D01*
X38194285Y-35360952D01*
X38384761Y-35360952D01*
X38784761Y-35760952D02*
X38651428Y-35570476D01*
X38556190Y-35760952D02*
X38556190Y-35360952D01*
X38708571Y-35360952D01*
X38746666Y-35380000D01*
X38765714Y-35399047D01*
X38784761Y-35437142D01*
X38784761Y-35494285D01*
X38765714Y-35532380D01*
X38746666Y-35551428D01*
X38708571Y-35570476D01*
X38556190Y-35570476D01*
D12*
X30976190Y-34135714D02*
X30938095Y-34173809D01*
X30823809Y-34211904D01*
X30747619Y-34211904D01*
X30633333Y-34173809D01*
X30557142Y-34097619D01*
X30519047Y-34021428D01*
X30480952Y-33869047D01*
X30480952Y-33754761D01*
X30519047Y-33602380D01*
X30557142Y-33526190D01*
X30633333Y-33450000D01*
X30747619Y-33411904D01*
X30823809Y-33411904D01*
X30938095Y-33450000D01*
X30976190Y-33488095D01*
X31319047Y-34211904D02*
X31319047Y-33411904D01*
X31623809Y-33411904D01*
X31700000Y-33450000D01*
X31738095Y-33488095D01*
X31776190Y-33564285D01*
X31776190Y-33678571D01*
X31738095Y-33754761D01*
X31700000Y-33792857D01*
X31623809Y-33830952D01*
X31319047Y-33830952D01*
X32119047Y-33411904D02*
X32119047Y-34059523D01*
X32157142Y-34135714D01*
X32195238Y-34173809D01*
X32271428Y-34211904D01*
X32423809Y-34211904D01*
X32500000Y-34173809D01*
X32538095Y-34135714D01*
X32576190Y-34059523D01*
X32576190Y-33411904D01*
X33528571Y-34173809D02*
X33642857Y-34211904D01*
X33833333Y-34211904D01*
X33909523Y-34173809D01*
X33947619Y-34135714D01*
X33985714Y-34059523D01*
X33985714Y-33983333D01*
X33947619Y-33907142D01*
X33909523Y-33869047D01*
X33833333Y-33830952D01*
X33680952Y-33792857D01*
X33604761Y-33754761D01*
X33566666Y-33716666D01*
X33528571Y-33640476D01*
X33528571Y-33564285D01*
X33566666Y-33488095D01*
X33604761Y-33450000D01*
X33680952Y-33411904D01*
X33871428Y-33411904D01*
X33985714Y-33450000D01*
X34214285Y-33411904D02*
X34671428Y-33411904D01*
X34442857Y-34211904D02*
X34442857Y-33411904D01*
X34938095Y-34211904D02*
X34938095Y-33411904D01*
X35204761Y-33983333D01*
X35471428Y-33411904D01*
X35471428Y-34211904D01*
X35776190Y-33411904D02*
X36271428Y-33411904D01*
X36004761Y-33716666D01*
X36119047Y-33716666D01*
X36195238Y-33754761D01*
X36233333Y-33792857D01*
X36271428Y-33869047D01*
X36271428Y-34059523D01*
X36233333Y-34135714D01*
X36195238Y-34173809D01*
X36119047Y-34211904D01*
X35890476Y-34211904D01*
X35814285Y-34173809D01*
X35776190Y-34135714D01*
X36576190Y-33488095D02*
X36614285Y-33450000D01*
X36690476Y-33411904D01*
X36880952Y-33411904D01*
X36957142Y-33450000D01*
X36995238Y-33488095D01*
X37033333Y-33564285D01*
X37033333Y-33640476D01*
X36995238Y-33754761D01*
X36538095Y-34211904D01*
X37033333Y-34211904D01*
X37795238Y-33450000D02*
X37719047Y-33411904D01*
X37604761Y-33411904D01*
X37490476Y-33450000D01*
X37414285Y-33526190D01*
X37376190Y-33602380D01*
X37338095Y-33754761D01*
X37338095Y-33869047D01*
X37376190Y-34021428D01*
X37414285Y-34097619D01*
X37490476Y-34173809D01*
X37604761Y-34211904D01*
X37680952Y-34211904D01*
X37795238Y-34173809D01*
X37833333Y-34135714D01*
X37833333Y-33869047D01*
X37680952Y-33869047D01*
X38519047Y-33678571D02*
X38519047Y-34211904D01*
X38328571Y-33373809D02*
X38138095Y-33945238D01*
X38633333Y-33945238D01*
X38861904Y-33411904D02*
X39357142Y-33411904D01*
X39090476Y-33716666D01*
X39204761Y-33716666D01*
X39280952Y-33754761D01*
X39319047Y-33792857D01*
X39357142Y-33869047D01*
X39357142Y-34059523D01*
X39319047Y-34135714D01*
X39280952Y-34173809D01*
X39204761Y-34211904D01*
X38976190Y-34211904D01*
X38900000Y-34173809D01*
X38861904Y-34135714D01*
X40119047Y-34211904D02*
X39661904Y-34211904D01*
X39890476Y-34211904D02*
X39890476Y-33411904D01*
X39814285Y-33526190D01*
X39738095Y-33602380D01*
X39661904Y-33640476D01*
D13*
X20000000Y-23000000D02*
X80000000Y-23000000D01*
X20000000Y-67000000D02*
X20000000Y-23000000D01*
X80000000Y-67000000D02*
X20000000Y-67000000D01*
X80000000Y-23000000D02*
X80000000Y-67000000D01*
D14*
X46010000Y-27962779D02*
X46010000Y-27637221D01*
X44990000Y-27962779D02*
X44990000Y-27637221D01*
X46510000Y-39192779D02*
X46510000Y-38867221D01*
X45490000Y-39192779D02*
X45490000Y-38867221D01*
X46310000Y-53262779D02*
X46310000Y-52937221D01*
X45290000Y-53262779D02*
X45290000Y-52937221D01*
X41800000Y-41227936D02*
X41800000Y-42432064D01*
X43620000Y-41227936D02*
X43620000Y-42432064D01*
X33330000Y-45997936D02*
X33330000Y-47202064D01*
X35150000Y-45997936D02*
X35150000Y-47202064D01*
X23550000Y-32700000D02*
X23550000Y-30150000D01*
X25250000Y-32700000D02*
X25250000Y-30150000D01*
X23550000Y-32700000D02*
X25250000Y-32700000D01*
X33190000Y-40710000D02*
X33190000Y-44610000D01*
X31190000Y-40710000D02*
X31190000Y-44610000D01*
X33190000Y-40710000D02*
X31190000Y-40710000D01*
X41100000Y-31382779D02*
X41100000Y-31057221D01*
X40080000Y-31382779D02*
X40080000Y-31057221D01*
X38170000Y-31377779D02*
X38170000Y-31052221D01*
X37150000Y-31377779D02*
X37150000Y-31052221D01*
X35265000Y-31382779D02*
X35265000Y-31057221D01*
X34245000Y-31382779D02*
X34245000Y-31057221D01*
X32780000Y-31057221D02*
X32780000Y-31382779D01*
X33800000Y-31057221D02*
X33800000Y-31382779D01*
X35700000Y-31049720D02*
X35700000Y-31375278D01*
X36720000Y-31049720D02*
X36720000Y-31375278D01*
X38610000Y-31054720D02*
X38610000Y-31380278D01*
X39630000Y-31054720D02*
X39630000Y-31380278D01*
X63000000Y-44620000D02*
X64200000Y-44620000D01*
X63000000Y-48620000D02*
X63000000Y-44620000D01*
X67800000Y-44620000D02*
X67800000Y-47320000D01*
X66600000Y-44620000D02*
X67800000Y-44620000D01*
X41505000Y-34130000D02*
X44055000Y-34130000D01*
X41505000Y-35830000D02*
X44055000Y-35830000D01*
X41505000Y-34130000D02*
X41505000Y-35830000D01*
X23210000Y-60127064D02*
X23210000Y-58922936D01*
X21390000Y-60127064D02*
X21390000Y-58922936D01*
X25360000Y-60127064D02*
X25360000Y-58922936D01*
X23540000Y-60127064D02*
X23540000Y-58922936D01*
X55050000Y-44790000D02*
X51600000Y-44790000D01*
X55050000Y-44790000D02*
X57000000Y-44790000D01*
X55050000Y-49910000D02*
X53100000Y-49910000D01*
X55050000Y-49910000D02*
X57000000Y-49910000D01*
X59060000Y-39140000D02*
X59060000Y-40200000D01*
X58000000Y-39140000D02*
X59060000Y-39140000D01*
X57000000Y-39140000D02*
X57000000Y-41260000D01*
X57000000Y-41260000D02*
X46940000Y-41260000D01*
X57000000Y-39140000D02*
X46940000Y-39140000D01*
X46940000Y-39140000D02*
X46940000Y-41260000D01*
X59060000Y-53360000D02*
X59060000Y-54420000D01*
X58000000Y-53360000D02*
X59060000Y-53360000D01*
X57000000Y-53360000D02*
X57000000Y-55480000D01*
X57000000Y-55480000D02*
X46940000Y-55480000D01*
X57000000Y-53360000D02*
X46940000Y-53360000D01*
X46940000Y-53360000D02*
X46940000Y-55480000D01*
X59060000Y-25220000D02*
X59060000Y-26280000D01*
X58000000Y-25220000D02*
X59060000Y-25220000D01*
X57000000Y-25220000D02*
X57000000Y-27340000D01*
X57000000Y-27340000D02*
X46940000Y-27340000D01*
X57000000Y-25220000D02*
X46940000Y-25220000D01*
X46940000Y-25220000D02*
X46940000Y-27340000D01*
X41500000Y-32250000D02*
X44050000Y-32250000D01*
X41500000Y-33950000D02*
X44050000Y-33950000D01*
X41500000Y-32250000D02*
X41500000Y-33950000D01*
X41500000Y-30349999D02*
X44050000Y-30349999D01*
X41500000Y-32049999D02*
X44050000Y-32049999D01*
X41500000Y-30349999D02*
X41500000Y-32049999D01*
X41500000Y-36050000D02*
X44050000Y-36050000D01*
X41500000Y-37750000D02*
X44050000Y-37750000D01*
X41500000Y-36050000D02*
X41500000Y-37750000D01*
X44450000Y-46200000D02*
X44450000Y-48750000D01*
X42750000Y-46200000D02*
X42750000Y-48750000D01*
X44450000Y-46200000D02*
X42750000Y-46200000D01*
X46350000Y-46200000D02*
X46350000Y-48750000D01*
X44650000Y-46200000D02*
X44650000Y-48750000D01*
X46350000Y-46200000D02*
X44650000Y-46200000D01*
X31605000Y-66350000D02*
X37905000Y-66350000D01*
X31605000Y-60150000D02*
X37905000Y-60150000D01*
X51150000Y-30500000D02*
X51150000Y-27950000D01*
X52850000Y-30500000D02*
X52850000Y-27950000D01*
X51150000Y-30500000D02*
X52850000Y-30500000D01*
X49150000Y-30500000D02*
X49150000Y-27950000D01*
X50850000Y-30500000D02*
X50850000Y-27950000D01*
X49150000Y-30500000D02*
X50850000Y-30500000D01*
X51150000Y-44400000D02*
X51150000Y-41850000D01*
X52850000Y-44400000D02*
X52850000Y-41850000D01*
X51150000Y-44400000D02*
X52850000Y-44400000D01*
X49150000Y-44400000D02*
X49150000Y-41850000D01*
X50850000Y-44400000D02*
X50850000Y-41850000D01*
X49150000Y-44400000D02*
X50850000Y-44400000D01*
X51150000Y-58600000D02*
X51150000Y-56050000D01*
X52850000Y-58600000D02*
X52850000Y-56050000D01*
X51150000Y-58600000D02*
X52850000Y-58600000D01*
X49150000Y-58600000D02*
X49150000Y-56050000D01*
X50850000Y-58600000D02*
X50850000Y-56050000D01*
X49150000Y-58600000D02*
X50850000Y-58600000D01*
X49102064Y-31390000D02*
X47897936Y-31390000D01*
X49102064Y-33210000D02*
X47897936Y-33210000D01*
X49502064Y-45290000D02*
X48297936Y-45290000D01*
X49502064Y-47110000D02*
X48297936Y-47110000D01*
X47302064Y-59490000D02*
X46097936Y-59490000D01*
X47302064Y-61310000D02*
X46097936Y-61310000D01*
X78162779Y-28490000D02*
X77837221Y-28490000D01*
X78162779Y-29510000D02*
X77837221Y-29510000D01*
X29862779Y-27840000D02*
X29537221Y-27840000D01*
X29862779Y-28860000D02*
X29537221Y-28860000D01*
X63887221Y-59810000D02*
X64212779Y-59810000D01*
X63887221Y-58790000D02*
X64212779Y-58790000D01*
X67735876Y-28530565D02*
X67400000Y-28194689D01*
X67400000Y-38405311D02*
X67735876Y-38069435D01*
X67064124Y-38069435D02*
X67400000Y-38405311D01*
X62294689Y-33300000D02*
X62630565Y-32964124D01*
X62630565Y-33635876D02*
X62294689Y-33300000D01*
X72505311Y-33300000D02*
X72169435Y-33635876D01*
X72187113Y-32946447D02*
X72522989Y-33282322D01*
X25700000Y-64000000D02*
X25700000Y-58600000D01*
X29000000Y-64000000D02*
X29000000Y-58600000D01*
X25700000Y-64000000D02*
X29000000Y-64000000D01*
X39465000Y-50572936D02*
X39465000Y-51777064D01*
X41285000Y-50572936D02*
X41285000Y-51777064D01*
X28197221Y-36090000D02*
X28522779Y-36090000D01*
X28197221Y-35070000D02*
X28522779Y-35070000D01*
X28187221Y-37500000D02*
X28512779Y-37500000D01*
X28187221Y-36480000D02*
X28512779Y-36480000D01*
X28187221Y-38890000D02*
X28512779Y-38890000D01*
X28187221Y-37870000D02*
X28512779Y-37870000D01*
X22397936Y-64260000D02*
X23602064Y-64260000D01*
X22397936Y-62440000D02*
X23602064Y-62440000D01*
X23925000Y-36315000D02*
X26210000Y-36315000D01*
X23925000Y-34845000D02*
X23925000Y-36315000D01*
X26210000Y-34845000D02*
X23925000Y-34845000D01*
X23925000Y-37715000D02*
X26210000Y-37715000D01*
X23925000Y-36245000D02*
X23925000Y-37715000D01*
X26210000Y-36245000D02*
X23925000Y-36245000D01*
X23925000Y-39115000D02*
X26210000Y-39115000D01*
X23925000Y-37645000D02*
X23925000Y-39115000D01*
X26210000Y-37645000D02*
X23925000Y-37645000D01*
X37240000Y-50572936D02*
X37240000Y-51777064D01*
X39060000Y-50572936D02*
X39060000Y-51777064D01*
X67910000Y-26162779D02*
X67910000Y-25837221D01*
X66890000Y-26162779D02*
X66890000Y-25837221D01*
X50510000Y-36262779D02*
X50510000Y-35937221D01*
X49490000Y-36262779D02*
X49490000Y-35937221D01*
X50710000Y-50262779D02*
X50710000Y-49937221D01*
X49690000Y-50262779D02*
X49690000Y-49937221D01*
X48310000Y-64462779D02*
X48310000Y-64137221D01*
X47290000Y-64462779D02*
X47290000Y-64137221D01*
X46971422Y-37110000D02*
X47488578Y-37110000D01*
X46971422Y-35690000D02*
X47488578Y-35690000D01*
X47441422Y-51210000D02*
X47958578Y-51210000D01*
X47441422Y-49790000D02*
X47958578Y-49790000D01*
X45041422Y-65510000D02*
X45558578Y-65510000D01*
X45041422Y-64090000D02*
X45558578Y-64090000D01*
X63252513Y-30680940D02*
X66080940Y-27852513D01*
X60919060Y-28347487D02*
X63252513Y-30680940D01*
X55237221Y-38660000D02*
X55562779Y-38660000D01*
X55237221Y-37640000D02*
X55562779Y-37640000D01*
X53137221Y-66710000D02*
X53462779Y-66710000D01*
X53137221Y-65690000D02*
X53462779Y-65690000D01*
X55337221Y-52610000D02*
X55662779Y-52610000D01*
X55337221Y-51590000D02*
X55662779Y-51590000D01*
X54800000Y-30890000D02*
X51350000Y-30890000D01*
X54800000Y-30890000D02*
X56750000Y-30890000D01*
X54800000Y-36010000D02*
X52850000Y-36010000D01*
X54800000Y-36010000D02*
X56750000Y-36010000D01*
X52700000Y-59040000D02*
X49250000Y-59040000D01*
X52700000Y-59040000D02*
X54650000Y-59040000D01*
X52700000Y-64160000D02*
X50750000Y-64160000D01*
X52700000Y-64160000D02*
X54650000Y-64160000D01*
X33780000Y-42140000D02*
X37780000Y-42140000D01*
X33780000Y-37940000D02*
X37780000Y-37940000D01*
X36325000Y-56930000D02*
X36325000Y-58030000D01*
X36795000Y-56930000D02*
X36325000Y-56930000D01*
X36795000Y-55430000D02*
X36795000Y-56930000D01*
X30365000Y-56930000D02*
X30365000Y-59760000D01*
X29895000Y-56930000D02*
X30365000Y-56930000D01*
X29895000Y-55430000D02*
X29895000Y-56930000D01*
X65835000Y-66510000D02*
X65835000Y-66060000D01*
X58865000Y-66510000D02*
X65835000Y-66510000D01*
X58865000Y-66060000D02*
X58865000Y-66510000D01*
X65835000Y-62090000D02*
X64885000Y-62090000D01*
X65835000Y-62540000D02*
X65835000Y-62090000D01*
X59815000Y-62090000D02*
X59815000Y-60600000D01*
X58865000Y-62090000D02*
X59815000Y-62090000D01*
X58865000Y-62540000D02*
X58865000Y-62090000D01*
X65880796Y-40215112D02*
X65515112Y-40580796D01*
X66884888Y-41219204D02*
X66519204Y-41584888D01*
X67362779Y-49090000D02*
X67037221Y-49090000D01*
X67362779Y-50110000D02*
X67037221Y-50110000D01*
X64137221Y-50110000D02*
X64462779Y-50110000D01*
X64137221Y-49090000D02*
X64462779Y-49090000D01*
X39727064Y-55840000D02*
X38522936Y-55840000D01*
X39727064Y-57660000D02*
X38522936Y-57660000D01*
X39727064Y-53690000D02*
X38522936Y-53690000D01*
X39727064Y-55510000D02*
X38522936Y-55510000D01*
X53137221Y-65410000D02*
X53462779Y-65410000D01*
X53137221Y-64390000D02*
X53462779Y-64390000D01*
X55237221Y-37360000D02*
X55562779Y-37360000D01*
X55237221Y-36340000D02*
X55562779Y-36340000D01*
X55337221Y-51310000D02*
X55662779Y-51310000D01*
X55337221Y-50290000D02*
X55662779Y-50290000D01*
X39727064Y-57990000D02*
X38522936Y-57990000D01*
X39727064Y-59810000D02*
X38522936Y-59810000D01*
X39962779Y-60240000D02*
X39637221Y-60240000D01*
X39962779Y-61260000D02*
X39637221Y-61260000D01*
X63948412Y-38076786D02*
X63718207Y-38306991D01*
X64669661Y-38798035D02*
X64439456Y-39028240D01*
X64903006Y-39031380D02*
X64672801Y-39261585D01*
X65624255Y-39752629D02*
X65394050Y-39982834D01*
X59262779Y-27990000D02*
X58937221Y-27990000D01*
X59262779Y-29010000D02*
X58937221Y-29010000D01*
X61400000Y-56690000D02*
X58950000Y-56690000D01*
X59600000Y-59910000D02*
X61400000Y-59910000D01*
X29080000Y-29880000D02*
X29080000Y-32330000D01*
X32300000Y-31680000D02*
X32300000Y-29880000D01*
X73000000Y-40010000D02*
X75450000Y-40010000D01*
X74800000Y-36790000D02*
X73000000Y-36790000D01*
X74050000Y-54130000D02*
X74050000Y-50680000D01*
X74050000Y-54130000D02*
X74050000Y-56080000D01*
X68930000Y-54130000D02*
X68930000Y-52180000D01*
X68930000Y-54130000D02*
X68930000Y-56080000D01*
X38090000Y-43790000D02*
X35640000Y-43790000D01*
X36290000Y-47010000D02*
X38090000Y-47010000D01*
X67860000Y-54130000D02*
X67860000Y-50680000D01*
X67860000Y-54130000D02*
X67860000Y-56080000D01*
X62740000Y-54130000D02*
X62740000Y-52180000D01*
X62740000Y-54130000D02*
X62740000Y-56080000D01*
X79150000Y-33750000D02*
X79150000Y-32675000D01*
X73250000Y-33750000D02*
X79150000Y-33750000D01*
X73250000Y-29850000D02*
X79150000Y-29850000D01*
X38350000Y-41739720D02*
X38350000Y-42065278D01*
X39370000Y-41739720D02*
X39370000Y-42065278D01*
X39800000Y-41227937D02*
X39800000Y-42432065D01*
X41620000Y-41227937D02*
X41620000Y-42432065D01*
X36760280Y-42460000D02*
X36434722Y-42460000D01*
X36760280Y-43480000D02*
X36434722Y-43480000D01*
X31850000Y-46617221D02*
X31850000Y-46942779D01*
X32870000Y-46617221D02*
X32870000Y-46942779D01*
X70000000Y-59300000D02*
G75*
G02X69300000Y-60000000I-700000J0D01*
G01*
X69300000Y-58000000D02*
G75*
G02X70000000Y-58700000I0J-700000D01*
G01*
X65900000Y-58700000D02*
G75*
G02X66600000Y-58000000I700000J0D01*
G01*
X66600000Y-60000000D02*
G75*
G02X65900000Y-59300000I0J700000D01*
G01*
X69350000Y-60000000D02*
X66550000Y-60000000D01*
X65900000Y-59300000D02*
X65900000Y-58700000D01*
X66550000Y-58000000D02*
X69350000Y-58000000D01*
X70000000Y-58700000D02*
X70000000Y-59300000D01*
X34060000Y-23340000D02*
X34060000Y-23790000D01*
X42280000Y-23340000D02*
X34060000Y-23340000D01*
X42280000Y-23790000D02*
X42280000Y-23340000D01*
X34060000Y-27760000D02*
X35010000Y-27760000D01*
X34060000Y-27310000D02*
X34060000Y-27760000D01*
X41330000Y-27760000D02*
X41330000Y-29250000D01*
X42280000Y-27760000D02*
X41330000Y-27760000D01*
X42280000Y-27310000D02*
X42280000Y-27760000D01*
X28720000Y-30530000D02*
X28720000Y-31990000D01*
X25560000Y-30530000D02*
X25560000Y-32690000D01*
X25560000Y-30530000D02*
X26490000Y-30530000D01*
X28720000Y-30530000D02*
X27790000Y-30530000D01*
D15*
X76997500Y-34424000D02*
G75*
G03X76045000Y-35376500I0J-952500D01*
G01*
X79855000Y-35376500D02*
G75*
G03X78902500Y-34424000I-952500J0D01*
G01*
X76997500Y-34424000D02*
X78902500Y-34424000D01*
X77226100Y-41243900D02*
G75*
G03X78673900Y-41243900I723900J723900D01*
G01*
X77226100Y-41243900D02*
X76045000Y-40062800D01*
X78673900Y-41243900D02*
X79855000Y-40062800D01*
X76045000Y-35376500D02*
X76045000Y-40062800D01*
X79855000Y-35376500D02*
X79855000Y-40062800D01*
D14*
X53190000Y-28841422D02*
X53190000Y-29358578D01*
X54610000Y-28841422D02*
X54610000Y-29358578D01*
X47380000Y-28841422D02*
X47380000Y-29358578D01*
X48800000Y-28841422D02*
X48800000Y-29358578D01*
X53190000Y-42741422D02*
X53190000Y-43258578D01*
X54610000Y-42741422D02*
X54610000Y-43258578D01*
X47390000Y-42741422D02*
X47390000Y-43258578D01*
X48810000Y-42741422D02*
X48810000Y-43258578D01*
X53190000Y-56941422D02*
X53190000Y-57458578D01*
X54610000Y-56941422D02*
X54610000Y-57458578D01*
X47380000Y-56941422D02*
X47380000Y-57458578D01*
X48800000Y-56941422D02*
X48800000Y-57458578D01*
X22690000Y-56970000D02*
X24810000Y-56970000D01*
X22690000Y-52910000D02*
X22690000Y-56970000D01*
X24810000Y-52910000D02*
X24810000Y-56970000D01*
X22690000Y-52910000D02*
X24810000Y-52910000D01*
X22690000Y-51910000D02*
X22690000Y-50850000D01*
X22690000Y-50850000D02*
X23750000Y-50850000D01*
X78060000Y-50850000D02*
X75940000Y-50850000D01*
X78060000Y-54910000D02*
X78060000Y-50850000D01*
X75940000Y-54910000D02*
X75940000Y-50850000D01*
X78060000Y-54910000D02*
X75940000Y-54910000D01*
X78060000Y-55910000D02*
X78060000Y-56970000D01*
X78060000Y-56970000D02*
X77000000Y-56970000D01*
X71787221Y-59460000D02*
X72112779Y-59460000D01*
X71787221Y-58440000D02*
X72112779Y-58440000D01*
X71680000Y-23230000D02*
X71680000Y-23680000D01*
X77400000Y-23230000D02*
X71680000Y-23230000D01*
X77400000Y-23680000D02*
X77400000Y-23230000D01*
X71680000Y-27650000D02*
X72630000Y-27650000D01*
X71680000Y-27200000D02*
X71680000Y-27650000D01*
X76450000Y-27650000D02*
X76450000Y-29140000D01*
X77400000Y-27650000D02*
X76450000Y-27650000D01*
X77400000Y-27200000D02*
X77400000Y-27650000D01*
X23625000Y-23360000D02*
X23625000Y-23810000D01*
X28095000Y-23360000D02*
X23625000Y-23360000D01*
X28095000Y-23810000D02*
X28095000Y-23360000D01*
X23625000Y-27780000D02*
X24575000Y-27780000D01*
X23625000Y-27330000D02*
X23625000Y-27780000D01*
X27145000Y-27780000D02*
X27145000Y-29270000D01*
X28095000Y-27780000D02*
X27145000Y-27780000D01*
X28095000Y-27330000D02*
X28095000Y-27780000D01*
X77185000Y-66510000D02*
X77185000Y-66060000D01*
X70215000Y-66510000D02*
X77185000Y-66510000D01*
X70215000Y-66060000D02*
X70215000Y-66510000D01*
X77185000Y-62090000D02*
X76235000Y-62090000D01*
X77185000Y-62540000D02*
X77185000Y-62090000D01*
X71165000Y-62090000D02*
X71165000Y-60600000D01*
X70215000Y-62090000D02*
X71165000Y-62090000D01*
X70215000Y-62540000D02*
X70215000Y-62090000D01*
X63675727Y-41154478D02*
X63445522Y-40924273D01*
X62954478Y-41875727D02*
X62724273Y-41645522D01*
X74140000Y-58137221D02*
X74140000Y-58462779D01*
X75160000Y-58137221D02*
X75160000Y-58462779D01*
X30235000Y-59962779D02*
X30235000Y-59637221D01*
X29215000Y-59962779D02*
X29215000Y-59637221D01*
X51837221Y-24760000D02*
X52162779Y-24760000D01*
X51837221Y-23740000D02*
X52162779Y-23740000D01*
X48637221Y-24810000D02*
X48962779Y-24810000D01*
X48637221Y-23790000D02*
X48962779Y-23790000D01*
X51937221Y-38710000D02*
X52262779Y-38710000D01*
X51937221Y-37690000D02*
X52262779Y-37690000D01*
X48637221Y-38710000D02*
X48962779Y-38710000D01*
X48637221Y-37690000D02*
X48962779Y-37690000D01*
X62410000Y-52412779D02*
X62410000Y-52087221D01*
X61390000Y-52412779D02*
X61390000Y-52087221D01*
X73337221Y-35910000D02*
X73662779Y-35910000D01*
X73337221Y-34890000D02*
X73662779Y-34890000D01*
X68795522Y-41475727D02*
X69025727Y-41245522D01*
X68074273Y-40754478D02*
X68304478Y-40524273D01*
X51837221Y-52910000D02*
X52162779Y-52910000D01*
X51837221Y-51890000D02*
X52162779Y-51890000D01*
X48637221Y-52910000D02*
X48962779Y-52910000D01*
X48637221Y-51890000D02*
X48962779Y-51890000D01*
D10*
X55078571Y-23976190D02*
X54911904Y-23738095D01*
X54792857Y-23976190D02*
X54792857Y-23476190D01*
X54983333Y-23476190D01*
X55030952Y-23500000D01*
X55054761Y-23523809D01*
X55078571Y-23571428D01*
X55078571Y-23642857D01*
X55054761Y-23690476D01*
X55030952Y-23714285D01*
X54983333Y-23738095D01*
X54792857Y-23738095D01*
X55507142Y-23642857D02*
X55507142Y-23976190D01*
X55388095Y-23452380D02*
X55269047Y-23809523D01*
X55578571Y-23809523D01*
X55745238Y-23523809D02*
X55769047Y-23500000D01*
X55816666Y-23476190D01*
X55935714Y-23476190D01*
X55983333Y-23500000D01*
X56007142Y-23523809D01*
X56030952Y-23571428D01*
X56030952Y-23619047D01*
X56007142Y-23690476D01*
X55721428Y-23976190D01*
X56030952Y-23976190D01*
X57228571Y-42026190D02*
X57061904Y-41788095D01*
X56942857Y-42026190D02*
X56942857Y-41526190D01*
X57133333Y-41526190D01*
X57180952Y-41550000D01*
X57204761Y-41573809D01*
X57228571Y-41621428D01*
X57228571Y-41692857D01*
X57204761Y-41740476D01*
X57180952Y-41764285D01*
X57133333Y-41788095D01*
X56942857Y-41788095D01*
X57657142Y-41692857D02*
X57657142Y-42026190D01*
X57538095Y-41502380D02*
X57419047Y-41859523D01*
X57728571Y-41859523D01*
X58180952Y-42026190D02*
X57895238Y-42026190D01*
X58038095Y-42026190D02*
X58038095Y-41526190D01*
X57990476Y-41597619D01*
X57942857Y-41645238D01*
X57895238Y-41669047D01*
X57778571Y-51876190D02*
X57611904Y-51638095D01*
X57492857Y-51876190D02*
X57492857Y-51376190D01*
X57683333Y-51376190D01*
X57730952Y-51400000D01*
X57754761Y-51423809D01*
X57778571Y-51471428D01*
X57778571Y-51542857D01*
X57754761Y-51590476D01*
X57730952Y-51614285D01*
X57683333Y-51638095D01*
X57492857Y-51638095D01*
X58207142Y-51542857D02*
X58207142Y-51876190D01*
X58088095Y-51352380D02*
X57969047Y-51709523D01*
X58278571Y-51709523D01*
X58564285Y-51376190D02*
X58611904Y-51376190D01*
X58659523Y-51400000D01*
X58683333Y-51423809D01*
X58707142Y-51471428D01*
X58730952Y-51566666D01*
X58730952Y-51685714D01*
X58707142Y-51780952D01*
X58683333Y-51828571D01*
X58659523Y-51852380D01*
X58611904Y-51876190D01*
X58564285Y-51876190D01*
X58516666Y-51852380D01*
X58492857Y-51828571D01*
X58469047Y-51780952D01*
X58445238Y-51685714D01*
X58445238Y-51566666D01*
X58469047Y-51471428D01*
X58492857Y-51423809D01*
X58516666Y-51400000D01*
X58564285Y-51376190D01*
X58578570Y-30576190D02*
X58411903Y-30338095D01*
X58292856Y-30576190D02*
X58292856Y-30076190D01*
X58483332Y-30076190D01*
X58530951Y-30100000D01*
X58554760Y-30123809D01*
X58578570Y-30171428D01*
X58578570Y-30242857D01*
X58554760Y-30290476D01*
X58530951Y-30314285D01*
X58483332Y-30338095D01*
X58292856Y-30338095D01*
X58745237Y-30076190D02*
X59054760Y-30076190D01*
X58888094Y-30266666D01*
X58959522Y-30266666D01*
X59007141Y-30290476D01*
X59030951Y-30314285D01*
X59054760Y-30361904D01*
X59054760Y-30480952D01*
X59030951Y-30528571D01*
X59007141Y-30552380D01*
X58959522Y-30576190D01*
X58816665Y-30576190D01*
X58769046Y-30552380D01*
X58745237Y-30528571D01*
X59483332Y-30076190D02*
X59388094Y-30076190D01*
X59340475Y-30100000D01*
X59316665Y-30123809D01*
X59269046Y-30195238D01*
X59245237Y-30290476D01*
X59245237Y-30480952D01*
X59269046Y-30528571D01*
X59292856Y-30552380D01*
X59340475Y-30576190D01*
X59435713Y-30576190D01*
X59483332Y-30552380D01*
X59507141Y-30528571D01*
X59530951Y-30480952D01*
X59530951Y-30361904D01*
X59507141Y-30314285D01*
X59483332Y-30290476D01*
X59435713Y-30266666D01*
X59340475Y-30266666D01*
X59292856Y-30290476D01*
X59269046Y-30314285D01*
X59245237Y-30361904D01*
X45178571Y-26426190D02*
X45011904Y-26188095D01*
X44892857Y-26426190D02*
X44892857Y-25926190D01*
X45083333Y-25926190D01*
X45130952Y-25950000D01*
X45154761Y-25973809D01*
X45178571Y-26021428D01*
X45178571Y-26092857D01*
X45154761Y-26140476D01*
X45130952Y-26164285D01*
X45083333Y-26188095D01*
X44892857Y-26188095D01*
X45345238Y-25926190D02*
X45654761Y-25926190D01*
X45488095Y-26116666D01*
X45559523Y-26116666D01*
X45607142Y-26140476D01*
X45630952Y-26164285D01*
X45654761Y-26211904D01*
X45654761Y-26330952D01*
X45630952Y-26378571D01*
X45607142Y-26402380D01*
X45559523Y-26426190D01*
X45416666Y-26426190D01*
X45369047Y-26402380D01*
X45345238Y-26378571D01*
X45964285Y-25926190D02*
X46011904Y-25926190D01*
X46059523Y-25950000D01*
X46083333Y-25973809D01*
X46107142Y-26021428D01*
X46130952Y-26116666D01*
X46130952Y-26235714D01*
X46107142Y-26330952D01*
X46083333Y-26378571D01*
X46059523Y-26402380D01*
X46011904Y-26426190D01*
X45964285Y-26426190D01*
X45916666Y-26402380D01*
X45892857Y-26378571D01*
X45869047Y-26330952D01*
X45845238Y-26235714D01*
X45845238Y-26116666D01*
X45869047Y-26021428D01*
X45892857Y-25973809D01*
X45916666Y-25950000D01*
X45964285Y-25926190D01*
X45276190Y-39351428D02*
X45038095Y-39518095D01*
X45276190Y-39637142D02*
X44776190Y-39637142D01*
X44776190Y-39446666D01*
X44800000Y-39399047D01*
X44823809Y-39375238D01*
X44871428Y-39351428D01*
X44942857Y-39351428D01*
X44990476Y-39375238D01*
X45014285Y-39399047D01*
X45038095Y-39446666D01*
X45038095Y-39637142D01*
X44823809Y-39160952D02*
X44800000Y-39137142D01*
X44776190Y-39089523D01*
X44776190Y-38970476D01*
X44800000Y-38922857D01*
X44823809Y-38899047D01*
X44871428Y-38875238D01*
X44919047Y-38875238D01*
X44990476Y-38899047D01*
X45276190Y-39184761D01*
X45276190Y-38875238D01*
X44776190Y-38422857D02*
X44776190Y-38660952D01*
X45014285Y-38684761D01*
X44990476Y-38660952D01*
X44966666Y-38613333D01*
X44966666Y-38494285D01*
X44990476Y-38446666D01*
X45014285Y-38422857D01*
X45061904Y-38399047D01*
X45180952Y-38399047D01*
X45228571Y-38422857D01*
X45252380Y-38446666D01*
X45276190Y-38494285D01*
X45276190Y-38613333D01*
X45252380Y-38660952D01*
X45228571Y-38684761D01*
X45478571Y-55126190D02*
X45311904Y-54888095D01*
X45192857Y-55126190D02*
X45192857Y-54626190D01*
X45383333Y-54626190D01*
X45430952Y-54650000D01*
X45454761Y-54673809D01*
X45478571Y-54721428D01*
X45478571Y-54792857D01*
X45454761Y-54840476D01*
X45430952Y-54864285D01*
X45383333Y-54888095D01*
X45192857Y-54888095D01*
X45669047Y-54673809D02*
X45692857Y-54650000D01*
X45740476Y-54626190D01*
X45859523Y-54626190D01*
X45907142Y-54650000D01*
X45930952Y-54673809D01*
X45954761Y-54721428D01*
X45954761Y-54769047D01*
X45930952Y-54840476D01*
X45645238Y-55126190D01*
X45954761Y-55126190D01*
X46121428Y-54626190D02*
X46430952Y-54626190D01*
X46264285Y-54816666D01*
X46335714Y-54816666D01*
X46383333Y-54840476D01*
X46407142Y-54864285D01*
X46430952Y-54911904D01*
X46430952Y-55030952D01*
X46407142Y-55078571D01*
X46383333Y-55102380D01*
X46335714Y-55126190D01*
X46192857Y-55126190D01*
X46145238Y-55102380D01*
X46121428Y-55078571D01*
X21578571Y-49276190D02*
X21411904Y-49038095D01*
X21292857Y-49276190D02*
X21292857Y-48776190D01*
X21483333Y-48776190D01*
X21530952Y-48800000D01*
X21554761Y-48823809D01*
X21578571Y-48871428D01*
X21578571Y-48942857D01*
X21554761Y-48990476D01*
X21530952Y-49014285D01*
X21483333Y-49038095D01*
X21292857Y-49038095D01*
X22054761Y-49276190D02*
X21769047Y-49276190D01*
X21911904Y-49276190D02*
X21911904Y-48776190D01*
X21864285Y-48847619D01*
X21816666Y-48895238D01*
X21769047Y-48919047D01*
X22221428Y-48776190D02*
X22554761Y-48776190D01*
X22340476Y-49276190D01*
X57078571Y-23976190D02*
X56911904Y-23738095D01*
X56792857Y-23976190D02*
X56792857Y-23476190D01*
X56983333Y-23476190D01*
X57030952Y-23500000D01*
X57054761Y-23523809D01*
X57078571Y-23571428D01*
X57078571Y-23642857D01*
X57054761Y-23690476D01*
X57030952Y-23714285D01*
X56983333Y-23738095D01*
X56792857Y-23738095D01*
X57554761Y-23976190D02*
X57269047Y-23976190D01*
X57411904Y-23976190D02*
X57411904Y-23476190D01*
X57364285Y-23547619D01*
X57316666Y-23595238D01*
X57269047Y-23619047D01*
X57983333Y-23476190D02*
X57888095Y-23476190D01*
X57840476Y-23500000D01*
X57816666Y-23523809D01*
X57769047Y-23595238D01*
X57745238Y-23690476D01*
X57745238Y-23880952D01*
X57769047Y-23928571D01*
X57792857Y-23952380D01*
X57840476Y-23976190D01*
X57935714Y-23976190D01*
X57983333Y-23952380D01*
X58007142Y-23928571D01*
X58030952Y-23880952D01*
X58030952Y-23761904D01*
X58007142Y-23714285D01*
X57983333Y-23690476D01*
X57935714Y-23666666D01*
X57840476Y-23666666D01*
X57792857Y-23690476D01*
X57769047Y-23714285D01*
X57745238Y-23761904D01*
X59428571Y-37876191D02*
X59261904Y-37638096D01*
X59142857Y-37876191D02*
X59142857Y-37376191D01*
X59333333Y-37376191D01*
X59380952Y-37400001D01*
X59404761Y-37423810D01*
X59428571Y-37471429D01*
X59428571Y-37542858D01*
X59404761Y-37590477D01*
X59380952Y-37614286D01*
X59333333Y-37638096D01*
X59142857Y-37638096D01*
X59904761Y-37876191D02*
X59619047Y-37876191D01*
X59761904Y-37876191D02*
X59761904Y-37376191D01*
X59714285Y-37447620D01*
X59666666Y-37495239D01*
X59619047Y-37519048D01*
X60357142Y-37376191D02*
X60119047Y-37376191D01*
X60095238Y-37614286D01*
X60119047Y-37590477D01*
X60166666Y-37566667D01*
X60285714Y-37566667D01*
X60333333Y-37590477D01*
X60357142Y-37614286D01*
X60380952Y-37661905D01*
X60380952Y-37780953D01*
X60357142Y-37828572D01*
X60333333Y-37852381D01*
X60285714Y-37876191D01*
X60166666Y-37876191D01*
X60119047Y-37852381D01*
X60095238Y-37828572D01*
X57728571Y-36976190D02*
X57561904Y-36738095D01*
X57442857Y-36976190D02*
X57442857Y-36476190D01*
X57633333Y-36476190D01*
X57680952Y-36500000D01*
X57704761Y-36523809D01*
X57728571Y-36571428D01*
X57728571Y-36642857D01*
X57704761Y-36690476D01*
X57680952Y-36714285D01*
X57633333Y-36738095D01*
X57442857Y-36738095D01*
X58204761Y-36976190D02*
X57919047Y-36976190D01*
X58061904Y-36976190D02*
X58061904Y-36476190D01*
X58014285Y-36547619D01*
X57966666Y-36595238D01*
X57919047Y-36619047D01*
X58633333Y-36642857D02*
X58633333Y-36976190D01*
X58514285Y-36452380D02*
X58395238Y-36809523D01*
X58704761Y-36809523D01*
X61366666Y-39176190D02*
X61200000Y-38938095D01*
X61080952Y-39176190D02*
X61080952Y-38676190D01*
X61271428Y-38676190D01*
X61319047Y-38700000D01*
X61342857Y-38723809D01*
X61366666Y-38771428D01*
X61366666Y-38842857D01*
X61342857Y-38890476D01*
X61319047Y-38914285D01*
X61271428Y-38938095D01*
X61080952Y-38938095D01*
X61604761Y-39176190D02*
X61700000Y-39176190D01*
X61747619Y-39152380D01*
X61771428Y-39128571D01*
X61819047Y-39057142D01*
X61842857Y-38961904D01*
X61842857Y-38771428D01*
X61819047Y-38723809D01*
X61795238Y-38700000D01*
X61747619Y-38676190D01*
X61652380Y-38676190D01*
X61604761Y-38700000D01*
X61580952Y-38723809D01*
X61557142Y-38771428D01*
X61557142Y-38890476D01*
X61580952Y-38938095D01*
X61604761Y-38961904D01*
X61652380Y-38985714D01*
X61747619Y-38985714D01*
X61795238Y-38961904D01*
X61819047Y-38938095D01*
X61842857Y-38890476D01*
X61716666Y-43076190D02*
X61550000Y-42838095D01*
X61430952Y-43076190D02*
X61430952Y-42576190D01*
X61621428Y-42576190D01*
X61669047Y-42600000D01*
X61692857Y-42623809D01*
X61716666Y-42671428D01*
X61716666Y-42742857D01*
X61692857Y-42790476D01*
X61669047Y-42814285D01*
X61621428Y-42838095D01*
X61430952Y-42838095D01*
X62002380Y-42790476D02*
X61954761Y-42766666D01*
X61930952Y-42742857D01*
X61907142Y-42695238D01*
X61907142Y-42671428D01*
X61930952Y-42623809D01*
X61954761Y-42600000D01*
X62002380Y-42576190D01*
X62097619Y-42576190D01*
X62145238Y-42600000D01*
X62169047Y-42623809D01*
X62192857Y-42671428D01*
X62192857Y-42695238D01*
X62169047Y-42742857D01*
X62145238Y-42766666D01*
X62097619Y-42790476D01*
X62002380Y-42790476D01*
X61954761Y-42814285D01*
X61930952Y-42838095D01*
X61907142Y-42885714D01*
X61907142Y-42980952D01*
X61930952Y-43028571D01*
X61954761Y-43052380D01*
X62002380Y-43076190D01*
X62097619Y-43076190D01*
X62145238Y-43052380D01*
X62169047Y-43028571D01*
X62192857Y-42980952D01*
X62192857Y-42885714D01*
X62169047Y-42838095D01*
X62145238Y-42814285D01*
X62097619Y-42790476D01*
X21076190Y-53933333D02*
X20838095Y-54100000D01*
X21076190Y-54219047D02*
X20576190Y-54219047D01*
X20576190Y-54028571D01*
X20600000Y-53980952D01*
X20623809Y-53957142D01*
X20671428Y-53933333D01*
X20742857Y-53933333D01*
X20790476Y-53957142D01*
X20814285Y-53980952D01*
X20838095Y-54028571D01*
X20838095Y-54219047D01*
X20576190Y-53504761D02*
X20576190Y-53600000D01*
X20600000Y-53647619D01*
X20623809Y-53671428D01*
X20695238Y-53719047D01*
X20790476Y-53742857D01*
X20980952Y-53742857D01*
X21028571Y-53719047D01*
X21052380Y-53695238D01*
X21076190Y-53647619D01*
X21076190Y-53552380D01*
X21052380Y-53504761D01*
X21028571Y-53480952D01*
X20980952Y-53457142D01*
X20861904Y-53457142D01*
X20814285Y-53480952D01*
X20790476Y-53504761D01*
X20766666Y-53552380D01*
X20766666Y-53647619D01*
X20790476Y-53695238D01*
X20814285Y-53719047D01*
X20861904Y-53742857D01*
X42408571Y-39558571D02*
X42384761Y-39582380D01*
X42313333Y-39606190D01*
X42265714Y-39606190D01*
X42194285Y-39582380D01*
X42146666Y-39534761D01*
X42122857Y-39487142D01*
X42099047Y-39391904D01*
X42099047Y-39320476D01*
X42122857Y-39225238D01*
X42146666Y-39177619D01*
X42194285Y-39130000D01*
X42265714Y-39106190D01*
X42313333Y-39106190D01*
X42384761Y-39130000D01*
X42408571Y-39153809D01*
X42860952Y-39106190D02*
X42622857Y-39106190D01*
X42599047Y-39344285D01*
X42622857Y-39320476D01*
X42670476Y-39296666D01*
X42789523Y-39296666D01*
X42837142Y-39320476D01*
X42860952Y-39344285D01*
X42884761Y-39391904D01*
X42884761Y-39510952D01*
X42860952Y-39558571D01*
X42837142Y-39582380D01*
X42789523Y-39606190D01*
X42670476Y-39606190D01*
X42622857Y-39582380D01*
X42599047Y-39558571D01*
X43170476Y-39320476D02*
X43122857Y-39296666D01*
X43099047Y-39272857D01*
X43075238Y-39225238D01*
X43075238Y-39201428D01*
X43099047Y-39153809D01*
X43122857Y-39130000D01*
X43170476Y-39106190D01*
X43265714Y-39106190D01*
X43313333Y-39130000D01*
X43337142Y-39153809D01*
X43360952Y-39201428D01*
X43360952Y-39225238D01*
X43337142Y-39272857D01*
X43313333Y-39296666D01*
X43265714Y-39320476D01*
X43170476Y-39320476D01*
X43122857Y-39344285D01*
X43099047Y-39368095D01*
X43075238Y-39415714D01*
X43075238Y-39510952D01*
X43099047Y-39558571D01*
X43122857Y-39582380D01*
X43170476Y-39606190D01*
X43265714Y-39606190D01*
X43313333Y-39582380D01*
X43337142Y-39558571D01*
X43360952Y-39510952D01*
X43360952Y-39415714D01*
X43337142Y-39368095D01*
X43313333Y-39344285D01*
X43265714Y-39320476D01*
X33908571Y-44178571D02*
X33884761Y-44202380D01*
X33813333Y-44226190D01*
X33765714Y-44226190D01*
X33694285Y-44202380D01*
X33646666Y-44154761D01*
X33622857Y-44107142D01*
X33599047Y-44011904D01*
X33599047Y-43940476D01*
X33622857Y-43845238D01*
X33646666Y-43797619D01*
X33694285Y-43750000D01*
X33765714Y-43726190D01*
X33813333Y-43726190D01*
X33884761Y-43750000D01*
X33908571Y-43773809D01*
X34360952Y-43726190D02*
X34122857Y-43726190D01*
X34099047Y-43964285D01*
X34122857Y-43940476D01*
X34170476Y-43916666D01*
X34289523Y-43916666D01*
X34337142Y-43940476D01*
X34360952Y-43964285D01*
X34384761Y-44011904D01*
X34384761Y-44130952D01*
X34360952Y-44178571D01*
X34337142Y-44202380D01*
X34289523Y-44226190D01*
X34170476Y-44226190D01*
X34122857Y-44202380D01*
X34099047Y-44178571D01*
X34551428Y-43726190D02*
X34884761Y-43726190D01*
X34670476Y-44226190D01*
X23792857Y-33326190D02*
X23792857Y-32826190D01*
X23911904Y-32826190D01*
X23983333Y-32850000D01*
X24030952Y-32897619D01*
X24054761Y-32945238D01*
X24078571Y-33040476D01*
X24078571Y-33111904D01*
X24054761Y-33207142D01*
X24030952Y-33254761D01*
X23983333Y-33302380D01*
X23911904Y-33326190D01*
X23792857Y-33326190D01*
X24554761Y-33326190D02*
X24269047Y-33326190D01*
X24411904Y-33326190D02*
X24411904Y-32826190D01*
X24364285Y-32897619D01*
X24316666Y-32945238D01*
X24269047Y-32969047D01*
X25007142Y-32826190D02*
X24769047Y-32826190D01*
X24745238Y-33064285D01*
X24769047Y-33040476D01*
X24816666Y-33016666D01*
X24935714Y-33016666D01*
X24983333Y-33040476D01*
X25007142Y-33064285D01*
X25030952Y-33111904D01*
X25030952Y-33230952D01*
X25007142Y-33278571D01*
X24983333Y-33302380D01*
X24935714Y-33326190D01*
X24816666Y-33326190D01*
X24769047Y-33302380D01*
X24745238Y-33278571D01*
X31632857Y-43186190D02*
X31632857Y-42686190D01*
X31751904Y-42686190D01*
X31823333Y-42710000D01*
X31870952Y-42757619D01*
X31894761Y-42805238D01*
X31918571Y-42900476D01*
X31918571Y-42971904D01*
X31894761Y-43067142D01*
X31870952Y-43114761D01*
X31823333Y-43162380D01*
X31751904Y-43186190D01*
X31632857Y-43186190D01*
X32394761Y-43186190D02*
X32109047Y-43186190D01*
X32251904Y-43186190D02*
X32251904Y-42686190D01*
X32204285Y-42757619D01*
X32156666Y-42805238D01*
X32109047Y-42829047D01*
X32823333Y-42852857D02*
X32823333Y-43186190D01*
X32704285Y-42662380D02*
X32585238Y-43019523D01*
X32894761Y-43019523D01*
X40278571Y-29876190D02*
X40111904Y-29638095D01*
X39992857Y-29876190D02*
X39992857Y-29376190D01*
X40183333Y-29376190D01*
X40230952Y-29400000D01*
X40254761Y-29423809D01*
X40278571Y-29471428D01*
X40278571Y-29542857D01*
X40254761Y-29590476D01*
X40230952Y-29614285D01*
X40183333Y-29638095D01*
X39992857Y-29638095D01*
X40445238Y-29376190D02*
X40754761Y-29376190D01*
X40588095Y-29566666D01*
X40659523Y-29566666D01*
X40707142Y-29590476D01*
X40730952Y-29614285D01*
X40754761Y-29661904D01*
X40754761Y-29780952D01*
X40730952Y-29828571D01*
X40707142Y-29852380D01*
X40659523Y-29876190D01*
X40516666Y-29876190D01*
X40469047Y-29852380D01*
X40445238Y-29828571D01*
X41207142Y-29376190D02*
X40969047Y-29376190D01*
X40945238Y-29614285D01*
X40969047Y-29590476D01*
X41016666Y-29566666D01*
X41135714Y-29566666D01*
X41183333Y-29590476D01*
X41207142Y-29614285D01*
X41230952Y-29661904D01*
X41230952Y-29780952D01*
X41207142Y-29828571D01*
X41183333Y-29852380D01*
X41135714Y-29876190D01*
X41016666Y-29876190D01*
X40969047Y-29852380D01*
X40945238Y-29828571D01*
X37328571Y-29876190D02*
X37161904Y-29638095D01*
X37042857Y-29876190D02*
X37042857Y-29376190D01*
X37233333Y-29376190D01*
X37280952Y-29400000D01*
X37304761Y-29423809D01*
X37328571Y-29471428D01*
X37328571Y-29542857D01*
X37304761Y-29590476D01*
X37280952Y-29614285D01*
X37233333Y-29638095D01*
X37042857Y-29638095D01*
X37495238Y-29376190D02*
X37804761Y-29376190D01*
X37638095Y-29566666D01*
X37709523Y-29566666D01*
X37757142Y-29590476D01*
X37780952Y-29614285D01*
X37804761Y-29661904D01*
X37804761Y-29780952D01*
X37780952Y-29828571D01*
X37757142Y-29852380D01*
X37709523Y-29876190D01*
X37566666Y-29876190D01*
X37519047Y-29852380D01*
X37495238Y-29828571D01*
X38233333Y-29542857D02*
X38233333Y-29876190D01*
X38114285Y-29352380D02*
X37995238Y-29709523D01*
X38304761Y-29709523D01*
X34428571Y-29826190D02*
X34261904Y-29588095D01*
X34142857Y-29826190D02*
X34142857Y-29326190D01*
X34333333Y-29326190D01*
X34380952Y-29350000D01*
X34404761Y-29373809D01*
X34428571Y-29421428D01*
X34428571Y-29492857D01*
X34404761Y-29540476D01*
X34380952Y-29564285D01*
X34333333Y-29588095D01*
X34142857Y-29588095D01*
X34595238Y-29326190D02*
X34904761Y-29326190D01*
X34738095Y-29516666D01*
X34809523Y-29516666D01*
X34857142Y-29540476D01*
X34880952Y-29564285D01*
X34904761Y-29611904D01*
X34904761Y-29730952D01*
X34880952Y-29778571D01*
X34857142Y-29802380D01*
X34809523Y-29826190D01*
X34666666Y-29826190D01*
X34619047Y-29802380D01*
X34595238Y-29778571D01*
X35071428Y-29326190D02*
X35380952Y-29326190D01*
X35214285Y-29516666D01*
X35285714Y-29516666D01*
X35333333Y-29540476D01*
X35357142Y-29564285D01*
X35380952Y-29611904D01*
X35380952Y-29730952D01*
X35357142Y-29778571D01*
X35333333Y-29802380D01*
X35285714Y-29826190D01*
X35142857Y-29826190D01*
X35095238Y-29802380D01*
X35071428Y-29778571D01*
X32978571Y-29826190D02*
X32811904Y-29588095D01*
X32692857Y-29826190D02*
X32692857Y-29326190D01*
X32883333Y-29326190D01*
X32930952Y-29350000D01*
X32954761Y-29373809D01*
X32978571Y-29421428D01*
X32978571Y-29492857D01*
X32954761Y-29540476D01*
X32930952Y-29564285D01*
X32883333Y-29588095D01*
X32692857Y-29588095D01*
X33169047Y-29373809D02*
X33192857Y-29350000D01*
X33240476Y-29326190D01*
X33359523Y-29326190D01*
X33407142Y-29350000D01*
X33430952Y-29373809D01*
X33454761Y-29421428D01*
X33454761Y-29469047D01*
X33430952Y-29540476D01*
X33145238Y-29826190D01*
X33454761Y-29826190D01*
X33692857Y-29826190D02*
X33788095Y-29826190D01*
X33835714Y-29802380D01*
X33859523Y-29778571D01*
X33907142Y-29707142D01*
X33930952Y-29611904D01*
X33930952Y-29421428D01*
X33907142Y-29373809D01*
X33883333Y-29350000D01*
X33835714Y-29326190D01*
X33740476Y-29326190D01*
X33692857Y-29350000D01*
X33669047Y-29373809D01*
X33645238Y-29421428D01*
X33645238Y-29540476D01*
X33669047Y-29588095D01*
X33692857Y-29611904D01*
X33740476Y-29635714D01*
X33835714Y-29635714D01*
X33883333Y-29611904D01*
X33907142Y-29588095D01*
X33930952Y-29540476D01*
X35928571Y-29876190D02*
X35761904Y-29638095D01*
X35642857Y-29876190D02*
X35642857Y-29376190D01*
X35833333Y-29376190D01*
X35880952Y-29400000D01*
X35904761Y-29423809D01*
X35928571Y-29471428D01*
X35928571Y-29542857D01*
X35904761Y-29590476D01*
X35880952Y-29614285D01*
X35833333Y-29638095D01*
X35642857Y-29638095D01*
X36119047Y-29423809D02*
X36142857Y-29400000D01*
X36190476Y-29376190D01*
X36309523Y-29376190D01*
X36357142Y-29400000D01*
X36380952Y-29423809D01*
X36404761Y-29471428D01*
X36404761Y-29519047D01*
X36380952Y-29590476D01*
X36095238Y-29876190D01*
X36404761Y-29876190D01*
X36690476Y-29590476D02*
X36642857Y-29566666D01*
X36619047Y-29542857D01*
X36595238Y-29495238D01*
X36595238Y-29471428D01*
X36619047Y-29423809D01*
X36642857Y-29400000D01*
X36690476Y-29376190D01*
X36785714Y-29376190D01*
X36833333Y-29400000D01*
X36857142Y-29423809D01*
X36880952Y-29471428D01*
X36880952Y-29495238D01*
X36857142Y-29542857D01*
X36833333Y-29566666D01*
X36785714Y-29590476D01*
X36690476Y-29590476D01*
X36642857Y-29614285D01*
X36619047Y-29638095D01*
X36595238Y-29685714D01*
X36595238Y-29780952D01*
X36619047Y-29828571D01*
X36642857Y-29852380D01*
X36690476Y-29876190D01*
X36785714Y-29876190D01*
X36833333Y-29852380D01*
X36857142Y-29828571D01*
X36880952Y-29780952D01*
X36880952Y-29685714D01*
X36857142Y-29638095D01*
X36833333Y-29614285D01*
X36785714Y-29590476D01*
X38828571Y-29876190D02*
X38661904Y-29638095D01*
X38542857Y-29876190D02*
X38542857Y-29376190D01*
X38733333Y-29376190D01*
X38780952Y-29400000D01*
X38804761Y-29423809D01*
X38828571Y-29471428D01*
X38828571Y-29542857D01*
X38804761Y-29590476D01*
X38780952Y-29614285D01*
X38733333Y-29638095D01*
X38542857Y-29638095D01*
X39019047Y-29423809D02*
X39042857Y-29400000D01*
X39090476Y-29376190D01*
X39209523Y-29376190D01*
X39257142Y-29400000D01*
X39280952Y-29423809D01*
X39304761Y-29471428D01*
X39304761Y-29519047D01*
X39280952Y-29590476D01*
X38995238Y-29876190D01*
X39304761Y-29876190D01*
X39471428Y-29376190D02*
X39804761Y-29376190D01*
X39590476Y-29876190D01*
X62930952Y-43926190D02*
X62930952Y-44330952D01*
X62954761Y-44378571D01*
X62978571Y-44402380D01*
X63026190Y-44426190D01*
X63121428Y-44426190D01*
X63169047Y-44402380D01*
X63192857Y-44378571D01*
X63216666Y-44330952D01*
X63216666Y-43926190D01*
X63716666Y-44426190D02*
X63430952Y-44426190D01*
X63573809Y-44426190D02*
X63573809Y-43926190D01*
X63526190Y-43997619D01*
X63478571Y-44045238D01*
X63430952Y-44069047D01*
X63907142Y-43973809D02*
X63930952Y-43950000D01*
X63978571Y-43926190D01*
X64097619Y-43926190D01*
X64145238Y-43950000D01*
X64169047Y-43973809D01*
X64192857Y-44021428D01*
X64192857Y-44069047D01*
X64169047Y-44140476D01*
X63883333Y-44426190D01*
X64192857Y-44426190D01*
X42635952Y-35226190D02*
X42635952Y-34726190D01*
X42755000Y-34726190D01*
X42826428Y-34750000D01*
X42874047Y-34797619D01*
X42897857Y-34845238D01*
X42921666Y-34940476D01*
X42921666Y-35011904D01*
X42897857Y-35107142D01*
X42874047Y-35154761D01*
X42826428Y-35202380D01*
X42755000Y-35226190D01*
X42635952Y-35226190D01*
X43088333Y-34726190D02*
X43421666Y-34726190D01*
X43207380Y-35226190D01*
X21978571Y-62178571D02*
X21954761Y-62202380D01*
X21883333Y-62226190D01*
X21835714Y-62226190D01*
X21764285Y-62202380D01*
X21716666Y-62154761D01*
X21692857Y-62107142D01*
X21669047Y-62011904D01*
X21669047Y-61940476D01*
X21692857Y-61845238D01*
X21716666Y-61797619D01*
X21764285Y-61750000D01*
X21835714Y-61726190D01*
X21883333Y-61726190D01*
X21954761Y-61750000D01*
X21978571Y-61773809D01*
X22430952Y-61726190D02*
X22192857Y-61726190D01*
X22169047Y-61964285D01*
X22192857Y-61940476D01*
X22240476Y-61916666D01*
X22359523Y-61916666D01*
X22407142Y-61940476D01*
X22430952Y-61964285D01*
X22454761Y-62011904D01*
X22454761Y-62130952D01*
X22430952Y-62178571D01*
X22407142Y-62202380D01*
X22359523Y-62226190D01*
X22240476Y-62226190D01*
X22192857Y-62202380D01*
X22169047Y-62178571D01*
X22883333Y-61726190D02*
X22788095Y-61726190D01*
X22740476Y-61750000D01*
X22716666Y-61773809D01*
X22669047Y-61845238D01*
X22645238Y-61940476D01*
X22645238Y-62130952D01*
X22669047Y-62178571D01*
X22692857Y-62202380D01*
X22740476Y-62226190D01*
X22835714Y-62226190D01*
X22883333Y-62202380D01*
X22907142Y-62178571D01*
X22930952Y-62130952D01*
X22930952Y-62011904D01*
X22907142Y-61964285D01*
X22883333Y-61940476D01*
X22835714Y-61916666D01*
X22740476Y-61916666D01*
X22692857Y-61940476D01*
X22669047Y-61964285D01*
X22645238Y-62011904D01*
X24366666Y-62178571D02*
X24342857Y-62202380D01*
X24271428Y-62226190D01*
X24223809Y-62226190D01*
X24152380Y-62202380D01*
X24104761Y-62154761D01*
X24080952Y-62107142D01*
X24057142Y-62011904D01*
X24057142Y-61940476D01*
X24080952Y-61845238D01*
X24104761Y-61797619D01*
X24152380Y-61750000D01*
X24223809Y-61726190D01*
X24271428Y-61726190D01*
X24342857Y-61750000D01*
X24366666Y-61773809D01*
X24533333Y-61726190D02*
X24866666Y-61726190D01*
X24652380Y-62226190D01*
X54619047Y-47076190D02*
X54619047Y-47480952D01*
X54642857Y-47528571D01*
X54666666Y-47552380D01*
X54714285Y-47576190D01*
X54809523Y-47576190D01*
X54857142Y-47552380D01*
X54880952Y-47528571D01*
X54904761Y-47480952D01*
X54904761Y-47076190D01*
X55095238Y-47076190D02*
X55428571Y-47076190D01*
X55214285Y-47576190D01*
X44878571Y-31076190D02*
X44711904Y-30838095D01*
X44592857Y-31076190D02*
X44592857Y-30576190D01*
X44783333Y-30576190D01*
X44830952Y-30600000D01*
X44854761Y-30623809D01*
X44878571Y-30671428D01*
X44878571Y-30742857D01*
X44854761Y-30790476D01*
X44830952Y-30814285D01*
X44783333Y-30838095D01*
X44592857Y-30838095D01*
X45045238Y-30576190D02*
X45354761Y-30576190D01*
X45188095Y-30766666D01*
X45259523Y-30766666D01*
X45307142Y-30790476D01*
X45330952Y-30814285D01*
X45354761Y-30861904D01*
X45354761Y-30980952D01*
X45330952Y-31028571D01*
X45307142Y-31052380D01*
X45259523Y-31076190D01*
X45116666Y-31076190D01*
X45069047Y-31052380D01*
X45045238Y-31028571D01*
X45830952Y-31076190D02*
X45545238Y-31076190D01*
X45688095Y-31076190D02*
X45688095Y-30576190D01*
X45640476Y-30647619D01*
X45592857Y-30695238D01*
X45545238Y-30719047D01*
X44878571Y-34976190D02*
X44711904Y-34738095D01*
X44592857Y-34976190D02*
X44592857Y-34476190D01*
X44783333Y-34476190D01*
X44830952Y-34500000D01*
X44854761Y-34523809D01*
X44878571Y-34571428D01*
X44878571Y-34642857D01*
X44854761Y-34690476D01*
X44830952Y-34714285D01*
X44783333Y-34738095D01*
X44592857Y-34738095D01*
X45069047Y-34523809D02*
X45092857Y-34500000D01*
X45140476Y-34476190D01*
X45259523Y-34476190D01*
X45307142Y-34500000D01*
X45330952Y-34523809D01*
X45354761Y-34571428D01*
X45354761Y-34619047D01*
X45330952Y-34690476D01*
X45045238Y-34976190D01*
X45354761Y-34976190D01*
X45783333Y-34476190D02*
X45688095Y-34476190D01*
X45640476Y-34500000D01*
X45616666Y-34523809D01*
X45569047Y-34595238D01*
X45545238Y-34690476D01*
X45545238Y-34880952D01*
X45569047Y-34928571D01*
X45592857Y-34952380D01*
X45640476Y-34976190D01*
X45735714Y-34976190D01*
X45783333Y-34952380D01*
X45807142Y-34928571D01*
X45830952Y-34880952D01*
X45830952Y-34761904D01*
X45807142Y-34714285D01*
X45783333Y-34690476D01*
X45735714Y-34666666D01*
X45640476Y-34666666D01*
X45592857Y-34690476D01*
X45569047Y-34714285D01*
X45545238Y-34761904D01*
X44278571Y-50826190D02*
X44111904Y-50588095D01*
X43992857Y-50826190D02*
X43992857Y-50326190D01*
X44183333Y-50326190D01*
X44230952Y-50350000D01*
X44254761Y-50373809D01*
X44278571Y-50421428D01*
X44278571Y-50492857D01*
X44254761Y-50540476D01*
X44230952Y-50564285D01*
X44183333Y-50588095D01*
X43992857Y-50588095D01*
X44469047Y-50373809D02*
X44492857Y-50350000D01*
X44540476Y-50326190D01*
X44659523Y-50326190D01*
X44707142Y-50350000D01*
X44730952Y-50373809D01*
X44754761Y-50421428D01*
X44754761Y-50469047D01*
X44730952Y-50540476D01*
X44445238Y-50826190D01*
X44754761Y-50826190D01*
X45183333Y-50492857D02*
X45183333Y-50826190D01*
X45064285Y-50302380D02*
X44945238Y-50659523D01*
X45254761Y-50659523D01*
X42392857Y-33326190D02*
X42392857Y-32826190D01*
X42511904Y-32826190D01*
X42583333Y-32850000D01*
X42630952Y-32897619D01*
X42654761Y-32945238D01*
X42678571Y-33040476D01*
X42678571Y-33111904D01*
X42654761Y-33207142D01*
X42630952Y-33254761D01*
X42583333Y-33302380D01*
X42511904Y-33326190D01*
X42392857Y-33326190D01*
X43154761Y-33326190D02*
X42869047Y-33326190D01*
X43011904Y-33326190D02*
X43011904Y-32826190D01*
X42964285Y-32897619D01*
X42916666Y-32945238D01*
X42869047Y-32969047D01*
X43321428Y-32826190D02*
X43630952Y-32826190D01*
X43464285Y-33016666D01*
X43535714Y-33016666D01*
X43583333Y-33040476D01*
X43607142Y-33064285D01*
X43630952Y-33111904D01*
X43630952Y-33230952D01*
X43607142Y-33278571D01*
X43583333Y-33302380D01*
X43535714Y-33326190D01*
X43392857Y-33326190D01*
X43345238Y-33302380D01*
X43321428Y-33278571D01*
X42392857Y-31426190D02*
X42392857Y-30926190D01*
X42511904Y-30926190D01*
X42583333Y-30950000D01*
X42630952Y-30997619D01*
X42654761Y-31045238D01*
X42678571Y-31140476D01*
X42678571Y-31211904D01*
X42654761Y-31307142D01*
X42630952Y-31354761D01*
X42583333Y-31402380D01*
X42511904Y-31426190D01*
X42392857Y-31426190D01*
X43154761Y-31426190D02*
X42869047Y-31426190D01*
X43011904Y-31426190D02*
X43011904Y-30926190D01*
X42964285Y-30997619D01*
X42916666Y-31045238D01*
X42869047Y-31069047D01*
X43464285Y-30926190D02*
X43511904Y-30926190D01*
X43559523Y-30950000D01*
X43583333Y-30973809D01*
X43607142Y-31021428D01*
X43630952Y-31116666D01*
X43630952Y-31235714D01*
X43607142Y-31330952D01*
X43583333Y-31378571D01*
X43559523Y-31402380D01*
X43511904Y-31426190D01*
X43464285Y-31426190D01*
X43416666Y-31402380D01*
X43392857Y-31378571D01*
X43369047Y-31330952D01*
X43345238Y-31235714D01*
X43345238Y-31116666D01*
X43369047Y-31021428D01*
X43392857Y-30973809D01*
X43416666Y-30950000D01*
X43464285Y-30926190D01*
X42580952Y-37076190D02*
X42580952Y-36576190D01*
X42700000Y-36576190D01*
X42771428Y-36600000D01*
X42819047Y-36647619D01*
X42842857Y-36695238D01*
X42866666Y-36790476D01*
X42866666Y-36861904D01*
X42842857Y-36957142D01*
X42819047Y-37004761D01*
X42771428Y-37052380D01*
X42700000Y-37076190D01*
X42580952Y-37076190D01*
X43295238Y-36576190D02*
X43200000Y-36576190D01*
X43152380Y-36600000D01*
X43128571Y-36623809D01*
X43080952Y-36695238D01*
X43057142Y-36790476D01*
X43057142Y-36980952D01*
X43080952Y-37028571D01*
X43104761Y-37052380D01*
X43152380Y-37076190D01*
X43247619Y-37076190D01*
X43295238Y-37052380D01*
X43319047Y-37028571D01*
X43342857Y-36980952D01*
X43342857Y-36861904D01*
X43319047Y-36814285D01*
X43295238Y-36790476D01*
X43247619Y-36766666D01*
X43152380Y-36766666D01*
X43104761Y-36790476D01*
X43080952Y-36814285D01*
X43057142Y-36861904D01*
X43230952Y-47976190D02*
X43230952Y-47476190D01*
X43350000Y-47476190D01*
X43421428Y-47500000D01*
X43469047Y-47547619D01*
X43492857Y-47595238D01*
X43516666Y-47690476D01*
X43516666Y-47761904D01*
X43492857Y-47857142D01*
X43469047Y-47904761D01*
X43421428Y-47952380D01*
X43350000Y-47976190D01*
X43230952Y-47976190D01*
X43969047Y-47476190D02*
X43730952Y-47476190D01*
X43707142Y-47714285D01*
X43730952Y-47690476D01*
X43778571Y-47666666D01*
X43897619Y-47666666D01*
X43945238Y-47690476D01*
X43969047Y-47714285D01*
X43992857Y-47761904D01*
X43992857Y-47880952D01*
X43969047Y-47928571D01*
X43945238Y-47952380D01*
X43897619Y-47976190D01*
X43778571Y-47976190D01*
X43730952Y-47952380D01*
X43707142Y-47928571D01*
X45180952Y-47876190D02*
X45180952Y-47376190D01*
X45300000Y-47376190D01*
X45371428Y-47400000D01*
X45419047Y-47447619D01*
X45442857Y-47495238D01*
X45466666Y-47590476D01*
X45466666Y-47661904D01*
X45442857Y-47757142D01*
X45419047Y-47804761D01*
X45371428Y-47852380D01*
X45300000Y-47876190D01*
X45180952Y-47876190D01*
X45657142Y-47423809D02*
X45680952Y-47400000D01*
X45728571Y-47376190D01*
X45847619Y-47376190D01*
X45895238Y-47400000D01*
X45919047Y-47423809D01*
X45942857Y-47471428D01*
X45942857Y-47519047D01*
X45919047Y-47590476D01*
X45633333Y-47876190D01*
X45942857Y-47876190D01*
X61478571Y-54526190D02*
X61311904Y-54288095D01*
X61192857Y-54526190D02*
X61192857Y-54026190D01*
X61383333Y-54026190D01*
X61430952Y-54050000D01*
X61454761Y-54073809D01*
X61478571Y-54121428D01*
X61478571Y-54192857D01*
X61454761Y-54240476D01*
X61430952Y-54264285D01*
X61383333Y-54288095D01*
X61192857Y-54288095D01*
X61907142Y-54192857D02*
X61907142Y-54526190D01*
X61788095Y-54002380D02*
X61669047Y-54359523D01*
X61978571Y-54359523D01*
X62383333Y-54026190D02*
X62288095Y-54026190D01*
X62240476Y-54050000D01*
X62216666Y-54073809D01*
X62169047Y-54145238D01*
X62145238Y-54240476D01*
X62145238Y-54430952D01*
X62169047Y-54478571D01*
X62192857Y-54502380D01*
X62240476Y-54526190D01*
X62335714Y-54526190D01*
X62383333Y-54502380D01*
X62407142Y-54478571D01*
X62430952Y-54430952D01*
X62430952Y-54311904D01*
X62407142Y-54264285D01*
X62383333Y-54240476D01*
X62335714Y-54216666D01*
X62240476Y-54216666D01*
X62192857Y-54240476D01*
X62169047Y-54264285D01*
X62145238Y-54311904D01*
X60128571Y-54526190D02*
X59961904Y-54288095D01*
X59842857Y-54526190D02*
X59842857Y-54026190D01*
X60033333Y-54026190D01*
X60080952Y-54050000D01*
X60104761Y-54073809D01*
X60128571Y-54121428D01*
X60128571Y-54192857D01*
X60104761Y-54240476D01*
X60080952Y-54264285D01*
X60033333Y-54288095D01*
X59842857Y-54288095D01*
X60557142Y-54192857D02*
X60557142Y-54526190D01*
X60438095Y-54002380D02*
X60319047Y-54359523D01*
X60628571Y-54359523D01*
X61057142Y-54026190D02*
X60819047Y-54026190D01*
X60795238Y-54264285D01*
X60819047Y-54240476D01*
X60866666Y-54216666D01*
X60985714Y-54216666D01*
X61033333Y-54240476D01*
X61057142Y-54264285D01*
X61080952Y-54311904D01*
X61080952Y-54430952D01*
X61057142Y-54478571D01*
X61033333Y-54502380D01*
X60985714Y-54526190D01*
X60866666Y-54526190D01*
X60819047Y-54502380D01*
X60795238Y-54478571D01*
X31778571Y-27826190D02*
X31611904Y-27588095D01*
X31492857Y-27826190D02*
X31492857Y-27326190D01*
X31683333Y-27326190D01*
X31730952Y-27350000D01*
X31754761Y-27373809D01*
X31778571Y-27421428D01*
X31778571Y-27492857D01*
X31754761Y-27540476D01*
X31730952Y-27564285D01*
X31683333Y-27588095D01*
X31492857Y-27588095D01*
X31945238Y-27326190D02*
X32254761Y-27326190D01*
X32088095Y-27516666D01*
X32159523Y-27516666D01*
X32207142Y-27540476D01*
X32230952Y-27564285D01*
X32254761Y-27611904D01*
X32254761Y-27730952D01*
X32230952Y-27778571D01*
X32207142Y-27802380D01*
X32159523Y-27826190D01*
X32016666Y-27826190D01*
X31969047Y-27802380D01*
X31945238Y-27778571D01*
X32492857Y-27826190D02*
X32588095Y-27826190D01*
X32635714Y-27802380D01*
X32659523Y-27778571D01*
X32707142Y-27707142D01*
X32730952Y-27611904D01*
X32730952Y-27421428D01*
X32707142Y-27373809D01*
X32683333Y-27350000D01*
X32635714Y-27326190D01*
X32540476Y-27326190D01*
X32492857Y-27350000D01*
X32469047Y-27373809D01*
X32445238Y-27421428D01*
X32445238Y-27540476D01*
X32469047Y-27588095D01*
X32492857Y-27611904D01*
X32540476Y-27635714D01*
X32635714Y-27635714D01*
X32683333Y-27611904D01*
X32707142Y-27588095D01*
X32730952Y-27540476D01*
X39468571Y-47216190D02*
X39301904Y-46978095D01*
X39182857Y-47216190D02*
X39182857Y-46716190D01*
X39373333Y-46716190D01*
X39420952Y-46740000D01*
X39444761Y-46763809D01*
X39468571Y-46811428D01*
X39468571Y-46882857D01*
X39444761Y-46930476D01*
X39420952Y-46954285D01*
X39373333Y-46978095D01*
X39182857Y-46978095D01*
X39635238Y-46716190D02*
X39944761Y-46716190D01*
X39778095Y-46906666D01*
X39849523Y-46906666D01*
X39897142Y-46930476D01*
X39920952Y-46954285D01*
X39944761Y-47001904D01*
X39944761Y-47120952D01*
X39920952Y-47168571D01*
X39897142Y-47192380D01*
X39849523Y-47216190D01*
X39706666Y-47216190D01*
X39659047Y-47192380D01*
X39635238Y-47168571D01*
X40230476Y-46930476D02*
X40182857Y-46906666D01*
X40159047Y-46882857D01*
X40135238Y-46835238D01*
X40135238Y-46811428D01*
X40159047Y-46763809D01*
X40182857Y-46740000D01*
X40230476Y-46716190D01*
X40325714Y-46716190D01*
X40373333Y-46740000D01*
X40397142Y-46763809D01*
X40420952Y-46811428D01*
X40420952Y-46835238D01*
X40397142Y-46882857D01*
X40373333Y-46906666D01*
X40325714Y-46930476D01*
X40230476Y-46930476D01*
X40182857Y-46954285D01*
X40159047Y-46978095D01*
X40135238Y-47025714D01*
X40135238Y-47120952D01*
X40159047Y-47168571D01*
X40182857Y-47192380D01*
X40230476Y-47216190D01*
X40325714Y-47216190D01*
X40373333Y-47192380D01*
X40397142Y-47168571D01*
X40420952Y-47120952D01*
X40420952Y-47025714D01*
X40397142Y-46978095D01*
X40373333Y-46954285D01*
X40325714Y-46930476D01*
X40878571Y-47216190D02*
X40711904Y-46978095D01*
X40592857Y-47216190D02*
X40592857Y-46716190D01*
X40783333Y-46716190D01*
X40830952Y-46740000D01*
X40854761Y-46763809D01*
X40878571Y-46811428D01*
X40878571Y-46882857D01*
X40854761Y-46930476D01*
X40830952Y-46954285D01*
X40783333Y-46978095D01*
X40592857Y-46978095D01*
X41045238Y-46716190D02*
X41354761Y-46716190D01*
X41188095Y-46906666D01*
X41259523Y-46906666D01*
X41307142Y-46930476D01*
X41330952Y-46954285D01*
X41354761Y-47001904D01*
X41354761Y-47120952D01*
X41330952Y-47168571D01*
X41307142Y-47192380D01*
X41259523Y-47216190D01*
X41116666Y-47216190D01*
X41069047Y-47192380D01*
X41045238Y-47168571D01*
X41521428Y-46716190D02*
X41854761Y-46716190D01*
X41640476Y-47216190D01*
X68626190Y-55621428D02*
X68388095Y-55788095D01*
X68626190Y-55907142D02*
X68126190Y-55907142D01*
X68126190Y-55716666D01*
X68150000Y-55669047D01*
X68173809Y-55645238D01*
X68221428Y-55621428D01*
X68292857Y-55621428D01*
X68340476Y-55645238D01*
X68364285Y-55669047D01*
X68388095Y-55716666D01*
X68388095Y-55907142D01*
X68126190Y-55454761D02*
X68126190Y-55145238D01*
X68316666Y-55311904D01*
X68316666Y-55240476D01*
X68340476Y-55192857D01*
X68364285Y-55169047D01*
X68411904Y-55145238D01*
X68530952Y-55145238D01*
X68578571Y-55169047D01*
X68602380Y-55192857D01*
X68626190Y-55240476D01*
X68626190Y-55383333D01*
X68602380Y-55430952D01*
X68578571Y-55454761D01*
X68173809Y-54954761D02*
X68150000Y-54930952D01*
X68126190Y-54883333D01*
X68126190Y-54764285D01*
X68150000Y-54716666D01*
X68173809Y-54692857D01*
X68221428Y-54669047D01*
X68269047Y-54669047D01*
X68340476Y-54692857D01*
X68626190Y-54978571D01*
X68626190Y-54669047D01*
X22178571Y-29776190D02*
X22011904Y-29538095D01*
X21892857Y-29776190D02*
X21892857Y-29276190D01*
X22083333Y-29276190D01*
X22130952Y-29300000D01*
X22154761Y-29323809D01*
X22178571Y-29371428D01*
X22178571Y-29442857D01*
X22154761Y-29490476D01*
X22130952Y-29514285D01*
X22083333Y-29538095D01*
X21892857Y-29538095D01*
X22369047Y-29323809D02*
X22392857Y-29300000D01*
X22440476Y-29276190D01*
X22559523Y-29276190D01*
X22607142Y-29300000D01*
X22630952Y-29323809D01*
X22654761Y-29371428D01*
X22654761Y-29419047D01*
X22630952Y-29490476D01*
X22345238Y-29776190D01*
X22654761Y-29776190D01*
X23130952Y-29776190D02*
X22845238Y-29776190D01*
X22988095Y-29776190D02*
X22988095Y-29276190D01*
X22940476Y-29347619D01*
X22892857Y-29395238D01*
X22845238Y-29419047D01*
X33478571Y-29176190D02*
X33311904Y-28938095D01*
X33192857Y-29176190D02*
X33192857Y-28676190D01*
X33383333Y-28676190D01*
X33430952Y-28700000D01*
X33454761Y-28723809D01*
X33478571Y-28771428D01*
X33478571Y-28842857D01*
X33454761Y-28890476D01*
X33430952Y-28914285D01*
X33383333Y-28938095D01*
X33192857Y-28938095D01*
X33669047Y-28723809D02*
X33692857Y-28700000D01*
X33740476Y-28676190D01*
X33859523Y-28676190D01*
X33907142Y-28700000D01*
X33930952Y-28723809D01*
X33954761Y-28771428D01*
X33954761Y-28819047D01*
X33930952Y-28890476D01*
X33645238Y-29176190D01*
X33954761Y-29176190D01*
X34264285Y-28676190D02*
X34311904Y-28676190D01*
X34359523Y-28700000D01*
X34383333Y-28723809D01*
X34407142Y-28771428D01*
X34430952Y-28866666D01*
X34430952Y-28985714D01*
X34407142Y-29080952D01*
X34383333Y-29128571D01*
X34359523Y-29152380D01*
X34311904Y-29176190D01*
X34264285Y-29176190D01*
X34216666Y-29152380D01*
X34192857Y-29128571D01*
X34169047Y-29080952D01*
X34145238Y-28985714D01*
X34145238Y-28866666D01*
X34169047Y-28771428D01*
X34192857Y-28723809D01*
X34216666Y-28700000D01*
X34264285Y-28676190D01*
X42916666Y-55626190D02*
X42750000Y-55388095D01*
X42630952Y-55626190D02*
X42630952Y-55126190D01*
X42821428Y-55126190D01*
X42869047Y-55150000D01*
X42892857Y-55173809D01*
X42916666Y-55221428D01*
X42916666Y-55292857D01*
X42892857Y-55340476D01*
X42869047Y-55364285D01*
X42821428Y-55388095D01*
X42630952Y-55388095D01*
X43083333Y-55126190D02*
X43416666Y-55126190D01*
X43202380Y-55626190D01*
X74616666Y-51376190D02*
X74450000Y-51138095D01*
X74330952Y-51376190D02*
X74330952Y-50876190D01*
X74521428Y-50876190D01*
X74569047Y-50900000D01*
X74592857Y-50923809D01*
X74616666Y-50971428D01*
X74616666Y-51042857D01*
X74592857Y-51090476D01*
X74569047Y-51114285D01*
X74521428Y-51138095D01*
X74330952Y-51138095D01*
X75069047Y-50876190D02*
X74830952Y-50876190D01*
X74807142Y-51114285D01*
X74830952Y-51090476D01*
X74878571Y-51066666D01*
X74997619Y-51066666D01*
X75045238Y-51090476D01*
X75069047Y-51114285D01*
X75092857Y-51161904D01*
X75092857Y-51280952D01*
X75069047Y-51328571D01*
X75045238Y-51352380D01*
X74997619Y-51376190D01*
X74878571Y-51376190D01*
X74830952Y-51352380D01*
X74807142Y-51328571D01*
X68316666Y-51376190D02*
X68150000Y-51138095D01*
X68030952Y-51376190D02*
X68030952Y-50876190D01*
X68221428Y-50876190D01*
X68269047Y-50900000D01*
X68292857Y-50923809D01*
X68316666Y-50971428D01*
X68316666Y-51042857D01*
X68292857Y-51090476D01*
X68269047Y-51114285D01*
X68221428Y-51138095D01*
X68030952Y-51138095D01*
X68745238Y-51042857D02*
X68745238Y-51376190D01*
X68626190Y-50852380D02*
X68507142Y-51209523D01*
X68816666Y-51209523D01*
X42916666Y-59976190D02*
X42750000Y-59738095D01*
X42630952Y-59976190D02*
X42630952Y-59476190D01*
X42821428Y-59476190D01*
X42869047Y-59500000D01*
X42892857Y-59523809D01*
X42916666Y-59571428D01*
X42916666Y-59642857D01*
X42892857Y-59690476D01*
X42869047Y-59714285D01*
X42821428Y-59738095D01*
X42630952Y-59738095D01*
X43392857Y-59976190D02*
X43107142Y-59976190D01*
X43250000Y-59976190D02*
X43250000Y-59476190D01*
X43202380Y-59547619D01*
X43154761Y-59595238D01*
X43107142Y-59619047D01*
X34616666Y-63426190D02*
X34378571Y-63426190D01*
X34378571Y-62926190D01*
X34759523Y-62973809D02*
X34783333Y-62950000D01*
X34830952Y-62926190D01*
X34950000Y-62926190D01*
X34997619Y-62950000D01*
X35021428Y-62973809D01*
X35045238Y-63021428D01*
X35045238Y-63069047D01*
X35021428Y-63140476D01*
X34735714Y-63426190D01*
X35045238Y-63426190D01*
X54792857Y-29226190D02*
X54792857Y-28726190D01*
X54911904Y-28726190D01*
X54983333Y-28750000D01*
X55030952Y-28797619D01*
X55054761Y-28845238D01*
X55078571Y-28940476D01*
X55078571Y-29011904D01*
X55054761Y-29107142D01*
X55030952Y-29154761D01*
X54983333Y-29202380D01*
X54911904Y-29226190D01*
X54792857Y-29226190D01*
X55554761Y-29226190D02*
X55269047Y-29226190D01*
X55411904Y-29226190D02*
X55411904Y-28726190D01*
X55364285Y-28797619D01*
X55316666Y-28845238D01*
X55269047Y-28869047D01*
X55745238Y-28773809D02*
X55769047Y-28750000D01*
X55816666Y-28726190D01*
X55935714Y-28726190D01*
X55983333Y-28750000D01*
X56007142Y-28773809D01*
X56030952Y-28821428D01*
X56030952Y-28869047D01*
X56007142Y-28940476D01*
X55721428Y-29226190D01*
X56030952Y-29226190D01*
X46042857Y-29226190D02*
X46042857Y-28726190D01*
X46161904Y-28726190D01*
X46233333Y-28750000D01*
X46280952Y-28797619D01*
X46304761Y-28845238D01*
X46328571Y-28940476D01*
X46328571Y-29011904D01*
X46304761Y-29107142D01*
X46280952Y-29154761D01*
X46233333Y-29202380D01*
X46161904Y-29226190D01*
X46042857Y-29226190D01*
X46804761Y-29226190D02*
X46519047Y-29226190D01*
X46661904Y-29226190D02*
X46661904Y-28726190D01*
X46614285Y-28797619D01*
X46566666Y-28845238D01*
X46519047Y-28869047D01*
X47280952Y-29226190D02*
X46995238Y-29226190D01*
X47138095Y-29226190D02*
X47138095Y-28726190D01*
X47090476Y-28797619D01*
X47042857Y-28845238D01*
X46995238Y-28869047D01*
X54780952Y-43126190D02*
X54780952Y-42626190D01*
X54900000Y-42626190D01*
X54971428Y-42650000D01*
X55019047Y-42697619D01*
X55042857Y-42745238D01*
X55066666Y-42840476D01*
X55066666Y-42911904D01*
X55042857Y-43007142D01*
X55019047Y-43054761D01*
X54971428Y-43102380D01*
X54900000Y-43126190D01*
X54780952Y-43126190D01*
X55304761Y-43126190D02*
X55400000Y-43126190D01*
X55447619Y-43102380D01*
X55471428Y-43078571D01*
X55519047Y-43007142D01*
X55542857Y-42911904D01*
X55542857Y-42721428D01*
X55519047Y-42673809D01*
X55495238Y-42650000D01*
X55447619Y-42626190D01*
X55352380Y-42626190D01*
X55304761Y-42650000D01*
X55280952Y-42673809D01*
X55257142Y-42721428D01*
X55257142Y-42840476D01*
X55280952Y-42888095D01*
X55304761Y-42911904D01*
X55352380Y-42935714D01*
X55447619Y-42935714D01*
X55495238Y-42911904D01*
X55519047Y-42888095D01*
X55542857Y-42840476D01*
X46430952Y-43126190D02*
X46430952Y-42626190D01*
X46550000Y-42626190D01*
X46621428Y-42650000D01*
X46669047Y-42697619D01*
X46692857Y-42745238D01*
X46716666Y-42840476D01*
X46716666Y-42911904D01*
X46692857Y-43007142D01*
X46669047Y-43054761D01*
X46621428Y-43102380D01*
X46550000Y-43126190D01*
X46430952Y-43126190D01*
X47002380Y-42840476D02*
X46954761Y-42816666D01*
X46930952Y-42792857D01*
X46907142Y-42745238D01*
X46907142Y-42721428D01*
X46930952Y-42673809D01*
X46954761Y-42650000D01*
X47002380Y-42626190D01*
X47097619Y-42626190D01*
X47145238Y-42650000D01*
X47169047Y-42673809D01*
X47192857Y-42721428D01*
X47192857Y-42745238D01*
X47169047Y-42792857D01*
X47145238Y-42816666D01*
X47097619Y-42840476D01*
X47002380Y-42840476D01*
X46954761Y-42864285D01*
X46930952Y-42888095D01*
X46907142Y-42935714D01*
X46907142Y-43030952D01*
X46930952Y-43078571D01*
X46954761Y-43102380D01*
X47002380Y-43126190D01*
X47097619Y-43126190D01*
X47145238Y-43102380D01*
X47169047Y-43078571D01*
X47192857Y-43030952D01*
X47192857Y-42935714D01*
X47169047Y-42888095D01*
X47145238Y-42864285D01*
X47097619Y-42840476D01*
X54780952Y-57326190D02*
X54780952Y-56826190D01*
X54900000Y-56826190D01*
X54971428Y-56850000D01*
X55019047Y-56897619D01*
X55042857Y-56945238D01*
X55066666Y-57040476D01*
X55066666Y-57111904D01*
X55042857Y-57207142D01*
X55019047Y-57254761D01*
X54971428Y-57302380D01*
X54900000Y-57326190D01*
X54780952Y-57326190D01*
X55495238Y-56992857D02*
X55495238Y-57326190D01*
X55376190Y-56802380D02*
X55257142Y-57159523D01*
X55566666Y-57159523D01*
X46330952Y-57326190D02*
X46330952Y-56826190D01*
X46450000Y-56826190D01*
X46521428Y-56850000D01*
X46569047Y-56897619D01*
X46592857Y-56945238D01*
X46616666Y-57040476D01*
X46616666Y-57111904D01*
X46592857Y-57207142D01*
X46569047Y-57254761D01*
X46521428Y-57302380D01*
X46450000Y-57326190D01*
X46330952Y-57326190D01*
X46783333Y-56826190D02*
X47092857Y-56826190D01*
X46926190Y-57016666D01*
X46997619Y-57016666D01*
X47045238Y-57040476D01*
X47069047Y-57064285D01*
X47092857Y-57111904D01*
X47092857Y-57230952D01*
X47069047Y-57278571D01*
X47045238Y-57302380D01*
X46997619Y-57326190D01*
X46854761Y-57326190D01*
X46807142Y-57302380D01*
X46783333Y-57278571D01*
X60178571Y-35478571D02*
X60154761Y-35502380D01*
X60083333Y-35526190D01*
X60035714Y-35526190D01*
X59964285Y-35502380D01*
X59916666Y-35454761D01*
X59892857Y-35407142D01*
X59869047Y-35311904D01*
X59869047Y-35240476D01*
X59892857Y-35145238D01*
X59916666Y-35097619D01*
X59964285Y-35050000D01*
X60035714Y-35026190D01*
X60083333Y-35026190D01*
X60154761Y-35050000D01*
X60178571Y-35073809D01*
X60607142Y-35192857D02*
X60607142Y-35526190D01*
X60488095Y-35002380D02*
X60369047Y-35359523D01*
X60678571Y-35359523D01*
X61107142Y-35026190D02*
X60869047Y-35026190D01*
X60845238Y-35264285D01*
X60869047Y-35240476D01*
X60916666Y-35216666D01*
X61035714Y-35216666D01*
X61083333Y-35240476D01*
X61107142Y-35264285D01*
X61130952Y-35311904D01*
X61130952Y-35430952D01*
X61107142Y-35478571D01*
X61083333Y-35502380D01*
X61035714Y-35526190D01*
X60916666Y-35526190D01*
X60869047Y-35502380D01*
X60845238Y-35478571D01*
X63646446Y-36248984D02*
X63612774Y-36248984D01*
X63545431Y-36215312D01*
X63511759Y-36181641D01*
X63478087Y-36114297D01*
X63478087Y-36046954D01*
X63494923Y-35996446D01*
X63545431Y-35912267D01*
X63595938Y-35861759D01*
X63680118Y-35811251D01*
X63730625Y-35794416D01*
X63797969Y-35794416D01*
X63865312Y-35828087D01*
X63898984Y-35861759D01*
X63932656Y-35929103D01*
X63932656Y-35962774D01*
X64151522Y-36350000D02*
X63915820Y-36585702D01*
X64202030Y-36131133D02*
X63865312Y-36299492D01*
X64084179Y-36518358D01*
X64488240Y-36686717D02*
X64252538Y-36922419D01*
X64538748Y-36467851D02*
X64202030Y-36636209D01*
X64420896Y-36855076D01*
X61778571Y-31578571D02*
X61754761Y-31602380D01*
X61683333Y-31626190D01*
X61635714Y-31626190D01*
X61564285Y-31602380D01*
X61516666Y-31554761D01*
X61492857Y-31507142D01*
X61469047Y-31411904D01*
X61469047Y-31340476D01*
X61492857Y-31245238D01*
X61516666Y-31197619D01*
X61564285Y-31150000D01*
X61635714Y-31126190D01*
X61683333Y-31126190D01*
X61754761Y-31150000D01*
X61778571Y-31173809D01*
X62207142Y-31292857D02*
X62207142Y-31626190D01*
X62088095Y-31102380D02*
X61969047Y-31459523D01*
X62278571Y-31459523D01*
X62445238Y-31173809D02*
X62469047Y-31150000D01*
X62516666Y-31126190D01*
X62635714Y-31126190D01*
X62683333Y-31150000D01*
X62707142Y-31173809D01*
X62730952Y-31221428D01*
X62730952Y-31269047D01*
X62707142Y-31340476D01*
X62421428Y-31626190D01*
X62730952Y-31626190D01*
X22178571Y-29128571D02*
X22154761Y-29152380D01*
X22083333Y-29176190D01*
X22035714Y-29176190D01*
X21964285Y-29152380D01*
X21916666Y-29104761D01*
X21892857Y-29057142D01*
X21869047Y-28961904D01*
X21869047Y-28890476D01*
X21892857Y-28795238D01*
X21916666Y-28747619D01*
X21964285Y-28700000D01*
X22035714Y-28676190D01*
X22083333Y-28676190D01*
X22154761Y-28700000D01*
X22178571Y-28723809D01*
X22607142Y-28842857D02*
X22607142Y-29176190D01*
X22488095Y-28652380D02*
X22369047Y-29009523D01*
X22678571Y-29009523D01*
X22964285Y-28676190D02*
X23011904Y-28676190D01*
X23059523Y-28700000D01*
X23083333Y-28723809D01*
X23107142Y-28771428D01*
X23130952Y-28866666D01*
X23130952Y-28985714D01*
X23107142Y-29080952D01*
X23083333Y-29128571D01*
X23059523Y-29152380D01*
X23011904Y-29176190D01*
X22964285Y-29176190D01*
X22916666Y-29152380D01*
X22892857Y-29128571D01*
X22869047Y-29080952D01*
X22845238Y-28985714D01*
X22845238Y-28866666D01*
X22869047Y-28771428D01*
X22892857Y-28723809D01*
X22916666Y-28700000D01*
X22964285Y-28676190D01*
X22178571Y-28528571D02*
X22154761Y-28552380D01*
X22083333Y-28576190D01*
X22035714Y-28576190D01*
X21964285Y-28552380D01*
X21916666Y-28504761D01*
X21892857Y-28457142D01*
X21869047Y-28361904D01*
X21869047Y-28290476D01*
X21892857Y-28195238D01*
X21916666Y-28147619D01*
X21964285Y-28100000D01*
X22035714Y-28076190D01*
X22083333Y-28076190D01*
X22154761Y-28100000D01*
X22178571Y-28123809D01*
X22345238Y-28076190D02*
X22654761Y-28076190D01*
X22488095Y-28266666D01*
X22559523Y-28266666D01*
X22607142Y-28290476D01*
X22630952Y-28314285D01*
X22654761Y-28361904D01*
X22654761Y-28480952D01*
X22630952Y-28528571D01*
X22607142Y-28552380D01*
X22559523Y-28576190D01*
X22416666Y-28576190D01*
X22369047Y-28552380D01*
X22345238Y-28528571D01*
X22892857Y-28576190D02*
X22988095Y-28576190D01*
X23035714Y-28552380D01*
X23059523Y-28528571D01*
X23107142Y-28457142D01*
X23130952Y-28361904D01*
X23130952Y-28171428D01*
X23107142Y-28123809D01*
X23083333Y-28100000D01*
X23035714Y-28076190D01*
X22940476Y-28076190D01*
X22892857Y-28100000D01*
X22869047Y-28123809D01*
X22845238Y-28171428D01*
X22845238Y-28290476D01*
X22869047Y-28338095D01*
X22892857Y-28361904D01*
X22940476Y-28385714D01*
X23035714Y-28385714D01*
X23083333Y-28361904D01*
X23107142Y-28338095D01*
X23130952Y-28290476D01*
X59278570Y-33928571D02*
X59254760Y-33952380D01*
X59183332Y-33976190D01*
X59135713Y-33976190D01*
X59064284Y-33952380D01*
X59016665Y-33904761D01*
X58992856Y-33857142D01*
X58969046Y-33761904D01*
X58969046Y-33690476D01*
X58992856Y-33595238D01*
X59016665Y-33547619D01*
X59064284Y-33500000D01*
X59135713Y-33476190D01*
X59183332Y-33476190D01*
X59254760Y-33500000D01*
X59278570Y-33523809D01*
X59445237Y-33476190D02*
X59754760Y-33476190D01*
X59588094Y-33666666D01*
X59659522Y-33666666D01*
X59707141Y-33690476D01*
X59730951Y-33714285D01*
X59754760Y-33761904D01*
X59754760Y-33880952D01*
X59730951Y-33928571D01*
X59707141Y-33952380D01*
X59659522Y-33976190D01*
X59516665Y-33976190D01*
X59469046Y-33952380D01*
X59445237Y-33928571D01*
X60230951Y-33976190D02*
X59945237Y-33976190D01*
X60088094Y-33976190D02*
X60088094Y-33476190D01*
X60040475Y-33547619D01*
X59992856Y-33595238D01*
X59945237Y-33619047D01*
X60278571Y-38478571D02*
X60254761Y-38502380D01*
X60183333Y-38526190D01*
X60135714Y-38526190D01*
X60064285Y-38502380D01*
X60016666Y-38454761D01*
X59992857Y-38407142D01*
X59969047Y-38311904D01*
X59969047Y-38240476D01*
X59992857Y-38145238D01*
X60016666Y-38097619D01*
X60064285Y-38050000D01*
X60135714Y-38026190D01*
X60183333Y-38026190D01*
X60254761Y-38050000D01*
X60278571Y-38073809D01*
X60445238Y-38026190D02*
X60754761Y-38026190D01*
X60588095Y-38216666D01*
X60659523Y-38216666D01*
X60707142Y-38240476D01*
X60730952Y-38264285D01*
X60754761Y-38311904D01*
X60754761Y-38430952D01*
X60730952Y-38478571D01*
X60707142Y-38502380D01*
X60659523Y-38526190D01*
X60516666Y-38526190D01*
X60469047Y-38502380D01*
X60445238Y-38478571D01*
X61064285Y-38026190D02*
X61111904Y-38026190D01*
X61159523Y-38050000D01*
X61183333Y-38073809D01*
X61207142Y-38121428D01*
X61230952Y-38216666D01*
X61230952Y-38335714D01*
X61207142Y-38430952D01*
X61183333Y-38478571D01*
X61159523Y-38502380D01*
X61111904Y-38526190D01*
X61064285Y-38526190D01*
X61016666Y-38502380D01*
X60992857Y-38478571D01*
X60969047Y-38430952D01*
X60945238Y-38335714D01*
X60945238Y-38216666D01*
X60969047Y-38121428D01*
X60992857Y-38073809D01*
X61016666Y-38050000D01*
X61064285Y-38026190D01*
X70328571Y-39078571D02*
X70304761Y-39102380D01*
X70233333Y-39126190D01*
X70185714Y-39126190D01*
X70114285Y-39102380D01*
X70066666Y-39054761D01*
X70042857Y-39007142D01*
X70019047Y-38911904D01*
X70019047Y-38840476D01*
X70042857Y-38745238D01*
X70066666Y-38697619D01*
X70114285Y-38650000D01*
X70185714Y-38626190D01*
X70233333Y-38626190D01*
X70304761Y-38650000D01*
X70328571Y-38673809D01*
X70519047Y-38673809D02*
X70542857Y-38650000D01*
X70590476Y-38626190D01*
X70709523Y-38626190D01*
X70757142Y-38650000D01*
X70780952Y-38673809D01*
X70804761Y-38721428D01*
X70804761Y-38769047D01*
X70780952Y-38840476D01*
X70495238Y-39126190D01*
X70804761Y-39126190D01*
X71042857Y-39126190D02*
X71138095Y-39126190D01*
X71185714Y-39102380D01*
X71209523Y-39078571D01*
X71257142Y-39007142D01*
X71280952Y-38911904D01*
X71280952Y-38721428D01*
X71257142Y-38673809D01*
X71233333Y-38650000D01*
X71185714Y-38626190D01*
X71090476Y-38626190D01*
X71042857Y-38650000D01*
X71019047Y-38673809D01*
X70995238Y-38721428D01*
X70995238Y-38840476D01*
X71019047Y-38888095D01*
X71042857Y-38911904D01*
X71090476Y-38935714D01*
X71185714Y-38935714D01*
X71233333Y-38911904D01*
X71257142Y-38888095D01*
X71280952Y-38840476D01*
X41578571Y-57478571D02*
X41554761Y-57502380D01*
X41483333Y-57526190D01*
X41435714Y-57526190D01*
X41364285Y-57502380D01*
X41316666Y-57454761D01*
X41292857Y-57407142D01*
X41269047Y-57311904D01*
X41269047Y-57240476D01*
X41292857Y-57145238D01*
X41316666Y-57097619D01*
X41364285Y-57050000D01*
X41435714Y-57026190D01*
X41483333Y-57026190D01*
X41554761Y-57050000D01*
X41578571Y-57073809D01*
X41769047Y-57073809D02*
X41792857Y-57050000D01*
X41840476Y-57026190D01*
X41959523Y-57026190D01*
X42007142Y-57050000D01*
X42030952Y-57073809D01*
X42054761Y-57121428D01*
X42054761Y-57169047D01*
X42030952Y-57240476D01*
X41745238Y-57526190D01*
X42054761Y-57526190D01*
X42364285Y-57026190D02*
X42411904Y-57026190D01*
X42459523Y-57050000D01*
X42483333Y-57073809D01*
X42507142Y-57121428D01*
X42530952Y-57216666D01*
X42530952Y-57335714D01*
X42507142Y-57430952D01*
X42483333Y-57478571D01*
X42459523Y-57502380D01*
X42411904Y-57526190D01*
X42364285Y-57526190D01*
X42316666Y-57502380D01*
X42292857Y-57478571D01*
X42269047Y-57430952D01*
X42245238Y-57335714D01*
X42245238Y-57216666D01*
X42269047Y-57121428D01*
X42292857Y-57073809D01*
X42316666Y-57050000D01*
X42364285Y-57026190D01*
X61928571Y-32228571D02*
X61904761Y-32252380D01*
X61833333Y-32276190D01*
X61785714Y-32276190D01*
X61714285Y-32252380D01*
X61666666Y-32204761D01*
X61642857Y-32157142D01*
X61619047Y-32061904D01*
X61619047Y-31990476D01*
X61642857Y-31895238D01*
X61666666Y-31847619D01*
X61714285Y-31800000D01*
X61785714Y-31776190D01*
X61833333Y-31776190D01*
X61904761Y-31800000D01*
X61928571Y-31823809D01*
X62404761Y-32276190D02*
X62119047Y-32276190D01*
X62261904Y-32276190D02*
X62261904Y-31776190D01*
X62214285Y-31847619D01*
X62166666Y-31895238D01*
X62119047Y-31919047D01*
X62642857Y-32276190D02*
X62738095Y-32276190D01*
X62785714Y-32252380D01*
X62809523Y-32228571D01*
X62857142Y-32157142D01*
X62880952Y-32061904D01*
X62880952Y-31871428D01*
X62857142Y-31823809D01*
X62833333Y-31800000D01*
X62785714Y-31776190D01*
X62690476Y-31776190D01*
X62642857Y-31800000D01*
X62619047Y-31823809D01*
X62595238Y-31871428D01*
X62595238Y-31990476D01*
X62619047Y-32038095D01*
X62642857Y-32061904D01*
X62690476Y-32085714D01*
X62785714Y-32085714D01*
X62833333Y-32061904D01*
X62857142Y-32038095D01*
X62880952Y-31990476D01*
X48178571Y-33878571D02*
X48154761Y-33902380D01*
X48083333Y-33926190D01*
X48035714Y-33926190D01*
X47964285Y-33902380D01*
X47916666Y-33854761D01*
X47892857Y-33807142D01*
X47869047Y-33711904D01*
X47869047Y-33640476D01*
X47892857Y-33545238D01*
X47916666Y-33497619D01*
X47964285Y-33450000D01*
X48035714Y-33426190D01*
X48083333Y-33426190D01*
X48154761Y-33450000D01*
X48178571Y-33473809D01*
X48654761Y-33926190D02*
X48369047Y-33926190D01*
X48511904Y-33926190D02*
X48511904Y-33426190D01*
X48464285Y-33497619D01*
X48416666Y-33545238D01*
X48369047Y-33569047D01*
X48845238Y-33473809D02*
X48869047Y-33450000D01*
X48916666Y-33426190D01*
X49035714Y-33426190D01*
X49083333Y-33450000D01*
X49107142Y-33473809D01*
X49130952Y-33521428D01*
X49130952Y-33569047D01*
X49107142Y-33640476D01*
X48821428Y-33926190D01*
X49130952Y-33926190D01*
X48578571Y-47728571D02*
X48554761Y-47752380D01*
X48483333Y-47776190D01*
X48435714Y-47776190D01*
X48364285Y-47752380D01*
X48316666Y-47704761D01*
X48292857Y-47657142D01*
X48269047Y-47561904D01*
X48269047Y-47490476D01*
X48292857Y-47395238D01*
X48316666Y-47347619D01*
X48364285Y-47300000D01*
X48435714Y-47276190D01*
X48483333Y-47276190D01*
X48554761Y-47300000D01*
X48578571Y-47323809D01*
X49054761Y-47776190D02*
X48769047Y-47776190D01*
X48911904Y-47776190D02*
X48911904Y-47276190D01*
X48864285Y-47347619D01*
X48816666Y-47395238D01*
X48769047Y-47419047D01*
X49530952Y-47776190D02*
X49245238Y-47776190D01*
X49388095Y-47776190D02*
X49388095Y-47276190D01*
X49340476Y-47347619D01*
X49292857Y-47395238D01*
X49245238Y-47419047D01*
X62416666Y-30928571D02*
X62392857Y-30952380D01*
X62321428Y-30976190D01*
X62273809Y-30976190D01*
X62202380Y-30952380D01*
X62154761Y-30904761D01*
X62130952Y-30857142D01*
X62107142Y-30761904D01*
X62107142Y-30690476D01*
X62130952Y-30595238D01*
X62154761Y-30547619D01*
X62202380Y-30500000D01*
X62273809Y-30476190D01*
X62321428Y-30476190D01*
X62392857Y-30500000D01*
X62416666Y-30523809D01*
X62869047Y-30476190D02*
X62630952Y-30476190D01*
X62607142Y-30714285D01*
X62630952Y-30690476D01*
X62678571Y-30666666D01*
X62797619Y-30666666D01*
X62845238Y-30690476D01*
X62869047Y-30714285D01*
X62892857Y-30761904D01*
X62892857Y-30880952D01*
X62869047Y-30928571D01*
X62845238Y-30952380D01*
X62797619Y-30976190D01*
X62678571Y-30976190D01*
X62630952Y-30952380D01*
X62607142Y-30928571D01*
X65916666Y-25928571D02*
X65892857Y-25952380D01*
X65821428Y-25976190D01*
X65773809Y-25976190D01*
X65702380Y-25952380D01*
X65654761Y-25904761D01*
X65630952Y-25857142D01*
X65607142Y-25761904D01*
X65607142Y-25690476D01*
X65630952Y-25595238D01*
X65654761Y-25547619D01*
X65702380Y-25500000D01*
X65773809Y-25476190D01*
X65821428Y-25476190D01*
X65892857Y-25500000D01*
X65916666Y-25523809D01*
X66345238Y-25642857D02*
X66345238Y-25976190D01*
X66226190Y-25452380D02*
X66107142Y-25809523D01*
X66416666Y-25809523D01*
X46616666Y-59228571D02*
X46592857Y-59252380D01*
X46521428Y-59276190D01*
X46473809Y-59276190D01*
X46402380Y-59252380D01*
X46354761Y-59204761D01*
X46330952Y-59157142D01*
X46307142Y-59061904D01*
X46307142Y-58990476D01*
X46330952Y-58895238D01*
X46354761Y-58847619D01*
X46402380Y-58800000D01*
X46473809Y-58776190D01*
X46521428Y-58776190D01*
X46592857Y-58800000D01*
X46616666Y-58823809D01*
X47092857Y-59276190D02*
X46807142Y-59276190D01*
X46950000Y-59276190D02*
X46950000Y-58776190D01*
X46902380Y-58847619D01*
X46854761Y-58895238D01*
X46807142Y-58919047D01*
X77928571Y-28178571D02*
X77904761Y-28202380D01*
X77833333Y-28226190D01*
X77785714Y-28226190D01*
X77714285Y-28202380D01*
X77666666Y-28154761D01*
X77642857Y-28107142D01*
X77619047Y-28011904D01*
X77619047Y-27940476D01*
X77642857Y-27845238D01*
X77666666Y-27797619D01*
X77714285Y-27750000D01*
X77785714Y-27726190D01*
X77833333Y-27726190D01*
X77904761Y-27750000D01*
X77928571Y-27773809D01*
X78380952Y-27726190D02*
X78142857Y-27726190D01*
X78119047Y-27964285D01*
X78142857Y-27940476D01*
X78190476Y-27916666D01*
X78309523Y-27916666D01*
X78357142Y-27940476D01*
X78380952Y-27964285D01*
X78404761Y-28011904D01*
X78404761Y-28130952D01*
X78380952Y-28178571D01*
X78357142Y-28202380D01*
X78309523Y-28226190D01*
X78190476Y-28226190D01*
X78142857Y-28202380D01*
X78119047Y-28178571D01*
X78857142Y-27726190D02*
X78619047Y-27726190D01*
X78595238Y-27964285D01*
X78619047Y-27940476D01*
X78666666Y-27916666D01*
X78785714Y-27916666D01*
X78833333Y-27940476D01*
X78857142Y-27964285D01*
X78880952Y-28011904D01*
X78880952Y-28130952D01*
X78857142Y-28178571D01*
X78833333Y-28202380D01*
X78785714Y-28226190D01*
X78666666Y-28226190D01*
X78619047Y-28202380D01*
X78595238Y-28178571D01*
X28128571Y-29528571D02*
X28104761Y-29552380D01*
X28033333Y-29576190D01*
X27985714Y-29576190D01*
X27914285Y-29552380D01*
X27866666Y-29504761D01*
X27842857Y-29457142D01*
X27819047Y-29361904D01*
X27819047Y-29290476D01*
X27842857Y-29195238D01*
X27866666Y-29147619D01*
X27914285Y-29100000D01*
X27985714Y-29076190D01*
X28033333Y-29076190D01*
X28104761Y-29100000D01*
X28128571Y-29123809D01*
X28580952Y-29076190D02*
X28342857Y-29076190D01*
X28319047Y-29314285D01*
X28342857Y-29290476D01*
X28390476Y-29266666D01*
X28509523Y-29266666D01*
X28557142Y-29290476D01*
X28580952Y-29314285D01*
X28604761Y-29361904D01*
X28604761Y-29480952D01*
X28580952Y-29528571D01*
X28557142Y-29552380D01*
X28509523Y-29576190D01*
X28390476Y-29576190D01*
X28342857Y-29552380D01*
X28319047Y-29528571D01*
X29033333Y-29242857D02*
X29033333Y-29576190D01*
X28914285Y-29052380D02*
X28795238Y-29409523D01*
X29104761Y-29409523D01*
X63728571Y-58528571D02*
X63704761Y-58552380D01*
X63633333Y-58576190D01*
X63585714Y-58576190D01*
X63514285Y-58552380D01*
X63466666Y-58504761D01*
X63442857Y-58457142D01*
X63419047Y-58361904D01*
X63419047Y-58290476D01*
X63442857Y-58195238D01*
X63466666Y-58147619D01*
X63514285Y-58100000D01*
X63585714Y-58076190D01*
X63633333Y-58076190D01*
X63704761Y-58100000D01*
X63728571Y-58123809D01*
X63895238Y-58076190D02*
X64204761Y-58076190D01*
X64038095Y-58266666D01*
X64109523Y-58266666D01*
X64157142Y-58290476D01*
X64180952Y-58314285D01*
X64204761Y-58361904D01*
X64204761Y-58480952D01*
X64180952Y-58528571D01*
X64157142Y-58552380D01*
X64109523Y-58576190D01*
X63966666Y-58576190D01*
X63919047Y-58552380D01*
X63895238Y-58528571D01*
X64633333Y-58242857D02*
X64633333Y-58576190D01*
X64514285Y-58052380D02*
X64395238Y-58409523D01*
X64704761Y-58409523D01*
X68769047Y-28026190D02*
X68769047Y-28430952D01*
X68792857Y-28478571D01*
X68816666Y-28502380D01*
X68864285Y-28526190D01*
X68959523Y-28526190D01*
X69007142Y-28502380D01*
X69030952Y-28478571D01*
X69054761Y-28430952D01*
X69054761Y-28026190D01*
X69554761Y-28526190D02*
X69269047Y-28526190D01*
X69411904Y-28526190D02*
X69411904Y-28026190D01*
X69364285Y-28097619D01*
X69316666Y-28145238D01*
X69269047Y-28169047D01*
X26930952Y-60826190D02*
X26930952Y-60326190D01*
X27050000Y-60326190D01*
X27121428Y-60350000D01*
X27169047Y-60397619D01*
X27192857Y-60445238D01*
X27216666Y-60540476D01*
X27216666Y-60611904D01*
X27192857Y-60707142D01*
X27169047Y-60754761D01*
X27121428Y-60802380D01*
X27050000Y-60826190D01*
X26930952Y-60826190D01*
X27692857Y-60826190D02*
X27407142Y-60826190D01*
X27550000Y-60826190D02*
X27550000Y-60326190D01*
X27502380Y-60397619D01*
X27454761Y-60445238D01*
X27407142Y-60469047D01*
X40078571Y-48876190D02*
X39911904Y-48638095D01*
X39792857Y-48876190D02*
X39792857Y-48376190D01*
X39983333Y-48376190D01*
X40030952Y-48400000D01*
X40054761Y-48423809D01*
X40078571Y-48471428D01*
X40078571Y-48542857D01*
X40054761Y-48590476D01*
X40030952Y-48614285D01*
X39983333Y-48638095D01*
X39792857Y-48638095D01*
X40530952Y-48376190D02*
X40292857Y-48376190D01*
X40269047Y-48614285D01*
X40292857Y-48590476D01*
X40340476Y-48566666D01*
X40459523Y-48566666D01*
X40507142Y-48590476D01*
X40530952Y-48614285D01*
X40554761Y-48661904D01*
X40554761Y-48780952D01*
X40530952Y-48828571D01*
X40507142Y-48852380D01*
X40459523Y-48876190D01*
X40340476Y-48876190D01*
X40292857Y-48852380D01*
X40269047Y-48828571D01*
X40864285Y-48376190D02*
X40911904Y-48376190D01*
X40959523Y-48400000D01*
X40983333Y-48423809D01*
X41007142Y-48471428D01*
X41030952Y-48566666D01*
X41030952Y-48685714D01*
X41007142Y-48780952D01*
X40983333Y-48828571D01*
X40959523Y-48852380D01*
X40911904Y-48876190D01*
X40864285Y-48876190D01*
X40816666Y-48852380D01*
X40792857Y-48828571D01*
X40769047Y-48780952D01*
X40745238Y-48685714D01*
X40745238Y-48566666D01*
X40769047Y-48471428D01*
X40792857Y-48423809D01*
X40816666Y-48400000D01*
X40864285Y-48376190D01*
X28018571Y-34236190D02*
X27851904Y-33998095D01*
X27732857Y-34236190D02*
X27732857Y-33736190D01*
X27923333Y-33736190D01*
X27970952Y-33760000D01*
X27994761Y-33783809D01*
X28018571Y-33831428D01*
X28018571Y-33902857D01*
X27994761Y-33950476D01*
X27970952Y-33974285D01*
X27923333Y-33998095D01*
X27732857Y-33998095D01*
X28447142Y-33902857D02*
X28447142Y-34236190D01*
X28328095Y-33712380D02*
X28209047Y-34069523D01*
X28518571Y-34069523D01*
X28732857Y-34236190D02*
X28828095Y-34236190D01*
X28875714Y-34212380D01*
X28899523Y-34188571D01*
X28947142Y-34117142D01*
X28970952Y-34021904D01*
X28970952Y-33831428D01*
X28947142Y-33783809D01*
X28923333Y-33760000D01*
X28875714Y-33736190D01*
X28780476Y-33736190D01*
X28732857Y-33760000D01*
X28709047Y-33783809D01*
X28685238Y-33831428D01*
X28685238Y-33950476D01*
X28709047Y-33998095D01*
X28732857Y-34021904D01*
X28780476Y-34045714D01*
X28875714Y-34045714D01*
X28923333Y-34021904D01*
X28947142Y-33998095D01*
X28970952Y-33950476D01*
X28018571Y-34816190D02*
X27851904Y-34578095D01*
X27732857Y-34816190D02*
X27732857Y-34316190D01*
X27923333Y-34316190D01*
X27970952Y-34340000D01*
X27994761Y-34363809D01*
X28018571Y-34411428D01*
X28018571Y-34482857D01*
X27994761Y-34530476D01*
X27970952Y-34554285D01*
X27923333Y-34578095D01*
X27732857Y-34578095D01*
X28447142Y-34482857D02*
X28447142Y-34816190D01*
X28328095Y-34292380D02*
X28209047Y-34649523D01*
X28518571Y-34649523D01*
X28780476Y-34530476D02*
X28732857Y-34506666D01*
X28709047Y-34482857D01*
X28685238Y-34435238D01*
X28685238Y-34411428D01*
X28709047Y-34363809D01*
X28732857Y-34340000D01*
X28780476Y-34316190D01*
X28875714Y-34316190D01*
X28923333Y-34340000D01*
X28947142Y-34363809D01*
X28970952Y-34411428D01*
X28970952Y-34435238D01*
X28947142Y-34482857D01*
X28923333Y-34506666D01*
X28875714Y-34530476D01*
X28780476Y-34530476D01*
X28732857Y-34554285D01*
X28709047Y-34578095D01*
X28685238Y-34625714D01*
X28685238Y-34720952D01*
X28709047Y-34768571D01*
X28732857Y-34792380D01*
X28780476Y-34816190D01*
X28875714Y-34816190D01*
X28923333Y-34792380D01*
X28947142Y-34768571D01*
X28970952Y-34720952D01*
X28970952Y-34625714D01*
X28947142Y-34578095D01*
X28923333Y-34554285D01*
X28875714Y-34530476D01*
X28028571Y-39656190D02*
X27861904Y-39418095D01*
X27742857Y-39656190D02*
X27742857Y-39156190D01*
X27933333Y-39156190D01*
X27980952Y-39180000D01*
X28004761Y-39203809D01*
X28028571Y-39251428D01*
X28028571Y-39322857D01*
X28004761Y-39370476D01*
X27980952Y-39394285D01*
X27933333Y-39418095D01*
X27742857Y-39418095D01*
X28457142Y-39322857D02*
X28457142Y-39656190D01*
X28338095Y-39132380D02*
X28219047Y-39489523D01*
X28528571Y-39489523D01*
X28671428Y-39156190D02*
X29004761Y-39156190D01*
X28790476Y-39656190D01*
X22678571Y-65026190D02*
X22511904Y-64788095D01*
X22392857Y-65026190D02*
X22392857Y-64526190D01*
X22583333Y-64526190D01*
X22630952Y-64550000D01*
X22654761Y-64573809D01*
X22678571Y-64621428D01*
X22678571Y-64692857D01*
X22654761Y-64740476D01*
X22630952Y-64764285D01*
X22583333Y-64788095D01*
X22392857Y-64788095D01*
X23107142Y-64692857D02*
X23107142Y-65026190D01*
X22988095Y-64502380D02*
X22869047Y-64859523D01*
X23178571Y-64859523D01*
X23583333Y-64692857D02*
X23583333Y-65026190D01*
X23464285Y-64502380D02*
X23345238Y-64859523D01*
X23654761Y-64859523D01*
X24792857Y-34136190D02*
X24792857Y-33636190D01*
X24911904Y-33636190D01*
X24983333Y-33660000D01*
X25030952Y-33707619D01*
X25054761Y-33755238D01*
X25078571Y-33850476D01*
X25078571Y-33921904D01*
X25054761Y-34017142D01*
X25030952Y-34064761D01*
X24983333Y-34112380D01*
X24911904Y-34136190D01*
X24792857Y-34136190D01*
X25554761Y-34136190D02*
X25269047Y-34136190D01*
X25411904Y-34136190D02*
X25411904Y-33636190D01*
X25364285Y-33707619D01*
X25316666Y-33755238D01*
X25269047Y-33779047D01*
X25792857Y-34136190D02*
X25888095Y-34136190D01*
X25935714Y-34112380D01*
X25959523Y-34088571D01*
X26007142Y-34017142D01*
X26030952Y-33921904D01*
X26030952Y-33731428D01*
X26007142Y-33683809D01*
X25983333Y-33660000D01*
X25935714Y-33636190D01*
X25840476Y-33636190D01*
X25792857Y-33660000D01*
X25769047Y-33683809D01*
X25745238Y-33731428D01*
X25745238Y-33850476D01*
X25769047Y-33898095D01*
X25792857Y-33921904D01*
X25840476Y-33945714D01*
X25935714Y-33945714D01*
X25983333Y-33921904D01*
X26007142Y-33898095D01*
X26030952Y-33850476D01*
X24792857Y-34716190D02*
X24792857Y-34216190D01*
X24911904Y-34216190D01*
X24983333Y-34240000D01*
X25030952Y-34287619D01*
X25054761Y-34335238D01*
X25078571Y-34430476D01*
X25078571Y-34501904D01*
X25054761Y-34597142D01*
X25030952Y-34644761D01*
X24983333Y-34692380D01*
X24911904Y-34716190D01*
X24792857Y-34716190D01*
X25554761Y-34716190D02*
X25269047Y-34716190D01*
X25411904Y-34716190D02*
X25411904Y-34216190D01*
X25364285Y-34287619D01*
X25316666Y-34335238D01*
X25269047Y-34359047D01*
X25840476Y-34430476D02*
X25792857Y-34406666D01*
X25769047Y-34382857D01*
X25745238Y-34335238D01*
X25745238Y-34311428D01*
X25769047Y-34263809D01*
X25792857Y-34240000D01*
X25840476Y-34216190D01*
X25935714Y-34216190D01*
X25983333Y-34240000D01*
X26007142Y-34263809D01*
X26030952Y-34311428D01*
X26030952Y-34335238D01*
X26007142Y-34382857D01*
X25983333Y-34406666D01*
X25935714Y-34430476D01*
X25840476Y-34430476D01*
X25792857Y-34454285D01*
X25769047Y-34478095D01*
X25745238Y-34525714D01*
X25745238Y-34620952D01*
X25769047Y-34668571D01*
X25792857Y-34692380D01*
X25840476Y-34716190D01*
X25935714Y-34716190D01*
X25983333Y-34692380D01*
X26007142Y-34668571D01*
X26030952Y-34620952D01*
X26030952Y-34525714D01*
X26007142Y-34478095D01*
X25983333Y-34454285D01*
X25935714Y-34430476D01*
X24792857Y-39696190D02*
X24792857Y-39196190D01*
X24911904Y-39196190D01*
X24983333Y-39220000D01*
X25030952Y-39267619D01*
X25054761Y-39315238D01*
X25078571Y-39410476D01*
X25078571Y-39481904D01*
X25054761Y-39577142D01*
X25030952Y-39624761D01*
X24983333Y-39672380D01*
X24911904Y-39696190D01*
X24792857Y-39696190D01*
X25554761Y-39696190D02*
X25269047Y-39696190D01*
X25411904Y-39696190D02*
X25411904Y-39196190D01*
X25364285Y-39267619D01*
X25316666Y-39315238D01*
X25269047Y-39339047D01*
X25983333Y-39196190D02*
X25888095Y-39196190D01*
X25840476Y-39220000D01*
X25816666Y-39243809D01*
X25769047Y-39315238D01*
X25745238Y-39410476D01*
X25745238Y-39600952D01*
X25769047Y-39648571D01*
X25792857Y-39672380D01*
X25840476Y-39696190D01*
X25935714Y-39696190D01*
X25983333Y-39672380D01*
X26007142Y-39648571D01*
X26030952Y-39600952D01*
X26030952Y-39481904D01*
X26007142Y-39434285D01*
X25983333Y-39410476D01*
X25935714Y-39386666D01*
X25840476Y-39386666D01*
X25792857Y-39410476D01*
X25769047Y-39434285D01*
X25745238Y-39481904D01*
X37828571Y-48828571D02*
X37804761Y-48852380D01*
X37733333Y-48876190D01*
X37685714Y-48876190D01*
X37614285Y-48852380D01*
X37566666Y-48804761D01*
X37542857Y-48757142D01*
X37519047Y-48661904D01*
X37519047Y-48590476D01*
X37542857Y-48495238D01*
X37566666Y-48447619D01*
X37614285Y-48400000D01*
X37685714Y-48376190D01*
X37733333Y-48376190D01*
X37804761Y-48400000D01*
X37828571Y-48423809D01*
X38280952Y-48376190D02*
X38042857Y-48376190D01*
X38019047Y-48614285D01*
X38042857Y-48590476D01*
X38090476Y-48566666D01*
X38209523Y-48566666D01*
X38257142Y-48590476D01*
X38280952Y-48614285D01*
X38304761Y-48661904D01*
X38304761Y-48780952D01*
X38280952Y-48828571D01*
X38257142Y-48852380D01*
X38209523Y-48876190D01*
X38090476Y-48876190D01*
X38042857Y-48852380D01*
X38019047Y-48828571D01*
X38471428Y-48376190D02*
X38780952Y-48376190D01*
X38614285Y-48566666D01*
X38685714Y-48566666D01*
X38733333Y-48590476D01*
X38757142Y-48614285D01*
X38780952Y-48661904D01*
X38780952Y-48780952D01*
X38757142Y-48828571D01*
X38733333Y-48852380D01*
X38685714Y-48876190D01*
X38542857Y-48876190D01*
X38495238Y-48852380D01*
X38471428Y-48828571D01*
X67103571Y-27888571D02*
X67079761Y-27912380D01*
X67008333Y-27936190D01*
X66960714Y-27936190D01*
X66889285Y-27912380D01*
X66841666Y-27864761D01*
X66817857Y-27817142D01*
X66794047Y-27721904D01*
X66794047Y-27650476D01*
X66817857Y-27555238D01*
X66841666Y-27507619D01*
X66889285Y-27460000D01*
X66960714Y-27436190D01*
X67008333Y-27436190D01*
X67079761Y-27460000D01*
X67103571Y-27483809D01*
X67294047Y-27483809D02*
X67317857Y-27460000D01*
X67365476Y-27436190D01*
X67484523Y-27436190D01*
X67532142Y-27460000D01*
X67555952Y-27483809D01*
X67579761Y-27531428D01*
X67579761Y-27579047D01*
X67555952Y-27650476D01*
X67270238Y-27936190D01*
X67579761Y-27936190D01*
X68008333Y-27602857D02*
X68008333Y-27936190D01*
X67889285Y-27412380D02*
X67770238Y-27769523D01*
X68079761Y-27769523D01*
X49708571Y-34576190D02*
X49541904Y-34338095D01*
X49422857Y-34576190D02*
X49422857Y-34076190D01*
X49613333Y-34076190D01*
X49660952Y-34100000D01*
X49684761Y-34123809D01*
X49708571Y-34171428D01*
X49708571Y-34242857D01*
X49684761Y-34290476D01*
X49660952Y-34314285D01*
X49613333Y-34338095D01*
X49422857Y-34338095D01*
X50137142Y-34242857D02*
X50137142Y-34576190D01*
X50018095Y-34052380D02*
X49899047Y-34409523D01*
X50208571Y-34409523D01*
X50351428Y-34076190D02*
X50660952Y-34076190D01*
X50494285Y-34266666D01*
X50565714Y-34266666D01*
X50613333Y-34290476D01*
X50637142Y-34314285D01*
X50660952Y-34361904D01*
X50660952Y-34480952D01*
X50637142Y-34528571D01*
X50613333Y-34552380D01*
X50565714Y-34576190D01*
X50422857Y-34576190D01*
X50375238Y-34552380D01*
X50351428Y-34528571D01*
X51228571Y-50526190D02*
X51061904Y-50288095D01*
X50942857Y-50526190D02*
X50942857Y-50026190D01*
X51133333Y-50026190D01*
X51180952Y-50050000D01*
X51204761Y-50073809D01*
X51228571Y-50121428D01*
X51228571Y-50192857D01*
X51204761Y-50240476D01*
X51180952Y-50264285D01*
X51133333Y-50288095D01*
X50942857Y-50288095D01*
X51419047Y-50073809D02*
X51442857Y-50050000D01*
X51490476Y-50026190D01*
X51609523Y-50026190D01*
X51657142Y-50050000D01*
X51680952Y-50073809D01*
X51704761Y-50121428D01*
X51704761Y-50169047D01*
X51680952Y-50240476D01*
X51395238Y-50526190D01*
X51704761Y-50526190D01*
X51895238Y-50073809D02*
X51919047Y-50050000D01*
X51966666Y-50026190D01*
X52085714Y-50026190D01*
X52133333Y-50050000D01*
X52157142Y-50073809D01*
X52180952Y-50121428D01*
X52180952Y-50169047D01*
X52157142Y-50240476D01*
X51871428Y-50526190D01*
X52180952Y-50526190D01*
X47468571Y-66206190D02*
X47301904Y-65968095D01*
X47182857Y-66206190D02*
X47182857Y-65706190D01*
X47373333Y-65706190D01*
X47420952Y-65730000D01*
X47444761Y-65753809D01*
X47468571Y-65801428D01*
X47468571Y-65872857D01*
X47444761Y-65920476D01*
X47420952Y-65944285D01*
X47373333Y-65968095D01*
X47182857Y-65968095D01*
X47944761Y-66206190D02*
X47659047Y-66206190D01*
X47801904Y-66206190D02*
X47801904Y-65706190D01*
X47754285Y-65777619D01*
X47706666Y-65825238D01*
X47659047Y-65849047D01*
X48230476Y-65920476D02*
X48182857Y-65896666D01*
X48159047Y-65872857D01*
X48135238Y-65825238D01*
X48135238Y-65801428D01*
X48159047Y-65753809D01*
X48182857Y-65730000D01*
X48230476Y-65706190D01*
X48325714Y-65706190D01*
X48373333Y-65730000D01*
X48397142Y-65753809D01*
X48420952Y-65801428D01*
X48420952Y-65825238D01*
X48397142Y-65872857D01*
X48373333Y-65896666D01*
X48325714Y-65920476D01*
X48230476Y-65920476D01*
X48182857Y-65944285D01*
X48159047Y-65968095D01*
X48135238Y-66015714D01*
X48135238Y-66110952D01*
X48159047Y-66158571D01*
X48182857Y-66182380D01*
X48230476Y-66206190D01*
X48325714Y-66206190D01*
X48373333Y-66182380D01*
X48397142Y-66158571D01*
X48420952Y-66110952D01*
X48420952Y-66015714D01*
X48397142Y-65968095D01*
X48373333Y-65944285D01*
X48325714Y-65920476D01*
X46928571Y-35428571D02*
X46904761Y-35452380D01*
X46833333Y-35476190D01*
X46785714Y-35476190D01*
X46714285Y-35452380D01*
X46666666Y-35404761D01*
X46642857Y-35357142D01*
X46619047Y-35261904D01*
X46619047Y-35190476D01*
X46642857Y-35095238D01*
X46666666Y-35047619D01*
X46714285Y-35000000D01*
X46785714Y-34976190D01*
X46833333Y-34976190D01*
X46904761Y-35000000D01*
X46928571Y-35023809D01*
X47380952Y-34976190D02*
X47142857Y-34976190D01*
X47119047Y-35214285D01*
X47142857Y-35190476D01*
X47190476Y-35166666D01*
X47309523Y-35166666D01*
X47357142Y-35190476D01*
X47380952Y-35214285D01*
X47404761Y-35261904D01*
X47404761Y-35380952D01*
X47380952Y-35428571D01*
X47357142Y-35452380D01*
X47309523Y-35476190D01*
X47190476Y-35476190D01*
X47142857Y-35452380D01*
X47119047Y-35428571D01*
X47595238Y-35023809D02*
X47619047Y-35000000D01*
X47666666Y-34976190D01*
X47785714Y-34976190D01*
X47833333Y-35000000D01*
X47857142Y-35023809D01*
X47880952Y-35071428D01*
X47880952Y-35119047D01*
X47857142Y-35190476D01*
X47571428Y-35476190D01*
X47880952Y-35476190D01*
X47378571Y-49528571D02*
X47354761Y-49552380D01*
X47283333Y-49576190D01*
X47235714Y-49576190D01*
X47164285Y-49552380D01*
X47116666Y-49504761D01*
X47092857Y-49457142D01*
X47069047Y-49361904D01*
X47069047Y-49290476D01*
X47092857Y-49195238D01*
X47116666Y-49147619D01*
X47164285Y-49100000D01*
X47235714Y-49076190D01*
X47283333Y-49076190D01*
X47354761Y-49100000D01*
X47378571Y-49123809D01*
X47830952Y-49076190D02*
X47592857Y-49076190D01*
X47569047Y-49314285D01*
X47592857Y-49290476D01*
X47640476Y-49266666D01*
X47759523Y-49266666D01*
X47807142Y-49290476D01*
X47830952Y-49314285D01*
X47854761Y-49361904D01*
X47854761Y-49480952D01*
X47830952Y-49528571D01*
X47807142Y-49552380D01*
X47759523Y-49576190D01*
X47640476Y-49576190D01*
X47592857Y-49552380D01*
X47569047Y-49528571D01*
X48330952Y-49576190D02*
X48045238Y-49576190D01*
X48188095Y-49576190D02*
X48188095Y-49076190D01*
X48140476Y-49147619D01*
X48092857Y-49195238D01*
X48045238Y-49219047D01*
X44978571Y-66178571D02*
X44954761Y-66202380D01*
X44883333Y-66226190D01*
X44835714Y-66226190D01*
X44764285Y-66202380D01*
X44716666Y-66154761D01*
X44692857Y-66107142D01*
X44669047Y-66011904D01*
X44669047Y-65940476D01*
X44692857Y-65845238D01*
X44716666Y-65797619D01*
X44764285Y-65750000D01*
X44835714Y-65726190D01*
X44883333Y-65726190D01*
X44954761Y-65750000D01*
X44978571Y-65773809D01*
X45430952Y-65726190D02*
X45192857Y-65726190D01*
X45169047Y-65964285D01*
X45192857Y-65940476D01*
X45240476Y-65916666D01*
X45359523Y-65916666D01*
X45407142Y-65940476D01*
X45430952Y-65964285D01*
X45454761Y-66011904D01*
X45454761Y-66130952D01*
X45430952Y-66178571D01*
X45407142Y-66202380D01*
X45359523Y-66226190D01*
X45240476Y-66226190D01*
X45192857Y-66202380D01*
X45169047Y-66178571D01*
X45764285Y-65726190D02*
X45811904Y-65726190D01*
X45859523Y-65750000D01*
X45883333Y-65773809D01*
X45907142Y-65821428D01*
X45930952Y-65916666D01*
X45930952Y-66035714D01*
X45907142Y-66130952D01*
X45883333Y-66178571D01*
X45859523Y-66202380D01*
X45811904Y-66226190D01*
X45764285Y-66226190D01*
X45716666Y-66202380D01*
X45692857Y-66178571D01*
X45669047Y-66130952D01*
X45645238Y-66035714D01*
X45645238Y-65916666D01*
X45669047Y-65821428D01*
X45692857Y-65773809D01*
X45716666Y-65750000D01*
X45764285Y-65726190D01*
X61761904Y-26638095D02*
X61761904Y-26876190D01*
X61595238Y-26376190D02*
X61761904Y-26638095D01*
X61928571Y-26376190D01*
X62357142Y-26876190D02*
X62071428Y-26876190D01*
X62214285Y-26876190D02*
X62214285Y-26376190D01*
X62166666Y-26447619D01*
X62119047Y-26495238D01*
X62071428Y-26519047D01*
X53028571Y-37278571D02*
X53004761Y-37302380D01*
X52933333Y-37326190D01*
X52885714Y-37326190D01*
X52814285Y-37302380D01*
X52766666Y-37254761D01*
X52742857Y-37207142D01*
X52719047Y-37111904D01*
X52719047Y-37040476D01*
X52742857Y-36945238D01*
X52766666Y-36897619D01*
X52814285Y-36850000D01*
X52885714Y-36826190D01*
X52933333Y-36826190D01*
X53004761Y-36850000D01*
X53028571Y-36873809D01*
X53457142Y-36992857D02*
X53457142Y-37326190D01*
X53338095Y-36802380D02*
X53219047Y-37159523D01*
X53528571Y-37159523D01*
X53742857Y-37326190D02*
X53838095Y-37326190D01*
X53885714Y-37302380D01*
X53909523Y-37278571D01*
X53957142Y-37207142D01*
X53980952Y-37111904D01*
X53980952Y-36921428D01*
X53957142Y-36873809D01*
X53933333Y-36850000D01*
X53885714Y-36826190D01*
X53790476Y-36826190D01*
X53742857Y-36850000D01*
X53719047Y-36873809D01*
X53695238Y-36921428D01*
X53695238Y-37040476D01*
X53719047Y-37088095D01*
X53742857Y-37111904D01*
X53790476Y-37135714D01*
X53885714Y-37135714D01*
X53933333Y-37111904D01*
X53957142Y-37088095D01*
X53980952Y-37040476D01*
X50928571Y-66378571D02*
X50904761Y-66402380D01*
X50833333Y-66426190D01*
X50785714Y-66426190D01*
X50714285Y-66402380D01*
X50666666Y-66354761D01*
X50642857Y-66307142D01*
X50619047Y-66211904D01*
X50619047Y-66140476D01*
X50642857Y-66045238D01*
X50666666Y-65997619D01*
X50714285Y-65950000D01*
X50785714Y-65926190D01*
X50833333Y-65926190D01*
X50904761Y-65950000D01*
X50928571Y-65973809D01*
X51357142Y-66092857D02*
X51357142Y-66426190D01*
X51238095Y-65902380D02*
X51119047Y-66259523D01*
X51428571Y-66259523D01*
X51690476Y-66140476D02*
X51642857Y-66116666D01*
X51619047Y-66092857D01*
X51595238Y-66045238D01*
X51595238Y-66021428D01*
X51619047Y-65973809D01*
X51642857Y-65950000D01*
X51690476Y-65926190D01*
X51785714Y-65926190D01*
X51833333Y-65950000D01*
X51857142Y-65973809D01*
X51880952Y-66021428D01*
X51880952Y-66045238D01*
X51857142Y-66092857D01*
X51833333Y-66116666D01*
X51785714Y-66140476D01*
X51690476Y-66140476D01*
X51642857Y-66164285D01*
X51619047Y-66188095D01*
X51595238Y-66235714D01*
X51595238Y-66330952D01*
X51619047Y-66378571D01*
X51642857Y-66402380D01*
X51690476Y-66426190D01*
X51785714Y-66426190D01*
X51833333Y-66402380D01*
X51857142Y-66378571D01*
X51880952Y-66330952D01*
X51880952Y-66235714D01*
X51857142Y-66188095D01*
X51833333Y-66164285D01*
X51785714Y-66140476D01*
X53128571Y-51678571D02*
X53104761Y-51702380D01*
X53033333Y-51726190D01*
X52985714Y-51726190D01*
X52914285Y-51702380D01*
X52866666Y-51654761D01*
X52842857Y-51607142D01*
X52819047Y-51511904D01*
X52819047Y-51440476D01*
X52842857Y-51345238D01*
X52866666Y-51297619D01*
X52914285Y-51250000D01*
X52985714Y-51226190D01*
X53033333Y-51226190D01*
X53104761Y-51250000D01*
X53128571Y-51273809D01*
X53557142Y-51392857D02*
X53557142Y-51726190D01*
X53438095Y-51202380D02*
X53319047Y-51559523D01*
X53628571Y-51559523D01*
X53771428Y-51226190D02*
X54104761Y-51226190D01*
X53890476Y-51726190D01*
X54280952Y-33076190D02*
X54280952Y-33480952D01*
X54304761Y-33528571D01*
X54328571Y-33552380D01*
X54376190Y-33576190D01*
X54471428Y-33576190D01*
X54519047Y-33552380D01*
X54542857Y-33528571D01*
X54566666Y-33480952D01*
X54566666Y-33076190D01*
X55066666Y-33576190D02*
X54780952Y-33576190D01*
X54923809Y-33576190D02*
X54923809Y-33076190D01*
X54876190Y-33147619D01*
X54828571Y-33195238D01*
X54780952Y-33219047D01*
X55376190Y-33076190D02*
X55423809Y-33076190D01*
X55471428Y-33100000D01*
X55495238Y-33123809D01*
X55519047Y-33171428D01*
X55542857Y-33266666D01*
X55542857Y-33385714D01*
X55519047Y-33480952D01*
X55495238Y-33528571D01*
X55471428Y-33552380D01*
X55423809Y-33576190D01*
X55376190Y-33576190D01*
X55328571Y-33552380D01*
X55304761Y-33528571D01*
X55280952Y-33480952D01*
X55257142Y-33385714D01*
X55257142Y-33266666D01*
X55280952Y-33171428D01*
X55304761Y-33123809D01*
X55328571Y-33100000D01*
X55376190Y-33076190D01*
X52429047Y-61186190D02*
X52429047Y-61590952D01*
X52452857Y-61638571D01*
X52476666Y-61662380D01*
X52524285Y-61686190D01*
X52619523Y-61686190D01*
X52667142Y-61662380D01*
X52690952Y-61638571D01*
X52714761Y-61590952D01*
X52714761Y-61186190D01*
X53167142Y-61186190D02*
X53071904Y-61186190D01*
X53024285Y-61210000D01*
X53000476Y-61233809D01*
X52952857Y-61305238D01*
X52929047Y-61400476D01*
X52929047Y-61590952D01*
X52952857Y-61638571D01*
X52976666Y-61662380D01*
X53024285Y-61686190D01*
X53119523Y-61686190D01*
X53167142Y-61662380D01*
X53190952Y-61638571D01*
X53214761Y-61590952D01*
X53214761Y-61471904D01*
X53190952Y-61424285D01*
X53167142Y-61400476D01*
X53119523Y-61376666D01*
X53024285Y-61376666D01*
X52976666Y-61400476D01*
X52952857Y-61424285D01*
X52929047Y-61471904D01*
X38316666Y-39526190D02*
X38078571Y-39526190D01*
X38078571Y-39026190D01*
X38745238Y-39526190D02*
X38459523Y-39526190D01*
X38602380Y-39526190D02*
X38602380Y-39026190D01*
X38554761Y-39097619D01*
X38507142Y-39145238D01*
X38459523Y-39169047D01*
X28919047Y-56226190D02*
X28919047Y-56630952D01*
X28942857Y-56678571D01*
X28966666Y-56702380D01*
X29014285Y-56726190D01*
X29109523Y-56726190D01*
X29157142Y-56702380D01*
X29180952Y-56678571D01*
X29204761Y-56630952D01*
X29204761Y-56226190D01*
X29657142Y-56392857D02*
X29657142Y-56726190D01*
X29538095Y-56202380D02*
X29419047Y-56559523D01*
X29728571Y-56559523D01*
X65283333Y-61426190D02*
X65283333Y-61783333D01*
X65259523Y-61854761D01*
X65211904Y-61902380D01*
X65140476Y-61926190D01*
X65092857Y-61926190D01*
X65545238Y-61926190D02*
X65640476Y-61926190D01*
X65688095Y-61902380D01*
X65711904Y-61878571D01*
X65759523Y-61807142D01*
X65783333Y-61711904D01*
X65783333Y-61521428D01*
X65759523Y-61473809D01*
X65735714Y-61450000D01*
X65688095Y-61426190D01*
X65592857Y-61426190D01*
X65545238Y-61450000D01*
X65521428Y-61473809D01*
X65497619Y-61521428D01*
X65497619Y-61640476D01*
X65521428Y-61688095D01*
X65545238Y-61711904D01*
X65592857Y-61735714D01*
X65688095Y-61735714D01*
X65735714Y-61711904D01*
X65759523Y-61688095D01*
X65783333Y-61640476D01*
X67583333Y-39514285D02*
X67416666Y-39514285D01*
X67416666Y-39776190D02*
X67416666Y-39276190D01*
X67654761Y-39276190D01*
X68011904Y-39514285D02*
X68083333Y-39538095D01*
X68107142Y-39561904D01*
X68130952Y-39609523D01*
X68130952Y-39680952D01*
X68107142Y-39728571D01*
X68083333Y-39752380D01*
X68035714Y-39776190D01*
X67845238Y-39776190D01*
X67845238Y-39276190D01*
X68011904Y-39276190D01*
X68059523Y-39300000D01*
X68083333Y-39323809D01*
X68107142Y-39371428D01*
X68107142Y-39419047D01*
X68083333Y-39466666D01*
X68059523Y-39490476D01*
X68011904Y-39514285D01*
X67845238Y-39514285D01*
X68607142Y-39776190D02*
X68321428Y-39776190D01*
X68464285Y-39776190D02*
X68464285Y-39276190D01*
X68416666Y-39347619D01*
X68369047Y-39395238D01*
X68321428Y-39419047D01*
X67928571Y-48728571D02*
X67904761Y-48752380D01*
X67833333Y-48776190D01*
X67785714Y-48776190D01*
X67714285Y-48752380D01*
X67666666Y-48704761D01*
X67642857Y-48657142D01*
X67619047Y-48561904D01*
X67619047Y-48490476D01*
X67642857Y-48395238D01*
X67666666Y-48347619D01*
X67714285Y-48300000D01*
X67785714Y-48276190D01*
X67833333Y-48276190D01*
X67904761Y-48300000D01*
X67928571Y-48323809D01*
X68357142Y-48442857D02*
X68357142Y-48776190D01*
X68238095Y-48252380D02*
X68119047Y-48609523D01*
X68428571Y-48609523D01*
X68833333Y-48276190D02*
X68738095Y-48276190D01*
X68690476Y-48300000D01*
X68666666Y-48323809D01*
X68619047Y-48395238D01*
X68595238Y-48490476D01*
X68595238Y-48680952D01*
X68619047Y-48728571D01*
X68642857Y-48752380D01*
X68690476Y-48776190D01*
X68785714Y-48776190D01*
X68833333Y-48752380D01*
X68857142Y-48728571D01*
X68880952Y-48680952D01*
X68880952Y-48561904D01*
X68857142Y-48514285D01*
X68833333Y-48490476D01*
X68785714Y-48466666D01*
X68690476Y-48466666D01*
X68642857Y-48490476D01*
X68619047Y-48514285D01*
X68595238Y-48561904D01*
X61978571Y-49778571D02*
X61954761Y-49802380D01*
X61883333Y-49826190D01*
X61835714Y-49826190D01*
X61764285Y-49802380D01*
X61716666Y-49754761D01*
X61692857Y-49707142D01*
X61669047Y-49611904D01*
X61669047Y-49540476D01*
X61692857Y-49445238D01*
X61716666Y-49397619D01*
X61764285Y-49350000D01*
X61835714Y-49326190D01*
X61883333Y-49326190D01*
X61954761Y-49350000D01*
X61978571Y-49373809D01*
X62407142Y-49492857D02*
X62407142Y-49826190D01*
X62288095Y-49302380D02*
X62169047Y-49659523D01*
X62478571Y-49659523D01*
X62621428Y-49326190D02*
X62930952Y-49326190D01*
X62764285Y-49516666D01*
X62835714Y-49516666D01*
X62883333Y-49540476D01*
X62907142Y-49564285D01*
X62930952Y-49611904D01*
X62930952Y-49730952D01*
X62907142Y-49778571D01*
X62883333Y-49802380D01*
X62835714Y-49826190D01*
X62692857Y-49826190D01*
X62645238Y-49802380D01*
X62621428Y-49778571D01*
X41578571Y-56878571D02*
X41554761Y-56902380D01*
X41483333Y-56926190D01*
X41435714Y-56926190D01*
X41364285Y-56902380D01*
X41316666Y-56854761D01*
X41292857Y-56807142D01*
X41269047Y-56711904D01*
X41269047Y-56640476D01*
X41292857Y-56545238D01*
X41316666Y-56497619D01*
X41364285Y-56450000D01*
X41435714Y-56426190D01*
X41483333Y-56426190D01*
X41554761Y-56450000D01*
X41578571Y-56473809D01*
X42007142Y-56592857D02*
X42007142Y-56926190D01*
X41888095Y-56402380D02*
X41769047Y-56759523D01*
X42078571Y-56759523D01*
X42530952Y-56926190D02*
X42245238Y-56926190D01*
X42388095Y-56926190D02*
X42388095Y-56426190D01*
X42340476Y-56497619D01*
X42292857Y-56545238D01*
X42245238Y-56569047D01*
X41678571Y-54828571D02*
X41654761Y-54852380D01*
X41583333Y-54876190D01*
X41535714Y-54876190D01*
X41464285Y-54852380D01*
X41416666Y-54804761D01*
X41392857Y-54757142D01*
X41369047Y-54661904D01*
X41369047Y-54590476D01*
X41392857Y-54495238D01*
X41416666Y-54447619D01*
X41464285Y-54400000D01*
X41535714Y-54376190D01*
X41583333Y-54376190D01*
X41654761Y-54400000D01*
X41678571Y-54423809D01*
X41845238Y-54376190D02*
X42154761Y-54376190D01*
X41988095Y-54566666D01*
X42059523Y-54566666D01*
X42107142Y-54590476D01*
X42130952Y-54614285D01*
X42154761Y-54661904D01*
X42154761Y-54780952D01*
X42130952Y-54828571D01*
X42107142Y-54852380D01*
X42059523Y-54876190D01*
X41916666Y-54876190D01*
X41869047Y-54852380D01*
X41845238Y-54828571D01*
X42440476Y-54590476D02*
X42392857Y-54566666D01*
X42369047Y-54542857D01*
X42345238Y-54495238D01*
X42345238Y-54471428D01*
X42369047Y-54423809D01*
X42392857Y-54400000D01*
X42440476Y-54376190D01*
X42535714Y-54376190D01*
X42583333Y-54400000D01*
X42607142Y-54423809D01*
X42630952Y-54471428D01*
X42630952Y-54495238D01*
X42607142Y-54542857D01*
X42583333Y-54566666D01*
X42535714Y-54590476D01*
X42440476Y-54590476D01*
X42392857Y-54614285D01*
X42369047Y-54638095D01*
X42345238Y-54685714D01*
X42345238Y-54780952D01*
X42369047Y-54828571D01*
X42392857Y-54852380D01*
X42440476Y-54876190D01*
X42535714Y-54876190D01*
X42583333Y-54852380D01*
X42607142Y-54828571D01*
X42630952Y-54780952D01*
X42630952Y-54685714D01*
X42607142Y-54638095D01*
X42583333Y-54614285D01*
X42535714Y-54590476D01*
X50928571Y-65078571D02*
X50904761Y-65102380D01*
X50833333Y-65126190D01*
X50785714Y-65126190D01*
X50714285Y-65102380D01*
X50666666Y-65054761D01*
X50642857Y-65007142D01*
X50619047Y-64911904D01*
X50619047Y-64840476D01*
X50642857Y-64745238D01*
X50666666Y-64697619D01*
X50714285Y-64650000D01*
X50785714Y-64626190D01*
X50833333Y-64626190D01*
X50904761Y-64650000D01*
X50928571Y-64673809D01*
X51095238Y-64626190D02*
X51404761Y-64626190D01*
X51238095Y-64816666D01*
X51309523Y-64816666D01*
X51357142Y-64840476D01*
X51380952Y-64864285D01*
X51404761Y-64911904D01*
X51404761Y-65030952D01*
X51380952Y-65078571D01*
X51357142Y-65102380D01*
X51309523Y-65126190D01*
X51166666Y-65126190D01*
X51119047Y-65102380D01*
X51095238Y-65078571D01*
X51571428Y-64626190D02*
X51880952Y-64626190D01*
X51714285Y-64816666D01*
X51785714Y-64816666D01*
X51833333Y-64840476D01*
X51857142Y-64864285D01*
X51880952Y-64911904D01*
X51880952Y-65030952D01*
X51857142Y-65078571D01*
X51833333Y-65102380D01*
X51785714Y-65126190D01*
X51642857Y-65126190D01*
X51595238Y-65102380D01*
X51571428Y-65078571D01*
X53028571Y-36678571D02*
X53004761Y-36702380D01*
X52933333Y-36726190D01*
X52885714Y-36726190D01*
X52814285Y-36702380D01*
X52766666Y-36654761D01*
X52742857Y-36607142D01*
X52719047Y-36511904D01*
X52719047Y-36440476D01*
X52742857Y-36345238D01*
X52766666Y-36297619D01*
X52814285Y-36250000D01*
X52885714Y-36226190D01*
X52933333Y-36226190D01*
X53004761Y-36250000D01*
X53028571Y-36273809D01*
X53195238Y-36226190D02*
X53504761Y-36226190D01*
X53338095Y-36416666D01*
X53409523Y-36416666D01*
X53457142Y-36440476D01*
X53480952Y-36464285D01*
X53504761Y-36511904D01*
X53504761Y-36630952D01*
X53480952Y-36678571D01*
X53457142Y-36702380D01*
X53409523Y-36726190D01*
X53266666Y-36726190D01*
X53219047Y-36702380D01*
X53195238Y-36678571D01*
X53695238Y-36273809D02*
X53719047Y-36250000D01*
X53766666Y-36226190D01*
X53885714Y-36226190D01*
X53933333Y-36250000D01*
X53957142Y-36273809D01*
X53980952Y-36321428D01*
X53980952Y-36369047D01*
X53957142Y-36440476D01*
X53671428Y-36726190D01*
X53980952Y-36726190D01*
X53128571Y-50978571D02*
X53104761Y-51002380D01*
X53033333Y-51026190D01*
X52985714Y-51026190D01*
X52914285Y-51002380D01*
X52866666Y-50954761D01*
X52842857Y-50907142D01*
X52819047Y-50811904D01*
X52819047Y-50740476D01*
X52842857Y-50645238D01*
X52866666Y-50597619D01*
X52914285Y-50550000D01*
X52985714Y-50526190D01*
X53033333Y-50526190D01*
X53104761Y-50550000D01*
X53128571Y-50573809D01*
X53319047Y-50573809D02*
X53342857Y-50550000D01*
X53390476Y-50526190D01*
X53509523Y-50526190D01*
X53557142Y-50550000D01*
X53580952Y-50573809D01*
X53604761Y-50621428D01*
X53604761Y-50669047D01*
X53580952Y-50740476D01*
X53295238Y-51026190D01*
X53604761Y-51026190D01*
X54057142Y-50526190D02*
X53819047Y-50526190D01*
X53795238Y-50764285D01*
X53819047Y-50740476D01*
X53866666Y-50716666D01*
X53985714Y-50716666D01*
X54033333Y-50740476D01*
X54057142Y-50764285D01*
X54080952Y-50811904D01*
X54080952Y-50930952D01*
X54057142Y-50978571D01*
X54033333Y-51002380D01*
X53985714Y-51026190D01*
X53866666Y-51026190D01*
X53819047Y-51002380D01*
X53795238Y-50978571D01*
X39428571Y-61978571D02*
X39404761Y-62002380D01*
X39333333Y-62026190D01*
X39285714Y-62026190D01*
X39214285Y-62002380D01*
X39166666Y-61954761D01*
X39142857Y-61907142D01*
X39119047Y-61811904D01*
X39119047Y-61740476D01*
X39142857Y-61645238D01*
X39166666Y-61597619D01*
X39214285Y-61550000D01*
X39285714Y-61526190D01*
X39333333Y-61526190D01*
X39404761Y-61550000D01*
X39428571Y-61573809D01*
X39619047Y-61573809D02*
X39642857Y-61550000D01*
X39690476Y-61526190D01*
X39809523Y-61526190D01*
X39857142Y-61550000D01*
X39880952Y-61573809D01*
X39904761Y-61621428D01*
X39904761Y-61669047D01*
X39880952Y-61740476D01*
X39595238Y-62026190D01*
X39904761Y-62026190D01*
X40071428Y-61526190D02*
X40380952Y-61526190D01*
X40214285Y-61716666D01*
X40285714Y-61716666D01*
X40333333Y-61740476D01*
X40357142Y-61764285D01*
X40380952Y-61811904D01*
X40380952Y-61930952D01*
X40357142Y-61978571D01*
X40333333Y-62002380D01*
X40285714Y-62026190D01*
X40142857Y-62026190D01*
X40095238Y-62002380D01*
X40071428Y-61978571D01*
X39428571Y-62578571D02*
X39404761Y-62602380D01*
X39333333Y-62626190D01*
X39285714Y-62626190D01*
X39214285Y-62602380D01*
X39166666Y-62554761D01*
X39142857Y-62507142D01*
X39119047Y-62411904D01*
X39119047Y-62340476D01*
X39142857Y-62245238D01*
X39166666Y-62197619D01*
X39214285Y-62150000D01*
X39285714Y-62126190D01*
X39333333Y-62126190D01*
X39404761Y-62150000D01*
X39428571Y-62173809D01*
X39619047Y-62173809D02*
X39642857Y-62150000D01*
X39690476Y-62126190D01*
X39809523Y-62126190D01*
X39857142Y-62150000D01*
X39880952Y-62173809D01*
X39904761Y-62221428D01*
X39904761Y-62269047D01*
X39880952Y-62340476D01*
X39595238Y-62626190D01*
X39904761Y-62626190D01*
X40095238Y-62173809D02*
X40119047Y-62150000D01*
X40166666Y-62126190D01*
X40285714Y-62126190D01*
X40333333Y-62150000D01*
X40357142Y-62173809D01*
X40380952Y-62221428D01*
X40380952Y-62269047D01*
X40357142Y-62340476D01*
X40071428Y-62626190D01*
X40380952Y-62626190D01*
X61978571Y-39728571D02*
X61954761Y-39752380D01*
X61883333Y-39776190D01*
X61835714Y-39776190D01*
X61764285Y-39752380D01*
X61716666Y-39704761D01*
X61692857Y-39657142D01*
X61669047Y-39561904D01*
X61669047Y-39490476D01*
X61692857Y-39395238D01*
X61716666Y-39347619D01*
X61764285Y-39300000D01*
X61835714Y-39276190D01*
X61883333Y-39276190D01*
X61954761Y-39300000D01*
X61978571Y-39323809D01*
X62454761Y-39776190D02*
X62169047Y-39776190D01*
X62311904Y-39776190D02*
X62311904Y-39276190D01*
X62264285Y-39347619D01*
X62216666Y-39395238D01*
X62169047Y-39419047D01*
X62740476Y-39490476D02*
X62692857Y-39466666D01*
X62669047Y-39442857D01*
X62645238Y-39395238D01*
X62645238Y-39371428D01*
X62669047Y-39323809D01*
X62692857Y-39300000D01*
X62740476Y-39276190D01*
X62835714Y-39276190D01*
X62883333Y-39300000D01*
X62907142Y-39323809D01*
X62930952Y-39371428D01*
X62930952Y-39395238D01*
X62907142Y-39442857D01*
X62883333Y-39466666D01*
X62835714Y-39490476D01*
X62740476Y-39490476D01*
X62692857Y-39514285D01*
X62669047Y-39538095D01*
X62645238Y-39585714D01*
X62645238Y-39680952D01*
X62669047Y-39728571D01*
X62692857Y-39752380D01*
X62740476Y-39776190D01*
X62835714Y-39776190D01*
X62883333Y-39752380D01*
X62907142Y-39728571D01*
X62930952Y-39680952D01*
X62930952Y-39585714D01*
X62907142Y-39538095D01*
X62883333Y-39514285D01*
X62835714Y-39490476D01*
X66978571Y-38978571D02*
X66954761Y-39002380D01*
X66883333Y-39026190D01*
X66835714Y-39026190D01*
X66764285Y-39002380D01*
X66716666Y-38954761D01*
X66692857Y-38907142D01*
X66669047Y-38811904D01*
X66669047Y-38740476D01*
X66692857Y-38645238D01*
X66716666Y-38597619D01*
X66764285Y-38550000D01*
X66835714Y-38526190D01*
X66883333Y-38526190D01*
X66954761Y-38550000D01*
X66978571Y-38573809D01*
X67454761Y-39026190D02*
X67169047Y-39026190D01*
X67311904Y-39026190D02*
X67311904Y-38526190D01*
X67264285Y-38597619D01*
X67216666Y-38645238D01*
X67169047Y-38669047D01*
X67621428Y-38526190D02*
X67954761Y-38526190D01*
X67740476Y-39026190D01*
X59816666Y-27678571D02*
X59792857Y-27702380D01*
X59721428Y-27726190D01*
X59673809Y-27726190D01*
X59602380Y-27702380D01*
X59554761Y-27654761D01*
X59530952Y-27607142D01*
X59507142Y-27511904D01*
X59507142Y-27440476D01*
X59530952Y-27345238D01*
X59554761Y-27297619D01*
X59602380Y-27250000D01*
X59673809Y-27226190D01*
X59721428Y-27226190D01*
X59792857Y-27250000D01*
X59816666Y-27273809D01*
X60245238Y-27226190D02*
X60150000Y-27226190D01*
X60102380Y-27250000D01*
X60078571Y-27273809D01*
X60030952Y-27345238D01*
X60007142Y-27440476D01*
X60007142Y-27630952D01*
X60030952Y-27678571D01*
X60054761Y-27702380D01*
X60102380Y-27726190D01*
X60197619Y-27726190D01*
X60245238Y-27702380D01*
X60269047Y-27678571D01*
X60292857Y-27630952D01*
X60292857Y-27511904D01*
X60269047Y-27464285D01*
X60245238Y-27440476D01*
X60197619Y-27416666D01*
X60102380Y-27416666D01*
X60054761Y-27440476D01*
X60030952Y-27464285D01*
X60007142Y-27511904D01*
X58380952Y-59976190D02*
X58380952Y-60380952D01*
X58404761Y-60428571D01*
X58428571Y-60452380D01*
X58476190Y-60476190D01*
X58571428Y-60476190D01*
X58619047Y-60452380D01*
X58642857Y-60428571D01*
X58666666Y-60380952D01*
X58666666Y-59976190D01*
X59166666Y-60476190D02*
X58880952Y-60476190D01*
X59023809Y-60476190D02*
X59023809Y-59976190D01*
X58976190Y-60047619D01*
X58928571Y-60095238D01*
X58880952Y-60119047D01*
X59642857Y-60476190D02*
X59357142Y-60476190D01*
X59500000Y-60476190D02*
X59500000Y-59976190D01*
X59452380Y-60047619D01*
X59404761Y-60095238D01*
X59357142Y-60119047D01*
X28169047Y-29776190D02*
X28169047Y-30180952D01*
X28192857Y-30228571D01*
X28216666Y-30252380D01*
X28264285Y-30276190D01*
X28359523Y-30276190D01*
X28407142Y-30252380D01*
X28430952Y-30228571D01*
X28454761Y-30180952D01*
X28454761Y-29776190D01*
X28716666Y-30276190D02*
X28811904Y-30276190D01*
X28859523Y-30252380D01*
X28883333Y-30228571D01*
X28930952Y-30157142D01*
X28954761Y-30061904D01*
X28954761Y-29871428D01*
X28930952Y-29823809D01*
X28907142Y-29800000D01*
X28859523Y-29776190D01*
X28764285Y-29776190D01*
X28716666Y-29800000D01*
X28692857Y-29823809D01*
X28669047Y-29871428D01*
X28669047Y-29990476D01*
X28692857Y-30038095D01*
X28716666Y-30061904D01*
X28764285Y-30085714D01*
X28859523Y-30085714D01*
X28907142Y-30061904D01*
X28930952Y-30038095D01*
X28954761Y-29990476D01*
X74919047Y-36176190D02*
X74919047Y-36580952D01*
X74942857Y-36628571D01*
X74966666Y-36652380D01*
X75014285Y-36676190D01*
X75109523Y-36676190D01*
X75157142Y-36652380D01*
X75180952Y-36628571D01*
X75204761Y-36580952D01*
X75204761Y-36176190D01*
X75514285Y-36390476D02*
X75466666Y-36366666D01*
X75442857Y-36342857D01*
X75419047Y-36295238D01*
X75419047Y-36271428D01*
X75442857Y-36223809D01*
X75466666Y-36200000D01*
X75514285Y-36176190D01*
X75609523Y-36176190D01*
X75657142Y-36200000D01*
X75680952Y-36223809D01*
X75704761Y-36271428D01*
X75704761Y-36295238D01*
X75680952Y-36342857D01*
X75657142Y-36366666D01*
X75609523Y-36390476D01*
X75514285Y-36390476D01*
X75466666Y-36414285D01*
X75442857Y-36438095D01*
X75419047Y-36485714D01*
X75419047Y-36580952D01*
X75442857Y-36628571D01*
X75466666Y-36652380D01*
X75514285Y-36676190D01*
X75609523Y-36676190D01*
X75657142Y-36652380D01*
X75680952Y-36628571D01*
X75704761Y-36580952D01*
X75704761Y-36485714D01*
X75680952Y-36438095D01*
X75657142Y-36414285D01*
X75609523Y-36390476D01*
X71119047Y-53876190D02*
X71119047Y-54280952D01*
X71142857Y-54328571D01*
X71166666Y-54352380D01*
X71214285Y-54376190D01*
X71309523Y-54376190D01*
X71357142Y-54352380D01*
X71380952Y-54328571D01*
X71404761Y-54280952D01*
X71404761Y-53876190D01*
X71880952Y-53876190D02*
X71642857Y-53876190D01*
X71619047Y-54114285D01*
X71642857Y-54090476D01*
X71690476Y-54066666D01*
X71809523Y-54066666D01*
X71857142Y-54090476D01*
X71880952Y-54114285D01*
X71904761Y-54161904D01*
X71904761Y-54280952D01*
X71880952Y-54328571D01*
X71857142Y-54352380D01*
X71809523Y-54376190D01*
X71690476Y-54376190D01*
X71642857Y-54352380D01*
X71619047Y-54328571D01*
X36809047Y-47166190D02*
X36809047Y-47570952D01*
X36832857Y-47618571D01*
X36856666Y-47642380D01*
X36904285Y-47666190D01*
X36999523Y-47666190D01*
X37047142Y-47642380D01*
X37070952Y-47618571D01*
X37094761Y-47570952D01*
X37094761Y-47166190D01*
X37285238Y-47166190D02*
X37594761Y-47166190D01*
X37428095Y-47356666D01*
X37499523Y-47356666D01*
X37547142Y-47380476D01*
X37570952Y-47404285D01*
X37594761Y-47451904D01*
X37594761Y-47570952D01*
X37570952Y-47618571D01*
X37547142Y-47642380D01*
X37499523Y-47666190D01*
X37356666Y-47666190D01*
X37309047Y-47642380D01*
X37285238Y-47618571D01*
X64939047Y-53876190D02*
X64939047Y-54280952D01*
X64962857Y-54328571D01*
X64986666Y-54352380D01*
X65034285Y-54376190D01*
X65129523Y-54376190D01*
X65177142Y-54352380D01*
X65200952Y-54328571D01*
X65224761Y-54280952D01*
X65224761Y-53876190D01*
X65439047Y-53923809D02*
X65462857Y-53900000D01*
X65510476Y-53876190D01*
X65629523Y-53876190D01*
X65677142Y-53900000D01*
X65700952Y-53923809D01*
X65724761Y-53971428D01*
X65724761Y-54019047D01*
X65700952Y-54090476D01*
X65415238Y-54376190D01*
X65724761Y-54376190D01*
X75642857Y-32026190D02*
X75642857Y-31526190D01*
X75761904Y-31526190D01*
X75833333Y-31550000D01*
X75880952Y-31597619D01*
X75904761Y-31645238D01*
X75928571Y-31740476D01*
X75928571Y-31811904D01*
X75904761Y-31907142D01*
X75880952Y-31954761D01*
X75833333Y-32002380D01*
X75761904Y-32026190D01*
X75642857Y-32026190D01*
X76404761Y-32026190D02*
X76119047Y-32026190D01*
X76261904Y-32026190D02*
X76261904Y-31526190D01*
X76214285Y-31597619D01*
X76166666Y-31645238D01*
X76119047Y-31669047D01*
X76571428Y-31526190D02*
X76904761Y-31526190D01*
X76690476Y-32026190D01*
X38548571Y-40468571D02*
X38524761Y-40492380D01*
X38453333Y-40516190D01*
X38405714Y-40516190D01*
X38334285Y-40492380D01*
X38286666Y-40444761D01*
X38262857Y-40397142D01*
X38239047Y-40301904D01*
X38239047Y-40230476D01*
X38262857Y-40135238D01*
X38286666Y-40087619D01*
X38334285Y-40040000D01*
X38405714Y-40016190D01*
X38453333Y-40016190D01*
X38524761Y-40040000D01*
X38548571Y-40063809D01*
X38715238Y-40016190D02*
X39024761Y-40016190D01*
X38858095Y-40206666D01*
X38929523Y-40206666D01*
X38977142Y-40230476D01*
X39000952Y-40254285D01*
X39024761Y-40301904D01*
X39024761Y-40420952D01*
X39000952Y-40468571D01*
X38977142Y-40492380D01*
X38929523Y-40516190D01*
X38786666Y-40516190D01*
X38739047Y-40492380D01*
X38715238Y-40468571D01*
X39191428Y-40016190D02*
X39524761Y-40016190D01*
X39310476Y-40516190D01*
X40378571Y-39588571D02*
X40354761Y-39612380D01*
X40283333Y-39636190D01*
X40235714Y-39636190D01*
X40164285Y-39612380D01*
X40116666Y-39564761D01*
X40092857Y-39517142D01*
X40069047Y-39421904D01*
X40069047Y-39350476D01*
X40092857Y-39255238D01*
X40116666Y-39207619D01*
X40164285Y-39160000D01*
X40235714Y-39136190D01*
X40283333Y-39136190D01*
X40354761Y-39160000D01*
X40378571Y-39183809D01*
X40545238Y-39136190D02*
X40854761Y-39136190D01*
X40688095Y-39326666D01*
X40759523Y-39326666D01*
X40807142Y-39350476D01*
X40830952Y-39374285D01*
X40854761Y-39421904D01*
X40854761Y-39540952D01*
X40830952Y-39588571D01*
X40807142Y-39612380D01*
X40759523Y-39636190D01*
X40616666Y-39636190D01*
X40569047Y-39612380D01*
X40545238Y-39588571D01*
X41283333Y-39136190D02*
X41188095Y-39136190D01*
X41140476Y-39160000D01*
X41116666Y-39183809D01*
X41069047Y-39255238D01*
X41045238Y-39350476D01*
X41045238Y-39540952D01*
X41069047Y-39588571D01*
X41092857Y-39612380D01*
X41140476Y-39636190D01*
X41235714Y-39636190D01*
X41283333Y-39612380D01*
X41307142Y-39588571D01*
X41330952Y-39540952D01*
X41330952Y-39421904D01*
X41307142Y-39374285D01*
X41283333Y-39350476D01*
X41235714Y-39326666D01*
X41140476Y-39326666D01*
X41092857Y-39350476D01*
X41069047Y-39374285D01*
X41045238Y-39421904D01*
X34078571Y-43178571D02*
X34054761Y-43202380D01*
X33983333Y-43226190D01*
X33935714Y-43226190D01*
X33864285Y-43202380D01*
X33816666Y-43154761D01*
X33792857Y-43107142D01*
X33769047Y-43011904D01*
X33769047Y-42940476D01*
X33792857Y-42845238D01*
X33816666Y-42797619D01*
X33864285Y-42750000D01*
X33935714Y-42726190D01*
X33983333Y-42726190D01*
X34054761Y-42750000D01*
X34078571Y-42773809D01*
X34245238Y-42726190D02*
X34554761Y-42726190D01*
X34388095Y-42916666D01*
X34459523Y-42916666D01*
X34507142Y-42940476D01*
X34530952Y-42964285D01*
X34554761Y-43011904D01*
X34554761Y-43130952D01*
X34530952Y-43178571D01*
X34507142Y-43202380D01*
X34459523Y-43226190D01*
X34316666Y-43226190D01*
X34269047Y-43202380D01*
X34245238Y-43178571D01*
X35007142Y-42726190D02*
X34769047Y-42726190D01*
X34745238Y-42964285D01*
X34769047Y-42940476D01*
X34816666Y-42916666D01*
X34935714Y-42916666D01*
X34983333Y-42940476D01*
X35007142Y-42964285D01*
X35030952Y-43011904D01*
X35030952Y-43130952D01*
X35007142Y-43178571D01*
X34983333Y-43202380D01*
X34935714Y-43226190D01*
X34816666Y-43226190D01*
X34769047Y-43202380D01*
X34745238Y-43178571D01*
X32048571Y-48698571D02*
X32024761Y-48722380D01*
X31953333Y-48746190D01*
X31905714Y-48746190D01*
X31834285Y-48722380D01*
X31786666Y-48674761D01*
X31762857Y-48627142D01*
X31739047Y-48531904D01*
X31739047Y-48460476D01*
X31762857Y-48365238D01*
X31786666Y-48317619D01*
X31834285Y-48270000D01*
X31905714Y-48246190D01*
X31953333Y-48246190D01*
X32024761Y-48270000D01*
X32048571Y-48293809D01*
X32239047Y-48293809D02*
X32262857Y-48270000D01*
X32310476Y-48246190D01*
X32429523Y-48246190D01*
X32477142Y-48270000D01*
X32500952Y-48293809D01*
X32524761Y-48341428D01*
X32524761Y-48389047D01*
X32500952Y-48460476D01*
X32215238Y-48746190D01*
X32524761Y-48746190D01*
X32691428Y-48246190D02*
X33024761Y-48246190D01*
X32810476Y-48746190D01*
X34283333Y-27876190D02*
X34283333Y-28233333D01*
X34259523Y-28304761D01*
X34211904Y-28352380D01*
X34140476Y-28376190D01*
X34092857Y-28376190D01*
X34592857Y-28090476D02*
X34545238Y-28066666D01*
X34521428Y-28042857D01*
X34497619Y-27995238D01*
X34497619Y-27971428D01*
X34521428Y-27923809D01*
X34545238Y-27900000D01*
X34592857Y-27876190D01*
X34688095Y-27876190D01*
X34735714Y-27900000D01*
X34759523Y-27923809D01*
X34783333Y-27971428D01*
X34783333Y-27995238D01*
X34759523Y-28042857D01*
X34735714Y-28066666D01*
X34688095Y-28090476D01*
X34592857Y-28090476D01*
X34545238Y-28114285D01*
X34521428Y-28138095D01*
X34497619Y-28185714D01*
X34497619Y-28280952D01*
X34521428Y-28328571D01*
X34545238Y-28352380D01*
X34592857Y-28376190D01*
X34688095Y-28376190D01*
X34735714Y-28352380D01*
X34759523Y-28328571D01*
X34783333Y-28280952D01*
X34783333Y-28185714D01*
X34759523Y-28138095D01*
X34735714Y-28114285D01*
X34688095Y-28090476D01*
X25922380Y-30383809D02*
X25874761Y-30360000D01*
X25827142Y-30312380D01*
X25755714Y-30240952D01*
X25708095Y-30217142D01*
X25660476Y-30217142D01*
X25684285Y-30336190D02*
X25636666Y-30312380D01*
X25589047Y-30264761D01*
X25565238Y-30169523D01*
X25565238Y-30002857D01*
X25589047Y-29907619D01*
X25636666Y-29860000D01*
X25684285Y-29836190D01*
X25779523Y-29836190D01*
X25827142Y-29860000D01*
X25874761Y-29907619D01*
X25898571Y-30002857D01*
X25898571Y-30169523D01*
X25874761Y-30264761D01*
X25827142Y-30312380D01*
X25779523Y-30336190D01*
X25684285Y-30336190D01*
X26089047Y-29883809D02*
X26112857Y-29860000D01*
X26160476Y-29836190D01*
X26279523Y-29836190D01*
X26327142Y-29860000D01*
X26350952Y-29883809D01*
X26374761Y-29931428D01*
X26374761Y-29979047D01*
X26350952Y-30050476D01*
X26065238Y-30336190D01*
X26374761Y-30336190D01*
X55078571Y-29876190D02*
X54911904Y-29638095D01*
X54792857Y-29876190D02*
X54792857Y-29376190D01*
X54983333Y-29376190D01*
X55030952Y-29400000D01*
X55054761Y-29423809D01*
X55078571Y-29471428D01*
X55078571Y-29542857D01*
X55054761Y-29590476D01*
X55030952Y-29614285D01*
X54983333Y-29638095D01*
X54792857Y-29638095D01*
X55554761Y-29876190D02*
X55269047Y-29876190D01*
X55411904Y-29876190D02*
X55411904Y-29376190D01*
X55364285Y-29447619D01*
X55316666Y-29495238D01*
X55269047Y-29519047D01*
X55721428Y-29376190D02*
X56030952Y-29376190D01*
X55864285Y-29566666D01*
X55935714Y-29566666D01*
X55983333Y-29590476D01*
X56007142Y-29614285D01*
X56030952Y-29661904D01*
X56030952Y-29780952D01*
X56007142Y-29828571D01*
X55983333Y-29852380D01*
X55935714Y-29876190D01*
X55792857Y-29876190D01*
X55745238Y-29852380D01*
X55721428Y-29828571D01*
X46328571Y-29876190D02*
X46161904Y-29638095D01*
X46042857Y-29876190D02*
X46042857Y-29376190D01*
X46233333Y-29376190D01*
X46280952Y-29400000D01*
X46304761Y-29423809D01*
X46328571Y-29471428D01*
X46328571Y-29542857D01*
X46304761Y-29590476D01*
X46280952Y-29614285D01*
X46233333Y-29638095D01*
X46042857Y-29638095D01*
X46804761Y-29876190D02*
X46519047Y-29876190D01*
X46661904Y-29876190D02*
X46661904Y-29376190D01*
X46614285Y-29447619D01*
X46566666Y-29495238D01*
X46519047Y-29519047D01*
X46995238Y-29423809D02*
X47019047Y-29400000D01*
X47066666Y-29376190D01*
X47185714Y-29376190D01*
X47233333Y-29400000D01*
X47257142Y-29423809D01*
X47280952Y-29471428D01*
X47280952Y-29519047D01*
X47257142Y-29590476D01*
X46971428Y-29876190D01*
X47280952Y-29876190D01*
X55078571Y-43751190D02*
X54911904Y-43513095D01*
X54792857Y-43751190D02*
X54792857Y-43251190D01*
X54983333Y-43251190D01*
X55030952Y-43275000D01*
X55054761Y-43298809D01*
X55078571Y-43346428D01*
X55078571Y-43417857D01*
X55054761Y-43465476D01*
X55030952Y-43489285D01*
X54983333Y-43513095D01*
X54792857Y-43513095D01*
X55554761Y-43751190D02*
X55269047Y-43751190D01*
X55411904Y-43751190D02*
X55411904Y-43251190D01*
X55364285Y-43322619D01*
X55316666Y-43370238D01*
X55269047Y-43394047D01*
X56030952Y-43751190D02*
X55745238Y-43751190D01*
X55888095Y-43751190D02*
X55888095Y-43251190D01*
X55840476Y-43322619D01*
X55792857Y-43370238D01*
X55745238Y-43394047D01*
X46278571Y-43751190D02*
X46111904Y-43513095D01*
X45992857Y-43751190D02*
X45992857Y-43251190D01*
X46183333Y-43251190D01*
X46230952Y-43275000D01*
X46254761Y-43298809D01*
X46278571Y-43346428D01*
X46278571Y-43417857D01*
X46254761Y-43465476D01*
X46230952Y-43489285D01*
X46183333Y-43513095D01*
X45992857Y-43513095D01*
X46754761Y-43751190D02*
X46469047Y-43751190D01*
X46611904Y-43751190D02*
X46611904Y-43251190D01*
X46564285Y-43322619D01*
X46516666Y-43370238D01*
X46469047Y-43394047D01*
X47064285Y-43251190D02*
X47111904Y-43251190D01*
X47159523Y-43275000D01*
X47183333Y-43298809D01*
X47207142Y-43346428D01*
X47230952Y-43441666D01*
X47230952Y-43560714D01*
X47207142Y-43655952D01*
X47183333Y-43703571D01*
X47159523Y-43727380D01*
X47111904Y-43751190D01*
X47064285Y-43751190D01*
X47016666Y-43727380D01*
X46992857Y-43703571D01*
X46969047Y-43655952D01*
X46945238Y-43560714D01*
X46945238Y-43441666D01*
X46969047Y-43346428D01*
X46992857Y-43298809D01*
X47016666Y-43275000D01*
X47064285Y-43251190D01*
X55066666Y-57951190D02*
X54900000Y-57713095D01*
X54780952Y-57951190D02*
X54780952Y-57451190D01*
X54971428Y-57451190D01*
X55019047Y-57475000D01*
X55042857Y-57498809D01*
X55066666Y-57546428D01*
X55066666Y-57617857D01*
X55042857Y-57665476D01*
X55019047Y-57689285D01*
X54971428Y-57713095D01*
X54780952Y-57713095D01*
X55233333Y-57451190D02*
X55542857Y-57451190D01*
X55376190Y-57641666D01*
X55447619Y-57641666D01*
X55495238Y-57665476D01*
X55519047Y-57689285D01*
X55542857Y-57736904D01*
X55542857Y-57855952D01*
X55519047Y-57903571D01*
X55495238Y-57927380D01*
X55447619Y-57951190D01*
X55304761Y-57951190D01*
X55257142Y-57927380D01*
X55233333Y-57903571D01*
X46616666Y-57976190D02*
X46450000Y-57738095D01*
X46330952Y-57976190D02*
X46330952Y-57476190D01*
X46521428Y-57476190D01*
X46569047Y-57500000D01*
X46592857Y-57523809D01*
X46616666Y-57571428D01*
X46616666Y-57642857D01*
X46592857Y-57690476D01*
X46569047Y-57714285D01*
X46521428Y-57738095D01*
X46330952Y-57738095D01*
X46807142Y-57523809D02*
X46830952Y-57500000D01*
X46878571Y-57476190D01*
X46997619Y-57476190D01*
X47045238Y-57500000D01*
X47069047Y-57523809D01*
X47092857Y-57571428D01*
X47092857Y-57619047D01*
X47069047Y-57690476D01*
X46783333Y-57976190D01*
X47092857Y-57976190D01*
X71628571Y-58276190D02*
X71461904Y-58038095D01*
X71342857Y-58276190D02*
X71342857Y-57776190D01*
X71533333Y-57776190D01*
X71580952Y-57800000D01*
X71604761Y-57823809D01*
X71628571Y-57871428D01*
X71628571Y-57942857D01*
X71604761Y-57990476D01*
X71580952Y-58014285D01*
X71533333Y-58038095D01*
X71342857Y-58038095D01*
X72104761Y-58276190D02*
X71819047Y-58276190D01*
X71961904Y-58276190D02*
X71961904Y-57776190D01*
X71914285Y-57847619D01*
X71866666Y-57895238D01*
X71819047Y-57919047D01*
X72342857Y-58276190D02*
X72438095Y-58276190D01*
X72485714Y-58252380D01*
X72509523Y-58228571D01*
X72557142Y-58157142D01*
X72580952Y-58061904D01*
X72580952Y-57871428D01*
X72557142Y-57823809D01*
X72533333Y-57800000D01*
X72485714Y-57776190D01*
X72390476Y-57776190D01*
X72342857Y-57800000D01*
X72319047Y-57823809D01*
X72295238Y-57871428D01*
X72295238Y-57990476D01*
X72319047Y-58038095D01*
X72342857Y-58061904D01*
X72390476Y-58085714D01*
X72485714Y-58085714D01*
X72533333Y-58061904D01*
X72557142Y-58038095D01*
X72580952Y-57990476D01*
X71735238Y-27816190D02*
X71735238Y-28173333D01*
X71711428Y-28244761D01*
X71663809Y-28292380D01*
X71592380Y-28316190D01*
X71544761Y-28316190D01*
X72235238Y-28316190D02*
X71949523Y-28316190D01*
X72092380Y-28316190D02*
X72092380Y-27816190D01*
X72044761Y-27887619D01*
X71997142Y-27935238D01*
X71949523Y-27959047D01*
X72711428Y-28316190D02*
X72425714Y-28316190D01*
X72568571Y-28316190D02*
X72568571Y-27816190D01*
X72520952Y-27887619D01*
X72473333Y-27935238D01*
X72425714Y-27959047D01*
X23645238Y-27926190D02*
X23645238Y-28283333D01*
X23621428Y-28354761D01*
X23573809Y-28402380D01*
X23502380Y-28426190D01*
X23454761Y-28426190D01*
X24145238Y-28426190D02*
X23859523Y-28426190D01*
X24002380Y-28426190D02*
X24002380Y-27926190D01*
X23954761Y-27997619D01*
X23907142Y-28045238D01*
X23859523Y-28069047D01*
X24454761Y-27926190D02*
X24502380Y-27926190D01*
X24550000Y-27950000D01*
X24573809Y-27973809D01*
X24597619Y-28021428D01*
X24621428Y-28116666D01*
X24621428Y-28235714D01*
X24597619Y-28330952D01*
X24573809Y-28378571D01*
X24550000Y-28402380D01*
X24502380Y-28426190D01*
X24454761Y-28426190D01*
X24407142Y-28402380D01*
X24383333Y-28378571D01*
X24359523Y-28330952D01*
X24335714Y-28235714D01*
X24335714Y-28116666D01*
X24359523Y-28021428D01*
X24383333Y-27973809D01*
X24407142Y-27950000D01*
X24454761Y-27926190D01*
X76558333Y-61451190D02*
X76558333Y-61808333D01*
X76534523Y-61879761D01*
X76486904Y-61927380D01*
X76415476Y-61951190D01*
X76367857Y-61951190D01*
X77010714Y-61451190D02*
X76915476Y-61451190D01*
X76867857Y-61475000D01*
X76844047Y-61498809D01*
X76796428Y-61570238D01*
X76772619Y-61665476D01*
X76772619Y-61855952D01*
X76796428Y-61903571D01*
X76820238Y-61927380D01*
X76867857Y-61951190D01*
X76963095Y-61951190D01*
X77010714Y-61927380D01*
X77034523Y-61903571D01*
X77058333Y-61855952D01*
X77058333Y-61736904D01*
X77034523Y-61689285D01*
X77010714Y-61665476D01*
X76963095Y-61641666D01*
X76867857Y-61641666D01*
X76820238Y-61665476D01*
X76796428Y-61689285D01*
X76772619Y-61736904D01*
X61278571Y-40428571D02*
X61254761Y-40452380D01*
X61183333Y-40476190D01*
X61135714Y-40476190D01*
X61064285Y-40452380D01*
X61016666Y-40404761D01*
X60992857Y-40357142D01*
X60969047Y-40261904D01*
X60969047Y-40190476D01*
X60992857Y-40095238D01*
X61016666Y-40047619D01*
X61064285Y-40000000D01*
X61135714Y-39976190D01*
X61183333Y-39976190D01*
X61254761Y-40000000D01*
X61278571Y-40023809D01*
X61469047Y-40023809D02*
X61492857Y-40000000D01*
X61540476Y-39976190D01*
X61659523Y-39976190D01*
X61707142Y-40000000D01*
X61730952Y-40023809D01*
X61754761Y-40071428D01*
X61754761Y-40119047D01*
X61730952Y-40190476D01*
X61445238Y-40476190D01*
X61754761Y-40476190D01*
X62040476Y-40190476D02*
X61992857Y-40166666D01*
X61969047Y-40142857D01*
X61945238Y-40095238D01*
X61945238Y-40071428D01*
X61969047Y-40023809D01*
X61992857Y-40000000D01*
X62040476Y-39976190D01*
X62135714Y-39976190D01*
X62183333Y-40000000D01*
X62207142Y-40023809D01*
X62230952Y-40071428D01*
X62230952Y-40095238D01*
X62207142Y-40142857D01*
X62183333Y-40166666D01*
X62135714Y-40190476D01*
X62040476Y-40190476D01*
X61992857Y-40214285D01*
X61969047Y-40238095D01*
X61945238Y-40285714D01*
X61945238Y-40380952D01*
X61969047Y-40428571D01*
X61992857Y-40452380D01*
X62040476Y-40476190D01*
X62135714Y-40476190D01*
X62183333Y-40452380D01*
X62207142Y-40428571D01*
X62230952Y-40380952D01*
X62230952Y-40285714D01*
X62207142Y-40238095D01*
X62183333Y-40214285D01*
X62135714Y-40190476D01*
X74553571Y-56753571D02*
X74529761Y-56777380D01*
X74458333Y-56801190D01*
X74410714Y-56801190D01*
X74339285Y-56777380D01*
X74291666Y-56729761D01*
X74267857Y-56682142D01*
X74244047Y-56586904D01*
X74244047Y-56515476D01*
X74267857Y-56420238D01*
X74291666Y-56372619D01*
X74339285Y-56325000D01*
X74410714Y-56301190D01*
X74458333Y-56301190D01*
X74529761Y-56325000D01*
X74553571Y-56348809D01*
X74744047Y-56348809D02*
X74767857Y-56325000D01*
X74815476Y-56301190D01*
X74934523Y-56301190D01*
X74982142Y-56325000D01*
X75005952Y-56348809D01*
X75029761Y-56396428D01*
X75029761Y-56444047D01*
X75005952Y-56515476D01*
X74720238Y-56801190D01*
X75029761Y-56801190D01*
X75458333Y-56301190D02*
X75363095Y-56301190D01*
X75315476Y-56325000D01*
X75291666Y-56348809D01*
X75244047Y-56420238D01*
X75220238Y-56515476D01*
X75220238Y-56705952D01*
X75244047Y-56753571D01*
X75267857Y-56777380D01*
X75315476Y-56801190D01*
X75410714Y-56801190D01*
X75458333Y-56777380D01*
X75482142Y-56753571D01*
X75505952Y-56705952D01*
X75505952Y-56586904D01*
X75482142Y-56539285D01*
X75458333Y-56515476D01*
X75410714Y-56491666D01*
X75315476Y-56491666D01*
X75267857Y-56515476D01*
X75244047Y-56539285D01*
X75220238Y-56586904D01*
X29378571Y-58178571D02*
X29354761Y-58202380D01*
X29283333Y-58226190D01*
X29235714Y-58226190D01*
X29164285Y-58202380D01*
X29116666Y-58154761D01*
X29092857Y-58107142D01*
X29069047Y-58011904D01*
X29069047Y-57940476D01*
X29092857Y-57845238D01*
X29116666Y-57797619D01*
X29164285Y-57750000D01*
X29235714Y-57726190D01*
X29283333Y-57726190D01*
X29354761Y-57750000D01*
X29378571Y-57773809D01*
X29569047Y-57773809D02*
X29592857Y-57750000D01*
X29640476Y-57726190D01*
X29759523Y-57726190D01*
X29807142Y-57750000D01*
X29830952Y-57773809D01*
X29854761Y-57821428D01*
X29854761Y-57869047D01*
X29830952Y-57940476D01*
X29545238Y-58226190D01*
X29854761Y-58226190D01*
X30330952Y-58226190D02*
X30045238Y-58226190D01*
X30188095Y-58226190D02*
X30188095Y-57726190D01*
X30140476Y-57797619D01*
X30092857Y-57845238D01*
X30045238Y-57869047D01*
X51678571Y-23578571D02*
X51654761Y-23602380D01*
X51583333Y-23626190D01*
X51535714Y-23626190D01*
X51464285Y-23602380D01*
X51416666Y-23554761D01*
X51392857Y-23507142D01*
X51369047Y-23411904D01*
X51369047Y-23340476D01*
X51392857Y-23245238D01*
X51416666Y-23197619D01*
X51464285Y-23150000D01*
X51535714Y-23126190D01*
X51583333Y-23126190D01*
X51654761Y-23150000D01*
X51678571Y-23173809D01*
X52154761Y-23626190D02*
X51869047Y-23626190D01*
X52011904Y-23626190D02*
X52011904Y-23126190D01*
X51964285Y-23197619D01*
X51916666Y-23245238D01*
X51869047Y-23269047D01*
X52583333Y-23126190D02*
X52488095Y-23126190D01*
X52440476Y-23150000D01*
X52416666Y-23173809D01*
X52369047Y-23245238D01*
X52345238Y-23340476D01*
X52345238Y-23530952D01*
X52369047Y-23578571D01*
X52392857Y-23602380D01*
X52440476Y-23626190D01*
X52535714Y-23626190D01*
X52583333Y-23602380D01*
X52607142Y-23578571D01*
X52630952Y-23530952D01*
X52630952Y-23411904D01*
X52607142Y-23364285D01*
X52583333Y-23340476D01*
X52535714Y-23316666D01*
X52440476Y-23316666D01*
X52392857Y-23340476D01*
X52369047Y-23364285D01*
X52345238Y-23411904D01*
X48478571Y-23628571D02*
X48454761Y-23652380D01*
X48383333Y-23676190D01*
X48335714Y-23676190D01*
X48264285Y-23652380D01*
X48216666Y-23604761D01*
X48192857Y-23557142D01*
X48169047Y-23461904D01*
X48169047Y-23390476D01*
X48192857Y-23295238D01*
X48216666Y-23247619D01*
X48264285Y-23200000D01*
X48335714Y-23176190D01*
X48383333Y-23176190D01*
X48454761Y-23200000D01*
X48478571Y-23223809D01*
X48954761Y-23676190D02*
X48669047Y-23676190D01*
X48811904Y-23676190D02*
X48811904Y-23176190D01*
X48764285Y-23247619D01*
X48716666Y-23295238D01*
X48669047Y-23319047D01*
X49407142Y-23176190D02*
X49169047Y-23176190D01*
X49145238Y-23414285D01*
X49169047Y-23390476D01*
X49216666Y-23366666D01*
X49335714Y-23366666D01*
X49383333Y-23390476D01*
X49407142Y-23414285D01*
X49430952Y-23461904D01*
X49430952Y-23580952D01*
X49407142Y-23628571D01*
X49383333Y-23652380D01*
X49335714Y-23676190D01*
X49216666Y-23676190D01*
X49169047Y-23652380D01*
X49145238Y-23628571D01*
X51628571Y-37428571D02*
X51604761Y-37452380D01*
X51533333Y-37476190D01*
X51485714Y-37476190D01*
X51414285Y-37452380D01*
X51366666Y-37404761D01*
X51342857Y-37357142D01*
X51319047Y-37261904D01*
X51319047Y-37190476D01*
X51342857Y-37095238D01*
X51366666Y-37047619D01*
X51414285Y-37000000D01*
X51485714Y-36976190D01*
X51533333Y-36976190D01*
X51604761Y-37000000D01*
X51628571Y-37023809D01*
X52104761Y-37476190D02*
X51819047Y-37476190D01*
X51961904Y-37476190D02*
X51961904Y-36976190D01*
X51914285Y-37047619D01*
X51866666Y-37095238D01*
X51819047Y-37119047D01*
X52533333Y-37142857D02*
X52533333Y-37476190D01*
X52414285Y-36952380D02*
X52295238Y-37309523D01*
X52604761Y-37309523D01*
X47178571Y-38521428D02*
X47202380Y-38545238D01*
X47226190Y-38616666D01*
X47226190Y-38664285D01*
X47202380Y-38735714D01*
X47154761Y-38783333D01*
X47107142Y-38807142D01*
X47011904Y-38830952D01*
X46940476Y-38830952D01*
X46845238Y-38807142D01*
X46797619Y-38783333D01*
X46750000Y-38735714D01*
X46726190Y-38664285D01*
X46726190Y-38616666D01*
X46750000Y-38545238D01*
X46773809Y-38521428D01*
X47226190Y-38045238D02*
X47226190Y-38330952D01*
X47226190Y-38188095D02*
X46726190Y-38188095D01*
X46797619Y-38235714D01*
X46845238Y-38283333D01*
X46869047Y-38330952D01*
X46726190Y-37878571D02*
X46726190Y-37569047D01*
X46916666Y-37735714D01*
X46916666Y-37664285D01*
X46940476Y-37616666D01*
X46964285Y-37592857D01*
X47011904Y-37569047D01*
X47130952Y-37569047D01*
X47178571Y-37592857D01*
X47202380Y-37616666D01*
X47226190Y-37664285D01*
X47226190Y-37807142D01*
X47202380Y-37854761D01*
X47178571Y-37878571D01*
X61578571Y-50678571D02*
X61554761Y-50702380D01*
X61483333Y-50726190D01*
X61435714Y-50726190D01*
X61364285Y-50702380D01*
X61316666Y-50654761D01*
X61292857Y-50607142D01*
X61269047Y-50511904D01*
X61269047Y-50440476D01*
X61292857Y-50345238D01*
X61316666Y-50297619D01*
X61364285Y-50250000D01*
X61435714Y-50226190D01*
X61483333Y-50226190D01*
X61554761Y-50250000D01*
X61578571Y-50273809D01*
X62054761Y-50726190D02*
X61769047Y-50726190D01*
X61911904Y-50726190D02*
X61911904Y-50226190D01*
X61864285Y-50297619D01*
X61816666Y-50345238D01*
X61769047Y-50369047D01*
X62364285Y-50226190D02*
X62411904Y-50226190D01*
X62459523Y-50250000D01*
X62483333Y-50273809D01*
X62507142Y-50321428D01*
X62530952Y-50416666D01*
X62530952Y-50535714D01*
X62507142Y-50630952D01*
X62483333Y-50678571D01*
X62459523Y-50702380D01*
X62411904Y-50726190D01*
X62364285Y-50726190D01*
X62316666Y-50702380D01*
X62292857Y-50678571D01*
X62269047Y-50630952D01*
X62245238Y-50535714D01*
X62245238Y-50416666D01*
X62269047Y-50321428D01*
X62292857Y-50273809D01*
X62316666Y-50250000D01*
X62364285Y-50226190D01*
X73416666Y-34678571D02*
X73392857Y-34702380D01*
X73321428Y-34726190D01*
X73273809Y-34726190D01*
X73202380Y-34702380D01*
X73154761Y-34654761D01*
X73130952Y-34607142D01*
X73107142Y-34511904D01*
X73107142Y-34440476D01*
X73130952Y-34345238D01*
X73154761Y-34297619D01*
X73202380Y-34250000D01*
X73273809Y-34226190D01*
X73321428Y-34226190D01*
X73392857Y-34250000D01*
X73416666Y-34273809D01*
X73654761Y-34726190D02*
X73750000Y-34726190D01*
X73797619Y-34702380D01*
X73821428Y-34678571D01*
X73869047Y-34607142D01*
X73892857Y-34511904D01*
X73892857Y-34321428D01*
X73869047Y-34273809D01*
X73845238Y-34250000D01*
X73797619Y-34226190D01*
X73702380Y-34226190D01*
X73654761Y-34250000D01*
X73630952Y-34273809D01*
X73607142Y-34321428D01*
X73607142Y-34440476D01*
X73630952Y-34488095D01*
X73654761Y-34511904D01*
X73702380Y-34535714D01*
X73797619Y-34535714D01*
X73845238Y-34511904D01*
X73869047Y-34488095D01*
X73892857Y-34440476D01*
X67190338Y-42469041D02*
X67166529Y-42492850D01*
X67095100Y-42516660D01*
X67047481Y-42516660D01*
X66976052Y-42492850D01*
X66928433Y-42445231D01*
X66904624Y-42397612D01*
X66880814Y-42302374D01*
X66880814Y-42230946D01*
X66904624Y-42135708D01*
X66928433Y-42088089D01*
X66976052Y-42040470D01*
X67047481Y-42016660D01*
X67095100Y-42016660D01*
X67166529Y-42040470D01*
X67190338Y-42064279D01*
X67476052Y-42230946D02*
X67428433Y-42207136D01*
X67404624Y-42183327D01*
X67380814Y-42135708D01*
X67380814Y-42111898D01*
X67404624Y-42064279D01*
X67428433Y-42040470D01*
X67476052Y-42016660D01*
X67571291Y-42016660D01*
X67618910Y-42040470D01*
X67642719Y-42064279D01*
X67666529Y-42111898D01*
X67666529Y-42135708D01*
X67642719Y-42183327D01*
X67618910Y-42207136D01*
X67571291Y-42230946D01*
X67476052Y-42230946D01*
X67428433Y-42254755D01*
X67404624Y-42278565D01*
X67380814Y-42326184D01*
X67380814Y-42421422D01*
X67404624Y-42469041D01*
X67428433Y-42492850D01*
X67476052Y-42516660D01*
X67571291Y-42516660D01*
X67618910Y-42492850D01*
X67642719Y-42469041D01*
X67666529Y-42421422D01*
X67666529Y-42326184D01*
X67642719Y-42278565D01*
X67618910Y-42254755D01*
X67571291Y-42230946D01*
X51916666Y-51628571D02*
X51892857Y-51652380D01*
X51821428Y-51676190D01*
X51773809Y-51676190D01*
X51702380Y-51652380D01*
X51654761Y-51604761D01*
X51630952Y-51557142D01*
X51607142Y-51461904D01*
X51607142Y-51390476D01*
X51630952Y-51295238D01*
X51654761Y-51247619D01*
X51702380Y-51200000D01*
X51773809Y-51176190D01*
X51821428Y-51176190D01*
X51892857Y-51200000D01*
X51916666Y-51223809D01*
X52083333Y-51176190D02*
X52392857Y-51176190D01*
X52226190Y-51366666D01*
X52297619Y-51366666D01*
X52345238Y-51390476D01*
X52369047Y-51414285D01*
X52392857Y-51461904D01*
X52392857Y-51580952D01*
X52369047Y-51628571D01*
X52345238Y-51652380D01*
X52297619Y-51676190D01*
X52154761Y-51676190D01*
X52107142Y-51652380D01*
X52083333Y-51628571D01*
X46916666Y-52578571D02*
X46892857Y-52602380D01*
X46821428Y-52626190D01*
X46773809Y-52626190D01*
X46702380Y-52602380D01*
X46654761Y-52554761D01*
X46630952Y-52507142D01*
X46607142Y-52411904D01*
X46607142Y-52340476D01*
X46630952Y-52245238D01*
X46654761Y-52197619D01*
X46702380Y-52150000D01*
X46773809Y-52126190D01*
X46821428Y-52126190D01*
X46892857Y-52150000D01*
X46916666Y-52173809D01*
X47107142Y-52173809D02*
X47130952Y-52150000D01*
X47178571Y-52126190D01*
X47297619Y-52126190D01*
X47345238Y-52150000D01*
X47369047Y-52173809D01*
X47392857Y-52221428D01*
X47392857Y-52269047D01*
X47369047Y-52340476D01*
X47083333Y-52626190D01*
X47392857Y-52626190D01*
M02*
