G04 #@! TF.GenerationSoftware,KiCad,Pcbnew,5.1.4+dfsg1-1*
G04 #@! TF.CreationDate,2019-12-17T05:08:10+01:00*
G04 #@! TF.ProjectId,STM32G431,53544d33-3247-4343-9331-2e6b69636164,rev?*
G04 #@! TF.SameCoordinates,Original*
G04 #@! TF.FileFunction,Copper,L4,Bot*
G04 #@! TF.FilePolarity,Positive*
%FSLAX46Y46*%
G04 Gerber Fmt 4.6, Leading zero omitted, Abs format (unit mm)*
G04 Created by KiCad (PCBNEW 5.1.4+dfsg1-1) date 2019-12-17 05:08:10*
%MOMM*%
%LPD*%
G04 APERTURE LIST*
%ADD10C,0.150000*%
%ADD11C,0.050000*%
%ADD12O,1.350000X1.350000*%
%ADD13R,1.350000X1.350000*%
%ADD14C,0.600000*%
%ADD15C,0.154000*%
G04 APERTURE END LIST*
D10*
X30650284Y-45000000D02*
G75*
G03X30650284Y-45000000I-4400284J0D01*
G01*
X78104595Y-45000000D02*
G75*
G03X78104595Y-45000000I-4354595J0D01*
G01*
D11*
X20000000Y-23000000D02*
X80000000Y-23000000D01*
X20000000Y-67000000D02*
X20000000Y-23000000D01*
X80000000Y-67000000D02*
X20000000Y-67000000D01*
X80000000Y-23000000D02*
X80000000Y-67000000D01*
D12*
X48000000Y-40200000D03*
X50000000Y-40200000D03*
X52000000Y-40200000D03*
X54000000Y-40200000D03*
X56000000Y-40200000D03*
D13*
X58000000Y-40200000D03*
D12*
X48000000Y-54420000D03*
X50000000Y-54420000D03*
X52000000Y-54420000D03*
X54000000Y-54420000D03*
X56000000Y-54420000D03*
D13*
X58000000Y-54420000D03*
D12*
X48000000Y-26280000D03*
X50000000Y-26280000D03*
X52000000Y-26280000D03*
X54000000Y-26280000D03*
X56000000Y-26280000D03*
D13*
X58000000Y-26280000D03*
X23750000Y-51910000D03*
D12*
X23750000Y-53910000D03*
X23750000Y-55910000D03*
D13*
X77000000Y-55910000D03*
D12*
X77000000Y-53910000D03*
X77000000Y-51910000D03*
D14*
X64376777Y-36676777D03*
X63200000Y-43000000D03*
X31050000Y-49600000D03*
X65400000Y-46700000D03*
X65950000Y-45950000D03*
X64850000Y-45900000D03*
X64350000Y-33300000D03*
X70350000Y-33250000D03*
X67400000Y-36350000D03*
X67400000Y-30500000D03*
X39360000Y-43660000D03*
X34770000Y-29050000D03*
X37174001Y-45333797D03*
X28100000Y-31250000D03*
X39870001Y-42689999D03*
X39920000Y-44190000D03*
X39210000Y-45360000D03*
X44250000Y-29150000D03*
X60100000Y-37400000D03*
X68600000Y-39700000D03*
X73700000Y-34478049D03*
X66450000Y-24950000D03*
X66300000Y-27250000D03*
X61500000Y-27100000D03*
X60950000Y-27600000D03*
X66700000Y-27950000D03*
X53050000Y-25550000D03*
X21800000Y-48500000D03*
X22000000Y-50850000D03*
X63750000Y-54650000D03*
X30050000Y-30750000D03*
X60850000Y-38500000D03*
X61450000Y-39150000D03*
X62950000Y-39750000D03*
X63450000Y-40200000D03*
X45800000Y-33500000D03*
X46900000Y-34900000D03*
X46200000Y-34900000D03*
X44400000Y-38200000D03*
X43050000Y-36850000D03*
X32150000Y-49600000D03*
X33250000Y-49600000D03*
X34350000Y-49600000D03*
X35450000Y-49600000D03*
X31050000Y-50700000D03*
X32150000Y-50700000D03*
X33250000Y-50700000D03*
X34350000Y-50700000D03*
X35450000Y-50700000D03*
X31050000Y-51800000D03*
X32150000Y-51800000D03*
X33250000Y-51800000D03*
X34350000Y-51800000D03*
X35450000Y-51800000D03*
X31050000Y-52900000D03*
X32150000Y-52900000D03*
X33250000Y-52900000D03*
X34350000Y-52900000D03*
X35450000Y-52900000D03*
X31050000Y-54000000D03*
X32150000Y-54000000D03*
X33250000Y-54000000D03*
X34350000Y-54000000D03*
X35450000Y-54000000D03*
X31050000Y-55100000D03*
X32150000Y-55100000D03*
X33250000Y-55100000D03*
X34350000Y-55100000D03*
X35450000Y-55100000D03*
X43100000Y-54950000D03*
X45300000Y-55000000D03*
X44200000Y-56850000D03*
X42300000Y-60400000D03*
X44250000Y-63250000D03*
X45400000Y-63250000D03*
X55600000Y-64850000D03*
X55600000Y-65900000D03*
X53250000Y-59750000D03*
X57600000Y-50750000D03*
X58650000Y-50750000D03*
X55700000Y-46350000D03*
X55600000Y-35400000D03*
X55600000Y-34600000D03*
X55550000Y-32450000D03*
X22600000Y-40800000D03*
X22250000Y-33550000D03*
X24700000Y-31200000D03*
X23600000Y-28700000D03*
X21900000Y-27950000D03*
X26800000Y-26550000D03*
X33650000Y-27950000D03*
X31300000Y-33000000D03*
X41200000Y-26500000D03*
X36100000Y-25200000D03*
X45940000Y-25720000D03*
X62050000Y-25350000D03*
X62900000Y-25350000D03*
X65800000Y-24900000D03*
X59050000Y-33350000D03*
X58950000Y-34850000D03*
X76450000Y-38550000D03*
X76500000Y-34150000D03*
X76450000Y-32550000D03*
X76100000Y-31350000D03*
X75900000Y-30350000D03*
X72100000Y-28400000D03*
X72500000Y-27050000D03*
X75100000Y-27000000D03*
X73900000Y-27050000D03*
X60100000Y-43450000D03*
X59150000Y-44150000D03*
X69500000Y-53550000D03*
X75850000Y-59400000D03*
X75850000Y-58450000D03*
X65250000Y-61350000D03*
X66350000Y-61400000D03*
X56300000Y-56700000D03*
X57700000Y-58350000D03*
X57850000Y-60700000D03*
X37850000Y-47750000D03*
X38850000Y-47750000D03*
X39900000Y-47750000D03*
X61930000Y-45620000D03*
X61070000Y-46480000D03*
X61730000Y-50280000D03*
X61740000Y-48940000D03*
X60520000Y-41240000D03*
X59140000Y-42500000D03*
X62230000Y-42880000D03*
X31630000Y-43190000D03*
X32270000Y-43620000D03*
X31160000Y-46690000D03*
X31190000Y-47500000D03*
X31180000Y-48330000D03*
X59500000Y-53200000D03*
X46800000Y-53200000D03*
X64875535Y-42237970D03*
X68233705Y-39040938D03*
X57600000Y-39070998D03*
X46900000Y-38800000D03*
X49300000Y-29100000D03*
X45410000Y-29460000D03*
X41600000Y-39150000D03*
X40950000Y-39150000D03*
X40300000Y-39150000D03*
X40600000Y-38550000D03*
X41300000Y-38550000D03*
X41800000Y-28250000D03*
X71800000Y-53900000D03*
X70499994Y-53900000D03*
X71150000Y-53900000D03*
X76100000Y-26750000D03*
X76625000Y-27275000D03*
X77175000Y-27825000D03*
X31650000Y-30800000D03*
X68400000Y-55520000D03*
X68400000Y-53500000D03*
X73950000Y-53650000D03*
X71675000Y-54975000D03*
X39083255Y-32983255D03*
X59891511Y-25412013D03*
X59500000Y-24531010D03*
X36200000Y-33000000D03*
X33300000Y-33000000D03*
X60350000Y-24350002D03*
X61750000Y-31100000D03*
X41350000Y-25299998D03*
X71733167Y-30733167D03*
X74900006Y-50400000D03*
X69900000Y-37200000D03*
X72800000Y-32800000D03*
X68356593Y-28114334D03*
X68000000Y-50699998D03*
X71512980Y-35617174D03*
X63410000Y-53130000D03*
X69000000Y-38000000D03*
X72474519Y-32025481D03*
X31100000Y-25200000D03*
X70575000Y-28750000D03*
X63900000Y-30400000D03*
X59900000Y-29500000D03*
X58600012Y-37300000D03*
X73700000Y-36387500D03*
X67000000Y-46650000D03*
X67450000Y-46200000D03*
X67850000Y-45650000D03*
X67400000Y-27650000D03*
X45500000Y-41129000D03*
X70000000Y-58150000D03*
X59400000Y-61000000D03*
X62000000Y-54250000D03*
X66900000Y-42150000D03*
X34475000Y-56925000D03*
X41850000Y-57150000D03*
X34420000Y-44250000D03*
X34440000Y-43640000D03*
X34440000Y-43010000D03*
X39000000Y-53950000D03*
X39400000Y-54450000D03*
X39000000Y-54950000D03*
X39450000Y-55400000D03*
X39050000Y-55900000D03*
X52512500Y-60907500D03*
X52027500Y-60422500D03*
X51552500Y-59947500D03*
X39450000Y-56400000D03*
X54712500Y-46507500D03*
X54712500Y-48037500D03*
X54712500Y-47287500D03*
X54612500Y-32757500D03*
X54612500Y-33487500D03*
X54612500Y-34237500D03*
X42000000Y-34050000D03*
X43208023Y-34100000D03*
X72474519Y-30931010D03*
X60417000Y-59583000D03*
X70600000Y-29600000D03*
X72800004Y-53000000D03*
X71200000Y-30200000D03*
X74800000Y-51192886D03*
X71600000Y-36800000D03*
X59283334Y-44983332D03*
X58500000Y-38400000D03*
X61100000Y-43300000D03*
X57369919Y-36457641D03*
X66700000Y-43608000D03*
X67000000Y-44300000D03*
X60301129Y-44401129D03*
X71478270Y-37963991D03*
X61200000Y-54290000D03*
X59671350Y-55106172D03*
X63439519Y-45239519D03*
X65900000Y-28650000D03*
X59450000Y-34150000D03*
X59770809Y-54243020D03*
X60699637Y-53636421D03*
D15*
X64376777Y-36676777D02*
X64376777Y-41823223D01*
X63499999Y-42700001D02*
X63200000Y-43000000D01*
X64376777Y-41823223D02*
X63499999Y-42700001D01*
X59500000Y-53200000D02*
X47300000Y-53200000D01*
X47300000Y-53200000D02*
X46800000Y-53200000D01*
X64875535Y-42237970D02*
X68072567Y-39040938D01*
X68072567Y-39040938D02*
X68233705Y-39040938D01*
X46929001Y-38770999D02*
X46900000Y-38800000D01*
X57600000Y-39070998D02*
X57300001Y-38770999D01*
X57300001Y-38770999D02*
X46929001Y-38770999D01*
X49300000Y-29100000D02*
X45770000Y-29100000D01*
X45770000Y-29100000D02*
X45709999Y-29160001D01*
X45709999Y-29160001D02*
X45410000Y-29460000D01*
X68400000Y-55399994D02*
X68400000Y-53339992D01*
X73950000Y-53650000D02*
X72625000Y-54975000D01*
X72625000Y-54975000D02*
X71675000Y-54975000D01*
X59612013Y-25412013D02*
X59891511Y-25412013D01*
X58700000Y-24500000D02*
X59612013Y-25412013D01*
X39083255Y-26416745D02*
X41000000Y-24500000D01*
X41000000Y-24500000D02*
X58700000Y-24500000D01*
X39083255Y-32983255D02*
X39083255Y-26416745D01*
X36200000Y-32575736D02*
X36200000Y-33000000D01*
X59500000Y-24531010D02*
X59160979Y-24191989D01*
X36200000Y-28100000D02*
X36200000Y-32575736D01*
X40108011Y-24191989D02*
X36200000Y-28100000D01*
X59160979Y-24191989D02*
X40108011Y-24191989D01*
X59858009Y-23858011D02*
X60050001Y-24050003D01*
X60050001Y-24050003D02*
X60350000Y-24350002D01*
X33300000Y-29400000D02*
X38841989Y-23858011D01*
X33300000Y-33000000D02*
X33300000Y-29400000D01*
X38841989Y-23858011D02*
X59858009Y-23858011D01*
X60650000Y-31100000D02*
X59100000Y-29550000D01*
X61750000Y-31100000D02*
X60650000Y-31100000D01*
X59100000Y-29550000D02*
X59100000Y-25614198D01*
X59100000Y-25614198D02*
X58335802Y-24850000D01*
X41799998Y-24850000D02*
X41350000Y-25299998D01*
X58335802Y-24850000D02*
X41799998Y-24850000D01*
X75500000Y-50400000D02*
X74900006Y-50400000D01*
X78483978Y-47416022D02*
X75500000Y-50400000D01*
X78483978Y-43055163D02*
X78483978Y-47416022D01*
X71733167Y-30733167D02*
X72166334Y-30300000D01*
X72166334Y-30300000D02*
X72800000Y-30300000D01*
X72800000Y-30300000D02*
X75183979Y-32683979D01*
X75183979Y-32683979D02*
X75183979Y-39755164D01*
X75183979Y-39755164D02*
X78483978Y-43055163D01*
X69900000Y-37200000D02*
X69900000Y-36435592D01*
X69900000Y-36435592D02*
X72482531Y-33853062D01*
X72500001Y-33099999D02*
X72800000Y-32800000D01*
X72482531Y-33853062D02*
X72482531Y-33117469D01*
X72482531Y-33117469D02*
X72500001Y-33099999D01*
X68691989Y-44879197D02*
X68691989Y-50008009D01*
X72662012Y-31462012D02*
X73391989Y-32191989D01*
X72791989Y-38272422D02*
X72431131Y-38633277D01*
X73391989Y-32191989D02*
X73391989Y-33172419D01*
X71704271Y-31462012D02*
X72662012Y-31462012D01*
X68356593Y-28114334D02*
X71704271Y-31462012D01*
X73391989Y-33172419D02*
X72791989Y-33772418D01*
X68696022Y-42368386D02*
X68696022Y-44875164D01*
X72791989Y-33772418D02*
X72791989Y-38272422D01*
X68691989Y-50008009D02*
X68299999Y-50399999D01*
X68299999Y-50399999D02*
X68000000Y-50699998D01*
X72431131Y-38633277D02*
X68696022Y-42368386D01*
X68696022Y-44875164D02*
X68691989Y-44879197D01*
X63709999Y-52830001D02*
X63410000Y-53130000D01*
X68383978Y-48156022D02*
X63709999Y-52830001D01*
X68383978Y-42244838D02*
X68383978Y-48156022D01*
X72303549Y-38325267D02*
X68383978Y-42244838D01*
X72483979Y-36588173D02*
X72483979Y-38144838D01*
X72483979Y-38144838D02*
X72303549Y-38325267D01*
X71512980Y-35617174D02*
X72483979Y-36588173D01*
X72174520Y-32325480D02*
X72474519Y-32025481D01*
X72174520Y-33725480D02*
X72174520Y-32325480D01*
X69000000Y-38000000D02*
X69000000Y-36900000D01*
X69000000Y-36900000D02*
X72174520Y-33725480D01*
X32750000Y-23550000D02*
X31100000Y-25200000D01*
X68050000Y-23550000D02*
X32750000Y-23550000D01*
X69050000Y-24550000D02*
X68050000Y-23550000D01*
X70575000Y-28750000D02*
X69050000Y-27225000D01*
X69050000Y-27225000D02*
X69050000Y-24550000D01*
X63800000Y-30400000D02*
X60800000Y-30400000D01*
X60800000Y-30400000D02*
X59900000Y-29500000D01*
X34700000Y-57150000D02*
X41850000Y-57150000D01*
X34475000Y-56925000D02*
X34700000Y-57150000D01*
X41881991Y-34050000D02*
X43204010Y-34050000D01*
X43204010Y-34050000D02*
X43254010Y-34100000D01*
X69000000Y-50500000D02*
X69000000Y-50700000D01*
X69000000Y-50500000D02*
X69000000Y-52100000D01*
X60417000Y-59283000D02*
X60417000Y-59583000D01*
X69000000Y-50700000D02*
X60417000Y-59283000D01*
X69000000Y-50500000D02*
X69000000Y-45006779D01*
X72898783Y-30931010D02*
X72474519Y-30931010D01*
X72666970Y-38833030D02*
X73100000Y-38400004D01*
X69004033Y-42495967D02*
X72666970Y-38833030D01*
X73700000Y-33300001D02*
X73700000Y-31732227D01*
X69004033Y-45002746D02*
X69004033Y-42495967D01*
X73100000Y-33900000D02*
X73700000Y-33300001D01*
X73700000Y-31732227D02*
X72898783Y-30931010D01*
X69000000Y-45006779D02*
X69004033Y-45002746D01*
X73100000Y-38400004D02*
X73100000Y-33900000D01*
X79100000Y-42800000D02*
X79100000Y-47724264D01*
X79100000Y-47724264D02*
X73824264Y-53000000D01*
X75800000Y-32400000D02*
X75800000Y-39500000D01*
X75800000Y-39500000D02*
X79100000Y-42800000D01*
X73824264Y-53000000D02*
X73224268Y-53000000D01*
X70600000Y-29600000D02*
X73000000Y-29600000D01*
X73224268Y-53000000D02*
X72800004Y-53000000D01*
X73000000Y-29600000D02*
X75800000Y-32400000D01*
X75491990Y-32527582D02*
X75491990Y-39627582D01*
X78791989Y-42927581D02*
X78791989Y-47556794D01*
X75491990Y-39627582D02*
X78791989Y-42927581D01*
X72872419Y-29908011D02*
X75491990Y-32527582D01*
X71200000Y-30200000D02*
X71624264Y-30200000D01*
X71624264Y-30200000D02*
X71916253Y-29908011D01*
X78791989Y-47556794D02*
X75155897Y-51192886D01*
X71916253Y-29908011D02*
X72872419Y-29908011D01*
X75155897Y-51192886D02*
X74800000Y-51192886D01*
X59707598Y-44983332D02*
X59283334Y-44983332D01*
X63170000Y-45790000D02*
X62363332Y-44983332D01*
X68075967Y-44624033D02*
X67400000Y-45300000D01*
X72175968Y-37375968D02*
X72175967Y-38017257D01*
X67400000Y-45300000D02*
X64130000Y-45300000D01*
X64130000Y-45300000D02*
X63640000Y-45790000D01*
X68075967Y-42117256D02*
X68075967Y-44624033D01*
X72175967Y-38017257D02*
X68075967Y-42117256D01*
X63640000Y-45790000D02*
X63170000Y-45790000D01*
X71600000Y-36800000D02*
X72175968Y-37375968D01*
X62363332Y-44983332D02*
X59707598Y-44983332D01*
X57369919Y-37269919D02*
X57369919Y-36881905D01*
X58500000Y-38400000D02*
X57369919Y-37269919D01*
X57369919Y-36881905D02*
X57369919Y-36457641D01*
X66275736Y-43608000D02*
X66700000Y-43608000D01*
X61100000Y-43300000D02*
X61408000Y-43608000D01*
X61408000Y-43608000D02*
X66275736Y-43608000D01*
X67000000Y-44300000D02*
X60402258Y-44300000D01*
X60402258Y-44300000D02*
X60301129Y-44401129D01*
X61200000Y-54290000D02*
X60487522Y-54290000D01*
X60487522Y-54290000D02*
X59671350Y-55106172D01*
X67551989Y-44712419D02*
X67351008Y-44913400D01*
X71478270Y-37963991D02*
X67551989Y-41890272D01*
X67551989Y-41890272D02*
X67551989Y-44712419D01*
X63765638Y-44913400D02*
X63739518Y-44939520D01*
X63739518Y-44939520D02*
X63439519Y-45239519D01*
X67351008Y-44913400D02*
X63765638Y-44913400D01*
X61250000Y-34150000D02*
X59874264Y-34150000D01*
X59874264Y-34150000D02*
X59450000Y-34150000D01*
X65900000Y-28650000D02*
X65900000Y-29500000D01*
X65900000Y-29500000D02*
X61250000Y-34150000D01*
X60699637Y-53636421D02*
X60093038Y-54243020D01*
X60093038Y-54243020D02*
X59770809Y-54243020D01*
G36*
X79798001Y-66798000D02*
G01*
X20202000Y-66798000D01*
X20202000Y-59898550D01*
X51055500Y-59898550D01*
X51055500Y-59996450D01*
X51074599Y-60092470D01*
X51112064Y-60182918D01*
X51166455Y-60264319D01*
X51235681Y-60333545D01*
X51317082Y-60387936D01*
X51407530Y-60425401D01*
X51503550Y-60444500D01*
X51530500Y-60444500D01*
X51530500Y-60471450D01*
X51549599Y-60567470D01*
X51587064Y-60657918D01*
X51641455Y-60739319D01*
X51710681Y-60808545D01*
X51792082Y-60862936D01*
X51882530Y-60900401D01*
X51978550Y-60919500D01*
X52015500Y-60919500D01*
X52015500Y-60956450D01*
X52034599Y-61052470D01*
X52072064Y-61142918D01*
X52126455Y-61224319D01*
X52195681Y-61293545D01*
X52277082Y-61347936D01*
X52367530Y-61385401D01*
X52463550Y-61404500D01*
X52561450Y-61404500D01*
X52657470Y-61385401D01*
X52747918Y-61347936D01*
X52829319Y-61293545D01*
X52898545Y-61224319D01*
X52952936Y-61142918D01*
X52990401Y-61052470D01*
X53009500Y-60956450D01*
X53009500Y-60951050D01*
X58903000Y-60951050D01*
X58903000Y-61048950D01*
X58922099Y-61144970D01*
X58959564Y-61235418D01*
X59013955Y-61316819D01*
X59083181Y-61386045D01*
X59164582Y-61440436D01*
X59255030Y-61477901D01*
X59351050Y-61497000D01*
X59448950Y-61497000D01*
X59544970Y-61477901D01*
X59635418Y-61440436D01*
X59716819Y-61386045D01*
X59786045Y-61316819D01*
X59840436Y-61235418D01*
X59877901Y-61144970D01*
X59897000Y-61048950D01*
X59897000Y-60951050D01*
X59877901Y-60855030D01*
X59840436Y-60764582D01*
X59786045Y-60683181D01*
X59716819Y-60613955D01*
X59635418Y-60559564D01*
X59544970Y-60522099D01*
X59448950Y-60503000D01*
X59351050Y-60503000D01*
X59255030Y-60522099D01*
X59164582Y-60559564D01*
X59083181Y-60613955D01*
X59013955Y-60683181D01*
X58959564Y-60764582D01*
X58922099Y-60855030D01*
X58903000Y-60951050D01*
X53009500Y-60951050D01*
X53009500Y-60858550D01*
X52990401Y-60762530D01*
X52952936Y-60672082D01*
X52898545Y-60590681D01*
X52829319Y-60521455D01*
X52747918Y-60467064D01*
X52657470Y-60429599D01*
X52561450Y-60410500D01*
X52524500Y-60410500D01*
X52524500Y-60373550D01*
X52505401Y-60277530D01*
X52467936Y-60187082D01*
X52413545Y-60105681D01*
X52344319Y-60036455D01*
X52262918Y-59982064D01*
X52172470Y-59944599D01*
X52076450Y-59925500D01*
X52049500Y-59925500D01*
X52049500Y-59898550D01*
X52030401Y-59802530D01*
X51992936Y-59712082D01*
X51938545Y-59630681D01*
X51869319Y-59561455D01*
X51787918Y-59507064D01*
X51697470Y-59469599D01*
X51601450Y-59450500D01*
X51503550Y-59450500D01*
X51407530Y-59469599D01*
X51317082Y-59507064D01*
X51235681Y-59561455D01*
X51166455Y-59630681D01*
X51112064Y-59712082D01*
X51074599Y-59802530D01*
X51055500Y-59898550D01*
X20202000Y-59898550D01*
X20202000Y-55910000D01*
X22642668Y-55910000D01*
X22663945Y-56126030D01*
X22726959Y-56333758D01*
X22829287Y-56525201D01*
X22966998Y-56693002D01*
X23134799Y-56830713D01*
X23326242Y-56933041D01*
X23533970Y-56996055D01*
X23695863Y-57012000D01*
X23804137Y-57012000D01*
X23966030Y-56996055D01*
X24173758Y-56933041D01*
X24280381Y-56876050D01*
X33978000Y-56876050D01*
X33978000Y-56973950D01*
X33997099Y-57069970D01*
X34034564Y-57160418D01*
X34088955Y-57241819D01*
X34158181Y-57311045D01*
X34239582Y-57365436D01*
X34330030Y-57402901D01*
X34426050Y-57422000D01*
X34523950Y-57422000D01*
X34601751Y-57406525D01*
X34646287Y-57420035D01*
X34686546Y-57424000D01*
X34686556Y-57424000D01*
X34699999Y-57425324D01*
X34713443Y-57424000D01*
X41435344Y-57424000D01*
X41463955Y-57466819D01*
X41533181Y-57536045D01*
X41614582Y-57590436D01*
X41705030Y-57627901D01*
X41801050Y-57647000D01*
X41898950Y-57647000D01*
X41994970Y-57627901D01*
X42085418Y-57590436D01*
X42166819Y-57536045D01*
X42236045Y-57466819D01*
X42290436Y-57385418D01*
X42327901Y-57294970D01*
X42347000Y-57198950D01*
X42347000Y-57101050D01*
X42327901Y-57005030D01*
X42290436Y-56914582D01*
X42236045Y-56833181D01*
X42166819Y-56763955D01*
X42085418Y-56709564D01*
X41994970Y-56672099D01*
X41898950Y-56653000D01*
X41801050Y-56653000D01*
X41705030Y-56672099D01*
X41614582Y-56709564D01*
X41533181Y-56763955D01*
X41463955Y-56833181D01*
X41435344Y-56876000D01*
X39599559Y-56876000D01*
X39685418Y-56840436D01*
X39766819Y-56786045D01*
X39836045Y-56716819D01*
X39890436Y-56635418D01*
X39927901Y-56544970D01*
X39947000Y-56448950D01*
X39947000Y-56351050D01*
X39927901Y-56255030D01*
X39890436Y-56164582D01*
X39836045Y-56083181D01*
X39766819Y-56013955D01*
X39685418Y-55959564D01*
X39594970Y-55922099D01*
X39547000Y-55912557D01*
X39547000Y-55887443D01*
X39594970Y-55877901D01*
X39685418Y-55840436D01*
X39766819Y-55786045D01*
X39836045Y-55716819D01*
X39890436Y-55635418D01*
X39927901Y-55544970D01*
X39947000Y-55448950D01*
X39947000Y-55351050D01*
X39927901Y-55255030D01*
X39890436Y-55164582D01*
X39836045Y-55083181D01*
X39766819Y-55013955D01*
X39685418Y-54959564D01*
X39594970Y-54922099D01*
X39570654Y-54917262D01*
X39635418Y-54890436D01*
X39716819Y-54836045D01*
X39786045Y-54766819D01*
X39840436Y-54685418D01*
X39877901Y-54594970D01*
X39897000Y-54498950D01*
X39897000Y-54401050D01*
X39877901Y-54305030D01*
X39840436Y-54214582D01*
X39786045Y-54133181D01*
X39716819Y-54063955D01*
X39635418Y-54009564D01*
X39544970Y-53972099D01*
X39497000Y-53962557D01*
X39497000Y-53901050D01*
X39477901Y-53805030D01*
X39440436Y-53714582D01*
X39386045Y-53633181D01*
X39316819Y-53563955D01*
X39235418Y-53509564D01*
X39144970Y-53472099D01*
X39048950Y-53453000D01*
X38951050Y-53453000D01*
X38855030Y-53472099D01*
X38764582Y-53509564D01*
X38683181Y-53563955D01*
X38613955Y-53633181D01*
X38559564Y-53714582D01*
X38522099Y-53805030D01*
X38503000Y-53901050D01*
X38503000Y-53998950D01*
X38522099Y-54094970D01*
X38559564Y-54185418D01*
X38613955Y-54266819D01*
X38683181Y-54336045D01*
X38764582Y-54390436D01*
X38855030Y-54427901D01*
X38903000Y-54437443D01*
X38903000Y-54462557D01*
X38855030Y-54472099D01*
X38764582Y-54509564D01*
X38683181Y-54563955D01*
X38613955Y-54633181D01*
X38559564Y-54714582D01*
X38522099Y-54805030D01*
X38503000Y-54901050D01*
X38503000Y-54998950D01*
X38522099Y-55094970D01*
X38559564Y-55185418D01*
X38613955Y-55266819D01*
X38683181Y-55336045D01*
X38764582Y-55390436D01*
X38855030Y-55427901D01*
X38879346Y-55432738D01*
X38814582Y-55459564D01*
X38733181Y-55513955D01*
X38663955Y-55583181D01*
X38609564Y-55664582D01*
X38572099Y-55755030D01*
X38553000Y-55851050D01*
X38553000Y-55948950D01*
X38572099Y-56044970D01*
X38609564Y-56135418D01*
X38663955Y-56216819D01*
X38733181Y-56286045D01*
X38814582Y-56340436D01*
X38905030Y-56377901D01*
X38953000Y-56387443D01*
X38953000Y-56448950D01*
X38972099Y-56544970D01*
X39009564Y-56635418D01*
X39063955Y-56716819D01*
X39133181Y-56786045D01*
X39214582Y-56840436D01*
X39300441Y-56876000D01*
X34971990Y-56876000D01*
X34952901Y-56780030D01*
X34915436Y-56689582D01*
X34861045Y-56608181D01*
X34791819Y-56538955D01*
X34710418Y-56484564D01*
X34619970Y-56447099D01*
X34523950Y-56428000D01*
X34426050Y-56428000D01*
X34330030Y-56447099D01*
X34239582Y-56484564D01*
X34158181Y-56538955D01*
X34088955Y-56608181D01*
X34034564Y-56689582D01*
X33997099Y-56780030D01*
X33978000Y-56876050D01*
X24280381Y-56876050D01*
X24365201Y-56830713D01*
X24533002Y-56693002D01*
X24670713Y-56525201D01*
X24773041Y-56333758D01*
X24836055Y-56126030D01*
X24857332Y-55910000D01*
X24836055Y-55693970D01*
X24773041Y-55486242D01*
X24670713Y-55294799D01*
X24533002Y-55126998D01*
X24365201Y-54989287D01*
X24173758Y-54886959D01*
X23966030Y-54823945D01*
X23823002Y-54809858D01*
X23823002Y-54755310D01*
X23963371Y-54790521D01*
X24131052Y-54731975D01*
X24284090Y-54641841D01*
X24416603Y-54523583D01*
X24523499Y-54381745D01*
X24600669Y-54221778D01*
X24630516Y-54123370D01*
X24595103Y-53983000D01*
X23823000Y-53983000D01*
X23823000Y-54003000D01*
X23677000Y-54003000D01*
X23677000Y-53983000D01*
X22904897Y-53983000D01*
X22869484Y-54123370D01*
X22899331Y-54221778D01*
X22976501Y-54381745D01*
X23083397Y-54523583D01*
X23215910Y-54641841D01*
X23368948Y-54731975D01*
X23536629Y-54790521D01*
X23676998Y-54755310D01*
X23676998Y-54809858D01*
X23533970Y-54823945D01*
X23326242Y-54886959D01*
X23134799Y-54989287D01*
X22966998Y-55126998D01*
X22829287Y-55294799D01*
X22726959Y-55486242D01*
X22663945Y-55693970D01*
X22642668Y-55910000D01*
X20202000Y-55910000D01*
X20202000Y-53696630D01*
X22869484Y-53696630D01*
X22904897Y-53837000D01*
X23677000Y-53837000D01*
X23677000Y-53064691D01*
X23823000Y-53064691D01*
X23823000Y-53837000D01*
X24595103Y-53837000D01*
X24630516Y-53696630D01*
X24600669Y-53598222D01*
X24523499Y-53438255D01*
X24416603Y-53296417D01*
X24284090Y-53178159D01*
X24238062Y-53151050D01*
X46303000Y-53151050D01*
X46303000Y-53248950D01*
X46322099Y-53344970D01*
X46359564Y-53435418D01*
X46413955Y-53516819D01*
X46483181Y-53586045D01*
X46564582Y-53640436D01*
X46655030Y-53677901D01*
X46751050Y-53697000D01*
X46848950Y-53697000D01*
X46944970Y-53677901D01*
X47035418Y-53640436D01*
X47116819Y-53586045D01*
X47186045Y-53516819D01*
X47214656Y-53474000D01*
X47432108Y-53474000D01*
X47384799Y-53499287D01*
X47216998Y-53636998D01*
X47079287Y-53804799D01*
X46976959Y-53996242D01*
X46913945Y-54203970D01*
X46892668Y-54420000D01*
X46913945Y-54636030D01*
X46976959Y-54843758D01*
X47079287Y-55035201D01*
X47216998Y-55203002D01*
X47384799Y-55340713D01*
X47576242Y-55443041D01*
X47783970Y-55506055D01*
X47945863Y-55522000D01*
X48054137Y-55522000D01*
X48216030Y-55506055D01*
X48423758Y-55443041D01*
X48615201Y-55340713D01*
X48783002Y-55203002D01*
X48920713Y-55035201D01*
X49023041Y-54843758D01*
X49086055Y-54636030D01*
X49107332Y-54420000D01*
X49123781Y-54420000D01*
X49140617Y-54590942D01*
X49190479Y-54755314D01*
X49271451Y-54906801D01*
X49380420Y-55039580D01*
X49513199Y-55148549D01*
X49664686Y-55229521D01*
X49829058Y-55279383D01*
X49957163Y-55292000D01*
X50042837Y-55292000D01*
X50170942Y-55279383D01*
X50335314Y-55229521D01*
X50486801Y-55148549D01*
X50619580Y-55039580D01*
X50728549Y-54906801D01*
X50809521Y-54755314D01*
X50859383Y-54590942D01*
X50876219Y-54420000D01*
X51123781Y-54420000D01*
X51140617Y-54590942D01*
X51190479Y-54755314D01*
X51271451Y-54906801D01*
X51380420Y-55039580D01*
X51513199Y-55148549D01*
X51664686Y-55229521D01*
X51829058Y-55279383D01*
X51957163Y-55292000D01*
X52042837Y-55292000D01*
X52170942Y-55279383D01*
X52335314Y-55229521D01*
X52486801Y-55148549D01*
X52619580Y-55039580D01*
X52728549Y-54906801D01*
X52809521Y-54755314D01*
X52859383Y-54590942D01*
X52876219Y-54420000D01*
X53123781Y-54420000D01*
X53140617Y-54590942D01*
X53190479Y-54755314D01*
X53271451Y-54906801D01*
X53380420Y-55039580D01*
X53513199Y-55148549D01*
X53664686Y-55229521D01*
X53829058Y-55279383D01*
X53957163Y-55292000D01*
X54042837Y-55292000D01*
X54170942Y-55279383D01*
X54335314Y-55229521D01*
X54486801Y-55148549D01*
X54619580Y-55039580D01*
X54728549Y-54906801D01*
X54809521Y-54755314D01*
X54859383Y-54590942D01*
X54876219Y-54420000D01*
X55123781Y-54420000D01*
X55140617Y-54590942D01*
X55190479Y-54755314D01*
X55271451Y-54906801D01*
X55380420Y-55039580D01*
X55513199Y-55148549D01*
X55664686Y-55229521D01*
X55829058Y-55279383D01*
X55957163Y-55292000D01*
X56042837Y-55292000D01*
X56170942Y-55279383D01*
X56335314Y-55229521D01*
X56486801Y-55148549D01*
X56619580Y-55039580D01*
X56728549Y-54906801D01*
X56809521Y-54755314D01*
X56859383Y-54590942D01*
X56876219Y-54420000D01*
X56859383Y-54249058D01*
X56809521Y-54084686D01*
X56728549Y-53933199D01*
X56619580Y-53800420D01*
X56552051Y-53745000D01*
X57127047Y-53745000D01*
X57127047Y-55095000D01*
X57130851Y-55133619D01*
X57142115Y-55170753D01*
X57160408Y-55204977D01*
X57185026Y-55234974D01*
X57215023Y-55259592D01*
X57249247Y-55277885D01*
X57286381Y-55289149D01*
X57325000Y-55292953D01*
X58675000Y-55292953D01*
X58713619Y-55289149D01*
X58750753Y-55277885D01*
X58784977Y-55259592D01*
X58814974Y-55234974D01*
X58839592Y-55204977D01*
X58857885Y-55170753D01*
X58869149Y-55133619D01*
X58872953Y-55095000D01*
X58872953Y-55057222D01*
X59174350Y-55057222D01*
X59174350Y-55155122D01*
X59193449Y-55251142D01*
X59230914Y-55341590D01*
X59285305Y-55422991D01*
X59354531Y-55492217D01*
X59435932Y-55546608D01*
X59526380Y-55584073D01*
X59622400Y-55603172D01*
X59720300Y-55603172D01*
X59816320Y-55584073D01*
X59906768Y-55546608D01*
X59988169Y-55492217D01*
X60057395Y-55422991D01*
X60111786Y-55341590D01*
X60149251Y-55251142D01*
X60168350Y-55155122D01*
X60168350Y-55057222D01*
X60158303Y-55006712D01*
X60601017Y-54564000D01*
X60785344Y-54564000D01*
X60813955Y-54606819D01*
X60883181Y-54676045D01*
X60964582Y-54730436D01*
X61055030Y-54767901D01*
X61151050Y-54787000D01*
X61248950Y-54787000D01*
X61344970Y-54767901D01*
X61435418Y-54730436D01*
X61516819Y-54676045D01*
X61586045Y-54606819D01*
X61613364Y-54565934D01*
X61613955Y-54566819D01*
X61683181Y-54636045D01*
X61764582Y-54690436D01*
X61855030Y-54727901D01*
X61951050Y-54747000D01*
X62048950Y-54747000D01*
X62144970Y-54727901D01*
X62235418Y-54690436D01*
X62316819Y-54636045D01*
X62386045Y-54566819D01*
X62440436Y-54485418D01*
X62477901Y-54394970D01*
X62497000Y-54298950D01*
X62497000Y-54201050D01*
X62477901Y-54105030D01*
X62440436Y-54014582D01*
X62386045Y-53933181D01*
X62316819Y-53863955D01*
X62235418Y-53809564D01*
X62144970Y-53772099D01*
X62048950Y-53753000D01*
X61951050Y-53753000D01*
X61855030Y-53772099D01*
X61764582Y-53809564D01*
X61683181Y-53863955D01*
X61613955Y-53933181D01*
X61586636Y-53974066D01*
X61586045Y-53973181D01*
X61516819Y-53903955D01*
X61435418Y-53849564D01*
X61344970Y-53812099D01*
X61248950Y-53793000D01*
X61172729Y-53793000D01*
X61177538Y-53781391D01*
X61196637Y-53685371D01*
X61196637Y-53587471D01*
X61177538Y-53491451D01*
X61140073Y-53401003D01*
X61085682Y-53319602D01*
X61016456Y-53250376D01*
X60935055Y-53195985D01*
X60844607Y-53158520D01*
X60748587Y-53139421D01*
X60650687Y-53139421D01*
X60554667Y-53158520D01*
X60464219Y-53195985D01*
X60382818Y-53250376D01*
X60313592Y-53319602D01*
X60259201Y-53401003D01*
X60221736Y-53491451D01*
X60202637Y-53587471D01*
X60202637Y-53685371D01*
X60212684Y-53735880D01*
X60089609Y-53858956D01*
X60087628Y-53856975D01*
X60006227Y-53802584D01*
X59915779Y-53765119D01*
X59819759Y-53746020D01*
X59721859Y-53746020D01*
X59625839Y-53765119D01*
X59535391Y-53802584D01*
X59453990Y-53856975D01*
X59384764Y-53926201D01*
X59330373Y-54007602D01*
X59292908Y-54098050D01*
X59273809Y-54194070D01*
X59273809Y-54291970D01*
X59292908Y-54387990D01*
X59330373Y-54478438D01*
X59384764Y-54559839D01*
X59453990Y-54629065D01*
X59480959Y-54647085D01*
X59435932Y-54665736D01*
X59354531Y-54720127D01*
X59285305Y-54789353D01*
X59230914Y-54870754D01*
X59193449Y-54961202D01*
X59174350Y-55057222D01*
X58872953Y-55057222D01*
X58872953Y-53745000D01*
X58869149Y-53706381D01*
X58857885Y-53669247D01*
X58839592Y-53635023D01*
X58814974Y-53605026D01*
X58784977Y-53580408D01*
X58750753Y-53562115D01*
X58713619Y-53550851D01*
X58675000Y-53547047D01*
X57325000Y-53547047D01*
X57286381Y-53550851D01*
X57249247Y-53562115D01*
X57215023Y-53580408D01*
X57185026Y-53605026D01*
X57160408Y-53635023D01*
X57142115Y-53669247D01*
X57130851Y-53706381D01*
X57127047Y-53745000D01*
X56552051Y-53745000D01*
X56486801Y-53691451D01*
X56335314Y-53610479D01*
X56170942Y-53560617D01*
X56042837Y-53548000D01*
X55957163Y-53548000D01*
X55829058Y-53560617D01*
X55664686Y-53610479D01*
X55513199Y-53691451D01*
X55380420Y-53800420D01*
X55271451Y-53933199D01*
X55190479Y-54084686D01*
X55140617Y-54249058D01*
X55123781Y-54420000D01*
X54876219Y-54420000D01*
X54859383Y-54249058D01*
X54809521Y-54084686D01*
X54728549Y-53933199D01*
X54619580Y-53800420D01*
X54486801Y-53691451D01*
X54335314Y-53610479D01*
X54170942Y-53560617D01*
X54042837Y-53548000D01*
X53957163Y-53548000D01*
X53829058Y-53560617D01*
X53664686Y-53610479D01*
X53513199Y-53691451D01*
X53380420Y-53800420D01*
X53271451Y-53933199D01*
X53190479Y-54084686D01*
X53140617Y-54249058D01*
X53123781Y-54420000D01*
X52876219Y-54420000D01*
X52859383Y-54249058D01*
X52809521Y-54084686D01*
X52728549Y-53933199D01*
X52619580Y-53800420D01*
X52486801Y-53691451D01*
X52335314Y-53610479D01*
X52170942Y-53560617D01*
X52042837Y-53548000D01*
X51957163Y-53548000D01*
X51829058Y-53560617D01*
X51664686Y-53610479D01*
X51513199Y-53691451D01*
X51380420Y-53800420D01*
X51271451Y-53933199D01*
X51190479Y-54084686D01*
X51140617Y-54249058D01*
X51123781Y-54420000D01*
X50876219Y-54420000D01*
X50859383Y-54249058D01*
X50809521Y-54084686D01*
X50728549Y-53933199D01*
X50619580Y-53800420D01*
X50486801Y-53691451D01*
X50335314Y-53610479D01*
X50170942Y-53560617D01*
X50042837Y-53548000D01*
X49957163Y-53548000D01*
X49829058Y-53560617D01*
X49664686Y-53610479D01*
X49513199Y-53691451D01*
X49380420Y-53800420D01*
X49271451Y-53933199D01*
X49190479Y-54084686D01*
X49140617Y-54249058D01*
X49123781Y-54420000D01*
X49107332Y-54420000D01*
X49086055Y-54203970D01*
X49023041Y-53996242D01*
X48920713Y-53804799D01*
X48783002Y-53636998D01*
X48615201Y-53499287D01*
X48567892Y-53474000D01*
X59085344Y-53474000D01*
X59113955Y-53516819D01*
X59183181Y-53586045D01*
X59264582Y-53640436D01*
X59355030Y-53677901D01*
X59451050Y-53697000D01*
X59548950Y-53697000D01*
X59644970Y-53677901D01*
X59735418Y-53640436D01*
X59816819Y-53586045D01*
X59886045Y-53516819D01*
X59940436Y-53435418D01*
X59977901Y-53344970D01*
X59997000Y-53248950D01*
X59997000Y-53151050D01*
X59977901Y-53055030D01*
X59940436Y-52964582D01*
X59886045Y-52883181D01*
X59816819Y-52813955D01*
X59735418Y-52759564D01*
X59644970Y-52722099D01*
X59548950Y-52703000D01*
X59451050Y-52703000D01*
X59355030Y-52722099D01*
X59264582Y-52759564D01*
X59183181Y-52813955D01*
X59113955Y-52883181D01*
X59085344Y-52926000D01*
X47214656Y-52926000D01*
X47186045Y-52883181D01*
X47116819Y-52813955D01*
X47035418Y-52759564D01*
X46944970Y-52722099D01*
X46848950Y-52703000D01*
X46751050Y-52703000D01*
X46655030Y-52722099D01*
X46564582Y-52759564D01*
X46483181Y-52813955D01*
X46413955Y-52883181D01*
X46359564Y-52964582D01*
X46322099Y-53055030D01*
X46303000Y-53151050D01*
X24238062Y-53151050D01*
X24131052Y-53088025D01*
X23963371Y-53029479D01*
X23823000Y-53064691D01*
X23677000Y-53064691D01*
X23536629Y-53029479D01*
X23368948Y-53088025D01*
X23215910Y-53178159D01*
X23083397Y-53296417D01*
X22976501Y-53438255D01*
X22899331Y-53598222D01*
X22869484Y-53696630D01*
X20202000Y-53696630D01*
X20202000Y-51235000D01*
X22877047Y-51235000D01*
X22877047Y-52585000D01*
X22880851Y-52623619D01*
X22892115Y-52660753D01*
X22910408Y-52694977D01*
X22935026Y-52724974D01*
X22965023Y-52749592D01*
X22999247Y-52767885D01*
X23036381Y-52779149D01*
X23075000Y-52782953D01*
X24425000Y-52782953D01*
X24463619Y-52779149D01*
X24500753Y-52767885D01*
X24534977Y-52749592D01*
X24564974Y-52724974D01*
X24589592Y-52694977D01*
X24607885Y-52660753D01*
X24619149Y-52623619D01*
X24622953Y-52585000D01*
X24622953Y-51235000D01*
X24619149Y-51196381D01*
X24607885Y-51159247D01*
X24589592Y-51125023D01*
X24564974Y-51095026D01*
X24534977Y-51070408D01*
X24500753Y-51052115D01*
X24463619Y-51040851D01*
X24425000Y-51037047D01*
X23075000Y-51037047D01*
X23036381Y-51040851D01*
X22999247Y-51052115D01*
X22965023Y-51070408D01*
X22935026Y-51095026D01*
X22910408Y-51125023D01*
X22892115Y-51159247D01*
X22880851Y-51196381D01*
X22877047Y-51235000D01*
X20202000Y-51235000D01*
X20202000Y-45000000D01*
X21577716Y-45000000D01*
X21662150Y-45884236D01*
X21912401Y-46736513D01*
X22319425Y-47526027D01*
X22868509Y-48224245D01*
X23539809Y-48805930D01*
X24309063Y-49250059D01*
X25148467Y-49540580D01*
X26027684Y-49666992D01*
X26914935Y-49624727D01*
X27778154Y-49415312D01*
X28586142Y-49046317D01*
X29309695Y-48531077D01*
X29922663Y-47888214D01*
X30402892Y-47140964D01*
X30676089Y-46458550D01*
X54215500Y-46458550D01*
X54215500Y-46556450D01*
X54234599Y-46652470D01*
X54272064Y-46742918D01*
X54326455Y-46824319D01*
X54395681Y-46893545D01*
X54401600Y-46897500D01*
X54395681Y-46901455D01*
X54326455Y-46970681D01*
X54272064Y-47052082D01*
X54234599Y-47142530D01*
X54215500Y-47238550D01*
X54215500Y-47336450D01*
X54234599Y-47432470D01*
X54272064Y-47522918D01*
X54326455Y-47604319D01*
X54384636Y-47662500D01*
X54326455Y-47720681D01*
X54272064Y-47802082D01*
X54234599Y-47892530D01*
X54215500Y-47988550D01*
X54215500Y-48086450D01*
X54234599Y-48182470D01*
X54272064Y-48272918D01*
X54326455Y-48354319D01*
X54395681Y-48423545D01*
X54477082Y-48477936D01*
X54567530Y-48515401D01*
X54663550Y-48534500D01*
X54761450Y-48534500D01*
X54857470Y-48515401D01*
X54947918Y-48477936D01*
X55029319Y-48423545D01*
X55098545Y-48354319D01*
X55152936Y-48272918D01*
X55190401Y-48182470D01*
X55209500Y-48086450D01*
X55209500Y-47988550D01*
X55190401Y-47892530D01*
X55152936Y-47802082D01*
X55098545Y-47720681D01*
X55040364Y-47662500D01*
X55098545Y-47604319D01*
X55152936Y-47522918D01*
X55190401Y-47432470D01*
X55209500Y-47336450D01*
X55209500Y-47238550D01*
X55190401Y-47142530D01*
X55152936Y-47052082D01*
X55098545Y-46970681D01*
X55029319Y-46901455D01*
X55023400Y-46897500D01*
X55029319Y-46893545D01*
X55098545Y-46824319D01*
X55152936Y-46742918D01*
X55190401Y-46652470D01*
X55209500Y-46556450D01*
X55209500Y-46458550D01*
X55190401Y-46362530D01*
X55152936Y-46272082D01*
X55098545Y-46190681D01*
X55029319Y-46121455D01*
X54947918Y-46067064D01*
X54857470Y-46029599D01*
X54761450Y-46010500D01*
X54663550Y-46010500D01*
X54567530Y-46029599D01*
X54477082Y-46067064D01*
X54395681Y-46121455D01*
X54326455Y-46190681D01*
X54272064Y-46272082D01*
X54234599Y-46362530D01*
X54215500Y-46458550D01*
X30676089Y-46458550D01*
X30733024Y-46316335D01*
X30901128Y-45444129D01*
X30901128Y-44555871D01*
X30832742Y-44201050D01*
X33923000Y-44201050D01*
X33923000Y-44298950D01*
X33942099Y-44394970D01*
X33979564Y-44485418D01*
X34033955Y-44566819D01*
X34103181Y-44636045D01*
X34184582Y-44690436D01*
X34275030Y-44727901D01*
X34371050Y-44747000D01*
X34468950Y-44747000D01*
X34564970Y-44727901D01*
X34655418Y-44690436D01*
X34736819Y-44636045D01*
X34806045Y-44566819D01*
X34860436Y-44485418D01*
X34897901Y-44394970D01*
X34917000Y-44298950D01*
X34917000Y-44201050D01*
X34897901Y-44105030D01*
X34860436Y-44014582D01*
X34823524Y-43959340D01*
X34826045Y-43956819D01*
X34880436Y-43875418D01*
X34917901Y-43784970D01*
X34937000Y-43688950D01*
X34937000Y-43591050D01*
X34917901Y-43495030D01*
X34880436Y-43404582D01*
X34827260Y-43325000D01*
X34880436Y-43245418D01*
X34917901Y-43154970D01*
X34937000Y-43058950D01*
X34937000Y-42961050D01*
X34917901Y-42865030D01*
X34880436Y-42774582D01*
X34826045Y-42693181D01*
X34756819Y-42623955D01*
X34675418Y-42569564D01*
X34584970Y-42532099D01*
X34488950Y-42513000D01*
X34391050Y-42513000D01*
X34295030Y-42532099D01*
X34204582Y-42569564D01*
X34123181Y-42623955D01*
X34053955Y-42693181D01*
X33999564Y-42774582D01*
X33962099Y-42865030D01*
X33943000Y-42961050D01*
X33943000Y-43058950D01*
X33962099Y-43154970D01*
X33999564Y-43245418D01*
X34052740Y-43325000D01*
X33999564Y-43404582D01*
X33962099Y-43495030D01*
X33943000Y-43591050D01*
X33943000Y-43688950D01*
X33962099Y-43784970D01*
X33999564Y-43875418D01*
X34036476Y-43930660D01*
X34033955Y-43933181D01*
X33979564Y-44014582D01*
X33942099Y-44105030D01*
X33923000Y-44201050D01*
X30832742Y-44201050D01*
X30733024Y-43683665D01*
X30402892Y-42859036D01*
X29922663Y-42111786D01*
X29309695Y-41468923D01*
X28763600Y-41080050D01*
X45003000Y-41080050D01*
X45003000Y-41177950D01*
X45022099Y-41273970D01*
X45059564Y-41364418D01*
X45113955Y-41445819D01*
X45183181Y-41515045D01*
X45264582Y-41569436D01*
X45355030Y-41606901D01*
X45451050Y-41626000D01*
X45548950Y-41626000D01*
X45644970Y-41606901D01*
X45735418Y-41569436D01*
X45816819Y-41515045D01*
X45886045Y-41445819D01*
X45940436Y-41364418D01*
X45977901Y-41273970D01*
X45997000Y-41177950D01*
X45997000Y-41080050D01*
X45977901Y-40984030D01*
X45940436Y-40893582D01*
X45886045Y-40812181D01*
X45816819Y-40742955D01*
X45735418Y-40688564D01*
X45644970Y-40651099D01*
X45548950Y-40632000D01*
X45451050Y-40632000D01*
X45355030Y-40651099D01*
X45264582Y-40688564D01*
X45183181Y-40742955D01*
X45113955Y-40812181D01*
X45059564Y-40893582D01*
X45022099Y-40984030D01*
X45003000Y-41080050D01*
X28763600Y-41080050D01*
X28586142Y-40953683D01*
X27778154Y-40584688D01*
X26914935Y-40375273D01*
X26027684Y-40333008D01*
X25148467Y-40459420D01*
X24309063Y-40749941D01*
X23539809Y-41194070D01*
X22868509Y-41775755D01*
X22319425Y-42473973D01*
X21912401Y-43263487D01*
X21662150Y-44115764D01*
X21577716Y-45000000D01*
X20202000Y-45000000D01*
X20202000Y-40200000D01*
X46892668Y-40200000D01*
X46913945Y-40416030D01*
X46976959Y-40623758D01*
X47079287Y-40815201D01*
X47216998Y-40983002D01*
X47384799Y-41120713D01*
X47576242Y-41223041D01*
X47783970Y-41286055D01*
X47945863Y-41302000D01*
X48054137Y-41302000D01*
X48216030Y-41286055D01*
X48423758Y-41223041D01*
X48615201Y-41120713D01*
X48783002Y-40983002D01*
X48920713Y-40815201D01*
X49023041Y-40623758D01*
X49086055Y-40416030D01*
X49107332Y-40200000D01*
X49123781Y-40200000D01*
X49140617Y-40370942D01*
X49190479Y-40535314D01*
X49271451Y-40686801D01*
X49380420Y-40819580D01*
X49513199Y-40928549D01*
X49664686Y-41009521D01*
X49829058Y-41059383D01*
X49957163Y-41072000D01*
X50042837Y-41072000D01*
X50170942Y-41059383D01*
X50335314Y-41009521D01*
X50486801Y-40928549D01*
X50619580Y-40819580D01*
X50728549Y-40686801D01*
X50809521Y-40535314D01*
X50859383Y-40370942D01*
X50876219Y-40200000D01*
X51123781Y-40200000D01*
X51140617Y-40370942D01*
X51190479Y-40535314D01*
X51271451Y-40686801D01*
X51380420Y-40819580D01*
X51513199Y-40928549D01*
X51664686Y-41009521D01*
X51829058Y-41059383D01*
X51957163Y-41072000D01*
X52042837Y-41072000D01*
X52170942Y-41059383D01*
X52335314Y-41009521D01*
X52486801Y-40928549D01*
X52619580Y-40819580D01*
X52728549Y-40686801D01*
X52809521Y-40535314D01*
X52859383Y-40370942D01*
X52876219Y-40200000D01*
X53123781Y-40200000D01*
X53140617Y-40370942D01*
X53190479Y-40535314D01*
X53271451Y-40686801D01*
X53380420Y-40819580D01*
X53513199Y-40928549D01*
X53664686Y-41009521D01*
X53829058Y-41059383D01*
X53957163Y-41072000D01*
X54042837Y-41072000D01*
X54170942Y-41059383D01*
X54335314Y-41009521D01*
X54486801Y-40928549D01*
X54619580Y-40819580D01*
X54728549Y-40686801D01*
X54809521Y-40535314D01*
X54859383Y-40370942D01*
X54876219Y-40200000D01*
X55123781Y-40200000D01*
X55140617Y-40370942D01*
X55190479Y-40535314D01*
X55271451Y-40686801D01*
X55380420Y-40819580D01*
X55513199Y-40928549D01*
X55664686Y-41009521D01*
X55829058Y-41059383D01*
X55957163Y-41072000D01*
X56042837Y-41072000D01*
X56170942Y-41059383D01*
X56335314Y-41009521D01*
X56486801Y-40928549D01*
X56619580Y-40819580D01*
X56728549Y-40686801D01*
X56809521Y-40535314D01*
X56859383Y-40370942D01*
X56876219Y-40200000D01*
X56859383Y-40029058D01*
X56809521Y-39864686D01*
X56728549Y-39713199D01*
X56619580Y-39580420D01*
X56486801Y-39471451D01*
X56335314Y-39390479D01*
X56170942Y-39340617D01*
X56042837Y-39328000D01*
X55957163Y-39328000D01*
X55829058Y-39340617D01*
X55664686Y-39390479D01*
X55513199Y-39471451D01*
X55380420Y-39580420D01*
X55271451Y-39713199D01*
X55190479Y-39864686D01*
X55140617Y-40029058D01*
X55123781Y-40200000D01*
X54876219Y-40200000D01*
X54859383Y-40029058D01*
X54809521Y-39864686D01*
X54728549Y-39713199D01*
X54619580Y-39580420D01*
X54486801Y-39471451D01*
X54335314Y-39390479D01*
X54170942Y-39340617D01*
X54042837Y-39328000D01*
X53957163Y-39328000D01*
X53829058Y-39340617D01*
X53664686Y-39390479D01*
X53513199Y-39471451D01*
X53380420Y-39580420D01*
X53271451Y-39713199D01*
X53190479Y-39864686D01*
X53140617Y-40029058D01*
X53123781Y-40200000D01*
X52876219Y-40200000D01*
X52859383Y-40029058D01*
X52809521Y-39864686D01*
X52728549Y-39713199D01*
X52619580Y-39580420D01*
X52486801Y-39471451D01*
X52335314Y-39390479D01*
X52170942Y-39340617D01*
X52042837Y-39328000D01*
X51957163Y-39328000D01*
X51829058Y-39340617D01*
X51664686Y-39390479D01*
X51513199Y-39471451D01*
X51380420Y-39580420D01*
X51271451Y-39713199D01*
X51190479Y-39864686D01*
X51140617Y-40029058D01*
X51123781Y-40200000D01*
X50876219Y-40200000D01*
X50859383Y-40029058D01*
X50809521Y-39864686D01*
X50728549Y-39713199D01*
X50619580Y-39580420D01*
X50486801Y-39471451D01*
X50335314Y-39390479D01*
X50170942Y-39340617D01*
X50042837Y-39328000D01*
X49957163Y-39328000D01*
X49829058Y-39340617D01*
X49664686Y-39390479D01*
X49513199Y-39471451D01*
X49380420Y-39580420D01*
X49271451Y-39713199D01*
X49190479Y-39864686D01*
X49140617Y-40029058D01*
X49123781Y-40200000D01*
X49107332Y-40200000D01*
X49086055Y-39983970D01*
X49023041Y-39776242D01*
X48920713Y-39584799D01*
X48783002Y-39416998D01*
X48615201Y-39279287D01*
X48423758Y-39176959D01*
X48216030Y-39113945D01*
X48054137Y-39098000D01*
X47945863Y-39098000D01*
X47783970Y-39113945D01*
X47576242Y-39176959D01*
X47384799Y-39279287D01*
X47216998Y-39416998D01*
X47079287Y-39584799D01*
X46976959Y-39776242D01*
X46913945Y-39983970D01*
X46892668Y-40200000D01*
X20202000Y-40200000D01*
X20202000Y-39101050D01*
X39803000Y-39101050D01*
X39803000Y-39198950D01*
X39822099Y-39294970D01*
X39859564Y-39385418D01*
X39913955Y-39466819D01*
X39983181Y-39536045D01*
X40064582Y-39590436D01*
X40155030Y-39627901D01*
X40251050Y-39647000D01*
X40348950Y-39647000D01*
X40444970Y-39627901D01*
X40535418Y-39590436D01*
X40616819Y-39536045D01*
X40625000Y-39527864D01*
X40633181Y-39536045D01*
X40714582Y-39590436D01*
X40805030Y-39627901D01*
X40901050Y-39647000D01*
X40998950Y-39647000D01*
X41094970Y-39627901D01*
X41185418Y-39590436D01*
X41266819Y-39536045D01*
X41275000Y-39527864D01*
X41283181Y-39536045D01*
X41364582Y-39590436D01*
X41455030Y-39627901D01*
X41551050Y-39647000D01*
X41648950Y-39647000D01*
X41744970Y-39627901D01*
X41835418Y-39590436D01*
X41916819Y-39536045D01*
X41986045Y-39466819D01*
X42040436Y-39385418D01*
X42077901Y-39294970D01*
X42097000Y-39198950D01*
X42097000Y-39101050D01*
X42077901Y-39005030D01*
X42040436Y-38914582D01*
X41986045Y-38833181D01*
X41916819Y-38763955D01*
X41897506Y-38751050D01*
X46403000Y-38751050D01*
X46403000Y-38848950D01*
X46422099Y-38944970D01*
X46459564Y-39035418D01*
X46513955Y-39116819D01*
X46583181Y-39186045D01*
X46664582Y-39240436D01*
X46755030Y-39277901D01*
X46851050Y-39297000D01*
X46948950Y-39297000D01*
X47044970Y-39277901D01*
X47135418Y-39240436D01*
X47216819Y-39186045D01*
X47286045Y-39116819D01*
X47334034Y-39044999D01*
X57103000Y-39044999D01*
X57103000Y-39119948D01*
X57122099Y-39215968D01*
X57159564Y-39306416D01*
X57202505Y-39370681D01*
X57185026Y-39385026D01*
X57160408Y-39415023D01*
X57142115Y-39449247D01*
X57130851Y-39486381D01*
X57127047Y-39525000D01*
X57127047Y-40875000D01*
X57130851Y-40913619D01*
X57142115Y-40950753D01*
X57160408Y-40984977D01*
X57185026Y-41014974D01*
X57215023Y-41039592D01*
X57249247Y-41057885D01*
X57286381Y-41069149D01*
X57325000Y-41072953D01*
X58675000Y-41072953D01*
X58713619Y-41069149D01*
X58750753Y-41057885D01*
X58784977Y-41039592D01*
X58814974Y-41014974D01*
X58839592Y-40984977D01*
X58857885Y-40950753D01*
X58869149Y-40913619D01*
X58872953Y-40875000D01*
X58872953Y-39525000D01*
X58869149Y-39486381D01*
X58857885Y-39449247D01*
X58839592Y-39415023D01*
X58814974Y-39385026D01*
X58784977Y-39360408D01*
X58750753Y-39342115D01*
X58713619Y-39330851D01*
X58675000Y-39327047D01*
X58026651Y-39327047D01*
X58040436Y-39306416D01*
X58077901Y-39215968D01*
X58097000Y-39119948D01*
X58097000Y-39022048D01*
X58077901Y-38926028D01*
X58040436Y-38835580D01*
X57986045Y-38754179D01*
X57916819Y-38684953D01*
X57835418Y-38630562D01*
X57744970Y-38593097D01*
X57648950Y-38573998D01*
X57551050Y-38573998D01*
X57500960Y-38583961D01*
X57494685Y-38576315D01*
X57452963Y-38542075D01*
X57405363Y-38516632D01*
X57353714Y-38500964D01*
X57313455Y-38496999D01*
X57313444Y-38496999D01*
X57300001Y-38495675D01*
X57286558Y-38496999D01*
X47295278Y-38496999D01*
X47286045Y-38483181D01*
X47216819Y-38413955D01*
X47135418Y-38359564D01*
X47044970Y-38322099D01*
X46948950Y-38303000D01*
X46851050Y-38303000D01*
X46755030Y-38322099D01*
X46664582Y-38359564D01*
X46583181Y-38413955D01*
X46513955Y-38483181D01*
X46459564Y-38564582D01*
X46422099Y-38655030D01*
X46403000Y-38751050D01*
X41897506Y-38751050D01*
X41835418Y-38709564D01*
X41779597Y-38686442D01*
X41797000Y-38598950D01*
X41797000Y-38501050D01*
X41777901Y-38405030D01*
X41740436Y-38314582D01*
X41686045Y-38233181D01*
X41616819Y-38163955D01*
X41535418Y-38109564D01*
X41444970Y-38072099D01*
X41348950Y-38053000D01*
X41251050Y-38053000D01*
X41155030Y-38072099D01*
X41064582Y-38109564D01*
X40983181Y-38163955D01*
X40950000Y-38197136D01*
X40916819Y-38163955D01*
X40835418Y-38109564D01*
X40744970Y-38072099D01*
X40648950Y-38053000D01*
X40551050Y-38053000D01*
X40455030Y-38072099D01*
X40364582Y-38109564D01*
X40283181Y-38163955D01*
X40213955Y-38233181D01*
X40159564Y-38314582D01*
X40122099Y-38405030D01*
X40103000Y-38501050D01*
X40103000Y-38598950D01*
X40120403Y-38686442D01*
X40064582Y-38709564D01*
X39983181Y-38763955D01*
X39913955Y-38833181D01*
X39859564Y-38914582D01*
X39822099Y-39005030D01*
X39803000Y-39101050D01*
X20202000Y-39101050D01*
X20202000Y-36408691D01*
X56872919Y-36408691D01*
X56872919Y-36506591D01*
X56892018Y-36602611D01*
X56929483Y-36693059D01*
X56983874Y-36774460D01*
X57053100Y-36843686D01*
X57095919Y-36872297D01*
X57095919Y-37256476D01*
X57094595Y-37269919D01*
X57095919Y-37283362D01*
X57095919Y-37283372D01*
X57099884Y-37323631D01*
X57115552Y-37375280D01*
X57140995Y-37422881D01*
X57175235Y-37464603D01*
X57185691Y-37473184D01*
X58013047Y-38300540D01*
X58003000Y-38351050D01*
X58003000Y-38448950D01*
X58022099Y-38544970D01*
X58059564Y-38635418D01*
X58113955Y-38716819D01*
X58183181Y-38786045D01*
X58264582Y-38840436D01*
X58355030Y-38877901D01*
X58451050Y-38897000D01*
X58548950Y-38897000D01*
X58644970Y-38877901D01*
X58735418Y-38840436D01*
X58816819Y-38786045D01*
X58886045Y-38716819D01*
X58940436Y-38635418D01*
X58977901Y-38544970D01*
X58997000Y-38448950D01*
X58997000Y-38351050D01*
X58977901Y-38255030D01*
X58940436Y-38164582D01*
X58886045Y-38083181D01*
X58816819Y-38013955D01*
X58735418Y-37959564D01*
X58644970Y-37922099D01*
X58548950Y-37903000D01*
X58451050Y-37903000D01*
X58400540Y-37913047D01*
X57738543Y-37251050D01*
X58103012Y-37251050D01*
X58103012Y-37348950D01*
X58122111Y-37444970D01*
X58159576Y-37535418D01*
X58213967Y-37616819D01*
X58283193Y-37686045D01*
X58364594Y-37740436D01*
X58455042Y-37777901D01*
X58551062Y-37797000D01*
X58648962Y-37797000D01*
X58744982Y-37777901D01*
X58835430Y-37740436D01*
X58916831Y-37686045D01*
X58986057Y-37616819D01*
X59040448Y-37535418D01*
X59077913Y-37444970D01*
X59097012Y-37348950D01*
X59097012Y-37251050D01*
X59077913Y-37155030D01*
X59040448Y-37064582D01*
X58986057Y-36983181D01*
X58916831Y-36913955D01*
X58835430Y-36859564D01*
X58744982Y-36822099D01*
X58648962Y-36803000D01*
X58551062Y-36803000D01*
X58455042Y-36822099D01*
X58364594Y-36859564D01*
X58283193Y-36913955D01*
X58213967Y-36983181D01*
X58159576Y-37064582D01*
X58122111Y-37155030D01*
X58103012Y-37251050D01*
X57738543Y-37251050D01*
X57643919Y-37156426D01*
X57643919Y-36872297D01*
X57686738Y-36843686D01*
X57755964Y-36774460D01*
X57810355Y-36693059D01*
X57847820Y-36602611D01*
X57866919Y-36506591D01*
X57866919Y-36408691D01*
X57847820Y-36312671D01*
X57810355Y-36222223D01*
X57755964Y-36140822D01*
X57686738Y-36071596D01*
X57605337Y-36017205D01*
X57514889Y-35979740D01*
X57418869Y-35960641D01*
X57320969Y-35960641D01*
X57224949Y-35979740D01*
X57134501Y-36017205D01*
X57053100Y-36071596D01*
X56983874Y-36140822D01*
X56929483Y-36222223D01*
X56892018Y-36312671D01*
X56872919Y-36408691D01*
X20202000Y-36408691D01*
X20202000Y-34001050D01*
X41503000Y-34001050D01*
X41503000Y-34098950D01*
X41522099Y-34194970D01*
X41559564Y-34285418D01*
X41613955Y-34366819D01*
X41683181Y-34436045D01*
X41764582Y-34490436D01*
X41855030Y-34527901D01*
X41951050Y-34547000D01*
X42048950Y-34547000D01*
X42144970Y-34527901D01*
X42235418Y-34490436D01*
X42316819Y-34436045D01*
X42386045Y-34366819D01*
X42414656Y-34324000D01*
X42762857Y-34324000D01*
X42767587Y-34335418D01*
X42821978Y-34416819D01*
X42891204Y-34486045D01*
X42972605Y-34540436D01*
X43063053Y-34577901D01*
X43159073Y-34597000D01*
X43256973Y-34597000D01*
X43352993Y-34577901D01*
X43443441Y-34540436D01*
X43524842Y-34486045D01*
X43594068Y-34416819D01*
X43648459Y-34335418D01*
X43685924Y-34244970D01*
X43705023Y-34148950D01*
X43705023Y-34051050D01*
X43685924Y-33955030D01*
X43648459Y-33864582D01*
X43594068Y-33783181D01*
X43524842Y-33713955D01*
X43443441Y-33659564D01*
X43352993Y-33622099D01*
X43256973Y-33603000D01*
X43159073Y-33603000D01*
X43063053Y-33622099D01*
X42972605Y-33659564D01*
X42891204Y-33713955D01*
X42829159Y-33776000D01*
X42414656Y-33776000D01*
X42386045Y-33733181D01*
X42316819Y-33663955D01*
X42235418Y-33609564D01*
X42144970Y-33572099D01*
X42048950Y-33553000D01*
X41951050Y-33553000D01*
X41855030Y-33572099D01*
X41764582Y-33609564D01*
X41683181Y-33663955D01*
X41613955Y-33733181D01*
X41559564Y-33814582D01*
X41522099Y-33905030D01*
X41503000Y-34001050D01*
X20202000Y-34001050D01*
X20202000Y-30751050D01*
X31153000Y-30751050D01*
X31153000Y-30848950D01*
X31172099Y-30944970D01*
X31209564Y-31035418D01*
X31263955Y-31116819D01*
X31333181Y-31186045D01*
X31414582Y-31240436D01*
X31505030Y-31277901D01*
X31601050Y-31297000D01*
X31698950Y-31297000D01*
X31794970Y-31277901D01*
X31885418Y-31240436D01*
X31966819Y-31186045D01*
X32036045Y-31116819D01*
X32090436Y-31035418D01*
X32127901Y-30944970D01*
X32147000Y-30848950D01*
X32147000Y-30751050D01*
X32127901Y-30655030D01*
X32090436Y-30564582D01*
X32036045Y-30483181D01*
X31966819Y-30413955D01*
X31885418Y-30359564D01*
X31794970Y-30322099D01*
X31698950Y-30303000D01*
X31601050Y-30303000D01*
X31505030Y-30322099D01*
X31414582Y-30359564D01*
X31333181Y-30413955D01*
X31263955Y-30483181D01*
X31209564Y-30564582D01*
X31172099Y-30655030D01*
X31153000Y-30751050D01*
X20202000Y-30751050D01*
X20202000Y-25151050D01*
X30603000Y-25151050D01*
X30603000Y-25248950D01*
X30622099Y-25344970D01*
X30659564Y-25435418D01*
X30713955Y-25516819D01*
X30783181Y-25586045D01*
X30864582Y-25640436D01*
X30955030Y-25677901D01*
X31051050Y-25697000D01*
X31148950Y-25697000D01*
X31244970Y-25677901D01*
X31335418Y-25640436D01*
X31416819Y-25586045D01*
X31486045Y-25516819D01*
X31540436Y-25435418D01*
X31577901Y-25344970D01*
X31597000Y-25248950D01*
X31597000Y-25151050D01*
X31586953Y-25100540D01*
X32863495Y-23824000D01*
X38488506Y-23824000D01*
X33115767Y-29196740D01*
X33105317Y-29205316D01*
X33096741Y-29215766D01*
X33096740Y-29215767D01*
X33071076Y-29247038D01*
X33045634Y-29294638D01*
X33029966Y-29346287D01*
X33024676Y-29400000D01*
X33026001Y-29413454D01*
X33026000Y-32585344D01*
X32983181Y-32613955D01*
X32913955Y-32683181D01*
X32859564Y-32764582D01*
X32822099Y-32855030D01*
X32803000Y-32951050D01*
X32803000Y-33048950D01*
X32822099Y-33144970D01*
X32859564Y-33235418D01*
X32913955Y-33316819D01*
X32983181Y-33386045D01*
X33064582Y-33440436D01*
X33155030Y-33477901D01*
X33251050Y-33497000D01*
X33348950Y-33497000D01*
X33444970Y-33477901D01*
X33535418Y-33440436D01*
X33616819Y-33386045D01*
X33686045Y-33316819D01*
X33740436Y-33235418D01*
X33777901Y-33144970D01*
X33797000Y-33048950D01*
X33797000Y-32951050D01*
X33777901Y-32855030D01*
X33740436Y-32764582D01*
X33686045Y-32683181D01*
X33616819Y-32613955D01*
X33574000Y-32585344D01*
X33574000Y-29513493D01*
X38955483Y-24132011D01*
X39780495Y-24132011D01*
X36015772Y-27896735D01*
X36005316Y-27905316D01*
X35971076Y-27947038D01*
X35945633Y-27994639D01*
X35929965Y-28046288D01*
X35926000Y-28086547D01*
X35926000Y-28086557D01*
X35924676Y-28100000D01*
X35926000Y-28113444D01*
X35926001Y-32562273D01*
X35926000Y-32562283D01*
X35926000Y-32585344D01*
X35883181Y-32613955D01*
X35813955Y-32683181D01*
X35759564Y-32764582D01*
X35722099Y-32855030D01*
X35703000Y-32951050D01*
X35703000Y-33048950D01*
X35722099Y-33144970D01*
X35759564Y-33235418D01*
X35813955Y-33316819D01*
X35883181Y-33386045D01*
X35964582Y-33440436D01*
X36055030Y-33477901D01*
X36151050Y-33497000D01*
X36248950Y-33497000D01*
X36344970Y-33477901D01*
X36435418Y-33440436D01*
X36516819Y-33386045D01*
X36586045Y-33316819D01*
X36640436Y-33235418D01*
X36677901Y-33144970D01*
X36697000Y-33048950D01*
X36697000Y-32951050D01*
X36677901Y-32855030D01*
X36640436Y-32764582D01*
X36586045Y-32683181D01*
X36516819Y-32613955D01*
X36474000Y-32585344D01*
X36474000Y-28213493D01*
X40221505Y-24465989D01*
X40646517Y-24465989D01*
X38899022Y-26213485D01*
X38888572Y-26222061D01*
X38879996Y-26232511D01*
X38879995Y-26232512D01*
X38854331Y-26263783D01*
X38828889Y-26311383D01*
X38813221Y-26363032D01*
X38807931Y-26416745D01*
X38809256Y-26430199D01*
X38809255Y-32568599D01*
X38766436Y-32597210D01*
X38697210Y-32666436D01*
X38642819Y-32747837D01*
X38605354Y-32838285D01*
X38586255Y-32934305D01*
X38586255Y-33032205D01*
X38605354Y-33128225D01*
X38642819Y-33218673D01*
X38697210Y-33300074D01*
X38766436Y-33369300D01*
X38847837Y-33423691D01*
X38938285Y-33461156D01*
X39034305Y-33480255D01*
X39132205Y-33480255D01*
X39228225Y-33461156D01*
X39318673Y-33423691D01*
X39400074Y-33369300D01*
X39469300Y-33300074D01*
X39523691Y-33218673D01*
X39561156Y-33128225D01*
X39580255Y-33032205D01*
X39580255Y-32934305D01*
X39561156Y-32838285D01*
X39523691Y-32747837D01*
X39497440Y-32708550D01*
X54115500Y-32708550D01*
X54115500Y-32806450D01*
X54134599Y-32902470D01*
X54172064Y-32992918D01*
X54226455Y-33074319D01*
X54274636Y-33122500D01*
X54226455Y-33170681D01*
X54172064Y-33252082D01*
X54134599Y-33342530D01*
X54115500Y-33438550D01*
X54115500Y-33536450D01*
X54134599Y-33632470D01*
X54172064Y-33722918D01*
X54226455Y-33804319D01*
X54284636Y-33862500D01*
X54226455Y-33920681D01*
X54172064Y-34002082D01*
X54134599Y-34092530D01*
X54115500Y-34188550D01*
X54115500Y-34286450D01*
X54134599Y-34382470D01*
X54172064Y-34472918D01*
X54226455Y-34554319D01*
X54295681Y-34623545D01*
X54377082Y-34677936D01*
X54467530Y-34715401D01*
X54563550Y-34734500D01*
X54661450Y-34734500D01*
X54757470Y-34715401D01*
X54847918Y-34677936D01*
X54929319Y-34623545D01*
X54998545Y-34554319D01*
X55052936Y-34472918D01*
X55090401Y-34382470D01*
X55109500Y-34286450D01*
X55109500Y-34188550D01*
X55092096Y-34101050D01*
X58953000Y-34101050D01*
X58953000Y-34198950D01*
X58972099Y-34294970D01*
X59009564Y-34385418D01*
X59063955Y-34466819D01*
X59133181Y-34536045D01*
X59214582Y-34590436D01*
X59305030Y-34627901D01*
X59401050Y-34647000D01*
X59498950Y-34647000D01*
X59594970Y-34627901D01*
X59685418Y-34590436D01*
X59766819Y-34536045D01*
X59836045Y-34466819D01*
X59864656Y-34424000D01*
X61236557Y-34424000D01*
X61250000Y-34425324D01*
X61263443Y-34424000D01*
X61263454Y-34424000D01*
X61303713Y-34420035D01*
X61355362Y-34404367D01*
X61402962Y-34378924D01*
X61444684Y-34344684D01*
X61453265Y-34334228D01*
X66084234Y-29703260D01*
X66094684Y-29694684D01*
X66120473Y-29663260D01*
X66128924Y-29652963D01*
X66142523Y-29627520D01*
X66154367Y-29605362D01*
X66170035Y-29553713D01*
X66174000Y-29513454D01*
X66174000Y-29513444D01*
X66175324Y-29500001D01*
X66174000Y-29486557D01*
X66174000Y-29064656D01*
X66216819Y-29036045D01*
X66286045Y-28966819D01*
X66340436Y-28885418D01*
X66377901Y-28794970D01*
X66397000Y-28698950D01*
X66397000Y-28601050D01*
X66377901Y-28505030D01*
X66340436Y-28414582D01*
X66286045Y-28333181D01*
X66216819Y-28263955D01*
X66135418Y-28209564D01*
X66044970Y-28172099D01*
X65948950Y-28153000D01*
X65851050Y-28153000D01*
X65755030Y-28172099D01*
X65664582Y-28209564D01*
X65583181Y-28263955D01*
X65513955Y-28333181D01*
X65459564Y-28414582D01*
X65422099Y-28505030D01*
X65403000Y-28601050D01*
X65403000Y-28698950D01*
X65422099Y-28794970D01*
X65459564Y-28885418D01*
X65513955Y-28966819D01*
X65583181Y-29036045D01*
X65626000Y-29064656D01*
X65626001Y-29386505D01*
X61136507Y-33876000D01*
X59864656Y-33876000D01*
X59836045Y-33833181D01*
X59766819Y-33763955D01*
X59685418Y-33709564D01*
X59594970Y-33672099D01*
X59498950Y-33653000D01*
X59401050Y-33653000D01*
X59305030Y-33672099D01*
X59214582Y-33709564D01*
X59133181Y-33763955D01*
X59063955Y-33833181D01*
X59009564Y-33914582D01*
X58972099Y-34005030D01*
X58953000Y-34101050D01*
X55092096Y-34101050D01*
X55090401Y-34092530D01*
X55052936Y-34002082D01*
X54998545Y-33920681D01*
X54940364Y-33862500D01*
X54998545Y-33804319D01*
X55052936Y-33722918D01*
X55090401Y-33632470D01*
X55109500Y-33536450D01*
X55109500Y-33438550D01*
X55090401Y-33342530D01*
X55052936Y-33252082D01*
X54998545Y-33170681D01*
X54950364Y-33122500D01*
X54998545Y-33074319D01*
X55052936Y-32992918D01*
X55090401Y-32902470D01*
X55109500Y-32806450D01*
X55109500Y-32708550D01*
X55090401Y-32612530D01*
X55052936Y-32522082D01*
X54998545Y-32440681D01*
X54929319Y-32371455D01*
X54847918Y-32317064D01*
X54757470Y-32279599D01*
X54661450Y-32260500D01*
X54563550Y-32260500D01*
X54467530Y-32279599D01*
X54377082Y-32317064D01*
X54295681Y-32371455D01*
X54226455Y-32440681D01*
X54172064Y-32522082D01*
X54134599Y-32612530D01*
X54115500Y-32708550D01*
X39497440Y-32708550D01*
X39469300Y-32666436D01*
X39400074Y-32597210D01*
X39357255Y-32568599D01*
X39357255Y-29411050D01*
X44913000Y-29411050D01*
X44913000Y-29508950D01*
X44932099Y-29604970D01*
X44969564Y-29695418D01*
X45023955Y-29776819D01*
X45093181Y-29846045D01*
X45174582Y-29900436D01*
X45265030Y-29937901D01*
X45361050Y-29957000D01*
X45458950Y-29957000D01*
X45554970Y-29937901D01*
X45645418Y-29900436D01*
X45726819Y-29846045D01*
X45796045Y-29776819D01*
X45850436Y-29695418D01*
X45887901Y-29604970D01*
X45907000Y-29508950D01*
X45907000Y-29411050D01*
X45899631Y-29374000D01*
X48885344Y-29374000D01*
X48913955Y-29416819D01*
X48983181Y-29486045D01*
X49064582Y-29540436D01*
X49155030Y-29577901D01*
X49251050Y-29597000D01*
X49348950Y-29597000D01*
X49444970Y-29577901D01*
X49535418Y-29540436D01*
X49616819Y-29486045D01*
X49686045Y-29416819D01*
X49740436Y-29335418D01*
X49777901Y-29244970D01*
X49797000Y-29148950D01*
X49797000Y-29051050D01*
X49777901Y-28955030D01*
X49740436Y-28864582D01*
X49686045Y-28783181D01*
X49616819Y-28713955D01*
X49535418Y-28659564D01*
X49444970Y-28622099D01*
X49348950Y-28603000D01*
X49251050Y-28603000D01*
X49155030Y-28622099D01*
X49064582Y-28659564D01*
X48983181Y-28713955D01*
X48913955Y-28783181D01*
X48885344Y-28826000D01*
X45783443Y-28826000D01*
X45769999Y-28824676D01*
X45756556Y-28826000D01*
X45756546Y-28826000D01*
X45716287Y-28829965D01*
X45664638Y-28845633D01*
X45617038Y-28871076D01*
X45575316Y-28905316D01*
X45566739Y-28915767D01*
X45525769Y-28956738D01*
X45525765Y-28956741D01*
X45509459Y-28973047D01*
X45458950Y-28963000D01*
X45361050Y-28963000D01*
X45265030Y-28982099D01*
X45174582Y-29019564D01*
X45093181Y-29073955D01*
X45023955Y-29143181D01*
X44969564Y-29224582D01*
X44932099Y-29315030D01*
X44913000Y-29411050D01*
X39357255Y-29411050D01*
X39357255Y-28201050D01*
X41303000Y-28201050D01*
X41303000Y-28298950D01*
X41322099Y-28394970D01*
X41359564Y-28485418D01*
X41413955Y-28566819D01*
X41483181Y-28636045D01*
X41564582Y-28690436D01*
X41655030Y-28727901D01*
X41751050Y-28747000D01*
X41848950Y-28747000D01*
X41944970Y-28727901D01*
X42035418Y-28690436D01*
X42116819Y-28636045D01*
X42186045Y-28566819D01*
X42240436Y-28485418D01*
X42277901Y-28394970D01*
X42297000Y-28298950D01*
X42297000Y-28201050D01*
X42277901Y-28105030D01*
X42240436Y-28014582D01*
X42186045Y-27933181D01*
X42116819Y-27863955D01*
X42035418Y-27809564D01*
X41944970Y-27772099D01*
X41848950Y-27753000D01*
X41751050Y-27753000D01*
X41655030Y-27772099D01*
X41564582Y-27809564D01*
X41483181Y-27863955D01*
X41413955Y-27933181D01*
X41359564Y-28014582D01*
X41322099Y-28105030D01*
X41303000Y-28201050D01*
X39357255Y-28201050D01*
X39357255Y-26530238D01*
X39607493Y-26280000D01*
X46892668Y-26280000D01*
X46913945Y-26496030D01*
X46976959Y-26703758D01*
X47079287Y-26895201D01*
X47216998Y-27063002D01*
X47384799Y-27200713D01*
X47576242Y-27303041D01*
X47783970Y-27366055D01*
X47945863Y-27382000D01*
X48054137Y-27382000D01*
X48216030Y-27366055D01*
X48423758Y-27303041D01*
X48615201Y-27200713D01*
X48783002Y-27063002D01*
X48920713Y-26895201D01*
X49023041Y-26703758D01*
X49086055Y-26496030D01*
X49107332Y-26280000D01*
X49123781Y-26280000D01*
X49140617Y-26450942D01*
X49190479Y-26615314D01*
X49271451Y-26766801D01*
X49380420Y-26899580D01*
X49513199Y-27008549D01*
X49664686Y-27089521D01*
X49829058Y-27139383D01*
X49957163Y-27152000D01*
X50042837Y-27152000D01*
X50170942Y-27139383D01*
X50335314Y-27089521D01*
X50486801Y-27008549D01*
X50619580Y-26899580D01*
X50728549Y-26766801D01*
X50809521Y-26615314D01*
X50859383Y-26450942D01*
X50876219Y-26280000D01*
X51123781Y-26280000D01*
X51140617Y-26450942D01*
X51190479Y-26615314D01*
X51271451Y-26766801D01*
X51380420Y-26899580D01*
X51513199Y-27008549D01*
X51664686Y-27089521D01*
X51829058Y-27139383D01*
X51957163Y-27152000D01*
X52042837Y-27152000D01*
X52170942Y-27139383D01*
X52335314Y-27089521D01*
X52486801Y-27008549D01*
X52619580Y-26899580D01*
X52728549Y-26766801D01*
X52809521Y-26615314D01*
X52859383Y-26450942D01*
X52876219Y-26280000D01*
X53123781Y-26280000D01*
X53140617Y-26450942D01*
X53190479Y-26615314D01*
X53271451Y-26766801D01*
X53380420Y-26899580D01*
X53513199Y-27008549D01*
X53664686Y-27089521D01*
X53829058Y-27139383D01*
X53957163Y-27152000D01*
X54042837Y-27152000D01*
X54170942Y-27139383D01*
X54335314Y-27089521D01*
X54486801Y-27008549D01*
X54619580Y-26899580D01*
X54728549Y-26766801D01*
X54809521Y-26615314D01*
X54859383Y-26450942D01*
X54876219Y-26280000D01*
X55123781Y-26280000D01*
X55140617Y-26450942D01*
X55190479Y-26615314D01*
X55271451Y-26766801D01*
X55380420Y-26899580D01*
X55513199Y-27008549D01*
X55664686Y-27089521D01*
X55829058Y-27139383D01*
X55957163Y-27152000D01*
X56042837Y-27152000D01*
X56170942Y-27139383D01*
X56335314Y-27089521D01*
X56486801Y-27008549D01*
X56619580Y-26899580D01*
X56728549Y-26766801D01*
X56809521Y-26615314D01*
X56859383Y-26450942D01*
X56876219Y-26280000D01*
X56859383Y-26109058D01*
X56809521Y-25944686D01*
X56728549Y-25793199D01*
X56619580Y-25660420D01*
X56486801Y-25551451D01*
X56335314Y-25470479D01*
X56170942Y-25420617D01*
X56042837Y-25408000D01*
X55957163Y-25408000D01*
X55829058Y-25420617D01*
X55664686Y-25470479D01*
X55513199Y-25551451D01*
X55380420Y-25660420D01*
X55271451Y-25793199D01*
X55190479Y-25944686D01*
X55140617Y-26109058D01*
X55123781Y-26280000D01*
X54876219Y-26280000D01*
X54859383Y-26109058D01*
X54809521Y-25944686D01*
X54728549Y-25793199D01*
X54619580Y-25660420D01*
X54486801Y-25551451D01*
X54335314Y-25470479D01*
X54170942Y-25420617D01*
X54042837Y-25408000D01*
X53957163Y-25408000D01*
X53829058Y-25420617D01*
X53664686Y-25470479D01*
X53513199Y-25551451D01*
X53380420Y-25660420D01*
X53271451Y-25793199D01*
X53190479Y-25944686D01*
X53140617Y-26109058D01*
X53123781Y-26280000D01*
X52876219Y-26280000D01*
X52859383Y-26109058D01*
X52809521Y-25944686D01*
X52728549Y-25793199D01*
X52619580Y-25660420D01*
X52486801Y-25551451D01*
X52335314Y-25470479D01*
X52170942Y-25420617D01*
X52042837Y-25408000D01*
X51957163Y-25408000D01*
X51829058Y-25420617D01*
X51664686Y-25470479D01*
X51513199Y-25551451D01*
X51380420Y-25660420D01*
X51271451Y-25793199D01*
X51190479Y-25944686D01*
X51140617Y-26109058D01*
X51123781Y-26280000D01*
X50876219Y-26280000D01*
X50859383Y-26109058D01*
X50809521Y-25944686D01*
X50728549Y-25793199D01*
X50619580Y-25660420D01*
X50486801Y-25551451D01*
X50335314Y-25470479D01*
X50170942Y-25420617D01*
X50042837Y-25408000D01*
X49957163Y-25408000D01*
X49829058Y-25420617D01*
X49664686Y-25470479D01*
X49513199Y-25551451D01*
X49380420Y-25660420D01*
X49271451Y-25793199D01*
X49190479Y-25944686D01*
X49140617Y-26109058D01*
X49123781Y-26280000D01*
X49107332Y-26280000D01*
X49086055Y-26063970D01*
X49023041Y-25856242D01*
X48920713Y-25664799D01*
X48783002Y-25496998D01*
X48615201Y-25359287D01*
X48423758Y-25256959D01*
X48216030Y-25193945D01*
X48054137Y-25178000D01*
X47945863Y-25178000D01*
X47783970Y-25193945D01*
X47576242Y-25256959D01*
X47384799Y-25359287D01*
X47216998Y-25496998D01*
X47079287Y-25664799D01*
X46976959Y-25856242D01*
X46913945Y-26063970D01*
X46892668Y-26280000D01*
X39607493Y-26280000D01*
X41113494Y-24774000D01*
X41488504Y-24774000D01*
X41449459Y-24813045D01*
X41398950Y-24802998D01*
X41301050Y-24802998D01*
X41205030Y-24822097D01*
X41114582Y-24859562D01*
X41033181Y-24913953D01*
X40963955Y-24983179D01*
X40909564Y-25064580D01*
X40872099Y-25155028D01*
X40853000Y-25251048D01*
X40853000Y-25348948D01*
X40872099Y-25444968D01*
X40909564Y-25535416D01*
X40963955Y-25616817D01*
X41033181Y-25686043D01*
X41114582Y-25740434D01*
X41205030Y-25777899D01*
X41301050Y-25796998D01*
X41398950Y-25796998D01*
X41494970Y-25777899D01*
X41585418Y-25740434D01*
X41666819Y-25686043D01*
X41736045Y-25616817D01*
X41790436Y-25535416D01*
X41827901Y-25444968D01*
X41847000Y-25348948D01*
X41847000Y-25251048D01*
X41836953Y-25200539D01*
X41913493Y-25124000D01*
X58222309Y-25124000D01*
X58505356Y-25407047D01*
X57325000Y-25407047D01*
X57286381Y-25410851D01*
X57249247Y-25422115D01*
X57215023Y-25440408D01*
X57185026Y-25465026D01*
X57160408Y-25495023D01*
X57142115Y-25529247D01*
X57130851Y-25566381D01*
X57127047Y-25605000D01*
X57127047Y-26955000D01*
X57130851Y-26993619D01*
X57142115Y-27030753D01*
X57160408Y-27064977D01*
X57185026Y-27094974D01*
X57215023Y-27119592D01*
X57249247Y-27137885D01*
X57286381Y-27149149D01*
X57325000Y-27152953D01*
X58675000Y-27152953D01*
X58713619Y-27149149D01*
X58750753Y-27137885D01*
X58784977Y-27119592D01*
X58814974Y-27094974D01*
X58826001Y-27081538D01*
X58826000Y-29536556D01*
X58824676Y-29550000D01*
X58826000Y-29563443D01*
X58826000Y-29563453D01*
X58829965Y-29603712D01*
X58845633Y-29655361D01*
X58871076Y-29702962D01*
X58905316Y-29744684D01*
X58915772Y-29753265D01*
X60446740Y-31284234D01*
X60455316Y-31294684D01*
X60465766Y-31303260D01*
X60497037Y-31328924D01*
X60509187Y-31335418D01*
X60544638Y-31354367D01*
X60596287Y-31370035D01*
X60636546Y-31374000D01*
X60636556Y-31374000D01*
X60649999Y-31375324D01*
X60663443Y-31374000D01*
X61335344Y-31374000D01*
X61363955Y-31416819D01*
X61433181Y-31486045D01*
X61514582Y-31540436D01*
X61605030Y-31577901D01*
X61701050Y-31597000D01*
X61798950Y-31597000D01*
X61894970Y-31577901D01*
X61985418Y-31540436D01*
X62066819Y-31486045D01*
X62136045Y-31416819D01*
X62190436Y-31335418D01*
X62227901Y-31244970D01*
X62247000Y-31148950D01*
X62247000Y-31051050D01*
X62227901Y-30955030D01*
X62190436Y-30864582D01*
X62136045Y-30783181D01*
X62066819Y-30713955D01*
X62007023Y-30674000D01*
X63485344Y-30674000D01*
X63513955Y-30716819D01*
X63583181Y-30786045D01*
X63664582Y-30840436D01*
X63755030Y-30877901D01*
X63851050Y-30897000D01*
X63948950Y-30897000D01*
X64044970Y-30877901D01*
X64135418Y-30840436D01*
X64216819Y-30786045D01*
X64286045Y-30716819D01*
X64340436Y-30635418D01*
X64377901Y-30544970D01*
X64397000Y-30448950D01*
X64397000Y-30351050D01*
X64377901Y-30255030D01*
X64340436Y-30164582D01*
X64286045Y-30083181D01*
X64216819Y-30013955D01*
X64135418Y-29959564D01*
X64044970Y-29922099D01*
X63948950Y-29903000D01*
X63851050Y-29903000D01*
X63755030Y-29922099D01*
X63664582Y-29959564D01*
X63583181Y-30013955D01*
X63513955Y-30083181D01*
X63485344Y-30126000D01*
X60913494Y-30126000D01*
X60386953Y-29599460D01*
X60397000Y-29548950D01*
X60397000Y-29451050D01*
X60377901Y-29355030D01*
X60340436Y-29264582D01*
X60286045Y-29183181D01*
X60216819Y-29113955D01*
X60135418Y-29059564D01*
X60044970Y-29022099D01*
X59948950Y-29003000D01*
X59851050Y-29003000D01*
X59755030Y-29022099D01*
X59664582Y-29059564D01*
X59583181Y-29113955D01*
X59513955Y-29183181D01*
X59459564Y-29264582D01*
X59422099Y-29355030D01*
X59403000Y-29451050D01*
X59403000Y-29465507D01*
X59374000Y-29436507D01*
X59374000Y-27601050D01*
X66903000Y-27601050D01*
X66903000Y-27698950D01*
X66922099Y-27794970D01*
X66959564Y-27885418D01*
X67013955Y-27966819D01*
X67083181Y-28036045D01*
X67164582Y-28090436D01*
X67255030Y-28127901D01*
X67351050Y-28147000D01*
X67448950Y-28147000D01*
X67544970Y-28127901D01*
X67635418Y-28090436D01*
X67716819Y-28036045D01*
X67786045Y-27966819D01*
X67840436Y-27885418D01*
X67877901Y-27794970D01*
X67897000Y-27698950D01*
X67897000Y-27601050D01*
X67877901Y-27505030D01*
X67840436Y-27414582D01*
X67786045Y-27333181D01*
X67716819Y-27263955D01*
X67635418Y-27209564D01*
X67544970Y-27172099D01*
X67448950Y-27153000D01*
X67351050Y-27153000D01*
X67255030Y-27172099D01*
X67164582Y-27209564D01*
X67083181Y-27263955D01*
X67013955Y-27333181D01*
X66959564Y-27414582D01*
X66922099Y-27505030D01*
X66903000Y-27601050D01*
X59374000Y-27601050D01*
X59374000Y-25627641D01*
X59375324Y-25614197D01*
X59374000Y-25600754D01*
X59374000Y-25600744D01*
X59370035Y-25560485D01*
X59368748Y-25556242D01*
X59408753Y-25596247D01*
X59417329Y-25606697D01*
X59427779Y-25615273D01*
X59442892Y-25627676D01*
X59451075Y-25647431D01*
X59505466Y-25728832D01*
X59574692Y-25798058D01*
X59656093Y-25852449D01*
X59746541Y-25889914D01*
X59842561Y-25909013D01*
X59940461Y-25909013D01*
X60036481Y-25889914D01*
X60126929Y-25852449D01*
X60208330Y-25798058D01*
X60277556Y-25728832D01*
X60331947Y-25647431D01*
X60369412Y-25556983D01*
X60388511Y-25460963D01*
X60388511Y-25363063D01*
X60369412Y-25267043D01*
X60331947Y-25176595D01*
X60277556Y-25095194D01*
X60208330Y-25025968D01*
X60126929Y-24971577D01*
X60036481Y-24934112D01*
X59940461Y-24915013D01*
X59842561Y-24915013D01*
X59810259Y-24921438D01*
X59816819Y-24917055D01*
X59886045Y-24847829D01*
X59940436Y-24766428D01*
X59976499Y-24679365D01*
X60033181Y-24736047D01*
X60114582Y-24790438D01*
X60205030Y-24827903D01*
X60301050Y-24847002D01*
X60398950Y-24847002D01*
X60494970Y-24827903D01*
X60585418Y-24790438D01*
X60666819Y-24736047D01*
X60736045Y-24666821D01*
X60790436Y-24585420D01*
X60827901Y-24494972D01*
X60847000Y-24398952D01*
X60847000Y-24301052D01*
X60827901Y-24205032D01*
X60790436Y-24114584D01*
X60736045Y-24033183D01*
X60666819Y-23963957D01*
X60585418Y-23909566D01*
X60494970Y-23872101D01*
X60398950Y-23853002D01*
X60301050Y-23853002D01*
X60250541Y-23863049D01*
X60211492Y-23824000D01*
X67936507Y-23824000D01*
X68776001Y-24663495D01*
X68776000Y-27211556D01*
X68774676Y-27225000D01*
X68776000Y-27238443D01*
X68776000Y-27238453D01*
X68779965Y-27278712D01*
X68795633Y-27330361D01*
X68821076Y-27377962D01*
X68855316Y-27419684D01*
X68865772Y-27428265D01*
X70088047Y-28650540D01*
X70078000Y-28701050D01*
X70078000Y-28798950D01*
X70097099Y-28894970D01*
X70134564Y-28985418D01*
X70188955Y-29066819D01*
X70258181Y-29136045D01*
X70328981Y-29183352D01*
X70283181Y-29213955D01*
X70213955Y-29283181D01*
X70159564Y-29364582D01*
X70122099Y-29455030D01*
X70115908Y-29486155D01*
X68843546Y-28213794D01*
X68853593Y-28163284D01*
X68853593Y-28065384D01*
X68834494Y-27969364D01*
X68797029Y-27878916D01*
X68742638Y-27797515D01*
X68673412Y-27728289D01*
X68592011Y-27673898D01*
X68501563Y-27636433D01*
X68405543Y-27617334D01*
X68307643Y-27617334D01*
X68211623Y-27636433D01*
X68121175Y-27673898D01*
X68039774Y-27728289D01*
X67970548Y-27797515D01*
X67916157Y-27878916D01*
X67878692Y-27969364D01*
X67859593Y-28065384D01*
X67859593Y-28163284D01*
X67878692Y-28259304D01*
X67916157Y-28349752D01*
X67970548Y-28431153D01*
X68039774Y-28500379D01*
X68121175Y-28554770D01*
X68211623Y-28592235D01*
X68307643Y-28611334D01*
X68405543Y-28611334D01*
X68456053Y-28601287D01*
X71501010Y-31646245D01*
X71509587Y-31656696D01*
X71520037Y-31665272D01*
X71551308Y-31690936D01*
X71598908Y-31716379D01*
X71610930Y-31720025D01*
X71650558Y-31732047D01*
X71690817Y-31736012D01*
X71690820Y-31736012D01*
X71704271Y-31737337D01*
X71717722Y-31736012D01*
X72070199Y-31736012D01*
X72034083Y-31790063D01*
X71996618Y-31880511D01*
X71977519Y-31976531D01*
X71977519Y-32074431D01*
X71987482Y-32124522D01*
X71979837Y-32130796D01*
X71971261Y-32141246D01*
X71971260Y-32141247D01*
X71945596Y-32172518D01*
X71922480Y-32215766D01*
X71920154Y-32220118D01*
X71904486Y-32271767D01*
X71902234Y-32294638D01*
X71899196Y-32325480D01*
X71900521Y-32338933D01*
X71900520Y-33611985D01*
X68815767Y-36696740D01*
X68805317Y-36705316D01*
X68796741Y-36715766D01*
X68796740Y-36715767D01*
X68771076Y-36747038D01*
X68745634Y-36794638D01*
X68729966Y-36846287D01*
X68724676Y-36900000D01*
X68726001Y-36913453D01*
X68726000Y-37585344D01*
X68683181Y-37613955D01*
X68613955Y-37683181D01*
X68559564Y-37764582D01*
X68522099Y-37855030D01*
X68503000Y-37951050D01*
X68503000Y-38048950D01*
X68522099Y-38144970D01*
X68559564Y-38235418D01*
X68613955Y-38316819D01*
X68683181Y-38386045D01*
X68764582Y-38440436D01*
X68855030Y-38477901D01*
X68951050Y-38497000D01*
X69048950Y-38497000D01*
X69144970Y-38477901D01*
X69235418Y-38440436D01*
X69316819Y-38386045D01*
X69386045Y-38316819D01*
X69440436Y-38235418D01*
X69477901Y-38144970D01*
X69497000Y-38048950D01*
X69497000Y-37951050D01*
X69477901Y-37855030D01*
X69440436Y-37764582D01*
X69386045Y-37683181D01*
X69316819Y-37613955D01*
X69274000Y-37585344D01*
X69274000Y-37013493D01*
X69626001Y-36661493D01*
X69626001Y-36785344D01*
X69583181Y-36813955D01*
X69513955Y-36883181D01*
X69459564Y-36964582D01*
X69422099Y-37055030D01*
X69403000Y-37151050D01*
X69403000Y-37248950D01*
X69422099Y-37344970D01*
X69459564Y-37435418D01*
X69513955Y-37516819D01*
X69583181Y-37586045D01*
X69664582Y-37640436D01*
X69755030Y-37677901D01*
X69851050Y-37697000D01*
X69948950Y-37697000D01*
X70044970Y-37677901D01*
X70135418Y-37640436D01*
X70216819Y-37586045D01*
X70286045Y-37516819D01*
X70340436Y-37435418D01*
X70377901Y-37344970D01*
X70397000Y-37248950D01*
X70397000Y-37151050D01*
X70377901Y-37055030D01*
X70340436Y-36964582D01*
X70286045Y-36883181D01*
X70216819Y-36813955D01*
X70174000Y-36785344D01*
X70174000Y-36549085D01*
X71022779Y-35700307D01*
X71035079Y-35762144D01*
X71072544Y-35852592D01*
X71126935Y-35933993D01*
X71196161Y-36003219D01*
X71277562Y-36057610D01*
X71368010Y-36095075D01*
X71464030Y-36114174D01*
X71561930Y-36114174D01*
X71612440Y-36104127D01*
X72209979Y-36701667D01*
X72209979Y-37022486D01*
X72086953Y-36899460D01*
X72097000Y-36848950D01*
X72097000Y-36751050D01*
X72077901Y-36655030D01*
X72040436Y-36564582D01*
X71986045Y-36483181D01*
X71916819Y-36413955D01*
X71835418Y-36359564D01*
X71744970Y-36322099D01*
X71648950Y-36303000D01*
X71551050Y-36303000D01*
X71455030Y-36322099D01*
X71364582Y-36359564D01*
X71283181Y-36413955D01*
X71213955Y-36483181D01*
X71159564Y-36564582D01*
X71122099Y-36655030D01*
X71103000Y-36751050D01*
X71103000Y-36848950D01*
X71122099Y-36944970D01*
X71159564Y-37035418D01*
X71213955Y-37116819D01*
X71283181Y-37186045D01*
X71364582Y-37240436D01*
X71455030Y-37277901D01*
X71551050Y-37297000D01*
X71648950Y-37297000D01*
X71699460Y-37286953D01*
X71901969Y-37489462D01*
X71901968Y-37703523D01*
X71864315Y-37647172D01*
X71795089Y-37577946D01*
X71713688Y-37523555D01*
X71623240Y-37486090D01*
X71527220Y-37466991D01*
X71429320Y-37466991D01*
X71333300Y-37486090D01*
X71242852Y-37523555D01*
X71161451Y-37577946D01*
X71092225Y-37647172D01*
X71037834Y-37728573D01*
X71000369Y-37819021D01*
X70981270Y-37915041D01*
X70981270Y-38012941D01*
X70991317Y-38063450D01*
X67367761Y-41687007D01*
X67357305Y-41695588D01*
X67323065Y-41737310D01*
X67297622Y-41784911D01*
X67283693Y-41830829D01*
X67216819Y-41763955D01*
X67135418Y-41709564D01*
X67044970Y-41672099D01*
X66948950Y-41653000D01*
X66851050Y-41653000D01*
X66755030Y-41672099D01*
X66664582Y-41709564D01*
X66583181Y-41763955D01*
X66513955Y-41833181D01*
X66459564Y-41914582D01*
X66422099Y-42005030D01*
X66403000Y-42101050D01*
X66403000Y-42198950D01*
X66422099Y-42294970D01*
X66459564Y-42385418D01*
X66513955Y-42466819D01*
X66583181Y-42536045D01*
X66664582Y-42590436D01*
X66755030Y-42627901D01*
X66851050Y-42647000D01*
X66948950Y-42647000D01*
X67044970Y-42627901D01*
X67135418Y-42590436D01*
X67216819Y-42536045D01*
X67277989Y-42474875D01*
X67277990Y-43888010D01*
X67235418Y-43859564D01*
X67148637Y-43823618D01*
X67177901Y-43752970D01*
X67197000Y-43656950D01*
X67197000Y-43559050D01*
X67177901Y-43463030D01*
X67140436Y-43372582D01*
X67086045Y-43291181D01*
X67016819Y-43221955D01*
X66935418Y-43167564D01*
X66844970Y-43130099D01*
X66748950Y-43111000D01*
X66651050Y-43111000D01*
X66555030Y-43130099D01*
X66464582Y-43167564D01*
X66383181Y-43221955D01*
X66313955Y-43291181D01*
X66285344Y-43334000D01*
X63568864Y-43334000D01*
X63586045Y-43316819D01*
X63640436Y-43235418D01*
X63677901Y-43144970D01*
X63697000Y-43048950D01*
X63697000Y-42951050D01*
X63686953Y-42900541D01*
X63703259Y-42884235D01*
X63703263Y-42884230D01*
X64378535Y-42208960D01*
X64378535Y-42286920D01*
X64397634Y-42382940D01*
X64435099Y-42473388D01*
X64489490Y-42554789D01*
X64558716Y-42624015D01*
X64640117Y-42678406D01*
X64730565Y-42715871D01*
X64826585Y-42734970D01*
X64924485Y-42734970D01*
X65020505Y-42715871D01*
X65110953Y-42678406D01*
X65192354Y-42624015D01*
X65261580Y-42554789D01*
X65315971Y-42473388D01*
X65353436Y-42382940D01*
X65372535Y-42286920D01*
X65372535Y-42189020D01*
X65362488Y-42138510D01*
X68013375Y-39487624D01*
X68088735Y-39518839D01*
X68184755Y-39537938D01*
X68282655Y-39537938D01*
X68378675Y-39518839D01*
X68469123Y-39481374D01*
X68550524Y-39426983D01*
X68619750Y-39357757D01*
X68674141Y-39276356D01*
X68711606Y-39185908D01*
X68730705Y-39089888D01*
X68730705Y-38991988D01*
X68711606Y-38895968D01*
X68674141Y-38805520D01*
X68619750Y-38724119D01*
X68550524Y-38654893D01*
X68469123Y-38600502D01*
X68378675Y-38563037D01*
X68282655Y-38543938D01*
X68184755Y-38543938D01*
X68088735Y-38563037D01*
X67998287Y-38600502D01*
X67916886Y-38654893D01*
X67847660Y-38724119D01*
X67793269Y-38805520D01*
X67755804Y-38895968D01*
X67737371Y-38988640D01*
X64974995Y-41751017D01*
X64924485Y-41740970D01*
X64826585Y-41740970D01*
X64730565Y-41760069D01*
X64650777Y-41793118D01*
X64650777Y-37091433D01*
X64693596Y-37062822D01*
X64762822Y-36993596D01*
X64817213Y-36912195D01*
X64854678Y-36821747D01*
X64873777Y-36725727D01*
X64873777Y-36627827D01*
X64854678Y-36531807D01*
X64817213Y-36441359D01*
X64762822Y-36359958D01*
X64693596Y-36290732D01*
X64612195Y-36236341D01*
X64521747Y-36198876D01*
X64425727Y-36179777D01*
X64327827Y-36179777D01*
X64231807Y-36198876D01*
X64141359Y-36236341D01*
X64059958Y-36290732D01*
X63990732Y-36359958D01*
X63936341Y-36441359D01*
X63898876Y-36531807D01*
X63879777Y-36627827D01*
X63879777Y-36725727D01*
X63898876Y-36821747D01*
X63936341Y-36912195D01*
X63990732Y-36993596D01*
X64059958Y-37062822D01*
X64102777Y-37091433D01*
X64102778Y-41709727D01*
X63315770Y-42496737D01*
X63315765Y-42496741D01*
X63299459Y-42513047D01*
X63248950Y-42503000D01*
X63151050Y-42503000D01*
X63055030Y-42522099D01*
X62964582Y-42559564D01*
X62883181Y-42613955D01*
X62813955Y-42683181D01*
X62759564Y-42764582D01*
X62722099Y-42855030D01*
X62703000Y-42951050D01*
X62703000Y-43048950D01*
X62722099Y-43144970D01*
X62759564Y-43235418D01*
X62813955Y-43316819D01*
X62831136Y-43334000D01*
X61597000Y-43334000D01*
X61597000Y-43251050D01*
X61577901Y-43155030D01*
X61540436Y-43064582D01*
X61486045Y-42983181D01*
X61416819Y-42913955D01*
X61335418Y-42859564D01*
X61244970Y-42822099D01*
X61148950Y-42803000D01*
X61051050Y-42803000D01*
X60955030Y-42822099D01*
X60864582Y-42859564D01*
X60783181Y-42913955D01*
X60713955Y-42983181D01*
X60659564Y-43064582D01*
X60622099Y-43155030D01*
X60603000Y-43251050D01*
X60603000Y-43348950D01*
X60622099Y-43444970D01*
X60659564Y-43535418D01*
X60713955Y-43616819D01*
X60783181Y-43686045D01*
X60864582Y-43740436D01*
X60955030Y-43777901D01*
X61051050Y-43797000D01*
X61148950Y-43797000D01*
X61199459Y-43786953D01*
X61204740Y-43792234D01*
X61213316Y-43802684D01*
X61223766Y-43811260D01*
X61255037Y-43836924D01*
X61280480Y-43850523D01*
X61302638Y-43862367D01*
X61354287Y-43878035D01*
X61394546Y-43882000D01*
X61394556Y-43882000D01*
X61408000Y-43883324D01*
X61421443Y-43882000D01*
X66285344Y-43882000D01*
X66313955Y-43924819D01*
X66383181Y-43994045D01*
X66431005Y-44026000D01*
X60628864Y-44026000D01*
X60617948Y-44015084D01*
X60536547Y-43960693D01*
X60446099Y-43923228D01*
X60350079Y-43904129D01*
X60252179Y-43904129D01*
X60156159Y-43923228D01*
X60065711Y-43960693D01*
X59984310Y-44015084D01*
X59915084Y-44084310D01*
X59860693Y-44165711D01*
X59823228Y-44256159D01*
X59804129Y-44352179D01*
X59804129Y-44450079D01*
X59823228Y-44546099D01*
X59860693Y-44636547D01*
X59909327Y-44709332D01*
X59697990Y-44709332D01*
X59669379Y-44666513D01*
X59600153Y-44597287D01*
X59518752Y-44542896D01*
X59428304Y-44505431D01*
X59332284Y-44486332D01*
X59234384Y-44486332D01*
X59138364Y-44505431D01*
X59047916Y-44542896D01*
X58966515Y-44597287D01*
X58897289Y-44666513D01*
X58842898Y-44747914D01*
X58805433Y-44838362D01*
X58786334Y-44934382D01*
X58786334Y-45032282D01*
X58805433Y-45128302D01*
X58842898Y-45218750D01*
X58897289Y-45300151D01*
X58966515Y-45369377D01*
X59047916Y-45423768D01*
X59138364Y-45461233D01*
X59234384Y-45480332D01*
X59332284Y-45480332D01*
X59428304Y-45461233D01*
X59518752Y-45423768D01*
X59600153Y-45369377D01*
X59669379Y-45300151D01*
X59697990Y-45257332D01*
X62249839Y-45257332D01*
X62966740Y-45974234D01*
X62975316Y-45984684D01*
X62985766Y-45993260D01*
X63017037Y-46018924D01*
X63037009Y-46029599D01*
X63064638Y-46044367D01*
X63116287Y-46060035D01*
X63156546Y-46064000D01*
X63156556Y-46064000D01*
X63170000Y-46065324D01*
X63183443Y-46064000D01*
X63626557Y-46064000D01*
X63640000Y-46065324D01*
X63653443Y-46064000D01*
X63653454Y-46064000D01*
X63693713Y-46060035D01*
X63745362Y-46044367D01*
X63792962Y-46018924D01*
X63834684Y-45984684D01*
X63843264Y-45974229D01*
X64243494Y-45574000D01*
X67358380Y-45574000D01*
X67353000Y-45601050D01*
X67353000Y-45698950D01*
X67355604Y-45712040D01*
X67305030Y-45722099D01*
X67214582Y-45759564D01*
X67133181Y-45813955D01*
X67063955Y-45883181D01*
X67009564Y-45964582D01*
X66972099Y-46055030D01*
X66953000Y-46151050D01*
X66953000Y-46153000D01*
X66951050Y-46153000D01*
X66855030Y-46172099D01*
X66764582Y-46209564D01*
X66683181Y-46263955D01*
X66613955Y-46333181D01*
X66559564Y-46414582D01*
X66522099Y-46505030D01*
X66503000Y-46601050D01*
X66503000Y-46698950D01*
X66522099Y-46794970D01*
X66559564Y-46885418D01*
X66613955Y-46966819D01*
X66683181Y-47036045D01*
X66764582Y-47090436D01*
X66855030Y-47127901D01*
X66951050Y-47147000D01*
X67048950Y-47147000D01*
X67144970Y-47127901D01*
X67235418Y-47090436D01*
X67316819Y-47036045D01*
X67386045Y-46966819D01*
X67440436Y-46885418D01*
X67477901Y-46794970D01*
X67497000Y-46698950D01*
X67497000Y-46697000D01*
X67498950Y-46697000D01*
X67594970Y-46677901D01*
X67685418Y-46640436D01*
X67766819Y-46586045D01*
X67836045Y-46516819D01*
X67890436Y-46435418D01*
X67927901Y-46344970D01*
X67947000Y-46248950D01*
X67947000Y-46151050D01*
X67944396Y-46137960D01*
X67994970Y-46127901D01*
X68085418Y-46090436D01*
X68109979Y-46074025D01*
X68109979Y-48042526D01*
X63525771Y-52626736D01*
X63525765Y-52626741D01*
X63509459Y-52643047D01*
X63458950Y-52633000D01*
X63361050Y-52633000D01*
X63265030Y-52652099D01*
X63174582Y-52689564D01*
X63093181Y-52743955D01*
X63023955Y-52813181D01*
X62969564Y-52894582D01*
X62932099Y-52985030D01*
X62913000Y-53081050D01*
X62913000Y-53178950D01*
X62932099Y-53274970D01*
X62969564Y-53365418D01*
X63023955Y-53446819D01*
X63093181Y-53516045D01*
X63174582Y-53570436D01*
X63265030Y-53607901D01*
X63361050Y-53627000D01*
X63458950Y-53627000D01*
X63554970Y-53607901D01*
X63645418Y-53570436D01*
X63726819Y-53516045D01*
X63796045Y-53446819D01*
X63850436Y-53365418D01*
X63887901Y-53274970D01*
X63907000Y-53178950D01*
X63907000Y-53081050D01*
X63896953Y-53030541D01*
X63913259Y-53014235D01*
X63913264Y-53014229D01*
X68417990Y-48509505D01*
X68417990Y-49894514D01*
X68115770Y-50196735D01*
X68115765Y-50196739D01*
X68099459Y-50213045D01*
X68048950Y-50202998D01*
X67951050Y-50202998D01*
X67855030Y-50222097D01*
X67764582Y-50259562D01*
X67683181Y-50313953D01*
X67613955Y-50383179D01*
X67559564Y-50464580D01*
X67522099Y-50555028D01*
X67503000Y-50651048D01*
X67503000Y-50748948D01*
X67522099Y-50844968D01*
X67559564Y-50935416D01*
X67613955Y-51016817D01*
X67683181Y-51086043D01*
X67764582Y-51140434D01*
X67855030Y-51177899D01*
X67951050Y-51196998D01*
X68048950Y-51196998D01*
X68132034Y-51180472D01*
X60232772Y-59079735D01*
X60222316Y-59088316D01*
X60188076Y-59130038D01*
X60181269Y-59142773D01*
X60100181Y-59196955D01*
X60030955Y-59266181D01*
X59976564Y-59347582D01*
X59939099Y-59438030D01*
X59920000Y-59534050D01*
X59920000Y-59631950D01*
X59939099Y-59727970D01*
X59976564Y-59818418D01*
X60030955Y-59899819D01*
X60100181Y-59969045D01*
X60181582Y-60023436D01*
X60272030Y-60060901D01*
X60368050Y-60080000D01*
X60465950Y-60080000D01*
X60561970Y-60060901D01*
X60652418Y-60023436D01*
X60733819Y-59969045D01*
X60803045Y-59899819D01*
X60857436Y-59818418D01*
X60894901Y-59727970D01*
X60914000Y-59631950D01*
X60914000Y-59534050D01*
X60894901Y-59438030D01*
X60857436Y-59347582D01*
X60810362Y-59277131D01*
X61986443Y-58101050D01*
X69503000Y-58101050D01*
X69503000Y-58198950D01*
X69522099Y-58294970D01*
X69559564Y-58385418D01*
X69613955Y-58466819D01*
X69683181Y-58536045D01*
X69764582Y-58590436D01*
X69855030Y-58627901D01*
X69951050Y-58647000D01*
X70048950Y-58647000D01*
X70144970Y-58627901D01*
X70235418Y-58590436D01*
X70316819Y-58536045D01*
X70386045Y-58466819D01*
X70440436Y-58385418D01*
X70477901Y-58294970D01*
X70497000Y-58198950D01*
X70497000Y-58101050D01*
X70477901Y-58005030D01*
X70440436Y-57914582D01*
X70386045Y-57833181D01*
X70316819Y-57763955D01*
X70235418Y-57709564D01*
X70144970Y-57672099D01*
X70048950Y-57653000D01*
X69951050Y-57653000D01*
X69855030Y-57672099D01*
X69764582Y-57709564D01*
X69683181Y-57763955D01*
X69613955Y-57833181D01*
X69559564Y-57914582D01*
X69522099Y-58005030D01*
X69503000Y-58101050D01*
X61986443Y-58101050D01*
X63502493Y-56585000D01*
X76092882Y-56585000D01*
X76097342Y-56630284D01*
X76110551Y-56673828D01*
X76132001Y-56713958D01*
X76160868Y-56749132D01*
X76196042Y-56777999D01*
X76236172Y-56799449D01*
X76279716Y-56812658D01*
X76325000Y-56817118D01*
X76869250Y-56816000D01*
X76927000Y-56758250D01*
X76927000Y-55983000D01*
X77073000Y-55983000D01*
X77073000Y-56758250D01*
X77130750Y-56816000D01*
X77675000Y-56817118D01*
X77720284Y-56812658D01*
X77763828Y-56799449D01*
X77803958Y-56777999D01*
X77839132Y-56749132D01*
X77867999Y-56713958D01*
X77889449Y-56673828D01*
X77902658Y-56630284D01*
X77907118Y-56585000D01*
X77906000Y-56040750D01*
X77848250Y-55983000D01*
X77073000Y-55983000D01*
X76927000Y-55983000D01*
X76151750Y-55983000D01*
X76094000Y-56040750D01*
X76092882Y-56585000D01*
X63502493Y-56585000D01*
X66636443Y-53451050D01*
X67903000Y-53451050D01*
X67903000Y-53548950D01*
X67922099Y-53644970D01*
X67959564Y-53735418D01*
X68013955Y-53816819D01*
X68083181Y-53886045D01*
X68126001Y-53914657D01*
X68126000Y-55105344D01*
X68083181Y-55133955D01*
X68013955Y-55203181D01*
X67959564Y-55284582D01*
X67922099Y-55375030D01*
X67903000Y-55471050D01*
X67903000Y-55568950D01*
X67922099Y-55664970D01*
X67959564Y-55755418D01*
X68013955Y-55836819D01*
X68083181Y-55906045D01*
X68164582Y-55960436D01*
X68255030Y-55997901D01*
X68351050Y-56017000D01*
X68448950Y-56017000D01*
X68544970Y-55997901D01*
X68635418Y-55960436D01*
X68716819Y-55906045D01*
X68786045Y-55836819D01*
X68840436Y-55755418D01*
X68877901Y-55664970D01*
X68897000Y-55568950D01*
X68897000Y-55471050D01*
X68877901Y-55375030D01*
X68840436Y-55284582D01*
X68786045Y-55203181D01*
X68716819Y-55133955D01*
X68674000Y-55105344D01*
X68674000Y-53914656D01*
X68716819Y-53886045D01*
X68751814Y-53851050D01*
X70002994Y-53851050D01*
X70002994Y-53948950D01*
X70022093Y-54044970D01*
X70059558Y-54135418D01*
X70113949Y-54216819D01*
X70183175Y-54286045D01*
X70264576Y-54340436D01*
X70355024Y-54377901D01*
X70451044Y-54397000D01*
X70548944Y-54397000D01*
X70644964Y-54377901D01*
X70735412Y-54340436D01*
X70816813Y-54286045D01*
X70824997Y-54277861D01*
X70833181Y-54286045D01*
X70914582Y-54340436D01*
X71005030Y-54377901D01*
X71101050Y-54397000D01*
X71198950Y-54397000D01*
X71294970Y-54377901D01*
X71385418Y-54340436D01*
X71466819Y-54286045D01*
X71475000Y-54277864D01*
X71483181Y-54286045D01*
X71564582Y-54340436D01*
X71655030Y-54377901D01*
X71751050Y-54397000D01*
X71848950Y-54397000D01*
X71944970Y-54377901D01*
X72035418Y-54340436D01*
X72116819Y-54286045D01*
X72186045Y-54216819D01*
X72240436Y-54135418D01*
X72277901Y-54044970D01*
X72297000Y-53948950D01*
X72297000Y-53851050D01*
X72277901Y-53755030D01*
X72240436Y-53664582D01*
X72186045Y-53583181D01*
X72116819Y-53513955D01*
X72035418Y-53459564D01*
X71944970Y-53422099D01*
X71848950Y-53403000D01*
X71751050Y-53403000D01*
X71655030Y-53422099D01*
X71564582Y-53459564D01*
X71483181Y-53513955D01*
X71475000Y-53522136D01*
X71466819Y-53513955D01*
X71385418Y-53459564D01*
X71294970Y-53422099D01*
X71198950Y-53403000D01*
X71101050Y-53403000D01*
X71005030Y-53422099D01*
X70914582Y-53459564D01*
X70833181Y-53513955D01*
X70824997Y-53522139D01*
X70816813Y-53513955D01*
X70735412Y-53459564D01*
X70644964Y-53422099D01*
X70548944Y-53403000D01*
X70451044Y-53403000D01*
X70355024Y-53422099D01*
X70264576Y-53459564D01*
X70183175Y-53513955D01*
X70113949Y-53583181D01*
X70059558Y-53664582D01*
X70022093Y-53755030D01*
X70002994Y-53851050D01*
X68751814Y-53851050D01*
X68786045Y-53816819D01*
X68840436Y-53735418D01*
X68877901Y-53644970D01*
X68897000Y-53548950D01*
X68897000Y-53451050D01*
X68877901Y-53355030D01*
X68840436Y-53264582D01*
X68786045Y-53183181D01*
X68716819Y-53113955D01*
X68635418Y-53059564D01*
X68544970Y-53022099D01*
X68448950Y-53003000D01*
X68351050Y-53003000D01*
X68255030Y-53022099D01*
X68164582Y-53059564D01*
X68083181Y-53113955D01*
X68013955Y-53183181D01*
X67959564Y-53264582D01*
X67922099Y-53355030D01*
X67903000Y-53451050D01*
X66636443Y-53451050D01*
X68726001Y-51361493D01*
X68726001Y-52113454D01*
X68729966Y-52153713D01*
X68745634Y-52205362D01*
X68771077Y-52252962D01*
X68805317Y-52294684D01*
X68847039Y-52328924D01*
X68894639Y-52354367D01*
X68946288Y-52370035D01*
X69000000Y-52375325D01*
X69053713Y-52370035D01*
X69105362Y-52354367D01*
X69152962Y-52328924D01*
X69194684Y-52294684D01*
X69228924Y-52252962D01*
X69254367Y-52205362D01*
X69270035Y-52153713D01*
X69274000Y-52113454D01*
X69274000Y-50713444D01*
X69275324Y-50700001D01*
X69274000Y-50686557D01*
X69274000Y-46103722D01*
X69454818Y-46719532D01*
X69857861Y-47501326D01*
X70401576Y-48192716D01*
X71066312Y-48768713D01*
X71828043Y-49208499D01*
X72659239Y-49496179D01*
X73529858Y-49621355D01*
X74408433Y-49579503D01*
X75263211Y-49372136D01*
X76063298Y-49006749D01*
X76779775Y-48496547D01*
X77386749Y-47859971D01*
X77862282Y-47120029D01*
X78189185Y-46303462D01*
X78209979Y-46195574D01*
X78209979Y-47302527D01*
X75386507Y-50126000D01*
X75314662Y-50126000D01*
X75286051Y-50083181D01*
X75216825Y-50013955D01*
X75135424Y-49959564D01*
X75044976Y-49922099D01*
X74948956Y-49903000D01*
X74851056Y-49903000D01*
X74755036Y-49922099D01*
X74664588Y-49959564D01*
X74583187Y-50013955D01*
X74513961Y-50083181D01*
X74459570Y-50164582D01*
X74422105Y-50255030D01*
X74403006Y-50351050D01*
X74403006Y-50448950D01*
X74422105Y-50544970D01*
X74459570Y-50635418D01*
X74513961Y-50716819D01*
X74555596Y-50758454D01*
X74483181Y-50806841D01*
X74413955Y-50876067D01*
X74359564Y-50957468D01*
X74322099Y-51047916D01*
X74303000Y-51143936D01*
X74303000Y-51241836D01*
X74322099Y-51337856D01*
X74359564Y-51428304D01*
X74413955Y-51509705D01*
X74483181Y-51578931D01*
X74564582Y-51633322D01*
X74655030Y-51670787D01*
X74747576Y-51689195D01*
X73710771Y-52726000D01*
X73214660Y-52726000D01*
X73186049Y-52683181D01*
X73116823Y-52613955D01*
X73035422Y-52559564D01*
X72944974Y-52522099D01*
X72848954Y-52503000D01*
X72751054Y-52503000D01*
X72655034Y-52522099D01*
X72564586Y-52559564D01*
X72483185Y-52613955D01*
X72413959Y-52683181D01*
X72359568Y-52764582D01*
X72322103Y-52855030D01*
X72303004Y-52951050D01*
X72303004Y-53048950D01*
X72322103Y-53144970D01*
X72359568Y-53235418D01*
X72413959Y-53316819D01*
X72483185Y-53386045D01*
X72564586Y-53440436D01*
X72655034Y-53477901D01*
X72751054Y-53497000D01*
X72848954Y-53497000D01*
X72944974Y-53477901D01*
X73035422Y-53440436D01*
X73116823Y-53386045D01*
X73186049Y-53316819D01*
X73214660Y-53274000D01*
X73623136Y-53274000D01*
X73563955Y-53333181D01*
X73509564Y-53414582D01*
X73472099Y-53505030D01*
X73453000Y-53601050D01*
X73453000Y-53698950D01*
X73463047Y-53749460D01*
X72511507Y-54701000D01*
X72089656Y-54701000D01*
X72061045Y-54658181D01*
X71991819Y-54588955D01*
X71910418Y-54534564D01*
X71819970Y-54497099D01*
X71723950Y-54478000D01*
X71626050Y-54478000D01*
X71530030Y-54497099D01*
X71439582Y-54534564D01*
X71358181Y-54588955D01*
X71288955Y-54658181D01*
X71234564Y-54739582D01*
X71197099Y-54830030D01*
X71178000Y-54926050D01*
X71178000Y-55023950D01*
X71197099Y-55119970D01*
X71234564Y-55210418D01*
X71288955Y-55291819D01*
X71358181Y-55361045D01*
X71439582Y-55415436D01*
X71530030Y-55452901D01*
X71626050Y-55472000D01*
X71723950Y-55472000D01*
X71819970Y-55452901D01*
X71910418Y-55415436D01*
X71991819Y-55361045D01*
X72061045Y-55291819D01*
X72089656Y-55249000D01*
X72611557Y-55249000D01*
X72625000Y-55250324D01*
X72638443Y-55249000D01*
X72638454Y-55249000D01*
X72678713Y-55245035D01*
X72711793Y-55235000D01*
X76092882Y-55235000D01*
X76094000Y-55779250D01*
X76151750Y-55837000D01*
X76927000Y-55837000D01*
X76927000Y-55061750D01*
X77073000Y-55061750D01*
X77073000Y-55837000D01*
X77848250Y-55837000D01*
X77906000Y-55779250D01*
X77907118Y-55235000D01*
X77902658Y-55189716D01*
X77889449Y-55146172D01*
X77867999Y-55106042D01*
X77839132Y-55070868D01*
X77803958Y-55042001D01*
X77763828Y-55020551D01*
X77720284Y-55007342D01*
X77675000Y-55002882D01*
X77130750Y-55004000D01*
X77073000Y-55061750D01*
X76927000Y-55061750D01*
X76869250Y-55004000D01*
X76325000Y-55002882D01*
X76279716Y-55007342D01*
X76236172Y-55020551D01*
X76196042Y-55042001D01*
X76160868Y-55070868D01*
X76132001Y-55106042D01*
X76110551Y-55146172D01*
X76097342Y-55189716D01*
X76092882Y-55235000D01*
X72711793Y-55235000D01*
X72730362Y-55229367D01*
X72777962Y-55203924D01*
X72819684Y-55169684D01*
X72828265Y-55159228D01*
X73850540Y-54136953D01*
X73901050Y-54147000D01*
X73998950Y-54147000D01*
X74094970Y-54127901D01*
X74105908Y-54123370D01*
X76119484Y-54123370D01*
X76149331Y-54221778D01*
X76226501Y-54381745D01*
X76333397Y-54523583D01*
X76465910Y-54641841D01*
X76618948Y-54731975D01*
X76786629Y-54790521D01*
X76927000Y-54755309D01*
X76927000Y-53983000D01*
X77073000Y-53983000D01*
X77073000Y-54755309D01*
X77213371Y-54790521D01*
X77381052Y-54731975D01*
X77534090Y-54641841D01*
X77666603Y-54523583D01*
X77773499Y-54381745D01*
X77850669Y-54221778D01*
X77880516Y-54123370D01*
X77845103Y-53983000D01*
X77073000Y-53983000D01*
X76927000Y-53983000D01*
X76154897Y-53983000D01*
X76119484Y-54123370D01*
X74105908Y-54123370D01*
X74185418Y-54090436D01*
X74266819Y-54036045D01*
X74336045Y-53966819D01*
X74390436Y-53885418D01*
X74427901Y-53794970D01*
X74447000Y-53698950D01*
X74447000Y-53696630D01*
X76119484Y-53696630D01*
X76154897Y-53837000D01*
X76927000Y-53837000D01*
X76927000Y-53064691D01*
X77073000Y-53064691D01*
X77073000Y-53837000D01*
X77845103Y-53837000D01*
X77880516Y-53696630D01*
X77850669Y-53598222D01*
X77773499Y-53438255D01*
X77666603Y-53296417D01*
X77534090Y-53178159D01*
X77381052Y-53088025D01*
X77213371Y-53029479D01*
X77073000Y-53064691D01*
X76927000Y-53064691D01*
X76786629Y-53029479D01*
X76618948Y-53088025D01*
X76465910Y-53178159D01*
X76333397Y-53296417D01*
X76226501Y-53438255D01*
X76149331Y-53598222D01*
X76119484Y-53696630D01*
X74447000Y-53696630D01*
X74447000Y-53601050D01*
X74427901Y-53505030D01*
X74390436Y-53414582D01*
X74336045Y-53333181D01*
X74266819Y-53263955D01*
X74185418Y-53209564D01*
X74094970Y-53172099D01*
X74048835Y-53162922D01*
X75088387Y-52123370D01*
X76119484Y-52123370D01*
X76149331Y-52221778D01*
X76226501Y-52381745D01*
X76333397Y-52523583D01*
X76465910Y-52641841D01*
X76618948Y-52731975D01*
X76786629Y-52790521D01*
X76927000Y-52755309D01*
X76927000Y-51983000D01*
X77073000Y-51983000D01*
X77073000Y-52755309D01*
X77213371Y-52790521D01*
X77381052Y-52731975D01*
X77534090Y-52641841D01*
X77666603Y-52523583D01*
X77773499Y-52381745D01*
X77850669Y-52221778D01*
X77880516Y-52123370D01*
X77845103Y-51983000D01*
X77073000Y-51983000D01*
X76927000Y-51983000D01*
X76154897Y-51983000D01*
X76119484Y-52123370D01*
X75088387Y-52123370D01*
X75515127Y-51696630D01*
X76119484Y-51696630D01*
X76154897Y-51837000D01*
X76927000Y-51837000D01*
X76927000Y-51064691D01*
X77073000Y-51064691D01*
X77073000Y-51837000D01*
X77845103Y-51837000D01*
X77880516Y-51696630D01*
X77850669Y-51598222D01*
X77773499Y-51438255D01*
X77666603Y-51296417D01*
X77534090Y-51178159D01*
X77381052Y-51088025D01*
X77213371Y-51029479D01*
X77073000Y-51064691D01*
X76927000Y-51064691D01*
X76786629Y-51029479D01*
X76618948Y-51088025D01*
X76465910Y-51178159D01*
X76333397Y-51296417D01*
X76226501Y-51438255D01*
X76149331Y-51598222D01*
X76119484Y-51696630D01*
X75515127Y-51696630D01*
X79284240Y-47927519D01*
X79294684Y-47918948D01*
X79303255Y-47908504D01*
X79303260Y-47908499D01*
X79328924Y-47877228D01*
X79354366Y-47829627D01*
X79354367Y-47829626D01*
X79370035Y-47777977D01*
X79374000Y-47737718D01*
X79374000Y-47737706D01*
X79375324Y-47724265D01*
X79374000Y-47710824D01*
X79374000Y-42813443D01*
X79375324Y-42800000D01*
X79374000Y-42786556D01*
X79374000Y-42786546D01*
X79370035Y-42746287D01*
X79354367Y-42694638D01*
X79334541Y-42657546D01*
X79328924Y-42647037D01*
X79303260Y-42615766D01*
X79294684Y-42605316D01*
X79284234Y-42596740D01*
X77905524Y-41218030D01*
X78018750Y-41218030D01*
X78153608Y-41191205D01*
X78280641Y-41138586D01*
X78394968Y-41062195D01*
X78492195Y-40964968D01*
X78568586Y-40850641D01*
X78621205Y-40723608D01*
X78648030Y-40588750D01*
X78648030Y-40451250D01*
X78621205Y-40316392D01*
X78568586Y-40189359D01*
X78492195Y-40075032D01*
X78394968Y-39977805D01*
X78280641Y-39901414D01*
X78153608Y-39848795D01*
X78018750Y-39821970D01*
X77881250Y-39821970D01*
X77746392Y-39848795D01*
X77619359Y-39901414D01*
X77505032Y-39977805D01*
X77407805Y-40075032D01*
X77331414Y-40189359D01*
X77278795Y-40316392D01*
X77251970Y-40451250D01*
X77251970Y-40564477D01*
X76074000Y-39386507D01*
X76074000Y-35371375D01*
X76237240Y-35371375D01*
X76237240Y-35508625D01*
X76264016Y-35643237D01*
X76316540Y-35770039D01*
X76392791Y-35884158D01*
X76489842Y-35981209D01*
X76603961Y-36057460D01*
X76730763Y-36109984D01*
X76865375Y-36136760D01*
X77002625Y-36136760D01*
X77137237Y-36109984D01*
X77264039Y-36057460D01*
X77378158Y-35981209D01*
X77475209Y-35884158D01*
X77551460Y-35770039D01*
X77603984Y-35643237D01*
X77630760Y-35508625D01*
X77630760Y-35371375D01*
X78269240Y-35371375D01*
X78269240Y-35508625D01*
X78296016Y-35643237D01*
X78348540Y-35770039D01*
X78424791Y-35884158D01*
X78521842Y-35981209D01*
X78635961Y-36057460D01*
X78762763Y-36109984D01*
X78897375Y-36136760D01*
X79034625Y-36136760D01*
X79169237Y-36109984D01*
X79296039Y-36057460D01*
X79410158Y-35981209D01*
X79507209Y-35884158D01*
X79583460Y-35770039D01*
X79635984Y-35643237D01*
X79662760Y-35508625D01*
X79662760Y-35371375D01*
X79635984Y-35236763D01*
X79583460Y-35109961D01*
X79507209Y-34995842D01*
X79410158Y-34898791D01*
X79296039Y-34822540D01*
X79169237Y-34770016D01*
X79034625Y-34743240D01*
X78897375Y-34743240D01*
X78762763Y-34770016D01*
X78635961Y-34822540D01*
X78521842Y-34898791D01*
X78424791Y-34995842D01*
X78348540Y-35109961D01*
X78296016Y-35236763D01*
X78269240Y-35371375D01*
X77630760Y-35371375D01*
X77603984Y-35236763D01*
X77551460Y-35109961D01*
X77475209Y-34995842D01*
X77378158Y-34898791D01*
X77264039Y-34822540D01*
X77137237Y-34770016D01*
X77002625Y-34743240D01*
X76865375Y-34743240D01*
X76730763Y-34770016D01*
X76603961Y-34822540D01*
X76489842Y-34898791D01*
X76392791Y-34995842D01*
X76316540Y-35109961D01*
X76264016Y-35236763D01*
X76237240Y-35371375D01*
X76074000Y-35371375D01*
X76074000Y-32413443D01*
X76075324Y-32400000D01*
X76074000Y-32386556D01*
X76074000Y-32386546D01*
X76070035Y-32346287D01*
X76054367Y-32294638D01*
X76036120Y-32260500D01*
X76028924Y-32247037D01*
X76003260Y-32215766D01*
X75994684Y-32205316D01*
X75984234Y-32196740D01*
X73203265Y-29415772D01*
X73194684Y-29405316D01*
X73152962Y-29371076D01*
X73105362Y-29345633D01*
X73053713Y-29329965D01*
X73013454Y-29326000D01*
X73013443Y-29326000D01*
X73000000Y-29324676D01*
X72986557Y-29326000D01*
X71014656Y-29326000D01*
X70986045Y-29283181D01*
X70916819Y-29213955D01*
X70846019Y-29166648D01*
X70891819Y-29136045D01*
X70961045Y-29066819D01*
X71015436Y-28985418D01*
X71052901Y-28894970D01*
X71072000Y-28798950D01*
X71072000Y-28701050D01*
X71052901Y-28605030D01*
X71015436Y-28514582D01*
X70961045Y-28433181D01*
X70891819Y-28363955D01*
X70810418Y-28309564D01*
X70719970Y-28272099D01*
X70623950Y-28253000D01*
X70526050Y-28253000D01*
X70475540Y-28263047D01*
X69324000Y-27111507D01*
X69324000Y-26701050D01*
X75603000Y-26701050D01*
X75603000Y-26798950D01*
X75622099Y-26894970D01*
X75659564Y-26985418D01*
X75713955Y-27066819D01*
X75783181Y-27136045D01*
X75864582Y-27190436D01*
X75955030Y-27227901D01*
X76051050Y-27247000D01*
X76128000Y-27247000D01*
X76128000Y-27323950D01*
X76147099Y-27419970D01*
X76184564Y-27510418D01*
X76238955Y-27591819D01*
X76308181Y-27661045D01*
X76389582Y-27715436D01*
X76480030Y-27752901D01*
X76576050Y-27772000D01*
X76673950Y-27772000D01*
X76679006Y-27770994D01*
X76678000Y-27776050D01*
X76678000Y-27873950D01*
X76697099Y-27969970D01*
X76734564Y-28060418D01*
X76788955Y-28141819D01*
X76858181Y-28211045D01*
X76939582Y-28265436D01*
X77030030Y-28302901D01*
X77126050Y-28322000D01*
X77223950Y-28322000D01*
X77319970Y-28302901D01*
X77410418Y-28265436D01*
X77491819Y-28211045D01*
X77561045Y-28141819D01*
X77615436Y-28060418D01*
X77652901Y-27969970D01*
X77672000Y-27873950D01*
X77672000Y-27776050D01*
X77652901Y-27680030D01*
X77615436Y-27589582D01*
X77561045Y-27508181D01*
X77491819Y-27438955D01*
X77410418Y-27384564D01*
X77319970Y-27347099D01*
X77223950Y-27328000D01*
X77126050Y-27328000D01*
X77120994Y-27329006D01*
X77122000Y-27323950D01*
X77122000Y-27226050D01*
X77102901Y-27130030D01*
X77065436Y-27039582D01*
X77011045Y-26958181D01*
X76941819Y-26888955D01*
X76860418Y-26834564D01*
X76769970Y-26797099D01*
X76673950Y-26778000D01*
X76597000Y-26778000D01*
X76597000Y-26701050D01*
X76577901Y-26605030D01*
X76540436Y-26514582D01*
X76486045Y-26433181D01*
X76416819Y-26363955D01*
X76335418Y-26309564D01*
X76244970Y-26272099D01*
X76148950Y-26253000D01*
X76051050Y-26253000D01*
X75955030Y-26272099D01*
X75864582Y-26309564D01*
X75783181Y-26363955D01*
X75713955Y-26433181D01*
X75659564Y-26514582D01*
X75622099Y-26605030D01*
X75603000Y-26701050D01*
X69324000Y-26701050D01*
X69324000Y-24563451D01*
X69325325Y-24550000D01*
X69324000Y-24536546D01*
X69320035Y-24496287D01*
X69304367Y-24444638D01*
X69304367Y-24444637D01*
X69278924Y-24397037D01*
X69253260Y-24365766D01*
X69244684Y-24355316D01*
X69234234Y-24346740D01*
X68253265Y-23365771D01*
X68244684Y-23355316D01*
X68202962Y-23321076D01*
X68155362Y-23295633D01*
X68103713Y-23279965D01*
X68063454Y-23276000D01*
X68063443Y-23276000D01*
X68050000Y-23274676D01*
X68036557Y-23276000D01*
X32763440Y-23276000D01*
X32749999Y-23274676D01*
X32736558Y-23276000D01*
X32736546Y-23276000D01*
X32696287Y-23279965D01*
X32644638Y-23295633D01*
X32630198Y-23303352D01*
X32597036Y-23321076D01*
X32565765Y-23346740D01*
X32565760Y-23346745D01*
X32555316Y-23355316D01*
X32546744Y-23365761D01*
X31199460Y-24713047D01*
X31148950Y-24703000D01*
X31051050Y-24703000D01*
X30955030Y-24722099D01*
X30864582Y-24759564D01*
X30783181Y-24813955D01*
X30713955Y-24883181D01*
X30659564Y-24964582D01*
X30622099Y-25055030D01*
X30603000Y-25151050D01*
X20202000Y-25151050D01*
X20202000Y-23202000D01*
X79798000Y-23202000D01*
X79798001Y-66798000D01*
X79798001Y-66798000D01*
G37*
X79798001Y-66798000D02*
X20202000Y-66798000D01*
X20202000Y-59898550D01*
X51055500Y-59898550D01*
X51055500Y-59996450D01*
X51074599Y-60092470D01*
X51112064Y-60182918D01*
X51166455Y-60264319D01*
X51235681Y-60333545D01*
X51317082Y-60387936D01*
X51407530Y-60425401D01*
X51503550Y-60444500D01*
X51530500Y-60444500D01*
X51530500Y-60471450D01*
X51549599Y-60567470D01*
X51587064Y-60657918D01*
X51641455Y-60739319D01*
X51710681Y-60808545D01*
X51792082Y-60862936D01*
X51882530Y-60900401D01*
X51978550Y-60919500D01*
X52015500Y-60919500D01*
X52015500Y-60956450D01*
X52034599Y-61052470D01*
X52072064Y-61142918D01*
X52126455Y-61224319D01*
X52195681Y-61293545D01*
X52277082Y-61347936D01*
X52367530Y-61385401D01*
X52463550Y-61404500D01*
X52561450Y-61404500D01*
X52657470Y-61385401D01*
X52747918Y-61347936D01*
X52829319Y-61293545D01*
X52898545Y-61224319D01*
X52952936Y-61142918D01*
X52990401Y-61052470D01*
X53009500Y-60956450D01*
X53009500Y-60951050D01*
X58903000Y-60951050D01*
X58903000Y-61048950D01*
X58922099Y-61144970D01*
X58959564Y-61235418D01*
X59013955Y-61316819D01*
X59083181Y-61386045D01*
X59164582Y-61440436D01*
X59255030Y-61477901D01*
X59351050Y-61497000D01*
X59448950Y-61497000D01*
X59544970Y-61477901D01*
X59635418Y-61440436D01*
X59716819Y-61386045D01*
X59786045Y-61316819D01*
X59840436Y-61235418D01*
X59877901Y-61144970D01*
X59897000Y-61048950D01*
X59897000Y-60951050D01*
X59877901Y-60855030D01*
X59840436Y-60764582D01*
X59786045Y-60683181D01*
X59716819Y-60613955D01*
X59635418Y-60559564D01*
X59544970Y-60522099D01*
X59448950Y-60503000D01*
X59351050Y-60503000D01*
X59255030Y-60522099D01*
X59164582Y-60559564D01*
X59083181Y-60613955D01*
X59013955Y-60683181D01*
X58959564Y-60764582D01*
X58922099Y-60855030D01*
X58903000Y-60951050D01*
X53009500Y-60951050D01*
X53009500Y-60858550D01*
X52990401Y-60762530D01*
X52952936Y-60672082D01*
X52898545Y-60590681D01*
X52829319Y-60521455D01*
X52747918Y-60467064D01*
X52657470Y-60429599D01*
X52561450Y-60410500D01*
X52524500Y-60410500D01*
X52524500Y-60373550D01*
X52505401Y-60277530D01*
X52467936Y-60187082D01*
X52413545Y-60105681D01*
X52344319Y-60036455D01*
X52262918Y-59982064D01*
X52172470Y-59944599D01*
X52076450Y-59925500D01*
X52049500Y-59925500D01*
X52049500Y-59898550D01*
X52030401Y-59802530D01*
X51992936Y-59712082D01*
X51938545Y-59630681D01*
X51869319Y-59561455D01*
X51787918Y-59507064D01*
X51697470Y-59469599D01*
X51601450Y-59450500D01*
X51503550Y-59450500D01*
X51407530Y-59469599D01*
X51317082Y-59507064D01*
X51235681Y-59561455D01*
X51166455Y-59630681D01*
X51112064Y-59712082D01*
X51074599Y-59802530D01*
X51055500Y-59898550D01*
X20202000Y-59898550D01*
X20202000Y-55910000D01*
X22642668Y-55910000D01*
X22663945Y-56126030D01*
X22726959Y-56333758D01*
X22829287Y-56525201D01*
X22966998Y-56693002D01*
X23134799Y-56830713D01*
X23326242Y-56933041D01*
X23533970Y-56996055D01*
X23695863Y-57012000D01*
X23804137Y-57012000D01*
X23966030Y-56996055D01*
X24173758Y-56933041D01*
X24280381Y-56876050D01*
X33978000Y-56876050D01*
X33978000Y-56973950D01*
X33997099Y-57069970D01*
X34034564Y-57160418D01*
X34088955Y-57241819D01*
X34158181Y-57311045D01*
X34239582Y-57365436D01*
X34330030Y-57402901D01*
X34426050Y-57422000D01*
X34523950Y-57422000D01*
X34601751Y-57406525D01*
X34646287Y-57420035D01*
X34686546Y-57424000D01*
X34686556Y-57424000D01*
X34699999Y-57425324D01*
X34713443Y-57424000D01*
X41435344Y-57424000D01*
X41463955Y-57466819D01*
X41533181Y-57536045D01*
X41614582Y-57590436D01*
X41705030Y-57627901D01*
X41801050Y-57647000D01*
X41898950Y-57647000D01*
X41994970Y-57627901D01*
X42085418Y-57590436D01*
X42166819Y-57536045D01*
X42236045Y-57466819D01*
X42290436Y-57385418D01*
X42327901Y-57294970D01*
X42347000Y-57198950D01*
X42347000Y-57101050D01*
X42327901Y-57005030D01*
X42290436Y-56914582D01*
X42236045Y-56833181D01*
X42166819Y-56763955D01*
X42085418Y-56709564D01*
X41994970Y-56672099D01*
X41898950Y-56653000D01*
X41801050Y-56653000D01*
X41705030Y-56672099D01*
X41614582Y-56709564D01*
X41533181Y-56763955D01*
X41463955Y-56833181D01*
X41435344Y-56876000D01*
X39599559Y-56876000D01*
X39685418Y-56840436D01*
X39766819Y-56786045D01*
X39836045Y-56716819D01*
X39890436Y-56635418D01*
X39927901Y-56544970D01*
X39947000Y-56448950D01*
X39947000Y-56351050D01*
X39927901Y-56255030D01*
X39890436Y-56164582D01*
X39836045Y-56083181D01*
X39766819Y-56013955D01*
X39685418Y-55959564D01*
X39594970Y-55922099D01*
X39547000Y-55912557D01*
X39547000Y-55887443D01*
X39594970Y-55877901D01*
X39685418Y-55840436D01*
X39766819Y-55786045D01*
X39836045Y-55716819D01*
X39890436Y-55635418D01*
X39927901Y-55544970D01*
X39947000Y-55448950D01*
X39947000Y-55351050D01*
X39927901Y-55255030D01*
X39890436Y-55164582D01*
X39836045Y-55083181D01*
X39766819Y-55013955D01*
X39685418Y-54959564D01*
X39594970Y-54922099D01*
X39570654Y-54917262D01*
X39635418Y-54890436D01*
X39716819Y-54836045D01*
X39786045Y-54766819D01*
X39840436Y-54685418D01*
X39877901Y-54594970D01*
X39897000Y-54498950D01*
X39897000Y-54401050D01*
X39877901Y-54305030D01*
X39840436Y-54214582D01*
X39786045Y-54133181D01*
X39716819Y-54063955D01*
X39635418Y-54009564D01*
X39544970Y-53972099D01*
X39497000Y-53962557D01*
X39497000Y-53901050D01*
X39477901Y-53805030D01*
X39440436Y-53714582D01*
X39386045Y-53633181D01*
X39316819Y-53563955D01*
X39235418Y-53509564D01*
X39144970Y-53472099D01*
X39048950Y-53453000D01*
X38951050Y-53453000D01*
X38855030Y-53472099D01*
X38764582Y-53509564D01*
X38683181Y-53563955D01*
X38613955Y-53633181D01*
X38559564Y-53714582D01*
X38522099Y-53805030D01*
X38503000Y-53901050D01*
X38503000Y-53998950D01*
X38522099Y-54094970D01*
X38559564Y-54185418D01*
X38613955Y-54266819D01*
X38683181Y-54336045D01*
X38764582Y-54390436D01*
X38855030Y-54427901D01*
X38903000Y-54437443D01*
X38903000Y-54462557D01*
X38855030Y-54472099D01*
X38764582Y-54509564D01*
X38683181Y-54563955D01*
X38613955Y-54633181D01*
X38559564Y-54714582D01*
X38522099Y-54805030D01*
X38503000Y-54901050D01*
X38503000Y-54998950D01*
X38522099Y-55094970D01*
X38559564Y-55185418D01*
X38613955Y-55266819D01*
X38683181Y-55336045D01*
X38764582Y-55390436D01*
X38855030Y-55427901D01*
X38879346Y-55432738D01*
X38814582Y-55459564D01*
X38733181Y-55513955D01*
X38663955Y-55583181D01*
X38609564Y-55664582D01*
X38572099Y-55755030D01*
X38553000Y-55851050D01*
X38553000Y-55948950D01*
X38572099Y-56044970D01*
X38609564Y-56135418D01*
X38663955Y-56216819D01*
X38733181Y-56286045D01*
X38814582Y-56340436D01*
X38905030Y-56377901D01*
X38953000Y-56387443D01*
X38953000Y-56448950D01*
X38972099Y-56544970D01*
X39009564Y-56635418D01*
X39063955Y-56716819D01*
X39133181Y-56786045D01*
X39214582Y-56840436D01*
X39300441Y-56876000D01*
X34971990Y-56876000D01*
X34952901Y-56780030D01*
X34915436Y-56689582D01*
X34861045Y-56608181D01*
X34791819Y-56538955D01*
X34710418Y-56484564D01*
X34619970Y-56447099D01*
X34523950Y-56428000D01*
X34426050Y-56428000D01*
X34330030Y-56447099D01*
X34239582Y-56484564D01*
X34158181Y-56538955D01*
X34088955Y-56608181D01*
X34034564Y-56689582D01*
X33997099Y-56780030D01*
X33978000Y-56876050D01*
X24280381Y-56876050D01*
X24365201Y-56830713D01*
X24533002Y-56693002D01*
X24670713Y-56525201D01*
X24773041Y-56333758D01*
X24836055Y-56126030D01*
X24857332Y-55910000D01*
X24836055Y-55693970D01*
X24773041Y-55486242D01*
X24670713Y-55294799D01*
X24533002Y-55126998D01*
X24365201Y-54989287D01*
X24173758Y-54886959D01*
X23966030Y-54823945D01*
X23823002Y-54809858D01*
X23823002Y-54755310D01*
X23963371Y-54790521D01*
X24131052Y-54731975D01*
X24284090Y-54641841D01*
X24416603Y-54523583D01*
X24523499Y-54381745D01*
X24600669Y-54221778D01*
X24630516Y-54123370D01*
X24595103Y-53983000D01*
X23823000Y-53983000D01*
X23823000Y-54003000D01*
X23677000Y-54003000D01*
X23677000Y-53983000D01*
X22904897Y-53983000D01*
X22869484Y-54123370D01*
X22899331Y-54221778D01*
X22976501Y-54381745D01*
X23083397Y-54523583D01*
X23215910Y-54641841D01*
X23368948Y-54731975D01*
X23536629Y-54790521D01*
X23676998Y-54755310D01*
X23676998Y-54809858D01*
X23533970Y-54823945D01*
X23326242Y-54886959D01*
X23134799Y-54989287D01*
X22966998Y-55126998D01*
X22829287Y-55294799D01*
X22726959Y-55486242D01*
X22663945Y-55693970D01*
X22642668Y-55910000D01*
X20202000Y-55910000D01*
X20202000Y-53696630D01*
X22869484Y-53696630D01*
X22904897Y-53837000D01*
X23677000Y-53837000D01*
X23677000Y-53064691D01*
X23823000Y-53064691D01*
X23823000Y-53837000D01*
X24595103Y-53837000D01*
X24630516Y-53696630D01*
X24600669Y-53598222D01*
X24523499Y-53438255D01*
X24416603Y-53296417D01*
X24284090Y-53178159D01*
X24238062Y-53151050D01*
X46303000Y-53151050D01*
X46303000Y-53248950D01*
X46322099Y-53344970D01*
X46359564Y-53435418D01*
X46413955Y-53516819D01*
X46483181Y-53586045D01*
X46564582Y-53640436D01*
X46655030Y-53677901D01*
X46751050Y-53697000D01*
X46848950Y-53697000D01*
X46944970Y-53677901D01*
X47035418Y-53640436D01*
X47116819Y-53586045D01*
X47186045Y-53516819D01*
X47214656Y-53474000D01*
X47432108Y-53474000D01*
X47384799Y-53499287D01*
X47216998Y-53636998D01*
X47079287Y-53804799D01*
X46976959Y-53996242D01*
X46913945Y-54203970D01*
X46892668Y-54420000D01*
X46913945Y-54636030D01*
X46976959Y-54843758D01*
X47079287Y-55035201D01*
X47216998Y-55203002D01*
X47384799Y-55340713D01*
X47576242Y-55443041D01*
X47783970Y-55506055D01*
X47945863Y-55522000D01*
X48054137Y-55522000D01*
X48216030Y-55506055D01*
X48423758Y-55443041D01*
X48615201Y-55340713D01*
X48783002Y-55203002D01*
X48920713Y-55035201D01*
X49023041Y-54843758D01*
X49086055Y-54636030D01*
X49107332Y-54420000D01*
X49123781Y-54420000D01*
X49140617Y-54590942D01*
X49190479Y-54755314D01*
X49271451Y-54906801D01*
X49380420Y-55039580D01*
X49513199Y-55148549D01*
X49664686Y-55229521D01*
X49829058Y-55279383D01*
X49957163Y-55292000D01*
X50042837Y-55292000D01*
X50170942Y-55279383D01*
X50335314Y-55229521D01*
X50486801Y-55148549D01*
X50619580Y-55039580D01*
X50728549Y-54906801D01*
X50809521Y-54755314D01*
X50859383Y-54590942D01*
X50876219Y-54420000D01*
X51123781Y-54420000D01*
X51140617Y-54590942D01*
X51190479Y-54755314D01*
X51271451Y-54906801D01*
X51380420Y-55039580D01*
X51513199Y-55148549D01*
X51664686Y-55229521D01*
X51829058Y-55279383D01*
X51957163Y-55292000D01*
X52042837Y-55292000D01*
X52170942Y-55279383D01*
X52335314Y-55229521D01*
X52486801Y-55148549D01*
X52619580Y-55039580D01*
X52728549Y-54906801D01*
X52809521Y-54755314D01*
X52859383Y-54590942D01*
X52876219Y-54420000D01*
X53123781Y-54420000D01*
X53140617Y-54590942D01*
X53190479Y-54755314D01*
X53271451Y-54906801D01*
X53380420Y-55039580D01*
X53513199Y-55148549D01*
X53664686Y-55229521D01*
X53829058Y-55279383D01*
X53957163Y-55292000D01*
X54042837Y-55292000D01*
X54170942Y-55279383D01*
X54335314Y-55229521D01*
X54486801Y-55148549D01*
X54619580Y-55039580D01*
X54728549Y-54906801D01*
X54809521Y-54755314D01*
X54859383Y-54590942D01*
X54876219Y-54420000D01*
X55123781Y-54420000D01*
X55140617Y-54590942D01*
X55190479Y-54755314D01*
X55271451Y-54906801D01*
X55380420Y-55039580D01*
X55513199Y-55148549D01*
X55664686Y-55229521D01*
X55829058Y-55279383D01*
X55957163Y-55292000D01*
X56042837Y-55292000D01*
X56170942Y-55279383D01*
X56335314Y-55229521D01*
X56486801Y-55148549D01*
X56619580Y-55039580D01*
X56728549Y-54906801D01*
X56809521Y-54755314D01*
X56859383Y-54590942D01*
X56876219Y-54420000D01*
X56859383Y-54249058D01*
X56809521Y-54084686D01*
X56728549Y-53933199D01*
X56619580Y-53800420D01*
X56552051Y-53745000D01*
X57127047Y-53745000D01*
X57127047Y-55095000D01*
X57130851Y-55133619D01*
X57142115Y-55170753D01*
X57160408Y-55204977D01*
X57185026Y-55234974D01*
X57215023Y-55259592D01*
X57249247Y-55277885D01*
X57286381Y-55289149D01*
X57325000Y-55292953D01*
X58675000Y-55292953D01*
X58713619Y-55289149D01*
X58750753Y-55277885D01*
X58784977Y-55259592D01*
X58814974Y-55234974D01*
X58839592Y-55204977D01*
X58857885Y-55170753D01*
X58869149Y-55133619D01*
X58872953Y-55095000D01*
X58872953Y-55057222D01*
X59174350Y-55057222D01*
X59174350Y-55155122D01*
X59193449Y-55251142D01*
X59230914Y-55341590D01*
X59285305Y-55422991D01*
X59354531Y-55492217D01*
X59435932Y-55546608D01*
X59526380Y-55584073D01*
X59622400Y-55603172D01*
X59720300Y-55603172D01*
X59816320Y-55584073D01*
X59906768Y-55546608D01*
X59988169Y-55492217D01*
X60057395Y-55422991D01*
X60111786Y-55341590D01*
X60149251Y-55251142D01*
X60168350Y-55155122D01*
X60168350Y-55057222D01*
X60158303Y-55006712D01*
X60601017Y-54564000D01*
X60785344Y-54564000D01*
X60813955Y-54606819D01*
X60883181Y-54676045D01*
X60964582Y-54730436D01*
X61055030Y-54767901D01*
X61151050Y-54787000D01*
X61248950Y-54787000D01*
X61344970Y-54767901D01*
X61435418Y-54730436D01*
X61516819Y-54676045D01*
X61586045Y-54606819D01*
X61613364Y-54565934D01*
X61613955Y-54566819D01*
X61683181Y-54636045D01*
X61764582Y-54690436D01*
X61855030Y-54727901D01*
X61951050Y-54747000D01*
X62048950Y-54747000D01*
X62144970Y-54727901D01*
X62235418Y-54690436D01*
X62316819Y-54636045D01*
X62386045Y-54566819D01*
X62440436Y-54485418D01*
X62477901Y-54394970D01*
X62497000Y-54298950D01*
X62497000Y-54201050D01*
X62477901Y-54105030D01*
X62440436Y-54014582D01*
X62386045Y-53933181D01*
X62316819Y-53863955D01*
X62235418Y-53809564D01*
X62144970Y-53772099D01*
X62048950Y-53753000D01*
X61951050Y-53753000D01*
X61855030Y-53772099D01*
X61764582Y-53809564D01*
X61683181Y-53863955D01*
X61613955Y-53933181D01*
X61586636Y-53974066D01*
X61586045Y-53973181D01*
X61516819Y-53903955D01*
X61435418Y-53849564D01*
X61344970Y-53812099D01*
X61248950Y-53793000D01*
X61172729Y-53793000D01*
X61177538Y-53781391D01*
X61196637Y-53685371D01*
X61196637Y-53587471D01*
X61177538Y-53491451D01*
X61140073Y-53401003D01*
X61085682Y-53319602D01*
X61016456Y-53250376D01*
X60935055Y-53195985D01*
X60844607Y-53158520D01*
X60748587Y-53139421D01*
X60650687Y-53139421D01*
X60554667Y-53158520D01*
X60464219Y-53195985D01*
X60382818Y-53250376D01*
X60313592Y-53319602D01*
X60259201Y-53401003D01*
X60221736Y-53491451D01*
X60202637Y-53587471D01*
X60202637Y-53685371D01*
X60212684Y-53735880D01*
X60089609Y-53858956D01*
X60087628Y-53856975D01*
X60006227Y-53802584D01*
X59915779Y-53765119D01*
X59819759Y-53746020D01*
X59721859Y-53746020D01*
X59625839Y-53765119D01*
X59535391Y-53802584D01*
X59453990Y-53856975D01*
X59384764Y-53926201D01*
X59330373Y-54007602D01*
X59292908Y-54098050D01*
X59273809Y-54194070D01*
X59273809Y-54291970D01*
X59292908Y-54387990D01*
X59330373Y-54478438D01*
X59384764Y-54559839D01*
X59453990Y-54629065D01*
X59480959Y-54647085D01*
X59435932Y-54665736D01*
X59354531Y-54720127D01*
X59285305Y-54789353D01*
X59230914Y-54870754D01*
X59193449Y-54961202D01*
X59174350Y-55057222D01*
X58872953Y-55057222D01*
X58872953Y-53745000D01*
X58869149Y-53706381D01*
X58857885Y-53669247D01*
X58839592Y-53635023D01*
X58814974Y-53605026D01*
X58784977Y-53580408D01*
X58750753Y-53562115D01*
X58713619Y-53550851D01*
X58675000Y-53547047D01*
X57325000Y-53547047D01*
X57286381Y-53550851D01*
X57249247Y-53562115D01*
X57215023Y-53580408D01*
X57185026Y-53605026D01*
X57160408Y-53635023D01*
X57142115Y-53669247D01*
X57130851Y-53706381D01*
X57127047Y-53745000D01*
X56552051Y-53745000D01*
X56486801Y-53691451D01*
X56335314Y-53610479D01*
X56170942Y-53560617D01*
X56042837Y-53548000D01*
X55957163Y-53548000D01*
X55829058Y-53560617D01*
X55664686Y-53610479D01*
X55513199Y-53691451D01*
X55380420Y-53800420D01*
X55271451Y-53933199D01*
X55190479Y-54084686D01*
X55140617Y-54249058D01*
X55123781Y-54420000D01*
X54876219Y-54420000D01*
X54859383Y-54249058D01*
X54809521Y-54084686D01*
X54728549Y-53933199D01*
X54619580Y-53800420D01*
X54486801Y-53691451D01*
X54335314Y-53610479D01*
X54170942Y-53560617D01*
X54042837Y-53548000D01*
X53957163Y-53548000D01*
X53829058Y-53560617D01*
X53664686Y-53610479D01*
X53513199Y-53691451D01*
X53380420Y-53800420D01*
X53271451Y-53933199D01*
X53190479Y-54084686D01*
X53140617Y-54249058D01*
X53123781Y-54420000D01*
X52876219Y-54420000D01*
X52859383Y-54249058D01*
X52809521Y-54084686D01*
X52728549Y-53933199D01*
X52619580Y-53800420D01*
X52486801Y-53691451D01*
X52335314Y-53610479D01*
X52170942Y-53560617D01*
X52042837Y-53548000D01*
X51957163Y-53548000D01*
X51829058Y-53560617D01*
X51664686Y-53610479D01*
X51513199Y-53691451D01*
X51380420Y-53800420D01*
X51271451Y-53933199D01*
X51190479Y-54084686D01*
X51140617Y-54249058D01*
X51123781Y-54420000D01*
X50876219Y-54420000D01*
X50859383Y-54249058D01*
X50809521Y-54084686D01*
X50728549Y-53933199D01*
X50619580Y-53800420D01*
X50486801Y-53691451D01*
X50335314Y-53610479D01*
X50170942Y-53560617D01*
X50042837Y-53548000D01*
X49957163Y-53548000D01*
X49829058Y-53560617D01*
X49664686Y-53610479D01*
X49513199Y-53691451D01*
X49380420Y-53800420D01*
X49271451Y-53933199D01*
X49190479Y-54084686D01*
X49140617Y-54249058D01*
X49123781Y-54420000D01*
X49107332Y-54420000D01*
X49086055Y-54203970D01*
X49023041Y-53996242D01*
X48920713Y-53804799D01*
X48783002Y-53636998D01*
X48615201Y-53499287D01*
X48567892Y-53474000D01*
X59085344Y-53474000D01*
X59113955Y-53516819D01*
X59183181Y-53586045D01*
X59264582Y-53640436D01*
X59355030Y-53677901D01*
X59451050Y-53697000D01*
X59548950Y-53697000D01*
X59644970Y-53677901D01*
X59735418Y-53640436D01*
X59816819Y-53586045D01*
X59886045Y-53516819D01*
X59940436Y-53435418D01*
X59977901Y-53344970D01*
X59997000Y-53248950D01*
X59997000Y-53151050D01*
X59977901Y-53055030D01*
X59940436Y-52964582D01*
X59886045Y-52883181D01*
X59816819Y-52813955D01*
X59735418Y-52759564D01*
X59644970Y-52722099D01*
X59548950Y-52703000D01*
X59451050Y-52703000D01*
X59355030Y-52722099D01*
X59264582Y-52759564D01*
X59183181Y-52813955D01*
X59113955Y-52883181D01*
X59085344Y-52926000D01*
X47214656Y-52926000D01*
X47186045Y-52883181D01*
X47116819Y-52813955D01*
X47035418Y-52759564D01*
X46944970Y-52722099D01*
X46848950Y-52703000D01*
X46751050Y-52703000D01*
X46655030Y-52722099D01*
X46564582Y-52759564D01*
X46483181Y-52813955D01*
X46413955Y-52883181D01*
X46359564Y-52964582D01*
X46322099Y-53055030D01*
X46303000Y-53151050D01*
X24238062Y-53151050D01*
X24131052Y-53088025D01*
X23963371Y-53029479D01*
X23823000Y-53064691D01*
X23677000Y-53064691D01*
X23536629Y-53029479D01*
X23368948Y-53088025D01*
X23215910Y-53178159D01*
X23083397Y-53296417D01*
X22976501Y-53438255D01*
X22899331Y-53598222D01*
X22869484Y-53696630D01*
X20202000Y-53696630D01*
X20202000Y-51235000D01*
X22877047Y-51235000D01*
X22877047Y-52585000D01*
X22880851Y-52623619D01*
X22892115Y-52660753D01*
X22910408Y-52694977D01*
X22935026Y-52724974D01*
X22965023Y-52749592D01*
X22999247Y-52767885D01*
X23036381Y-52779149D01*
X23075000Y-52782953D01*
X24425000Y-52782953D01*
X24463619Y-52779149D01*
X24500753Y-52767885D01*
X24534977Y-52749592D01*
X24564974Y-52724974D01*
X24589592Y-52694977D01*
X24607885Y-52660753D01*
X24619149Y-52623619D01*
X24622953Y-52585000D01*
X24622953Y-51235000D01*
X24619149Y-51196381D01*
X24607885Y-51159247D01*
X24589592Y-51125023D01*
X24564974Y-51095026D01*
X24534977Y-51070408D01*
X24500753Y-51052115D01*
X24463619Y-51040851D01*
X24425000Y-51037047D01*
X23075000Y-51037047D01*
X23036381Y-51040851D01*
X22999247Y-51052115D01*
X22965023Y-51070408D01*
X22935026Y-51095026D01*
X22910408Y-51125023D01*
X22892115Y-51159247D01*
X22880851Y-51196381D01*
X22877047Y-51235000D01*
X20202000Y-51235000D01*
X20202000Y-45000000D01*
X21577716Y-45000000D01*
X21662150Y-45884236D01*
X21912401Y-46736513D01*
X22319425Y-47526027D01*
X22868509Y-48224245D01*
X23539809Y-48805930D01*
X24309063Y-49250059D01*
X25148467Y-49540580D01*
X26027684Y-49666992D01*
X26914935Y-49624727D01*
X27778154Y-49415312D01*
X28586142Y-49046317D01*
X29309695Y-48531077D01*
X29922663Y-47888214D01*
X30402892Y-47140964D01*
X30676089Y-46458550D01*
X54215500Y-46458550D01*
X54215500Y-46556450D01*
X54234599Y-46652470D01*
X54272064Y-46742918D01*
X54326455Y-46824319D01*
X54395681Y-46893545D01*
X54401600Y-46897500D01*
X54395681Y-46901455D01*
X54326455Y-46970681D01*
X54272064Y-47052082D01*
X54234599Y-47142530D01*
X54215500Y-47238550D01*
X54215500Y-47336450D01*
X54234599Y-47432470D01*
X54272064Y-47522918D01*
X54326455Y-47604319D01*
X54384636Y-47662500D01*
X54326455Y-47720681D01*
X54272064Y-47802082D01*
X54234599Y-47892530D01*
X54215500Y-47988550D01*
X54215500Y-48086450D01*
X54234599Y-48182470D01*
X54272064Y-48272918D01*
X54326455Y-48354319D01*
X54395681Y-48423545D01*
X54477082Y-48477936D01*
X54567530Y-48515401D01*
X54663550Y-48534500D01*
X54761450Y-48534500D01*
X54857470Y-48515401D01*
X54947918Y-48477936D01*
X55029319Y-48423545D01*
X55098545Y-48354319D01*
X55152936Y-48272918D01*
X55190401Y-48182470D01*
X55209500Y-48086450D01*
X55209500Y-47988550D01*
X55190401Y-47892530D01*
X55152936Y-47802082D01*
X55098545Y-47720681D01*
X55040364Y-47662500D01*
X55098545Y-47604319D01*
X55152936Y-47522918D01*
X55190401Y-47432470D01*
X55209500Y-47336450D01*
X55209500Y-47238550D01*
X55190401Y-47142530D01*
X55152936Y-47052082D01*
X55098545Y-46970681D01*
X55029319Y-46901455D01*
X55023400Y-46897500D01*
X55029319Y-46893545D01*
X55098545Y-46824319D01*
X55152936Y-46742918D01*
X55190401Y-46652470D01*
X55209500Y-46556450D01*
X55209500Y-46458550D01*
X55190401Y-46362530D01*
X55152936Y-46272082D01*
X55098545Y-46190681D01*
X55029319Y-46121455D01*
X54947918Y-46067064D01*
X54857470Y-46029599D01*
X54761450Y-46010500D01*
X54663550Y-46010500D01*
X54567530Y-46029599D01*
X54477082Y-46067064D01*
X54395681Y-46121455D01*
X54326455Y-46190681D01*
X54272064Y-46272082D01*
X54234599Y-46362530D01*
X54215500Y-46458550D01*
X30676089Y-46458550D01*
X30733024Y-46316335D01*
X30901128Y-45444129D01*
X30901128Y-44555871D01*
X30832742Y-44201050D01*
X33923000Y-44201050D01*
X33923000Y-44298950D01*
X33942099Y-44394970D01*
X33979564Y-44485418D01*
X34033955Y-44566819D01*
X34103181Y-44636045D01*
X34184582Y-44690436D01*
X34275030Y-44727901D01*
X34371050Y-44747000D01*
X34468950Y-44747000D01*
X34564970Y-44727901D01*
X34655418Y-44690436D01*
X34736819Y-44636045D01*
X34806045Y-44566819D01*
X34860436Y-44485418D01*
X34897901Y-44394970D01*
X34917000Y-44298950D01*
X34917000Y-44201050D01*
X34897901Y-44105030D01*
X34860436Y-44014582D01*
X34823524Y-43959340D01*
X34826045Y-43956819D01*
X34880436Y-43875418D01*
X34917901Y-43784970D01*
X34937000Y-43688950D01*
X34937000Y-43591050D01*
X34917901Y-43495030D01*
X34880436Y-43404582D01*
X34827260Y-43325000D01*
X34880436Y-43245418D01*
X34917901Y-43154970D01*
X34937000Y-43058950D01*
X34937000Y-42961050D01*
X34917901Y-42865030D01*
X34880436Y-42774582D01*
X34826045Y-42693181D01*
X34756819Y-42623955D01*
X34675418Y-42569564D01*
X34584970Y-42532099D01*
X34488950Y-42513000D01*
X34391050Y-42513000D01*
X34295030Y-42532099D01*
X34204582Y-42569564D01*
X34123181Y-42623955D01*
X34053955Y-42693181D01*
X33999564Y-42774582D01*
X33962099Y-42865030D01*
X33943000Y-42961050D01*
X33943000Y-43058950D01*
X33962099Y-43154970D01*
X33999564Y-43245418D01*
X34052740Y-43325000D01*
X33999564Y-43404582D01*
X33962099Y-43495030D01*
X33943000Y-43591050D01*
X33943000Y-43688950D01*
X33962099Y-43784970D01*
X33999564Y-43875418D01*
X34036476Y-43930660D01*
X34033955Y-43933181D01*
X33979564Y-44014582D01*
X33942099Y-44105030D01*
X33923000Y-44201050D01*
X30832742Y-44201050D01*
X30733024Y-43683665D01*
X30402892Y-42859036D01*
X29922663Y-42111786D01*
X29309695Y-41468923D01*
X28763600Y-41080050D01*
X45003000Y-41080050D01*
X45003000Y-41177950D01*
X45022099Y-41273970D01*
X45059564Y-41364418D01*
X45113955Y-41445819D01*
X45183181Y-41515045D01*
X45264582Y-41569436D01*
X45355030Y-41606901D01*
X45451050Y-41626000D01*
X45548950Y-41626000D01*
X45644970Y-41606901D01*
X45735418Y-41569436D01*
X45816819Y-41515045D01*
X45886045Y-41445819D01*
X45940436Y-41364418D01*
X45977901Y-41273970D01*
X45997000Y-41177950D01*
X45997000Y-41080050D01*
X45977901Y-40984030D01*
X45940436Y-40893582D01*
X45886045Y-40812181D01*
X45816819Y-40742955D01*
X45735418Y-40688564D01*
X45644970Y-40651099D01*
X45548950Y-40632000D01*
X45451050Y-40632000D01*
X45355030Y-40651099D01*
X45264582Y-40688564D01*
X45183181Y-40742955D01*
X45113955Y-40812181D01*
X45059564Y-40893582D01*
X45022099Y-40984030D01*
X45003000Y-41080050D01*
X28763600Y-41080050D01*
X28586142Y-40953683D01*
X27778154Y-40584688D01*
X26914935Y-40375273D01*
X26027684Y-40333008D01*
X25148467Y-40459420D01*
X24309063Y-40749941D01*
X23539809Y-41194070D01*
X22868509Y-41775755D01*
X22319425Y-42473973D01*
X21912401Y-43263487D01*
X21662150Y-44115764D01*
X21577716Y-45000000D01*
X20202000Y-45000000D01*
X20202000Y-40200000D01*
X46892668Y-40200000D01*
X46913945Y-40416030D01*
X46976959Y-40623758D01*
X47079287Y-40815201D01*
X47216998Y-40983002D01*
X47384799Y-41120713D01*
X47576242Y-41223041D01*
X47783970Y-41286055D01*
X47945863Y-41302000D01*
X48054137Y-41302000D01*
X48216030Y-41286055D01*
X48423758Y-41223041D01*
X48615201Y-41120713D01*
X48783002Y-40983002D01*
X48920713Y-40815201D01*
X49023041Y-40623758D01*
X49086055Y-40416030D01*
X49107332Y-40200000D01*
X49123781Y-40200000D01*
X49140617Y-40370942D01*
X49190479Y-40535314D01*
X49271451Y-40686801D01*
X49380420Y-40819580D01*
X49513199Y-40928549D01*
X49664686Y-41009521D01*
X49829058Y-41059383D01*
X49957163Y-41072000D01*
X50042837Y-41072000D01*
X50170942Y-41059383D01*
X50335314Y-41009521D01*
X50486801Y-40928549D01*
X50619580Y-40819580D01*
X50728549Y-40686801D01*
X50809521Y-40535314D01*
X50859383Y-40370942D01*
X50876219Y-40200000D01*
X51123781Y-40200000D01*
X51140617Y-40370942D01*
X51190479Y-40535314D01*
X51271451Y-40686801D01*
X51380420Y-40819580D01*
X51513199Y-40928549D01*
X51664686Y-41009521D01*
X51829058Y-41059383D01*
X51957163Y-41072000D01*
X52042837Y-41072000D01*
X52170942Y-41059383D01*
X52335314Y-41009521D01*
X52486801Y-40928549D01*
X52619580Y-40819580D01*
X52728549Y-40686801D01*
X52809521Y-40535314D01*
X52859383Y-40370942D01*
X52876219Y-40200000D01*
X53123781Y-40200000D01*
X53140617Y-40370942D01*
X53190479Y-40535314D01*
X53271451Y-40686801D01*
X53380420Y-40819580D01*
X53513199Y-40928549D01*
X53664686Y-41009521D01*
X53829058Y-41059383D01*
X53957163Y-41072000D01*
X54042837Y-41072000D01*
X54170942Y-41059383D01*
X54335314Y-41009521D01*
X54486801Y-40928549D01*
X54619580Y-40819580D01*
X54728549Y-40686801D01*
X54809521Y-40535314D01*
X54859383Y-40370942D01*
X54876219Y-40200000D01*
X55123781Y-40200000D01*
X55140617Y-40370942D01*
X55190479Y-40535314D01*
X55271451Y-40686801D01*
X55380420Y-40819580D01*
X55513199Y-40928549D01*
X55664686Y-41009521D01*
X55829058Y-41059383D01*
X55957163Y-41072000D01*
X56042837Y-41072000D01*
X56170942Y-41059383D01*
X56335314Y-41009521D01*
X56486801Y-40928549D01*
X56619580Y-40819580D01*
X56728549Y-40686801D01*
X56809521Y-40535314D01*
X56859383Y-40370942D01*
X56876219Y-40200000D01*
X56859383Y-40029058D01*
X56809521Y-39864686D01*
X56728549Y-39713199D01*
X56619580Y-39580420D01*
X56486801Y-39471451D01*
X56335314Y-39390479D01*
X56170942Y-39340617D01*
X56042837Y-39328000D01*
X55957163Y-39328000D01*
X55829058Y-39340617D01*
X55664686Y-39390479D01*
X55513199Y-39471451D01*
X55380420Y-39580420D01*
X55271451Y-39713199D01*
X55190479Y-39864686D01*
X55140617Y-40029058D01*
X55123781Y-40200000D01*
X54876219Y-40200000D01*
X54859383Y-40029058D01*
X54809521Y-39864686D01*
X54728549Y-39713199D01*
X54619580Y-39580420D01*
X54486801Y-39471451D01*
X54335314Y-39390479D01*
X54170942Y-39340617D01*
X54042837Y-39328000D01*
X53957163Y-39328000D01*
X53829058Y-39340617D01*
X53664686Y-39390479D01*
X53513199Y-39471451D01*
X53380420Y-39580420D01*
X53271451Y-39713199D01*
X53190479Y-39864686D01*
X53140617Y-40029058D01*
X53123781Y-40200000D01*
X52876219Y-40200000D01*
X52859383Y-40029058D01*
X52809521Y-39864686D01*
X52728549Y-39713199D01*
X52619580Y-39580420D01*
X52486801Y-39471451D01*
X52335314Y-39390479D01*
X52170942Y-39340617D01*
X52042837Y-39328000D01*
X51957163Y-39328000D01*
X51829058Y-39340617D01*
X51664686Y-39390479D01*
X51513199Y-39471451D01*
X51380420Y-39580420D01*
X51271451Y-39713199D01*
X51190479Y-39864686D01*
X51140617Y-40029058D01*
X51123781Y-40200000D01*
X50876219Y-40200000D01*
X50859383Y-40029058D01*
X50809521Y-39864686D01*
X50728549Y-39713199D01*
X50619580Y-39580420D01*
X50486801Y-39471451D01*
X50335314Y-39390479D01*
X50170942Y-39340617D01*
X50042837Y-39328000D01*
X49957163Y-39328000D01*
X49829058Y-39340617D01*
X49664686Y-39390479D01*
X49513199Y-39471451D01*
X49380420Y-39580420D01*
X49271451Y-39713199D01*
X49190479Y-39864686D01*
X49140617Y-40029058D01*
X49123781Y-40200000D01*
X49107332Y-40200000D01*
X49086055Y-39983970D01*
X49023041Y-39776242D01*
X48920713Y-39584799D01*
X48783002Y-39416998D01*
X48615201Y-39279287D01*
X48423758Y-39176959D01*
X48216030Y-39113945D01*
X48054137Y-39098000D01*
X47945863Y-39098000D01*
X47783970Y-39113945D01*
X47576242Y-39176959D01*
X47384799Y-39279287D01*
X47216998Y-39416998D01*
X47079287Y-39584799D01*
X46976959Y-39776242D01*
X46913945Y-39983970D01*
X46892668Y-40200000D01*
X20202000Y-40200000D01*
X20202000Y-39101050D01*
X39803000Y-39101050D01*
X39803000Y-39198950D01*
X39822099Y-39294970D01*
X39859564Y-39385418D01*
X39913955Y-39466819D01*
X39983181Y-39536045D01*
X40064582Y-39590436D01*
X40155030Y-39627901D01*
X40251050Y-39647000D01*
X40348950Y-39647000D01*
X40444970Y-39627901D01*
X40535418Y-39590436D01*
X40616819Y-39536045D01*
X40625000Y-39527864D01*
X40633181Y-39536045D01*
X40714582Y-39590436D01*
X40805030Y-39627901D01*
X40901050Y-39647000D01*
X40998950Y-39647000D01*
X41094970Y-39627901D01*
X41185418Y-39590436D01*
X41266819Y-39536045D01*
X41275000Y-39527864D01*
X41283181Y-39536045D01*
X41364582Y-39590436D01*
X41455030Y-39627901D01*
X41551050Y-39647000D01*
X41648950Y-39647000D01*
X41744970Y-39627901D01*
X41835418Y-39590436D01*
X41916819Y-39536045D01*
X41986045Y-39466819D01*
X42040436Y-39385418D01*
X42077901Y-39294970D01*
X42097000Y-39198950D01*
X42097000Y-39101050D01*
X42077901Y-39005030D01*
X42040436Y-38914582D01*
X41986045Y-38833181D01*
X41916819Y-38763955D01*
X41897506Y-38751050D01*
X46403000Y-38751050D01*
X46403000Y-38848950D01*
X46422099Y-38944970D01*
X46459564Y-39035418D01*
X46513955Y-39116819D01*
X46583181Y-39186045D01*
X46664582Y-39240436D01*
X46755030Y-39277901D01*
X46851050Y-39297000D01*
X46948950Y-39297000D01*
X47044970Y-39277901D01*
X47135418Y-39240436D01*
X47216819Y-39186045D01*
X47286045Y-39116819D01*
X47334034Y-39044999D01*
X57103000Y-39044999D01*
X57103000Y-39119948D01*
X57122099Y-39215968D01*
X57159564Y-39306416D01*
X57202505Y-39370681D01*
X57185026Y-39385026D01*
X57160408Y-39415023D01*
X57142115Y-39449247D01*
X57130851Y-39486381D01*
X57127047Y-39525000D01*
X57127047Y-40875000D01*
X57130851Y-40913619D01*
X57142115Y-40950753D01*
X57160408Y-40984977D01*
X57185026Y-41014974D01*
X57215023Y-41039592D01*
X57249247Y-41057885D01*
X57286381Y-41069149D01*
X57325000Y-41072953D01*
X58675000Y-41072953D01*
X58713619Y-41069149D01*
X58750753Y-41057885D01*
X58784977Y-41039592D01*
X58814974Y-41014974D01*
X58839592Y-40984977D01*
X58857885Y-40950753D01*
X58869149Y-40913619D01*
X58872953Y-40875000D01*
X58872953Y-39525000D01*
X58869149Y-39486381D01*
X58857885Y-39449247D01*
X58839592Y-39415023D01*
X58814974Y-39385026D01*
X58784977Y-39360408D01*
X58750753Y-39342115D01*
X58713619Y-39330851D01*
X58675000Y-39327047D01*
X58026651Y-39327047D01*
X58040436Y-39306416D01*
X58077901Y-39215968D01*
X58097000Y-39119948D01*
X58097000Y-39022048D01*
X58077901Y-38926028D01*
X58040436Y-38835580D01*
X57986045Y-38754179D01*
X57916819Y-38684953D01*
X57835418Y-38630562D01*
X57744970Y-38593097D01*
X57648950Y-38573998D01*
X57551050Y-38573998D01*
X57500960Y-38583961D01*
X57494685Y-38576315D01*
X57452963Y-38542075D01*
X57405363Y-38516632D01*
X57353714Y-38500964D01*
X57313455Y-38496999D01*
X57313444Y-38496999D01*
X57300001Y-38495675D01*
X57286558Y-38496999D01*
X47295278Y-38496999D01*
X47286045Y-38483181D01*
X47216819Y-38413955D01*
X47135418Y-38359564D01*
X47044970Y-38322099D01*
X46948950Y-38303000D01*
X46851050Y-38303000D01*
X46755030Y-38322099D01*
X46664582Y-38359564D01*
X46583181Y-38413955D01*
X46513955Y-38483181D01*
X46459564Y-38564582D01*
X46422099Y-38655030D01*
X46403000Y-38751050D01*
X41897506Y-38751050D01*
X41835418Y-38709564D01*
X41779597Y-38686442D01*
X41797000Y-38598950D01*
X41797000Y-38501050D01*
X41777901Y-38405030D01*
X41740436Y-38314582D01*
X41686045Y-38233181D01*
X41616819Y-38163955D01*
X41535418Y-38109564D01*
X41444970Y-38072099D01*
X41348950Y-38053000D01*
X41251050Y-38053000D01*
X41155030Y-38072099D01*
X41064582Y-38109564D01*
X40983181Y-38163955D01*
X40950000Y-38197136D01*
X40916819Y-38163955D01*
X40835418Y-38109564D01*
X40744970Y-38072099D01*
X40648950Y-38053000D01*
X40551050Y-38053000D01*
X40455030Y-38072099D01*
X40364582Y-38109564D01*
X40283181Y-38163955D01*
X40213955Y-38233181D01*
X40159564Y-38314582D01*
X40122099Y-38405030D01*
X40103000Y-38501050D01*
X40103000Y-38598950D01*
X40120403Y-38686442D01*
X40064582Y-38709564D01*
X39983181Y-38763955D01*
X39913955Y-38833181D01*
X39859564Y-38914582D01*
X39822099Y-39005030D01*
X39803000Y-39101050D01*
X20202000Y-39101050D01*
X20202000Y-36408691D01*
X56872919Y-36408691D01*
X56872919Y-36506591D01*
X56892018Y-36602611D01*
X56929483Y-36693059D01*
X56983874Y-36774460D01*
X57053100Y-36843686D01*
X57095919Y-36872297D01*
X57095919Y-37256476D01*
X57094595Y-37269919D01*
X57095919Y-37283362D01*
X57095919Y-37283372D01*
X57099884Y-37323631D01*
X57115552Y-37375280D01*
X57140995Y-37422881D01*
X57175235Y-37464603D01*
X57185691Y-37473184D01*
X58013047Y-38300540D01*
X58003000Y-38351050D01*
X58003000Y-38448950D01*
X58022099Y-38544970D01*
X58059564Y-38635418D01*
X58113955Y-38716819D01*
X58183181Y-38786045D01*
X58264582Y-38840436D01*
X58355030Y-38877901D01*
X58451050Y-38897000D01*
X58548950Y-38897000D01*
X58644970Y-38877901D01*
X58735418Y-38840436D01*
X58816819Y-38786045D01*
X58886045Y-38716819D01*
X58940436Y-38635418D01*
X58977901Y-38544970D01*
X58997000Y-38448950D01*
X58997000Y-38351050D01*
X58977901Y-38255030D01*
X58940436Y-38164582D01*
X58886045Y-38083181D01*
X58816819Y-38013955D01*
X58735418Y-37959564D01*
X58644970Y-37922099D01*
X58548950Y-37903000D01*
X58451050Y-37903000D01*
X58400540Y-37913047D01*
X57738543Y-37251050D01*
X58103012Y-37251050D01*
X58103012Y-37348950D01*
X58122111Y-37444970D01*
X58159576Y-37535418D01*
X58213967Y-37616819D01*
X58283193Y-37686045D01*
X58364594Y-37740436D01*
X58455042Y-37777901D01*
X58551062Y-37797000D01*
X58648962Y-37797000D01*
X58744982Y-37777901D01*
X58835430Y-37740436D01*
X58916831Y-37686045D01*
X58986057Y-37616819D01*
X59040448Y-37535418D01*
X59077913Y-37444970D01*
X59097012Y-37348950D01*
X59097012Y-37251050D01*
X59077913Y-37155030D01*
X59040448Y-37064582D01*
X58986057Y-36983181D01*
X58916831Y-36913955D01*
X58835430Y-36859564D01*
X58744982Y-36822099D01*
X58648962Y-36803000D01*
X58551062Y-36803000D01*
X58455042Y-36822099D01*
X58364594Y-36859564D01*
X58283193Y-36913955D01*
X58213967Y-36983181D01*
X58159576Y-37064582D01*
X58122111Y-37155030D01*
X58103012Y-37251050D01*
X57738543Y-37251050D01*
X57643919Y-37156426D01*
X57643919Y-36872297D01*
X57686738Y-36843686D01*
X57755964Y-36774460D01*
X57810355Y-36693059D01*
X57847820Y-36602611D01*
X57866919Y-36506591D01*
X57866919Y-36408691D01*
X57847820Y-36312671D01*
X57810355Y-36222223D01*
X57755964Y-36140822D01*
X57686738Y-36071596D01*
X57605337Y-36017205D01*
X57514889Y-35979740D01*
X57418869Y-35960641D01*
X57320969Y-35960641D01*
X57224949Y-35979740D01*
X57134501Y-36017205D01*
X57053100Y-36071596D01*
X56983874Y-36140822D01*
X56929483Y-36222223D01*
X56892018Y-36312671D01*
X56872919Y-36408691D01*
X20202000Y-36408691D01*
X20202000Y-34001050D01*
X41503000Y-34001050D01*
X41503000Y-34098950D01*
X41522099Y-34194970D01*
X41559564Y-34285418D01*
X41613955Y-34366819D01*
X41683181Y-34436045D01*
X41764582Y-34490436D01*
X41855030Y-34527901D01*
X41951050Y-34547000D01*
X42048950Y-34547000D01*
X42144970Y-34527901D01*
X42235418Y-34490436D01*
X42316819Y-34436045D01*
X42386045Y-34366819D01*
X42414656Y-34324000D01*
X42762857Y-34324000D01*
X42767587Y-34335418D01*
X42821978Y-34416819D01*
X42891204Y-34486045D01*
X42972605Y-34540436D01*
X43063053Y-34577901D01*
X43159073Y-34597000D01*
X43256973Y-34597000D01*
X43352993Y-34577901D01*
X43443441Y-34540436D01*
X43524842Y-34486045D01*
X43594068Y-34416819D01*
X43648459Y-34335418D01*
X43685924Y-34244970D01*
X43705023Y-34148950D01*
X43705023Y-34051050D01*
X43685924Y-33955030D01*
X43648459Y-33864582D01*
X43594068Y-33783181D01*
X43524842Y-33713955D01*
X43443441Y-33659564D01*
X43352993Y-33622099D01*
X43256973Y-33603000D01*
X43159073Y-33603000D01*
X43063053Y-33622099D01*
X42972605Y-33659564D01*
X42891204Y-33713955D01*
X42829159Y-33776000D01*
X42414656Y-33776000D01*
X42386045Y-33733181D01*
X42316819Y-33663955D01*
X42235418Y-33609564D01*
X42144970Y-33572099D01*
X42048950Y-33553000D01*
X41951050Y-33553000D01*
X41855030Y-33572099D01*
X41764582Y-33609564D01*
X41683181Y-33663955D01*
X41613955Y-33733181D01*
X41559564Y-33814582D01*
X41522099Y-33905030D01*
X41503000Y-34001050D01*
X20202000Y-34001050D01*
X20202000Y-30751050D01*
X31153000Y-30751050D01*
X31153000Y-30848950D01*
X31172099Y-30944970D01*
X31209564Y-31035418D01*
X31263955Y-31116819D01*
X31333181Y-31186045D01*
X31414582Y-31240436D01*
X31505030Y-31277901D01*
X31601050Y-31297000D01*
X31698950Y-31297000D01*
X31794970Y-31277901D01*
X31885418Y-31240436D01*
X31966819Y-31186045D01*
X32036045Y-31116819D01*
X32090436Y-31035418D01*
X32127901Y-30944970D01*
X32147000Y-30848950D01*
X32147000Y-30751050D01*
X32127901Y-30655030D01*
X32090436Y-30564582D01*
X32036045Y-30483181D01*
X31966819Y-30413955D01*
X31885418Y-30359564D01*
X31794970Y-30322099D01*
X31698950Y-30303000D01*
X31601050Y-30303000D01*
X31505030Y-30322099D01*
X31414582Y-30359564D01*
X31333181Y-30413955D01*
X31263955Y-30483181D01*
X31209564Y-30564582D01*
X31172099Y-30655030D01*
X31153000Y-30751050D01*
X20202000Y-30751050D01*
X20202000Y-25151050D01*
X30603000Y-25151050D01*
X30603000Y-25248950D01*
X30622099Y-25344970D01*
X30659564Y-25435418D01*
X30713955Y-25516819D01*
X30783181Y-25586045D01*
X30864582Y-25640436D01*
X30955030Y-25677901D01*
X31051050Y-25697000D01*
X31148950Y-25697000D01*
X31244970Y-25677901D01*
X31335418Y-25640436D01*
X31416819Y-25586045D01*
X31486045Y-25516819D01*
X31540436Y-25435418D01*
X31577901Y-25344970D01*
X31597000Y-25248950D01*
X31597000Y-25151050D01*
X31586953Y-25100540D01*
X32863495Y-23824000D01*
X38488506Y-23824000D01*
X33115767Y-29196740D01*
X33105317Y-29205316D01*
X33096741Y-29215766D01*
X33096740Y-29215767D01*
X33071076Y-29247038D01*
X33045634Y-29294638D01*
X33029966Y-29346287D01*
X33024676Y-29400000D01*
X33026001Y-29413454D01*
X33026000Y-32585344D01*
X32983181Y-32613955D01*
X32913955Y-32683181D01*
X32859564Y-32764582D01*
X32822099Y-32855030D01*
X32803000Y-32951050D01*
X32803000Y-33048950D01*
X32822099Y-33144970D01*
X32859564Y-33235418D01*
X32913955Y-33316819D01*
X32983181Y-33386045D01*
X33064582Y-33440436D01*
X33155030Y-33477901D01*
X33251050Y-33497000D01*
X33348950Y-33497000D01*
X33444970Y-33477901D01*
X33535418Y-33440436D01*
X33616819Y-33386045D01*
X33686045Y-33316819D01*
X33740436Y-33235418D01*
X33777901Y-33144970D01*
X33797000Y-33048950D01*
X33797000Y-32951050D01*
X33777901Y-32855030D01*
X33740436Y-32764582D01*
X33686045Y-32683181D01*
X33616819Y-32613955D01*
X33574000Y-32585344D01*
X33574000Y-29513493D01*
X38955483Y-24132011D01*
X39780495Y-24132011D01*
X36015772Y-27896735D01*
X36005316Y-27905316D01*
X35971076Y-27947038D01*
X35945633Y-27994639D01*
X35929965Y-28046288D01*
X35926000Y-28086547D01*
X35926000Y-28086557D01*
X35924676Y-28100000D01*
X35926000Y-28113444D01*
X35926001Y-32562273D01*
X35926000Y-32562283D01*
X35926000Y-32585344D01*
X35883181Y-32613955D01*
X35813955Y-32683181D01*
X35759564Y-32764582D01*
X35722099Y-32855030D01*
X35703000Y-32951050D01*
X35703000Y-33048950D01*
X35722099Y-33144970D01*
X35759564Y-33235418D01*
X35813955Y-33316819D01*
X35883181Y-33386045D01*
X35964582Y-33440436D01*
X36055030Y-33477901D01*
X36151050Y-33497000D01*
X36248950Y-33497000D01*
X36344970Y-33477901D01*
X36435418Y-33440436D01*
X36516819Y-33386045D01*
X36586045Y-33316819D01*
X36640436Y-33235418D01*
X36677901Y-33144970D01*
X36697000Y-33048950D01*
X36697000Y-32951050D01*
X36677901Y-32855030D01*
X36640436Y-32764582D01*
X36586045Y-32683181D01*
X36516819Y-32613955D01*
X36474000Y-32585344D01*
X36474000Y-28213493D01*
X40221505Y-24465989D01*
X40646517Y-24465989D01*
X38899022Y-26213485D01*
X38888572Y-26222061D01*
X38879996Y-26232511D01*
X38879995Y-26232512D01*
X38854331Y-26263783D01*
X38828889Y-26311383D01*
X38813221Y-26363032D01*
X38807931Y-26416745D01*
X38809256Y-26430199D01*
X38809255Y-32568599D01*
X38766436Y-32597210D01*
X38697210Y-32666436D01*
X38642819Y-32747837D01*
X38605354Y-32838285D01*
X38586255Y-32934305D01*
X38586255Y-33032205D01*
X38605354Y-33128225D01*
X38642819Y-33218673D01*
X38697210Y-33300074D01*
X38766436Y-33369300D01*
X38847837Y-33423691D01*
X38938285Y-33461156D01*
X39034305Y-33480255D01*
X39132205Y-33480255D01*
X39228225Y-33461156D01*
X39318673Y-33423691D01*
X39400074Y-33369300D01*
X39469300Y-33300074D01*
X39523691Y-33218673D01*
X39561156Y-33128225D01*
X39580255Y-33032205D01*
X39580255Y-32934305D01*
X39561156Y-32838285D01*
X39523691Y-32747837D01*
X39497440Y-32708550D01*
X54115500Y-32708550D01*
X54115500Y-32806450D01*
X54134599Y-32902470D01*
X54172064Y-32992918D01*
X54226455Y-33074319D01*
X54274636Y-33122500D01*
X54226455Y-33170681D01*
X54172064Y-33252082D01*
X54134599Y-33342530D01*
X54115500Y-33438550D01*
X54115500Y-33536450D01*
X54134599Y-33632470D01*
X54172064Y-33722918D01*
X54226455Y-33804319D01*
X54284636Y-33862500D01*
X54226455Y-33920681D01*
X54172064Y-34002082D01*
X54134599Y-34092530D01*
X54115500Y-34188550D01*
X54115500Y-34286450D01*
X54134599Y-34382470D01*
X54172064Y-34472918D01*
X54226455Y-34554319D01*
X54295681Y-34623545D01*
X54377082Y-34677936D01*
X54467530Y-34715401D01*
X54563550Y-34734500D01*
X54661450Y-34734500D01*
X54757470Y-34715401D01*
X54847918Y-34677936D01*
X54929319Y-34623545D01*
X54998545Y-34554319D01*
X55052936Y-34472918D01*
X55090401Y-34382470D01*
X55109500Y-34286450D01*
X55109500Y-34188550D01*
X55092096Y-34101050D01*
X58953000Y-34101050D01*
X58953000Y-34198950D01*
X58972099Y-34294970D01*
X59009564Y-34385418D01*
X59063955Y-34466819D01*
X59133181Y-34536045D01*
X59214582Y-34590436D01*
X59305030Y-34627901D01*
X59401050Y-34647000D01*
X59498950Y-34647000D01*
X59594970Y-34627901D01*
X59685418Y-34590436D01*
X59766819Y-34536045D01*
X59836045Y-34466819D01*
X59864656Y-34424000D01*
X61236557Y-34424000D01*
X61250000Y-34425324D01*
X61263443Y-34424000D01*
X61263454Y-34424000D01*
X61303713Y-34420035D01*
X61355362Y-34404367D01*
X61402962Y-34378924D01*
X61444684Y-34344684D01*
X61453265Y-34334228D01*
X66084234Y-29703260D01*
X66094684Y-29694684D01*
X66120473Y-29663260D01*
X66128924Y-29652963D01*
X66142523Y-29627520D01*
X66154367Y-29605362D01*
X66170035Y-29553713D01*
X66174000Y-29513454D01*
X66174000Y-29513444D01*
X66175324Y-29500001D01*
X66174000Y-29486557D01*
X66174000Y-29064656D01*
X66216819Y-29036045D01*
X66286045Y-28966819D01*
X66340436Y-28885418D01*
X66377901Y-28794970D01*
X66397000Y-28698950D01*
X66397000Y-28601050D01*
X66377901Y-28505030D01*
X66340436Y-28414582D01*
X66286045Y-28333181D01*
X66216819Y-28263955D01*
X66135418Y-28209564D01*
X66044970Y-28172099D01*
X65948950Y-28153000D01*
X65851050Y-28153000D01*
X65755030Y-28172099D01*
X65664582Y-28209564D01*
X65583181Y-28263955D01*
X65513955Y-28333181D01*
X65459564Y-28414582D01*
X65422099Y-28505030D01*
X65403000Y-28601050D01*
X65403000Y-28698950D01*
X65422099Y-28794970D01*
X65459564Y-28885418D01*
X65513955Y-28966819D01*
X65583181Y-29036045D01*
X65626000Y-29064656D01*
X65626001Y-29386505D01*
X61136507Y-33876000D01*
X59864656Y-33876000D01*
X59836045Y-33833181D01*
X59766819Y-33763955D01*
X59685418Y-33709564D01*
X59594970Y-33672099D01*
X59498950Y-33653000D01*
X59401050Y-33653000D01*
X59305030Y-33672099D01*
X59214582Y-33709564D01*
X59133181Y-33763955D01*
X59063955Y-33833181D01*
X59009564Y-33914582D01*
X58972099Y-34005030D01*
X58953000Y-34101050D01*
X55092096Y-34101050D01*
X55090401Y-34092530D01*
X55052936Y-34002082D01*
X54998545Y-33920681D01*
X54940364Y-33862500D01*
X54998545Y-33804319D01*
X55052936Y-33722918D01*
X55090401Y-33632470D01*
X55109500Y-33536450D01*
X55109500Y-33438550D01*
X55090401Y-33342530D01*
X55052936Y-33252082D01*
X54998545Y-33170681D01*
X54950364Y-33122500D01*
X54998545Y-33074319D01*
X55052936Y-32992918D01*
X55090401Y-32902470D01*
X55109500Y-32806450D01*
X55109500Y-32708550D01*
X55090401Y-32612530D01*
X55052936Y-32522082D01*
X54998545Y-32440681D01*
X54929319Y-32371455D01*
X54847918Y-32317064D01*
X54757470Y-32279599D01*
X54661450Y-32260500D01*
X54563550Y-32260500D01*
X54467530Y-32279599D01*
X54377082Y-32317064D01*
X54295681Y-32371455D01*
X54226455Y-32440681D01*
X54172064Y-32522082D01*
X54134599Y-32612530D01*
X54115500Y-32708550D01*
X39497440Y-32708550D01*
X39469300Y-32666436D01*
X39400074Y-32597210D01*
X39357255Y-32568599D01*
X39357255Y-29411050D01*
X44913000Y-29411050D01*
X44913000Y-29508950D01*
X44932099Y-29604970D01*
X44969564Y-29695418D01*
X45023955Y-29776819D01*
X45093181Y-29846045D01*
X45174582Y-29900436D01*
X45265030Y-29937901D01*
X45361050Y-29957000D01*
X45458950Y-29957000D01*
X45554970Y-29937901D01*
X45645418Y-29900436D01*
X45726819Y-29846045D01*
X45796045Y-29776819D01*
X45850436Y-29695418D01*
X45887901Y-29604970D01*
X45907000Y-29508950D01*
X45907000Y-29411050D01*
X45899631Y-29374000D01*
X48885344Y-29374000D01*
X48913955Y-29416819D01*
X48983181Y-29486045D01*
X49064582Y-29540436D01*
X49155030Y-29577901D01*
X49251050Y-29597000D01*
X49348950Y-29597000D01*
X49444970Y-29577901D01*
X49535418Y-29540436D01*
X49616819Y-29486045D01*
X49686045Y-29416819D01*
X49740436Y-29335418D01*
X49777901Y-29244970D01*
X49797000Y-29148950D01*
X49797000Y-29051050D01*
X49777901Y-28955030D01*
X49740436Y-28864582D01*
X49686045Y-28783181D01*
X49616819Y-28713955D01*
X49535418Y-28659564D01*
X49444970Y-28622099D01*
X49348950Y-28603000D01*
X49251050Y-28603000D01*
X49155030Y-28622099D01*
X49064582Y-28659564D01*
X48983181Y-28713955D01*
X48913955Y-28783181D01*
X48885344Y-28826000D01*
X45783443Y-28826000D01*
X45769999Y-28824676D01*
X45756556Y-28826000D01*
X45756546Y-28826000D01*
X45716287Y-28829965D01*
X45664638Y-28845633D01*
X45617038Y-28871076D01*
X45575316Y-28905316D01*
X45566739Y-28915767D01*
X45525769Y-28956738D01*
X45525765Y-28956741D01*
X45509459Y-28973047D01*
X45458950Y-28963000D01*
X45361050Y-28963000D01*
X45265030Y-28982099D01*
X45174582Y-29019564D01*
X45093181Y-29073955D01*
X45023955Y-29143181D01*
X44969564Y-29224582D01*
X44932099Y-29315030D01*
X44913000Y-29411050D01*
X39357255Y-29411050D01*
X39357255Y-28201050D01*
X41303000Y-28201050D01*
X41303000Y-28298950D01*
X41322099Y-28394970D01*
X41359564Y-28485418D01*
X41413955Y-28566819D01*
X41483181Y-28636045D01*
X41564582Y-28690436D01*
X41655030Y-28727901D01*
X41751050Y-28747000D01*
X41848950Y-28747000D01*
X41944970Y-28727901D01*
X42035418Y-28690436D01*
X42116819Y-28636045D01*
X42186045Y-28566819D01*
X42240436Y-28485418D01*
X42277901Y-28394970D01*
X42297000Y-28298950D01*
X42297000Y-28201050D01*
X42277901Y-28105030D01*
X42240436Y-28014582D01*
X42186045Y-27933181D01*
X42116819Y-27863955D01*
X42035418Y-27809564D01*
X41944970Y-27772099D01*
X41848950Y-27753000D01*
X41751050Y-27753000D01*
X41655030Y-27772099D01*
X41564582Y-27809564D01*
X41483181Y-27863955D01*
X41413955Y-27933181D01*
X41359564Y-28014582D01*
X41322099Y-28105030D01*
X41303000Y-28201050D01*
X39357255Y-28201050D01*
X39357255Y-26530238D01*
X39607493Y-26280000D01*
X46892668Y-26280000D01*
X46913945Y-26496030D01*
X46976959Y-26703758D01*
X47079287Y-26895201D01*
X47216998Y-27063002D01*
X47384799Y-27200713D01*
X47576242Y-27303041D01*
X47783970Y-27366055D01*
X47945863Y-27382000D01*
X48054137Y-27382000D01*
X48216030Y-27366055D01*
X48423758Y-27303041D01*
X48615201Y-27200713D01*
X48783002Y-27063002D01*
X48920713Y-26895201D01*
X49023041Y-26703758D01*
X49086055Y-26496030D01*
X49107332Y-26280000D01*
X49123781Y-26280000D01*
X49140617Y-26450942D01*
X49190479Y-26615314D01*
X49271451Y-26766801D01*
X49380420Y-26899580D01*
X49513199Y-27008549D01*
X49664686Y-27089521D01*
X49829058Y-27139383D01*
X49957163Y-27152000D01*
X50042837Y-27152000D01*
X50170942Y-27139383D01*
X50335314Y-27089521D01*
X50486801Y-27008549D01*
X50619580Y-26899580D01*
X50728549Y-26766801D01*
X50809521Y-26615314D01*
X50859383Y-26450942D01*
X50876219Y-26280000D01*
X51123781Y-26280000D01*
X51140617Y-26450942D01*
X51190479Y-26615314D01*
X51271451Y-26766801D01*
X51380420Y-26899580D01*
X51513199Y-27008549D01*
X51664686Y-27089521D01*
X51829058Y-27139383D01*
X51957163Y-27152000D01*
X52042837Y-27152000D01*
X52170942Y-27139383D01*
X52335314Y-27089521D01*
X52486801Y-27008549D01*
X52619580Y-26899580D01*
X52728549Y-26766801D01*
X52809521Y-26615314D01*
X52859383Y-26450942D01*
X52876219Y-26280000D01*
X53123781Y-26280000D01*
X53140617Y-26450942D01*
X53190479Y-26615314D01*
X53271451Y-26766801D01*
X53380420Y-26899580D01*
X53513199Y-27008549D01*
X53664686Y-27089521D01*
X53829058Y-27139383D01*
X53957163Y-27152000D01*
X54042837Y-27152000D01*
X54170942Y-27139383D01*
X54335314Y-27089521D01*
X54486801Y-27008549D01*
X54619580Y-26899580D01*
X54728549Y-26766801D01*
X54809521Y-26615314D01*
X54859383Y-26450942D01*
X54876219Y-26280000D01*
X55123781Y-26280000D01*
X55140617Y-26450942D01*
X55190479Y-26615314D01*
X55271451Y-26766801D01*
X55380420Y-26899580D01*
X55513199Y-27008549D01*
X55664686Y-27089521D01*
X55829058Y-27139383D01*
X55957163Y-27152000D01*
X56042837Y-27152000D01*
X56170942Y-27139383D01*
X56335314Y-27089521D01*
X56486801Y-27008549D01*
X56619580Y-26899580D01*
X56728549Y-26766801D01*
X56809521Y-26615314D01*
X56859383Y-26450942D01*
X56876219Y-26280000D01*
X56859383Y-26109058D01*
X56809521Y-25944686D01*
X56728549Y-25793199D01*
X56619580Y-25660420D01*
X56486801Y-25551451D01*
X56335314Y-25470479D01*
X56170942Y-25420617D01*
X56042837Y-25408000D01*
X55957163Y-25408000D01*
X55829058Y-25420617D01*
X55664686Y-25470479D01*
X55513199Y-25551451D01*
X55380420Y-25660420D01*
X55271451Y-25793199D01*
X55190479Y-25944686D01*
X55140617Y-26109058D01*
X55123781Y-26280000D01*
X54876219Y-26280000D01*
X54859383Y-26109058D01*
X54809521Y-25944686D01*
X54728549Y-25793199D01*
X54619580Y-25660420D01*
X54486801Y-25551451D01*
X54335314Y-25470479D01*
X54170942Y-25420617D01*
X54042837Y-25408000D01*
X53957163Y-25408000D01*
X53829058Y-25420617D01*
X53664686Y-25470479D01*
X53513199Y-25551451D01*
X53380420Y-25660420D01*
X53271451Y-25793199D01*
X53190479Y-25944686D01*
X53140617Y-26109058D01*
X53123781Y-26280000D01*
X52876219Y-26280000D01*
X52859383Y-26109058D01*
X52809521Y-25944686D01*
X52728549Y-25793199D01*
X52619580Y-25660420D01*
X52486801Y-25551451D01*
X52335314Y-25470479D01*
X52170942Y-25420617D01*
X52042837Y-25408000D01*
X51957163Y-25408000D01*
X51829058Y-25420617D01*
X51664686Y-25470479D01*
X51513199Y-25551451D01*
X51380420Y-25660420D01*
X51271451Y-25793199D01*
X51190479Y-25944686D01*
X51140617Y-26109058D01*
X51123781Y-26280000D01*
X50876219Y-26280000D01*
X50859383Y-26109058D01*
X50809521Y-25944686D01*
X50728549Y-25793199D01*
X50619580Y-25660420D01*
X50486801Y-25551451D01*
X50335314Y-25470479D01*
X50170942Y-25420617D01*
X50042837Y-25408000D01*
X49957163Y-25408000D01*
X49829058Y-25420617D01*
X49664686Y-25470479D01*
X49513199Y-25551451D01*
X49380420Y-25660420D01*
X49271451Y-25793199D01*
X49190479Y-25944686D01*
X49140617Y-26109058D01*
X49123781Y-26280000D01*
X49107332Y-26280000D01*
X49086055Y-26063970D01*
X49023041Y-25856242D01*
X48920713Y-25664799D01*
X48783002Y-25496998D01*
X48615201Y-25359287D01*
X48423758Y-25256959D01*
X48216030Y-25193945D01*
X48054137Y-25178000D01*
X47945863Y-25178000D01*
X47783970Y-25193945D01*
X47576242Y-25256959D01*
X47384799Y-25359287D01*
X47216998Y-25496998D01*
X47079287Y-25664799D01*
X46976959Y-25856242D01*
X46913945Y-26063970D01*
X46892668Y-26280000D01*
X39607493Y-26280000D01*
X41113494Y-24774000D01*
X41488504Y-24774000D01*
X41449459Y-24813045D01*
X41398950Y-24802998D01*
X41301050Y-24802998D01*
X41205030Y-24822097D01*
X41114582Y-24859562D01*
X41033181Y-24913953D01*
X40963955Y-24983179D01*
X40909564Y-25064580D01*
X40872099Y-25155028D01*
X40853000Y-25251048D01*
X40853000Y-25348948D01*
X40872099Y-25444968D01*
X40909564Y-25535416D01*
X40963955Y-25616817D01*
X41033181Y-25686043D01*
X41114582Y-25740434D01*
X41205030Y-25777899D01*
X41301050Y-25796998D01*
X41398950Y-25796998D01*
X41494970Y-25777899D01*
X41585418Y-25740434D01*
X41666819Y-25686043D01*
X41736045Y-25616817D01*
X41790436Y-25535416D01*
X41827901Y-25444968D01*
X41847000Y-25348948D01*
X41847000Y-25251048D01*
X41836953Y-25200539D01*
X41913493Y-25124000D01*
X58222309Y-25124000D01*
X58505356Y-25407047D01*
X57325000Y-25407047D01*
X57286381Y-25410851D01*
X57249247Y-25422115D01*
X57215023Y-25440408D01*
X57185026Y-25465026D01*
X57160408Y-25495023D01*
X57142115Y-25529247D01*
X57130851Y-25566381D01*
X57127047Y-25605000D01*
X57127047Y-26955000D01*
X57130851Y-26993619D01*
X57142115Y-27030753D01*
X57160408Y-27064977D01*
X57185026Y-27094974D01*
X57215023Y-27119592D01*
X57249247Y-27137885D01*
X57286381Y-27149149D01*
X57325000Y-27152953D01*
X58675000Y-27152953D01*
X58713619Y-27149149D01*
X58750753Y-27137885D01*
X58784977Y-27119592D01*
X58814974Y-27094974D01*
X58826001Y-27081538D01*
X58826000Y-29536556D01*
X58824676Y-29550000D01*
X58826000Y-29563443D01*
X58826000Y-29563453D01*
X58829965Y-29603712D01*
X58845633Y-29655361D01*
X58871076Y-29702962D01*
X58905316Y-29744684D01*
X58915772Y-29753265D01*
X60446740Y-31284234D01*
X60455316Y-31294684D01*
X60465766Y-31303260D01*
X60497037Y-31328924D01*
X60509187Y-31335418D01*
X60544638Y-31354367D01*
X60596287Y-31370035D01*
X60636546Y-31374000D01*
X60636556Y-31374000D01*
X60649999Y-31375324D01*
X60663443Y-31374000D01*
X61335344Y-31374000D01*
X61363955Y-31416819D01*
X61433181Y-31486045D01*
X61514582Y-31540436D01*
X61605030Y-31577901D01*
X61701050Y-31597000D01*
X61798950Y-31597000D01*
X61894970Y-31577901D01*
X61985418Y-31540436D01*
X62066819Y-31486045D01*
X62136045Y-31416819D01*
X62190436Y-31335418D01*
X62227901Y-31244970D01*
X62247000Y-31148950D01*
X62247000Y-31051050D01*
X62227901Y-30955030D01*
X62190436Y-30864582D01*
X62136045Y-30783181D01*
X62066819Y-30713955D01*
X62007023Y-30674000D01*
X63485344Y-30674000D01*
X63513955Y-30716819D01*
X63583181Y-30786045D01*
X63664582Y-30840436D01*
X63755030Y-30877901D01*
X63851050Y-30897000D01*
X63948950Y-30897000D01*
X64044970Y-30877901D01*
X64135418Y-30840436D01*
X64216819Y-30786045D01*
X64286045Y-30716819D01*
X64340436Y-30635418D01*
X64377901Y-30544970D01*
X64397000Y-30448950D01*
X64397000Y-30351050D01*
X64377901Y-30255030D01*
X64340436Y-30164582D01*
X64286045Y-30083181D01*
X64216819Y-30013955D01*
X64135418Y-29959564D01*
X64044970Y-29922099D01*
X63948950Y-29903000D01*
X63851050Y-29903000D01*
X63755030Y-29922099D01*
X63664582Y-29959564D01*
X63583181Y-30013955D01*
X63513955Y-30083181D01*
X63485344Y-30126000D01*
X60913494Y-30126000D01*
X60386953Y-29599460D01*
X60397000Y-29548950D01*
X60397000Y-29451050D01*
X60377901Y-29355030D01*
X60340436Y-29264582D01*
X60286045Y-29183181D01*
X60216819Y-29113955D01*
X60135418Y-29059564D01*
X60044970Y-29022099D01*
X59948950Y-29003000D01*
X59851050Y-29003000D01*
X59755030Y-29022099D01*
X59664582Y-29059564D01*
X59583181Y-29113955D01*
X59513955Y-29183181D01*
X59459564Y-29264582D01*
X59422099Y-29355030D01*
X59403000Y-29451050D01*
X59403000Y-29465507D01*
X59374000Y-29436507D01*
X59374000Y-27601050D01*
X66903000Y-27601050D01*
X66903000Y-27698950D01*
X66922099Y-27794970D01*
X66959564Y-27885418D01*
X67013955Y-27966819D01*
X67083181Y-28036045D01*
X67164582Y-28090436D01*
X67255030Y-28127901D01*
X67351050Y-28147000D01*
X67448950Y-28147000D01*
X67544970Y-28127901D01*
X67635418Y-28090436D01*
X67716819Y-28036045D01*
X67786045Y-27966819D01*
X67840436Y-27885418D01*
X67877901Y-27794970D01*
X67897000Y-27698950D01*
X67897000Y-27601050D01*
X67877901Y-27505030D01*
X67840436Y-27414582D01*
X67786045Y-27333181D01*
X67716819Y-27263955D01*
X67635418Y-27209564D01*
X67544970Y-27172099D01*
X67448950Y-27153000D01*
X67351050Y-27153000D01*
X67255030Y-27172099D01*
X67164582Y-27209564D01*
X67083181Y-27263955D01*
X67013955Y-27333181D01*
X66959564Y-27414582D01*
X66922099Y-27505030D01*
X66903000Y-27601050D01*
X59374000Y-27601050D01*
X59374000Y-25627641D01*
X59375324Y-25614197D01*
X59374000Y-25600754D01*
X59374000Y-25600744D01*
X59370035Y-25560485D01*
X59368748Y-25556242D01*
X59408753Y-25596247D01*
X59417329Y-25606697D01*
X59427779Y-25615273D01*
X59442892Y-25627676D01*
X59451075Y-25647431D01*
X59505466Y-25728832D01*
X59574692Y-25798058D01*
X59656093Y-25852449D01*
X59746541Y-25889914D01*
X59842561Y-25909013D01*
X59940461Y-25909013D01*
X60036481Y-25889914D01*
X60126929Y-25852449D01*
X60208330Y-25798058D01*
X60277556Y-25728832D01*
X60331947Y-25647431D01*
X60369412Y-25556983D01*
X60388511Y-25460963D01*
X60388511Y-25363063D01*
X60369412Y-25267043D01*
X60331947Y-25176595D01*
X60277556Y-25095194D01*
X60208330Y-25025968D01*
X60126929Y-24971577D01*
X60036481Y-24934112D01*
X59940461Y-24915013D01*
X59842561Y-24915013D01*
X59810259Y-24921438D01*
X59816819Y-24917055D01*
X59886045Y-24847829D01*
X59940436Y-24766428D01*
X59976499Y-24679365D01*
X60033181Y-24736047D01*
X60114582Y-24790438D01*
X60205030Y-24827903D01*
X60301050Y-24847002D01*
X60398950Y-24847002D01*
X60494970Y-24827903D01*
X60585418Y-24790438D01*
X60666819Y-24736047D01*
X60736045Y-24666821D01*
X60790436Y-24585420D01*
X60827901Y-24494972D01*
X60847000Y-24398952D01*
X60847000Y-24301052D01*
X60827901Y-24205032D01*
X60790436Y-24114584D01*
X60736045Y-24033183D01*
X60666819Y-23963957D01*
X60585418Y-23909566D01*
X60494970Y-23872101D01*
X60398950Y-23853002D01*
X60301050Y-23853002D01*
X60250541Y-23863049D01*
X60211492Y-23824000D01*
X67936507Y-23824000D01*
X68776001Y-24663495D01*
X68776000Y-27211556D01*
X68774676Y-27225000D01*
X68776000Y-27238443D01*
X68776000Y-27238453D01*
X68779965Y-27278712D01*
X68795633Y-27330361D01*
X68821076Y-27377962D01*
X68855316Y-27419684D01*
X68865772Y-27428265D01*
X70088047Y-28650540D01*
X70078000Y-28701050D01*
X70078000Y-28798950D01*
X70097099Y-28894970D01*
X70134564Y-28985418D01*
X70188955Y-29066819D01*
X70258181Y-29136045D01*
X70328981Y-29183352D01*
X70283181Y-29213955D01*
X70213955Y-29283181D01*
X70159564Y-29364582D01*
X70122099Y-29455030D01*
X70115908Y-29486155D01*
X68843546Y-28213794D01*
X68853593Y-28163284D01*
X68853593Y-28065384D01*
X68834494Y-27969364D01*
X68797029Y-27878916D01*
X68742638Y-27797515D01*
X68673412Y-27728289D01*
X68592011Y-27673898D01*
X68501563Y-27636433D01*
X68405543Y-27617334D01*
X68307643Y-27617334D01*
X68211623Y-27636433D01*
X68121175Y-27673898D01*
X68039774Y-27728289D01*
X67970548Y-27797515D01*
X67916157Y-27878916D01*
X67878692Y-27969364D01*
X67859593Y-28065384D01*
X67859593Y-28163284D01*
X67878692Y-28259304D01*
X67916157Y-28349752D01*
X67970548Y-28431153D01*
X68039774Y-28500379D01*
X68121175Y-28554770D01*
X68211623Y-28592235D01*
X68307643Y-28611334D01*
X68405543Y-28611334D01*
X68456053Y-28601287D01*
X71501010Y-31646245D01*
X71509587Y-31656696D01*
X71520037Y-31665272D01*
X71551308Y-31690936D01*
X71598908Y-31716379D01*
X71610930Y-31720025D01*
X71650558Y-31732047D01*
X71690817Y-31736012D01*
X71690820Y-31736012D01*
X71704271Y-31737337D01*
X71717722Y-31736012D01*
X72070199Y-31736012D01*
X72034083Y-31790063D01*
X71996618Y-31880511D01*
X71977519Y-31976531D01*
X71977519Y-32074431D01*
X71987482Y-32124522D01*
X71979837Y-32130796D01*
X71971261Y-32141246D01*
X71971260Y-32141247D01*
X71945596Y-32172518D01*
X71922480Y-32215766D01*
X71920154Y-32220118D01*
X71904486Y-32271767D01*
X71902234Y-32294638D01*
X71899196Y-32325480D01*
X71900521Y-32338933D01*
X71900520Y-33611985D01*
X68815767Y-36696740D01*
X68805317Y-36705316D01*
X68796741Y-36715766D01*
X68796740Y-36715767D01*
X68771076Y-36747038D01*
X68745634Y-36794638D01*
X68729966Y-36846287D01*
X68724676Y-36900000D01*
X68726001Y-36913453D01*
X68726000Y-37585344D01*
X68683181Y-37613955D01*
X68613955Y-37683181D01*
X68559564Y-37764582D01*
X68522099Y-37855030D01*
X68503000Y-37951050D01*
X68503000Y-38048950D01*
X68522099Y-38144970D01*
X68559564Y-38235418D01*
X68613955Y-38316819D01*
X68683181Y-38386045D01*
X68764582Y-38440436D01*
X68855030Y-38477901D01*
X68951050Y-38497000D01*
X69048950Y-38497000D01*
X69144970Y-38477901D01*
X69235418Y-38440436D01*
X69316819Y-38386045D01*
X69386045Y-38316819D01*
X69440436Y-38235418D01*
X69477901Y-38144970D01*
X69497000Y-38048950D01*
X69497000Y-37951050D01*
X69477901Y-37855030D01*
X69440436Y-37764582D01*
X69386045Y-37683181D01*
X69316819Y-37613955D01*
X69274000Y-37585344D01*
X69274000Y-37013493D01*
X69626001Y-36661493D01*
X69626001Y-36785344D01*
X69583181Y-36813955D01*
X69513955Y-36883181D01*
X69459564Y-36964582D01*
X69422099Y-37055030D01*
X69403000Y-37151050D01*
X69403000Y-37248950D01*
X69422099Y-37344970D01*
X69459564Y-37435418D01*
X69513955Y-37516819D01*
X69583181Y-37586045D01*
X69664582Y-37640436D01*
X69755030Y-37677901D01*
X69851050Y-37697000D01*
X69948950Y-37697000D01*
X70044970Y-37677901D01*
X70135418Y-37640436D01*
X70216819Y-37586045D01*
X70286045Y-37516819D01*
X70340436Y-37435418D01*
X70377901Y-37344970D01*
X70397000Y-37248950D01*
X70397000Y-37151050D01*
X70377901Y-37055030D01*
X70340436Y-36964582D01*
X70286045Y-36883181D01*
X70216819Y-36813955D01*
X70174000Y-36785344D01*
X70174000Y-36549085D01*
X71022779Y-35700307D01*
X71035079Y-35762144D01*
X71072544Y-35852592D01*
X71126935Y-35933993D01*
X71196161Y-36003219D01*
X71277562Y-36057610D01*
X71368010Y-36095075D01*
X71464030Y-36114174D01*
X71561930Y-36114174D01*
X71612440Y-36104127D01*
X72209979Y-36701667D01*
X72209979Y-37022486D01*
X72086953Y-36899460D01*
X72097000Y-36848950D01*
X72097000Y-36751050D01*
X72077901Y-36655030D01*
X72040436Y-36564582D01*
X71986045Y-36483181D01*
X71916819Y-36413955D01*
X71835418Y-36359564D01*
X71744970Y-36322099D01*
X71648950Y-36303000D01*
X71551050Y-36303000D01*
X71455030Y-36322099D01*
X71364582Y-36359564D01*
X71283181Y-36413955D01*
X71213955Y-36483181D01*
X71159564Y-36564582D01*
X71122099Y-36655030D01*
X71103000Y-36751050D01*
X71103000Y-36848950D01*
X71122099Y-36944970D01*
X71159564Y-37035418D01*
X71213955Y-37116819D01*
X71283181Y-37186045D01*
X71364582Y-37240436D01*
X71455030Y-37277901D01*
X71551050Y-37297000D01*
X71648950Y-37297000D01*
X71699460Y-37286953D01*
X71901969Y-37489462D01*
X71901968Y-37703523D01*
X71864315Y-37647172D01*
X71795089Y-37577946D01*
X71713688Y-37523555D01*
X71623240Y-37486090D01*
X71527220Y-37466991D01*
X71429320Y-37466991D01*
X71333300Y-37486090D01*
X71242852Y-37523555D01*
X71161451Y-37577946D01*
X71092225Y-37647172D01*
X71037834Y-37728573D01*
X71000369Y-37819021D01*
X70981270Y-37915041D01*
X70981270Y-38012941D01*
X70991317Y-38063450D01*
X67367761Y-41687007D01*
X67357305Y-41695588D01*
X67323065Y-41737310D01*
X67297622Y-41784911D01*
X67283693Y-41830829D01*
X67216819Y-41763955D01*
X67135418Y-41709564D01*
X67044970Y-41672099D01*
X66948950Y-41653000D01*
X66851050Y-41653000D01*
X66755030Y-41672099D01*
X66664582Y-41709564D01*
X66583181Y-41763955D01*
X66513955Y-41833181D01*
X66459564Y-41914582D01*
X66422099Y-42005030D01*
X66403000Y-42101050D01*
X66403000Y-42198950D01*
X66422099Y-42294970D01*
X66459564Y-42385418D01*
X66513955Y-42466819D01*
X66583181Y-42536045D01*
X66664582Y-42590436D01*
X66755030Y-42627901D01*
X66851050Y-42647000D01*
X66948950Y-42647000D01*
X67044970Y-42627901D01*
X67135418Y-42590436D01*
X67216819Y-42536045D01*
X67277989Y-42474875D01*
X67277990Y-43888010D01*
X67235418Y-43859564D01*
X67148637Y-43823618D01*
X67177901Y-43752970D01*
X67197000Y-43656950D01*
X67197000Y-43559050D01*
X67177901Y-43463030D01*
X67140436Y-43372582D01*
X67086045Y-43291181D01*
X67016819Y-43221955D01*
X66935418Y-43167564D01*
X66844970Y-43130099D01*
X66748950Y-43111000D01*
X66651050Y-43111000D01*
X66555030Y-43130099D01*
X66464582Y-43167564D01*
X66383181Y-43221955D01*
X66313955Y-43291181D01*
X66285344Y-43334000D01*
X63568864Y-43334000D01*
X63586045Y-43316819D01*
X63640436Y-43235418D01*
X63677901Y-43144970D01*
X63697000Y-43048950D01*
X63697000Y-42951050D01*
X63686953Y-42900541D01*
X63703259Y-42884235D01*
X63703263Y-42884230D01*
X64378535Y-42208960D01*
X64378535Y-42286920D01*
X64397634Y-42382940D01*
X64435099Y-42473388D01*
X64489490Y-42554789D01*
X64558716Y-42624015D01*
X64640117Y-42678406D01*
X64730565Y-42715871D01*
X64826585Y-42734970D01*
X64924485Y-42734970D01*
X65020505Y-42715871D01*
X65110953Y-42678406D01*
X65192354Y-42624015D01*
X65261580Y-42554789D01*
X65315971Y-42473388D01*
X65353436Y-42382940D01*
X65372535Y-42286920D01*
X65372535Y-42189020D01*
X65362488Y-42138510D01*
X68013375Y-39487624D01*
X68088735Y-39518839D01*
X68184755Y-39537938D01*
X68282655Y-39537938D01*
X68378675Y-39518839D01*
X68469123Y-39481374D01*
X68550524Y-39426983D01*
X68619750Y-39357757D01*
X68674141Y-39276356D01*
X68711606Y-39185908D01*
X68730705Y-39089888D01*
X68730705Y-38991988D01*
X68711606Y-38895968D01*
X68674141Y-38805520D01*
X68619750Y-38724119D01*
X68550524Y-38654893D01*
X68469123Y-38600502D01*
X68378675Y-38563037D01*
X68282655Y-38543938D01*
X68184755Y-38543938D01*
X68088735Y-38563037D01*
X67998287Y-38600502D01*
X67916886Y-38654893D01*
X67847660Y-38724119D01*
X67793269Y-38805520D01*
X67755804Y-38895968D01*
X67737371Y-38988640D01*
X64974995Y-41751017D01*
X64924485Y-41740970D01*
X64826585Y-41740970D01*
X64730565Y-41760069D01*
X64650777Y-41793118D01*
X64650777Y-37091433D01*
X64693596Y-37062822D01*
X64762822Y-36993596D01*
X64817213Y-36912195D01*
X64854678Y-36821747D01*
X64873777Y-36725727D01*
X64873777Y-36627827D01*
X64854678Y-36531807D01*
X64817213Y-36441359D01*
X64762822Y-36359958D01*
X64693596Y-36290732D01*
X64612195Y-36236341D01*
X64521747Y-36198876D01*
X64425727Y-36179777D01*
X64327827Y-36179777D01*
X64231807Y-36198876D01*
X64141359Y-36236341D01*
X64059958Y-36290732D01*
X63990732Y-36359958D01*
X63936341Y-36441359D01*
X63898876Y-36531807D01*
X63879777Y-36627827D01*
X63879777Y-36725727D01*
X63898876Y-36821747D01*
X63936341Y-36912195D01*
X63990732Y-36993596D01*
X64059958Y-37062822D01*
X64102777Y-37091433D01*
X64102778Y-41709727D01*
X63315770Y-42496737D01*
X63315765Y-42496741D01*
X63299459Y-42513047D01*
X63248950Y-42503000D01*
X63151050Y-42503000D01*
X63055030Y-42522099D01*
X62964582Y-42559564D01*
X62883181Y-42613955D01*
X62813955Y-42683181D01*
X62759564Y-42764582D01*
X62722099Y-42855030D01*
X62703000Y-42951050D01*
X62703000Y-43048950D01*
X62722099Y-43144970D01*
X62759564Y-43235418D01*
X62813955Y-43316819D01*
X62831136Y-43334000D01*
X61597000Y-43334000D01*
X61597000Y-43251050D01*
X61577901Y-43155030D01*
X61540436Y-43064582D01*
X61486045Y-42983181D01*
X61416819Y-42913955D01*
X61335418Y-42859564D01*
X61244970Y-42822099D01*
X61148950Y-42803000D01*
X61051050Y-42803000D01*
X60955030Y-42822099D01*
X60864582Y-42859564D01*
X60783181Y-42913955D01*
X60713955Y-42983181D01*
X60659564Y-43064582D01*
X60622099Y-43155030D01*
X60603000Y-43251050D01*
X60603000Y-43348950D01*
X60622099Y-43444970D01*
X60659564Y-43535418D01*
X60713955Y-43616819D01*
X60783181Y-43686045D01*
X60864582Y-43740436D01*
X60955030Y-43777901D01*
X61051050Y-43797000D01*
X61148950Y-43797000D01*
X61199459Y-43786953D01*
X61204740Y-43792234D01*
X61213316Y-43802684D01*
X61223766Y-43811260D01*
X61255037Y-43836924D01*
X61280480Y-43850523D01*
X61302638Y-43862367D01*
X61354287Y-43878035D01*
X61394546Y-43882000D01*
X61394556Y-43882000D01*
X61408000Y-43883324D01*
X61421443Y-43882000D01*
X66285344Y-43882000D01*
X66313955Y-43924819D01*
X66383181Y-43994045D01*
X66431005Y-44026000D01*
X60628864Y-44026000D01*
X60617948Y-44015084D01*
X60536547Y-43960693D01*
X60446099Y-43923228D01*
X60350079Y-43904129D01*
X60252179Y-43904129D01*
X60156159Y-43923228D01*
X60065711Y-43960693D01*
X59984310Y-44015084D01*
X59915084Y-44084310D01*
X59860693Y-44165711D01*
X59823228Y-44256159D01*
X59804129Y-44352179D01*
X59804129Y-44450079D01*
X59823228Y-44546099D01*
X59860693Y-44636547D01*
X59909327Y-44709332D01*
X59697990Y-44709332D01*
X59669379Y-44666513D01*
X59600153Y-44597287D01*
X59518752Y-44542896D01*
X59428304Y-44505431D01*
X59332284Y-44486332D01*
X59234384Y-44486332D01*
X59138364Y-44505431D01*
X59047916Y-44542896D01*
X58966515Y-44597287D01*
X58897289Y-44666513D01*
X58842898Y-44747914D01*
X58805433Y-44838362D01*
X58786334Y-44934382D01*
X58786334Y-45032282D01*
X58805433Y-45128302D01*
X58842898Y-45218750D01*
X58897289Y-45300151D01*
X58966515Y-45369377D01*
X59047916Y-45423768D01*
X59138364Y-45461233D01*
X59234384Y-45480332D01*
X59332284Y-45480332D01*
X59428304Y-45461233D01*
X59518752Y-45423768D01*
X59600153Y-45369377D01*
X59669379Y-45300151D01*
X59697990Y-45257332D01*
X62249839Y-45257332D01*
X62966740Y-45974234D01*
X62975316Y-45984684D01*
X62985766Y-45993260D01*
X63017037Y-46018924D01*
X63037009Y-46029599D01*
X63064638Y-46044367D01*
X63116287Y-46060035D01*
X63156546Y-46064000D01*
X63156556Y-46064000D01*
X63170000Y-46065324D01*
X63183443Y-46064000D01*
X63626557Y-46064000D01*
X63640000Y-46065324D01*
X63653443Y-46064000D01*
X63653454Y-46064000D01*
X63693713Y-46060035D01*
X63745362Y-46044367D01*
X63792962Y-46018924D01*
X63834684Y-45984684D01*
X63843264Y-45974229D01*
X64243494Y-45574000D01*
X67358380Y-45574000D01*
X67353000Y-45601050D01*
X67353000Y-45698950D01*
X67355604Y-45712040D01*
X67305030Y-45722099D01*
X67214582Y-45759564D01*
X67133181Y-45813955D01*
X67063955Y-45883181D01*
X67009564Y-45964582D01*
X66972099Y-46055030D01*
X66953000Y-46151050D01*
X66953000Y-46153000D01*
X66951050Y-46153000D01*
X66855030Y-46172099D01*
X66764582Y-46209564D01*
X66683181Y-46263955D01*
X66613955Y-46333181D01*
X66559564Y-46414582D01*
X66522099Y-46505030D01*
X66503000Y-46601050D01*
X66503000Y-46698950D01*
X66522099Y-46794970D01*
X66559564Y-46885418D01*
X66613955Y-46966819D01*
X66683181Y-47036045D01*
X66764582Y-47090436D01*
X66855030Y-47127901D01*
X66951050Y-47147000D01*
X67048950Y-47147000D01*
X67144970Y-47127901D01*
X67235418Y-47090436D01*
X67316819Y-47036045D01*
X67386045Y-46966819D01*
X67440436Y-46885418D01*
X67477901Y-46794970D01*
X67497000Y-46698950D01*
X67497000Y-46697000D01*
X67498950Y-46697000D01*
X67594970Y-46677901D01*
X67685418Y-46640436D01*
X67766819Y-46586045D01*
X67836045Y-46516819D01*
X67890436Y-46435418D01*
X67927901Y-46344970D01*
X67947000Y-46248950D01*
X67947000Y-46151050D01*
X67944396Y-46137960D01*
X67994970Y-46127901D01*
X68085418Y-46090436D01*
X68109979Y-46074025D01*
X68109979Y-48042526D01*
X63525771Y-52626736D01*
X63525765Y-52626741D01*
X63509459Y-52643047D01*
X63458950Y-52633000D01*
X63361050Y-52633000D01*
X63265030Y-52652099D01*
X63174582Y-52689564D01*
X63093181Y-52743955D01*
X63023955Y-52813181D01*
X62969564Y-52894582D01*
X62932099Y-52985030D01*
X62913000Y-53081050D01*
X62913000Y-53178950D01*
X62932099Y-53274970D01*
X62969564Y-53365418D01*
X63023955Y-53446819D01*
X63093181Y-53516045D01*
X63174582Y-53570436D01*
X63265030Y-53607901D01*
X63361050Y-53627000D01*
X63458950Y-53627000D01*
X63554970Y-53607901D01*
X63645418Y-53570436D01*
X63726819Y-53516045D01*
X63796045Y-53446819D01*
X63850436Y-53365418D01*
X63887901Y-53274970D01*
X63907000Y-53178950D01*
X63907000Y-53081050D01*
X63896953Y-53030541D01*
X63913259Y-53014235D01*
X63913264Y-53014229D01*
X68417990Y-48509505D01*
X68417990Y-49894514D01*
X68115770Y-50196735D01*
X68115765Y-50196739D01*
X68099459Y-50213045D01*
X68048950Y-50202998D01*
X67951050Y-50202998D01*
X67855030Y-50222097D01*
X67764582Y-50259562D01*
X67683181Y-50313953D01*
X67613955Y-50383179D01*
X67559564Y-50464580D01*
X67522099Y-50555028D01*
X67503000Y-50651048D01*
X67503000Y-50748948D01*
X67522099Y-50844968D01*
X67559564Y-50935416D01*
X67613955Y-51016817D01*
X67683181Y-51086043D01*
X67764582Y-51140434D01*
X67855030Y-51177899D01*
X67951050Y-51196998D01*
X68048950Y-51196998D01*
X68132034Y-51180472D01*
X60232772Y-59079735D01*
X60222316Y-59088316D01*
X60188076Y-59130038D01*
X60181269Y-59142773D01*
X60100181Y-59196955D01*
X60030955Y-59266181D01*
X59976564Y-59347582D01*
X59939099Y-59438030D01*
X59920000Y-59534050D01*
X59920000Y-59631950D01*
X59939099Y-59727970D01*
X59976564Y-59818418D01*
X60030955Y-59899819D01*
X60100181Y-59969045D01*
X60181582Y-60023436D01*
X60272030Y-60060901D01*
X60368050Y-60080000D01*
X60465950Y-60080000D01*
X60561970Y-60060901D01*
X60652418Y-60023436D01*
X60733819Y-59969045D01*
X60803045Y-59899819D01*
X60857436Y-59818418D01*
X60894901Y-59727970D01*
X60914000Y-59631950D01*
X60914000Y-59534050D01*
X60894901Y-59438030D01*
X60857436Y-59347582D01*
X60810362Y-59277131D01*
X61986443Y-58101050D01*
X69503000Y-58101050D01*
X69503000Y-58198950D01*
X69522099Y-58294970D01*
X69559564Y-58385418D01*
X69613955Y-58466819D01*
X69683181Y-58536045D01*
X69764582Y-58590436D01*
X69855030Y-58627901D01*
X69951050Y-58647000D01*
X70048950Y-58647000D01*
X70144970Y-58627901D01*
X70235418Y-58590436D01*
X70316819Y-58536045D01*
X70386045Y-58466819D01*
X70440436Y-58385418D01*
X70477901Y-58294970D01*
X70497000Y-58198950D01*
X70497000Y-58101050D01*
X70477901Y-58005030D01*
X70440436Y-57914582D01*
X70386045Y-57833181D01*
X70316819Y-57763955D01*
X70235418Y-57709564D01*
X70144970Y-57672099D01*
X70048950Y-57653000D01*
X69951050Y-57653000D01*
X69855030Y-57672099D01*
X69764582Y-57709564D01*
X69683181Y-57763955D01*
X69613955Y-57833181D01*
X69559564Y-57914582D01*
X69522099Y-58005030D01*
X69503000Y-58101050D01*
X61986443Y-58101050D01*
X63502493Y-56585000D01*
X76092882Y-56585000D01*
X76097342Y-56630284D01*
X76110551Y-56673828D01*
X76132001Y-56713958D01*
X76160868Y-56749132D01*
X76196042Y-56777999D01*
X76236172Y-56799449D01*
X76279716Y-56812658D01*
X76325000Y-56817118D01*
X76869250Y-56816000D01*
X76927000Y-56758250D01*
X76927000Y-55983000D01*
X77073000Y-55983000D01*
X77073000Y-56758250D01*
X77130750Y-56816000D01*
X77675000Y-56817118D01*
X77720284Y-56812658D01*
X77763828Y-56799449D01*
X77803958Y-56777999D01*
X77839132Y-56749132D01*
X77867999Y-56713958D01*
X77889449Y-56673828D01*
X77902658Y-56630284D01*
X77907118Y-56585000D01*
X77906000Y-56040750D01*
X77848250Y-55983000D01*
X77073000Y-55983000D01*
X76927000Y-55983000D01*
X76151750Y-55983000D01*
X76094000Y-56040750D01*
X76092882Y-56585000D01*
X63502493Y-56585000D01*
X66636443Y-53451050D01*
X67903000Y-53451050D01*
X67903000Y-53548950D01*
X67922099Y-53644970D01*
X67959564Y-53735418D01*
X68013955Y-53816819D01*
X68083181Y-53886045D01*
X68126001Y-53914657D01*
X68126000Y-55105344D01*
X68083181Y-55133955D01*
X68013955Y-55203181D01*
X67959564Y-55284582D01*
X67922099Y-55375030D01*
X67903000Y-55471050D01*
X67903000Y-55568950D01*
X67922099Y-55664970D01*
X67959564Y-55755418D01*
X68013955Y-55836819D01*
X68083181Y-55906045D01*
X68164582Y-55960436D01*
X68255030Y-55997901D01*
X68351050Y-56017000D01*
X68448950Y-56017000D01*
X68544970Y-55997901D01*
X68635418Y-55960436D01*
X68716819Y-55906045D01*
X68786045Y-55836819D01*
X68840436Y-55755418D01*
X68877901Y-55664970D01*
X68897000Y-55568950D01*
X68897000Y-55471050D01*
X68877901Y-55375030D01*
X68840436Y-55284582D01*
X68786045Y-55203181D01*
X68716819Y-55133955D01*
X68674000Y-55105344D01*
X68674000Y-53914656D01*
X68716819Y-53886045D01*
X68751814Y-53851050D01*
X70002994Y-53851050D01*
X70002994Y-53948950D01*
X70022093Y-54044970D01*
X70059558Y-54135418D01*
X70113949Y-54216819D01*
X70183175Y-54286045D01*
X70264576Y-54340436D01*
X70355024Y-54377901D01*
X70451044Y-54397000D01*
X70548944Y-54397000D01*
X70644964Y-54377901D01*
X70735412Y-54340436D01*
X70816813Y-54286045D01*
X70824997Y-54277861D01*
X70833181Y-54286045D01*
X70914582Y-54340436D01*
X71005030Y-54377901D01*
X71101050Y-54397000D01*
X71198950Y-54397000D01*
X71294970Y-54377901D01*
X71385418Y-54340436D01*
X71466819Y-54286045D01*
X71475000Y-54277864D01*
X71483181Y-54286045D01*
X71564582Y-54340436D01*
X71655030Y-54377901D01*
X71751050Y-54397000D01*
X71848950Y-54397000D01*
X71944970Y-54377901D01*
X72035418Y-54340436D01*
X72116819Y-54286045D01*
X72186045Y-54216819D01*
X72240436Y-54135418D01*
X72277901Y-54044970D01*
X72297000Y-53948950D01*
X72297000Y-53851050D01*
X72277901Y-53755030D01*
X72240436Y-53664582D01*
X72186045Y-53583181D01*
X72116819Y-53513955D01*
X72035418Y-53459564D01*
X71944970Y-53422099D01*
X71848950Y-53403000D01*
X71751050Y-53403000D01*
X71655030Y-53422099D01*
X71564582Y-53459564D01*
X71483181Y-53513955D01*
X71475000Y-53522136D01*
X71466819Y-53513955D01*
X71385418Y-53459564D01*
X71294970Y-53422099D01*
X71198950Y-53403000D01*
X71101050Y-53403000D01*
X71005030Y-53422099D01*
X70914582Y-53459564D01*
X70833181Y-53513955D01*
X70824997Y-53522139D01*
X70816813Y-53513955D01*
X70735412Y-53459564D01*
X70644964Y-53422099D01*
X70548944Y-53403000D01*
X70451044Y-53403000D01*
X70355024Y-53422099D01*
X70264576Y-53459564D01*
X70183175Y-53513955D01*
X70113949Y-53583181D01*
X70059558Y-53664582D01*
X70022093Y-53755030D01*
X70002994Y-53851050D01*
X68751814Y-53851050D01*
X68786045Y-53816819D01*
X68840436Y-53735418D01*
X68877901Y-53644970D01*
X68897000Y-53548950D01*
X68897000Y-53451050D01*
X68877901Y-53355030D01*
X68840436Y-53264582D01*
X68786045Y-53183181D01*
X68716819Y-53113955D01*
X68635418Y-53059564D01*
X68544970Y-53022099D01*
X68448950Y-53003000D01*
X68351050Y-53003000D01*
X68255030Y-53022099D01*
X68164582Y-53059564D01*
X68083181Y-53113955D01*
X68013955Y-53183181D01*
X67959564Y-53264582D01*
X67922099Y-53355030D01*
X67903000Y-53451050D01*
X66636443Y-53451050D01*
X68726001Y-51361493D01*
X68726001Y-52113454D01*
X68729966Y-52153713D01*
X68745634Y-52205362D01*
X68771077Y-52252962D01*
X68805317Y-52294684D01*
X68847039Y-52328924D01*
X68894639Y-52354367D01*
X68946288Y-52370035D01*
X69000000Y-52375325D01*
X69053713Y-52370035D01*
X69105362Y-52354367D01*
X69152962Y-52328924D01*
X69194684Y-52294684D01*
X69228924Y-52252962D01*
X69254367Y-52205362D01*
X69270035Y-52153713D01*
X69274000Y-52113454D01*
X69274000Y-50713444D01*
X69275324Y-50700001D01*
X69274000Y-50686557D01*
X69274000Y-46103722D01*
X69454818Y-46719532D01*
X69857861Y-47501326D01*
X70401576Y-48192716D01*
X71066312Y-48768713D01*
X71828043Y-49208499D01*
X72659239Y-49496179D01*
X73529858Y-49621355D01*
X74408433Y-49579503D01*
X75263211Y-49372136D01*
X76063298Y-49006749D01*
X76779775Y-48496547D01*
X77386749Y-47859971D01*
X77862282Y-47120029D01*
X78189185Y-46303462D01*
X78209979Y-46195574D01*
X78209979Y-47302527D01*
X75386507Y-50126000D01*
X75314662Y-50126000D01*
X75286051Y-50083181D01*
X75216825Y-50013955D01*
X75135424Y-49959564D01*
X75044976Y-49922099D01*
X74948956Y-49903000D01*
X74851056Y-49903000D01*
X74755036Y-49922099D01*
X74664588Y-49959564D01*
X74583187Y-50013955D01*
X74513961Y-50083181D01*
X74459570Y-50164582D01*
X74422105Y-50255030D01*
X74403006Y-50351050D01*
X74403006Y-50448950D01*
X74422105Y-50544970D01*
X74459570Y-50635418D01*
X74513961Y-50716819D01*
X74555596Y-50758454D01*
X74483181Y-50806841D01*
X74413955Y-50876067D01*
X74359564Y-50957468D01*
X74322099Y-51047916D01*
X74303000Y-51143936D01*
X74303000Y-51241836D01*
X74322099Y-51337856D01*
X74359564Y-51428304D01*
X74413955Y-51509705D01*
X74483181Y-51578931D01*
X74564582Y-51633322D01*
X74655030Y-51670787D01*
X74747576Y-51689195D01*
X73710771Y-52726000D01*
X73214660Y-52726000D01*
X73186049Y-52683181D01*
X73116823Y-52613955D01*
X73035422Y-52559564D01*
X72944974Y-52522099D01*
X72848954Y-52503000D01*
X72751054Y-52503000D01*
X72655034Y-52522099D01*
X72564586Y-52559564D01*
X72483185Y-52613955D01*
X72413959Y-52683181D01*
X72359568Y-52764582D01*
X72322103Y-52855030D01*
X72303004Y-52951050D01*
X72303004Y-53048950D01*
X72322103Y-53144970D01*
X72359568Y-53235418D01*
X72413959Y-53316819D01*
X72483185Y-53386045D01*
X72564586Y-53440436D01*
X72655034Y-53477901D01*
X72751054Y-53497000D01*
X72848954Y-53497000D01*
X72944974Y-53477901D01*
X73035422Y-53440436D01*
X73116823Y-53386045D01*
X73186049Y-53316819D01*
X73214660Y-53274000D01*
X73623136Y-53274000D01*
X73563955Y-53333181D01*
X73509564Y-53414582D01*
X73472099Y-53505030D01*
X73453000Y-53601050D01*
X73453000Y-53698950D01*
X73463047Y-53749460D01*
X72511507Y-54701000D01*
X72089656Y-54701000D01*
X72061045Y-54658181D01*
X71991819Y-54588955D01*
X71910418Y-54534564D01*
X71819970Y-54497099D01*
X71723950Y-54478000D01*
X71626050Y-54478000D01*
X71530030Y-54497099D01*
X71439582Y-54534564D01*
X71358181Y-54588955D01*
X71288955Y-54658181D01*
X71234564Y-54739582D01*
X71197099Y-54830030D01*
X71178000Y-54926050D01*
X71178000Y-55023950D01*
X71197099Y-55119970D01*
X71234564Y-55210418D01*
X71288955Y-55291819D01*
X71358181Y-55361045D01*
X71439582Y-55415436D01*
X71530030Y-55452901D01*
X71626050Y-55472000D01*
X71723950Y-55472000D01*
X71819970Y-55452901D01*
X71910418Y-55415436D01*
X71991819Y-55361045D01*
X72061045Y-55291819D01*
X72089656Y-55249000D01*
X72611557Y-55249000D01*
X72625000Y-55250324D01*
X72638443Y-55249000D01*
X72638454Y-55249000D01*
X72678713Y-55245035D01*
X72711793Y-55235000D01*
X76092882Y-55235000D01*
X76094000Y-55779250D01*
X76151750Y-55837000D01*
X76927000Y-55837000D01*
X76927000Y-55061750D01*
X77073000Y-55061750D01*
X77073000Y-55837000D01*
X77848250Y-55837000D01*
X77906000Y-55779250D01*
X77907118Y-55235000D01*
X77902658Y-55189716D01*
X77889449Y-55146172D01*
X77867999Y-55106042D01*
X77839132Y-55070868D01*
X77803958Y-55042001D01*
X77763828Y-55020551D01*
X77720284Y-55007342D01*
X77675000Y-55002882D01*
X77130750Y-55004000D01*
X77073000Y-55061750D01*
X76927000Y-55061750D01*
X76869250Y-55004000D01*
X76325000Y-55002882D01*
X76279716Y-55007342D01*
X76236172Y-55020551D01*
X76196042Y-55042001D01*
X76160868Y-55070868D01*
X76132001Y-55106042D01*
X76110551Y-55146172D01*
X76097342Y-55189716D01*
X76092882Y-55235000D01*
X72711793Y-55235000D01*
X72730362Y-55229367D01*
X72777962Y-55203924D01*
X72819684Y-55169684D01*
X72828265Y-55159228D01*
X73850540Y-54136953D01*
X73901050Y-54147000D01*
X73998950Y-54147000D01*
X74094970Y-54127901D01*
X74105908Y-54123370D01*
X76119484Y-54123370D01*
X76149331Y-54221778D01*
X76226501Y-54381745D01*
X76333397Y-54523583D01*
X76465910Y-54641841D01*
X76618948Y-54731975D01*
X76786629Y-54790521D01*
X76927000Y-54755309D01*
X76927000Y-53983000D01*
X77073000Y-53983000D01*
X77073000Y-54755309D01*
X77213371Y-54790521D01*
X77381052Y-54731975D01*
X77534090Y-54641841D01*
X77666603Y-54523583D01*
X77773499Y-54381745D01*
X77850669Y-54221778D01*
X77880516Y-54123370D01*
X77845103Y-53983000D01*
X77073000Y-53983000D01*
X76927000Y-53983000D01*
X76154897Y-53983000D01*
X76119484Y-54123370D01*
X74105908Y-54123370D01*
X74185418Y-54090436D01*
X74266819Y-54036045D01*
X74336045Y-53966819D01*
X74390436Y-53885418D01*
X74427901Y-53794970D01*
X74447000Y-53698950D01*
X74447000Y-53696630D01*
X76119484Y-53696630D01*
X76154897Y-53837000D01*
X76927000Y-53837000D01*
X76927000Y-53064691D01*
X77073000Y-53064691D01*
X77073000Y-53837000D01*
X77845103Y-53837000D01*
X77880516Y-53696630D01*
X77850669Y-53598222D01*
X77773499Y-53438255D01*
X77666603Y-53296417D01*
X77534090Y-53178159D01*
X77381052Y-53088025D01*
X77213371Y-53029479D01*
X77073000Y-53064691D01*
X76927000Y-53064691D01*
X76786629Y-53029479D01*
X76618948Y-53088025D01*
X76465910Y-53178159D01*
X76333397Y-53296417D01*
X76226501Y-53438255D01*
X76149331Y-53598222D01*
X76119484Y-53696630D01*
X74447000Y-53696630D01*
X74447000Y-53601050D01*
X74427901Y-53505030D01*
X74390436Y-53414582D01*
X74336045Y-53333181D01*
X74266819Y-53263955D01*
X74185418Y-53209564D01*
X74094970Y-53172099D01*
X74048835Y-53162922D01*
X75088387Y-52123370D01*
X76119484Y-52123370D01*
X76149331Y-52221778D01*
X76226501Y-52381745D01*
X76333397Y-52523583D01*
X76465910Y-52641841D01*
X76618948Y-52731975D01*
X76786629Y-52790521D01*
X76927000Y-52755309D01*
X76927000Y-51983000D01*
X77073000Y-51983000D01*
X77073000Y-52755309D01*
X77213371Y-52790521D01*
X77381052Y-52731975D01*
X77534090Y-52641841D01*
X77666603Y-52523583D01*
X77773499Y-52381745D01*
X77850669Y-52221778D01*
X77880516Y-52123370D01*
X77845103Y-51983000D01*
X77073000Y-51983000D01*
X76927000Y-51983000D01*
X76154897Y-51983000D01*
X76119484Y-52123370D01*
X75088387Y-52123370D01*
X75515127Y-51696630D01*
X76119484Y-51696630D01*
X76154897Y-51837000D01*
X76927000Y-51837000D01*
X76927000Y-51064691D01*
X77073000Y-51064691D01*
X77073000Y-51837000D01*
X77845103Y-51837000D01*
X77880516Y-51696630D01*
X77850669Y-51598222D01*
X77773499Y-51438255D01*
X77666603Y-51296417D01*
X77534090Y-51178159D01*
X77381052Y-51088025D01*
X77213371Y-51029479D01*
X77073000Y-51064691D01*
X76927000Y-51064691D01*
X76786629Y-51029479D01*
X76618948Y-51088025D01*
X76465910Y-51178159D01*
X76333397Y-51296417D01*
X76226501Y-51438255D01*
X76149331Y-51598222D01*
X76119484Y-51696630D01*
X75515127Y-51696630D01*
X79284240Y-47927519D01*
X79294684Y-47918948D01*
X79303255Y-47908504D01*
X79303260Y-47908499D01*
X79328924Y-47877228D01*
X79354366Y-47829627D01*
X79354367Y-47829626D01*
X79370035Y-47777977D01*
X79374000Y-47737718D01*
X79374000Y-47737706D01*
X79375324Y-47724265D01*
X79374000Y-47710824D01*
X79374000Y-42813443D01*
X79375324Y-42800000D01*
X79374000Y-42786556D01*
X79374000Y-42786546D01*
X79370035Y-42746287D01*
X79354367Y-42694638D01*
X79334541Y-42657546D01*
X79328924Y-42647037D01*
X79303260Y-42615766D01*
X79294684Y-42605316D01*
X79284234Y-42596740D01*
X77905524Y-41218030D01*
X78018750Y-41218030D01*
X78153608Y-41191205D01*
X78280641Y-41138586D01*
X78394968Y-41062195D01*
X78492195Y-40964968D01*
X78568586Y-40850641D01*
X78621205Y-40723608D01*
X78648030Y-40588750D01*
X78648030Y-40451250D01*
X78621205Y-40316392D01*
X78568586Y-40189359D01*
X78492195Y-40075032D01*
X78394968Y-39977805D01*
X78280641Y-39901414D01*
X78153608Y-39848795D01*
X78018750Y-39821970D01*
X77881250Y-39821970D01*
X77746392Y-39848795D01*
X77619359Y-39901414D01*
X77505032Y-39977805D01*
X77407805Y-40075032D01*
X77331414Y-40189359D01*
X77278795Y-40316392D01*
X77251970Y-40451250D01*
X77251970Y-40564477D01*
X76074000Y-39386507D01*
X76074000Y-35371375D01*
X76237240Y-35371375D01*
X76237240Y-35508625D01*
X76264016Y-35643237D01*
X76316540Y-35770039D01*
X76392791Y-35884158D01*
X76489842Y-35981209D01*
X76603961Y-36057460D01*
X76730763Y-36109984D01*
X76865375Y-36136760D01*
X77002625Y-36136760D01*
X77137237Y-36109984D01*
X77264039Y-36057460D01*
X77378158Y-35981209D01*
X77475209Y-35884158D01*
X77551460Y-35770039D01*
X77603984Y-35643237D01*
X77630760Y-35508625D01*
X77630760Y-35371375D01*
X78269240Y-35371375D01*
X78269240Y-35508625D01*
X78296016Y-35643237D01*
X78348540Y-35770039D01*
X78424791Y-35884158D01*
X78521842Y-35981209D01*
X78635961Y-36057460D01*
X78762763Y-36109984D01*
X78897375Y-36136760D01*
X79034625Y-36136760D01*
X79169237Y-36109984D01*
X79296039Y-36057460D01*
X79410158Y-35981209D01*
X79507209Y-35884158D01*
X79583460Y-35770039D01*
X79635984Y-35643237D01*
X79662760Y-35508625D01*
X79662760Y-35371375D01*
X79635984Y-35236763D01*
X79583460Y-35109961D01*
X79507209Y-34995842D01*
X79410158Y-34898791D01*
X79296039Y-34822540D01*
X79169237Y-34770016D01*
X79034625Y-34743240D01*
X78897375Y-34743240D01*
X78762763Y-34770016D01*
X78635961Y-34822540D01*
X78521842Y-34898791D01*
X78424791Y-34995842D01*
X78348540Y-35109961D01*
X78296016Y-35236763D01*
X78269240Y-35371375D01*
X77630760Y-35371375D01*
X77603984Y-35236763D01*
X77551460Y-35109961D01*
X77475209Y-34995842D01*
X77378158Y-34898791D01*
X77264039Y-34822540D01*
X77137237Y-34770016D01*
X77002625Y-34743240D01*
X76865375Y-34743240D01*
X76730763Y-34770016D01*
X76603961Y-34822540D01*
X76489842Y-34898791D01*
X76392791Y-34995842D01*
X76316540Y-35109961D01*
X76264016Y-35236763D01*
X76237240Y-35371375D01*
X76074000Y-35371375D01*
X76074000Y-32413443D01*
X76075324Y-32400000D01*
X76074000Y-32386556D01*
X76074000Y-32386546D01*
X76070035Y-32346287D01*
X76054367Y-32294638D01*
X76036120Y-32260500D01*
X76028924Y-32247037D01*
X76003260Y-32215766D01*
X75994684Y-32205316D01*
X75984234Y-32196740D01*
X73203265Y-29415772D01*
X73194684Y-29405316D01*
X73152962Y-29371076D01*
X73105362Y-29345633D01*
X73053713Y-29329965D01*
X73013454Y-29326000D01*
X73013443Y-29326000D01*
X73000000Y-29324676D01*
X72986557Y-29326000D01*
X71014656Y-29326000D01*
X70986045Y-29283181D01*
X70916819Y-29213955D01*
X70846019Y-29166648D01*
X70891819Y-29136045D01*
X70961045Y-29066819D01*
X71015436Y-28985418D01*
X71052901Y-28894970D01*
X71072000Y-28798950D01*
X71072000Y-28701050D01*
X71052901Y-28605030D01*
X71015436Y-28514582D01*
X70961045Y-28433181D01*
X70891819Y-28363955D01*
X70810418Y-28309564D01*
X70719970Y-28272099D01*
X70623950Y-28253000D01*
X70526050Y-28253000D01*
X70475540Y-28263047D01*
X69324000Y-27111507D01*
X69324000Y-26701050D01*
X75603000Y-26701050D01*
X75603000Y-26798950D01*
X75622099Y-26894970D01*
X75659564Y-26985418D01*
X75713955Y-27066819D01*
X75783181Y-27136045D01*
X75864582Y-27190436D01*
X75955030Y-27227901D01*
X76051050Y-27247000D01*
X76128000Y-27247000D01*
X76128000Y-27323950D01*
X76147099Y-27419970D01*
X76184564Y-27510418D01*
X76238955Y-27591819D01*
X76308181Y-27661045D01*
X76389582Y-27715436D01*
X76480030Y-27752901D01*
X76576050Y-27772000D01*
X76673950Y-27772000D01*
X76679006Y-27770994D01*
X76678000Y-27776050D01*
X76678000Y-27873950D01*
X76697099Y-27969970D01*
X76734564Y-28060418D01*
X76788955Y-28141819D01*
X76858181Y-28211045D01*
X76939582Y-28265436D01*
X77030030Y-28302901D01*
X77126050Y-28322000D01*
X77223950Y-28322000D01*
X77319970Y-28302901D01*
X77410418Y-28265436D01*
X77491819Y-28211045D01*
X77561045Y-28141819D01*
X77615436Y-28060418D01*
X77652901Y-27969970D01*
X77672000Y-27873950D01*
X77672000Y-27776050D01*
X77652901Y-27680030D01*
X77615436Y-27589582D01*
X77561045Y-27508181D01*
X77491819Y-27438955D01*
X77410418Y-27384564D01*
X77319970Y-27347099D01*
X77223950Y-27328000D01*
X77126050Y-27328000D01*
X77120994Y-27329006D01*
X77122000Y-27323950D01*
X77122000Y-27226050D01*
X77102901Y-27130030D01*
X77065436Y-27039582D01*
X77011045Y-26958181D01*
X76941819Y-26888955D01*
X76860418Y-26834564D01*
X76769970Y-26797099D01*
X76673950Y-26778000D01*
X76597000Y-26778000D01*
X76597000Y-26701050D01*
X76577901Y-26605030D01*
X76540436Y-26514582D01*
X76486045Y-26433181D01*
X76416819Y-26363955D01*
X76335418Y-26309564D01*
X76244970Y-26272099D01*
X76148950Y-26253000D01*
X76051050Y-26253000D01*
X75955030Y-26272099D01*
X75864582Y-26309564D01*
X75783181Y-26363955D01*
X75713955Y-26433181D01*
X75659564Y-26514582D01*
X75622099Y-26605030D01*
X75603000Y-26701050D01*
X69324000Y-26701050D01*
X69324000Y-24563451D01*
X69325325Y-24550000D01*
X69324000Y-24536546D01*
X69320035Y-24496287D01*
X69304367Y-24444638D01*
X69304367Y-24444637D01*
X69278924Y-24397037D01*
X69253260Y-24365766D01*
X69244684Y-24355316D01*
X69234234Y-24346740D01*
X68253265Y-23365771D01*
X68244684Y-23355316D01*
X68202962Y-23321076D01*
X68155362Y-23295633D01*
X68103713Y-23279965D01*
X68063454Y-23276000D01*
X68063443Y-23276000D01*
X68050000Y-23274676D01*
X68036557Y-23276000D01*
X32763440Y-23276000D01*
X32749999Y-23274676D01*
X32736558Y-23276000D01*
X32736546Y-23276000D01*
X32696287Y-23279965D01*
X32644638Y-23295633D01*
X32630198Y-23303352D01*
X32597036Y-23321076D01*
X32565765Y-23346740D01*
X32565760Y-23346745D01*
X32555316Y-23355316D01*
X32546744Y-23365761D01*
X31199460Y-24713047D01*
X31148950Y-24703000D01*
X31051050Y-24703000D01*
X30955030Y-24722099D01*
X30864582Y-24759564D01*
X30783181Y-24813955D01*
X30713955Y-24883181D01*
X30659564Y-24964582D01*
X30622099Y-25055030D01*
X30603000Y-25151050D01*
X20202000Y-25151050D01*
X20202000Y-23202000D01*
X79798000Y-23202000D01*
X79798001Y-66798000D01*
G36*
X74909979Y-32797474D02*
G01*
X74909980Y-39741710D01*
X74908655Y-39755164D01*
X74913945Y-39808877D01*
X74929613Y-39860526D01*
X74955055Y-39908126D01*
X74980719Y-39939397D01*
X74989296Y-39949848D01*
X74999746Y-39958424D01*
X76010427Y-40969106D01*
X75263211Y-40627864D01*
X74408433Y-40420497D01*
X73529858Y-40378645D01*
X72659239Y-40503821D01*
X71828043Y-40791501D01*
X71066312Y-41231287D01*
X70401576Y-41807284D01*
X69857861Y-42498674D01*
X69454818Y-43280468D01*
X69278033Y-43882542D01*
X69278033Y-42609460D01*
X72870230Y-39017264D01*
X72870234Y-39017260D01*
X73284233Y-38603265D01*
X73294684Y-38594688D01*
X73320693Y-38562996D01*
X73328923Y-38552968D01*
X73354366Y-38505368D01*
X73355702Y-38500964D01*
X73370035Y-38453717D01*
X73374000Y-38413458D01*
X73374000Y-38413447D01*
X73375324Y-38400006D01*
X73374000Y-38386563D01*
X73374000Y-36764364D01*
X73383181Y-36773545D01*
X73464582Y-36827936D01*
X73555030Y-36865401D01*
X73651050Y-36884500D01*
X73748950Y-36884500D01*
X73844970Y-36865401D01*
X73935418Y-36827936D01*
X74016819Y-36773545D01*
X74086045Y-36704319D01*
X74140436Y-36622918D01*
X74177901Y-36532470D01*
X74197000Y-36436450D01*
X74197000Y-36338550D01*
X74177901Y-36242530D01*
X74140436Y-36152082D01*
X74086045Y-36070681D01*
X74016819Y-36001455D01*
X73935418Y-35947064D01*
X73844970Y-35909599D01*
X73748950Y-35890500D01*
X73651050Y-35890500D01*
X73555030Y-35909599D01*
X73464582Y-35947064D01*
X73383181Y-36001455D01*
X73374000Y-36010636D01*
X73374000Y-34013493D01*
X73884239Y-33503257D01*
X73894684Y-33494685D01*
X73903255Y-33484241D01*
X73903260Y-33484236D01*
X73928923Y-33452965D01*
X73954366Y-33405364D01*
X73954367Y-33405363D01*
X73970035Y-33353714D01*
X73974000Y-33313455D01*
X73974000Y-33313443D01*
X73975324Y-33300002D01*
X73974000Y-33286561D01*
X73974000Y-31861494D01*
X74909979Y-32797474D01*
X74909979Y-32797474D01*
G37*
X74909979Y-32797474D02*
X74909980Y-39741710D01*
X74908655Y-39755164D01*
X74913945Y-39808877D01*
X74929613Y-39860526D01*
X74955055Y-39908126D01*
X74980719Y-39939397D01*
X74989296Y-39949848D01*
X74999746Y-39958424D01*
X76010427Y-40969106D01*
X75263211Y-40627864D01*
X74408433Y-40420497D01*
X73529858Y-40378645D01*
X72659239Y-40503821D01*
X71828043Y-40791501D01*
X71066312Y-41231287D01*
X70401576Y-41807284D01*
X69857861Y-42498674D01*
X69454818Y-43280468D01*
X69278033Y-43882542D01*
X69278033Y-42609460D01*
X72870230Y-39017264D01*
X72870234Y-39017260D01*
X73284233Y-38603265D01*
X73294684Y-38594688D01*
X73320693Y-38562996D01*
X73328923Y-38552968D01*
X73354366Y-38505368D01*
X73355702Y-38500964D01*
X73370035Y-38453717D01*
X73374000Y-38413458D01*
X73374000Y-38413447D01*
X73375324Y-38400006D01*
X73374000Y-38386563D01*
X73374000Y-36764364D01*
X73383181Y-36773545D01*
X73464582Y-36827936D01*
X73555030Y-36865401D01*
X73651050Y-36884500D01*
X73748950Y-36884500D01*
X73844970Y-36865401D01*
X73935418Y-36827936D01*
X74016819Y-36773545D01*
X74086045Y-36704319D01*
X74140436Y-36622918D01*
X74177901Y-36532470D01*
X74197000Y-36436450D01*
X74197000Y-36338550D01*
X74177901Y-36242530D01*
X74140436Y-36152082D01*
X74086045Y-36070681D01*
X74016819Y-36001455D01*
X73935418Y-35947064D01*
X73844970Y-35909599D01*
X73748950Y-35890500D01*
X73651050Y-35890500D01*
X73555030Y-35909599D01*
X73464582Y-35947064D01*
X73383181Y-36001455D01*
X73374000Y-36010636D01*
X73374000Y-34013493D01*
X73884239Y-33503257D01*
X73894684Y-33494685D01*
X73903255Y-33484241D01*
X73903260Y-33484236D01*
X73928923Y-33452965D01*
X73954366Y-33405364D01*
X73954367Y-33405363D01*
X73970035Y-33353714D01*
X73974000Y-33313455D01*
X73974000Y-33313443D01*
X73975324Y-33300002D01*
X73974000Y-33286561D01*
X73974000Y-31861494D01*
X74909979Y-32797474D01*
M02*
