G04 #@! TF.GenerationSoftware,KiCad,Pcbnew,5.1.4+dfsg1-1*
G04 #@! TF.CreationDate,2019-12-17T05:08:10+01:00*
G04 #@! TF.ProjectId,STM32G431,53544d33-3247-4343-9331-2e6b69636164,rev?*
G04 #@! TF.SameCoordinates,Original*
G04 #@! TF.FileFunction,Legend,Top*
G04 #@! TF.FilePolarity,Positive*
%FSLAX46Y46*%
G04 Gerber Fmt 4.6, Leading zero omitted, Abs format (unit mm)*
G04 Created by KiCad (PCBNEW 5.1.4+dfsg1-1) date 2019-12-17 05:08:10*
%MOMM*%
%LPD*%
G04 APERTURE LIST*
%ADD10C,0.100000*%
%ADD11C,0.150000*%
%ADD12C,0.175000*%
%ADD13C,0.050000*%
%ADD14C,0.120000*%
%ADD15C,0.127000*%
G04 APERTURE END LIST*
D10*
X20816666Y-38430000D02*
X21350000Y-38430000D01*
X21083333Y-38696666D02*
X21083333Y-38163333D01*
X22050000Y-38696666D02*
X21650000Y-38696666D01*
X21850000Y-38696666D02*
X21850000Y-37996666D01*
X21783333Y-38096666D01*
X21716666Y-38163333D01*
X21650000Y-38196666D01*
X22316666Y-38063333D02*
X22350000Y-38030000D01*
X22416666Y-37996666D01*
X22583333Y-37996666D01*
X22650000Y-38030000D01*
X22683333Y-38063333D01*
X22716666Y-38130000D01*
X22716666Y-38196666D01*
X22683333Y-38296666D01*
X22283333Y-38696666D01*
X22716666Y-38696666D01*
X22916666Y-37996666D02*
X23150000Y-38696666D01*
X23383333Y-37996666D01*
X20650000Y-37030000D02*
X21183333Y-37030000D01*
X20916666Y-37296666D02*
X20916666Y-36763333D01*
X21850000Y-36596666D02*
X21516666Y-36596666D01*
X21483333Y-36930000D01*
X21516666Y-36896666D01*
X21583333Y-36863333D01*
X21750000Y-36863333D01*
X21816666Y-36896666D01*
X21850000Y-36930000D01*
X21883333Y-36996666D01*
X21883333Y-37163333D01*
X21850000Y-37230000D01*
X21816666Y-37263333D01*
X21750000Y-37296666D01*
X21583333Y-37296666D01*
X21516666Y-37263333D01*
X21483333Y-37230000D01*
X22183333Y-37230000D02*
X22216666Y-37263333D01*
X22183333Y-37296666D01*
X22150000Y-37263333D01*
X22183333Y-37230000D01*
X22183333Y-37296666D01*
X22650000Y-36596666D02*
X22716666Y-36596666D01*
X22783333Y-36630000D01*
X22816666Y-36663333D01*
X22850000Y-36730000D01*
X22883333Y-36863333D01*
X22883333Y-37030000D01*
X22850000Y-37163333D01*
X22816666Y-37230000D01*
X22783333Y-37263333D01*
X22716666Y-37296666D01*
X22650000Y-37296666D01*
X22583333Y-37263333D01*
X22550000Y-37230000D01*
X22516666Y-37163333D01*
X22483333Y-37030000D01*
X22483333Y-36863333D01*
X22516666Y-36730000D01*
X22550000Y-36663333D01*
X22583333Y-36630000D01*
X22650000Y-36596666D01*
X23083333Y-36596666D02*
X23316666Y-37296666D01*
X23550000Y-36596666D01*
X20650000Y-35630000D02*
X21183333Y-35630000D01*
X20916666Y-35896666D02*
X20916666Y-35363333D01*
X21450000Y-35196666D02*
X21883333Y-35196666D01*
X21650000Y-35463333D01*
X21750000Y-35463333D01*
X21816666Y-35496666D01*
X21850000Y-35530000D01*
X21883333Y-35596666D01*
X21883333Y-35763333D01*
X21850000Y-35830000D01*
X21816666Y-35863333D01*
X21750000Y-35896666D01*
X21550000Y-35896666D01*
X21483333Y-35863333D01*
X21450000Y-35830000D01*
X22183333Y-35830000D02*
X22216666Y-35863333D01*
X22183333Y-35896666D01*
X22150000Y-35863333D01*
X22183333Y-35830000D01*
X22183333Y-35896666D01*
X22450000Y-35196666D02*
X22883333Y-35196666D01*
X22650000Y-35463333D01*
X22750000Y-35463333D01*
X22816666Y-35496666D01*
X22850000Y-35530000D01*
X22883333Y-35596666D01*
X22883333Y-35763333D01*
X22850000Y-35830000D01*
X22816666Y-35863333D01*
X22750000Y-35896666D01*
X22550000Y-35896666D01*
X22483333Y-35863333D01*
X22450000Y-35830000D01*
X23083333Y-35196666D02*
X23316666Y-35896666D01*
X23550000Y-35196666D01*
X68361904Y-60226190D02*
X68671428Y-60226190D01*
X68504761Y-60416666D01*
X68576190Y-60416666D01*
X68623809Y-60440476D01*
X68647619Y-60464285D01*
X68671428Y-60511904D01*
X68671428Y-60630952D01*
X68647619Y-60678571D01*
X68623809Y-60702380D01*
X68576190Y-60726190D01*
X68433333Y-60726190D01*
X68385714Y-60702380D01*
X68361904Y-60678571D01*
X68885714Y-60678571D02*
X68909523Y-60702380D01*
X68885714Y-60726190D01*
X68861904Y-60702380D01*
X68885714Y-60678571D01*
X68885714Y-60726190D01*
X69076190Y-60226190D02*
X69385714Y-60226190D01*
X69219047Y-60416666D01*
X69290476Y-60416666D01*
X69338095Y-60440476D01*
X69361904Y-60464285D01*
X69385714Y-60511904D01*
X69385714Y-60630952D01*
X69361904Y-60678571D01*
X69338095Y-60702380D01*
X69290476Y-60726190D01*
X69147619Y-60726190D01*
X69100000Y-60702380D01*
X69076190Y-60678571D01*
X69528571Y-60226190D02*
X69695238Y-60726190D01*
X69861904Y-60226190D01*
X66654761Y-60226190D02*
X66416666Y-60226190D01*
X66392857Y-60464285D01*
X66416666Y-60440476D01*
X66464285Y-60416666D01*
X66583333Y-60416666D01*
X66630952Y-60440476D01*
X66654761Y-60464285D01*
X66678571Y-60511904D01*
X66678571Y-60630952D01*
X66654761Y-60678571D01*
X66630952Y-60702380D01*
X66583333Y-60726190D01*
X66464285Y-60726190D01*
X66416666Y-60702380D01*
X66392857Y-60678571D01*
X66821428Y-60226190D02*
X66988095Y-60726190D01*
X67154761Y-60226190D01*
D11*
X30650284Y-45000000D02*
G75*
G03X30650284Y-45000000I-4400284J0D01*
G01*
X78104595Y-45000000D02*
G75*
G03X78104595Y-45000000I-4354595J0D01*
G01*
D10*
X33414761Y-36591190D02*
X33414761Y-36091190D01*
X33533809Y-36091190D01*
X33605238Y-36115000D01*
X33652857Y-36162619D01*
X33676666Y-36210238D01*
X33700476Y-36305476D01*
X33700476Y-36376904D01*
X33676666Y-36472142D01*
X33652857Y-36519761D01*
X33605238Y-36567380D01*
X33533809Y-36591190D01*
X33414761Y-36591190D01*
X34105238Y-36567380D02*
X34057619Y-36591190D01*
X33962380Y-36591190D01*
X33914761Y-36567380D01*
X33890952Y-36519761D01*
X33890952Y-36329285D01*
X33914761Y-36281666D01*
X33962380Y-36257857D01*
X34057619Y-36257857D01*
X34105238Y-36281666D01*
X34129047Y-36329285D01*
X34129047Y-36376904D01*
X33890952Y-36424523D01*
X34319523Y-36567380D02*
X34367142Y-36591190D01*
X34462380Y-36591190D01*
X34510000Y-36567380D01*
X34533809Y-36519761D01*
X34533809Y-36495952D01*
X34510000Y-36448333D01*
X34462380Y-36424523D01*
X34390952Y-36424523D01*
X34343333Y-36400714D01*
X34319523Y-36353095D01*
X34319523Y-36329285D01*
X34343333Y-36281666D01*
X34390952Y-36257857D01*
X34462380Y-36257857D01*
X34510000Y-36281666D01*
X34748095Y-36591190D02*
X34748095Y-36257857D01*
X34748095Y-36091190D02*
X34724285Y-36115000D01*
X34748095Y-36138809D01*
X34771904Y-36115000D01*
X34748095Y-36091190D01*
X34748095Y-36138809D01*
X35200476Y-36257857D02*
X35200476Y-36662619D01*
X35176666Y-36710238D01*
X35152857Y-36734047D01*
X35105238Y-36757857D01*
X35033809Y-36757857D01*
X34986190Y-36734047D01*
X35200476Y-36567380D02*
X35152857Y-36591190D01*
X35057619Y-36591190D01*
X35010000Y-36567380D01*
X34986190Y-36543571D01*
X34962380Y-36495952D01*
X34962380Y-36353095D01*
X34986190Y-36305476D01*
X35010000Y-36281666D01*
X35057619Y-36257857D01*
X35152857Y-36257857D01*
X35200476Y-36281666D01*
X35438571Y-36257857D02*
X35438571Y-36591190D01*
X35438571Y-36305476D02*
X35462380Y-36281666D01*
X35510000Y-36257857D01*
X35581428Y-36257857D01*
X35629047Y-36281666D01*
X35652857Y-36329285D01*
X35652857Y-36591190D01*
X36271904Y-36591190D02*
X36271904Y-36091190D01*
X36271904Y-36281666D02*
X36319523Y-36257857D01*
X36414761Y-36257857D01*
X36462380Y-36281666D01*
X36486190Y-36305476D01*
X36510000Y-36353095D01*
X36510000Y-36495952D01*
X36486190Y-36543571D01*
X36462380Y-36567380D01*
X36414761Y-36591190D01*
X36319523Y-36591190D01*
X36271904Y-36567380D01*
X36676666Y-36257857D02*
X36795714Y-36591190D01*
X36914761Y-36257857D02*
X36795714Y-36591190D01*
X36748095Y-36710238D01*
X36724285Y-36734047D01*
X36676666Y-36757857D01*
X37105238Y-36543571D02*
X37129047Y-36567380D01*
X37105238Y-36591190D01*
X37081428Y-36567380D01*
X37105238Y-36543571D01*
X37105238Y-36591190D01*
X37105238Y-36281666D02*
X37129047Y-36305476D01*
X37105238Y-36329285D01*
X37081428Y-36305476D01*
X37105238Y-36281666D01*
X37105238Y-36329285D01*
X31736190Y-36941190D02*
X31736190Y-37298333D01*
X31712380Y-37369761D01*
X31664761Y-37417380D01*
X31593333Y-37441190D01*
X31545714Y-37441190D01*
X32188571Y-37441190D02*
X32188571Y-37179285D01*
X32164761Y-37131666D01*
X32117142Y-37107857D01*
X32021904Y-37107857D01*
X31974285Y-37131666D01*
X32188571Y-37417380D02*
X32140952Y-37441190D01*
X32021904Y-37441190D01*
X31974285Y-37417380D01*
X31950476Y-37369761D01*
X31950476Y-37322142D01*
X31974285Y-37274523D01*
X32021904Y-37250714D01*
X32140952Y-37250714D01*
X32188571Y-37226904D01*
X32426666Y-37107857D02*
X32426666Y-37441190D01*
X32426666Y-37155476D02*
X32450476Y-37131666D01*
X32498095Y-37107857D01*
X32569523Y-37107857D01*
X32617142Y-37131666D01*
X32640952Y-37179285D01*
X32640952Y-37441190D01*
X33260000Y-37441190D02*
X33260000Y-36941190D01*
X33260000Y-37179285D02*
X33545714Y-37179285D01*
X33545714Y-37441190D02*
X33545714Y-36941190D01*
X33974285Y-37417380D02*
X33926666Y-37441190D01*
X33831428Y-37441190D01*
X33783809Y-37417380D01*
X33760000Y-37369761D01*
X33760000Y-37179285D01*
X33783809Y-37131666D01*
X33831428Y-37107857D01*
X33926666Y-37107857D01*
X33974285Y-37131666D01*
X33998095Y-37179285D01*
X33998095Y-37226904D01*
X33760000Y-37274523D01*
X34212380Y-37107857D02*
X34212380Y-37441190D01*
X34212380Y-37155476D02*
X34236190Y-37131666D01*
X34283809Y-37107857D01*
X34355238Y-37107857D01*
X34402857Y-37131666D01*
X34426666Y-37179285D01*
X34426666Y-37441190D01*
X34664761Y-37441190D02*
X34664761Y-37107857D01*
X34664761Y-37203095D02*
X34688571Y-37155476D01*
X34712380Y-37131666D01*
X34760000Y-37107857D01*
X34807619Y-37107857D01*
X34974285Y-37441190D02*
X34974285Y-37107857D01*
X34974285Y-36941190D02*
X34950476Y-36965000D01*
X34974285Y-36988809D01*
X34998095Y-36965000D01*
X34974285Y-36941190D01*
X34974285Y-36988809D01*
X35212380Y-37441190D02*
X35212380Y-36941190D01*
X35260000Y-37250714D02*
X35402857Y-37441190D01*
X35402857Y-37107857D02*
X35212380Y-37298333D01*
X35998095Y-37441190D02*
X35998095Y-36941190D01*
X35998095Y-37179285D02*
X36283809Y-37179285D01*
X36283809Y-37441190D02*
X36283809Y-36941190D01*
X36712380Y-37417380D02*
X36664761Y-37441190D01*
X36569523Y-37441190D01*
X36521904Y-37417380D01*
X36498095Y-37369761D01*
X36498095Y-37179285D01*
X36521904Y-37131666D01*
X36569523Y-37107857D01*
X36664761Y-37107857D01*
X36712380Y-37131666D01*
X36736190Y-37179285D01*
X36736190Y-37226904D01*
X36498095Y-37274523D01*
X36950476Y-37441190D02*
X36950476Y-37107857D01*
X36950476Y-37155476D02*
X36974285Y-37131666D01*
X37021904Y-37107857D01*
X37093333Y-37107857D01*
X37140952Y-37131666D01*
X37164761Y-37179285D01*
X37164761Y-37441190D01*
X37164761Y-37179285D02*
X37188571Y-37131666D01*
X37236190Y-37107857D01*
X37307619Y-37107857D01*
X37355238Y-37131666D01*
X37379047Y-37179285D01*
X37379047Y-37441190D01*
X37593333Y-37417380D02*
X37640952Y-37441190D01*
X37736190Y-37441190D01*
X37783809Y-37417380D01*
X37807619Y-37369761D01*
X37807619Y-37345952D01*
X37783809Y-37298333D01*
X37736190Y-37274523D01*
X37664761Y-37274523D01*
X37617142Y-37250714D01*
X37593333Y-37203095D01*
X37593333Y-37179285D01*
X37617142Y-37131666D01*
X37664761Y-37107857D01*
X37736190Y-37107857D01*
X37783809Y-37131666D01*
X38021904Y-37441190D02*
X38021904Y-37107857D01*
X38021904Y-36941190D02*
X37998095Y-36965000D01*
X38021904Y-36988809D01*
X38045714Y-36965000D01*
X38021904Y-36941190D01*
X38021904Y-36988809D01*
X38260000Y-37107857D02*
X38260000Y-37441190D01*
X38260000Y-37155476D02*
X38283809Y-37131666D01*
X38331428Y-37107857D01*
X38402857Y-37107857D01*
X38450476Y-37131666D01*
X38474285Y-37179285D01*
X38474285Y-37441190D01*
X38926666Y-37107857D02*
X38926666Y-37512619D01*
X38902857Y-37560238D01*
X38879047Y-37584047D01*
X38831428Y-37607857D01*
X38760000Y-37607857D01*
X38712380Y-37584047D01*
X38926666Y-37417380D02*
X38879047Y-37441190D01*
X38783809Y-37441190D01*
X38736190Y-37417380D01*
X38712380Y-37393571D01*
X38688571Y-37345952D01*
X38688571Y-37203095D01*
X38712380Y-37155476D01*
X38736190Y-37131666D01*
X38783809Y-37107857D01*
X38879047Y-37107857D01*
X38926666Y-37131666D01*
X32680000Y-34660952D02*
X32680000Y-34984761D01*
X32699047Y-35022857D01*
X32718095Y-35041904D01*
X32756190Y-35060952D01*
X32832380Y-35060952D01*
X32870476Y-35041904D01*
X32889523Y-35022857D01*
X32908571Y-34984761D01*
X32908571Y-34660952D01*
X33080000Y-34946666D02*
X33270476Y-34946666D01*
X33041904Y-35060952D02*
X33175238Y-34660952D01*
X33308571Y-35060952D01*
X33670476Y-35060952D02*
X33537142Y-34870476D01*
X33441904Y-35060952D02*
X33441904Y-34660952D01*
X33594285Y-34660952D01*
X33632380Y-34680000D01*
X33651428Y-34699047D01*
X33670476Y-34737142D01*
X33670476Y-34794285D01*
X33651428Y-34832380D01*
X33632380Y-34851428D01*
X33594285Y-34870476D01*
X33441904Y-34870476D01*
X33784761Y-34660952D02*
X34013333Y-34660952D01*
X33899047Y-35060952D02*
X33899047Y-34660952D01*
X34432380Y-34641904D02*
X34089523Y-35156190D01*
X34794285Y-35022857D02*
X34775238Y-35041904D01*
X34718095Y-35060952D01*
X34680000Y-35060952D01*
X34622857Y-35041904D01*
X34584761Y-35003809D01*
X34565714Y-34965714D01*
X34546666Y-34889523D01*
X34546666Y-34832380D01*
X34565714Y-34756190D01*
X34584761Y-34718095D01*
X34622857Y-34680000D01*
X34680000Y-34660952D01*
X34718095Y-34660952D01*
X34775238Y-34680000D01*
X34794285Y-34699047D01*
X34946666Y-34946666D02*
X35137142Y-34946666D01*
X34908571Y-35060952D02*
X35041904Y-34660952D01*
X35175238Y-35060952D01*
X35308571Y-35060952D02*
X35308571Y-34660952D01*
X35537142Y-35060952D01*
X35537142Y-34660952D01*
X36013333Y-34641904D02*
X35670476Y-35156190D01*
X36375238Y-35060952D02*
X36241904Y-34870476D01*
X36146666Y-35060952D02*
X36146666Y-34660952D01*
X36299047Y-34660952D01*
X36337142Y-34680000D01*
X36356190Y-34699047D01*
X36375238Y-34737142D01*
X36375238Y-34794285D01*
X36356190Y-34832380D01*
X36337142Y-34851428D01*
X36299047Y-34870476D01*
X36146666Y-34870476D01*
X36527619Y-35041904D02*
X36584761Y-35060952D01*
X36680000Y-35060952D01*
X36718095Y-35041904D01*
X36737142Y-35022857D01*
X36756190Y-34984761D01*
X36756190Y-34946666D01*
X36737142Y-34908571D01*
X36718095Y-34889523D01*
X36680000Y-34870476D01*
X36603809Y-34851428D01*
X36565714Y-34832380D01*
X36546666Y-34813333D01*
X36527619Y-34775238D01*
X36527619Y-34737142D01*
X36546666Y-34699047D01*
X36565714Y-34680000D01*
X36603809Y-34660952D01*
X36699047Y-34660952D01*
X36756190Y-34680000D01*
X37099047Y-34794285D02*
X37099047Y-35060952D01*
X37003809Y-34641904D02*
X36908571Y-34927619D01*
X37156190Y-34927619D01*
X37365714Y-34832380D02*
X37327619Y-34813333D01*
X37308571Y-34794285D01*
X37289523Y-34756190D01*
X37289523Y-34737142D01*
X37308571Y-34699047D01*
X37327619Y-34680000D01*
X37365714Y-34660952D01*
X37441904Y-34660952D01*
X37480000Y-34680000D01*
X37499047Y-34699047D01*
X37518095Y-34737142D01*
X37518095Y-34756190D01*
X37499047Y-34794285D01*
X37480000Y-34813333D01*
X37441904Y-34832380D01*
X37365714Y-34832380D01*
X37327619Y-34851428D01*
X37308571Y-34870476D01*
X37289523Y-34908571D01*
X37289523Y-34984761D01*
X37308571Y-35022857D01*
X37327619Y-35041904D01*
X37365714Y-35060952D01*
X37441904Y-35060952D01*
X37480000Y-35041904D01*
X37499047Y-35022857D01*
X37518095Y-34984761D01*
X37518095Y-34908571D01*
X37499047Y-34870476D01*
X37480000Y-34851428D01*
X37441904Y-34832380D01*
X37880000Y-34660952D02*
X37689523Y-34660952D01*
X37670476Y-34851428D01*
X37689523Y-34832380D01*
X37727619Y-34813333D01*
X37822857Y-34813333D01*
X37860952Y-34832380D01*
X37880000Y-34851428D01*
X37899047Y-34889523D01*
X37899047Y-34984761D01*
X37880000Y-35022857D01*
X37860952Y-35041904D01*
X37822857Y-35060952D01*
X37727619Y-35060952D01*
X37689523Y-35041904D01*
X37670476Y-35022857D01*
X31775238Y-35646666D02*
X31965714Y-35646666D01*
X31737142Y-35760952D02*
X31870476Y-35360952D01*
X32003809Y-35760952D01*
X32137142Y-35760952D02*
X32137142Y-35360952D01*
X32365714Y-35760952D01*
X32365714Y-35360952D01*
X32537142Y-35646666D02*
X32727619Y-35646666D01*
X32499047Y-35760952D02*
X32632380Y-35360952D01*
X32765714Y-35760952D01*
X33089523Y-35760952D02*
X32899047Y-35760952D01*
X32899047Y-35360952D01*
X33299047Y-35360952D02*
X33375238Y-35360952D01*
X33413333Y-35380000D01*
X33451428Y-35418095D01*
X33470476Y-35494285D01*
X33470476Y-35627619D01*
X33451428Y-35703809D01*
X33413333Y-35741904D01*
X33375238Y-35760952D01*
X33299047Y-35760952D01*
X33260952Y-35741904D01*
X33222857Y-35703809D01*
X33203809Y-35627619D01*
X33203809Y-35494285D01*
X33222857Y-35418095D01*
X33260952Y-35380000D01*
X33299047Y-35360952D01*
X33851428Y-35380000D02*
X33813333Y-35360952D01*
X33756190Y-35360952D01*
X33699047Y-35380000D01*
X33660952Y-35418095D01*
X33641904Y-35456190D01*
X33622857Y-35532380D01*
X33622857Y-35589523D01*
X33641904Y-35665714D01*
X33660952Y-35703809D01*
X33699047Y-35741904D01*
X33756190Y-35760952D01*
X33794285Y-35760952D01*
X33851428Y-35741904D01*
X33870476Y-35722857D01*
X33870476Y-35589523D01*
X33794285Y-35589523D01*
X34327619Y-35341904D02*
X33984761Y-35856190D01*
X34460952Y-35760952D02*
X34460952Y-35360952D01*
X34613333Y-35360952D01*
X34651428Y-35380000D01*
X34670476Y-35399047D01*
X34689523Y-35437142D01*
X34689523Y-35494285D01*
X34670476Y-35532380D01*
X34651428Y-35551428D01*
X34613333Y-35570476D01*
X34460952Y-35570476D01*
X34822857Y-35360952D02*
X34918095Y-35760952D01*
X34994285Y-35475238D01*
X35070476Y-35760952D01*
X35165714Y-35360952D01*
X35318095Y-35760952D02*
X35318095Y-35360952D01*
X35451428Y-35646666D01*
X35584761Y-35360952D01*
X35584761Y-35760952D01*
X36060952Y-35341904D02*
X35718095Y-35856190D01*
X36194285Y-35551428D02*
X36327619Y-35551428D01*
X36384761Y-35760952D02*
X36194285Y-35760952D01*
X36194285Y-35360952D01*
X36384761Y-35360952D01*
X36556190Y-35760952D02*
X36556190Y-35360952D01*
X36784761Y-35760952D01*
X36784761Y-35360952D01*
X37203809Y-35722857D02*
X37184761Y-35741904D01*
X37127619Y-35760952D01*
X37089523Y-35760952D01*
X37032380Y-35741904D01*
X36994285Y-35703809D01*
X36975238Y-35665714D01*
X36956190Y-35589523D01*
X36956190Y-35532380D01*
X36975238Y-35456190D01*
X36994285Y-35418095D01*
X37032380Y-35380000D01*
X37089523Y-35360952D01*
X37127619Y-35360952D01*
X37184761Y-35380000D01*
X37203809Y-35399047D01*
X37451428Y-35360952D02*
X37527619Y-35360952D01*
X37565714Y-35380000D01*
X37603809Y-35418095D01*
X37622857Y-35494285D01*
X37622857Y-35627619D01*
X37603809Y-35703809D01*
X37565714Y-35741904D01*
X37527619Y-35760952D01*
X37451428Y-35760952D01*
X37413333Y-35741904D01*
X37375238Y-35703809D01*
X37356190Y-35627619D01*
X37356190Y-35494285D01*
X37375238Y-35418095D01*
X37413333Y-35380000D01*
X37451428Y-35360952D01*
X37794285Y-35760952D02*
X37794285Y-35360952D01*
X37889523Y-35360952D01*
X37946666Y-35380000D01*
X37984761Y-35418095D01*
X38003809Y-35456190D01*
X38022857Y-35532380D01*
X38022857Y-35589523D01*
X38003809Y-35665714D01*
X37984761Y-35703809D01*
X37946666Y-35741904D01*
X37889523Y-35760952D01*
X37794285Y-35760952D01*
X38194285Y-35551428D02*
X38327619Y-35551428D01*
X38384761Y-35760952D02*
X38194285Y-35760952D01*
X38194285Y-35360952D01*
X38384761Y-35360952D01*
X38784761Y-35760952D02*
X38651428Y-35570476D01*
X38556190Y-35760952D02*
X38556190Y-35360952D01*
X38708571Y-35360952D01*
X38746666Y-35380000D01*
X38765714Y-35399047D01*
X38784761Y-35437142D01*
X38784761Y-35494285D01*
X38765714Y-35532380D01*
X38746666Y-35551428D01*
X38708571Y-35570476D01*
X38556190Y-35570476D01*
D12*
X30976190Y-34135714D02*
X30938095Y-34173809D01*
X30823809Y-34211904D01*
X30747619Y-34211904D01*
X30633333Y-34173809D01*
X30557142Y-34097619D01*
X30519047Y-34021428D01*
X30480952Y-33869047D01*
X30480952Y-33754761D01*
X30519047Y-33602380D01*
X30557142Y-33526190D01*
X30633333Y-33450000D01*
X30747619Y-33411904D01*
X30823809Y-33411904D01*
X30938095Y-33450000D01*
X30976190Y-33488095D01*
X31319047Y-34211904D02*
X31319047Y-33411904D01*
X31623809Y-33411904D01*
X31700000Y-33450000D01*
X31738095Y-33488095D01*
X31776190Y-33564285D01*
X31776190Y-33678571D01*
X31738095Y-33754761D01*
X31700000Y-33792857D01*
X31623809Y-33830952D01*
X31319047Y-33830952D01*
X32119047Y-33411904D02*
X32119047Y-34059523D01*
X32157142Y-34135714D01*
X32195238Y-34173809D01*
X32271428Y-34211904D01*
X32423809Y-34211904D01*
X32500000Y-34173809D01*
X32538095Y-34135714D01*
X32576190Y-34059523D01*
X32576190Y-33411904D01*
X33528571Y-34173809D02*
X33642857Y-34211904D01*
X33833333Y-34211904D01*
X33909523Y-34173809D01*
X33947619Y-34135714D01*
X33985714Y-34059523D01*
X33985714Y-33983333D01*
X33947619Y-33907142D01*
X33909523Y-33869047D01*
X33833333Y-33830952D01*
X33680952Y-33792857D01*
X33604761Y-33754761D01*
X33566666Y-33716666D01*
X33528571Y-33640476D01*
X33528571Y-33564285D01*
X33566666Y-33488095D01*
X33604761Y-33450000D01*
X33680952Y-33411904D01*
X33871428Y-33411904D01*
X33985714Y-33450000D01*
X34214285Y-33411904D02*
X34671428Y-33411904D01*
X34442857Y-34211904D02*
X34442857Y-33411904D01*
X34938095Y-34211904D02*
X34938095Y-33411904D01*
X35204761Y-33983333D01*
X35471428Y-33411904D01*
X35471428Y-34211904D01*
X35776190Y-33411904D02*
X36271428Y-33411904D01*
X36004761Y-33716666D01*
X36119047Y-33716666D01*
X36195238Y-33754761D01*
X36233333Y-33792857D01*
X36271428Y-33869047D01*
X36271428Y-34059523D01*
X36233333Y-34135714D01*
X36195238Y-34173809D01*
X36119047Y-34211904D01*
X35890476Y-34211904D01*
X35814285Y-34173809D01*
X35776190Y-34135714D01*
X36576190Y-33488095D02*
X36614285Y-33450000D01*
X36690476Y-33411904D01*
X36880952Y-33411904D01*
X36957142Y-33450000D01*
X36995238Y-33488095D01*
X37033333Y-33564285D01*
X37033333Y-33640476D01*
X36995238Y-33754761D01*
X36538095Y-34211904D01*
X37033333Y-34211904D01*
X37795238Y-33450000D02*
X37719047Y-33411904D01*
X37604761Y-33411904D01*
X37490476Y-33450000D01*
X37414285Y-33526190D01*
X37376190Y-33602380D01*
X37338095Y-33754761D01*
X37338095Y-33869047D01*
X37376190Y-34021428D01*
X37414285Y-34097619D01*
X37490476Y-34173809D01*
X37604761Y-34211904D01*
X37680952Y-34211904D01*
X37795238Y-34173809D01*
X37833333Y-34135714D01*
X37833333Y-33869047D01*
X37680952Y-33869047D01*
X38519047Y-33678571D02*
X38519047Y-34211904D01*
X38328571Y-33373809D02*
X38138095Y-33945238D01*
X38633333Y-33945238D01*
X38861904Y-33411904D02*
X39357142Y-33411904D01*
X39090476Y-33716666D01*
X39204761Y-33716666D01*
X39280952Y-33754761D01*
X39319047Y-33792857D01*
X39357142Y-33869047D01*
X39357142Y-34059523D01*
X39319047Y-34135714D01*
X39280952Y-34173809D01*
X39204761Y-34211904D01*
X38976190Y-34211904D01*
X38900000Y-34173809D01*
X38861904Y-34135714D01*
X40119047Y-34211904D02*
X39661904Y-34211904D01*
X39890476Y-34211904D02*
X39890476Y-33411904D01*
X39814285Y-33526190D01*
X39738095Y-33602380D01*
X39661904Y-33640476D01*
D13*
X20000000Y-23000000D02*
X80000000Y-23000000D01*
X20000000Y-67000000D02*
X20000000Y-23000000D01*
X80000000Y-67000000D02*
X20000000Y-67000000D01*
X80000000Y-23000000D02*
X80000000Y-67000000D01*
D14*
X46010000Y-27962779D02*
X46010000Y-27637221D01*
X44990000Y-27962779D02*
X44990000Y-27637221D01*
X46510000Y-39192779D02*
X46510000Y-38867221D01*
X45490000Y-39192779D02*
X45490000Y-38867221D01*
X46310000Y-53262779D02*
X46310000Y-52937221D01*
X45290000Y-53262779D02*
X45290000Y-52937221D01*
X41800000Y-41227936D02*
X41800000Y-42432064D01*
X43620000Y-41227936D02*
X43620000Y-42432064D01*
X33330000Y-45997936D02*
X33330000Y-47202064D01*
X35150000Y-45997936D02*
X35150000Y-47202064D01*
X23550000Y-32700000D02*
X23550000Y-30150000D01*
X25250000Y-32700000D02*
X25250000Y-30150000D01*
X23550000Y-32700000D02*
X25250000Y-32700000D01*
X33190000Y-40710000D02*
X33190000Y-44610000D01*
X31190000Y-40710000D02*
X31190000Y-44610000D01*
X33190000Y-40710000D02*
X31190000Y-40710000D01*
X41100000Y-31382779D02*
X41100000Y-31057221D01*
X40080000Y-31382779D02*
X40080000Y-31057221D01*
X38170000Y-31377779D02*
X38170000Y-31052221D01*
X37150000Y-31377779D02*
X37150000Y-31052221D01*
X35265000Y-31382779D02*
X35265000Y-31057221D01*
X34245000Y-31382779D02*
X34245000Y-31057221D01*
X32780000Y-31057221D02*
X32780000Y-31382779D01*
X33800000Y-31057221D02*
X33800000Y-31382779D01*
X35700000Y-31049720D02*
X35700000Y-31375278D01*
X36720000Y-31049720D02*
X36720000Y-31375278D01*
X38610000Y-31054720D02*
X38610000Y-31380278D01*
X39630000Y-31054720D02*
X39630000Y-31380278D01*
X63000000Y-44620000D02*
X64200000Y-44620000D01*
X63000000Y-48620000D02*
X63000000Y-44620000D01*
X67800000Y-44620000D02*
X67800000Y-47320000D01*
X66600000Y-44620000D02*
X67800000Y-44620000D01*
X41505000Y-34130000D02*
X44055000Y-34130000D01*
X41505000Y-35830000D02*
X44055000Y-35830000D01*
X41505000Y-34130000D02*
X41505000Y-35830000D01*
X23210000Y-60127064D02*
X23210000Y-58922936D01*
X21390000Y-60127064D02*
X21390000Y-58922936D01*
X25360000Y-60127064D02*
X25360000Y-58922936D01*
X23540000Y-60127064D02*
X23540000Y-58922936D01*
X55050000Y-44790000D02*
X51600000Y-44790000D01*
X55050000Y-44790000D02*
X57000000Y-44790000D01*
X55050000Y-49910000D02*
X53100000Y-49910000D01*
X55050000Y-49910000D02*
X57000000Y-49910000D01*
X59060000Y-39140000D02*
X59060000Y-40200000D01*
X58000000Y-39140000D02*
X59060000Y-39140000D01*
X57000000Y-39140000D02*
X57000000Y-41260000D01*
X57000000Y-41260000D02*
X46940000Y-41260000D01*
X57000000Y-39140000D02*
X46940000Y-39140000D01*
X46940000Y-39140000D02*
X46940000Y-41260000D01*
X59060000Y-53360000D02*
X59060000Y-54420000D01*
X58000000Y-53360000D02*
X59060000Y-53360000D01*
X57000000Y-53360000D02*
X57000000Y-55480000D01*
X57000000Y-55480000D02*
X46940000Y-55480000D01*
X57000000Y-53360000D02*
X46940000Y-53360000D01*
X46940000Y-53360000D02*
X46940000Y-55480000D01*
X59060000Y-25220000D02*
X59060000Y-26280000D01*
X58000000Y-25220000D02*
X59060000Y-25220000D01*
X57000000Y-25220000D02*
X57000000Y-27340000D01*
X57000000Y-27340000D02*
X46940000Y-27340000D01*
X57000000Y-25220000D02*
X46940000Y-25220000D01*
X46940000Y-25220000D02*
X46940000Y-27340000D01*
X41500000Y-32250000D02*
X44050000Y-32250000D01*
X41500000Y-33950000D02*
X44050000Y-33950000D01*
X41500000Y-32250000D02*
X41500000Y-33950000D01*
X41500000Y-30349999D02*
X44050000Y-30349999D01*
X41500000Y-32049999D02*
X44050000Y-32049999D01*
X41500000Y-30349999D02*
X41500000Y-32049999D01*
X41500000Y-36050000D02*
X44050000Y-36050000D01*
X41500000Y-37750000D02*
X44050000Y-37750000D01*
X41500000Y-36050000D02*
X41500000Y-37750000D01*
X44450000Y-46200000D02*
X44450000Y-48750000D01*
X42750000Y-46200000D02*
X42750000Y-48750000D01*
X44450000Y-46200000D02*
X42750000Y-46200000D01*
X46350000Y-46200000D02*
X46350000Y-48750000D01*
X44650000Y-46200000D02*
X44650000Y-48750000D01*
X46350000Y-46200000D02*
X44650000Y-46200000D01*
X31605000Y-66350000D02*
X37905000Y-66350000D01*
X31605000Y-60150000D02*
X37905000Y-60150000D01*
X51150000Y-30500000D02*
X51150000Y-27950000D01*
X52850000Y-30500000D02*
X52850000Y-27950000D01*
X51150000Y-30500000D02*
X52850000Y-30500000D01*
X49150000Y-30500000D02*
X49150000Y-27950000D01*
X50850000Y-30500000D02*
X50850000Y-27950000D01*
X49150000Y-30500000D02*
X50850000Y-30500000D01*
X51150000Y-44400000D02*
X51150000Y-41850000D01*
X52850000Y-44400000D02*
X52850000Y-41850000D01*
X51150000Y-44400000D02*
X52850000Y-44400000D01*
X49150000Y-44400000D02*
X49150000Y-41850000D01*
X50850000Y-44400000D02*
X50850000Y-41850000D01*
X49150000Y-44400000D02*
X50850000Y-44400000D01*
X51150000Y-58600000D02*
X51150000Y-56050000D01*
X52850000Y-58600000D02*
X52850000Y-56050000D01*
X51150000Y-58600000D02*
X52850000Y-58600000D01*
X49150000Y-58600000D02*
X49150000Y-56050000D01*
X50850000Y-58600000D02*
X50850000Y-56050000D01*
X49150000Y-58600000D02*
X50850000Y-58600000D01*
X49102064Y-31390000D02*
X47897936Y-31390000D01*
X49102064Y-33210000D02*
X47897936Y-33210000D01*
X49502064Y-45290000D02*
X48297936Y-45290000D01*
X49502064Y-47110000D02*
X48297936Y-47110000D01*
X47302064Y-59490000D02*
X46097936Y-59490000D01*
X47302064Y-61310000D02*
X46097936Y-61310000D01*
X78162779Y-28490000D02*
X77837221Y-28490000D01*
X78162779Y-29510000D02*
X77837221Y-29510000D01*
X29862779Y-27840000D02*
X29537221Y-27840000D01*
X29862779Y-28860000D02*
X29537221Y-28860000D01*
X63887221Y-59810000D02*
X64212779Y-59810000D01*
X63887221Y-58790000D02*
X64212779Y-58790000D01*
X67735876Y-28530565D02*
X67400000Y-28194689D01*
X67400000Y-38405311D02*
X67735876Y-38069435D01*
X67064124Y-38069435D02*
X67400000Y-38405311D01*
X62294689Y-33300000D02*
X62630565Y-32964124D01*
X62630565Y-33635876D02*
X62294689Y-33300000D01*
X72505311Y-33300000D02*
X72169435Y-33635876D01*
X72187113Y-32946447D02*
X72522989Y-33282322D01*
X25700000Y-64000000D02*
X25700000Y-58600000D01*
X29000000Y-64000000D02*
X29000000Y-58600000D01*
X25700000Y-64000000D02*
X29000000Y-64000000D01*
X39465000Y-50572936D02*
X39465000Y-51777064D01*
X41285000Y-50572936D02*
X41285000Y-51777064D01*
X28197221Y-36090000D02*
X28522779Y-36090000D01*
X28197221Y-35070000D02*
X28522779Y-35070000D01*
X28187221Y-37500000D02*
X28512779Y-37500000D01*
X28187221Y-36480000D02*
X28512779Y-36480000D01*
X28187221Y-38890000D02*
X28512779Y-38890000D01*
X28187221Y-37870000D02*
X28512779Y-37870000D01*
X22397936Y-64260000D02*
X23602064Y-64260000D01*
X22397936Y-62440000D02*
X23602064Y-62440000D01*
X23925000Y-36315000D02*
X26210000Y-36315000D01*
X23925000Y-34845000D02*
X23925000Y-36315000D01*
X26210000Y-34845000D02*
X23925000Y-34845000D01*
X23925000Y-37715000D02*
X26210000Y-37715000D01*
X23925000Y-36245000D02*
X23925000Y-37715000D01*
X26210000Y-36245000D02*
X23925000Y-36245000D01*
X23925000Y-39115000D02*
X26210000Y-39115000D01*
X23925000Y-37645000D02*
X23925000Y-39115000D01*
X26210000Y-37645000D02*
X23925000Y-37645000D01*
X37240000Y-50572936D02*
X37240000Y-51777064D01*
X39060000Y-50572936D02*
X39060000Y-51777064D01*
X67910000Y-26162779D02*
X67910000Y-25837221D01*
X66890000Y-26162779D02*
X66890000Y-25837221D01*
X50510000Y-36262779D02*
X50510000Y-35937221D01*
X49490000Y-36262779D02*
X49490000Y-35937221D01*
X50710000Y-50262779D02*
X50710000Y-49937221D01*
X49690000Y-50262779D02*
X49690000Y-49937221D01*
X48310000Y-64462779D02*
X48310000Y-64137221D01*
X47290000Y-64462779D02*
X47290000Y-64137221D01*
X46971422Y-37110000D02*
X47488578Y-37110000D01*
X46971422Y-35690000D02*
X47488578Y-35690000D01*
X47441422Y-51210000D02*
X47958578Y-51210000D01*
X47441422Y-49790000D02*
X47958578Y-49790000D01*
X45041422Y-65510000D02*
X45558578Y-65510000D01*
X45041422Y-64090000D02*
X45558578Y-64090000D01*
X63252513Y-30680940D02*
X66080940Y-27852513D01*
X60919060Y-28347487D02*
X63252513Y-30680940D01*
X55237221Y-38660000D02*
X55562779Y-38660000D01*
X55237221Y-37640000D02*
X55562779Y-37640000D01*
X53137221Y-66710000D02*
X53462779Y-66710000D01*
X53137221Y-65690000D02*
X53462779Y-65690000D01*
X55337221Y-52610000D02*
X55662779Y-52610000D01*
X55337221Y-51590000D02*
X55662779Y-51590000D01*
X54800000Y-30890000D02*
X51350000Y-30890000D01*
X54800000Y-30890000D02*
X56750000Y-30890000D01*
X54800000Y-36010000D02*
X52850000Y-36010000D01*
X54800000Y-36010000D02*
X56750000Y-36010000D01*
X52700000Y-59040000D02*
X49250000Y-59040000D01*
X52700000Y-59040000D02*
X54650000Y-59040000D01*
X52700000Y-64160000D02*
X50750000Y-64160000D01*
X52700000Y-64160000D02*
X54650000Y-64160000D01*
X33780000Y-42140000D02*
X37780000Y-42140000D01*
X33780000Y-37940000D02*
X37780000Y-37940000D01*
X36325000Y-56930000D02*
X36325000Y-58030000D01*
X36795000Y-56930000D02*
X36325000Y-56930000D01*
X36795000Y-55430000D02*
X36795000Y-56930000D01*
X30365000Y-56930000D02*
X30365000Y-59760000D01*
X29895000Y-56930000D02*
X30365000Y-56930000D01*
X29895000Y-55430000D02*
X29895000Y-56930000D01*
X65835000Y-66510000D02*
X65835000Y-66060000D01*
X58865000Y-66510000D02*
X65835000Y-66510000D01*
X58865000Y-66060000D02*
X58865000Y-66510000D01*
X65835000Y-62090000D02*
X64885000Y-62090000D01*
X65835000Y-62540000D02*
X65835000Y-62090000D01*
X59815000Y-62090000D02*
X59815000Y-60600000D01*
X58865000Y-62090000D02*
X59815000Y-62090000D01*
X58865000Y-62540000D02*
X58865000Y-62090000D01*
X65880796Y-40215112D02*
X65515112Y-40580796D01*
X66884888Y-41219204D02*
X66519204Y-41584888D01*
X67362779Y-49090000D02*
X67037221Y-49090000D01*
X67362779Y-50110000D02*
X67037221Y-50110000D01*
X64137221Y-50110000D02*
X64462779Y-50110000D01*
X64137221Y-49090000D02*
X64462779Y-49090000D01*
X39727064Y-55840000D02*
X38522936Y-55840000D01*
X39727064Y-57660000D02*
X38522936Y-57660000D01*
X39727064Y-53690000D02*
X38522936Y-53690000D01*
X39727064Y-55510000D02*
X38522936Y-55510000D01*
X53137221Y-65410000D02*
X53462779Y-65410000D01*
X53137221Y-64390000D02*
X53462779Y-64390000D01*
X55237221Y-37360000D02*
X55562779Y-37360000D01*
X55237221Y-36340000D02*
X55562779Y-36340000D01*
X55337221Y-51310000D02*
X55662779Y-51310000D01*
X55337221Y-50290000D02*
X55662779Y-50290000D01*
X39727064Y-57990000D02*
X38522936Y-57990000D01*
X39727064Y-59810000D02*
X38522936Y-59810000D01*
X39962779Y-60240000D02*
X39637221Y-60240000D01*
X39962779Y-61260000D02*
X39637221Y-61260000D01*
X63948412Y-38076786D02*
X63718207Y-38306991D01*
X64669661Y-38798035D02*
X64439456Y-39028240D01*
X64903006Y-39031380D02*
X64672801Y-39261585D01*
X65624255Y-39752629D02*
X65394050Y-39982834D01*
X59262779Y-27990000D02*
X58937221Y-27990000D01*
X59262779Y-29010000D02*
X58937221Y-29010000D01*
X61400000Y-56690000D02*
X58950000Y-56690000D01*
X59600000Y-59910000D02*
X61400000Y-59910000D01*
X29080000Y-29880000D02*
X29080000Y-32330000D01*
X32300000Y-31680000D02*
X32300000Y-29880000D01*
X73000000Y-40010000D02*
X75450000Y-40010000D01*
X74800000Y-36790000D02*
X73000000Y-36790000D01*
X74050000Y-54130000D02*
X74050000Y-50680000D01*
X74050000Y-54130000D02*
X74050000Y-56080000D01*
X68930000Y-54130000D02*
X68930000Y-52180000D01*
X68930000Y-54130000D02*
X68930000Y-56080000D01*
X38090000Y-43790000D02*
X35640000Y-43790000D01*
X36290000Y-47010000D02*
X38090000Y-47010000D01*
X67860000Y-54130000D02*
X67860000Y-50680000D01*
X67860000Y-54130000D02*
X67860000Y-56080000D01*
X62740000Y-54130000D02*
X62740000Y-52180000D01*
X62740000Y-54130000D02*
X62740000Y-56080000D01*
X79150000Y-33750000D02*
X79150000Y-32675000D01*
X73250000Y-33750000D02*
X79150000Y-33750000D01*
X73250000Y-29850000D02*
X79150000Y-29850000D01*
X38350000Y-41739720D02*
X38350000Y-42065278D01*
X39370000Y-41739720D02*
X39370000Y-42065278D01*
X39800000Y-41227937D02*
X39800000Y-42432065D01*
X41620000Y-41227937D02*
X41620000Y-42432065D01*
X36760280Y-42460000D02*
X36434722Y-42460000D01*
X36760280Y-43480000D02*
X36434722Y-43480000D01*
X31850000Y-46617221D02*
X31850000Y-46942779D01*
X32870000Y-46617221D02*
X32870000Y-46942779D01*
X70000000Y-59300000D02*
G75*
G02X69300000Y-60000000I-700000J0D01*
G01*
X69300000Y-58000000D02*
G75*
G02X70000000Y-58700000I0J-700000D01*
G01*
X65900000Y-58700000D02*
G75*
G02X66600000Y-58000000I700000J0D01*
G01*
X66600000Y-60000000D02*
G75*
G02X65900000Y-59300000I0J700000D01*
G01*
X69350000Y-60000000D02*
X66550000Y-60000000D01*
X65900000Y-59300000D02*
X65900000Y-58700000D01*
X66550000Y-58000000D02*
X69350000Y-58000000D01*
X70000000Y-58700000D02*
X70000000Y-59300000D01*
X34060000Y-23340000D02*
X34060000Y-23790000D01*
X42280000Y-23340000D02*
X34060000Y-23340000D01*
X42280000Y-23790000D02*
X42280000Y-23340000D01*
X34060000Y-27760000D02*
X35010000Y-27760000D01*
X34060000Y-27310000D02*
X34060000Y-27760000D01*
X41330000Y-27760000D02*
X41330000Y-29250000D01*
X42280000Y-27760000D02*
X41330000Y-27760000D01*
X42280000Y-27310000D02*
X42280000Y-27760000D01*
X28720000Y-30530000D02*
X28720000Y-31990000D01*
X25560000Y-30530000D02*
X25560000Y-32690000D01*
X25560000Y-30530000D02*
X26490000Y-30530000D01*
X28720000Y-30530000D02*
X27790000Y-30530000D01*
D15*
X76997500Y-34424000D02*
G75*
G03X76045000Y-35376500I0J-952500D01*
G01*
X79855000Y-35376500D02*
G75*
G03X78902500Y-34424000I-952500J0D01*
G01*
X76997500Y-34424000D02*
X78902500Y-34424000D01*
X77226100Y-41243900D02*
G75*
G03X78673900Y-41243900I723900J723900D01*
G01*
X77226100Y-41243900D02*
X76045000Y-40062800D01*
X78673900Y-41243900D02*
X79855000Y-40062800D01*
X76045000Y-35376500D02*
X76045000Y-40062800D01*
X79855000Y-35376500D02*
X79855000Y-40062800D01*
D14*
X53190000Y-28841422D02*
X53190000Y-29358578D01*
X54610000Y-28841422D02*
X54610000Y-29358578D01*
X47380000Y-28841422D02*
X47380000Y-29358578D01*
X48800000Y-28841422D02*
X48800000Y-29358578D01*
X53190000Y-42741422D02*
X53190000Y-43258578D01*
X54610000Y-42741422D02*
X54610000Y-43258578D01*
X47390000Y-42741422D02*
X47390000Y-43258578D01*
X48810000Y-42741422D02*
X48810000Y-43258578D01*
X53190000Y-56941422D02*
X53190000Y-57458578D01*
X54610000Y-56941422D02*
X54610000Y-57458578D01*
X47380000Y-56941422D02*
X47380000Y-57458578D01*
X48800000Y-56941422D02*
X48800000Y-57458578D01*
X22690000Y-56970000D02*
X24810000Y-56970000D01*
X22690000Y-52910000D02*
X22690000Y-56970000D01*
X24810000Y-52910000D02*
X24810000Y-56970000D01*
X22690000Y-52910000D02*
X24810000Y-52910000D01*
X22690000Y-51910000D02*
X22690000Y-50850000D01*
X22690000Y-50850000D02*
X23750000Y-50850000D01*
X78060000Y-50850000D02*
X75940000Y-50850000D01*
X78060000Y-54910000D02*
X78060000Y-50850000D01*
X75940000Y-54910000D02*
X75940000Y-50850000D01*
X78060000Y-54910000D02*
X75940000Y-54910000D01*
X78060000Y-55910000D02*
X78060000Y-56970000D01*
X78060000Y-56970000D02*
X77000000Y-56970000D01*
X71787221Y-59460000D02*
X72112779Y-59460000D01*
X71787221Y-58440000D02*
X72112779Y-58440000D01*
X71680000Y-23230000D02*
X71680000Y-23680000D01*
X77400000Y-23230000D02*
X71680000Y-23230000D01*
X77400000Y-23680000D02*
X77400000Y-23230000D01*
X71680000Y-27650000D02*
X72630000Y-27650000D01*
X71680000Y-27200000D02*
X71680000Y-27650000D01*
X76450000Y-27650000D02*
X76450000Y-29140000D01*
X77400000Y-27650000D02*
X76450000Y-27650000D01*
X77400000Y-27200000D02*
X77400000Y-27650000D01*
X23625000Y-23360000D02*
X23625000Y-23810000D01*
X28095000Y-23360000D02*
X23625000Y-23360000D01*
X28095000Y-23810000D02*
X28095000Y-23360000D01*
X23625000Y-27780000D02*
X24575000Y-27780000D01*
X23625000Y-27330000D02*
X23625000Y-27780000D01*
X27145000Y-27780000D02*
X27145000Y-29270000D01*
X28095000Y-27780000D02*
X27145000Y-27780000D01*
X28095000Y-27330000D02*
X28095000Y-27780000D01*
X77185000Y-66510000D02*
X77185000Y-66060000D01*
X70215000Y-66510000D02*
X77185000Y-66510000D01*
X70215000Y-66060000D02*
X70215000Y-66510000D01*
X77185000Y-62090000D02*
X76235000Y-62090000D01*
X77185000Y-62540000D02*
X77185000Y-62090000D01*
X71165000Y-62090000D02*
X71165000Y-60600000D01*
X70215000Y-62090000D02*
X71165000Y-62090000D01*
X70215000Y-62540000D02*
X70215000Y-62090000D01*
X63675727Y-41154478D02*
X63445522Y-40924273D01*
X62954478Y-41875727D02*
X62724273Y-41645522D01*
X74140000Y-58137221D02*
X74140000Y-58462779D01*
X75160000Y-58137221D02*
X75160000Y-58462779D01*
X30235000Y-59962779D02*
X30235000Y-59637221D01*
X29215000Y-59962779D02*
X29215000Y-59637221D01*
X51837221Y-24760000D02*
X52162779Y-24760000D01*
X51837221Y-23740000D02*
X52162779Y-23740000D01*
X48637221Y-24810000D02*
X48962779Y-24810000D01*
X48637221Y-23790000D02*
X48962779Y-23790000D01*
X51937221Y-38710000D02*
X52262779Y-38710000D01*
X51937221Y-37690000D02*
X52262779Y-37690000D01*
X48637221Y-38710000D02*
X48962779Y-38710000D01*
X48637221Y-37690000D02*
X48962779Y-37690000D01*
X62410000Y-52412779D02*
X62410000Y-52087221D01*
X61390000Y-52412779D02*
X61390000Y-52087221D01*
X73337221Y-35910000D02*
X73662779Y-35910000D01*
X73337221Y-34890000D02*
X73662779Y-34890000D01*
X68795522Y-41475727D02*
X69025727Y-41245522D01*
X68074273Y-40754478D02*
X68304478Y-40524273D01*
X51837221Y-52910000D02*
X52162779Y-52910000D01*
X51837221Y-51890000D02*
X52162779Y-51890000D01*
X48637221Y-52910000D02*
X48962779Y-52910000D01*
X48637221Y-51890000D02*
X48962779Y-51890000D01*
D11*
X54772142Y-26122380D02*
X54438809Y-25646190D01*
X54200714Y-26122380D02*
X54200714Y-25122380D01*
X54581666Y-25122380D01*
X54676904Y-25170000D01*
X54724523Y-25217619D01*
X54772142Y-25312857D01*
X54772142Y-25455714D01*
X54724523Y-25550952D01*
X54676904Y-25598571D01*
X54581666Y-25646190D01*
X54200714Y-25646190D01*
X55629285Y-25455714D02*
X55629285Y-26122380D01*
X55391190Y-25074761D02*
X55153095Y-25789047D01*
X55772142Y-25789047D01*
X56105476Y-25217619D02*
X56153095Y-25170000D01*
X56248333Y-25122380D01*
X56486428Y-25122380D01*
X56581666Y-25170000D01*
X56629285Y-25217619D01*
X56676904Y-25312857D01*
X56676904Y-25408095D01*
X56629285Y-25550952D01*
X56057857Y-26122380D01*
X56676904Y-26122380D01*
X55257142Y-43422380D02*
X54923809Y-42946190D01*
X54685714Y-43422380D02*
X54685714Y-42422380D01*
X55066666Y-42422380D01*
X55161904Y-42470000D01*
X55209523Y-42517619D01*
X55257142Y-42612857D01*
X55257142Y-42755714D01*
X55209523Y-42850952D01*
X55161904Y-42898571D01*
X55066666Y-42946190D01*
X54685714Y-42946190D01*
X56114285Y-42755714D02*
X56114285Y-43422380D01*
X55876190Y-42374761D02*
X55638095Y-43089047D01*
X56257142Y-43089047D01*
X57161904Y-43422380D02*
X56590476Y-43422380D01*
X56876190Y-43422380D02*
X56876190Y-42422380D01*
X56780952Y-42565238D01*
X56685714Y-42660476D01*
X56590476Y-42708095D01*
X57457142Y-54022380D02*
X57123809Y-53546190D01*
X56885714Y-54022380D02*
X56885714Y-53022380D01*
X57266666Y-53022380D01*
X57361904Y-53070000D01*
X57409523Y-53117619D01*
X57457142Y-53212857D01*
X57457142Y-53355714D01*
X57409523Y-53450952D01*
X57361904Y-53498571D01*
X57266666Y-53546190D01*
X56885714Y-53546190D01*
X58314285Y-53355714D02*
X58314285Y-54022380D01*
X58076190Y-52974761D02*
X57838095Y-53689047D01*
X58457142Y-53689047D01*
X59028571Y-53022380D02*
X59123809Y-53022380D01*
X59219047Y-53070000D01*
X59266666Y-53117619D01*
X59314285Y-53212857D01*
X59361904Y-53403333D01*
X59361904Y-53641428D01*
X59314285Y-53831904D01*
X59266666Y-53927142D01*
X59219047Y-53974761D01*
X59123809Y-54022380D01*
X59028571Y-54022380D01*
X58933333Y-53974761D01*
X58885714Y-53927142D01*
X58838095Y-53831904D01*
X58790476Y-53641428D01*
X58790476Y-53403333D01*
X58838095Y-53212857D01*
X58885714Y-53117619D01*
X58933333Y-53070000D01*
X59028571Y-53022380D01*
X60152864Y-30337997D02*
X60253879Y-29765578D01*
X59748803Y-29933936D02*
X60455910Y-29226830D01*
X60725284Y-29496204D01*
X60758956Y-29597219D01*
X60758956Y-29664562D01*
X60725284Y-29765578D01*
X60624269Y-29866593D01*
X60523253Y-29900265D01*
X60455910Y-29900265D01*
X60354895Y-29866593D01*
X60085521Y-29597219D01*
X61095673Y-29866593D02*
X61533406Y-30304326D01*
X61028330Y-30337997D01*
X61129345Y-30439013D01*
X61163017Y-30540028D01*
X61163017Y-30607372D01*
X61129345Y-30708387D01*
X60960986Y-30876746D01*
X60859971Y-30910417D01*
X60792627Y-30910417D01*
X60691612Y-30876746D01*
X60489582Y-30674715D01*
X60455910Y-30573700D01*
X60455910Y-30506356D01*
X62139498Y-30910417D02*
X62004811Y-30775730D01*
X61903795Y-30742059D01*
X61836452Y-30742059D01*
X61668093Y-30775730D01*
X61499734Y-30876746D01*
X61230360Y-31146120D01*
X61196689Y-31247135D01*
X61196689Y-31314478D01*
X61230360Y-31415494D01*
X61365047Y-31550181D01*
X61466063Y-31583852D01*
X61533406Y-31583852D01*
X61634421Y-31550181D01*
X61802780Y-31381822D01*
X61836452Y-31280807D01*
X61836452Y-31213463D01*
X61802780Y-31112448D01*
X61668093Y-30977761D01*
X61567078Y-30944089D01*
X61499734Y-30944089D01*
X61398719Y-30977761D01*
X44522380Y-28442857D02*
X44046190Y-28776190D01*
X44522380Y-29014285D02*
X43522380Y-29014285D01*
X43522380Y-28633333D01*
X43570000Y-28538095D01*
X43617619Y-28490476D01*
X43712857Y-28442857D01*
X43855714Y-28442857D01*
X43950952Y-28490476D01*
X43998571Y-28538095D01*
X44046190Y-28633333D01*
X44046190Y-29014285D01*
X43522380Y-28109523D02*
X43522380Y-27490476D01*
X43903333Y-27823809D01*
X43903333Y-27680952D01*
X43950952Y-27585714D01*
X43998571Y-27538095D01*
X44093809Y-27490476D01*
X44331904Y-27490476D01*
X44427142Y-27538095D01*
X44474761Y-27585714D01*
X44522380Y-27680952D01*
X44522380Y-27966666D01*
X44474761Y-28061904D01*
X44427142Y-28109523D01*
X43522380Y-26871428D02*
X43522380Y-26776190D01*
X43570000Y-26680952D01*
X43617619Y-26633333D01*
X43712857Y-26585714D01*
X43903333Y-26538095D01*
X44141428Y-26538095D01*
X44331904Y-26585714D01*
X44427142Y-26633333D01*
X44474761Y-26680952D01*
X44522380Y-26776190D01*
X44522380Y-26871428D01*
X44474761Y-26966666D01*
X44427142Y-27014285D01*
X44331904Y-27061904D01*
X44141428Y-27109523D01*
X43903333Y-27109523D01*
X43712857Y-27061904D01*
X43617619Y-27014285D01*
X43570000Y-26966666D01*
X43522380Y-26871428D01*
X45022380Y-39672857D02*
X44546190Y-40006190D01*
X45022380Y-40244285D02*
X44022380Y-40244285D01*
X44022380Y-39863333D01*
X44070000Y-39768095D01*
X44117619Y-39720476D01*
X44212857Y-39672857D01*
X44355714Y-39672857D01*
X44450952Y-39720476D01*
X44498571Y-39768095D01*
X44546190Y-39863333D01*
X44546190Y-40244285D01*
X44117619Y-39291904D02*
X44070000Y-39244285D01*
X44022380Y-39149047D01*
X44022380Y-38910952D01*
X44070000Y-38815714D01*
X44117619Y-38768095D01*
X44212857Y-38720476D01*
X44308095Y-38720476D01*
X44450952Y-38768095D01*
X45022380Y-39339523D01*
X45022380Y-38720476D01*
X44022380Y-37815714D02*
X44022380Y-38291904D01*
X44498571Y-38339523D01*
X44450952Y-38291904D01*
X44403333Y-38196666D01*
X44403333Y-37958571D01*
X44450952Y-37863333D01*
X44498571Y-37815714D01*
X44593809Y-37768095D01*
X44831904Y-37768095D01*
X44927142Y-37815714D01*
X44974761Y-37863333D01*
X45022380Y-37958571D01*
X45022380Y-38196666D01*
X44974761Y-38291904D01*
X44927142Y-38339523D01*
X44822380Y-53742857D02*
X44346190Y-54076190D01*
X44822380Y-54314285D02*
X43822380Y-54314285D01*
X43822380Y-53933333D01*
X43870000Y-53838095D01*
X43917619Y-53790476D01*
X44012857Y-53742857D01*
X44155714Y-53742857D01*
X44250952Y-53790476D01*
X44298571Y-53838095D01*
X44346190Y-53933333D01*
X44346190Y-54314285D01*
X43917619Y-53361904D02*
X43870000Y-53314285D01*
X43822380Y-53219047D01*
X43822380Y-52980952D01*
X43870000Y-52885714D01*
X43917619Y-52838095D01*
X44012857Y-52790476D01*
X44108095Y-52790476D01*
X44250952Y-52838095D01*
X44822380Y-53409523D01*
X44822380Y-52790476D01*
X43822380Y-52457142D02*
X43822380Y-51838095D01*
X44203333Y-52171428D01*
X44203333Y-52028571D01*
X44250952Y-51933333D01*
X44298571Y-51885714D01*
X44393809Y-51838095D01*
X44631904Y-51838095D01*
X44727142Y-51885714D01*
X44774761Y-51933333D01*
X44822380Y-52028571D01*
X44822380Y-52314285D01*
X44774761Y-52409523D01*
X44727142Y-52457142D01*
X21257142Y-49082380D02*
X20923809Y-48606190D01*
X20685714Y-49082380D02*
X20685714Y-48082380D01*
X21066666Y-48082380D01*
X21161904Y-48130000D01*
X21209523Y-48177619D01*
X21257142Y-48272857D01*
X21257142Y-48415714D01*
X21209523Y-48510952D01*
X21161904Y-48558571D01*
X21066666Y-48606190D01*
X20685714Y-48606190D01*
X22209523Y-49082380D02*
X21638095Y-49082380D01*
X21923809Y-49082380D02*
X21923809Y-48082380D01*
X21828571Y-48225238D01*
X21733333Y-48320476D01*
X21638095Y-48368095D01*
X22542857Y-48082380D02*
X23209523Y-48082380D01*
X22780952Y-49082380D01*
X56757142Y-23782380D02*
X56423809Y-23306190D01*
X56185714Y-23782380D02*
X56185714Y-22782380D01*
X56566666Y-22782380D01*
X56661904Y-22830000D01*
X56709523Y-22877619D01*
X56757142Y-22972857D01*
X56757142Y-23115714D01*
X56709523Y-23210952D01*
X56661904Y-23258571D01*
X56566666Y-23306190D01*
X56185714Y-23306190D01*
X57709523Y-23782380D02*
X57138095Y-23782380D01*
X57423809Y-23782380D02*
X57423809Y-22782380D01*
X57328571Y-22925238D01*
X57233333Y-23020476D01*
X57138095Y-23068095D01*
X58566666Y-22782380D02*
X58376190Y-22782380D01*
X58280952Y-22830000D01*
X58233333Y-22877619D01*
X58138095Y-23020476D01*
X58090476Y-23210952D01*
X58090476Y-23591904D01*
X58138095Y-23687142D01*
X58185714Y-23734761D01*
X58280952Y-23782380D01*
X58471428Y-23782380D01*
X58566666Y-23734761D01*
X58614285Y-23687142D01*
X58661904Y-23591904D01*
X58661904Y-23353809D01*
X58614285Y-23258571D01*
X58566666Y-23210952D01*
X58471428Y-23163333D01*
X58280952Y-23163333D01*
X58185714Y-23210952D01*
X58138095Y-23258571D01*
X58090476Y-23353809D01*
X60037997Y-36547135D02*
X59465578Y-36446120D01*
X59633936Y-36951196D02*
X58926830Y-36244089D01*
X59196204Y-35974715D01*
X59297219Y-35941043D01*
X59364562Y-35941043D01*
X59465578Y-35974715D01*
X59566593Y-36075730D01*
X59600265Y-36176746D01*
X59600265Y-36244089D01*
X59566593Y-36345104D01*
X59297219Y-36614478D01*
X60711433Y-35873700D02*
X60307372Y-36277761D01*
X60509402Y-36075730D02*
X59802295Y-35368623D01*
X59835967Y-35536982D01*
X59835967Y-35671669D01*
X59802295Y-35772685D01*
X60644089Y-34526830D02*
X60307372Y-34863547D01*
X60610417Y-35233936D01*
X60610417Y-35166593D01*
X60644089Y-35065578D01*
X60812448Y-34897219D01*
X60913463Y-34863547D01*
X60980807Y-34863547D01*
X61081822Y-34897219D01*
X61250181Y-35065578D01*
X61283852Y-35166593D01*
X61283852Y-35233936D01*
X61250181Y-35334952D01*
X61081822Y-35503310D01*
X60980807Y-35536982D01*
X60913463Y-35536982D01*
X60392627Y-38001765D02*
X59820208Y-37900750D01*
X59988566Y-38405826D02*
X59281460Y-37698719D01*
X59550834Y-37429345D01*
X59651849Y-37395673D01*
X59719192Y-37395673D01*
X59820208Y-37429345D01*
X59921223Y-37530360D01*
X59954895Y-37631376D01*
X59954895Y-37698719D01*
X59921223Y-37799734D01*
X59651849Y-38069108D01*
X61066063Y-37328330D02*
X60662002Y-37732391D01*
X60864032Y-37530360D02*
X60156925Y-36823253D01*
X60190597Y-36991612D01*
X60190597Y-37126299D01*
X60156925Y-37227315D01*
X61200750Y-36250834D02*
X61672154Y-36722238D01*
X60763017Y-36149818D02*
X61099734Y-36823253D01*
X61537467Y-36385521D01*
X61974715Y-37810417D02*
X61402295Y-37709402D01*
X61570654Y-38214478D02*
X60863547Y-37507372D01*
X61132921Y-37237997D01*
X61233936Y-37204326D01*
X61301280Y-37204326D01*
X61402295Y-37237997D01*
X61503310Y-37339013D01*
X61536982Y-37440028D01*
X61536982Y-37507372D01*
X61503310Y-37608387D01*
X61233936Y-37877761D01*
X62311433Y-37473700D02*
X62446120Y-37339013D01*
X62479791Y-37237997D01*
X62479791Y-37170654D01*
X62446120Y-37002295D01*
X62345104Y-36833936D01*
X62075730Y-36564562D01*
X61974715Y-36530891D01*
X61907372Y-36530891D01*
X61806356Y-36564562D01*
X61671669Y-36699249D01*
X61637997Y-36800265D01*
X61637997Y-36867608D01*
X61671669Y-36968623D01*
X61840028Y-37136982D01*
X61941043Y-37170654D01*
X62008387Y-37170654D01*
X62109402Y-37136982D01*
X62244089Y-37002295D01*
X62277761Y-36901280D01*
X62277761Y-36833936D01*
X62244089Y-36732921D01*
X61633333Y-41382380D02*
X61300000Y-40906190D01*
X61061904Y-41382380D02*
X61061904Y-40382380D01*
X61442857Y-40382380D01*
X61538095Y-40430000D01*
X61585714Y-40477619D01*
X61633333Y-40572857D01*
X61633333Y-40715714D01*
X61585714Y-40810952D01*
X61538095Y-40858571D01*
X61442857Y-40906190D01*
X61061904Y-40906190D01*
X62204761Y-40810952D02*
X62109523Y-40763333D01*
X62061904Y-40715714D01*
X62014285Y-40620476D01*
X62014285Y-40572857D01*
X62061904Y-40477619D01*
X62109523Y-40430000D01*
X62204761Y-40382380D01*
X62395238Y-40382380D01*
X62490476Y-40430000D01*
X62538095Y-40477619D01*
X62585714Y-40572857D01*
X62585714Y-40620476D01*
X62538095Y-40715714D01*
X62490476Y-40763333D01*
X62395238Y-40810952D01*
X62204761Y-40810952D01*
X62109523Y-40858571D01*
X62061904Y-40906190D01*
X62014285Y-41001428D01*
X62014285Y-41191904D01*
X62061904Y-41287142D01*
X62109523Y-41334761D01*
X62204761Y-41382380D01*
X62395238Y-41382380D01*
X62490476Y-41334761D01*
X62538095Y-41287142D01*
X62585714Y-41191904D01*
X62585714Y-41001428D01*
X62538095Y-40906190D01*
X62490476Y-40858571D01*
X62395238Y-40810952D01*
X20882380Y-54016666D02*
X20406190Y-54350000D01*
X20882380Y-54588095D02*
X19882380Y-54588095D01*
X19882380Y-54207142D01*
X19930000Y-54111904D01*
X19977619Y-54064285D01*
X20072857Y-54016666D01*
X20215714Y-54016666D01*
X20310952Y-54064285D01*
X20358571Y-54111904D01*
X20406190Y-54207142D01*
X20406190Y-54588095D01*
X19882380Y-53159523D02*
X19882380Y-53350000D01*
X19930000Y-53445238D01*
X19977619Y-53492857D01*
X20120476Y-53588095D01*
X20310952Y-53635714D01*
X20691904Y-53635714D01*
X20787142Y-53588095D01*
X20834761Y-53540476D01*
X20882380Y-53445238D01*
X20882380Y-53254761D01*
X20834761Y-53159523D01*
X20787142Y-53111904D01*
X20691904Y-53064285D01*
X20453809Y-53064285D01*
X20358571Y-53111904D01*
X20310952Y-53159523D01*
X20263333Y-53254761D01*
X20263333Y-53445238D01*
X20310952Y-53540476D01*
X20358571Y-53588095D01*
X20453809Y-53635714D01*
D10*
X42408571Y-39558571D02*
X42384761Y-39582380D01*
X42313333Y-39606190D01*
X42265714Y-39606190D01*
X42194285Y-39582380D01*
X42146666Y-39534761D01*
X42122857Y-39487142D01*
X42099047Y-39391904D01*
X42099047Y-39320476D01*
X42122857Y-39225238D01*
X42146666Y-39177619D01*
X42194285Y-39130000D01*
X42265714Y-39106190D01*
X42313333Y-39106190D01*
X42384761Y-39130000D01*
X42408571Y-39153809D01*
X42860952Y-39106190D02*
X42622857Y-39106190D01*
X42599047Y-39344285D01*
X42622857Y-39320476D01*
X42670476Y-39296666D01*
X42789523Y-39296666D01*
X42837142Y-39320476D01*
X42860952Y-39344285D01*
X42884761Y-39391904D01*
X42884761Y-39510952D01*
X42860952Y-39558571D01*
X42837142Y-39582380D01*
X42789523Y-39606190D01*
X42670476Y-39606190D01*
X42622857Y-39582380D01*
X42599047Y-39558571D01*
X43170476Y-39320476D02*
X43122857Y-39296666D01*
X43099047Y-39272857D01*
X43075238Y-39225238D01*
X43075238Y-39201428D01*
X43099047Y-39153809D01*
X43122857Y-39130000D01*
X43170476Y-39106190D01*
X43265714Y-39106190D01*
X43313333Y-39130000D01*
X43337142Y-39153809D01*
X43360952Y-39201428D01*
X43360952Y-39225238D01*
X43337142Y-39272857D01*
X43313333Y-39296666D01*
X43265714Y-39320476D01*
X43170476Y-39320476D01*
X43122857Y-39344285D01*
X43099047Y-39368095D01*
X43075238Y-39415714D01*
X43075238Y-39510952D01*
X43099047Y-39558571D01*
X43122857Y-39582380D01*
X43170476Y-39606190D01*
X43265714Y-39606190D01*
X43313333Y-39582380D01*
X43337142Y-39558571D01*
X43360952Y-39510952D01*
X43360952Y-39415714D01*
X43337142Y-39368095D01*
X43313333Y-39344285D01*
X43265714Y-39320476D01*
X33908571Y-44178571D02*
X33884761Y-44202380D01*
X33813333Y-44226190D01*
X33765714Y-44226190D01*
X33694285Y-44202380D01*
X33646666Y-44154761D01*
X33622857Y-44107142D01*
X33599047Y-44011904D01*
X33599047Y-43940476D01*
X33622857Y-43845238D01*
X33646666Y-43797619D01*
X33694285Y-43750000D01*
X33765714Y-43726190D01*
X33813333Y-43726190D01*
X33884761Y-43750000D01*
X33908571Y-43773809D01*
X34360952Y-43726190D02*
X34122857Y-43726190D01*
X34099047Y-43964285D01*
X34122857Y-43940476D01*
X34170476Y-43916666D01*
X34289523Y-43916666D01*
X34337142Y-43940476D01*
X34360952Y-43964285D01*
X34384761Y-44011904D01*
X34384761Y-44130952D01*
X34360952Y-44178571D01*
X34337142Y-44202380D01*
X34289523Y-44226190D01*
X34170476Y-44226190D01*
X34122857Y-44202380D01*
X34099047Y-44178571D01*
X34551428Y-43726190D02*
X34884761Y-43726190D01*
X34670476Y-44226190D01*
X23853571Y-33303571D02*
X23853571Y-32853571D01*
X23960714Y-32853571D01*
X24025000Y-32875000D01*
X24067857Y-32917857D01*
X24089285Y-32960714D01*
X24110714Y-33046428D01*
X24110714Y-33110714D01*
X24089285Y-33196428D01*
X24067857Y-33239285D01*
X24025000Y-33282142D01*
X23960714Y-33303571D01*
X23853571Y-33303571D01*
X24539285Y-33303571D02*
X24282142Y-33303571D01*
X24410714Y-33303571D02*
X24410714Y-32853571D01*
X24367857Y-32917857D01*
X24325000Y-32960714D01*
X24282142Y-32982142D01*
X24946428Y-32853571D02*
X24732142Y-32853571D01*
X24710714Y-33067857D01*
X24732142Y-33046428D01*
X24775000Y-33025000D01*
X24882142Y-33025000D01*
X24925000Y-33046428D01*
X24946428Y-33067857D01*
X24967857Y-33110714D01*
X24967857Y-33217857D01*
X24946428Y-33260714D01*
X24925000Y-33282142D01*
X24882142Y-33303571D01*
X24775000Y-33303571D01*
X24732142Y-33282142D01*
X24710714Y-33260714D01*
X31693571Y-43163571D02*
X31693571Y-42713571D01*
X31800714Y-42713571D01*
X31865000Y-42735000D01*
X31907857Y-42777857D01*
X31929285Y-42820714D01*
X31950714Y-42906428D01*
X31950714Y-42970714D01*
X31929285Y-43056428D01*
X31907857Y-43099285D01*
X31865000Y-43142142D01*
X31800714Y-43163571D01*
X31693571Y-43163571D01*
X32379285Y-43163571D02*
X32122142Y-43163571D01*
X32250714Y-43163571D02*
X32250714Y-42713571D01*
X32207857Y-42777857D01*
X32165000Y-42820714D01*
X32122142Y-42842142D01*
X32765000Y-42863571D02*
X32765000Y-43163571D01*
X32657857Y-42692142D02*
X32550714Y-43013571D01*
X32829285Y-43013571D01*
X40310714Y-29853571D02*
X40160714Y-29639285D01*
X40053571Y-29853571D02*
X40053571Y-29403571D01*
X40225000Y-29403571D01*
X40267857Y-29425000D01*
X40289285Y-29446428D01*
X40310714Y-29489285D01*
X40310714Y-29553571D01*
X40289285Y-29596428D01*
X40267857Y-29617857D01*
X40225000Y-29639285D01*
X40053571Y-29639285D01*
X40460714Y-29403571D02*
X40739285Y-29403571D01*
X40589285Y-29575000D01*
X40653571Y-29575000D01*
X40696428Y-29596428D01*
X40717857Y-29617857D01*
X40739285Y-29660714D01*
X40739285Y-29767857D01*
X40717857Y-29810714D01*
X40696428Y-29832142D01*
X40653571Y-29853571D01*
X40525000Y-29853571D01*
X40482142Y-29832142D01*
X40460714Y-29810714D01*
X41146428Y-29403571D02*
X40932142Y-29403571D01*
X40910714Y-29617857D01*
X40932142Y-29596428D01*
X40975000Y-29575000D01*
X41082142Y-29575000D01*
X41125000Y-29596428D01*
X41146428Y-29617857D01*
X41167857Y-29660714D01*
X41167857Y-29767857D01*
X41146428Y-29810714D01*
X41125000Y-29832142D01*
X41082142Y-29853571D01*
X40975000Y-29853571D01*
X40932142Y-29832142D01*
X40910714Y-29810714D01*
X37360714Y-29853571D02*
X37210714Y-29639285D01*
X37103571Y-29853571D02*
X37103571Y-29403571D01*
X37275000Y-29403571D01*
X37317857Y-29425000D01*
X37339285Y-29446428D01*
X37360714Y-29489285D01*
X37360714Y-29553571D01*
X37339285Y-29596428D01*
X37317857Y-29617857D01*
X37275000Y-29639285D01*
X37103571Y-29639285D01*
X37510714Y-29403571D02*
X37789285Y-29403571D01*
X37639285Y-29575000D01*
X37703571Y-29575000D01*
X37746428Y-29596428D01*
X37767857Y-29617857D01*
X37789285Y-29660714D01*
X37789285Y-29767857D01*
X37767857Y-29810714D01*
X37746428Y-29832142D01*
X37703571Y-29853571D01*
X37575000Y-29853571D01*
X37532142Y-29832142D01*
X37510714Y-29810714D01*
X38175000Y-29553571D02*
X38175000Y-29853571D01*
X38067857Y-29382142D02*
X37960714Y-29703571D01*
X38239285Y-29703571D01*
X34460714Y-29803571D02*
X34310714Y-29589285D01*
X34203571Y-29803571D02*
X34203571Y-29353571D01*
X34375000Y-29353571D01*
X34417857Y-29375000D01*
X34439285Y-29396428D01*
X34460714Y-29439285D01*
X34460714Y-29503571D01*
X34439285Y-29546428D01*
X34417857Y-29567857D01*
X34375000Y-29589285D01*
X34203571Y-29589285D01*
X34610714Y-29353571D02*
X34889285Y-29353571D01*
X34739285Y-29525000D01*
X34803571Y-29525000D01*
X34846428Y-29546428D01*
X34867857Y-29567857D01*
X34889285Y-29610714D01*
X34889285Y-29717857D01*
X34867857Y-29760714D01*
X34846428Y-29782142D01*
X34803571Y-29803571D01*
X34675000Y-29803571D01*
X34632142Y-29782142D01*
X34610714Y-29760714D01*
X35039285Y-29353571D02*
X35317857Y-29353571D01*
X35167857Y-29525000D01*
X35232142Y-29525000D01*
X35275000Y-29546428D01*
X35296428Y-29567857D01*
X35317857Y-29610714D01*
X35317857Y-29717857D01*
X35296428Y-29760714D01*
X35275000Y-29782142D01*
X35232142Y-29803571D01*
X35103571Y-29803571D01*
X35060714Y-29782142D01*
X35039285Y-29760714D01*
X33010714Y-29803571D02*
X32860714Y-29589285D01*
X32753571Y-29803571D02*
X32753571Y-29353571D01*
X32925000Y-29353571D01*
X32967857Y-29375000D01*
X32989285Y-29396428D01*
X33010714Y-29439285D01*
X33010714Y-29503571D01*
X32989285Y-29546428D01*
X32967857Y-29567857D01*
X32925000Y-29589285D01*
X32753571Y-29589285D01*
X33182142Y-29396428D02*
X33203571Y-29375000D01*
X33246428Y-29353571D01*
X33353571Y-29353571D01*
X33396428Y-29375000D01*
X33417857Y-29396428D01*
X33439285Y-29439285D01*
X33439285Y-29482142D01*
X33417857Y-29546428D01*
X33160714Y-29803571D01*
X33439285Y-29803571D01*
X33653571Y-29803571D02*
X33739285Y-29803571D01*
X33782142Y-29782142D01*
X33803571Y-29760714D01*
X33846428Y-29696428D01*
X33867857Y-29610714D01*
X33867857Y-29439285D01*
X33846428Y-29396428D01*
X33825000Y-29375000D01*
X33782142Y-29353571D01*
X33696428Y-29353571D01*
X33653571Y-29375000D01*
X33632142Y-29396428D01*
X33610714Y-29439285D01*
X33610714Y-29546428D01*
X33632142Y-29589285D01*
X33653571Y-29610714D01*
X33696428Y-29632142D01*
X33782142Y-29632142D01*
X33825000Y-29610714D01*
X33846428Y-29589285D01*
X33867857Y-29546428D01*
X35960714Y-29853571D02*
X35810714Y-29639285D01*
X35703571Y-29853571D02*
X35703571Y-29403571D01*
X35875000Y-29403571D01*
X35917857Y-29425000D01*
X35939285Y-29446428D01*
X35960714Y-29489285D01*
X35960714Y-29553571D01*
X35939285Y-29596428D01*
X35917857Y-29617857D01*
X35875000Y-29639285D01*
X35703571Y-29639285D01*
X36132142Y-29446428D02*
X36153571Y-29425000D01*
X36196428Y-29403571D01*
X36303571Y-29403571D01*
X36346428Y-29425000D01*
X36367857Y-29446428D01*
X36389285Y-29489285D01*
X36389285Y-29532142D01*
X36367857Y-29596428D01*
X36110714Y-29853571D01*
X36389285Y-29853571D01*
X36646428Y-29596428D02*
X36603571Y-29575000D01*
X36582142Y-29553571D01*
X36560714Y-29510714D01*
X36560714Y-29489285D01*
X36582142Y-29446428D01*
X36603571Y-29425000D01*
X36646428Y-29403571D01*
X36732142Y-29403571D01*
X36775000Y-29425000D01*
X36796428Y-29446428D01*
X36817857Y-29489285D01*
X36817857Y-29510714D01*
X36796428Y-29553571D01*
X36775000Y-29575000D01*
X36732142Y-29596428D01*
X36646428Y-29596428D01*
X36603571Y-29617857D01*
X36582142Y-29639285D01*
X36560714Y-29682142D01*
X36560714Y-29767857D01*
X36582142Y-29810714D01*
X36603571Y-29832142D01*
X36646428Y-29853571D01*
X36732142Y-29853571D01*
X36775000Y-29832142D01*
X36796428Y-29810714D01*
X36817857Y-29767857D01*
X36817857Y-29682142D01*
X36796428Y-29639285D01*
X36775000Y-29617857D01*
X36732142Y-29596428D01*
X38860714Y-29853571D02*
X38710714Y-29639285D01*
X38603571Y-29853571D02*
X38603571Y-29403571D01*
X38775000Y-29403571D01*
X38817857Y-29425000D01*
X38839285Y-29446428D01*
X38860714Y-29489285D01*
X38860714Y-29553571D01*
X38839285Y-29596428D01*
X38817857Y-29617857D01*
X38775000Y-29639285D01*
X38603571Y-29639285D01*
X39032142Y-29446428D02*
X39053571Y-29425000D01*
X39096428Y-29403571D01*
X39203571Y-29403571D01*
X39246428Y-29425000D01*
X39267857Y-29446428D01*
X39289285Y-29489285D01*
X39289285Y-29532142D01*
X39267857Y-29596428D01*
X39010714Y-29853571D01*
X39289285Y-29853571D01*
X39439285Y-29403571D02*
X39739285Y-29403571D01*
X39546428Y-29853571D01*
X62992857Y-43953571D02*
X62992857Y-44317857D01*
X63014285Y-44360714D01*
X63035714Y-44382142D01*
X63078571Y-44403571D01*
X63164285Y-44403571D01*
X63207142Y-44382142D01*
X63228571Y-44360714D01*
X63250000Y-44317857D01*
X63250000Y-43953571D01*
X63700000Y-44403571D02*
X63442857Y-44403571D01*
X63571428Y-44403571D02*
X63571428Y-43953571D01*
X63528571Y-44017857D01*
X63485714Y-44060714D01*
X63442857Y-44082142D01*
X63871428Y-43996428D02*
X63892857Y-43975000D01*
X63935714Y-43953571D01*
X64042857Y-43953571D01*
X64085714Y-43975000D01*
X64107142Y-43996428D01*
X64128571Y-44039285D01*
X64128571Y-44082142D01*
X64107142Y-44146428D01*
X63850000Y-44403571D01*
X64128571Y-44403571D01*
X42672857Y-35203571D02*
X42672857Y-34753571D01*
X42780000Y-34753571D01*
X42844285Y-34775000D01*
X42887142Y-34817857D01*
X42908571Y-34860714D01*
X42930000Y-34946428D01*
X42930000Y-35010714D01*
X42908571Y-35096428D01*
X42887142Y-35139285D01*
X42844285Y-35182142D01*
X42780000Y-35203571D01*
X42672857Y-35203571D01*
X43080000Y-34753571D02*
X43380000Y-34753571D01*
X43187142Y-35203571D01*
X22010714Y-62160714D02*
X21989285Y-62182142D01*
X21925000Y-62203571D01*
X21882142Y-62203571D01*
X21817857Y-62182142D01*
X21775000Y-62139285D01*
X21753571Y-62096428D01*
X21732142Y-62010714D01*
X21732142Y-61946428D01*
X21753571Y-61860714D01*
X21775000Y-61817857D01*
X21817857Y-61775000D01*
X21882142Y-61753571D01*
X21925000Y-61753571D01*
X21989285Y-61775000D01*
X22010714Y-61796428D01*
X22417857Y-61753571D02*
X22203571Y-61753571D01*
X22182142Y-61967857D01*
X22203571Y-61946428D01*
X22246428Y-61925000D01*
X22353571Y-61925000D01*
X22396428Y-61946428D01*
X22417857Y-61967857D01*
X22439285Y-62010714D01*
X22439285Y-62117857D01*
X22417857Y-62160714D01*
X22396428Y-62182142D01*
X22353571Y-62203571D01*
X22246428Y-62203571D01*
X22203571Y-62182142D01*
X22182142Y-62160714D01*
X22825000Y-61753571D02*
X22739285Y-61753571D01*
X22696428Y-61775000D01*
X22675000Y-61796428D01*
X22632142Y-61860714D01*
X22610714Y-61946428D01*
X22610714Y-62117857D01*
X22632142Y-62160714D01*
X22653571Y-62182142D01*
X22696428Y-62203571D01*
X22782142Y-62203571D01*
X22825000Y-62182142D01*
X22846428Y-62160714D01*
X22867857Y-62117857D01*
X22867857Y-62010714D01*
X22846428Y-61967857D01*
X22825000Y-61946428D01*
X22782142Y-61925000D01*
X22696428Y-61925000D01*
X22653571Y-61946428D01*
X22632142Y-61967857D01*
X22610714Y-62010714D01*
X24375000Y-62160714D02*
X24353571Y-62182142D01*
X24289285Y-62203571D01*
X24246428Y-62203571D01*
X24182142Y-62182142D01*
X24139285Y-62139285D01*
X24117857Y-62096428D01*
X24096428Y-62010714D01*
X24096428Y-61946428D01*
X24117857Y-61860714D01*
X24139285Y-61817857D01*
X24182142Y-61775000D01*
X24246428Y-61753571D01*
X24289285Y-61753571D01*
X24353571Y-61775000D01*
X24375000Y-61796428D01*
X24525000Y-61753571D02*
X24825000Y-61753571D01*
X24632142Y-62203571D01*
X54657142Y-47103571D02*
X54657142Y-47467857D01*
X54678571Y-47510714D01*
X54700000Y-47532142D01*
X54742857Y-47553571D01*
X54828571Y-47553571D01*
X54871428Y-47532142D01*
X54892857Y-47510714D01*
X54914285Y-47467857D01*
X54914285Y-47103571D01*
X55085714Y-47103571D02*
X55385714Y-47103571D01*
X55192857Y-47553571D01*
X44910714Y-31053571D02*
X44760714Y-30839285D01*
X44653571Y-31053571D02*
X44653571Y-30603571D01*
X44825000Y-30603571D01*
X44867857Y-30625000D01*
X44889285Y-30646428D01*
X44910714Y-30689285D01*
X44910714Y-30753571D01*
X44889285Y-30796428D01*
X44867857Y-30817857D01*
X44825000Y-30839285D01*
X44653571Y-30839285D01*
X45060714Y-30603571D02*
X45339285Y-30603571D01*
X45189285Y-30775000D01*
X45253571Y-30775000D01*
X45296428Y-30796428D01*
X45317857Y-30817857D01*
X45339285Y-30860714D01*
X45339285Y-30967857D01*
X45317857Y-31010714D01*
X45296428Y-31032142D01*
X45253571Y-31053571D01*
X45125000Y-31053571D01*
X45082142Y-31032142D01*
X45060714Y-31010714D01*
X45767857Y-31053571D02*
X45510714Y-31053571D01*
X45639285Y-31053571D02*
X45639285Y-30603571D01*
X45596428Y-30667857D01*
X45553571Y-30710714D01*
X45510714Y-30732142D01*
X44910714Y-34953571D02*
X44760714Y-34739285D01*
X44653571Y-34953571D02*
X44653571Y-34503571D01*
X44825000Y-34503571D01*
X44867857Y-34525000D01*
X44889285Y-34546428D01*
X44910714Y-34589285D01*
X44910714Y-34653571D01*
X44889285Y-34696428D01*
X44867857Y-34717857D01*
X44825000Y-34739285D01*
X44653571Y-34739285D01*
X45082142Y-34546428D02*
X45103571Y-34525000D01*
X45146428Y-34503571D01*
X45253571Y-34503571D01*
X45296428Y-34525000D01*
X45317857Y-34546428D01*
X45339285Y-34589285D01*
X45339285Y-34632142D01*
X45317857Y-34696428D01*
X45060714Y-34953571D01*
X45339285Y-34953571D01*
X45725000Y-34503571D02*
X45639285Y-34503571D01*
X45596428Y-34525000D01*
X45575000Y-34546428D01*
X45532142Y-34610714D01*
X45510714Y-34696428D01*
X45510714Y-34867857D01*
X45532142Y-34910714D01*
X45553571Y-34932142D01*
X45596428Y-34953571D01*
X45682142Y-34953571D01*
X45725000Y-34932142D01*
X45746428Y-34910714D01*
X45767857Y-34867857D01*
X45767857Y-34760714D01*
X45746428Y-34717857D01*
X45725000Y-34696428D01*
X45682142Y-34675000D01*
X45596428Y-34675000D01*
X45553571Y-34696428D01*
X45532142Y-34717857D01*
X45510714Y-34760714D01*
X44310714Y-50803571D02*
X44160714Y-50589285D01*
X44053571Y-50803571D02*
X44053571Y-50353571D01*
X44225000Y-50353571D01*
X44267857Y-50375000D01*
X44289285Y-50396428D01*
X44310714Y-50439285D01*
X44310714Y-50503571D01*
X44289285Y-50546428D01*
X44267857Y-50567857D01*
X44225000Y-50589285D01*
X44053571Y-50589285D01*
X44482142Y-50396428D02*
X44503571Y-50375000D01*
X44546428Y-50353571D01*
X44653571Y-50353571D01*
X44696428Y-50375000D01*
X44717857Y-50396428D01*
X44739285Y-50439285D01*
X44739285Y-50482142D01*
X44717857Y-50546428D01*
X44460714Y-50803571D01*
X44739285Y-50803571D01*
X45125000Y-50503571D02*
X45125000Y-50803571D01*
X45017857Y-50332142D02*
X44910714Y-50653571D01*
X45189285Y-50653571D01*
X42453571Y-33303571D02*
X42453571Y-32853571D01*
X42560714Y-32853571D01*
X42625000Y-32875000D01*
X42667857Y-32917857D01*
X42689285Y-32960714D01*
X42710714Y-33046428D01*
X42710714Y-33110714D01*
X42689285Y-33196428D01*
X42667857Y-33239285D01*
X42625000Y-33282142D01*
X42560714Y-33303571D01*
X42453571Y-33303571D01*
X43139285Y-33303571D02*
X42882142Y-33303571D01*
X43010714Y-33303571D02*
X43010714Y-32853571D01*
X42967857Y-32917857D01*
X42925000Y-32960714D01*
X42882142Y-32982142D01*
X43289285Y-32853571D02*
X43567857Y-32853571D01*
X43417857Y-33025000D01*
X43482142Y-33025000D01*
X43525000Y-33046428D01*
X43546428Y-33067857D01*
X43567857Y-33110714D01*
X43567857Y-33217857D01*
X43546428Y-33260714D01*
X43525000Y-33282142D01*
X43482142Y-33303571D01*
X43353571Y-33303571D01*
X43310714Y-33282142D01*
X43289285Y-33260714D01*
X42453571Y-31403571D02*
X42453571Y-30953571D01*
X42560714Y-30953571D01*
X42625000Y-30975000D01*
X42667857Y-31017857D01*
X42689285Y-31060714D01*
X42710714Y-31146428D01*
X42710714Y-31210714D01*
X42689285Y-31296428D01*
X42667857Y-31339285D01*
X42625000Y-31382142D01*
X42560714Y-31403571D01*
X42453571Y-31403571D01*
X43139285Y-31403571D02*
X42882142Y-31403571D01*
X43010714Y-31403571D02*
X43010714Y-30953571D01*
X42967857Y-31017857D01*
X42925000Y-31060714D01*
X42882142Y-31082142D01*
X43417857Y-30953571D02*
X43460714Y-30953571D01*
X43503571Y-30975000D01*
X43525000Y-30996428D01*
X43546428Y-31039285D01*
X43567857Y-31125000D01*
X43567857Y-31232142D01*
X43546428Y-31317857D01*
X43525000Y-31360714D01*
X43503571Y-31382142D01*
X43460714Y-31403571D01*
X43417857Y-31403571D01*
X43375000Y-31382142D01*
X43353571Y-31360714D01*
X43332142Y-31317857D01*
X43310714Y-31232142D01*
X43310714Y-31125000D01*
X43332142Y-31039285D01*
X43353571Y-30996428D01*
X43375000Y-30975000D01*
X43417857Y-30953571D01*
X42617857Y-37053571D02*
X42617857Y-36603571D01*
X42725000Y-36603571D01*
X42789285Y-36625000D01*
X42832142Y-36667857D01*
X42853571Y-36710714D01*
X42875000Y-36796428D01*
X42875000Y-36860714D01*
X42853571Y-36946428D01*
X42832142Y-36989285D01*
X42789285Y-37032142D01*
X42725000Y-37053571D01*
X42617857Y-37053571D01*
X43260714Y-36603571D02*
X43175000Y-36603571D01*
X43132142Y-36625000D01*
X43110714Y-36646428D01*
X43067857Y-36710714D01*
X43046428Y-36796428D01*
X43046428Y-36967857D01*
X43067857Y-37010714D01*
X43089285Y-37032142D01*
X43132142Y-37053571D01*
X43217857Y-37053571D01*
X43260714Y-37032142D01*
X43282142Y-37010714D01*
X43303571Y-36967857D01*
X43303571Y-36860714D01*
X43282142Y-36817857D01*
X43260714Y-36796428D01*
X43217857Y-36775000D01*
X43132142Y-36775000D01*
X43089285Y-36796428D01*
X43067857Y-36817857D01*
X43046428Y-36860714D01*
X43267857Y-47953571D02*
X43267857Y-47503571D01*
X43375000Y-47503571D01*
X43439285Y-47525000D01*
X43482142Y-47567857D01*
X43503571Y-47610714D01*
X43525000Y-47696428D01*
X43525000Y-47760714D01*
X43503571Y-47846428D01*
X43482142Y-47889285D01*
X43439285Y-47932142D01*
X43375000Y-47953571D01*
X43267857Y-47953571D01*
X43932142Y-47503571D02*
X43717857Y-47503571D01*
X43696428Y-47717857D01*
X43717857Y-47696428D01*
X43760714Y-47675000D01*
X43867857Y-47675000D01*
X43910714Y-47696428D01*
X43932142Y-47717857D01*
X43953571Y-47760714D01*
X43953571Y-47867857D01*
X43932142Y-47910714D01*
X43910714Y-47932142D01*
X43867857Y-47953571D01*
X43760714Y-47953571D01*
X43717857Y-47932142D01*
X43696428Y-47910714D01*
X45217857Y-47853571D02*
X45217857Y-47403571D01*
X45325000Y-47403571D01*
X45389285Y-47425000D01*
X45432142Y-47467857D01*
X45453571Y-47510714D01*
X45475000Y-47596428D01*
X45475000Y-47660714D01*
X45453571Y-47746428D01*
X45432142Y-47789285D01*
X45389285Y-47832142D01*
X45325000Y-47853571D01*
X45217857Y-47853571D01*
X45646428Y-47446428D02*
X45667857Y-47425000D01*
X45710714Y-47403571D01*
X45817857Y-47403571D01*
X45860714Y-47425000D01*
X45882142Y-47446428D01*
X45903571Y-47489285D01*
X45903571Y-47532142D01*
X45882142Y-47596428D01*
X45625000Y-47853571D01*
X45903571Y-47853571D01*
X61510714Y-54503571D02*
X61360714Y-54289285D01*
X61253571Y-54503571D02*
X61253571Y-54053571D01*
X61425000Y-54053571D01*
X61467857Y-54075000D01*
X61489285Y-54096428D01*
X61510714Y-54139285D01*
X61510714Y-54203571D01*
X61489285Y-54246428D01*
X61467857Y-54267857D01*
X61425000Y-54289285D01*
X61253571Y-54289285D01*
X61896428Y-54203571D02*
X61896428Y-54503571D01*
X61789285Y-54032142D02*
X61682142Y-54353571D01*
X61960714Y-54353571D01*
X62325000Y-54053571D02*
X62239285Y-54053571D01*
X62196428Y-54075000D01*
X62175000Y-54096428D01*
X62132142Y-54160714D01*
X62110714Y-54246428D01*
X62110714Y-54417857D01*
X62132142Y-54460714D01*
X62153571Y-54482142D01*
X62196428Y-54503571D01*
X62282142Y-54503571D01*
X62325000Y-54482142D01*
X62346428Y-54460714D01*
X62367857Y-54417857D01*
X62367857Y-54310714D01*
X62346428Y-54267857D01*
X62325000Y-54246428D01*
X62282142Y-54225000D01*
X62196428Y-54225000D01*
X62153571Y-54246428D01*
X62132142Y-54267857D01*
X62110714Y-54310714D01*
X60260714Y-54503571D02*
X60110714Y-54289285D01*
X60003571Y-54503571D02*
X60003571Y-54053571D01*
X60175000Y-54053571D01*
X60217857Y-54075000D01*
X60239285Y-54096428D01*
X60260714Y-54139285D01*
X60260714Y-54203571D01*
X60239285Y-54246428D01*
X60217857Y-54267857D01*
X60175000Y-54289285D01*
X60003571Y-54289285D01*
X60646428Y-54203571D02*
X60646428Y-54503571D01*
X60539285Y-54032142D02*
X60432142Y-54353571D01*
X60710714Y-54353571D01*
X61096428Y-54053571D02*
X60882142Y-54053571D01*
X60860714Y-54267857D01*
X60882142Y-54246428D01*
X60925000Y-54225000D01*
X61032142Y-54225000D01*
X61075000Y-54246428D01*
X61096428Y-54267857D01*
X61117857Y-54310714D01*
X61117857Y-54417857D01*
X61096428Y-54460714D01*
X61075000Y-54482142D01*
X61032142Y-54503571D01*
X60925000Y-54503571D01*
X60882142Y-54482142D01*
X60860714Y-54460714D01*
X31810714Y-27803571D02*
X31660714Y-27589285D01*
X31553571Y-27803571D02*
X31553571Y-27353571D01*
X31725000Y-27353571D01*
X31767857Y-27375000D01*
X31789285Y-27396428D01*
X31810714Y-27439285D01*
X31810714Y-27503571D01*
X31789285Y-27546428D01*
X31767857Y-27567857D01*
X31725000Y-27589285D01*
X31553571Y-27589285D01*
X31960714Y-27353571D02*
X32239285Y-27353571D01*
X32089285Y-27525000D01*
X32153571Y-27525000D01*
X32196428Y-27546428D01*
X32217857Y-27567857D01*
X32239285Y-27610714D01*
X32239285Y-27717857D01*
X32217857Y-27760714D01*
X32196428Y-27782142D01*
X32153571Y-27803571D01*
X32025000Y-27803571D01*
X31982142Y-27782142D01*
X31960714Y-27760714D01*
X32453571Y-27803571D02*
X32539285Y-27803571D01*
X32582142Y-27782142D01*
X32603571Y-27760714D01*
X32646428Y-27696428D01*
X32667857Y-27610714D01*
X32667857Y-27439285D01*
X32646428Y-27396428D01*
X32625000Y-27375000D01*
X32582142Y-27353571D01*
X32496428Y-27353571D01*
X32453571Y-27375000D01*
X32432142Y-27396428D01*
X32410714Y-27439285D01*
X32410714Y-27546428D01*
X32432142Y-27589285D01*
X32453571Y-27610714D01*
X32496428Y-27632142D01*
X32582142Y-27632142D01*
X32625000Y-27610714D01*
X32646428Y-27589285D01*
X32667857Y-27546428D01*
X39500714Y-47193571D02*
X39350714Y-46979285D01*
X39243571Y-47193571D02*
X39243571Y-46743571D01*
X39415000Y-46743571D01*
X39457857Y-46765000D01*
X39479285Y-46786428D01*
X39500714Y-46829285D01*
X39500714Y-46893571D01*
X39479285Y-46936428D01*
X39457857Y-46957857D01*
X39415000Y-46979285D01*
X39243571Y-46979285D01*
X39650714Y-46743571D02*
X39929285Y-46743571D01*
X39779285Y-46915000D01*
X39843571Y-46915000D01*
X39886428Y-46936428D01*
X39907857Y-46957857D01*
X39929285Y-47000714D01*
X39929285Y-47107857D01*
X39907857Y-47150714D01*
X39886428Y-47172142D01*
X39843571Y-47193571D01*
X39715000Y-47193571D01*
X39672142Y-47172142D01*
X39650714Y-47150714D01*
X40186428Y-46936428D02*
X40143571Y-46915000D01*
X40122142Y-46893571D01*
X40100714Y-46850714D01*
X40100714Y-46829285D01*
X40122142Y-46786428D01*
X40143571Y-46765000D01*
X40186428Y-46743571D01*
X40272142Y-46743571D01*
X40315000Y-46765000D01*
X40336428Y-46786428D01*
X40357857Y-46829285D01*
X40357857Y-46850714D01*
X40336428Y-46893571D01*
X40315000Y-46915000D01*
X40272142Y-46936428D01*
X40186428Y-46936428D01*
X40143571Y-46957857D01*
X40122142Y-46979285D01*
X40100714Y-47022142D01*
X40100714Y-47107857D01*
X40122142Y-47150714D01*
X40143571Y-47172142D01*
X40186428Y-47193571D01*
X40272142Y-47193571D01*
X40315000Y-47172142D01*
X40336428Y-47150714D01*
X40357857Y-47107857D01*
X40357857Y-47022142D01*
X40336428Y-46979285D01*
X40315000Y-46957857D01*
X40272142Y-46936428D01*
X40800714Y-47193571D02*
X40650714Y-46979285D01*
X40543571Y-47193571D02*
X40543571Y-46743571D01*
X40715000Y-46743571D01*
X40757857Y-46765000D01*
X40779285Y-46786428D01*
X40800714Y-46829285D01*
X40800714Y-46893571D01*
X40779285Y-46936428D01*
X40757857Y-46957857D01*
X40715000Y-46979285D01*
X40543571Y-46979285D01*
X40950714Y-46743571D02*
X41229285Y-46743571D01*
X41079285Y-46915000D01*
X41143571Y-46915000D01*
X41186428Y-46936428D01*
X41207857Y-46957857D01*
X41229285Y-47000714D01*
X41229285Y-47107857D01*
X41207857Y-47150714D01*
X41186428Y-47172142D01*
X41143571Y-47193571D01*
X41015000Y-47193571D01*
X40972142Y-47172142D01*
X40950714Y-47150714D01*
X41379285Y-46743571D02*
X41679285Y-46743571D01*
X41486428Y-47193571D01*
X68110714Y-55953571D02*
X67960714Y-55739285D01*
X67853571Y-55953571D02*
X67853571Y-55503571D01*
X68025000Y-55503571D01*
X68067857Y-55525000D01*
X68089285Y-55546428D01*
X68110714Y-55589285D01*
X68110714Y-55653571D01*
X68089285Y-55696428D01*
X68067857Y-55717857D01*
X68025000Y-55739285D01*
X67853571Y-55739285D01*
X68260714Y-55503571D02*
X68539285Y-55503571D01*
X68389285Y-55675000D01*
X68453571Y-55675000D01*
X68496428Y-55696428D01*
X68517857Y-55717857D01*
X68539285Y-55760714D01*
X68539285Y-55867857D01*
X68517857Y-55910714D01*
X68496428Y-55932142D01*
X68453571Y-55953571D01*
X68325000Y-55953571D01*
X68282142Y-55932142D01*
X68260714Y-55910714D01*
X68710714Y-55546428D02*
X68732142Y-55525000D01*
X68775000Y-55503571D01*
X68882142Y-55503571D01*
X68925000Y-55525000D01*
X68946428Y-55546428D01*
X68967857Y-55589285D01*
X68967857Y-55632142D01*
X68946428Y-55696428D01*
X68689285Y-55953571D01*
X68967857Y-55953571D01*
X22210714Y-29753571D02*
X22060714Y-29539285D01*
X21953571Y-29753571D02*
X21953571Y-29303571D01*
X22125000Y-29303571D01*
X22167857Y-29325000D01*
X22189285Y-29346428D01*
X22210714Y-29389285D01*
X22210714Y-29453571D01*
X22189285Y-29496428D01*
X22167857Y-29517857D01*
X22125000Y-29539285D01*
X21953571Y-29539285D01*
X22382142Y-29346428D02*
X22403571Y-29325000D01*
X22446428Y-29303571D01*
X22553571Y-29303571D01*
X22596428Y-29325000D01*
X22617857Y-29346428D01*
X22639285Y-29389285D01*
X22639285Y-29432142D01*
X22617857Y-29496428D01*
X22360714Y-29753571D01*
X22639285Y-29753571D01*
X23067857Y-29753571D02*
X22810714Y-29753571D01*
X22939285Y-29753571D02*
X22939285Y-29303571D01*
X22896428Y-29367857D01*
X22853571Y-29410714D01*
X22810714Y-29432142D01*
X33510714Y-29153571D02*
X33360714Y-28939285D01*
X33253571Y-29153571D02*
X33253571Y-28703571D01*
X33425000Y-28703571D01*
X33467857Y-28725000D01*
X33489285Y-28746428D01*
X33510714Y-28789285D01*
X33510714Y-28853571D01*
X33489285Y-28896428D01*
X33467857Y-28917857D01*
X33425000Y-28939285D01*
X33253571Y-28939285D01*
X33682142Y-28746428D02*
X33703571Y-28725000D01*
X33746428Y-28703571D01*
X33853571Y-28703571D01*
X33896428Y-28725000D01*
X33917857Y-28746428D01*
X33939285Y-28789285D01*
X33939285Y-28832142D01*
X33917857Y-28896428D01*
X33660714Y-29153571D01*
X33939285Y-29153571D01*
X34217857Y-28703571D02*
X34260714Y-28703571D01*
X34303571Y-28725000D01*
X34325000Y-28746428D01*
X34346428Y-28789285D01*
X34367857Y-28875000D01*
X34367857Y-28982142D01*
X34346428Y-29067857D01*
X34325000Y-29110714D01*
X34303571Y-29132142D01*
X34260714Y-29153571D01*
X34217857Y-29153571D01*
X34175000Y-29132142D01*
X34153571Y-29110714D01*
X34132142Y-29067857D01*
X34110714Y-28982142D01*
X34110714Y-28875000D01*
X34132142Y-28789285D01*
X34153571Y-28746428D01*
X34175000Y-28725000D01*
X34217857Y-28703571D01*
X42925000Y-55603571D02*
X42775000Y-55389285D01*
X42667857Y-55603571D02*
X42667857Y-55153571D01*
X42839285Y-55153571D01*
X42882142Y-55175000D01*
X42903571Y-55196428D01*
X42925000Y-55239285D01*
X42925000Y-55303571D01*
X42903571Y-55346428D01*
X42882142Y-55367857D01*
X42839285Y-55389285D01*
X42667857Y-55389285D01*
X43075000Y-55153571D02*
X43375000Y-55153571D01*
X43182142Y-55603571D01*
X74625000Y-51353571D02*
X74475000Y-51139285D01*
X74367857Y-51353571D02*
X74367857Y-50903571D01*
X74539285Y-50903571D01*
X74582142Y-50925000D01*
X74603571Y-50946428D01*
X74625000Y-50989285D01*
X74625000Y-51053571D01*
X74603571Y-51096428D01*
X74582142Y-51117857D01*
X74539285Y-51139285D01*
X74367857Y-51139285D01*
X75032142Y-50903571D02*
X74817857Y-50903571D01*
X74796428Y-51117857D01*
X74817857Y-51096428D01*
X74860714Y-51075000D01*
X74967857Y-51075000D01*
X75010714Y-51096428D01*
X75032142Y-51117857D01*
X75053571Y-51160714D01*
X75053571Y-51267857D01*
X75032142Y-51310714D01*
X75010714Y-51332142D01*
X74967857Y-51353571D01*
X74860714Y-51353571D01*
X74817857Y-51332142D01*
X74796428Y-51310714D01*
X68325000Y-51353571D02*
X68175000Y-51139285D01*
X68067857Y-51353571D02*
X68067857Y-50903571D01*
X68239285Y-50903571D01*
X68282142Y-50925000D01*
X68303571Y-50946428D01*
X68325000Y-50989285D01*
X68325000Y-51053571D01*
X68303571Y-51096428D01*
X68282142Y-51117857D01*
X68239285Y-51139285D01*
X68067857Y-51139285D01*
X68710714Y-51053571D02*
X68710714Y-51353571D01*
X68603571Y-50882142D02*
X68496428Y-51203571D01*
X68775000Y-51203571D01*
X42925000Y-59953571D02*
X42775000Y-59739285D01*
X42667857Y-59953571D02*
X42667857Y-59503571D01*
X42839285Y-59503571D01*
X42882142Y-59525000D01*
X42903571Y-59546428D01*
X42925000Y-59589285D01*
X42925000Y-59653571D01*
X42903571Y-59696428D01*
X42882142Y-59717857D01*
X42839285Y-59739285D01*
X42667857Y-59739285D01*
X43353571Y-59953571D02*
X43096428Y-59953571D01*
X43225000Y-59953571D02*
X43225000Y-59503571D01*
X43182142Y-59567857D01*
X43139285Y-59610714D01*
X43096428Y-59632142D01*
X34625000Y-63403571D02*
X34410714Y-63403571D01*
X34410714Y-62953571D01*
X34753571Y-62996428D02*
X34775000Y-62975000D01*
X34817857Y-62953571D01*
X34925000Y-62953571D01*
X34967857Y-62975000D01*
X34989285Y-62996428D01*
X35010714Y-63039285D01*
X35010714Y-63082142D01*
X34989285Y-63146428D01*
X34732142Y-63403571D01*
X35010714Y-63403571D01*
X54853571Y-29203571D02*
X54853571Y-28753571D01*
X54960714Y-28753571D01*
X55025000Y-28775000D01*
X55067857Y-28817857D01*
X55089285Y-28860714D01*
X55110714Y-28946428D01*
X55110714Y-29010714D01*
X55089285Y-29096428D01*
X55067857Y-29139285D01*
X55025000Y-29182142D01*
X54960714Y-29203571D01*
X54853571Y-29203571D01*
X55539285Y-29203571D02*
X55282142Y-29203571D01*
X55410714Y-29203571D02*
X55410714Y-28753571D01*
X55367857Y-28817857D01*
X55325000Y-28860714D01*
X55282142Y-28882142D01*
X55710714Y-28796428D02*
X55732142Y-28775000D01*
X55775000Y-28753571D01*
X55882142Y-28753571D01*
X55925000Y-28775000D01*
X55946428Y-28796428D01*
X55967857Y-28839285D01*
X55967857Y-28882142D01*
X55946428Y-28946428D01*
X55689285Y-29203571D01*
X55967857Y-29203571D01*
X46103571Y-29203571D02*
X46103571Y-28753571D01*
X46210714Y-28753571D01*
X46275000Y-28775000D01*
X46317857Y-28817857D01*
X46339285Y-28860714D01*
X46360714Y-28946428D01*
X46360714Y-29010714D01*
X46339285Y-29096428D01*
X46317857Y-29139285D01*
X46275000Y-29182142D01*
X46210714Y-29203571D01*
X46103571Y-29203571D01*
X46789285Y-29203571D02*
X46532142Y-29203571D01*
X46660714Y-29203571D02*
X46660714Y-28753571D01*
X46617857Y-28817857D01*
X46575000Y-28860714D01*
X46532142Y-28882142D01*
X47217857Y-29203571D02*
X46960714Y-29203571D01*
X47089285Y-29203571D02*
X47089285Y-28753571D01*
X47046428Y-28817857D01*
X47003571Y-28860714D01*
X46960714Y-28882142D01*
X54817857Y-43103571D02*
X54817857Y-42653571D01*
X54925000Y-42653571D01*
X54989285Y-42675000D01*
X55032142Y-42717857D01*
X55053571Y-42760714D01*
X55075000Y-42846428D01*
X55075000Y-42910714D01*
X55053571Y-42996428D01*
X55032142Y-43039285D01*
X54989285Y-43082142D01*
X54925000Y-43103571D01*
X54817857Y-43103571D01*
X55289285Y-43103571D02*
X55375000Y-43103571D01*
X55417857Y-43082142D01*
X55439285Y-43060714D01*
X55482142Y-42996428D01*
X55503571Y-42910714D01*
X55503571Y-42739285D01*
X55482142Y-42696428D01*
X55460714Y-42675000D01*
X55417857Y-42653571D01*
X55332142Y-42653571D01*
X55289285Y-42675000D01*
X55267857Y-42696428D01*
X55246428Y-42739285D01*
X55246428Y-42846428D01*
X55267857Y-42889285D01*
X55289285Y-42910714D01*
X55332142Y-42932142D01*
X55417857Y-42932142D01*
X55460714Y-42910714D01*
X55482142Y-42889285D01*
X55503571Y-42846428D01*
X46467857Y-43103571D02*
X46467857Y-42653571D01*
X46575000Y-42653571D01*
X46639285Y-42675000D01*
X46682142Y-42717857D01*
X46703571Y-42760714D01*
X46725000Y-42846428D01*
X46725000Y-42910714D01*
X46703571Y-42996428D01*
X46682142Y-43039285D01*
X46639285Y-43082142D01*
X46575000Y-43103571D01*
X46467857Y-43103571D01*
X46982142Y-42846428D02*
X46939285Y-42825000D01*
X46917857Y-42803571D01*
X46896428Y-42760714D01*
X46896428Y-42739285D01*
X46917857Y-42696428D01*
X46939285Y-42675000D01*
X46982142Y-42653571D01*
X47067857Y-42653571D01*
X47110714Y-42675000D01*
X47132142Y-42696428D01*
X47153571Y-42739285D01*
X47153571Y-42760714D01*
X47132142Y-42803571D01*
X47110714Y-42825000D01*
X47067857Y-42846428D01*
X46982142Y-42846428D01*
X46939285Y-42867857D01*
X46917857Y-42889285D01*
X46896428Y-42932142D01*
X46896428Y-43017857D01*
X46917857Y-43060714D01*
X46939285Y-43082142D01*
X46982142Y-43103571D01*
X47067857Y-43103571D01*
X47110714Y-43082142D01*
X47132142Y-43060714D01*
X47153571Y-43017857D01*
X47153571Y-42932142D01*
X47132142Y-42889285D01*
X47110714Y-42867857D01*
X47067857Y-42846428D01*
X54817857Y-57303571D02*
X54817857Y-56853571D01*
X54925000Y-56853571D01*
X54989285Y-56875000D01*
X55032142Y-56917857D01*
X55053571Y-56960714D01*
X55075000Y-57046428D01*
X55075000Y-57110714D01*
X55053571Y-57196428D01*
X55032142Y-57239285D01*
X54989285Y-57282142D01*
X54925000Y-57303571D01*
X54817857Y-57303571D01*
X55460714Y-57003571D02*
X55460714Y-57303571D01*
X55353571Y-56832142D02*
X55246428Y-57153571D01*
X55525000Y-57153571D01*
X46367857Y-57303571D02*
X46367857Y-56853571D01*
X46475000Y-56853571D01*
X46539285Y-56875000D01*
X46582142Y-56917857D01*
X46603571Y-56960714D01*
X46625000Y-57046428D01*
X46625000Y-57110714D01*
X46603571Y-57196428D01*
X46582142Y-57239285D01*
X46539285Y-57282142D01*
X46475000Y-57303571D01*
X46367857Y-57303571D01*
X46775000Y-56853571D02*
X47053571Y-56853571D01*
X46903571Y-57025000D01*
X46967857Y-57025000D01*
X47010714Y-57046428D01*
X47032142Y-57067857D01*
X47053571Y-57110714D01*
X47053571Y-57217857D01*
X47032142Y-57260714D01*
X47010714Y-57282142D01*
X46967857Y-57303571D01*
X46839285Y-57303571D01*
X46796428Y-57282142D01*
X46775000Y-57260714D01*
X60210714Y-35460714D02*
X60189285Y-35482142D01*
X60125000Y-35503571D01*
X60082142Y-35503571D01*
X60017857Y-35482142D01*
X59975000Y-35439285D01*
X59953571Y-35396428D01*
X59932142Y-35310714D01*
X59932142Y-35246428D01*
X59953571Y-35160714D01*
X59975000Y-35117857D01*
X60017857Y-35075000D01*
X60082142Y-35053571D01*
X60125000Y-35053571D01*
X60189285Y-35075000D01*
X60210714Y-35096428D01*
X60596428Y-35203571D02*
X60596428Y-35503571D01*
X60489285Y-35032142D02*
X60382142Y-35353571D01*
X60660714Y-35353571D01*
X61046428Y-35053571D02*
X60832142Y-35053571D01*
X60810714Y-35267857D01*
X60832142Y-35246428D01*
X60875000Y-35225000D01*
X60982142Y-35225000D01*
X61025000Y-35246428D01*
X61046428Y-35267857D01*
X61067857Y-35310714D01*
X61067857Y-35417857D01*
X61046428Y-35460714D01*
X61025000Y-35482142D01*
X60982142Y-35503571D01*
X60875000Y-35503571D01*
X60832142Y-35482142D01*
X60810714Y-35460714D01*
X63681801Y-36259086D02*
X63651497Y-36259086D01*
X63590888Y-36228781D01*
X63560583Y-36198477D01*
X63530279Y-36137867D01*
X63530279Y-36077258D01*
X63545431Y-36031801D01*
X63590888Y-35956040D01*
X63636345Y-35910583D01*
X63712106Y-35865126D01*
X63757563Y-35849974D01*
X63818172Y-35849974D01*
X63878781Y-35880279D01*
X63909086Y-35910583D01*
X63939390Y-35971192D01*
X63939390Y-36001497D01*
X64136370Y-36350000D02*
X63924238Y-36562132D01*
X64181827Y-36153020D02*
X63878781Y-36304543D01*
X64075761Y-36501522D01*
X64439416Y-36653045D02*
X64227284Y-36865177D01*
X64484873Y-36456066D02*
X64181827Y-36607588D01*
X64378807Y-36804568D01*
X61810714Y-31560714D02*
X61789285Y-31582142D01*
X61725000Y-31603571D01*
X61682142Y-31603571D01*
X61617857Y-31582142D01*
X61575000Y-31539285D01*
X61553571Y-31496428D01*
X61532142Y-31410714D01*
X61532142Y-31346428D01*
X61553571Y-31260714D01*
X61575000Y-31217857D01*
X61617857Y-31175000D01*
X61682142Y-31153571D01*
X61725000Y-31153571D01*
X61789285Y-31175000D01*
X61810714Y-31196428D01*
X62196428Y-31303571D02*
X62196428Y-31603571D01*
X62089285Y-31132142D02*
X61982142Y-31453571D01*
X62260714Y-31453571D01*
X62410714Y-31196428D02*
X62432142Y-31175000D01*
X62475000Y-31153571D01*
X62582142Y-31153571D01*
X62625000Y-31175000D01*
X62646428Y-31196428D01*
X62667857Y-31239285D01*
X62667857Y-31282142D01*
X62646428Y-31346428D01*
X62389285Y-31603571D01*
X62667857Y-31603571D01*
X22210714Y-29110714D02*
X22189285Y-29132142D01*
X22125000Y-29153571D01*
X22082142Y-29153571D01*
X22017857Y-29132142D01*
X21975000Y-29089285D01*
X21953571Y-29046428D01*
X21932142Y-28960714D01*
X21932142Y-28896428D01*
X21953571Y-28810714D01*
X21975000Y-28767857D01*
X22017857Y-28725000D01*
X22082142Y-28703571D01*
X22125000Y-28703571D01*
X22189285Y-28725000D01*
X22210714Y-28746428D01*
X22596428Y-28853571D02*
X22596428Y-29153571D01*
X22489285Y-28682142D02*
X22382142Y-29003571D01*
X22660714Y-29003571D01*
X22917857Y-28703571D02*
X22960714Y-28703571D01*
X23003571Y-28725000D01*
X23025000Y-28746428D01*
X23046428Y-28789285D01*
X23067857Y-28875000D01*
X23067857Y-28982142D01*
X23046428Y-29067857D01*
X23025000Y-29110714D01*
X23003571Y-29132142D01*
X22960714Y-29153571D01*
X22917857Y-29153571D01*
X22875000Y-29132142D01*
X22853571Y-29110714D01*
X22832142Y-29067857D01*
X22810714Y-28982142D01*
X22810714Y-28875000D01*
X22832142Y-28789285D01*
X22853571Y-28746428D01*
X22875000Y-28725000D01*
X22917857Y-28703571D01*
X22210714Y-28510714D02*
X22189285Y-28532142D01*
X22125000Y-28553571D01*
X22082142Y-28553571D01*
X22017857Y-28532142D01*
X21975000Y-28489285D01*
X21953571Y-28446428D01*
X21932142Y-28360714D01*
X21932142Y-28296428D01*
X21953571Y-28210714D01*
X21975000Y-28167857D01*
X22017857Y-28125000D01*
X22082142Y-28103571D01*
X22125000Y-28103571D01*
X22189285Y-28125000D01*
X22210714Y-28146428D01*
X22360714Y-28103571D02*
X22639285Y-28103571D01*
X22489285Y-28275000D01*
X22553571Y-28275000D01*
X22596428Y-28296428D01*
X22617857Y-28317857D01*
X22639285Y-28360714D01*
X22639285Y-28467857D01*
X22617857Y-28510714D01*
X22596428Y-28532142D01*
X22553571Y-28553571D01*
X22425000Y-28553571D01*
X22382142Y-28532142D01*
X22360714Y-28510714D01*
X22853571Y-28553571D02*
X22939285Y-28553571D01*
X22982142Y-28532142D01*
X23003571Y-28510714D01*
X23046428Y-28446428D01*
X23067857Y-28360714D01*
X23067857Y-28189285D01*
X23046428Y-28146428D01*
X23025000Y-28125000D01*
X22982142Y-28103571D01*
X22896428Y-28103571D01*
X22853571Y-28125000D01*
X22832142Y-28146428D01*
X22810714Y-28189285D01*
X22810714Y-28296428D01*
X22832142Y-28339285D01*
X22853571Y-28360714D01*
X22896428Y-28382142D01*
X22982142Y-28382142D01*
X23025000Y-28360714D01*
X23046428Y-28339285D01*
X23067857Y-28296428D01*
X59310713Y-33910714D02*
X59289284Y-33932142D01*
X59224999Y-33953571D01*
X59182141Y-33953571D01*
X59117856Y-33932142D01*
X59074999Y-33889285D01*
X59053570Y-33846428D01*
X59032141Y-33760714D01*
X59032141Y-33696428D01*
X59053570Y-33610714D01*
X59074999Y-33567857D01*
X59117856Y-33525000D01*
X59182141Y-33503571D01*
X59224999Y-33503571D01*
X59289284Y-33525000D01*
X59310713Y-33546428D01*
X59460713Y-33503571D02*
X59739284Y-33503571D01*
X59589284Y-33675000D01*
X59653570Y-33675000D01*
X59696427Y-33696428D01*
X59717856Y-33717857D01*
X59739284Y-33760714D01*
X59739284Y-33867857D01*
X59717856Y-33910714D01*
X59696427Y-33932142D01*
X59653570Y-33953571D01*
X59524999Y-33953571D01*
X59482141Y-33932142D01*
X59460713Y-33910714D01*
X60167856Y-33953571D02*
X59910713Y-33953571D01*
X60039284Y-33953571D02*
X60039284Y-33503571D01*
X59996427Y-33567857D01*
X59953570Y-33610714D01*
X59910713Y-33632142D01*
X60360714Y-38560714D02*
X60339285Y-38582142D01*
X60275000Y-38603571D01*
X60232142Y-38603571D01*
X60167857Y-38582142D01*
X60125000Y-38539285D01*
X60103571Y-38496428D01*
X60082142Y-38410714D01*
X60082142Y-38346428D01*
X60103571Y-38260714D01*
X60125000Y-38217857D01*
X60167857Y-38175000D01*
X60232142Y-38153571D01*
X60275000Y-38153571D01*
X60339285Y-38175000D01*
X60360714Y-38196428D01*
X60510714Y-38153571D02*
X60789285Y-38153571D01*
X60639285Y-38325000D01*
X60703571Y-38325000D01*
X60746428Y-38346428D01*
X60767857Y-38367857D01*
X60789285Y-38410714D01*
X60789285Y-38517857D01*
X60767857Y-38560714D01*
X60746428Y-38582142D01*
X60703571Y-38603571D01*
X60575000Y-38603571D01*
X60532142Y-38582142D01*
X60510714Y-38560714D01*
X61067857Y-38153571D02*
X61110714Y-38153571D01*
X61153571Y-38175000D01*
X61175000Y-38196428D01*
X61196428Y-38239285D01*
X61217857Y-38325000D01*
X61217857Y-38432142D01*
X61196428Y-38517857D01*
X61175000Y-38560714D01*
X61153571Y-38582142D01*
X61110714Y-38603571D01*
X61067857Y-38603571D01*
X61025000Y-38582142D01*
X61003571Y-38560714D01*
X60982142Y-38517857D01*
X60960714Y-38432142D01*
X60960714Y-38325000D01*
X60982142Y-38239285D01*
X61003571Y-38196428D01*
X61025000Y-38175000D01*
X61067857Y-38153571D01*
X70360714Y-39060714D02*
X70339285Y-39082142D01*
X70275000Y-39103571D01*
X70232142Y-39103571D01*
X70167857Y-39082142D01*
X70125000Y-39039285D01*
X70103571Y-38996428D01*
X70082142Y-38910714D01*
X70082142Y-38846428D01*
X70103571Y-38760714D01*
X70125000Y-38717857D01*
X70167857Y-38675000D01*
X70232142Y-38653571D01*
X70275000Y-38653571D01*
X70339285Y-38675000D01*
X70360714Y-38696428D01*
X70532142Y-38696428D02*
X70553571Y-38675000D01*
X70596428Y-38653571D01*
X70703571Y-38653571D01*
X70746428Y-38675000D01*
X70767857Y-38696428D01*
X70789285Y-38739285D01*
X70789285Y-38782142D01*
X70767857Y-38846428D01*
X70510714Y-39103571D01*
X70789285Y-39103571D01*
X71003571Y-39103571D02*
X71089285Y-39103571D01*
X71132142Y-39082142D01*
X71153571Y-39060714D01*
X71196428Y-38996428D01*
X71217857Y-38910714D01*
X71217857Y-38739285D01*
X71196428Y-38696428D01*
X71175000Y-38675000D01*
X71132142Y-38653571D01*
X71046428Y-38653571D01*
X71003571Y-38675000D01*
X70982142Y-38696428D01*
X70960714Y-38739285D01*
X70960714Y-38846428D01*
X70982142Y-38889285D01*
X71003571Y-38910714D01*
X71046428Y-38932142D01*
X71132142Y-38932142D01*
X71175000Y-38910714D01*
X71196428Y-38889285D01*
X71217857Y-38846428D01*
X41610714Y-57460714D02*
X41589285Y-57482142D01*
X41525000Y-57503571D01*
X41482142Y-57503571D01*
X41417857Y-57482142D01*
X41375000Y-57439285D01*
X41353571Y-57396428D01*
X41332142Y-57310714D01*
X41332142Y-57246428D01*
X41353571Y-57160714D01*
X41375000Y-57117857D01*
X41417857Y-57075000D01*
X41482142Y-57053571D01*
X41525000Y-57053571D01*
X41589285Y-57075000D01*
X41610714Y-57096428D01*
X41782142Y-57096428D02*
X41803571Y-57075000D01*
X41846428Y-57053571D01*
X41953571Y-57053571D01*
X41996428Y-57075000D01*
X42017857Y-57096428D01*
X42039285Y-57139285D01*
X42039285Y-57182142D01*
X42017857Y-57246428D01*
X41760714Y-57503571D01*
X42039285Y-57503571D01*
X42317857Y-57053571D02*
X42360714Y-57053571D01*
X42403571Y-57075000D01*
X42425000Y-57096428D01*
X42446428Y-57139285D01*
X42467857Y-57225000D01*
X42467857Y-57332142D01*
X42446428Y-57417857D01*
X42425000Y-57460714D01*
X42403571Y-57482142D01*
X42360714Y-57503571D01*
X42317857Y-57503571D01*
X42275000Y-57482142D01*
X42253571Y-57460714D01*
X42232142Y-57417857D01*
X42210714Y-57332142D01*
X42210714Y-57225000D01*
X42232142Y-57139285D01*
X42253571Y-57096428D01*
X42275000Y-57075000D01*
X42317857Y-57053571D01*
X61960714Y-32210714D02*
X61939285Y-32232142D01*
X61875000Y-32253571D01*
X61832142Y-32253571D01*
X61767857Y-32232142D01*
X61725000Y-32189285D01*
X61703571Y-32146428D01*
X61682142Y-32060714D01*
X61682142Y-31996428D01*
X61703571Y-31910714D01*
X61725000Y-31867857D01*
X61767857Y-31825000D01*
X61832142Y-31803571D01*
X61875000Y-31803571D01*
X61939285Y-31825000D01*
X61960714Y-31846428D01*
X62389285Y-32253571D02*
X62132142Y-32253571D01*
X62260714Y-32253571D02*
X62260714Y-31803571D01*
X62217857Y-31867857D01*
X62175000Y-31910714D01*
X62132142Y-31932142D01*
X62603571Y-32253571D02*
X62689285Y-32253571D01*
X62732142Y-32232142D01*
X62753571Y-32210714D01*
X62796428Y-32146428D01*
X62817857Y-32060714D01*
X62817857Y-31889285D01*
X62796428Y-31846428D01*
X62775000Y-31825000D01*
X62732142Y-31803571D01*
X62646428Y-31803571D01*
X62603571Y-31825000D01*
X62582142Y-31846428D01*
X62560714Y-31889285D01*
X62560714Y-31996428D01*
X62582142Y-32039285D01*
X62603571Y-32060714D01*
X62646428Y-32082142D01*
X62732142Y-32082142D01*
X62775000Y-32060714D01*
X62796428Y-32039285D01*
X62817857Y-31996428D01*
X48210714Y-33860714D02*
X48189285Y-33882142D01*
X48125000Y-33903571D01*
X48082142Y-33903571D01*
X48017857Y-33882142D01*
X47975000Y-33839285D01*
X47953571Y-33796428D01*
X47932142Y-33710714D01*
X47932142Y-33646428D01*
X47953571Y-33560714D01*
X47975000Y-33517857D01*
X48017857Y-33475000D01*
X48082142Y-33453571D01*
X48125000Y-33453571D01*
X48189285Y-33475000D01*
X48210714Y-33496428D01*
X48639285Y-33903571D02*
X48382142Y-33903571D01*
X48510714Y-33903571D02*
X48510714Y-33453571D01*
X48467857Y-33517857D01*
X48425000Y-33560714D01*
X48382142Y-33582142D01*
X48810714Y-33496428D02*
X48832142Y-33475000D01*
X48875000Y-33453571D01*
X48982142Y-33453571D01*
X49025000Y-33475000D01*
X49046428Y-33496428D01*
X49067857Y-33539285D01*
X49067857Y-33582142D01*
X49046428Y-33646428D01*
X48789285Y-33903571D01*
X49067857Y-33903571D01*
X48610714Y-47710714D02*
X48589285Y-47732142D01*
X48525000Y-47753571D01*
X48482142Y-47753571D01*
X48417857Y-47732142D01*
X48375000Y-47689285D01*
X48353571Y-47646428D01*
X48332142Y-47560714D01*
X48332142Y-47496428D01*
X48353571Y-47410714D01*
X48375000Y-47367857D01*
X48417857Y-47325000D01*
X48482142Y-47303571D01*
X48525000Y-47303571D01*
X48589285Y-47325000D01*
X48610714Y-47346428D01*
X49039285Y-47753571D02*
X48782142Y-47753571D01*
X48910714Y-47753571D02*
X48910714Y-47303571D01*
X48867857Y-47367857D01*
X48825000Y-47410714D01*
X48782142Y-47432142D01*
X49467857Y-47753571D02*
X49210714Y-47753571D01*
X49339285Y-47753571D02*
X49339285Y-47303571D01*
X49296428Y-47367857D01*
X49253571Y-47410714D01*
X49210714Y-47432142D01*
X62425000Y-30910714D02*
X62403571Y-30932142D01*
X62339285Y-30953571D01*
X62296428Y-30953571D01*
X62232142Y-30932142D01*
X62189285Y-30889285D01*
X62167857Y-30846428D01*
X62146428Y-30760714D01*
X62146428Y-30696428D01*
X62167857Y-30610714D01*
X62189285Y-30567857D01*
X62232142Y-30525000D01*
X62296428Y-30503571D01*
X62339285Y-30503571D01*
X62403571Y-30525000D01*
X62425000Y-30546428D01*
X62832142Y-30503571D02*
X62617857Y-30503571D01*
X62596428Y-30717857D01*
X62617857Y-30696428D01*
X62660714Y-30675000D01*
X62767857Y-30675000D01*
X62810714Y-30696428D01*
X62832142Y-30717857D01*
X62853571Y-30760714D01*
X62853571Y-30867857D01*
X62832142Y-30910714D01*
X62810714Y-30932142D01*
X62767857Y-30953571D01*
X62660714Y-30953571D01*
X62617857Y-30932142D01*
X62596428Y-30910714D01*
X65925000Y-25910714D02*
X65903571Y-25932142D01*
X65839285Y-25953571D01*
X65796428Y-25953571D01*
X65732142Y-25932142D01*
X65689285Y-25889285D01*
X65667857Y-25846428D01*
X65646428Y-25760714D01*
X65646428Y-25696428D01*
X65667857Y-25610714D01*
X65689285Y-25567857D01*
X65732142Y-25525000D01*
X65796428Y-25503571D01*
X65839285Y-25503571D01*
X65903571Y-25525000D01*
X65925000Y-25546428D01*
X66310714Y-25653571D02*
X66310714Y-25953571D01*
X66203571Y-25482142D02*
X66096428Y-25803571D01*
X66375000Y-25803571D01*
X46625000Y-59210714D02*
X46603571Y-59232142D01*
X46539285Y-59253571D01*
X46496428Y-59253571D01*
X46432142Y-59232142D01*
X46389285Y-59189285D01*
X46367857Y-59146428D01*
X46346428Y-59060714D01*
X46346428Y-58996428D01*
X46367857Y-58910714D01*
X46389285Y-58867857D01*
X46432142Y-58825000D01*
X46496428Y-58803571D01*
X46539285Y-58803571D01*
X46603571Y-58825000D01*
X46625000Y-58846428D01*
X47053571Y-59253571D02*
X46796428Y-59253571D01*
X46925000Y-59253571D02*
X46925000Y-58803571D01*
X46882142Y-58867857D01*
X46839285Y-58910714D01*
X46796428Y-58932142D01*
X77960714Y-28160714D02*
X77939285Y-28182142D01*
X77875000Y-28203571D01*
X77832142Y-28203571D01*
X77767857Y-28182142D01*
X77725000Y-28139285D01*
X77703571Y-28096428D01*
X77682142Y-28010714D01*
X77682142Y-27946428D01*
X77703571Y-27860714D01*
X77725000Y-27817857D01*
X77767857Y-27775000D01*
X77832142Y-27753571D01*
X77875000Y-27753571D01*
X77939285Y-27775000D01*
X77960714Y-27796428D01*
X78367857Y-27753571D02*
X78153571Y-27753571D01*
X78132142Y-27967857D01*
X78153571Y-27946428D01*
X78196428Y-27925000D01*
X78303571Y-27925000D01*
X78346428Y-27946428D01*
X78367857Y-27967857D01*
X78389285Y-28010714D01*
X78389285Y-28117857D01*
X78367857Y-28160714D01*
X78346428Y-28182142D01*
X78303571Y-28203571D01*
X78196428Y-28203571D01*
X78153571Y-28182142D01*
X78132142Y-28160714D01*
X78796428Y-27753571D02*
X78582142Y-27753571D01*
X78560714Y-27967857D01*
X78582142Y-27946428D01*
X78625000Y-27925000D01*
X78732142Y-27925000D01*
X78775000Y-27946428D01*
X78796428Y-27967857D01*
X78817857Y-28010714D01*
X78817857Y-28117857D01*
X78796428Y-28160714D01*
X78775000Y-28182142D01*
X78732142Y-28203571D01*
X78625000Y-28203571D01*
X78582142Y-28182142D01*
X78560714Y-28160714D01*
X28160714Y-29510714D02*
X28139285Y-29532142D01*
X28075000Y-29553571D01*
X28032142Y-29553571D01*
X27967857Y-29532142D01*
X27925000Y-29489285D01*
X27903571Y-29446428D01*
X27882142Y-29360714D01*
X27882142Y-29296428D01*
X27903571Y-29210714D01*
X27925000Y-29167857D01*
X27967857Y-29125000D01*
X28032142Y-29103571D01*
X28075000Y-29103571D01*
X28139285Y-29125000D01*
X28160714Y-29146428D01*
X28567857Y-29103571D02*
X28353571Y-29103571D01*
X28332142Y-29317857D01*
X28353571Y-29296428D01*
X28396428Y-29275000D01*
X28503571Y-29275000D01*
X28546428Y-29296428D01*
X28567857Y-29317857D01*
X28589285Y-29360714D01*
X28589285Y-29467857D01*
X28567857Y-29510714D01*
X28546428Y-29532142D01*
X28503571Y-29553571D01*
X28396428Y-29553571D01*
X28353571Y-29532142D01*
X28332142Y-29510714D01*
X28975000Y-29253571D02*
X28975000Y-29553571D01*
X28867857Y-29082142D02*
X28760714Y-29403571D01*
X29039285Y-29403571D01*
X63760714Y-58510714D02*
X63739285Y-58532142D01*
X63675000Y-58553571D01*
X63632142Y-58553571D01*
X63567857Y-58532142D01*
X63525000Y-58489285D01*
X63503571Y-58446428D01*
X63482142Y-58360714D01*
X63482142Y-58296428D01*
X63503571Y-58210714D01*
X63525000Y-58167857D01*
X63567857Y-58125000D01*
X63632142Y-58103571D01*
X63675000Y-58103571D01*
X63739285Y-58125000D01*
X63760714Y-58146428D01*
X63910714Y-58103571D02*
X64189285Y-58103571D01*
X64039285Y-58275000D01*
X64103571Y-58275000D01*
X64146428Y-58296428D01*
X64167857Y-58317857D01*
X64189285Y-58360714D01*
X64189285Y-58467857D01*
X64167857Y-58510714D01*
X64146428Y-58532142D01*
X64103571Y-58553571D01*
X63975000Y-58553571D01*
X63932142Y-58532142D01*
X63910714Y-58510714D01*
X64575000Y-58253571D02*
X64575000Y-58553571D01*
X64467857Y-58082142D02*
X64360714Y-58403571D01*
X64639285Y-58403571D01*
X68807142Y-28053571D02*
X68807142Y-28417857D01*
X68828571Y-28460714D01*
X68850000Y-28482142D01*
X68892857Y-28503571D01*
X68978571Y-28503571D01*
X69021428Y-28482142D01*
X69042857Y-28460714D01*
X69064285Y-28417857D01*
X69064285Y-28053571D01*
X69514285Y-28503571D02*
X69257142Y-28503571D01*
X69385714Y-28503571D02*
X69385714Y-28053571D01*
X69342857Y-28117857D01*
X69300000Y-28160714D01*
X69257142Y-28182142D01*
X26967857Y-60803571D02*
X26967857Y-60353571D01*
X27075000Y-60353571D01*
X27139285Y-60375000D01*
X27182142Y-60417857D01*
X27203571Y-60460714D01*
X27225000Y-60546428D01*
X27225000Y-60610714D01*
X27203571Y-60696428D01*
X27182142Y-60739285D01*
X27139285Y-60782142D01*
X27075000Y-60803571D01*
X26967857Y-60803571D01*
X27653571Y-60803571D02*
X27396428Y-60803571D01*
X27525000Y-60803571D02*
X27525000Y-60353571D01*
X27482142Y-60417857D01*
X27439285Y-60460714D01*
X27396428Y-60482142D01*
X40110714Y-48853571D02*
X39960714Y-48639285D01*
X39853571Y-48853571D02*
X39853571Y-48403571D01*
X40025000Y-48403571D01*
X40067857Y-48425000D01*
X40089285Y-48446428D01*
X40110714Y-48489285D01*
X40110714Y-48553571D01*
X40089285Y-48596428D01*
X40067857Y-48617857D01*
X40025000Y-48639285D01*
X39853571Y-48639285D01*
X40517857Y-48403571D02*
X40303571Y-48403571D01*
X40282142Y-48617857D01*
X40303571Y-48596428D01*
X40346428Y-48575000D01*
X40453571Y-48575000D01*
X40496428Y-48596428D01*
X40517857Y-48617857D01*
X40539285Y-48660714D01*
X40539285Y-48767857D01*
X40517857Y-48810714D01*
X40496428Y-48832142D01*
X40453571Y-48853571D01*
X40346428Y-48853571D01*
X40303571Y-48832142D01*
X40282142Y-48810714D01*
X40817857Y-48403571D02*
X40860714Y-48403571D01*
X40903571Y-48425000D01*
X40925000Y-48446428D01*
X40946428Y-48489285D01*
X40967857Y-48575000D01*
X40967857Y-48682142D01*
X40946428Y-48767857D01*
X40925000Y-48810714D01*
X40903571Y-48832142D01*
X40860714Y-48853571D01*
X40817857Y-48853571D01*
X40775000Y-48832142D01*
X40753571Y-48810714D01*
X40732142Y-48767857D01*
X40710714Y-48682142D01*
X40710714Y-48575000D01*
X40732142Y-48489285D01*
X40753571Y-48446428D01*
X40775000Y-48425000D01*
X40817857Y-48403571D01*
X28050714Y-34213571D02*
X27900714Y-33999285D01*
X27793571Y-34213571D02*
X27793571Y-33763571D01*
X27965000Y-33763571D01*
X28007857Y-33785000D01*
X28029285Y-33806428D01*
X28050714Y-33849285D01*
X28050714Y-33913571D01*
X28029285Y-33956428D01*
X28007857Y-33977857D01*
X27965000Y-33999285D01*
X27793571Y-33999285D01*
X28436428Y-33913571D02*
X28436428Y-34213571D01*
X28329285Y-33742142D02*
X28222142Y-34063571D01*
X28500714Y-34063571D01*
X28693571Y-34213571D02*
X28779285Y-34213571D01*
X28822142Y-34192142D01*
X28843571Y-34170714D01*
X28886428Y-34106428D01*
X28907857Y-34020714D01*
X28907857Y-33849285D01*
X28886428Y-33806428D01*
X28865000Y-33785000D01*
X28822142Y-33763571D01*
X28736428Y-33763571D01*
X28693571Y-33785000D01*
X28672142Y-33806428D01*
X28650714Y-33849285D01*
X28650714Y-33956428D01*
X28672142Y-33999285D01*
X28693571Y-34020714D01*
X28736428Y-34042142D01*
X28822142Y-34042142D01*
X28865000Y-34020714D01*
X28886428Y-33999285D01*
X28907857Y-33956428D01*
X28050714Y-34793571D02*
X27900714Y-34579285D01*
X27793571Y-34793571D02*
X27793571Y-34343571D01*
X27965000Y-34343571D01*
X28007857Y-34365000D01*
X28029285Y-34386428D01*
X28050714Y-34429285D01*
X28050714Y-34493571D01*
X28029285Y-34536428D01*
X28007857Y-34557857D01*
X27965000Y-34579285D01*
X27793571Y-34579285D01*
X28436428Y-34493571D02*
X28436428Y-34793571D01*
X28329285Y-34322142D02*
X28222142Y-34643571D01*
X28500714Y-34643571D01*
X28736428Y-34536428D02*
X28693571Y-34515000D01*
X28672142Y-34493571D01*
X28650714Y-34450714D01*
X28650714Y-34429285D01*
X28672142Y-34386428D01*
X28693571Y-34365000D01*
X28736428Y-34343571D01*
X28822142Y-34343571D01*
X28865000Y-34365000D01*
X28886428Y-34386428D01*
X28907857Y-34429285D01*
X28907857Y-34450714D01*
X28886428Y-34493571D01*
X28865000Y-34515000D01*
X28822142Y-34536428D01*
X28736428Y-34536428D01*
X28693571Y-34557857D01*
X28672142Y-34579285D01*
X28650714Y-34622142D01*
X28650714Y-34707857D01*
X28672142Y-34750714D01*
X28693571Y-34772142D01*
X28736428Y-34793571D01*
X28822142Y-34793571D01*
X28865000Y-34772142D01*
X28886428Y-34750714D01*
X28907857Y-34707857D01*
X28907857Y-34622142D01*
X28886428Y-34579285D01*
X28865000Y-34557857D01*
X28822142Y-34536428D01*
X28060714Y-39633571D02*
X27910714Y-39419285D01*
X27803571Y-39633571D02*
X27803571Y-39183571D01*
X27975000Y-39183571D01*
X28017857Y-39205000D01*
X28039285Y-39226428D01*
X28060714Y-39269285D01*
X28060714Y-39333571D01*
X28039285Y-39376428D01*
X28017857Y-39397857D01*
X27975000Y-39419285D01*
X27803571Y-39419285D01*
X28446428Y-39333571D02*
X28446428Y-39633571D01*
X28339285Y-39162142D02*
X28232142Y-39483571D01*
X28510714Y-39483571D01*
X28639285Y-39183571D02*
X28939285Y-39183571D01*
X28746428Y-39633571D01*
X22710714Y-65003571D02*
X22560714Y-64789285D01*
X22453571Y-65003571D02*
X22453571Y-64553571D01*
X22625000Y-64553571D01*
X22667857Y-64575000D01*
X22689285Y-64596428D01*
X22710714Y-64639285D01*
X22710714Y-64703571D01*
X22689285Y-64746428D01*
X22667857Y-64767857D01*
X22625000Y-64789285D01*
X22453571Y-64789285D01*
X23096428Y-64703571D02*
X23096428Y-65003571D01*
X22989285Y-64532142D02*
X22882142Y-64853571D01*
X23160714Y-64853571D01*
X23525000Y-64703571D02*
X23525000Y-65003571D01*
X23417857Y-64532142D02*
X23310714Y-64853571D01*
X23589285Y-64853571D01*
X24853571Y-34113571D02*
X24853571Y-33663571D01*
X24960714Y-33663571D01*
X25025000Y-33685000D01*
X25067857Y-33727857D01*
X25089285Y-33770714D01*
X25110714Y-33856428D01*
X25110714Y-33920714D01*
X25089285Y-34006428D01*
X25067857Y-34049285D01*
X25025000Y-34092142D01*
X24960714Y-34113571D01*
X24853571Y-34113571D01*
X25539285Y-34113571D02*
X25282142Y-34113571D01*
X25410714Y-34113571D02*
X25410714Y-33663571D01*
X25367857Y-33727857D01*
X25325000Y-33770714D01*
X25282142Y-33792142D01*
X25753571Y-34113571D02*
X25839285Y-34113571D01*
X25882142Y-34092142D01*
X25903571Y-34070714D01*
X25946428Y-34006428D01*
X25967857Y-33920714D01*
X25967857Y-33749285D01*
X25946428Y-33706428D01*
X25925000Y-33685000D01*
X25882142Y-33663571D01*
X25796428Y-33663571D01*
X25753571Y-33685000D01*
X25732142Y-33706428D01*
X25710714Y-33749285D01*
X25710714Y-33856428D01*
X25732142Y-33899285D01*
X25753571Y-33920714D01*
X25796428Y-33942142D01*
X25882142Y-33942142D01*
X25925000Y-33920714D01*
X25946428Y-33899285D01*
X25967857Y-33856428D01*
X24853571Y-34693571D02*
X24853571Y-34243571D01*
X24960714Y-34243571D01*
X25025000Y-34265000D01*
X25067857Y-34307857D01*
X25089285Y-34350714D01*
X25110714Y-34436428D01*
X25110714Y-34500714D01*
X25089285Y-34586428D01*
X25067857Y-34629285D01*
X25025000Y-34672142D01*
X24960714Y-34693571D01*
X24853571Y-34693571D01*
X25539285Y-34693571D02*
X25282142Y-34693571D01*
X25410714Y-34693571D02*
X25410714Y-34243571D01*
X25367857Y-34307857D01*
X25325000Y-34350714D01*
X25282142Y-34372142D01*
X25796428Y-34436428D02*
X25753571Y-34415000D01*
X25732142Y-34393571D01*
X25710714Y-34350714D01*
X25710714Y-34329285D01*
X25732142Y-34286428D01*
X25753571Y-34265000D01*
X25796428Y-34243571D01*
X25882142Y-34243571D01*
X25925000Y-34265000D01*
X25946428Y-34286428D01*
X25967857Y-34329285D01*
X25967857Y-34350714D01*
X25946428Y-34393571D01*
X25925000Y-34415000D01*
X25882142Y-34436428D01*
X25796428Y-34436428D01*
X25753571Y-34457857D01*
X25732142Y-34479285D01*
X25710714Y-34522142D01*
X25710714Y-34607857D01*
X25732142Y-34650714D01*
X25753571Y-34672142D01*
X25796428Y-34693571D01*
X25882142Y-34693571D01*
X25925000Y-34672142D01*
X25946428Y-34650714D01*
X25967857Y-34607857D01*
X25967857Y-34522142D01*
X25946428Y-34479285D01*
X25925000Y-34457857D01*
X25882142Y-34436428D01*
X24853571Y-39673571D02*
X24853571Y-39223571D01*
X24960714Y-39223571D01*
X25025000Y-39245000D01*
X25067857Y-39287857D01*
X25089285Y-39330714D01*
X25110714Y-39416428D01*
X25110714Y-39480714D01*
X25089285Y-39566428D01*
X25067857Y-39609285D01*
X25025000Y-39652142D01*
X24960714Y-39673571D01*
X24853571Y-39673571D01*
X25539285Y-39673571D02*
X25282142Y-39673571D01*
X25410714Y-39673571D02*
X25410714Y-39223571D01*
X25367857Y-39287857D01*
X25325000Y-39330714D01*
X25282142Y-39352142D01*
X25925000Y-39223571D02*
X25839285Y-39223571D01*
X25796428Y-39245000D01*
X25775000Y-39266428D01*
X25732142Y-39330714D01*
X25710714Y-39416428D01*
X25710714Y-39587857D01*
X25732142Y-39630714D01*
X25753571Y-39652142D01*
X25796428Y-39673571D01*
X25882142Y-39673571D01*
X25925000Y-39652142D01*
X25946428Y-39630714D01*
X25967857Y-39587857D01*
X25967857Y-39480714D01*
X25946428Y-39437857D01*
X25925000Y-39416428D01*
X25882142Y-39395000D01*
X25796428Y-39395000D01*
X25753571Y-39416428D01*
X25732142Y-39437857D01*
X25710714Y-39480714D01*
X37860714Y-48810714D02*
X37839285Y-48832142D01*
X37775000Y-48853571D01*
X37732142Y-48853571D01*
X37667857Y-48832142D01*
X37625000Y-48789285D01*
X37603571Y-48746428D01*
X37582142Y-48660714D01*
X37582142Y-48596428D01*
X37603571Y-48510714D01*
X37625000Y-48467857D01*
X37667857Y-48425000D01*
X37732142Y-48403571D01*
X37775000Y-48403571D01*
X37839285Y-48425000D01*
X37860714Y-48446428D01*
X38267857Y-48403571D02*
X38053571Y-48403571D01*
X38032142Y-48617857D01*
X38053571Y-48596428D01*
X38096428Y-48575000D01*
X38203571Y-48575000D01*
X38246428Y-48596428D01*
X38267857Y-48617857D01*
X38289285Y-48660714D01*
X38289285Y-48767857D01*
X38267857Y-48810714D01*
X38246428Y-48832142D01*
X38203571Y-48853571D01*
X38096428Y-48853571D01*
X38053571Y-48832142D01*
X38032142Y-48810714D01*
X38439285Y-48403571D02*
X38717857Y-48403571D01*
X38567857Y-48575000D01*
X38632142Y-48575000D01*
X38675000Y-48596428D01*
X38696428Y-48617857D01*
X38717857Y-48660714D01*
X38717857Y-48767857D01*
X38696428Y-48810714D01*
X38675000Y-48832142D01*
X38632142Y-48853571D01*
X38503571Y-48853571D01*
X38460714Y-48832142D01*
X38439285Y-48810714D01*
X67135714Y-27870714D02*
X67114285Y-27892142D01*
X67050000Y-27913571D01*
X67007142Y-27913571D01*
X66942857Y-27892142D01*
X66900000Y-27849285D01*
X66878571Y-27806428D01*
X66857142Y-27720714D01*
X66857142Y-27656428D01*
X66878571Y-27570714D01*
X66900000Y-27527857D01*
X66942857Y-27485000D01*
X67007142Y-27463571D01*
X67050000Y-27463571D01*
X67114285Y-27485000D01*
X67135714Y-27506428D01*
X67307142Y-27506428D02*
X67328571Y-27485000D01*
X67371428Y-27463571D01*
X67478571Y-27463571D01*
X67521428Y-27485000D01*
X67542857Y-27506428D01*
X67564285Y-27549285D01*
X67564285Y-27592142D01*
X67542857Y-27656428D01*
X67285714Y-27913571D01*
X67564285Y-27913571D01*
X67950000Y-27613571D02*
X67950000Y-27913571D01*
X67842857Y-27442142D02*
X67735714Y-27763571D01*
X68014285Y-27763571D01*
X49740714Y-34553571D02*
X49590714Y-34339285D01*
X49483571Y-34553571D02*
X49483571Y-34103571D01*
X49655000Y-34103571D01*
X49697857Y-34125000D01*
X49719285Y-34146428D01*
X49740714Y-34189285D01*
X49740714Y-34253571D01*
X49719285Y-34296428D01*
X49697857Y-34317857D01*
X49655000Y-34339285D01*
X49483571Y-34339285D01*
X50126428Y-34253571D02*
X50126428Y-34553571D01*
X50019285Y-34082142D02*
X49912142Y-34403571D01*
X50190714Y-34403571D01*
X50319285Y-34103571D02*
X50597857Y-34103571D01*
X50447857Y-34275000D01*
X50512142Y-34275000D01*
X50555000Y-34296428D01*
X50576428Y-34317857D01*
X50597857Y-34360714D01*
X50597857Y-34467857D01*
X50576428Y-34510714D01*
X50555000Y-34532142D01*
X50512142Y-34553571D01*
X50383571Y-34553571D01*
X50340714Y-34532142D01*
X50319285Y-34510714D01*
X51260714Y-50503571D02*
X51110714Y-50289285D01*
X51003571Y-50503571D02*
X51003571Y-50053571D01*
X51175000Y-50053571D01*
X51217857Y-50075000D01*
X51239285Y-50096428D01*
X51260714Y-50139285D01*
X51260714Y-50203571D01*
X51239285Y-50246428D01*
X51217857Y-50267857D01*
X51175000Y-50289285D01*
X51003571Y-50289285D01*
X51432142Y-50096428D02*
X51453571Y-50075000D01*
X51496428Y-50053571D01*
X51603571Y-50053571D01*
X51646428Y-50075000D01*
X51667857Y-50096428D01*
X51689285Y-50139285D01*
X51689285Y-50182142D01*
X51667857Y-50246428D01*
X51410714Y-50503571D01*
X51689285Y-50503571D01*
X51860714Y-50096428D02*
X51882142Y-50075000D01*
X51925000Y-50053571D01*
X52032142Y-50053571D01*
X52075000Y-50075000D01*
X52096428Y-50096428D01*
X52117857Y-50139285D01*
X52117857Y-50182142D01*
X52096428Y-50246428D01*
X51839285Y-50503571D01*
X52117857Y-50503571D01*
X47500714Y-66183571D02*
X47350714Y-65969285D01*
X47243571Y-66183571D02*
X47243571Y-65733571D01*
X47415000Y-65733571D01*
X47457857Y-65755000D01*
X47479285Y-65776428D01*
X47500714Y-65819285D01*
X47500714Y-65883571D01*
X47479285Y-65926428D01*
X47457857Y-65947857D01*
X47415000Y-65969285D01*
X47243571Y-65969285D01*
X47929285Y-66183571D02*
X47672142Y-66183571D01*
X47800714Y-66183571D02*
X47800714Y-65733571D01*
X47757857Y-65797857D01*
X47715000Y-65840714D01*
X47672142Y-65862142D01*
X48186428Y-65926428D02*
X48143571Y-65905000D01*
X48122142Y-65883571D01*
X48100714Y-65840714D01*
X48100714Y-65819285D01*
X48122142Y-65776428D01*
X48143571Y-65755000D01*
X48186428Y-65733571D01*
X48272142Y-65733571D01*
X48315000Y-65755000D01*
X48336428Y-65776428D01*
X48357857Y-65819285D01*
X48357857Y-65840714D01*
X48336428Y-65883571D01*
X48315000Y-65905000D01*
X48272142Y-65926428D01*
X48186428Y-65926428D01*
X48143571Y-65947857D01*
X48122142Y-65969285D01*
X48100714Y-66012142D01*
X48100714Y-66097857D01*
X48122142Y-66140714D01*
X48143571Y-66162142D01*
X48186428Y-66183571D01*
X48272142Y-66183571D01*
X48315000Y-66162142D01*
X48336428Y-66140714D01*
X48357857Y-66097857D01*
X48357857Y-66012142D01*
X48336428Y-65969285D01*
X48315000Y-65947857D01*
X48272142Y-65926428D01*
X46960714Y-35410714D02*
X46939285Y-35432142D01*
X46875000Y-35453571D01*
X46832142Y-35453571D01*
X46767857Y-35432142D01*
X46725000Y-35389285D01*
X46703571Y-35346428D01*
X46682142Y-35260714D01*
X46682142Y-35196428D01*
X46703571Y-35110714D01*
X46725000Y-35067857D01*
X46767857Y-35025000D01*
X46832142Y-35003571D01*
X46875000Y-35003571D01*
X46939285Y-35025000D01*
X46960714Y-35046428D01*
X47367857Y-35003571D02*
X47153571Y-35003571D01*
X47132142Y-35217857D01*
X47153571Y-35196428D01*
X47196428Y-35175000D01*
X47303571Y-35175000D01*
X47346428Y-35196428D01*
X47367857Y-35217857D01*
X47389285Y-35260714D01*
X47389285Y-35367857D01*
X47367857Y-35410714D01*
X47346428Y-35432142D01*
X47303571Y-35453571D01*
X47196428Y-35453571D01*
X47153571Y-35432142D01*
X47132142Y-35410714D01*
X47560714Y-35046428D02*
X47582142Y-35025000D01*
X47625000Y-35003571D01*
X47732142Y-35003571D01*
X47775000Y-35025000D01*
X47796428Y-35046428D01*
X47817857Y-35089285D01*
X47817857Y-35132142D01*
X47796428Y-35196428D01*
X47539285Y-35453571D01*
X47817857Y-35453571D01*
X47410714Y-49510714D02*
X47389285Y-49532142D01*
X47325000Y-49553571D01*
X47282142Y-49553571D01*
X47217857Y-49532142D01*
X47175000Y-49489285D01*
X47153571Y-49446428D01*
X47132142Y-49360714D01*
X47132142Y-49296428D01*
X47153571Y-49210714D01*
X47175000Y-49167857D01*
X47217857Y-49125000D01*
X47282142Y-49103571D01*
X47325000Y-49103571D01*
X47389285Y-49125000D01*
X47410714Y-49146428D01*
X47817857Y-49103571D02*
X47603571Y-49103571D01*
X47582142Y-49317857D01*
X47603571Y-49296428D01*
X47646428Y-49275000D01*
X47753571Y-49275000D01*
X47796428Y-49296428D01*
X47817857Y-49317857D01*
X47839285Y-49360714D01*
X47839285Y-49467857D01*
X47817857Y-49510714D01*
X47796428Y-49532142D01*
X47753571Y-49553571D01*
X47646428Y-49553571D01*
X47603571Y-49532142D01*
X47582142Y-49510714D01*
X48267857Y-49553571D02*
X48010714Y-49553571D01*
X48139285Y-49553571D02*
X48139285Y-49103571D01*
X48096428Y-49167857D01*
X48053571Y-49210714D01*
X48010714Y-49232142D01*
X45010714Y-66160714D02*
X44989285Y-66182142D01*
X44925000Y-66203571D01*
X44882142Y-66203571D01*
X44817857Y-66182142D01*
X44775000Y-66139285D01*
X44753571Y-66096428D01*
X44732142Y-66010714D01*
X44732142Y-65946428D01*
X44753571Y-65860714D01*
X44775000Y-65817857D01*
X44817857Y-65775000D01*
X44882142Y-65753571D01*
X44925000Y-65753571D01*
X44989285Y-65775000D01*
X45010714Y-65796428D01*
X45417857Y-65753571D02*
X45203571Y-65753571D01*
X45182142Y-65967857D01*
X45203571Y-65946428D01*
X45246428Y-65925000D01*
X45353571Y-65925000D01*
X45396428Y-65946428D01*
X45417857Y-65967857D01*
X45439285Y-66010714D01*
X45439285Y-66117857D01*
X45417857Y-66160714D01*
X45396428Y-66182142D01*
X45353571Y-66203571D01*
X45246428Y-66203571D01*
X45203571Y-66182142D01*
X45182142Y-66160714D01*
X45717857Y-65753571D02*
X45760714Y-65753571D01*
X45803571Y-65775000D01*
X45825000Y-65796428D01*
X45846428Y-65839285D01*
X45867857Y-65925000D01*
X45867857Y-66032142D01*
X45846428Y-66117857D01*
X45825000Y-66160714D01*
X45803571Y-66182142D01*
X45760714Y-66203571D01*
X45717857Y-66203571D01*
X45675000Y-66182142D01*
X45653571Y-66160714D01*
X45632142Y-66117857D01*
X45610714Y-66032142D01*
X45610714Y-65925000D01*
X45632142Y-65839285D01*
X45653571Y-65796428D01*
X45675000Y-65775000D01*
X45717857Y-65753571D01*
X61785714Y-26639285D02*
X61785714Y-26853571D01*
X61635714Y-26403571D02*
X61785714Y-26639285D01*
X61935714Y-26403571D01*
X62321428Y-26853571D02*
X62064285Y-26853571D01*
X62192857Y-26853571D02*
X62192857Y-26403571D01*
X62150000Y-26467857D01*
X62107142Y-26510714D01*
X62064285Y-26532142D01*
X53060714Y-37260714D02*
X53039285Y-37282142D01*
X52975000Y-37303571D01*
X52932142Y-37303571D01*
X52867857Y-37282142D01*
X52825000Y-37239285D01*
X52803571Y-37196428D01*
X52782142Y-37110714D01*
X52782142Y-37046428D01*
X52803571Y-36960714D01*
X52825000Y-36917857D01*
X52867857Y-36875000D01*
X52932142Y-36853571D01*
X52975000Y-36853571D01*
X53039285Y-36875000D01*
X53060714Y-36896428D01*
X53446428Y-37003571D02*
X53446428Y-37303571D01*
X53339285Y-36832142D02*
X53232142Y-37153571D01*
X53510714Y-37153571D01*
X53703571Y-37303571D02*
X53789285Y-37303571D01*
X53832142Y-37282142D01*
X53853571Y-37260714D01*
X53896428Y-37196428D01*
X53917857Y-37110714D01*
X53917857Y-36939285D01*
X53896428Y-36896428D01*
X53875000Y-36875000D01*
X53832142Y-36853571D01*
X53746428Y-36853571D01*
X53703571Y-36875000D01*
X53682142Y-36896428D01*
X53660714Y-36939285D01*
X53660714Y-37046428D01*
X53682142Y-37089285D01*
X53703571Y-37110714D01*
X53746428Y-37132142D01*
X53832142Y-37132142D01*
X53875000Y-37110714D01*
X53896428Y-37089285D01*
X53917857Y-37046428D01*
X50960714Y-66360714D02*
X50939285Y-66382142D01*
X50875000Y-66403571D01*
X50832142Y-66403571D01*
X50767857Y-66382142D01*
X50725000Y-66339285D01*
X50703571Y-66296428D01*
X50682142Y-66210714D01*
X50682142Y-66146428D01*
X50703571Y-66060714D01*
X50725000Y-66017857D01*
X50767857Y-65975000D01*
X50832142Y-65953571D01*
X50875000Y-65953571D01*
X50939285Y-65975000D01*
X50960714Y-65996428D01*
X51346428Y-66103571D02*
X51346428Y-66403571D01*
X51239285Y-65932142D02*
X51132142Y-66253571D01*
X51410714Y-66253571D01*
X51646428Y-66146428D02*
X51603571Y-66125000D01*
X51582142Y-66103571D01*
X51560714Y-66060714D01*
X51560714Y-66039285D01*
X51582142Y-65996428D01*
X51603571Y-65975000D01*
X51646428Y-65953571D01*
X51732142Y-65953571D01*
X51775000Y-65975000D01*
X51796428Y-65996428D01*
X51817857Y-66039285D01*
X51817857Y-66060714D01*
X51796428Y-66103571D01*
X51775000Y-66125000D01*
X51732142Y-66146428D01*
X51646428Y-66146428D01*
X51603571Y-66167857D01*
X51582142Y-66189285D01*
X51560714Y-66232142D01*
X51560714Y-66317857D01*
X51582142Y-66360714D01*
X51603571Y-66382142D01*
X51646428Y-66403571D01*
X51732142Y-66403571D01*
X51775000Y-66382142D01*
X51796428Y-66360714D01*
X51817857Y-66317857D01*
X51817857Y-66232142D01*
X51796428Y-66189285D01*
X51775000Y-66167857D01*
X51732142Y-66146428D01*
X53160714Y-51660714D02*
X53139285Y-51682142D01*
X53075000Y-51703571D01*
X53032142Y-51703571D01*
X52967857Y-51682142D01*
X52925000Y-51639285D01*
X52903571Y-51596428D01*
X52882142Y-51510714D01*
X52882142Y-51446428D01*
X52903571Y-51360714D01*
X52925000Y-51317857D01*
X52967857Y-51275000D01*
X53032142Y-51253571D01*
X53075000Y-51253571D01*
X53139285Y-51275000D01*
X53160714Y-51296428D01*
X53546428Y-51403571D02*
X53546428Y-51703571D01*
X53439285Y-51232142D02*
X53332142Y-51553571D01*
X53610714Y-51553571D01*
X53739285Y-51253571D02*
X54039285Y-51253571D01*
X53846428Y-51703571D01*
X54342857Y-33103571D02*
X54342857Y-33467857D01*
X54364285Y-33510714D01*
X54385714Y-33532142D01*
X54428571Y-33553571D01*
X54514285Y-33553571D01*
X54557142Y-33532142D01*
X54578571Y-33510714D01*
X54600000Y-33467857D01*
X54600000Y-33103571D01*
X55050000Y-33553571D02*
X54792857Y-33553571D01*
X54921428Y-33553571D02*
X54921428Y-33103571D01*
X54878571Y-33167857D01*
X54835714Y-33210714D01*
X54792857Y-33232142D01*
X55328571Y-33103571D02*
X55371428Y-33103571D01*
X55414285Y-33125000D01*
X55435714Y-33146428D01*
X55457142Y-33189285D01*
X55478571Y-33275000D01*
X55478571Y-33382142D01*
X55457142Y-33467857D01*
X55435714Y-33510714D01*
X55414285Y-33532142D01*
X55371428Y-33553571D01*
X55328571Y-33553571D01*
X55285714Y-33532142D01*
X55264285Y-33510714D01*
X55242857Y-33467857D01*
X55221428Y-33382142D01*
X55221428Y-33275000D01*
X55242857Y-33189285D01*
X55264285Y-33146428D01*
X55285714Y-33125000D01*
X55328571Y-33103571D01*
X52467142Y-61213571D02*
X52467142Y-61577857D01*
X52488571Y-61620714D01*
X52510000Y-61642142D01*
X52552857Y-61663571D01*
X52638571Y-61663571D01*
X52681428Y-61642142D01*
X52702857Y-61620714D01*
X52724285Y-61577857D01*
X52724285Y-61213571D01*
X53131428Y-61213571D02*
X53045714Y-61213571D01*
X53002857Y-61235000D01*
X52981428Y-61256428D01*
X52938571Y-61320714D01*
X52917142Y-61406428D01*
X52917142Y-61577857D01*
X52938571Y-61620714D01*
X52960000Y-61642142D01*
X53002857Y-61663571D01*
X53088571Y-61663571D01*
X53131428Y-61642142D01*
X53152857Y-61620714D01*
X53174285Y-61577857D01*
X53174285Y-61470714D01*
X53152857Y-61427857D01*
X53131428Y-61406428D01*
X53088571Y-61385000D01*
X53002857Y-61385000D01*
X52960000Y-61406428D01*
X52938571Y-61427857D01*
X52917142Y-61470714D01*
X38325000Y-39503571D02*
X38110714Y-39503571D01*
X38110714Y-39053571D01*
X38710714Y-39503571D02*
X38453571Y-39503571D01*
X38582142Y-39503571D02*
X38582142Y-39053571D01*
X38539285Y-39117857D01*
X38496428Y-39160714D01*
X38453571Y-39182142D01*
X28957142Y-56253571D02*
X28957142Y-56617857D01*
X28978571Y-56660714D01*
X29000000Y-56682142D01*
X29042857Y-56703571D01*
X29128571Y-56703571D01*
X29171428Y-56682142D01*
X29192857Y-56660714D01*
X29214285Y-56617857D01*
X29214285Y-56253571D01*
X29621428Y-56403571D02*
X29621428Y-56703571D01*
X29514285Y-56232142D02*
X29407142Y-56553571D01*
X29685714Y-56553571D01*
X65300000Y-61453571D02*
X65300000Y-61775000D01*
X65278571Y-61839285D01*
X65235714Y-61882142D01*
X65171428Y-61903571D01*
X65128571Y-61903571D01*
X65535714Y-61903571D02*
X65621428Y-61903571D01*
X65664285Y-61882142D01*
X65685714Y-61860714D01*
X65728571Y-61796428D01*
X65750000Y-61710714D01*
X65750000Y-61539285D01*
X65728571Y-61496428D01*
X65707142Y-61475000D01*
X65664285Y-61453571D01*
X65578571Y-61453571D01*
X65535714Y-61475000D01*
X65514285Y-61496428D01*
X65492857Y-61539285D01*
X65492857Y-61646428D01*
X65514285Y-61689285D01*
X65535714Y-61710714D01*
X65578571Y-61732142D01*
X65664285Y-61732142D01*
X65707142Y-61710714D01*
X65728571Y-61689285D01*
X65750000Y-61646428D01*
X67625000Y-39517857D02*
X67475000Y-39517857D01*
X67475000Y-39753571D02*
X67475000Y-39303571D01*
X67689285Y-39303571D01*
X68010714Y-39517857D02*
X68075000Y-39539285D01*
X68096428Y-39560714D01*
X68117857Y-39603571D01*
X68117857Y-39667857D01*
X68096428Y-39710714D01*
X68075000Y-39732142D01*
X68032142Y-39753571D01*
X67860714Y-39753571D01*
X67860714Y-39303571D01*
X68010714Y-39303571D01*
X68053571Y-39325000D01*
X68075000Y-39346428D01*
X68096428Y-39389285D01*
X68096428Y-39432142D01*
X68075000Y-39475000D01*
X68053571Y-39496428D01*
X68010714Y-39517857D01*
X67860714Y-39517857D01*
X68546428Y-39753571D02*
X68289285Y-39753571D01*
X68417857Y-39753571D02*
X68417857Y-39303571D01*
X68375000Y-39367857D01*
X68332142Y-39410714D01*
X68289285Y-39432142D01*
X67960714Y-48710714D02*
X67939285Y-48732142D01*
X67875000Y-48753571D01*
X67832142Y-48753571D01*
X67767857Y-48732142D01*
X67725000Y-48689285D01*
X67703571Y-48646428D01*
X67682142Y-48560714D01*
X67682142Y-48496428D01*
X67703571Y-48410714D01*
X67725000Y-48367857D01*
X67767857Y-48325000D01*
X67832142Y-48303571D01*
X67875000Y-48303571D01*
X67939285Y-48325000D01*
X67960714Y-48346428D01*
X68346428Y-48453571D02*
X68346428Y-48753571D01*
X68239285Y-48282142D02*
X68132142Y-48603571D01*
X68410714Y-48603571D01*
X68775000Y-48303571D02*
X68689285Y-48303571D01*
X68646428Y-48325000D01*
X68625000Y-48346428D01*
X68582142Y-48410714D01*
X68560714Y-48496428D01*
X68560714Y-48667857D01*
X68582142Y-48710714D01*
X68603571Y-48732142D01*
X68646428Y-48753571D01*
X68732142Y-48753571D01*
X68775000Y-48732142D01*
X68796428Y-48710714D01*
X68817857Y-48667857D01*
X68817857Y-48560714D01*
X68796428Y-48517857D01*
X68775000Y-48496428D01*
X68732142Y-48475000D01*
X68646428Y-48475000D01*
X68603571Y-48496428D01*
X68582142Y-48517857D01*
X68560714Y-48560714D01*
X62010714Y-49760714D02*
X61989285Y-49782142D01*
X61925000Y-49803571D01*
X61882142Y-49803571D01*
X61817857Y-49782142D01*
X61775000Y-49739285D01*
X61753571Y-49696428D01*
X61732142Y-49610714D01*
X61732142Y-49546428D01*
X61753571Y-49460714D01*
X61775000Y-49417857D01*
X61817857Y-49375000D01*
X61882142Y-49353571D01*
X61925000Y-49353571D01*
X61989285Y-49375000D01*
X62010714Y-49396428D01*
X62396428Y-49503571D02*
X62396428Y-49803571D01*
X62289285Y-49332142D02*
X62182142Y-49653571D01*
X62460714Y-49653571D01*
X62589285Y-49353571D02*
X62867857Y-49353571D01*
X62717857Y-49525000D01*
X62782142Y-49525000D01*
X62825000Y-49546428D01*
X62846428Y-49567857D01*
X62867857Y-49610714D01*
X62867857Y-49717857D01*
X62846428Y-49760714D01*
X62825000Y-49782142D01*
X62782142Y-49803571D01*
X62653571Y-49803571D01*
X62610714Y-49782142D01*
X62589285Y-49760714D01*
X41610714Y-56860714D02*
X41589285Y-56882142D01*
X41525000Y-56903571D01*
X41482142Y-56903571D01*
X41417857Y-56882142D01*
X41375000Y-56839285D01*
X41353571Y-56796428D01*
X41332142Y-56710714D01*
X41332142Y-56646428D01*
X41353571Y-56560714D01*
X41375000Y-56517857D01*
X41417857Y-56475000D01*
X41482142Y-56453571D01*
X41525000Y-56453571D01*
X41589285Y-56475000D01*
X41610714Y-56496428D01*
X41996428Y-56603571D02*
X41996428Y-56903571D01*
X41889285Y-56432142D02*
X41782142Y-56753571D01*
X42060714Y-56753571D01*
X42467857Y-56903571D02*
X42210714Y-56903571D01*
X42339285Y-56903571D02*
X42339285Y-56453571D01*
X42296428Y-56517857D01*
X42253571Y-56560714D01*
X42210714Y-56582142D01*
X41710714Y-54810714D02*
X41689285Y-54832142D01*
X41625000Y-54853571D01*
X41582142Y-54853571D01*
X41517857Y-54832142D01*
X41475000Y-54789285D01*
X41453571Y-54746428D01*
X41432142Y-54660714D01*
X41432142Y-54596428D01*
X41453571Y-54510714D01*
X41475000Y-54467857D01*
X41517857Y-54425000D01*
X41582142Y-54403571D01*
X41625000Y-54403571D01*
X41689285Y-54425000D01*
X41710714Y-54446428D01*
X41860714Y-54403571D02*
X42139285Y-54403571D01*
X41989285Y-54575000D01*
X42053571Y-54575000D01*
X42096428Y-54596428D01*
X42117857Y-54617857D01*
X42139285Y-54660714D01*
X42139285Y-54767857D01*
X42117857Y-54810714D01*
X42096428Y-54832142D01*
X42053571Y-54853571D01*
X41925000Y-54853571D01*
X41882142Y-54832142D01*
X41860714Y-54810714D01*
X42396428Y-54596428D02*
X42353571Y-54575000D01*
X42332142Y-54553571D01*
X42310714Y-54510714D01*
X42310714Y-54489285D01*
X42332142Y-54446428D01*
X42353571Y-54425000D01*
X42396428Y-54403571D01*
X42482142Y-54403571D01*
X42525000Y-54425000D01*
X42546428Y-54446428D01*
X42567857Y-54489285D01*
X42567857Y-54510714D01*
X42546428Y-54553571D01*
X42525000Y-54575000D01*
X42482142Y-54596428D01*
X42396428Y-54596428D01*
X42353571Y-54617857D01*
X42332142Y-54639285D01*
X42310714Y-54682142D01*
X42310714Y-54767857D01*
X42332142Y-54810714D01*
X42353571Y-54832142D01*
X42396428Y-54853571D01*
X42482142Y-54853571D01*
X42525000Y-54832142D01*
X42546428Y-54810714D01*
X42567857Y-54767857D01*
X42567857Y-54682142D01*
X42546428Y-54639285D01*
X42525000Y-54617857D01*
X42482142Y-54596428D01*
X50960714Y-65060714D02*
X50939285Y-65082142D01*
X50875000Y-65103571D01*
X50832142Y-65103571D01*
X50767857Y-65082142D01*
X50725000Y-65039285D01*
X50703571Y-64996428D01*
X50682142Y-64910714D01*
X50682142Y-64846428D01*
X50703571Y-64760714D01*
X50725000Y-64717857D01*
X50767857Y-64675000D01*
X50832142Y-64653571D01*
X50875000Y-64653571D01*
X50939285Y-64675000D01*
X50960714Y-64696428D01*
X51110714Y-64653571D02*
X51389285Y-64653571D01*
X51239285Y-64825000D01*
X51303571Y-64825000D01*
X51346428Y-64846428D01*
X51367857Y-64867857D01*
X51389285Y-64910714D01*
X51389285Y-65017857D01*
X51367857Y-65060714D01*
X51346428Y-65082142D01*
X51303571Y-65103571D01*
X51175000Y-65103571D01*
X51132142Y-65082142D01*
X51110714Y-65060714D01*
X51539285Y-64653571D02*
X51817857Y-64653571D01*
X51667857Y-64825000D01*
X51732142Y-64825000D01*
X51775000Y-64846428D01*
X51796428Y-64867857D01*
X51817857Y-64910714D01*
X51817857Y-65017857D01*
X51796428Y-65060714D01*
X51775000Y-65082142D01*
X51732142Y-65103571D01*
X51603571Y-65103571D01*
X51560714Y-65082142D01*
X51539285Y-65060714D01*
X53060714Y-36660714D02*
X53039285Y-36682142D01*
X52975000Y-36703571D01*
X52932142Y-36703571D01*
X52867857Y-36682142D01*
X52825000Y-36639285D01*
X52803571Y-36596428D01*
X52782142Y-36510714D01*
X52782142Y-36446428D01*
X52803571Y-36360714D01*
X52825000Y-36317857D01*
X52867857Y-36275000D01*
X52932142Y-36253571D01*
X52975000Y-36253571D01*
X53039285Y-36275000D01*
X53060714Y-36296428D01*
X53210714Y-36253571D02*
X53489285Y-36253571D01*
X53339285Y-36425000D01*
X53403571Y-36425000D01*
X53446428Y-36446428D01*
X53467857Y-36467857D01*
X53489285Y-36510714D01*
X53489285Y-36617857D01*
X53467857Y-36660714D01*
X53446428Y-36682142D01*
X53403571Y-36703571D01*
X53275000Y-36703571D01*
X53232142Y-36682142D01*
X53210714Y-36660714D01*
X53660714Y-36296428D02*
X53682142Y-36275000D01*
X53725000Y-36253571D01*
X53832142Y-36253571D01*
X53875000Y-36275000D01*
X53896428Y-36296428D01*
X53917857Y-36339285D01*
X53917857Y-36382142D01*
X53896428Y-36446428D01*
X53639285Y-36703571D01*
X53917857Y-36703571D01*
X53160714Y-50960714D02*
X53139285Y-50982142D01*
X53075000Y-51003571D01*
X53032142Y-51003571D01*
X52967857Y-50982142D01*
X52925000Y-50939285D01*
X52903571Y-50896428D01*
X52882142Y-50810714D01*
X52882142Y-50746428D01*
X52903571Y-50660714D01*
X52925000Y-50617857D01*
X52967857Y-50575000D01*
X53032142Y-50553571D01*
X53075000Y-50553571D01*
X53139285Y-50575000D01*
X53160714Y-50596428D01*
X53332142Y-50596428D02*
X53353571Y-50575000D01*
X53396428Y-50553571D01*
X53503571Y-50553571D01*
X53546428Y-50575000D01*
X53567857Y-50596428D01*
X53589285Y-50639285D01*
X53589285Y-50682142D01*
X53567857Y-50746428D01*
X53310714Y-51003571D01*
X53589285Y-51003571D01*
X53996428Y-50553571D02*
X53782142Y-50553571D01*
X53760714Y-50767857D01*
X53782142Y-50746428D01*
X53825000Y-50725000D01*
X53932142Y-50725000D01*
X53975000Y-50746428D01*
X53996428Y-50767857D01*
X54017857Y-50810714D01*
X54017857Y-50917857D01*
X53996428Y-50960714D01*
X53975000Y-50982142D01*
X53932142Y-51003571D01*
X53825000Y-51003571D01*
X53782142Y-50982142D01*
X53760714Y-50960714D01*
X39460714Y-61960714D02*
X39439285Y-61982142D01*
X39375000Y-62003571D01*
X39332142Y-62003571D01*
X39267857Y-61982142D01*
X39225000Y-61939285D01*
X39203571Y-61896428D01*
X39182142Y-61810714D01*
X39182142Y-61746428D01*
X39203571Y-61660714D01*
X39225000Y-61617857D01*
X39267857Y-61575000D01*
X39332142Y-61553571D01*
X39375000Y-61553571D01*
X39439285Y-61575000D01*
X39460714Y-61596428D01*
X39632142Y-61596428D02*
X39653571Y-61575000D01*
X39696428Y-61553571D01*
X39803571Y-61553571D01*
X39846428Y-61575000D01*
X39867857Y-61596428D01*
X39889285Y-61639285D01*
X39889285Y-61682142D01*
X39867857Y-61746428D01*
X39610714Y-62003571D01*
X39889285Y-62003571D01*
X40039285Y-61553571D02*
X40317857Y-61553571D01*
X40167857Y-61725000D01*
X40232142Y-61725000D01*
X40275000Y-61746428D01*
X40296428Y-61767857D01*
X40317857Y-61810714D01*
X40317857Y-61917857D01*
X40296428Y-61960714D01*
X40275000Y-61982142D01*
X40232142Y-62003571D01*
X40103571Y-62003571D01*
X40060714Y-61982142D01*
X40039285Y-61960714D01*
X39460714Y-62560714D02*
X39439285Y-62582142D01*
X39375000Y-62603571D01*
X39332142Y-62603571D01*
X39267857Y-62582142D01*
X39225000Y-62539285D01*
X39203571Y-62496428D01*
X39182142Y-62410714D01*
X39182142Y-62346428D01*
X39203571Y-62260714D01*
X39225000Y-62217857D01*
X39267857Y-62175000D01*
X39332142Y-62153571D01*
X39375000Y-62153571D01*
X39439285Y-62175000D01*
X39460714Y-62196428D01*
X39632142Y-62196428D02*
X39653571Y-62175000D01*
X39696428Y-62153571D01*
X39803571Y-62153571D01*
X39846428Y-62175000D01*
X39867857Y-62196428D01*
X39889285Y-62239285D01*
X39889285Y-62282142D01*
X39867857Y-62346428D01*
X39610714Y-62603571D01*
X39889285Y-62603571D01*
X40060714Y-62196428D02*
X40082142Y-62175000D01*
X40125000Y-62153571D01*
X40232142Y-62153571D01*
X40275000Y-62175000D01*
X40296428Y-62196428D01*
X40317857Y-62239285D01*
X40317857Y-62282142D01*
X40296428Y-62346428D01*
X40039285Y-62603571D01*
X40317857Y-62603571D01*
X62010714Y-39710714D02*
X61989285Y-39732142D01*
X61925000Y-39753571D01*
X61882142Y-39753571D01*
X61817857Y-39732142D01*
X61775000Y-39689285D01*
X61753571Y-39646428D01*
X61732142Y-39560714D01*
X61732142Y-39496428D01*
X61753571Y-39410714D01*
X61775000Y-39367857D01*
X61817857Y-39325000D01*
X61882142Y-39303571D01*
X61925000Y-39303571D01*
X61989285Y-39325000D01*
X62010714Y-39346428D01*
X62439285Y-39753571D02*
X62182142Y-39753571D01*
X62310714Y-39753571D02*
X62310714Y-39303571D01*
X62267857Y-39367857D01*
X62225000Y-39410714D01*
X62182142Y-39432142D01*
X62696428Y-39496428D02*
X62653571Y-39475000D01*
X62632142Y-39453571D01*
X62610714Y-39410714D01*
X62610714Y-39389285D01*
X62632142Y-39346428D01*
X62653571Y-39325000D01*
X62696428Y-39303571D01*
X62782142Y-39303571D01*
X62825000Y-39325000D01*
X62846428Y-39346428D01*
X62867857Y-39389285D01*
X62867857Y-39410714D01*
X62846428Y-39453571D01*
X62825000Y-39475000D01*
X62782142Y-39496428D01*
X62696428Y-39496428D01*
X62653571Y-39517857D01*
X62632142Y-39539285D01*
X62610714Y-39582142D01*
X62610714Y-39667857D01*
X62632142Y-39710714D01*
X62653571Y-39732142D01*
X62696428Y-39753571D01*
X62782142Y-39753571D01*
X62825000Y-39732142D01*
X62846428Y-39710714D01*
X62867857Y-39667857D01*
X62867857Y-39582142D01*
X62846428Y-39539285D01*
X62825000Y-39517857D01*
X62782142Y-39496428D01*
X67010714Y-38960714D02*
X66989285Y-38982142D01*
X66925000Y-39003571D01*
X66882142Y-39003571D01*
X66817857Y-38982142D01*
X66775000Y-38939285D01*
X66753571Y-38896428D01*
X66732142Y-38810714D01*
X66732142Y-38746428D01*
X66753571Y-38660714D01*
X66775000Y-38617857D01*
X66817857Y-38575000D01*
X66882142Y-38553571D01*
X66925000Y-38553571D01*
X66989285Y-38575000D01*
X67010714Y-38596428D01*
X67439285Y-39003571D02*
X67182142Y-39003571D01*
X67310714Y-39003571D02*
X67310714Y-38553571D01*
X67267857Y-38617857D01*
X67225000Y-38660714D01*
X67182142Y-38682142D01*
X67589285Y-38553571D02*
X67889285Y-38553571D01*
X67696428Y-39003571D01*
X59825000Y-27660714D02*
X59803571Y-27682142D01*
X59739285Y-27703571D01*
X59696428Y-27703571D01*
X59632142Y-27682142D01*
X59589285Y-27639285D01*
X59567857Y-27596428D01*
X59546428Y-27510714D01*
X59546428Y-27446428D01*
X59567857Y-27360714D01*
X59589285Y-27317857D01*
X59632142Y-27275000D01*
X59696428Y-27253571D01*
X59739285Y-27253571D01*
X59803571Y-27275000D01*
X59825000Y-27296428D01*
X60210714Y-27253571D02*
X60125000Y-27253571D01*
X60082142Y-27275000D01*
X60060714Y-27296428D01*
X60017857Y-27360714D01*
X59996428Y-27446428D01*
X59996428Y-27617857D01*
X60017857Y-27660714D01*
X60039285Y-27682142D01*
X60082142Y-27703571D01*
X60167857Y-27703571D01*
X60210714Y-27682142D01*
X60232142Y-27660714D01*
X60253571Y-27617857D01*
X60253571Y-27510714D01*
X60232142Y-27467857D01*
X60210714Y-27446428D01*
X60167857Y-27425000D01*
X60082142Y-27425000D01*
X60039285Y-27446428D01*
X60017857Y-27467857D01*
X59996428Y-27510714D01*
X58442857Y-60003571D02*
X58442857Y-60367857D01*
X58464285Y-60410714D01*
X58485714Y-60432142D01*
X58528571Y-60453571D01*
X58614285Y-60453571D01*
X58657142Y-60432142D01*
X58678571Y-60410714D01*
X58700000Y-60367857D01*
X58700000Y-60003571D01*
X59150000Y-60453571D02*
X58892857Y-60453571D01*
X59021428Y-60453571D02*
X59021428Y-60003571D01*
X58978571Y-60067857D01*
X58935714Y-60110714D01*
X58892857Y-60132142D01*
X59578571Y-60453571D02*
X59321428Y-60453571D01*
X59450000Y-60453571D02*
X59450000Y-60003571D01*
X59407142Y-60067857D01*
X59364285Y-60110714D01*
X59321428Y-60132142D01*
X28207142Y-29803571D02*
X28207142Y-30167857D01*
X28228571Y-30210714D01*
X28250000Y-30232142D01*
X28292857Y-30253571D01*
X28378571Y-30253571D01*
X28421428Y-30232142D01*
X28442857Y-30210714D01*
X28464285Y-30167857D01*
X28464285Y-29803571D01*
X28700000Y-30253571D02*
X28785714Y-30253571D01*
X28828571Y-30232142D01*
X28850000Y-30210714D01*
X28892857Y-30146428D01*
X28914285Y-30060714D01*
X28914285Y-29889285D01*
X28892857Y-29846428D01*
X28871428Y-29825000D01*
X28828571Y-29803571D01*
X28742857Y-29803571D01*
X28700000Y-29825000D01*
X28678571Y-29846428D01*
X28657142Y-29889285D01*
X28657142Y-29996428D01*
X28678571Y-30039285D01*
X28700000Y-30060714D01*
X28742857Y-30082142D01*
X28828571Y-30082142D01*
X28871428Y-30060714D01*
X28892857Y-30039285D01*
X28914285Y-29996428D01*
X74957142Y-36203571D02*
X74957142Y-36567857D01*
X74978571Y-36610714D01*
X75000000Y-36632142D01*
X75042857Y-36653571D01*
X75128571Y-36653571D01*
X75171428Y-36632142D01*
X75192857Y-36610714D01*
X75214285Y-36567857D01*
X75214285Y-36203571D01*
X75492857Y-36396428D02*
X75450000Y-36375000D01*
X75428571Y-36353571D01*
X75407142Y-36310714D01*
X75407142Y-36289285D01*
X75428571Y-36246428D01*
X75450000Y-36225000D01*
X75492857Y-36203571D01*
X75578571Y-36203571D01*
X75621428Y-36225000D01*
X75642857Y-36246428D01*
X75664285Y-36289285D01*
X75664285Y-36310714D01*
X75642857Y-36353571D01*
X75621428Y-36375000D01*
X75578571Y-36396428D01*
X75492857Y-36396428D01*
X75450000Y-36417857D01*
X75428571Y-36439285D01*
X75407142Y-36482142D01*
X75407142Y-36567857D01*
X75428571Y-36610714D01*
X75450000Y-36632142D01*
X75492857Y-36653571D01*
X75578571Y-36653571D01*
X75621428Y-36632142D01*
X75642857Y-36610714D01*
X75664285Y-36567857D01*
X75664285Y-36482142D01*
X75642857Y-36439285D01*
X75621428Y-36417857D01*
X75578571Y-36396428D01*
X71157142Y-53903571D02*
X71157142Y-54267857D01*
X71178571Y-54310714D01*
X71200000Y-54332142D01*
X71242857Y-54353571D01*
X71328571Y-54353571D01*
X71371428Y-54332142D01*
X71392857Y-54310714D01*
X71414285Y-54267857D01*
X71414285Y-53903571D01*
X71842857Y-53903571D02*
X71628571Y-53903571D01*
X71607142Y-54117857D01*
X71628571Y-54096428D01*
X71671428Y-54075000D01*
X71778571Y-54075000D01*
X71821428Y-54096428D01*
X71842857Y-54117857D01*
X71864285Y-54160714D01*
X71864285Y-54267857D01*
X71842857Y-54310714D01*
X71821428Y-54332142D01*
X71778571Y-54353571D01*
X71671428Y-54353571D01*
X71628571Y-54332142D01*
X71607142Y-54310714D01*
X36847142Y-47193571D02*
X36847142Y-47557857D01*
X36868571Y-47600714D01*
X36890000Y-47622142D01*
X36932857Y-47643571D01*
X37018571Y-47643571D01*
X37061428Y-47622142D01*
X37082857Y-47600714D01*
X37104285Y-47557857D01*
X37104285Y-47193571D01*
X37275714Y-47193571D02*
X37554285Y-47193571D01*
X37404285Y-47365000D01*
X37468571Y-47365000D01*
X37511428Y-47386428D01*
X37532857Y-47407857D01*
X37554285Y-47450714D01*
X37554285Y-47557857D01*
X37532857Y-47600714D01*
X37511428Y-47622142D01*
X37468571Y-47643571D01*
X37340000Y-47643571D01*
X37297142Y-47622142D01*
X37275714Y-47600714D01*
X64977142Y-53903571D02*
X64977142Y-54267857D01*
X64998571Y-54310714D01*
X65020000Y-54332142D01*
X65062857Y-54353571D01*
X65148571Y-54353571D01*
X65191428Y-54332142D01*
X65212857Y-54310714D01*
X65234285Y-54267857D01*
X65234285Y-53903571D01*
X65427142Y-53946428D02*
X65448571Y-53925000D01*
X65491428Y-53903571D01*
X65598571Y-53903571D01*
X65641428Y-53925000D01*
X65662857Y-53946428D01*
X65684285Y-53989285D01*
X65684285Y-54032142D01*
X65662857Y-54096428D01*
X65405714Y-54353571D01*
X65684285Y-54353571D01*
X75703571Y-32003571D02*
X75703571Y-31553571D01*
X75810714Y-31553571D01*
X75875000Y-31575000D01*
X75917857Y-31617857D01*
X75939285Y-31660714D01*
X75960714Y-31746428D01*
X75960714Y-31810714D01*
X75939285Y-31896428D01*
X75917857Y-31939285D01*
X75875000Y-31982142D01*
X75810714Y-32003571D01*
X75703571Y-32003571D01*
X76389285Y-32003571D02*
X76132142Y-32003571D01*
X76260714Y-32003571D02*
X76260714Y-31553571D01*
X76217857Y-31617857D01*
X76175000Y-31660714D01*
X76132142Y-31682142D01*
X76539285Y-31553571D02*
X76839285Y-31553571D01*
X76646428Y-32003571D01*
X38580714Y-40450714D02*
X38559285Y-40472142D01*
X38495000Y-40493571D01*
X38452142Y-40493571D01*
X38387857Y-40472142D01*
X38345000Y-40429285D01*
X38323571Y-40386428D01*
X38302142Y-40300714D01*
X38302142Y-40236428D01*
X38323571Y-40150714D01*
X38345000Y-40107857D01*
X38387857Y-40065000D01*
X38452142Y-40043571D01*
X38495000Y-40043571D01*
X38559285Y-40065000D01*
X38580714Y-40086428D01*
X38730714Y-40043571D02*
X39009285Y-40043571D01*
X38859285Y-40215000D01*
X38923571Y-40215000D01*
X38966428Y-40236428D01*
X38987857Y-40257857D01*
X39009285Y-40300714D01*
X39009285Y-40407857D01*
X38987857Y-40450714D01*
X38966428Y-40472142D01*
X38923571Y-40493571D01*
X38795000Y-40493571D01*
X38752142Y-40472142D01*
X38730714Y-40450714D01*
X39159285Y-40043571D02*
X39459285Y-40043571D01*
X39266428Y-40493571D01*
X40410714Y-39570714D02*
X40389285Y-39592142D01*
X40325000Y-39613571D01*
X40282142Y-39613571D01*
X40217857Y-39592142D01*
X40175000Y-39549285D01*
X40153571Y-39506428D01*
X40132142Y-39420714D01*
X40132142Y-39356428D01*
X40153571Y-39270714D01*
X40175000Y-39227857D01*
X40217857Y-39185000D01*
X40282142Y-39163571D01*
X40325000Y-39163571D01*
X40389285Y-39185000D01*
X40410714Y-39206428D01*
X40560714Y-39163571D02*
X40839285Y-39163571D01*
X40689285Y-39335000D01*
X40753571Y-39335000D01*
X40796428Y-39356428D01*
X40817857Y-39377857D01*
X40839285Y-39420714D01*
X40839285Y-39527857D01*
X40817857Y-39570714D01*
X40796428Y-39592142D01*
X40753571Y-39613571D01*
X40625000Y-39613571D01*
X40582142Y-39592142D01*
X40560714Y-39570714D01*
X41225000Y-39163571D02*
X41139285Y-39163571D01*
X41096428Y-39185000D01*
X41075000Y-39206428D01*
X41032142Y-39270714D01*
X41010714Y-39356428D01*
X41010714Y-39527857D01*
X41032142Y-39570714D01*
X41053571Y-39592142D01*
X41096428Y-39613571D01*
X41182142Y-39613571D01*
X41225000Y-39592142D01*
X41246428Y-39570714D01*
X41267857Y-39527857D01*
X41267857Y-39420714D01*
X41246428Y-39377857D01*
X41225000Y-39356428D01*
X41182142Y-39335000D01*
X41096428Y-39335000D01*
X41053571Y-39356428D01*
X41032142Y-39377857D01*
X41010714Y-39420714D01*
X34110714Y-43160714D02*
X34089285Y-43182142D01*
X34025000Y-43203571D01*
X33982142Y-43203571D01*
X33917857Y-43182142D01*
X33875000Y-43139285D01*
X33853571Y-43096428D01*
X33832142Y-43010714D01*
X33832142Y-42946428D01*
X33853571Y-42860714D01*
X33875000Y-42817857D01*
X33917857Y-42775000D01*
X33982142Y-42753571D01*
X34025000Y-42753571D01*
X34089285Y-42775000D01*
X34110714Y-42796428D01*
X34260714Y-42753571D02*
X34539285Y-42753571D01*
X34389285Y-42925000D01*
X34453571Y-42925000D01*
X34496428Y-42946428D01*
X34517857Y-42967857D01*
X34539285Y-43010714D01*
X34539285Y-43117857D01*
X34517857Y-43160714D01*
X34496428Y-43182142D01*
X34453571Y-43203571D01*
X34325000Y-43203571D01*
X34282142Y-43182142D01*
X34260714Y-43160714D01*
X34946428Y-42753571D02*
X34732142Y-42753571D01*
X34710714Y-42967857D01*
X34732142Y-42946428D01*
X34775000Y-42925000D01*
X34882142Y-42925000D01*
X34925000Y-42946428D01*
X34946428Y-42967857D01*
X34967857Y-43010714D01*
X34967857Y-43117857D01*
X34946428Y-43160714D01*
X34925000Y-43182142D01*
X34882142Y-43203571D01*
X34775000Y-43203571D01*
X34732142Y-43182142D01*
X34710714Y-43160714D01*
X32080714Y-48680714D02*
X32059285Y-48702142D01*
X31995000Y-48723571D01*
X31952142Y-48723571D01*
X31887857Y-48702142D01*
X31845000Y-48659285D01*
X31823571Y-48616428D01*
X31802142Y-48530714D01*
X31802142Y-48466428D01*
X31823571Y-48380714D01*
X31845000Y-48337857D01*
X31887857Y-48295000D01*
X31952142Y-48273571D01*
X31995000Y-48273571D01*
X32059285Y-48295000D01*
X32080714Y-48316428D01*
X32252142Y-48316428D02*
X32273571Y-48295000D01*
X32316428Y-48273571D01*
X32423571Y-48273571D01*
X32466428Y-48295000D01*
X32487857Y-48316428D01*
X32509285Y-48359285D01*
X32509285Y-48402142D01*
X32487857Y-48466428D01*
X32230714Y-48723571D01*
X32509285Y-48723571D01*
X32659285Y-48273571D02*
X32959285Y-48273571D01*
X32766428Y-48723571D01*
X34300000Y-27903571D02*
X34300000Y-28225000D01*
X34278571Y-28289285D01*
X34235714Y-28332142D01*
X34171428Y-28353571D01*
X34128571Y-28353571D01*
X34578571Y-28096428D02*
X34535714Y-28075000D01*
X34514285Y-28053571D01*
X34492857Y-28010714D01*
X34492857Y-27989285D01*
X34514285Y-27946428D01*
X34535714Y-27925000D01*
X34578571Y-27903571D01*
X34664285Y-27903571D01*
X34707142Y-27925000D01*
X34728571Y-27946428D01*
X34750000Y-27989285D01*
X34750000Y-28010714D01*
X34728571Y-28053571D01*
X34707142Y-28075000D01*
X34664285Y-28096428D01*
X34578571Y-28096428D01*
X34535714Y-28117857D01*
X34514285Y-28139285D01*
X34492857Y-28182142D01*
X34492857Y-28267857D01*
X34514285Y-28310714D01*
X34535714Y-28332142D01*
X34578571Y-28353571D01*
X34664285Y-28353571D01*
X34707142Y-28332142D01*
X34728571Y-28310714D01*
X34750000Y-28267857D01*
X34750000Y-28182142D01*
X34728571Y-28139285D01*
X34707142Y-28117857D01*
X34664285Y-28096428D01*
X25927142Y-30356428D02*
X25884285Y-30335000D01*
X25841428Y-30292142D01*
X25777142Y-30227857D01*
X25734285Y-30206428D01*
X25691428Y-30206428D01*
X25712857Y-30313571D02*
X25670000Y-30292142D01*
X25627142Y-30249285D01*
X25605714Y-30163571D01*
X25605714Y-30013571D01*
X25627142Y-29927857D01*
X25670000Y-29885000D01*
X25712857Y-29863571D01*
X25798571Y-29863571D01*
X25841428Y-29885000D01*
X25884285Y-29927857D01*
X25905714Y-30013571D01*
X25905714Y-30163571D01*
X25884285Y-30249285D01*
X25841428Y-30292142D01*
X25798571Y-30313571D01*
X25712857Y-30313571D01*
X26077142Y-29906428D02*
X26098571Y-29885000D01*
X26141428Y-29863571D01*
X26248571Y-29863571D01*
X26291428Y-29885000D01*
X26312857Y-29906428D01*
X26334285Y-29949285D01*
X26334285Y-29992142D01*
X26312857Y-30056428D01*
X26055714Y-30313571D01*
X26334285Y-30313571D01*
X56410714Y-29203571D02*
X56260714Y-28989285D01*
X56153571Y-29203571D02*
X56153571Y-28753571D01*
X56325000Y-28753571D01*
X56367857Y-28775000D01*
X56389285Y-28796428D01*
X56410714Y-28839285D01*
X56410714Y-28903571D01*
X56389285Y-28946428D01*
X56367857Y-28967857D01*
X56325000Y-28989285D01*
X56153571Y-28989285D01*
X56839285Y-29203571D02*
X56582142Y-29203571D01*
X56710714Y-29203571D02*
X56710714Y-28753571D01*
X56667857Y-28817857D01*
X56625000Y-28860714D01*
X56582142Y-28882142D01*
X56989285Y-28753571D02*
X57267857Y-28753571D01*
X57117857Y-28925000D01*
X57182142Y-28925000D01*
X57225000Y-28946428D01*
X57246428Y-28967857D01*
X57267857Y-29010714D01*
X57267857Y-29117857D01*
X57246428Y-29160714D01*
X57225000Y-29182142D01*
X57182142Y-29203571D01*
X57053571Y-29203571D01*
X57010714Y-29182142D01*
X56989285Y-29160714D01*
X45710714Y-29803571D02*
X45560714Y-29589285D01*
X45453571Y-29803571D02*
X45453571Y-29353571D01*
X45625000Y-29353571D01*
X45667857Y-29375000D01*
X45689285Y-29396428D01*
X45710714Y-29439285D01*
X45710714Y-29503571D01*
X45689285Y-29546428D01*
X45667857Y-29567857D01*
X45625000Y-29589285D01*
X45453571Y-29589285D01*
X46139285Y-29803571D02*
X45882142Y-29803571D01*
X46010714Y-29803571D02*
X46010714Y-29353571D01*
X45967857Y-29417857D01*
X45925000Y-29460714D01*
X45882142Y-29482142D01*
X46310714Y-29396428D02*
X46332142Y-29375000D01*
X46375000Y-29353571D01*
X46482142Y-29353571D01*
X46525000Y-29375000D01*
X46546428Y-29396428D01*
X46567857Y-29439285D01*
X46567857Y-29482142D01*
X46546428Y-29546428D01*
X46289285Y-29803571D01*
X46567857Y-29803571D01*
X55910714Y-43103571D02*
X55760714Y-42889285D01*
X55653571Y-43103571D02*
X55653571Y-42653571D01*
X55825000Y-42653571D01*
X55867857Y-42675000D01*
X55889285Y-42696428D01*
X55910714Y-42739285D01*
X55910714Y-42803571D01*
X55889285Y-42846428D01*
X55867857Y-42867857D01*
X55825000Y-42889285D01*
X55653571Y-42889285D01*
X56339285Y-43103571D02*
X56082142Y-43103571D01*
X56210714Y-43103571D02*
X56210714Y-42653571D01*
X56167857Y-42717857D01*
X56125000Y-42760714D01*
X56082142Y-42782142D01*
X56767857Y-43103571D02*
X56510714Y-43103571D01*
X56639285Y-43103571D02*
X56639285Y-42653571D01*
X56596428Y-42717857D01*
X56553571Y-42760714D01*
X56510714Y-42782142D01*
X45460714Y-43103571D02*
X45310714Y-42889285D01*
X45203571Y-43103571D02*
X45203571Y-42653571D01*
X45375000Y-42653571D01*
X45417857Y-42675000D01*
X45439285Y-42696428D01*
X45460714Y-42739285D01*
X45460714Y-42803571D01*
X45439285Y-42846428D01*
X45417857Y-42867857D01*
X45375000Y-42889285D01*
X45203571Y-42889285D01*
X45889285Y-43103571D02*
X45632142Y-43103571D01*
X45760714Y-43103571D02*
X45760714Y-42653571D01*
X45717857Y-42717857D01*
X45675000Y-42760714D01*
X45632142Y-42782142D01*
X46167857Y-42653571D02*
X46210714Y-42653571D01*
X46253571Y-42675000D01*
X46275000Y-42696428D01*
X46296428Y-42739285D01*
X46317857Y-42825000D01*
X46317857Y-42932142D01*
X46296428Y-43017857D01*
X46275000Y-43060714D01*
X46253571Y-43082142D01*
X46210714Y-43103571D01*
X46167857Y-43103571D01*
X46125000Y-43082142D01*
X46103571Y-43060714D01*
X46082142Y-43017857D01*
X46060714Y-42932142D01*
X46060714Y-42825000D01*
X46082142Y-42739285D01*
X46103571Y-42696428D01*
X46125000Y-42675000D01*
X46167857Y-42653571D01*
X55925000Y-57303571D02*
X55775000Y-57089285D01*
X55667857Y-57303571D02*
X55667857Y-56853571D01*
X55839285Y-56853571D01*
X55882142Y-56875000D01*
X55903571Y-56896428D01*
X55925000Y-56939285D01*
X55925000Y-57003571D01*
X55903571Y-57046428D01*
X55882142Y-57067857D01*
X55839285Y-57089285D01*
X55667857Y-57089285D01*
X56075000Y-56853571D02*
X56353571Y-56853571D01*
X56203571Y-57025000D01*
X56267857Y-57025000D01*
X56310714Y-57046428D01*
X56332142Y-57067857D01*
X56353571Y-57110714D01*
X56353571Y-57217857D01*
X56332142Y-57260714D01*
X56310714Y-57282142D01*
X56267857Y-57303571D01*
X56139285Y-57303571D01*
X56096428Y-57282142D01*
X56075000Y-57260714D01*
X45775000Y-57303571D02*
X45625000Y-57089285D01*
X45517857Y-57303571D02*
X45517857Y-56853571D01*
X45689285Y-56853571D01*
X45732142Y-56875000D01*
X45753571Y-56896428D01*
X45775000Y-56939285D01*
X45775000Y-57003571D01*
X45753571Y-57046428D01*
X45732142Y-57067857D01*
X45689285Y-57089285D01*
X45517857Y-57089285D01*
X45946428Y-56896428D02*
X45967857Y-56875000D01*
X46010714Y-56853571D01*
X46117857Y-56853571D01*
X46160714Y-56875000D01*
X46182142Y-56896428D01*
X46203571Y-56939285D01*
X46203571Y-56982142D01*
X46182142Y-57046428D01*
X45925000Y-57303571D01*
X46203571Y-57303571D01*
X71660714Y-58253571D02*
X71510714Y-58039285D01*
X71403571Y-58253571D02*
X71403571Y-57803571D01*
X71575000Y-57803571D01*
X71617857Y-57825000D01*
X71639285Y-57846428D01*
X71660714Y-57889285D01*
X71660714Y-57953571D01*
X71639285Y-57996428D01*
X71617857Y-58017857D01*
X71575000Y-58039285D01*
X71403571Y-58039285D01*
X72089285Y-58253571D02*
X71832142Y-58253571D01*
X71960714Y-58253571D02*
X71960714Y-57803571D01*
X71917857Y-57867857D01*
X71875000Y-57910714D01*
X71832142Y-57932142D01*
X72303571Y-58253571D02*
X72389285Y-58253571D01*
X72432142Y-58232142D01*
X72453571Y-58210714D01*
X72496428Y-58146428D01*
X72517857Y-58060714D01*
X72517857Y-57889285D01*
X72496428Y-57846428D01*
X72475000Y-57825000D01*
X72432142Y-57803571D01*
X72346428Y-57803571D01*
X72303571Y-57825000D01*
X72282142Y-57846428D01*
X72260714Y-57889285D01*
X72260714Y-57996428D01*
X72282142Y-58039285D01*
X72303571Y-58060714D01*
X72346428Y-58082142D01*
X72432142Y-58082142D01*
X72475000Y-58060714D01*
X72496428Y-58039285D01*
X72517857Y-57996428D01*
X71775714Y-27843571D02*
X71775714Y-28165000D01*
X71754285Y-28229285D01*
X71711428Y-28272142D01*
X71647142Y-28293571D01*
X71604285Y-28293571D01*
X72225714Y-28293571D02*
X71968571Y-28293571D01*
X72097142Y-28293571D02*
X72097142Y-27843571D01*
X72054285Y-27907857D01*
X72011428Y-27950714D01*
X71968571Y-27972142D01*
X72654285Y-28293571D02*
X72397142Y-28293571D01*
X72525714Y-28293571D02*
X72525714Y-27843571D01*
X72482857Y-27907857D01*
X72440000Y-27950714D01*
X72397142Y-27972142D01*
X23685714Y-27953571D02*
X23685714Y-28275000D01*
X23664285Y-28339285D01*
X23621428Y-28382142D01*
X23557142Y-28403571D01*
X23514285Y-28403571D01*
X24135714Y-28403571D02*
X23878571Y-28403571D01*
X24007142Y-28403571D02*
X24007142Y-27953571D01*
X23964285Y-28017857D01*
X23921428Y-28060714D01*
X23878571Y-28082142D01*
X24414285Y-27953571D02*
X24457142Y-27953571D01*
X24500000Y-27975000D01*
X24521428Y-27996428D01*
X24542857Y-28039285D01*
X24564285Y-28125000D01*
X24564285Y-28232142D01*
X24542857Y-28317857D01*
X24521428Y-28360714D01*
X24500000Y-28382142D01*
X24457142Y-28403571D01*
X24414285Y-28403571D01*
X24371428Y-28382142D01*
X24350000Y-28360714D01*
X24328571Y-28317857D01*
X24307142Y-28232142D01*
X24307142Y-28125000D01*
X24328571Y-28039285D01*
X24350000Y-27996428D01*
X24371428Y-27975000D01*
X24414285Y-27953571D01*
X76575000Y-61478571D02*
X76575000Y-61800000D01*
X76553571Y-61864285D01*
X76510714Y-61907142D01*
X76446428Y-61928571D01*
X76403571Y-61928571D01*
X76982142Y-61478571D02*
X76896428Y-61478571D01*
X76853571Y-61500000D01*
X76832142Y-61521428D01*
X76789285Y-61585714D01*
X76767857Y-61671428D01*
X76767857Y-61842857D01*
X76789285Y-61885714D01*
X76810714Y-61907142D01*
X76853571Y-61928571D01*
X76939285Y-61928571D01*
X76982142Y-61907142D01*
X77003571Y-61885714D01*
X77025000Y-61842857D01*
X77025000Y-61735714D01*
X77003571Y-61692857D01*
X76982142Y-61671428D01*
X76939285Y-61650000D01*
X76853571Y-61650000D01*
X76810714Y-61671428D01*
X76789285Y-61692857D01*
X76767857Y-61735714D01*
X61310714Y-40410714D02*
X61289285Y-40432142D01*
X61225000Y-40453571D01*
X61182142Y-40453571D01*
X61117857Y-40432142D01*
X61075000Y-40389285D01*
X61053571Y-40346428D01*
X61032142Y-40260714D01*
X61032142Y-40196428D01*
X61053571Y-40110714D01*
X61075000Y-40067857D01*
X61117857Y-40025000D01*
X61182142Y-40003571D01*
X61225000Y-40003571D01*
X61289285Y-40025000D01*
X61310714Y-40046428D01*
X61482142Y-40046428D02*
X61503571Y-40025000D01*
X61546428Y-40003571D01*
X61653571Y-40003571D01*
X61696428Y-40025000D01*
X61717857Y-40046428D01*
X61739285Y-40089285D01*
X61739285Y-40132142D01*
X61717857Y-40196428D01*
X61460714Y-40453571D01*
X61739285Y-40453571D01*
X61996428Y-40196428D02*
X61953571Y-40175000D01*
X61932142Y-40153571D01*
X61910714Y-40110714D01*
X61910714Y-40089285D01*
X61932142Y-40046428D01*
X61953571Y-40025000D01*
X61996428Y-40003571D01*
X62082142Y-40003571D01*
X62125000Y-40025000D01*
X62146428Y-40046428D01*
X62167857Y-40089285D01*
X62167857Y-40110714D01*
X62146428Y-40153571D01*
X62125000Y-40175000D01*
X62082142Y-40196428D01*
X61996428Y-40196428D01*
X61953571Y-40217857D01*
X61932142Y-40239285D01*
X61910714Y-40282142D01*
X61910714Y-40367857D01*
X61932142Y-40410714D01*
X61953571Y-40432142D01*
X61996428Y-40453571D01*
X62082142Y-40453571D01*
X62125000Y-40432142D01*
X62146428Y-40410714D01*
X62167857Y-40367857D01*
X62167857Y-40282142D01*
X62146428Y-40239285D01*
X62125000Y-40217857D01*
X62082142Y-40196428D01*
X74585714Y-56735714D02*
X74564285Y-56757142D01*
X74500000Y-56778571D01*
X74457142Y-56778571D01*
X74392857Y-56757142D01*
X74350000Y-56714285D01*
X74328571Y-56671428D01*
X74307142Y-56585714D01*
X74307142Y-56521428D01*
X74328571Y-56435714D01*
X74350000Y-56392857D01*
X74392857Y-56350000D01*
X74457142Y-56328571D01*
X74500000Y-56328571D01*
X74564285Y-56350000D01*
X74585714Y-56371428D01*
X74757142Y-56371428D02*
X74778571Y-56350000D01*
X74821428Y-56328571D01*
X74928571Y-56328571D01*
X74971428Y-56350000D01*
X74992857Y-56371428D01*
X75014285Y-56414285D01*
X75014285Y-56457142D01*
X74992857Y-56521428D01*
X74735714Y-56778571D01*
X75014285Y-56778571D01*
X75400000Y-56328571D02*
X75314285Y-56328571D01*
X75271428Y-56350000D01*
X75250000Y-56371428D01*
X75207142Y-56435714D01*
X75185714Y-56521428D01*
X75185714Y-56692857D01*
X75207142Y-56735714D01*
X75228571Y-56757142D01*
X75271428Y-56778571D01*
X75357142Y-56778571D01*
X75400000Y-56757142D01*
X75421428Y-56735714D01*
X75442857Y-56692857D01*
X75442857Y-56585714D01*
X75421428Y-56542857D01*
X75400000Y-56521428D01*
X75357142Y-56500000D01*
X75271428Y-56500000D01*
X75228571Y-56521428D01*
X75207142Y-56542857D01*
X75185714Y-56585714D01*
X29410714Y-58160714D02*
X29389285Y-58182142D01*
X29325000Y-58203571D01*
X29282142Y-58203571D01*
X29217857Y-58182142D01*
X29175000Y-58139285D01*
X29153571Y-58096428D01*
X29132142Y-58010714D01*
X29132142Y-57946428D01*
X29153571Y-57860714D01*
X29175000Y-57817857D01*
X29217857Y-57775000D01*
X29282142Y-57753571D01*
X29325000Y-57753571D01*
X29389285Y-57775000D01*
X29410714Y-57796428D01*
X29582142Y-57796428D02*
X29603571Y-57775000D01*
X29646428Y-57753571D01*
X29753571Y-57753571D01*
X29796428Y-57775000D01*
X29817857Y-57796428D01*
X29839285Y-57839285D01*
X29839285Y-57882142D01*
X29817857Y-57946428D01*
X29560714Y-58203571D01*
X29839285Y-58203571D01*
X30267857Y-58203571D02*
X30010714Y-58203571D01*
X30139285Y-58203571D02*
X30139285Y-57753571D01*
X30096428Y-57817857D01*
X30053571Y-57860714D01*
X30010714Y-57882142D01*
X51710714Y-23560714D02*
X51689285Y-23582142D01*
X51625000Y-23603571D01*
X51582142Y-23603571D01*
X51517857Y-23582142D01*
X51475000Y-23539285D01*
X51453571Y-23496428D01*
X51432142Y-23410714D01*
X51432142Y-23346428D01*
X51453571Y-23260714D01*
X51475000Y-23217857D01*
X51517857Y-23175000D01*
X51582142Y-23153571D01*
X51625000Y-23153571D01*
X51689285Y-23175000D01*
X51710714Y-23196428D01*
X52139285Y-23603571D02*
X51882142Y-23603571D01*
X52010714Y-23603571D02*
X52010714Y-23153571D01*
X51967857Y-23217857D01*
X51925000Y-23260714D01*
X51882142Y-23282142D01*
X52525000Y-23153571D02*
X52439285Y-23153571D01*
X52396428Y-23175000D01*
X52375000Y-23196428D01*
X52332142Y-23260714D01*
X52310714Y-23346428D01*
X52310714Y-23517857D01*
X52332142Y-23560714D01*
X52353571Y-23582142D01*
X52396428Y-23603571D01*
X52482142Y-23603571D01*
X52525000Y-23582142D01*
X52546428Y-23560714D01*
X52567857Y-23517857D01*
X52567857Y-23410714D01*
X52546428Y-23367857D01*
X52525000Y-23346428D01*
X52482142Y-23325000D01*
X52396428Y-23325000D01*
X52353571Y-23346428D01*
X52332142Y-23367857D01*
X52310714Y-23410714D01*
X48510714Y-23610714D02*
X48489285Y-23632142D01*
X48425000Y-23653571D01*
X48382142Y-23653571D01*
X48317857Y-23632142D01*
X48275000Y-23589285D01*
X48253571Y-23546428D01*
X48232142Y-23460714D01*
X48232142Y-23396428D01*
X48253571Y-23310714D01*
X48275000Y-23267857D01*
X48317857Y-23225000D01*
X48382142Y-23203571D01*
X48425000Y-23203571D01*
X48489285Y-23225000D01*
X48510714Y-23246428D01*
X48939285Y-23653571D02*
X48682142Y-23653571D01*
X48810714Y-23653571D02*
X48810714Y-23203571D01*
X48767857Y-23267857D01*
X48725000Y-23310714D01*
X48682142Y-23332142D01*
X49346428Y-23203571D02*
X49132142Y-23203571D01*
X49110714Y-23417857D01*
X49132142Y-23396428D01*
X49175000Y-23375000D01*
X49282142Y-23375000D01*
X49325000Y-23396428D01*
X49346428Y-23417857D01*
X49367857Y-23460714D01*
X49367857Y-23567857D01*
X49346428Y-23610714D01*
X49325000Y-23632142D01*
X49282142Y-23653571D01*
X49175000Y-23653571D01*
X49132142Y-23632142D01*
X49110714Y-23610714D01*
X51810714Y-37410714D02*
X51789285Y-37432142D01*
X51725000Y-37453571D01*
X51682142Y-37453571D01*
X51617857Y-37432142D01*
X51575000Y-37389285D01*
X51553571Y-37346428D01*
X51532142Y-37260714D01*
X51532142Y-37196428D01*
X51553571Y-37110714D01*
X51575000Y-37067857D01*
X51617857Y-37025000D01*
X51682142Y-37003571D01*
X51725000Y-37003571D01*
X51789285Y-37025000D01*
X51810714Y-37046428D01*
X52239285Y-37453571D02*
X51982142Y-37453571D01*
X52110714Y-37453571D02*
X52110714Y-37003571D01*
X52067857Y-37067857D01*
X52025000Y-37110714D01*
X51982142Y-37132142D01*
X52625000Y-37153571D02*
X52625000Y-37453571D01*
X52517857Y-36982142D02*
X52410714Y-37303571D01*
X52689285Y-37303571D01*
X46460714Y-38160714D02*
X46439285Y-38182142D01*
X46375000Y-38203571D01*
X46332142Y-38203571D01*
X46267857Y-38182142D01*
X46225000Y-38139285D01*
X46203571Y-38096428D01*
X46182142Y-38010714D01*
X46182142Y-37946428D01*
X46203571Y-37860714D01*
X46225000Y-37817857D01*
X46267857Y-37775000D01*
X46332142Y-37753571D01*
X46375000Y-37753571D01*
X46439285Y-37775000D01*
X46460714Y-37796428D01*
X46889285Y-38203571D02*
X46632142Y-38203571D01*
X46760714Y-38203571D02*
X46760714Y-37753571D01*
X46717857Y-37817857D01*
X46675000Y-37860714D01*
X46632142Y-37882142D01*
X47039285Y-37753571D02*
X47317857Y-37753571D01*
X47167857Y-37925000D01*
X47232142Y-37925000D01*
X47275000Y-37946428D01*
X47296428Y-37967857D01*
X47317857Y-38010714D01*
X47317857Y-38117857D01*
X47296428Y-38160714D01*
X47275000Y-38182142D01*
X47232142Y-38203571D01*
X47103571Y-38203571D01*
X47060714Y-38182142D01*
X47039285Y-38160714D01*
X61610714Y-50660714D02*
X61589285Y-50682142D01*
X61525000Y-50703571D01*
X61482142Y-50703571D01*
X61417857Y-50682142D01*
X61375000Y-50639285D01*
X61353571Y-50596428D01*
X61332142Y-50510714D01*
X61332142Y-50446428D01*
X61353571Y-50360714D01*
X61375000Y-50317857D01*
X61417857Y-50275000D01*
X61482142Y-50253571D01*
X61525000Y-50253571D01*
X61589285Y-50275000D01*
X61610714Y-50296428D01*
X62039285Y-50703571D02*
X61782142Y-50703571D01*
X61910714Y-50703571D02*
X61910714Y-50253571D01*
X61867857Y-50317857D01*
X61825000Y-50360714D01*
X61782142Y-50382142D01*
X62317857Y-50253571D02*
X62360714Y-50253571D01*
X62403571Y-50275000D01*
X62425000Y-50296428D01*
X62446428Y-50339285D01*
X62467857Y-50425000D01*
X62467857Y-50532142D01*
X62446428Y-50617857D01*
X62425000Y-50660714D01*
X62403571Y-50682142D01*
X62360714Y-50703571D01*
X62317857Y-50703571D01*
X62275000Y-50682142D01*
X62253571Y-50660714D01*
X62232142Y-50617857D01*
X62210714Y-50532142D01*
X62210714Y-50425000D01*
X62232142Y-50339285D01*
X62253571Y-50296428D01*
X62275000Y-50275000D01*
X62317857Y-50253571D01*
X73425000Y-34660714D02*
X73403571Y-34682142D01*
X73339285Y-34703571D01*
X73296428Y-34703571D01*
X73232142Y-34682142D01*
X73189285Y-34639285D01*
X73167857Y-34596428D01*
X73146428Y-34510714D01*
X73146428Y-34446428D01*
X73167857Y-34360714D01*
X73189285Y-34317857D01*
X73232142Y-34275000D01*
X73296428Y-34253571D01*
X73339285Y-34253571D01*
X73403571Y-34275000D01*
X73425000Y-34296428D01*
X73639285Y-34703571D02*
X73725000Y-34703571D01*
X73767857Y-34682142D01*
X73789285Y-34660714D01*
X73832142Y-34596428D01*
X73853571Y-34510714D01*
X73853571Y-34339285D01*
X73832142Y-34296428D01*
X73810714Y-34275000D01*
X73767857Y-34253571D01*
X73682142Y-34253571D01*
X73639285Y-34275000D01*
X73617857Y-34296428D01*
X73596428Y-34339285D01*
X73596428Y-34446428D01*
X73617857Y-34489285D01*
X73639285Y-34510714D01*
X73682142Y-34532142D01*
X73767857Y-34532142D01*
X73810714Y-34510714D01*
X73832142Y-34489285D01*
X73853571Y-34446428D01*
X67198672Y-42451184D02*
X67177243Y-42472612D01*
X67112957Y-42494041D01*
X67070100Y-42494041D01*
X67005814Y-42472612D01*
X66962957Y-42429755D01*
X66941529Y-42386898D01*
X66920100Y-42301184D01*
X66920100Y-42236898D01*
X66941529Y-42151184D01*
X66962957Y-42108327D01*
X67005814Y-42065470D01*
X67070100Y-42044041D01*
X67112957Y-42044041D01*
X67177243Y-42065470D01*
X67198672Y-42086898D01*
X67455814Y-42236898D02*
X67412957Y-42215470D01*
X67391529Y-42194041D01*
X67370100Y-42151184D01*
X67370100Y-42129755D01*
X67391529Y-42086898D01*
X67412957Y-42065470D01*
X67455814Y-42044041D01*
X67541529Y-42044041D01*
X67584386Y-42065470D01*
X67605814Y-42086898D01*
X67627243Y-42129755D01*
X67627243Y-42151184D01*
X67605814Y-42194041D01*
X67584386Y-42215470D01*
X67541529Y-42236898D01*
X67455814Y-42236898D01*
X67412957Y-42258327D01*
X67391529Y-42279755D01*
X67370100Y-42322612D01*
X67370100Y-42408327D01*
X67391529Y-42451184D01*
X67412957Y-42472612D01*
X67455814Y-42494041D01*
X67541529Y-42494041D01*
X67584386Y-42472612D01*
X67605814Y-42451184D01*
X67627243Y-42408327D01*
X67627243Y-42322612D01*
X67605814Y-42279755D01*
X67584386Y-42258327D01*
X67541529Y-42236898D01*
X51925000Y-51610714D02*
X51903571Y-51632142D01*
X51839285Y-51653571D01*
X51796428Y-51653571D01*
X51732142Y-51632142D01*
X51689285Y-51589285D01*
X51667857Y-51546428D01*
X51646428Y-51460714D01*
X51646428Y-51396428D01*
X51667857Y-51310714D01*
X51689285Y-51267857D01*
X51732142Y-51225000D01*
X51796428Y-51203571D01*
X51839285Y-51203571D01*
X51903571Y-51225000D01*
X51925000Y-51246428D01*
X52075000Y-51203571D02*
X52353571Y-51203571D01*
X52203571Y-51375000D01*
X52267857Y-51375000D01*
X52310714Y-51396428D01*
X52332142Y-51417857D01*
X52353571Y-51460714D01*
X52353571Y-51567857D01*
X52332142Y-51610714D01*
X52310714Y-51632142D01*
X52267857Y-51653571D01*
X52139285Y-51653571D01*
X52096428Y-51632142D01*
X52075000Y-51610714D01*
X46925000Y-52560714D02*
X46903571Y-52582142D01*
X46839285Y-52603571D01*
X46796428Y-52603571D01*
X46732142Y-52582142D01*
X46689285Y-52539285D01*
X46667857Y-52496428D01*
X46646428Y-52410714D01*
X46646428Y-52346428D01*
X46667857Y-52260714D01*
X46689285Y-52217857D01*
X46732142Y-52175000D01*
X46796428Y-52153571D01*
X46839285Y-52153571D01*
X46903571Y-52175000D01*
X46925000Y-52196428D01*
X47096428Y-52196428D02*
X47117857Y-52175000D01*
X47160714Y-52153571D01*
X47267857Y-52153571D01*
X47310714Y-52175000D01*
X47332142Y-52196428D01*
X47353571Y-52239285D01*
X47353571Y-52282142D01*
X47332142Y-52346428D01*
X47075000Y-52603571D01*
X47353571Y-52603571D01*
M02*
