G04 #@! TF.GenerationSoftware,KiCad,Pcbnew,5.1.4+dfsg1-1*
G04 #@! TF.CreationDate,2019-12-16T01:19:35+01:00*
G04 #@! TF.ProjectId,STM32G431,53544d33-3247-4343-9331-2e6b69636164,rev?*
G04 #@! TF.SameCoordinates,Original*
G04 #@! TF.FileFunction,Legend,Top*
G04 #@! TF.FilePolarity,Positive*
%FSLAX46Y46*%
G04 Gerber Fmt 4.6, Leading zero omitted, Abs format (unit mm)*
G04 Created by KiCad (PCBNEW 5.1.4+dfsg1-1) date 2019-12-16 01:19:35*
%MOMM*%
%LPD*%
G04 APERTURE LIST*
%ADD10C,0.100000*%
%ADD11C,0.150000*%
%ADD12C,0.175000*%
%ADD13C,0.050000*%
%ADD14C,0.120000*%
%ADD15C,0.127000*%
G04 APERTURE END LIST*
D10*
X21856666Y-39550000D02*
X22390000Y-39550000D01*
X22123333Y-39816666D02*
X22123333Y-39283333D01*
X23090000Y-39816666D02*
X22690000Y-39816666D01*
X22890000Y-39816666D02*
X22890000Y-39116666D01*
X22823333Y-39216666D01*
X22756666Y-39283333D01*
X22690000Y-39316666D01*
X23356666Y-39183333D02*
X23390000Y-39150000D01*
X23456666Y-39116666D01*
X23623333Y-39116666D01*
X23690000Y-39150000D01*
X23723333Y-39183333D01*
X23756666Y-39250000D01*
X23756666Y-39316666D01*
X23723333Y-39416666D01*
X23323333Y-39816666D01*
X23756666Y-39816666D01*
X23956666Y-39116666D02*
X24190000Y-39816666D01*
X24423333Y-39116666D01*
X21690000Y-38150000D02*
X22223333Y-38150000D01*
X21956666Y-38416666D02*
X21956666Y-37883333D01*
X22890000Y-37716666D02*
X22556666Y-37716666D01*
X22523333Y-38050000D01*
X22556666Y-38016666D01*
X22623333Y-37983333D01*
X22790000Y-37983333D01*
X22856666Y-38016666D01*
X22890000Y-38050000D01*
X22923333Y-38116666D01*
X22923333Y-38283333D01*
X22890000Y-38350000D01*
X22856666Y-38383333D01*
X22790000Y-38416666D01*
X22623333Y-38416666D01*
X22556666Y-38383333D01*
X22523333Y-38350000D01*
X23223333Y-38350000D02*
X23256666Y-38383333D01*
X23223333Y-38416666D01*
X23190000Y-38383333D01*
X23223333Y-38350000D01*
X23223333Y-38416666D01*
X23690000Y-37716666D02*
X23756666Y-37716666D01*
X23823333Y-37750000D01*
X23856666Y-37783333D01*
X23890000Y-37850000D01*
X23923333Y-37983333D01*
X23923333Y-38150000D01*
X23890000Y-38283333D01*
X23856666Y-38350000D01*
X23823333Y-38383333D01*
X23756666Y-38416666D01*
X23690000Y-38416666D01*
X23623333Y-38383333D01*
X23590000Y-38350000D01*
X23556666Y-38283333D01*
X23523333Y-38150000D01*
X23523333Y-37983333D01*
X23556666Y-37850000D01*
X23590000Y-37783333D01*
X23623333Y-37750000D01*
X23690000Y-37716666D01*
X24123333Y-37716666D02*
X24356666Y-38416666D01*
X24590000Y-37716666D01*
X21690000Y-36750000D02*
X22223333Y-36750000D01*
X21956666Y-37016666D02*
X21956666Y-36483333D01*
X22490000Y-36316666D02*
X22923333Y-36316666D01*
X22690000Y-36583333D01*
X22790000Y-36583333D01*
X22856666Y-36616666D01*
X22890000Y-36650000D01*
X22923333Y-36716666D01*
X22923333Y-36883333D01*
X22890000Y-36950000D01*
X22856666Y-36983333D01*
X22790000Y-37016666D01*
X22590000Y-37016666D01*
X22523333Y-36983333D01*
X22490000Y-36950000D01*
X23223333Y-36950000D02*
X23256666Y-36983333D01*
X23223333Y-37016666D01*
X23190000Y-36983333D01*
X23223333Y-36950000D01*
X23223333Y-37016666D01*
X23490000Y-36316666D02*
X23923333Y-36316666D01*
X23690000Y-36583333D01*
X23790000Y-36583333D01*
X23856666Y-36616666D01*
X23890000Y-36650000D01*
X23923333Y-36716666D01*
X23923333Y-36883333D01*
X23890000Y-36950000D01*
X23856666Y-36983333D01*
X23790000Y-37016666D01*
X23590000Y-37016666D01*
X23523333Y-36983333D01*
X23490000Y-36950000D01*
X24123333Y-36316666D02*
X24356666Y-37016666D01*
X24590000Y-36316666D01*
X68361904Y-60226190D02*
X68671428Y-60226190D01*
X68504761Y-60416666D01*
X68576190Y-60416666D01*
X68623809Y-60440476D01*
X68647619Y-60464285D01*
X68671428Y-60511904D01*
X68671428Y-60630952D01*
X68647619Y-60678571D01*
X68623809Y-60702380D01*
X68576190Y-60726190D01*
X68433333Y-60726190D01*
X68385714Y-60702380D01*
X68361904Y-60678571D01*
X68885714Y-60678571D02*
X68909523Y-60702380D01*
X68885714Y-60726190D01*
X68861904Y-60702380D01*
X68885714Y-60678571D01*
X68885714Y-60726190D01*
X69076190Y-60226190D02*
X69385714Y-60226190D01*
X69219047Y-60416666D01*
X69290476Y-60416666D01*
X69338095Y-60440476D01*
X69361904Y-60464285D01*
X69385714Y-60511904D01*
X69385714Y-60630952D01*
X69361904Y-60678571D01*
X69338095Y-60702380D01*
X69290476Y-60726190D01*
X69147619Y-60726190D01*
X69100000Y-60702380D01*
X69076190Y-60678571D01*
X69528571Y-60226190D02*
X69695238Y-60726190D01*
X69861904Y-60226190D01*
X66654761Y-60226190D02*
X66416666Y-60226190D01*
X66392857Y-60464285D01*
X66416666Y-60440476D01*
X66464285Y-60416666D01*
X66583333Y-60416666D01*
X66630952Y-60440476D01*
X66654761Y-60464285D01*
X66678571Y-60511904D01*
X66678571Y-60630952D01*
X66654761Y-60678571D01*
X66630952Y-60702380D01*
X66583333Y-60726190D01*
X66464285Y-60726190D01*
X66416666Y-60702380D01*
X66392857Y-60678571D01*
X66821428Y-60226190D02*
X66988095Y-60726190D01*
X67154761Y-60226190D01*
D11*
X30650284Y-45000000D02*
G75*
G03X30650284Y-45000000I-4400284J0D01*
G01*
X78104595Y-45000000D02*
G75*
G03X78104595Y-45000000I-4354595J0D01*
G01*
D10*
X31524761Y-36601190D02*
X31524761Y-36101190D01*
X31643809Y-36101190D01*
X31715238Y-36125000D01*
X31762857Y-36172619D01*
X31786666Y-36220238D01*
X31810476Y-36315476D01*
X31810476Y-36386904D01*
X31786666Y-36482142D01*
X31762857Y-36529761D01*
X31715238Y-36577380D01*
X31643809Y-36601190D01*
X31524761Y-36601190D01*
X32215238Y-36577380D02*
X32167619Y-36601190D01*
X32072380Y-36601190D01*
X32024761Y-36577380D01*
X32000952Y-36529761D01*
X32000952Y-36339285D01*
X32024761Y-36291666D01*
X32072380Y-36267857D01*
X32167619Y-36267857D01*
X32215238Y-36291666D01*
X32239047Y-36339285D01*
X32239047Y-36386904D01*
X32000952Y-36434523D01*
X32429523Y-36577380D02*
X32477142Y-36601190D01*
X32572380Y-36601190D01*
X32620000Y-36577380D01*
X32643809Y-36529761D01*
X32643809Y-36505952D01*
X32620000Y-36458333D01*
X32572380Y-36434523D01*
X32500952Y-36434523D01*
X32453333Y-36410714D01*
X32429523Y-36363095D01*
X32429523Y-36339285D01*
X32453333Y-36291666D01*
X32500952Y-36267857D01*
X32572380Y-36267857D01*
X32620000Y-36291666D01*
X32858095Y-36601190D02*
X32858095Y-36267857D01*
X32858095Y-36101190D02*
X32834285Y-36125000D01*
X32858095Y-36148809D01*
X32881904Y-36125000D01*
X32858095Y-36101190D01*
X32858095Y-36148809D01*
X33310476Y-36267857D02*
X33310476Y-36672619D01*
X33286666Y-36720238D01*
X33262857Y-36744047D01*
X33215238Y-36767857D01*
X33143809Y-36767857D01*
X33096190Y-36744047D01*
X33310476Y-36577380D02*
X33262857Y-36601190D01*
X33167619Y-36601190D01*
X33120000Y-36577380D01*
X33096190Y-36553571D01*
X33072380Y-36505952D01*
X33072380Y-36363095D01*
X33096190Y-36315476D01*
X33120000Y-36291666D01*
X33167619Y-36267857D01*
X33262857Y-36267857D01*
X33310476Y-36291666D01*
X33548571Y-36267857D02*
X33548571Y-36601190D01*
X33548571Y-36315476D02*
X33572380Y-36291666D01*
X33620000Y-36267857D01*
X33691428Y-36267857D01*
X33739047Y-36291666D01*
X33762857Y-36339285D01*
X33762857Y-36601190D01*
X34381904Y-36601190D02*
X34381904Y-36101190D01*
X34381904Y-36291666D02*
X34429523Y-36267857D01*
X34524761Y-36267857D01*
X34572380Y-36291666D01*
X34596190Y-36315476D01*
X34620000Y-36363095D01*
X34620000Y-36505952D01*
X34596190Y-36553571D01*
X34572380Y-36577380D01*
X34524761Y-36601190D01*
X34429523Y-36601190D01*
X34381904Y-36577380D01*
X34786666Y-36267857D02*
X34905714Y-36601190D01*
X35024761Y-36267857D02*
X34905714Y-36601190D01*
X34858095Y-36720238D01*
X34834285Y-36744047D01*
X34786666Y-36767857D01*
X35215238Y-36553571D02*
X35239047Y-36577380D01*
X35215238Y-36601190D01*
X35191428Y-36577380D01*
X35215238Y-36553571D01*
X35215238Y-36601190D01*
X35215238Y-36291666D02*
X35239047Y-36315476D01*
X35215238Y-36339285D01*
X35191428Y-36315476D01*
X35215238Y-36291666D01*
X35215238Y-36339285D01*
X29846190Y-36951190D02*
X29846190Y-37308333D01*
X29822380Y-37379761D01*
X29774761Y-37427380D01*
X29703333Y-37451190D01*
X29655714Y-37451190D01*
X30298571Y-37451190D02*
X30298571Y-37189285D01*
X30274761Y-37141666D01*
X30227142Y-37117857D01*
X30131904Y-37117857D01*
X30084285Y-37141666D01*
X30298571Y-37427380D02*
X30250952Y-37451190D01*
X30131904Y-37451190D01*
X30084285Y-37427380D01*
X30060476Y-37379761D01*
X30060476Y-37332142D01*
X30084285Y-37284523D01*
X30131904Y-37260714D01*
X30250952Y-37260714D01*
X30298571Y-37236904D01*
X30536666Y-37117857D02*
X30536666Y-37451190D01*
X30536666Y-37165476D02*
X30560476Y-37141666D01*
X30608095Y-37117857D01*
X30679523Y-37117857D01*
X30727142Y-37141666D01*
X30750952Y-37189285D01*
X30750952Y-37451190D01*
X31370000Y-37451190D02*
X31370000Y-36951190D01*
X31370000Y-37189285D02*
X31655714Y-37189285D01*
X31655714Y-37451190D02*
X31655714Y-36951190D01*
X32084285Y-37427380D02*
X32036666Y-37451190D01*
X31941428Y-37451190D01*
X31893809Y-37427380D01*
X31870000Y-37379761D01*
X31870000Y-37189285D01*
X31893809Y-37141666D01*
X31941428Y-37117857D01*
X32036666Y-37117857D01*
X32084285Y-37141666D01*
X32108095Y-37189285D01*
X32108095Y-37236904D01*
X31870000Y-37284523D01*
X32322380Y-37117857D02*
X32322380Y-37451190D01*
X32322380Y-37165476D02*
X32346190Y-37141666D01*
X32393809Y-37117857D01*
X32465238Y-37117857D01*
X32512857Y-37141666D01*
X32536666Y-37189285D01*
X32536666Y-37451190D01*
X32774761Y-37451190D02*
X32774761Y-37117857D01*
X32774761Y-37213095D02*
X32798571Y-37165476D01*
X32822380Y-37141666D01*
X32870000Y-37117857D01*
X32917619Y-37117857D01*
X33084285Y-37451190D02*
X33084285Y-37117857D01*
X33084285Y-36951190D02*
X33060476Y-36975000D01*
X33084285Y-36998809D01*
X33108095Y-36975000D01*
X33084285Y-36951190D01*
X33084285Y-36998809D01*
X33322380Y-37451190D02*
X33322380Y-36951190D01*
X33370000Y-37260714D02*
X33512857Y-37451190D01*
X33512857Y-37117857D02*
X33322380Y-37308333D01*
X34108095Y-37451190D02*
X34108095Y-36951190D01*
X34108095Y-37189285D02*
X34393809Y-37189285D01*
X34393809Y-37451190D02*
X34393809Y-36951190D01*
X34822380Y-37427380D02*
X34774761Y-37451190D01*
X34679523Y-37451190D01*
X34631904Y-37427380D01*
X34608095Y-37379761D01*
X34608095Y-37189285D01*
X34631904Y-37141666D01*
X34679523Y-37117857D01*
X34774761Y-37117857D01*
X34822380Y-37141666D01*
X34846190Y-37189285D01*
X34846190Y-37236904D01*
X34608095Y-37284523D01*
X35060476Y-37451190D02*
X35060476Y-37117857D01*
X35060476Y-37165476D02*
X35084285Y-37141666D01*
X35131904Y-37117857D01*
X35203333Y-37117857D01*
X35250952Y-37141666D01*
X35274761Y-37189285D01*
X35274761Y-37451190D01*
X35274761Y-37189285D02*
X35298571Y-37141666D01*
X35346190Y-37117857D01*
X35417619Y-37117857D01*
X35465238Y-37141666D01*
X35489047Y-37189285D01*
X35489047Y-37451190D01*
X35703333Y-37427380D02*
X35750952Y-37451190D01*
X35846190Y-37451190D01*
X35893809Y-37427380D01*
X35917619Y-37379761D01*
X35917619Y-37355952D01*
X35893809Y-37308333D01*
X35846190Y-37284523D01*
X35774761Y-37284523D01*
X35727142Y-37260714D01*
X35703333Y-37213095D01*
X35703333Y-37189285D01*
X35727142Y-37141666D01*
X35774761Y-37117857D01*
X35846190Y-37117857D01*
X35893809Y-37141666D01*
X36131904Y-37451190D02*
X36131904Y-37117857D01*
X36131904Y-36951190D02*
X36108095Y-36975000D01*
X36131904Y-36998809D01*
X36155714Y-36975000D01*
X36131904Y-36951190D01*
X36131904Y-36998809D01*
X36370000Y-37117857D02*
X36370000Y-37451190D01*
X36370000Y-37165476D02*
X36393809Y-37141666D01*
X36441428Y-37117857D01*
X36512857Y-37117857D01*
X36560476Y-37141666D01*
X36584285Y-37189285D01*
X36584285Y-37451190D01*
X37036666Y-37117857D02*
X37036666Y-37522619D01*
X37012857Y-37570238D01*
X36989047Y-37594047D01*
X36941428Y-37617857D01*
X36870000Y-37617857D01*
X36822380Y-37594047D01*
X37036666Y-37427380D02*
X36989047Y-37451190D01*
X36893809Y-37451190D01*
X36846190Y-37427380D01*
X36822380Y-37403571D01*
X36798571Y-37355952D01*
X36798571Y-37213095D01*
X36822380Y-37165476D01*
X36846190Y-37141666D01*
X36893809Y-37117857D01*
X36989047Y-37117857D01*
X37036666Y-37141666D01*
X30790000Y-34670952D02*
X30790000Y-34994761D01*
X30809047Y-35032857D01*
X30828095Y-35051904D01*
X30866190Y-35070952D01*
X30942380Y-35070952D01*
X30980476Y-35051904D01*
X30999523Y-35032857D01*
X31018571Y-34994761D01*
X31018571Y-34670952D01*
X31190000Y-34956666D02*
X31380476Y-34956666D01*
X31151904Y-35070952D02*
X31285238Y-34670952D01*
X31418571Y-35070952D01*
X31780476Y-35070952D02*
X31647142Y-34880476D01*
X31551904Y-35070952D02*
X31551904Y-34670952D01*
X31704285Y-34670952D01*
X31742380Y-34690000D01*
X31761428Y-34709047D01*
X31780476Y-34747142D01*
X31780476Y-34804285D01*
X31761428Y-34842380D01*
X31742380Y-34861428D01*
X31704285Y-34880476D01*
X31551904Y-34880476D01*
X31894761Y-34670952D02*
X32123333Y-34670952D01*
X32009047Y-35070952D02*
X32009047Y-34670952D01*
X32542380Y-34651904D02*
X32199523Y-35166190D01*
X32904285Y-35032857D02*
X32885238Y-35051904D01*
X32828095Y-35070952D01*
X32790000Y-35070952D01*
X32732857Y-35051904D01*
X32694761Y-35013809D01*
X32675714Y-34975714D01*
X32656666Y-34899523D01*
X32656666Y-34842380D01*
X32675714Y-34766190D01*
X32694761Y-34728095D01*
X32732857Y-34690000D01*
X32790000Y-34670952D01*
X32828095Y-34670952D01*
X32885238Y-34690000D01*
X32904285Y-34709047D01*
X33056666Y-34956666D02*
X33247142Y-34956666D01*
X33018571Y-35070952D02*
X33151904Y-34670952D01*
X33285238Y-35070952D01*
X33418571Y-35070952D02*
X33418571Y-34670952D01*
X33647142Y-35070952D01*
X33647142Y-34670952D01*
X34123333Y-34651904D02*
X33780476Y-35166190D01*
X34485238Y-35070952D02*
X34351904Y-34880476D01*
X34256666Y-35070952D02*
X34256666Y-34670952D01*
X34409047Y-34670952D01*
X34447142Y-34690000D01*
X34466190Y-34709047D01*
X34485238Y-34747142D01*
X34485238Y-34804285D01*
X34466190Y-34842380D01*
X34447142Y-34861428D01*
X34409047Y-34880476D01*
X34256666Y-34880476D01*
X34637619Y-35051904D02*
X34694761Y-35070952D01*
X34790000Y-35070952D01*
X34828095Y-35051904D01*
X34847142Y-35032857D01*
X34866190Y-34994761D01*
X34866190Y-34956666D01*
X34847142Y-34918571D01*
X34828095Y-34899523D01*
X34790000Y-34880476D01*
X34713809Y-34861428D01*
X34675714Y-34842380D01*
X34656666Y-34823333D01*
X34637619Y-34785238D01*
X34637619Y-34747142D01*
X34656666Y-34709047D01*
X34675714Y-34690000D01*
X34713809Y-34670952D01*
X34809047Y-34670952D01*
X34866190Y-34690000D01*
X35209047Y-34804285D02*
X35209047Y-35070952D01*
X35113809Y-34651904D02*
X35018571Y-34937619D01*
X35266190Y-34937619D01*
X35475714Y-34842380D02*
X35437619Y-34823333D01*
X35418571Y-34804285D01*
X35399523Y-34766190D01*
X35399523Y-34747142D01*
X35418571Y-34709047D01*
X35437619Y-34690000D01*
X35475714Y-34670952D01*
X35551904Y-34670952D01*
X35590000Y-34690000D01*
X35609047Y-34709047D01*
X35628095Y-34747142D01*
X35628095Y-34766190D01*
X35609047Y-34804285D01*
X35590000Y-34823333D01*
X35551904Y-34842380D01*
X35475714Y-34842380D01*
X35437619Y-34861428D01*
X35418571Y-34880476D01*
X35399523Y-34918571D01*
X35399523Y-34994761D01*
X35418571Y-35032857D01*
X35437619Y-35051904D01*
X35475714Y-35070952D01*
X35551904Y-35070952D01*
X35590000Y-35051904D01*
X35609047Y-35032857D01*
X35628095Y-34994761D01*
X35628095Y-34918571D01*
X35609047Y-34880476D01*
X35590000Y-34861428D01*
X35551904Y-34842380D01*
X35990000Y-34670952D02*
X35799523Y-34670952D01*
X35780476Y-34861428D01*
X35799523Y-34842380D01*
X35837619Y-34823333D01*
X35932857Y-34823333D01*
X35970952Y-34842380D01*
X35990000Y-34861428D01*
X36009047Y-34899523D01*
X36009047Y-34994761D01*
X35990000Y-35032857D01*
X35970952Y-35051904D01*
X35932857Y-35070952D01*
X35837619Y-35070952D01*
X35799523Y-35051904D01*
X35780476Y-35032857D01*
X29885238Y-35656666D02*
X30075714Y-35656666D01*
X29847142Y-35770952D02*
X29980476Y-35370952D01*
X30113809Y-35770952D01*
X30247142Y-35770952D02*
X30247142Y-35370952D01*
X30475714Y-35770952D01*
X30475714Y-35370952D01*
X30647142Y-35656666D02*
X30837619Y-35656666D01*
X30609047Y-35770952D02*
X30742380Y-35370952D01*
X30875714Y-35770952D01*
X31199523Y-35770952D02*
X31009047Y-35770952D01*
X31009047Y-35370952D01*
X31409047Y-35370952D02*
X31485238Y-35370952D01*
X31523333Y-35390000D01*
X31561428Y-35428095D01*
X31580476Y-35504285D01*
X31580476Y-35637619D01*
X31561428Y-35713809D01*
X31523333Y-35751904D01*
X31485238Y-35770952D01*
X31409047Y-35770952D01*
X31370952Y-35751904D01*
X31332857Y-35713809D01*
X31313809Y-35637619D01*
X31313809Y-35504285D01*
X31332857Y-35428095D01*
X31370952Y-35390000D01*
X31409047Y-35370952D01*
X31961428Y-35390000D02*
X31923333Y-35370952D01*
X31866190Y-35370952D01*
X31809047Y-35390000D01*
X31770952Y-35428095D01*
X31751904Y-35466190D01*
X31732857Y-35542380D01*
X31732857Y-35599523D01*
X31751904Y-35675714D01*
X31770952Y-35713809D01*
X31809047Y-35751904D01*
X31866190Y-35770952D01*
X31904285Y-35770952D01*
X31961428Y-35751904D01*
X31980476Y-35732857D01*
X31980476Y-35599523D01*
X31904285Y-35599523D01*
X32437619Y-35351904D02*
X32094761Y-35866190D01*
X32570952Y-35770952D02*
X32570952Y-35370952D01*
X32723333Y-35370952D01*
X32761428Y-35390000D01*
X32780476Y-35409047D01*
X32799523Y-35447142D01*
X32799523Y-35504285D01*
X32780476Y-35542380D01*
X32761428Y-35561428D01*
X32723333Y-35580476D01*
X32570952Y-35580476D01*
X32932857Y-35370952D02*
X33028095Y-35770952D01*
X33104285Y-35485238D01*
X33180476Y-35770952D01*
X33275714Y-35370952D01*
X33428095Y-35770952D02*
X33428095Y-35370952D01*
X33561428Y-35656666D01*
X33694761Y-35370952D01*
X33694761Y-35770952D01*
X34170952Y-35351904D02*
X33828095Y-35866190D01*
X34304285Y-35561428D02*
X34437619Y-35561428D01*
X34494761Y-35770952D02*
X34304285Y-35770952D01*
X34304285Y-35370952D01*
X34494761Y-35370952D01*
X34666190Y-35770952D02*
X34666190Y-35370952D01*
X34894761Y-35770952D01*
X34894761Y-35370952D01*
X35313809Y-35732857D02*
X35294761Y-35751904D01*
X35237619Y-35770952D01*
X35199523Y-35770952D01*
X35142380Y-35751904D01*
X35104285Y-35713809D01*
X35085238Y-35675714D01*
X35066190Y-35599523D01*
X35066190Y-35542380D01*
X35085238Y-35466190D01*
X35104285Y-35428095D01*
X35142380Y-35390000D01*
X35199523Y-35370952D01*
X35237619Y-35370952D01*
X35294761Y-35390000D01*
X35313809Y-35409047D01*
X35561428Y-35370952D02*
X35637619Y-35370952D01*
X35675714Y-35390000D01*
X35713809Y-35428095D01*
X35732857Y-35504285D01*
X35732857Y-35637619D01*
X35713809Y-35713809D01*
X35675714Y-35751904D01*
X35637619Y-35770952D01*
X35561428Y-35770952D01*
X35523333Y-35751904D01*
X35485238Y-35713809D01*
X35466190Y-35637619D01*
X35466190Y-35504285D01*
X35485238Y-35428095D01*
X35523333Y-35390000D01*
X35561428Y-35370952D01*
X35904285Y-35770952D02*
X35904285Y-35370952D01*
X35999523Y-35370952D01*
X36056666Y-35390000D01*
X36094761Y-35428095D01*
X36113809Y-35466190D01*
X36132857Y-35542380D01*
X36132857Y-35599523D01*
X36113809Y-35675714D01*
X36094761Y-35713809D01*
X36056666Y-35751904D01*
X35999523Y-35770952D01*
X35904285Y-35770952D01*
X36304285Y-35561428D02*
X36437619Y-35561428D01*
X36494761Y-35770952D02*
X36304285Y-35770952D01*
X36304285Y-35370952D01*
X36494761Y-35370952D01*
X36894761Y-35770952D02*
X36761428Y-35580476D01*
X36666190Y-35770952D02*
X36666190Y-35370952D01*
X36818571Y-35370952D01*
X36856666Y-35390000D01*
X36875714Y-35409047D01*
X36894761Y-35447142D01*
X36894761Y-35504285D01*
X36875714Y-35542380D01*
X36856666Y-35561428D01*
X36818571Y-35580476D01*
X36666190Y-35580476D01*
D12*
X29086190Y-34145714D02*
X29048095Y-34183809D01*
X28933809Y-34221904D01*
X28857619Y-34221904D01*
X28743333Y-34183809D01*
X28667142Y-34107619D01*
X28629047Y-34031428D01*
X28590952Y-33879047D01*
X28590952Y-33764761D01*
X28629047Y-33612380D01*
X28667142Y-33536190D01*
X28743333Y-33460000D01*
X28857619Y-33421904D01*
X28933809Y-33421904D01*
X29048095Y-33460000D01*
X29086190Y-33498095D01*
X29429047Y-34221904D02*
X29429047Y-33421904D01*
X29733809Y-33421904D01*
X29810000Y-33460000D01*
X29848095Y-33498095D01*
X29886190Y-33574285D01*
X29886190Y-33688571D01*
X29848095Y-33764761D01*
X29810000Y-33802857D01*
X29733809Y-33840952D01*
X29429047Y-33840952D01*
X30229047Y-33421904D02*
X30229047Y-34069523D01*
X30267142Y-34145714D01*
X30305238Y-34183809D01*
X30381428Y-34221904D01*
X30533809Y-34221904D01*
X30610000Y-34183809D01*
X30648095Y-34145714D01*
X30686190Y-34069523D01*
X30686190Y-33421904D01*
X31638571Y-34183809D02*
X31752857Y-34221904D01*
X31943333Y-34221904D01*
X32019523Y-34183809D01*
X32057619Y-34145714D01*
X32095714Y-34069523D01*
X32095714Y-33993333D01*
X32057619Y-33917142D01*
X32019523Y-33879047D01*
X31943333Y-33840952D01*
X31790952Y-33802857D01*
X31714761Y-33764761D01*
X31676666Y-33726666D01*
X31638571Y-33650476D01*
X31638571Y-33574285D01*
X31676666Y-33498095D01*
X31714761Y-33460000D01*
X31790952Y-33421904D01*
X31981428Y-33421904D01*
X32095714Y-33460000D01*
X32324285Y-33421904D02*
X32781428Y-33421904D01*
X32552857Y-34221904D02*
X32552857Y-33421904D01*
X33048095Y-34221904D02*
X33048095Y-33421904D01*
X33314761Y-33993333D01*
X33581428Y-33421904D01*
X33581428Y-34221904D01*
X33886190Y-33421904D02*
X34381428Y-33421904D01*
X34114761Y-33726666D01*
X34229047Y-33726666D01*
X34305238Y-33764761D01*
X34343333Y-33802857D01*
X34381428Y-33879047D01*
X34381428Y-34069523D01*
X34343333Y-34145714D01*
X34305238Y-34183809D01*
X34229047Y-34221904D01*
X34000476Y-34221904D01*
X33924285Y-34183809D01*
X33886190Y-34145714D01*
X34686190Y-33498095D02*
X34724285Y-33460000D01*
X34800476Y-33421904D01*
X34990952Y-33421904D01*
X35067142Y-33460000D01*
X35105238Y-33498095D01*
X35143333Y-33574285D01*
X35143333Y-33650476D01*
X35105238Y-33764761D01*
X34648095Y-34221904D01*
X35143333Y-34221904D01*
X35905238Y-33460000D02*
X35829047Y-33421904D01*
X35714761Y-33421904D01*
X35600476Y-33460000D01*
X35524285Y-33536190D01*
X35486190Y-33612380D01*
X35448095Y-33764761D01*
X35448095Y-33879047D01*
X35486190Y-34031428D01*
X35524285Y-34107619D01*
X35600476Y-34183809D01*
X35714761Y-34221904D01*
X35790952Y-34221904D01*
X35905238Y-34183809D01*
X35943333Y-34145714D01*
X35943333Y-33879047D01*
X35790952Y-33879047D01*
X36629047Y-33688571D02*
X36629047Y-34221904D01*
X36438571Y-33383809D02*
X36248095Y-33955238D01*
X36743333Y-33955238D01*
X36971904Y-33421904D02*
X37467142Y-33421904D01*
X37200476Y-33726666D01*
X37314761Y-33726666D01*
X37390952Y-33764761D01*
X37429047Y-33802857D01*
X37467142Y-33879047D01*
X37467142Y-34069523D01*
X37429047Y-34145714D01*
X37390952Y-34183809D01*
X37314761Y-34221904D01*
X37086190Y-34221904D01*
X37010000Y-34183809D01*
X36971904Y-34145714D01*
X38229047Y-34221904D02*
X37771904Y-34221904D01*
X38000476Y-34221904D02*
X38000476Y-33421904D01*
X37924285Y-33536190D01*
X37848095Y-33612380D01*
X37771904Y-33650476D01*
D13*
X20000000Y-23000000D02*
X80000000Y-23000000D01*
X20000000Y-67000000D02*
X20000000Y-23000000D01*
X80000000Y-67000000D02*
X20000000Y-67000000D01*
X80000000Y-23000000D02*
X80000000Y-67000000D01*
D14*
X23550000Y-32700000D02*
X23550000Y-30150000D01*
X25250000Y-32700000D02*
X25250000Y-30150000D01*
X23550000Y-32700000D02*
X25250000Y-32700000D01*
X33200000Y-42250000D02*
X33200000Y-46150000D01*
X31200000Y-42250000D02*
X31200000Y-46150000D01*
X33200000Y-42250000D02*
X31200000Y-42250000D01*
X41100000Y-31382779D02*
X41100000Y-31057221D01*
X40080000Y-31382779D02*
X40080000Y-31057221D01*
X38170000Y-31377779D02*
X38170000Y-31052221D01*
X37150000Y-31377779D02*
X37150000Y-31052221D01*
X35265000Y-31382779D02*
X35265000Y-31057221D01*
X34245000Y-31382779D02*
X34245000Y-31057221D01*
X32780000Y-31057221D02*
X32780000Y-31382779D01*
X33800000Y-31057221D02*
X33800000Y-31382779D01*
X35700000Y-31049720D02*
X35700000Y-31375278D01*
X36720000Y-31049720D02*
X36720000Y-31375278D01*
X38610000Y-31054720D02*
X38610000Y-31380278D01*
X39630000Y-31054720D02*
X39630000Y-31380278D01*
X63000000Y-44620000D02*
X64200000Y-44620000D01*
X63000000Y-48620000D02*
X63000000Y-44620000D01*
X67800000Y-44620000D02*
X67800000Y-47320000D01*
X66600000Y-44620000D02*
X67800000Y-44620000D01*
X41505000Y-34130000D02*
X44055000Y-34130000D01*
X41505000Y-35830000D02*
X44055000Y-35830000D01*
X41505000Y-34130000D02*
X41505000Y-35830000D01*
X23210000Y-60127064D02*
X23210000Y-58922936D01*
X21390000Y-60127064D02*
X21390000Y-58922936D01*
X25360000Y-60127064D02*
X25360000Y-58922936D01*
X23540000Y-60127064D02*
X23540000Y-58922936D01*
X55050000Y-44790000D02*
X51600000Y-44790000D01*
X55050000Y-44790000D02*
X57000000Y-44790000D01*
X55050000Y-49910000D02*
X53100000Y-49910000D01*
X55050000Y-49910000D02*
X57000000Y-49910000D01*
X59060000Y-39140000D02*
X59060000Y-40200000D01*
X58000000Y-39140000D02*
X59060000Y-39140000D01*
X57000000Y-39140000D02*
X57000000Y-41260000D01*
X57000000Y-41260000D02*
X46940000Y-41260000D01*
X57000000Y-39140000D02*
X46940000Y-39140000D01*
X46940000Y-39140000D02*
X46940000Y-41260000D01*
X59060000Y-53360000D02*
X59060000Y-54420000D01*
X58000000Y-53360000D02*
X59060000Y-53360000D01*
X57000000Y-53360000D02*
X57000000Y-55480000D01*
X57000000Y-55480000D02*
X46940000Y-55480000D01*
X57000000Y-53360000D02*
X46940000Y-53360000D01*
X46940000Y-53360000D02*
X46940000Y-55480000D01*
X59060000Y-25220000D02*
X59060000Y-26280000D01*
X58000000Y-25220000D02*
X59060000Y-25220000D01*
X57000000Y-25220000D02*
X57000000Y-27340000D01*
X57000000Y-27340000D02*
X46940000Y-27340000D01*
X57000000Y-25220000D02*
X46940000Y-25220000D01*
X46940000Y-25220000D02*
X46940000Y-27340000D01*
X41500000Y-32250000D02*
X44050000Y-32250000D01*
X41500000Y-33950000D02*
X44050000Y-33950000D01*
X41500000Y-32250000D02*
X41500000Y-33950000D01*
X41500000Y-30349999D02*
X44050000Y-30349999D01*
X41500000Y-32049999D02*
X44050000Y-32049999D01*
X41500000Y-30349999D02*
X41500000Y-32049999D01*
X41500000Y-36050000D02*
X44050000Y-36050000D01*
X41500000Y-37750000D02*
X44050000Y-37750000D01*
X41500000Y-36050000D02*
X41500000Y-37750000D01*
X44450000Y-46200000D02*
X44450000Y-48750000D01*
X42750000Y-46200000D02*
X42750000Y-48750000D01*
X44450000Y-46200000D02*
X42750000Y-46200000D01*
X46350000Y-46200000D02*
X46350000Y-48750000D01*
X44650000Y-46200000D02*
X44650000Y-48750000D01*
X46350000Y-46200000D02*
X44650000Y-46200000D01*
X31605000Y-66350000D02*
X37905000Y-66350000D01*
X31605000Y-60150000D02*
X37905000Y-60150000D01*
X51150000Y-30500000D02*
X51150000Y-27950000D01*
X52850000Y-30500000D02*
X52850000Y-27950000D01*
X51150000Y-30500000D02*
X52850000Y-30500000D01*
X49150000Y-30500000D02*
X49150000Y-27950000D01*
X50850000Y-30500000D02*
X50850000Y-27950000D01*
X49150000Y-30500000D02*
X50850000Y-30500000D01*
X51150000Y-44400000D02*
X51150000Y-41850000D01*
X52850000Y-44400000D02*
X52850000Y-41850000D01*
X51150000Y-44400000D02*
X52850000Y-44400000D01*
X49150000Y-44400000D02*
X49150000Y-41850000D01*
X50850000Y-44400000D02*
X50850000Y-41850000D01*
X49150000Y-44400000D02*
X50850000Y-44400000D01*
X51150000Y-58600000D02*
X51150000Y-56050000D01*
X52850000Y-58600000D02*
X52850000Y-56050000D01*
X51150000Y-58600000D02*
X52850000Y-58600000D01*
X49150000Y-58600000D02*
X49150000Y-56050000D01*
X50850000Y-58600000D02*
X50850000Y-56050000D01*
X49150000Y-58600000D02*
X50850000Y-58600000D01*
X49102064Y-31390000D02*
X47897936Y-31390000D01*
X49102064Y-33210000D02*
X47897936Y-33210000D01*
X49502064Y-45290000D02*
X48297936Y-45290000D01*
X49502064Y-47110000D02*
X48297936Y-47110000D01*
X47302064Y-59490000D02*
X46097936Y-59490000D01*
X47302064Y-61310000D02*
X46097936Y-61310000D01*
X78162779Y-28490000D02*
X77837221Y-28490000D01*
X78162779Y-29510000D02*
X77837221Y-29510000D01*
X29862779Y-27840000D02*
X29537221Y-27840000D01*
X29862779Y-28860000D02*
X29537221Y-28860000D01*
X63887221Y-59810000D02*
X64212779Y-59810000D01*
X63887221Y-58790000D02*
X64212779Y-58790000D01*
X67735876Y-28530565D02*
X67400000Y-28194689D01*
X67400000Y-38405311D02*
X67735876Y-38069435D01*
X67064124Y-38069435D02*
X67400000Y-38405311D01*
X62294689Y-33300000D02*
X62630565Y-32964124D01*
X62630565Y-33635876D02*
X62294689Y-33300000D01*
X72505311Y-33300000D02*
X72169435Y-33635876D01*
X72187113Y-32946447D02*
X72522989Y-33282322D01*
X25700000Y-64000000D02*
X25700000Y-58600000D01*
X29000000Y-64000000D02*
X29000000Y-58600000D01*
X25700000Y-64000000D02*
X29000000Y-64000000D01*
X39465000Y-50572936D02*
X39465000Y-51777064D01*
X41285000Y-50572936D02*
X41285000Y-51777064D01*
X31137221Y-38880000D02*
X31462779Y-38880000D01*
X31137221Y-37860000D02*
X31462779Y-37860000D01*
X31127221Y-40250000D02*
X31452779Y-40250000D01*
X31127221Y-39230000D02*
X31452779Y-39230000D01*
X31127221Y-41610000D02*
X31452779Y-41610000D01*
X31127221Y-40590000D02*
X31452779Y-40590000D01*
X22397936Y-64260000D02*
X23602064Y-64260000D01*
X22397936Y-62440000D02*
X23602064Y-62440000D01*
X24965000Y-37435000D02*
X27250000Y-37435000D01*
X24965000Y-35965000D02*
X24965000Y-37435000D01*
X27250000Y-35965000D02*
X24965000Y-35965000D01*
X24965000Y-38835000D02*
X27250000Y-38835000D01*
X24965000Y-37365000D02*
X24965000Y-38835000D01*
X27250000Y-37365000D02*
X24965000Y-37365000D01*
X24965000Y-40235000D02*
X27250000Y-40235000D01*
X24965000Y-38765000D02*
X24965000Y-40235000D01*
X27250000Y-38765000D02*
X24965000Y-38765000D01*
X37240000Y-50572936D02*
X37240000Y-51777064D01*
X39060000Y-50572936D02*
X39060000Y-51777064D01*
X67910000Y-26162779D02*
X67910000Y-25837221D01*
X66890000Y-26162779D02*
X66890000Y-25837221D01*
X50510000Y-36262779D02*
X50510000Y-35937221D01*
X49490000Y-36262779D02*
X49490000Y-35937221D01*
X50710000Y-50262779D02*
X50710000Y-49937221D01*
X49690000Y-50262779D02*
X49690000Y-49937221D01*
X48310000Y-64462779D02*
X48310000Y-64137221D01*
X47290000Y-64462779D02*
X47290000Y-64137221D01*
X46971422Y-37110000D02*
X47488578Y-37110000D01*
X46971422Y-35690000D02*
X47488578Y-35690000D01*
X47441422Y-51210000D02*
X47958578Y-51210000D01*
X47441422Y-49790000D02*
X47958578Y-49790000D01*
X45041422Y-65510000D02*
X45558578Y-65510000D01*
X45041422Y-64090000D02*
X45558578Y-64090000D01*
X63252513Y-30680940D02*
X66080940Y-27852513D01*
X60919060Y-28347487D02*
X63252513Y-30680940D01*
X55237221Y-38660000D02*
X55562779Y-38660000D01*
X55237221Y-37640000D02*
X55562779Y-37640000D01*
X53137221Y-66710000D02*
X53462779Y-66710000D01*
X53137221Y-65690000D02*
X53462779Y-65690000D01*
X55337221Y-52610000D02*
X55662779Y-52610000D01*
X55337221Y-51590000D02*
X55662779Y-51590000D01*
X54800000Y-30890000D02*
X51350000Y-30890000D01*
X54800000Y-30890000D02*
X56750000Y-30890000D01*
X54800000Y-36010000D02*
X52850000Y-36010000D01*
X54800000Y-36010000D02*
X56750000Y-36010000D01*
X52700000Y-59040000D02*
X49250000Y-59040000D01*
X52700000Y-59040000D02*
X54650000Y-59040000D01*
X52700000Y-64160000D02*
X50750000Y-64160000D01*
X52700000Y-64160000D02*
X54650000Y-64160000D01*
X33780000Y-42140000D02*
X37780000Y-42140000D01*
X33780000Y-37940000D02*
X37780000Y-37940000D01*
X36325000Y-56930000D02*
X36325000Y-58030000D01*
X36795000Y-56930000D02*
X36325000Y-56930000D01*
X36795000Y-55430000D02*
X36795000Y-56930000D01*
X30365000Y-56930000D02*
X30365000Y-59760000D01*
X29895000Y-56930000D02*
X30365000Y-56930000D01*
X29895000Y-55430000D02*
X29895000Y-56930000D01*
X65835000Y-66510000D02*
X65835000Y-66060000D01*
X58865000Y-66510000D02*
X65835000Y-66510000D01*
X58865000Y-66060000D02*
X58865000Y-66510000D01*
X65835000Y-62090000D02*
X64885000Y-62090000D01*
X65835000Y-62540000D02*
X65835000Y-62090000D01*
X59815000Y-62090000D02*
X59815000Y-60600000D01*
X58865000Y-62090000D02*
X59815000Y-62090000D01*
X58865000Y-62540000D02*
X58865000Y-62090000D01*
X65880796Y-40215112D02*
X65515112Y-40580796D01*
X66884888Y-41219204D02*
X66519204Y-41584888D01*
X67362779Y-49090000D02*
X67037221Y-49090000D01*
X67362779Y-50110000D02*
X67037221Y-50110000D01*
X64137221Y-50110000D02*
X64462779Y-50110000D01*
X64137221Y-49090000D02*
X64462779Y-49090000D01*
X39727064Y-55840000D02*
X38522936Y-55840000D01*
X39727064Y-57660000D02*
X38522936Y-57660000D01*
X39727064Y-53690000D02*
X38522936Y-53690000D01*
X39727064Y-55510000D02*
X38522936Y-55510000D01*
X53137221Y-65410000D02*
X53462779Y-65410000D01*
X53137221Y-64390000D02*
X53462779Y-64390000D01*
X55237221Y-37360000D02*
X55562779Y-37360000D01*
X55237221Y-36340000D02*
X55562779Y-36340000D01*
X55337221Y-51310000D02*
X55662779Y-51310000D01*
X55337221Y-50290000D02*
X55662779Y-50290000D01*
X39727064Y-57990000D02*
X38522936Y-57990000D01*
X39727064Y-59810000D02*
X38522936Y-59810000D01*
X39962779Y-60240000D02*
X39637221Y-60240000D01*
X39962779Y-61260000D02*
X39637221Y-61260000D01*
X63948412Y-38076786D02*
X63718207Y-38306991D01*
X64669661Y-38798035D02*
X64439456Y-39028240D01*
X64903006Y-39031380D02*
X64672801Y-39261585D01*
X65624255Y-39752629D02*
X65394050Y-39982834D01*
X59262779Y-27990000D02*
X58937221Y-27990000D01*
X59262779Y-29010000D02*
X58937221Y-29010000D01*
X61400000Y-56690000D02*
X58950000Y-56690000D01*
X59600000Y-59910000D02*
X61400000Y-59910000D01*
X29080000Y-29880000D02*
X29080000Y-32330000D01*
X32300000Y-31680000D02*
X32300000Y-29880000D01*
X73000000Y-40010000D02*
X75450000Y-40010000D01*
X74800000Y-36790000D02*
X73000000Y-36790000D01*
X74050000Y-54130000D02*
X74050000Y-50680000D01*
X74050000Y-54130000D02*
X74050000Y-56080000D01*
X68930000Y-54130000D02*
X68930000Y-52180000D01*
X68930000Y-54130000D02*
X68930000Y-56080000D01*
X37750000Y-43800000D02*
X35300000Y-43800000D01*
X35950000Y-47020000D02*
X37750000Y-47020000D01*
X67860000Y-54130000D02*
X67860000Y-50680000D01*
X67860000Y-54130000D02*
X67860000Y-56080000D01*
X62740000Y-54130000D02*
X62740000Y-52180000D01*
X62740000Y-54130000D02*
X62740000Y-56080000D01*
X79150000Y-33750000D02*
X79150000Y-32675000D01*
X73250000Y-33750000D02*
X79150000Y-33750000D01*
X73250000Y-29850000D02*
X79150000Y-29850000D01*
X38350000Y-41739720D02*
X38350000Y-42065278D01*
X39370000Y-41739720D02*
X39370000Y-42065278D01*
X39800000Y-41227937D02*
X39800000Y-42432065D01*
X41620000Y-41227937D02*
X41620000Y-42432065D01*
X36760280Y-42460000D02*
X36434722Y-42460000D01*
X36760280Y-43480000D02*
X36434722Y-43480000D01*
X33500000Y-45957221D02*
X33500000Y-46282779D01*
X34520000Y-45957221D02*
X34520000Y-46282779D01*
X70000000Y-59300000D02*
G75*
G02X69300000Y-60000000I-700000J0D01*
G01*
X69300000Y-58000000D02*
G75*
G02X70000000Y-58700000I0J-700000D01*
G01*
X65900000Y-58700000D02*
G75*
G02X66600000Y-58000000I700000J0D01*
G01*
X66600000Y-60000000D02*
G75*
G02X65900000Y-59300000I0J700000D01*
G01*
X69350000Y-60000000D02*
X66550000Y-60000000D01*
X65900000Y-59300000D02*
X65900000Y-58700000D01*
X66550000Y-58000000D02*
X69350000Y-58000000D01*
X70000000Y-58700000D02*
X70000000Y-59300000D01*
X34060000Y-23340000D02*
X34060000Y-23790000D01*
X42280000Y-23340000D02*
X34060000Y-23340000D01*
X42280000Y-23790000D02*
X42280000Y-23340000D01*
X34060000Y-27760000D02*
X35010000Y-27760000D01*
X34060000Y-27310000D02*
X34060000Y-27760000D01*
X41330000Y-27760000D02*
X41330000Y-29250000D01*
X42280000Y-27760000D02*
X41330000Y-27760000D01*
X42280000Y-27310000D02*
X42280000Y-27760000D01*
X28720000Y-30530000D02*
X28720000Y-31990000D01*
X25560000Y-30530000D02*
X25560000Y-32690000D01*
X25560000Y-30530000D02*
X26490000Y-30530000D01*
X28720000Y-30530000D02*
X27790000Y-30530000D01*
D15*
X76997500Y-34424000D02*
G75*
G03X76045000Y-35376500I0J-952500D01*
G01*
X79855000Y-35376500D02*
G75*
G03X78902500Y-34424000I-952500J0D01*
G01*
X76997500Y-34424000D02*
X78902500Y-34424000D01*
X77226100Y-41243900D02*
G75*
G03X78673900Y-41243900I723900J723900D01*
G01*
X77226100Y-41243900D02*
X76045000Y-40062800D01*
X78673900Y-41243900D02*
X79855000Y-40062800D01*
X76045000Y-35376500D02*
X76045000Y-40062800D01*
X79855000Y-35376500D02*
X79855000Y-40062800D01*
D14*
X53190000Y-28841422D02*
X53190000Y-29358578D01*
X54610000Y-28841422D02*
X54610000Y-29358578D01*
X47380000Y-28841422D02*
X47380000Y-29358578D01*
X48800000Y-28841422D02*
X48800000Y-29358578D01*
X53190000Y-42741422D02*
X53190000Y-43258578D01*
X54610000Y-42741422D02*
X54610000Y-43258578D01*
X47390000Y-42741422D02*
X47390000Y-43258578D01*
X48810000Y-42741422D02*
X48810000Y-43258578D01*
X53190000Y-56941422D02*
X53190000Y-57458578D01*
X54610000Y-56941422D02*
X54610000Y-57458578D01*
X47380000Y-56941422D02*
X47380000Y-57458578D01*
X48800000Y-56941422D02*
X48800000Y-57458578D01*
X22690000Y-56970000D02*
X24810000Y-56970000D01*
X22690000Y-52910000D02*
X22690000Y-56970000D01*
X24810000Y-52910000D02*
X24810000Y-56970000D01*
X22690000Y-52910000D02*
X24810000Y-52910000D01*
X22690000Y-51910000D02*
X22690000Y-50850000D01*
X22690000Y-50850000D02*
X23750000Y-50850000D01*
X78060000Y-50850000D02*
X75940000Y-50850000D01*
X78060000Y-54910000D02*
X78060000Y-50850000D01*
X75940000Y-54910000D02*
X75940000Y-50850000D01*
X78060000Y-54910000D02*
X75940000Y-54910000D01*
X78060000Y-55910000D02*
X78060000Y-56970000D01*
X78060000Y-56970000D02*
X77000000Y-56970000D01*
X71787221Y-59460000D02*
X72112779Y-59460000D01*
X71787221Y-58440000D02*
X72112779Y-58440000D01*
X71680000Y-23230000D02*
X71680000Y-23680000D01*
X77400000Y-23230000D02*
X71680000Y-23230000D01*
X77400000Y-23680000D02*
X77400000Y-23230000D01*
X71680000Y-27650000D02*
X72630000Y-27650000D01*
X71680000Y-27200000D02*
X71680000Y-27650000D01*
X76450000Y-27650000D02*
X76450000Y-29140000D01*
X77400000Y-27650000D02*
X76450000Y-27650000D01*
X77400000Y-27200000D02*
X77400000Y-27650000D01*
X23625000Y-23360000D02*
X23625000Y-23810000D01*
X28095000Y-23360000D02*
X23625000Y-23360000D01*
X28095000Y-23810000D02*
X28095000Y-23360000D01*
X23625000Y-27780000D02*
X24575000Y-27780000D01*
X23625000Y-27330000D02*
X23625000Y-27780000D01*
X27145000Y-27780000D02*
X27145000Y-29270000D01*
X28095000Y-27780000D02*
X27145000Y-27780000D01*
X28095000Y-27330000D02*
X28095000Y-27780000D01*
X77185000Y-66510000D02*
X77185000Y-66060000D01*
X70215000Y-66510000D02*
X77185000Y-66510000D01*
X70215000Y-66060000D02*
X70215000Y-66510000D01*
X77185000Y-62090000D02*
X76235000Y-62090000D01*
X77185000Y-62540000D02*
X77185000Y-62090000D01*
X71165000Y-62090000D02*
X71165000Y-60600000D01*
X70215000Y-62090000D02*
X71165000Y-62090000D01*
X70215000Y-62540000D02*
X70215000Y-62090000D01*
X63675727Y-41154478D02*
X63445522Y-40924273D01*
X62954478Y-41875727D02*
X62724273Y-41645522D01*
X74140000Y-58137221D02*
X74140000Y-58462779D01*
X75160000Y-58137221D02*
X75160000Y-58462779D01*
X30235000Y-59962779D02*
X30235000Y-59637221D01*
X29215000Y-59962779D02*
X29215000Y-59637221D01*
X51837221Y-24760000D02*
X52162779Y-24760000D01*
X51837221Y-23740000D02*
X52162779Y-23740000D01*
X48637221Y-24810000D02*
X48962779Y-24810000D01*
X48637221Y-23790000D02*
X48962779Y-23790000D01*
X51937221Y-38710000D02*
X52262779Y-38710000D01*
X51937221Y-37690000D02*
X52262779Y-37690000D01*
X48637221Y-38710000D02*
X48962779Y-38710000D01*
X48637221Y-37690000D02*
X48962779Y-37690000D01*
X62410000Y-52412779D02*
X62410000Y-52087221D01*
X61390000Y-52412779D02*
X61390000Y-52087221D01*
X73337221Y-35910000D02*
X73662779Y-35910000D01*
X73337221Y-34890000D02*
X73662779Y-34890000D01*
X68795522Y-41475727D02*
X69025727Y-41245522D01*
X68074273Y-40754478D02*
X68304478Y-40524273D01*
X51837221Y-52910000D02*
X52162779Y-52910000D01*
X51837221Y-51890000D02*
X52162779Y-51890000D01*
X48637221Y-52910000D02*
X48962779Y-52910000D01*
X48637221Y-51890000D02*
X48962779Y-51890000D01*
D10*
X23853571Y-33303571D02*
X23853571Y-32853571D01*
X23960714Y-32853571D01*
X24025000Y-32875000D01*
X24067857Y-32917857D01*
X24089285Y-32960714D01*
X24110714Y-33046428D01*
X24110714Y-33110714D01*
X24089285Y-33196428D01*
X24067857Y-33239285D01*
X24025000Y-33282142D01*
X23960714Y-33303571D01*
X23853571Y-33303571D01*
X24539285Y-33303571D02*
X24282142Y-33303571D01*
X24410714Y-33303571D02*
X24410714Y-32853571D01*
X24367857Y-32917857D01*
X24325000Y-32960714D01*
X24282142Y-32982142D01*
X24946428Y-32853571D02*
X24732142Y-32853571D01*
X24710714Y-33067857D01*
X24732142Y-33046428D01*
X24775000Y-33025000D01*
X24882142Y-33025000D01*
X24925000Y-33046428D01*
X24946428Y-33067857D01*
X24967857Y-33110714D01*
X24967857Y-33217857D01*
X24946428Y-33260714D01*
X24925000Y-33282142D01*
X24882142Y-33303571D01*
X24775000Y-33303571D01*
X24732142Y-33282142D01*
X24710714Y-33260714D01*
X31703571Y-44703571D02*
X31703571Y-44253571D01*
X31810714Y-44253571D01*
X31875000Y-44275000D01*
X31917857Y-44317857D01*
X31939285Y-44360714D01*
X31960714Y-44446428D01*
X31960714Y-44510714D01*
X31939285Y-44596428D01*
X31917857Y-44639285D01*
X31875000Y-44682142D01*
X31810714Y-44703571D01*
X31703571Y-44703571D01*
X32389285Y-44703571D02*
X32132142Y-44703571D01*
X32260714Y-44703571D02*
X32260714Y-44253571D01*
X32217857Y-44317857D01*
X32175000Y-44360714D01*
X32132142Y-44382142D01*
X32775000Y-44403571D02*
X32775000Y-44703571D01*
X32667857Y-44232142D02*
X32560714Y-44553571D01*
X32839285Y-44553571D01*
X40310714Y-29853571D02*
X40160714Y-29639285D01*
X40053571Y-29853571D02*
X40053571Y-29403571D01*
X40225000Y-29403571D01*
X40267857Y-29425000D01*
X40289285Y-29446428D01*
X40310714Y-29489285D01*
X40310714Y-29553571D01*
X40289285Y-29596428D01*
X40267857Y-29617857D01*
X40225000Y-29639285D01*
X40053571Y-29639285D01*
X40460714Y-29403571D02*
X40739285Y-29403571D01*
X40589285Y-29575000D01*
X40653571Y-29575000D01*
X40696428Y-29596428D01*
X40717857Y-29617857D01*
X40739285Y-29660714D01*
X40739285Y-29767857D01*
X40717857Y-29810714D01*
X40696428Y-29832142D01*
X40653571Y-29853571D01*
X40525000Y-29853571D01*
X40482142Y-29832142D01*
X40460714Y-29810714D01*
X41146428Y-29403571D02*
X40932142Y-29403571D01*
X40910714Y-29617857D01*
X40932142Y-29596428D01*
X40975000Y-29575000D01*
X41082142Y-29575000D01*
X41125000Y-29596428D01*
X41146428Y-29617857D01*
X41167857Y-29660714D01*
X41167857Y-29767857D01*
X41146428Y-29810714D01*
X41125000Y-29832142D01*
X41082142Y-29853571D01*
X40975000Y-29853571D01*
X40932142Y-29832142D01*
X40910714Y-29810714D01*
X37360714Y-29853571D02*
X37210714Y-29639285D01*
X37103571Y-29853571D02*
X37103571Y-29403571D01*
X37275000Y-29403571D01*
X37317857Y-29425000D01*
X37339285Y-29446428D01*
X37360714Y-29489285D01*
X37360714Y-29553571D01*
X37339285Y-29596428D01*
X37317857Y-29617857D01*
X37275000Y-29639285D01*
X37103571Y-29639285D01*
X37510714Y-29403571D02*
X37789285Y-29403571D01*
X37639285Y-29575000D01*
X37703571Y-29575000D01*
X37746428Y-29596428D01*
X37767857Y-29617857D01*
X37789285Y-29660714D01*
X37789285Y-29767857D01*
X37767857Y-29810714D01*
X37746428Y-29832142D01*
X37703571Y-29853571D01*
X37575000Y-29853571D01*
X37532142Y-29832142D01*
X37510714Y-29810714D01*
X38175000Y-29553571D02*
X38175000Y-29853571D01*
X38067857Y-29382142D02*
X37960714Y-29703571D01*
X38239285Y-29703571D01*
X34460714Y-29803571D02*
X34310714Y-29589285D01*
X34203571Y-29803571D02*
X34203571Y-29353571D01*
X34375000Y-29353571D01*
X34417857Y-29375000D01*
X34439285Y-29396428D01*
X34460714Y-29439285D01*
X34460714Y-29503571D01*
X34439285Y-29546428D01*
X34417857Y-29567857D01*
X34375000Y-29589285D01*
X34203571Y-29589285D01*
X34610714Y-29353571D02*
X34889285Y-29353571D01*
X34739285Y-29525000D01*
X34803571Y-29525000D01*
X34846428Y-29546428D01*
X34867857Y-29567857D01*
X34889285Y-29610714D01*
X34889285Y-29717857D01*
X34867857Y-29760714D01*
X34846428Y-29782142D01*
X34803571Y-29803571D01*
X34675000Y-29803571D01*
X34632142Y-29782142D01*
X34610714Y-29760714D01*
X35039285Y-29353571D02*
X35317857Y-29353571D01*
X35167857Y-29525000D01*
X35232142Y-29525000D01*
X35275000Y-29546428D01*
X35296428Y-29567857D01*
X35317857Y-29610714D01*
X35317857Y-29717857D01*
X35296428Y-29760714D01*
X35275000Y-29782142D01*
X35232142Y-29803571D01*
X35103571Y-29803571D01*
X35060714Y-29782142D01*
X35039285Y-29760714D01*
X33010714Y-29803571D02*
X32860714Y-29589285D01*
X32753571Y-29803571D02*
X32753571Y-29353571D01*
X32925000Y-29353571D01*
X32967857Y-29375000D01*
X32989285Y-29396428D01*
X33010714Y-29439285D01*
X33010714Y-29503571D01*
X32989285Y-29546428D01*
X32967857Y-29567857D01*
X32925000Y-29589285D01*
X32753571Y-29589285D01*
X33182142Y-29396428D02*
X33203571Y-29375000D01*
X33246428Y-29353571D01*
X33353571Y-29353571D01*
X33396428Y-29375000D01*
X33417857Y-29396428D01*
X33439285Y-29439285D01*
X33439285Y-29482142D01*
X33417857Y-29546428D01*
X33160714Y-29803571D01*
X33439285Y-29803571D01*
X33653571Y-29803571D02*
X33739285Y-29803571D01*
X33782142Y-29782142D01*
X33803571Y-29760714D01*
X33846428Y-29696428D01*
X33867857Y-29610714D01*
X33867857Y-29439285D01*
X33846428Y-29396428D01*
X33825000Y-29375000D01*
X33782142Y-29353571D01*
X33696428Y-29353571D01*
X33653571Y-29375000D01*
X33632142Y-29396428D01*
X33610714Y-29439285D01*
X33610714Y-29546428D01*
X33632142Y-29589285D01*
X33653571Y-29610714D01*
X33696428Y-29632142D01*
X33782142Y-29632142D01*
X33825000Y-29610714D01*
X33846428Y-29589285D01*
X33867857Y-29546428D01*
X35960714Y-29853571D02*
X35810714Y-29639285D01*
X35703571Y-29853571D02*
X35703571Y-29403571D01*
X35875000Y-29403571D01*
X35917857Y-29425000D01*
X35939285Y-29446428D01*
X35960714Y-29489285D01*
X35960714Y-29553571D01*
X35939285Y-29596428D01*
X35917857Y-29617857D01*
X35875000Y-29639285D01*
X35703571Y-29639285D01*
X36132142Y-29446428D02*
X36153571Y-29425000D01*
X36196428Y-29403571D01*
X36303571Y-29403571D01*
X36346428Y-29425000D01*
X36367857Y-29446428D01*
X36389285Y-29489285D01*
X36389285Y-29532142D01*
X36367857Y-29596428D01*
X36110714Y-29853571D01*
X36389285Y-29853571D01*
X36646428Y-29596428D02*
X36603571Y-29575000D01*
X36582142Y-29553571D01*
X36560714Y-29510714D01*
X36560714Y-29489285D01*
X36582142Y-29446428D01*
X36603571Y-29425000D01*
X36646428Y-29403571D01*
X36732142Y-29403571D01*
X36775000Y-29425000D01*
X36796428Y-29446428D01*
X36817857Y-29489285D01*
X36817857Y-29510714D01*
X36796428Y-29553571D01*
X36775000Y-29575000D01*
X36732142Y-29596428D01*
X36646428Y-29596428D01*
X36603571Y-29617857D01*
X36582142Y-29639285D01*
X36560714Y-29682142D01*
X36560714Y-29767857D01*
X36582142Y-29810714D01*
X36603571Y-29832142D01*
X36646428Y-29853571D01*
X36732142Y-29853571D01*
X36775000Y-29832142D01*
X36796428Y-29810714D01*
X36817857Y-29767857D01*
X36817857Y-29682142D01*
X36796428Y-29639285D01*
X36775000Y-29617857D01*
X36732142Y-29596428D01*
X38860714Y-29853571D02*
X38710714Y-29639285D01*
X38603571Y-29853571D02*
X38603571Y-29403571D01*
X38775000Y-29403571D01*
X38817857Y-29425000D01*
X38839285Y-29446428D01*
X38860714Y-29489285D01*
X38860714Y-29553571D01*
X38839285Y-29596428D01*
X38817857Y-29617857D01*
X38775000Y-29639285D01*
X38603571Y-29639285D01*
X39032142Y-29446428D02*
X39053571Y-29425000D01*
X39096428Y-29403571D01*
X39203571Y-29403571D01*
X39246428Y-29425000D01*
X39267857Y-29446428D01*
X39289285Y-29489285D01*
X39289285Y-29532142D01*
X39267857Y-29596428D01*
X39010714Y-29853571D01*
X39289285Y-29853571D01*
X39439285Y-29403571D02*
X39739285Y-29403571D01*
X39546428Y-29853571D01*
X62992857Y-43953571D02*
X62992857Y-44317857D01*
X63014285Y-44360714D01*
X63035714Y-44382142D01*
X63078571Y-44403571D01*
X63164285Y-44403571D01*
X63207142Y-44382142D01*
X63228571Y-44360714D01*
X63250000Y-44317857D01*
X63250000Y-43953571D01*
X63700000Y-44403571D02*
X63442857Y-44403571D01*
X63571428Y-44403571D02*
X63571428Y-43953571D01*
X63528571Y-44017857D01*
X63485714Y-44060714D01*
X63442857Y-44082142D01*
X63871428Y-43996428D02*
X63892857Y-43975000D01*
X63935714Y-43953571D01*
X64042857Y-43953571D01*
X64085714Y-43975000D01*
X64107142Y-43996428D01*
X64128571Y-44039285D01*
X64128571Y-44082142D01*
X64107142Y-44146428D01*
X63850000Y-44403571D01*
X64128571Y-44403571D01*
X42672857Y-35203571D02*
X42672857Y-34753571D01*
X42780000Y-34753571D01*
X42844285Y-34775000D01*
X42887142Y-34817857D01*
X42908571Y-34860714D01*
X42930000Y-34946428D01*
X42930000Y-35010714D01*
X42908571Y-35096428D01*
X42887142Y-35139285D01*
X42844285Y-35182142D01*
X42780000Y-35203571D01*
X42672857Y-35203571D01*
X43080000Y-34753571D02*
X43380000Y-34753571D01*
X43187142Y-35203571D01*
X22010714Y-62160714D02*
X21989285Y-62182142D01*
X21925000Y-62203571D01*
X21882142Y-62203571D01*
X21817857Y-62182142D01*
X21775000Y-62139285D01*
X21753571Y-62096428D01*
X21732142Y-62010714D01*
X21732142Y-61946428D01*
X21753571Y-61860714D01*
X21775000Y-61817857D01*
X21817857Y-61775000D01*
X21882142Y-61753571D01*
X21925000Y-61753571D01*
X21989285Y-61775000D01*
X22010714Y-61796428D01*
X22417857Y-61753571D02*
X22203571Y-61753571D01*
X22182142Y-61967857D01*
X22203571Y-61946428D01*
X22246428Y-61925000D01*
X22353571Y-61925000D01*
X22396428Y-61946428D01*
X22417857Y-61967857D01*
X22439285Y-62010714D01*
X22439285Y-62117857D01*
X22417857Y-62160714D01*
X22396428Y-62182142D01*
X22353571Y-62203571D01*
X22246428Y-62203571D01*
X22203571Y-62182142D01*
X22182142Y-62160714D01*
X22825000Y-61753571D02*
X22739285Y-61753571D01*
X22696428Y-61775000D01*
X22675000Y-61796428D01*
X22632142Y-61860714D01*
X22610714Y-61946428D01*
X22610714Y-62117857D01*
X22632142Y-62160714D01*
X22653571Y-62182142D01*
X22696428Y-62203571D01*
X22782142Y-62203571D01*
X22825000Y-62182142D01*
X22846428Y-62160714D01*
X22867857Y-62117857D01*
X22867857Y-62010714D01*
X22846428Y-61967857D01*
X22825000Y-61946428D01*
X22782142Y-61925000D01*
X22696428Y-61925000D01*
X22653571Y-61946428D01*
X22632142Y-61967857D01*
X22610714Y-62010714D01*
X24375000Y-62160714D02*
X24353571Y-62182142D01*
X24289285Y-62203571D01*
X24246428Y-62203571D01*
X24182142Y-62182142D01*
X24139285Y-62139285D01*
X24117857Y-62096428D01*
X24096428Y-62010714D01*
X24096428Y-61946428D01*
X24117857Y-61860714D01*
X24139285Y-61817857D01*
X24182142Y-61775000D01*
X24246428Y-61753571D01*
X24289285Y-61753571D01*
X24353571Y-61775000D01*
X24375000Y-61796428D01*
X24525000Y-61753571D02*
X24825000Y-61753571D01*
X24632142Y-62203571D01*
X54657142Y-47103571D02*
X54657142Y-47467857D01*
X54678571Y-47510714D01*
X54700000Y-47532142D01*
X54742857Y-47553571D01*
X54828571Y-47553571D01*
X54871428Y-47532142D01*
X54892857Y-47510714D01*
X54914285Y-47467857D01*
X54914285Y-47103571D01*
X55085714Y-47103571D02*
X55385714Y-47103571D01*
X55192857Y-47553571D01*
X44910714Y-31053571D02*
X44760714Y-30839285D01*
X44653571Y-31053571D02*
X44653571Y-30603571D01*
X44825000Y-30603571D01*
X44867857Y-30625000D01*
X44889285Y-30646428D01*
X44910714Y-30689285D01*
X44910714Y-30753571D01*
X44889285Y-30796428D01*
X44867857Y-30817857D01*
X44825000Y-30839285D01*
X44653571Y-30839285D01*
X45060714Y-30603571D02*
X45339285Y-30603571D01*
X45189285Y-30775000D01*
X45253571Y-30775000D01*
X45296428Y-30796428D01*
X45317857Y-30817857D01*
X45339285Y-30860714D01*
X45339285Y-30967857D01*
X45317857Y-31010714D01*
X45296428Y-31032142D01*
X45253571Y-31053571D01*
X45125000Y-31053571D01*
X45082142Y-31032142D01*
X45060714Y-31010714D01*
X45767857Y-31053571D02*
X45510714Y-31053571D01*
X45639285Y-31053571D02*
X45639285Y-30603571D01*
X45596428Y-30667857D01*
X45553571Y-30710714D01*
X45510714Y-30732142D01*
X45210714Y-26803571D02*
X45060714Y-26589285D01*
X44953571Y-26803571D02*
X44953571Y-26353571D01*
X45125000Y-26353571D01*
X45167857Y-26375000D01*
X45189285Y-26396428D01*
X45210714Y-26439285D01*
X45210714Y-26503571D01*
X45189285Y-26546428D01*
X45167857Y-26567857D01*
X45125000Y-26589285D01*
X44953571Y-26589285D01*
X45360714Y-26353571D02*
X45639285Y-26353571D01*
X45489285Y-26525000D01*
X45553571Y-26525000D01*
X45596428Y-26546428D01*
X45617857Y-26567857D01*
X45639285Y-26610714D01*
X45639285Y-26717857D01*
X45617857Y-26760714D01*
X45596428Y-26782142D01*
X45553571Y-26803571D01*
X45425000Y-26803571D01*
X45382142Y-26782142D01*
X45360714Y-26760714D01*
X45917857Y-26353571D02*
X45960714Y-26353571D01*
X46003571Y-26375000D01*
X46025000Y-26396428D01*
X46046428Y-26439285D01*
X46067857Y-26525000D01*
X46067857Y-26632142D01*
X46046428Y-26717857D01*
X46025000Y-26760714D01*
X46003571Y-26782142D01*
X45960714Y-26803571D01*
X45917857Y-26803571D01*
X45875000Y-26782142D01*
X45853571Y-26760714D01*
X45832142Y-26717857D01*
X45810714Y-26632142D01*
X45810714Y-26525000D01*
X45832142Y-26439285D01*
X45853571Y-26396428D01*
X45875000Y-26375000D01*
X45917857Y-26353571D01*
X44910714Y-34953571D02*
X44760714Y-34739285D01*
X44653571Y-34953571D02*
X44653571Y-34503571D01*
X44825000Y-34503571D01*
X44867857Y-34525000D01*
X44889285Y-34546428D01*
X44910714Y-34589285D01*
X44910714Y-34653571D01*
X44889285Y-34696428D01*
X44867857Y-34717857D01*
X44825000Y-34739285D01*
X44653571Y-34739285D01*
X45082142Y-34546428D02*
X45103571Y-34525000D01*
X45146428Y-34503571D01*
X45253571Y-34503571D01*
X45296428Y-34525000D01*
X45317857Y-34546428D01*
X45339285Y-34589285D01*
X45339285Y-34632142D01*
X45317857Y-34696428D01*
X45060714Y-34953571D01*
X45339285Y-34953571D01*
X45725000Y-34503571D02*
X45639285Y-34503571D01*
X45596428Y-34525000D01*
X45575000Y-34546428D01*
X45532142Y-34610714D01*
X45510714Y-34696428D01*
X45510714Y-34867857D01*
X45532142Y-34910714D01*
X45553571Y-34932142D01*
X45596428Y-34953571D01*
X45682142Y-34953571D01*
X45725000Y-34932142D01*
X45746428Y-34910714D01*
X45767857Y-34867857D01*
X45767857Y-34760714D01*
X45746428Y-34717857D01*
X45725000Y-34696428D01*
X45682142Y-34675000D01*
X45596428Y-34675000D01*
X45553571Y-34696428D01*
X45532142Y-34717857D01*
X45510714Y-34760714D01*
X45710714Y-40753571D02*
X45560714Y-40539285D01*
X45453571Y-40753571D02*
X45453571Y-40303571D01*
X45625000Y-40303571D01*
X45667857Y-40325000D01*
X45689285Y-40346428D01*
X45710714Y-40389285D01*
X45710714Y-40453571D01*
X45689285Y-40496428D01*
X45667857Y-40517857D01*
X45625000Y-40539285D01*
X45453571Y-40539285D01*
X45882142Y-40346428D02*
X45903571Y-40325000D01*
X45946428Y-40303571D01*
X46053571Y-40303571D01*
X46096428Y-40325000D01*
X46117857Y-40346428D01*
X46139285Y-40389285D01*
X46139285Y-40432142D01*
X46117857Y-40496428D01*
X45860714Y-40753571D01*
X46139285Y-40753571D01*
X46546428Y-40303571D02*
X46332142Y-40303571D01*
X46310714Y-40517857D01*
X46332142Y-40496428D01*
X46375000Y-40475000D01*
X46482142Y-40475000D01*
X46525000Y-40496428D01*
X46546428Y-40517857D01*
X46567857Y-40560714D01*
X46567857Y-40667857D01*
X46546428Y-40710714D01*
X46525000Y-40732142D01*
X46482142Y-40753571D01*
X46375000Y-40753571D01*
X46332142Y-40732142D01*
X46310714Y-40710714D01*
X44310714Y-50803571D02*
X44160714Y-50589285D01*
X44053571Y-50803571D02*
X44053571Y-50353571D01*
X44225000Y-50353571D01*
X44267857Y-50375000D01*
X44289285Y-50396428D01*
X44310714Y-50439285D01*
X44310714Y-50503571D01*
X44289285Y-50546428D01*
X44267857Y-50567857D01*
X44225000Y-50589285D01*
X44053571Y-50589285D01*
X44482142Y-50396428D02*
X44503571Y-50375000D01*
X44546428Y-50353571D01*
X44653571Y-50353571D01*
X44696428Y-50375000D01*
X44717857Y-50396428D01*
X44739285Y-50439285D01*
X44739285Y-50482142D01*
X44717857Y-50546428D01*
X44460714Y-50803571D01*
X44739285Y-50803571D01*
X45125000Y-50503571D02*
X45125000Y-50803571D01*
X45017857Y-50332142D02*
X44910714Y-50653571D01*
X45189285Y-50653571D01*
X45510714Y-52103571D02*
X45360714Y-51889285D01*
X45253571Y-52103571D02*
X45253571Y-51653571D01*
X45425000Y-51653571D01*
X45467857Y-51675000D01*
X45489285Y-51696428D01*
X45510714Y-51739285D01*
X45510714Y-51803571D01*
X45489285Y-51846428D01*
X45467857Y-51867857D01*
X45425000Y-51889285D01*
X45253571Y-51889285D01*
X45682142Y-51696428D02*
X45703571Y-51675000D01*
X45746428Y-51653571D01*
X45853571Y-51653571D01*
X45896428Y-51675000D01*
X45917857Y-51696428D01*
X45939285Y-51739285D01*
X45939285Y-51782142D01*
X45917857Y-51846428D01*
X45660714Y-52103571D01*
X45939285Y-52103571D01*
X46089285Y-51653571D02*
X46367857Y-51653571D01*
X46217857Y-51825000D01*
X46282142Y-51825000D01*
X46325000Y-51846428D01*
X46346428Y-51867857D01*
X46367857Y-51910714D01*
X46367857Y-52017857D01*
X46346428Y-52060714D01*
X46325000Y-52082142D01*
X46282142Y-52103571D01*
X46153571Y-52103571D01*
X46110714Y-52082142D01*
X46089285Y-52060714D01*
X42453571Y-33303571D02*
X42453571Y-32853571D01*
X42560714Y-32853571D01*
X42625000Y-32875000D01*
X42667857Y-32917857D01*
X42689285Y-32960714D01*
X42710714Y-33046428D01*
X42710714Y-33110714D01*
X42689285Y-33196428D01*
X42667857Y-33239285D01*
X42625000Y-33282142D01*
X42560714Y-33303571D01*
X42453571Y-33303571D01*
X43139285Y-33303571D02*
X42882142Y-33303571D01*
X43010714Y-33303571D02*
X43010714Y-32853571D01*
X42967857Y-32917857D01*
X42925000Y-32960714D01*
X42882142Y-32982142D01*
X43289285Y-32853571D02*
X43567857Y-32853571D01*
X43417857Y-33025000D01*
X43482142Y-33025000D01*
X43525000Y-33046428D01*
X43546428Y-33067857D01*
X43567857Y-33110714D01*
X43567857Y-33217857D01*
X43546428Y-33260714D01*
X43525000Y-33282142D01*
X43482142Y-33303571D01*
X43353571Y-33303571D01*
X43310714Y-33282142D01*
X43289285Y-33260714D01*
X42453571Y-31403571D02*
X42453571Y-30953571D01*
X42560714Y-30953571D01*
X42625000Y-30975000D01*
X42667857Y-31017857D01*
X42689285Y-31060714D01*
X42710714Y-31146428D01*
X42710714Y-31210714D01*
X42689285Y-31296428D01*
X42667857Y-31339285D01*
X42625000Y-31382142D01*
X42560714Y-31403571D01*
X42453571Y-31403571D01*
X43139285Y-31403571D02*
X42882142Y-31403571D01*
X43010714Y-31403571D02*
X43010714Y-30953571D01*
X42967857Y-31017857D01*
X42925000Y-31060714D01*
X42882142Y-31082142D01*
X43417857Y-30953571D02*
X43460714Y-30953571D01*
X43503571Y-30975000D01*
X43525000Y-30996428D01*
X43546428Y-31039285D01*
X43567857Y-31125000D01*
X43567857Y-31232142D01*
X43546428Y-31317857D01*
X43525000Y-31360714D01*
X43503571Y-31382142D01*
X43460714Y-31403571D01*
X43417857Y-31403571D01*
X43375000Y-31382142D01*
X43353571Y-31360714D01*
X43332142Y-31317857D01*
X43310714Y-31232142D01*
X43310714Y-31125000D01*
X43332142Y-31039285D01*
X43353571Y-30996428D01*
X43375000Y-30975000D01*
X43417857Y-30953571D01*
X42617857Y-37053571D02*
X42617857Y-36603571D01*
X42725000Y-36603571D01*
X42789285Y-36625000D01*
X42832142Y-36667857D01*
X42853571Y-36710714D01*
X42875000Y-36796428D01*
X42875000Y-36860714D01*
X42853571Y-36946428D01*
X42832142Y-36989285D01*
X42789285Y-37032142D01*
X42725000Y-37053571D01*
X42617857Y-37053571D01*
X43260714Y-36603571D02*
X43175000Y-36603571D01*
X43132142Y-36625000D01*
X43110714Y-36646428D01*
X43067857Y-36710714D01*
X43046428Y-36796428D01*
X43046428Y-36967857D01*
X43067857Y-37010714D01*
X43089285Y-37032142D01*
X43132142Y-37053571D01*
X43217857Y-37053571D01*
X43260714Y-37032142D01*
X43282142Y-37010714D01*
X43303571Y-36967857D01*
X43303571Y-36860714D01*
X43282142Y-36817857D01*
X43260714Y-36796428D01*
X43217857Y-36775000D01*
X43132142Y-36775000D01*
X43089285Y-36796428D01*
X43067857Y-36817857D01*
X43046428Y-36860714D01*
X43267857Y-47953571D02*
X43267857Y-47503571D01*
X43375000Y-47503571D01*
X43439285Y-47525000D01*
X43482142Y-47567857D01*
X43503571Y-47610714D01*
X43525000Y-47696428D01*
X43525000Y-47760714D01*
X43503571Y-47846428D01*
X43482142Y-47889285D01*
X43439285Y-47932142D01*
X43375000Y-47953571D01*
X43267857Y-47953571D01*
X43932142Y-47503571D02*
X43717857Y-47503571D01*
X43696428Y-47717857D01*
X43717857Y-47696428D01*
X43760714Y-47675000D01*
X43867857Y-47675000D01*
X43910714Y-47696428D01*
X43932142Y-47717857D01*
X43953571Y-47760714D01*
X43953571Y-47867857D01*
X43932142Y-47910714D01*
X43910714Y-47932142D01*
X43867857Y-47953571D01*
X43760714Y-47953571D01*
X43717857Y-47932142D01*
X43696428Y-47910714D01*
X45217857Y-47853571D02*
X45217857Y-47403571D01*
X45325000Y-47403571D01*
X45389285Y-47425000D01*
X45432142Y-47467857D01*
X45453571Y-47510714D01*
X45475000Y-47596428D01*
X45475000Y-47660714D01*
X45453571Y-47746428D01*
X45432142Y-47789285D01*
X45389285Y-47832142D01*
X45325000Y-47853571D01*
X45217857Y-47853571D01*
X45646428Y-47446428D02*
X45667857Y-47425000D01*
X45710714Y-47403571D01*
X45817857Y-47403571D01*
X45860714Y-47425000D01*
X45882142Y-47446428D01*
X45903571Y-47489285D01*
X45903571Y-47532142D01*
X45882142Y-47596428D01*
X45625000Y-47853571D01*
X45903571Y-47853571D01*
X61510714Y-54503571D02*
X61360714Y-54289285D01*
X61253571Y-54503571D02*
X61253571Y-54053571D01*
X61425000Y-54053571D01*
X61467857Y-54075000D01*
X61489285Y-54096428D01*
X61510714Y-54139285D01*
X61510714Y-54203571D01*
X61489285Y-54246428D01*
X61467857Y-54267857D01*
X61425000Y-54289285D01*
X61253571Y-54289285D01*
X61896428Y-54203571D02*
X61896428Y-54503571D01*
X61789285Y-54032142D02*
X61682142Y-54353571D01*
X61960714Y-54353571D01*
X62325000Y-54053571D02*
X62239285Y-54053571D01*
X62196428Y-54075000D01*
X62175000Y-54096428D01*
X62132142Y-54160714D01*
X62110714Y-54246428D01*
X62110714Y-54417857D01*
X62132142Y-54460714D01*
X62153571Y-54482142D01*
X62196428Y-54503571D01*
X62282142Y-54503571D01*
X62325000Y-54482142D01*
X62346428Y-54460714D01*
X62367857Y-54417857D01*
X62367857Y-54310714D01*
X62346428Y-54267857D01*
X62325000Y-54246428D01*
X62282142Y-54225000D01*
X62196428Y-54225000D01*
X62153571Y-54246428D01*
X62132142Y-54267857D01*
X62110714Y-54310714D01*
X60260714Y-54503571D02*
X60110714Y-54289285D01*
X60003571Y-54503571D02*
X60003571Y-54053571D01*
X60175000Y-54053571D01*
X60217857Y-54075000D01*
X60239285Y-54096428D01*
X60260714Y-54139285D01*
X60260714Y-54203571D01*
X60239285Y-54246428D01*
X60217857Y-54267857D01*
X60175000Y-54289285D01*
X60003571Y-54289285D01*
X60646428Y-54203571D02*
X60646428Y-54503571D01*
X60539285Y-54032142D02*
X60432142Y-54353571D01*
X60710714Y-54353571D01*
X61096428Y-54053571D02*
X60882142Y-54053571D01*
X60860714Y-54267857D01*
X60882142Y-54246428D01*
X60925000Y-54225000D01*
X61032142Y-54225000D01*
X61075000Y-54246428D01*
X61096428Y-54267857D01*
X61117857Y-54310714D01*
X61117857Y-54417857D01*
X61096428Y-54460714D01*
X61075000Y-54482142D01*
X61032142Y-54503571D01*
X60925000Y-54503571D01*
X60882142Y-54482142D01*
X60860714Y-54460714D01*
X55125714Y-24003571D02*
X54975714Y-23789285D01*
X54868571Y-24003571D02*
X54868571Y-23553571D01*
X55040000Y-23553571D01*
X55082857Y-23575000D01*
X55104285Y-23596428D01*
X55125714Y-23639285D01*
X55125714Y-23703571D01*
X55104285Y-23746428D01*
X55082857Y-23767857D01*
X55040000Y-23789285D01*
X54868571Y-23789285D01*
X55511428Y-23703571D02*
X55511428Y-24003571D01*
X55404285Y-23532142D02*
X55297142Y-23853571D01*
X55575714Y-23853571D01*
X55725714Y-23596428D02*
X55747142Y-23575000D01*
X55790000Y-23553571D01*
X55897142Y-23553571D01*
X55940000Y-23575000D01*
X55961428Y-23596428D01*
X55982857Y-23639285D01*
X55982857Y-23682142D01*
X55961428Y-23746428D01*
X55704285Y-24003571D01*
X55982857Y-24003571D01*
X57210714Y-42053571D02*
X57060714Y-41839285D01*
X56953571Y-42053571D02*
X56953571Y-41603571D01*
X57125000Y-41603571D01*
X57167857Y-41625000D01*
X57189285Y-41646428D01*
X57210714Y-41689285D01*
X57210714Y-41753571D01*
X57189285Y-41796428D01*
X57167857Y-41817857D01*
X57125000Y-41839285D01*
X56953571Y-41839285D01*
X57596428Y-41753571D02*
X57596428Y-42053571D01*
X57489285Y-41582142D02*
X57382142Y-41903571D01*
X57660714Y-41903571D01*
X58067857Y-42053571D02*
X57810714Y-42053571D01*
X57939285Y-42053571D02*
X57939285Y-41603571D01*
X57896428Y-41667857D01*
X57853571Y-41710714D01*
X57810714Y-41732142D01*
X57810714Y-51853571D02*
X57660714Y-51639285D01*
X57553571Y-51853571D02*
X57553571Y-51403571D01*
X57725000Y-51403571D01*
X57767857Y-51425000D01*
X57789285Y-51446428D01*
X57810714Y-51489285D01*
X57810714Y-51553571D01*
X57789285Y-51596428D01*
X57767857Y-51617857D01*
X57725000Y-51639285D01*
X57553571Y-51639285D01*
X58196428Y-51553571D02*
X58196428Y-51853571D01*
X58089285Y-51382142D02*
X57982142Y-51703571D01*
X58260714Y-51703571D01*
X58517857Y-51403571D02*
X58560714Y-51403571D01*
X58603571Y-51425000D01*
X58625000Y-51446428D01*
X58646428Y-51489285D01*
X58667857Y-51575000D01*
X58667857Y-51682142D01*
X58646428Y-51767857D01*
X58625000Y-51810714D01*
X58603571Y-51832142D01*
X58560714Y-51853571D01*
X58517857Y-51853571D01*
X58475000Y-51832142D01*
X58453571Y-51810714D01*
X58432142Y-51767857D01*
X58410714Y-51682142D01*
X58410714Y-51575000D01*
X58432142Y-51489285D01*
X58453571Y-51446428D01*
X58475000Y-51425000D01*
X58517857Y-51403571D01*
X31810714Y-27803571D02*
X31660714Y-27589285D01*
X31553571Y-27803571D02*
X31553571Y-27353571D01*
X31725000Y-27353571D01*
X31767857Y-27375000D01*
X31789285Y-27396428D01*
X31810714Y-27439285D01*
X31810714Y-27503571D01*
X31789285Y-27546428D01*
X31767857Y-27567857D01*
X31725000Y-27589285D01*
X31553571Y-27589285D01*
X31960714Y-27353571D02*
X32239285Y-27353571D01*
X32089285Y-27525000D01*
X32153571Y-27525000D01*
X32196428Y-27546428D01*
X32217857Y-27567857D01*
X32239285Y-27610714D01*
X32239285Y-27717857D01*
X32217857Y-27760714D01*
X32196428Y-27782142D01*
X32153571Y-27803571D01*
X32025000Y-27803571D01*
X31982142Y-27782142D01*
X31960714Y-27760714D01*
X32453571Y-27803571D02*
X32539285Y-27803571D01*
X32582142Y-27782142D01*
X32603571Y-27760714D01*
X32646428Y-27696428D01*
X32667857Y-27610714D01*
X32667857Y-27439285D01*
X32646428Y-27396428D01*
X32625000Y-27375000D01*
X32582142Y-27353571D01*
X32496428Y-27353571D01*
X32453571Y-27375000D01*
X32432142Y-27396428D01*
X32410714Y-27439285D01*
X32410714Y-27546428D01*
X32432142Y-27589285D01*
X32453571Y-27610714D01*
X32496428Y-27632142D01*
X32582142Y-27632142D01*
X32625000Y-27610714D01*
X32646428Y-27589285D01*
X32667857Y-27546428D01*
X39160714Y-47203571D02*
X39010714Y-46989285D01*
X38903571Y-47203571D02*
X38903571Y-46753571D01*
X39075000Y-46753571D01*
X39117857Y-46775000D01*
X39139285Y-46796428D01*
X39160714Y-46839285D01*
X39160714Y-46903571D01*
X39139285Y-46946428D01*
X39117857Y-46967857D01*
X39075000Y-46989285D01*
X38903571Y-46989285D01*
X39310714Y-46753571D02*
X39589285Y-46753571D01*
X39439285Y-46925000D01*
X39503571Y-46925000D01*
X39546428Y-46946428D01*
X39567857Y-46967857D01*
X39589285Y-47010714D01*
X39589285Y-47117857D01*
X39567857Y-47160714D01*
X39546428Y-47182142D01*
X39503571Y-47203571D01*
X39375000Y-47203571D01*
X39332142Y-47182142D01*
X39310714Y-47160714D01*
X39846428Y-46946428D02*
X39803571Y-46925000D01*
X39782142Y-46903571D01*
X39760714Y-46860714D01*
X39760714Y-46839285D01*
X39782142Y-46796428D01*
X39803571Y-46775000D01*
X39846428Y-46753571D01*
X39932142Y-46753571D01*
X39975000Y-46775000D01*
X39996428Y-46796428D01*
X40017857Y-46839285D01*
X40017857Y-46860714D01*
X39996428Y-46903571D01*
X39975000Y-46925000D01*
X39932142Y-46946428D01*
X39846428Y-46946428D01*
X39803571Y-46967857D01*
X39782142Y-46989285D01*
X39760714Y-47032142D01*
X39760714Y-47117857D01*
X39782142Y-47160714D01*
X39803571Y-47182142D01*
X39846428Y-47203571D01*
X39932142Y-47203571D01*
X39975000Y-47182142D01*
X39996428Y-47160714D01*
X40017857Y-47117857D01*
X40017857Y-47032142D01*
X39996428Y-46989285D01*
X39975000Y-46967857D01*
X39932142Y-46946428D01*
X40460714Y-47203571D02*
X40310714Y-46989285D01*
X40203571Y-47203571D02*
X40203571Y-46753571D01*
X40375000Y-46753571D01*
X40417857Y-46775000D01*
X40439285Y-46796428D01*
X40460714Y-46839285D01*
X40460714Y-46903571D01*
X40439285Y-46946428D01*
X40417857Y-46967857D01*
X40375000Y-46989285D01*
X40203571Y-46989285D01*
X40610714Y-46753571D02*
X40889285Y-46753571D01*
X40739285Y-46925000D01*
X40803571Y-46925000D01*
X40846428Y-46946428D01*
X40867857Y-46967857D01*
X40889285Y-47010714D01*
X40889285Y-47117857D01*
X40867857Y-47160714D01*
X40846428Y-47182142D01*
X40803571Y-47203571D01*
X40675000Y-47203571D01*
X40632142Y-47182142D01*
X40610714Y-47160714D01*
X41039285Y-46753571D02*
X41339285Y-46753571D01*
X41146428Y-47203571D01*
X58460714Y-30653571D02*
X58310714Y-30439285D01*
X58203571Y-30653571D02*
X58203571Y-30203571D01*
X58375000Y-30203571D01*
X58417857Y-30225000D01*
X58439285Y-30246428D01*
X58460714Y-30289285D01*
X58460714Y-30353571D01*
X58439285Y-30396428D01*
X58417857Y-30417857D01*
X58375000Y-30439285D01*
X58203571Y-30439285D01*
X58610714Y-30203571D02*
X58889285Y-30203571D01*
X58739285Y-30375000D01*
X58803571Y-30375000D01*
X58846428Y-30396428D01*
X58867857Y-30417857D01*
X58889285Y-30460714D01*
X58889285Y-30567857D01*
X58867857Y-30610714D01*
X58846428Y-30632142D01*
X58803571Y-30653571D01*
X58675000Y-30653571D01*
X58632142Y-30632142D01*
X58610714Y-30610714D01*
X59275000Y-30203571D02*
X59189285Y-30203571D01*
X59146428Y-30225000D01*
X59125000Y-30246428D01*
X59082142Y-30310714D01*
X59060714Y-30396428D01*
X59060714Y-30567857D01*
X59082142Y-30610714D01*
X59103571Y-30632142D01*
X59146428Y-30653571D01*
X59232142Y-30653571D01*
X59275000Y-30632142D01*
X59296428Y-30610714D01*
X59317857Y-30567857D01*
X59317857Y-30460714D01*
X59296428Y-30417857D01*
X59275000Y-30396428D01*
X59232142Y-30375000D01*
X59146428Y-30375000D01*
X59103571Y-30396428D01*
X59082142Y-30417857D01*
X59060714Y-30460714D01*
X68110714Y-55953571D02*
X67960714Y-55739285D01*
X67853571Y-55953571D02*
X67853571Y-55503571D01*
X68025000Y-55503571D01*
X68067857Y-55525000D01*
X68089285Y-55546428D01*
X68110714Y-55589285D01*
X68110714Y-55653571D01*
X68089285Y-55696428D01*
X68067857Y-55717857D01*
X68025000Y-55739285D01*
X67853571Y-55739285D01*
X68260714Y-55503571D02*
X68539285Y-55503571D01*
X68389285Y-55675000D01*
X68453571Y-55675000D01*
X68496428Y-55696428D01*
X68517857Y-55717857D01*
X68539285Y-55760714D01*
X68539285Y-55867857D01*
X68517857Y-55910714D01*
X68496428Y-55932142D01*
X68453571Y-55953571D01*
X68325000Y-55953571D01*
X68282142Y-55932142D01*
X68260714Y-55910714D01*
X68710714Y-55546428D02*
X68732142Y-55525000D01*
X68775000Y-55503571D01*
X68882142Y-55503571D01*
X68925000Y-55525000D01*
X68946428Y-55546428D01*
X68967857Y-55589285D01*
X68967857Y-55632142D01*
X68946428Y-55696428D01*
X68689285Y-55953571D01*
X68967857Y-55953571D01*
X22210714Y-29753571D02*
X22060714Y-29539285D01*
X21953571Y-29753571D02*
X21953571Y-29303571D01*
X22125000Y-29303571D01*
X22167857Y-29325000D01*
X22189285Y-29346428D01*
X22210714Y-29389285D01*
X22210714Y-29453571D01*
X22189285Y-29496428D01*
X22167857Y-29517857D01*
X22125000Y-29539285D01*
X21953571Y-29539285D01*
X22382142Y-29346428D02*
X22403571Y-29325000D01*
X22446428Y-29303571D01*
X22553571Y-29303571D01*
X22596428Y-29325000D01*
X22617857Y-29346428D01*
X22639285Y-29389285D01*
X22639285Y-29432142D01*
X22617857Y-29496428D01*
X22360714Y-29753571D01*
X22639285Y-29753571D01*
X23067857Y-29753571D02*
X22810714Y-29753571D01*
X22939285Y-29753571D02*
X22939285Y-29303571D01*
X22896428Y-29367857D01*
X22853571Y-29410714D01*
X22810714Y-29432142D01*
X33510714Y-29153571D02*
X33360714Y-28939285D01*
X33253571Y-29153571D02*
X33253571Y-28703571D01*
X33425000Y-28703571D01*
X33467857Y-28725000D01*
X33489285Y-28746428D01*
X33510714Y-28789285D01*
X33510714Y-28853571D01*
X33489285Y-28896428D01*
X33467857Y-28917857D01*
X33425000Y-28939285D01*
X33253571Y-28939285D01*
X33682142Y-28746428D02*
X33703571Y-28725000D01*
X33746428Y-28703571D01*
X33853571Y-28703571D01*
X33896428Y-28725000D01*
X33917857Y-28746428D01*
X33939285Y-28789285D01*
X33939285Y-28832142D01*
X33917857Y-28896428D01*
X33660714Y-29153571D01*
X33939285Y-29153571D01*
X34217857Y-28703571D02*
X34260714Y-28703571D01*
X34303571Y-28725000D01*
X34325000Y-28746428D01*
X34346428Y-28789285D01*
X34367857Y-28875000D01*
X34367857Y-28982142D01*
X34346428Y-29067857D01*
X34325000Y-29110714D01*
X34303571Y-29132142D01*
X34260714Y-29153571D01*
X34217857Y-29153571D01*
X34175000Y-29132142D01*
X34153571Y-29110714D01*
X34132142Y-29067857D01*
X34110714Y-28982142D01*
X34110714Y-28875000D01*
X34132142Y-28789285D01*
X34153571Y-28746428D01*
X34175000Y-28725000D01*
X34217857Y-28703571D01*
X21610714Y-49303571D02*
X21460714Y-49089285D01*
X21353571Y-49303571D02*
X21353571Y-48853571D01*
X21525000Y-48853571D01*
X21567857Y-48875000D01*
X21589285Y-48896428D01*
X21610714Y-48939285D01*
X21610714Y-49003571D01*
X21589285Y-49046428D01*
X21567857Y-49067857D01*
X21525000Y-49089285D01*
X21353571Y-49089285D01*
X22039285Y-49303571D02*
X21782142Y-49303571D01*
X21910714Y-49303571D02*
X21910714Y-48853571D01*
X21867857Y-48917857D01*
X21825000Y-48960714D01*
X21782142Y-48982142D01*
X22189285Y-48853571D02*
X22489285Y-48853571D01*
X22296428Y-49303571D01*
X57110714Y-24003571D02*
X56960714Y-23789285D01*
X56853571Y-24003571D02*
X56853571Y-23553571D01*
X57025000Y-23553571D01*
X57067857Y-23575000D01*
X57089285Y-23596428D01*
X57110714Y-23639285D01*
X57110714Y-23703571D01*
X57089285Y-23746428D01*
X57067857Y-23767857D01*
X57025000Y-23789285D01*
X56853571Y-23789285D01*
X57539285Y-24003571D02*
X57282142Y-24003571D01*
X57410714Y-24003571D02*
X57410714Y-23553571D01*
X57367857Y-23617857D01*
X57325000Y-23660714D01*
X57282142Y-23682142D01*
X57925000Y-23553571D02*
X57839285Y-23553571D01*
X57796428Y-23575000D01*
X57775000Y-23596428D01*
X57732142Y-23660714D01*
X57710714Y-23746428D01*
X57710714Y-23917857D01*
X57732142Y-23960714D01*
X57753571Y-23982142D01*
X57796428Y-24003571D01*
X57882142Y-24003571D01*
X57925000Y-23982142D01*
X57946428Y-23960714D01*
X57967857Y-23917857D01*
X57967857Y-23810714D01*
X57946428Y-23767857D01*
X57925000Y-23746428D01*
X57882142Y-23725000D01*
X57796428Y-23725000D01*
X57753571Y-23746428D01*
X57732142Y-23767857D01*
X57710714Y-23810714D01*
X59560714Y-37953571D02*
X59410714Y-37739285D01*
X59303571Y-37953571D02*
X59303571Y-37503571D01*
X59475000Y-37503571D01*
X59517857Y-37525000D01*
X59539285Y-37546428D01*
X59560714Y-37589285D01*
X59560714Y-37653571D01*
X59539285Y-37696428D01*
X59517857Y-37717857D01*
X59475000Y-37739285D01*
X59303571Y-37739285D01*
X59989285Y-37953571D02*
X59732142Y-37953571D01*
X59860714Y-37953571D02*
X59860714Y-37503571D01*
X59817857Y-37567857D01*
X59775000Y-37610714D01*
X59732142Y-37632142D01*
X60396428Y-37503571D02*
X60182142Y-37503571D01*
X60160714Y-37717857D01*
X60182142Y-37696428D01*
X60225000Y-37675000D01*
X60332142Y-37675000D01*
X60375000Y-37696428D01*
X60396428Y-37717857D01*
X60417857Y-37760714D01*
X60417857Y-37867857D01*
X60396428Y-37910714D01*
X60375000Y-37932142D01*
X60332142Y-37953571D01*
X60225000Y-37953571D01*
X60182142Y-37932142D01*
X60160714Y-37910714D01*
X58110714Y-37553571D02*
X57960714Y-37339285D01*
X57853571Y-37553571D02*
X57853571Y-37103571D01*
X58025000Y-37103571D01*
X58067857Y-37125000D01*
X58089285Y-37146428D01*
X58110714Y-37189285D01*
X58110714Y-37253571D01*
X58089285Y-37296428D01*
X58067857Y-37317857D01*
X58025000Y-37339285D01*
X57853571Y-37339285D01*
X58539285Y-37553571D02*
X58282142Y-37553571D01*
X58410714Y-37553571D02*
X58410714Y-37103571D01*
X58367857Y-37167857D01*
X58325000Y-37210714D01*
X58282142Y-37232142D01*
X58925000Y-37253571D02*
X58925000Y-37553571D01*
X58817857Y-37082142D02*
X58710714Y-37403571D01*
X58989285Y-37403571D01*
X61375000Y-39203571D02*
X61225000Y-38989285D01*
X61117857Y-39203571D02*
X61117857Y-38753571D01*
X61289285Y-38753571D01*
X61332142Y-38775000D01*
X61353571Y-38796428D01*
X61375000Y-38839285D01*
X61375000Y-38903571D01*
X61353571Y-38946428D01*
X61332142Y-38967857D01*
X61289285Y-38989285D01*
X61117857Y-38989285D01*
X61589285Y-39203571D02*
X61675000Y-39203571D01*
X61717857Y-39182142D01*
X61739285Y-39160714D01*
X61782142Y-39096428D01*
X61803571Y-39010714D01*
X61803571Y-38839285D01*
X61782142Y-38796428D01*
X61760714Y-38775000D01*
X61717857Y-38753571D01*
X61632142Y-38753571D01*
X61589285Y-38775000D01*
X61567857Y-38796428D01*
X61546428Y-38839285D01*
X61546428Y-38946428D01*
X61567857Y-38989285D01*
X61589285Y-39010714D01*
X61632142Y-39032142D01*
X61717857Y-39032142D01*
X61760714Y-39010714D01*
X61782142Y-38989285D01*
X61803571Y-38946428D01*
X61725000Y-43053571D02*
X61575000Y-42839285D01*
X61467857Y-43053571D02*
X61467857Y-42603571D01*
X61639285Y-42603571D01*
X61682142Y-42625000D01*
X61703571Y-42646428D01*
X61725000Y-42689285D01*
X61725000Y-42753571D01*
X61703571Y-42796428D01*
X61682142Y-42817857D01*
X61639285Y-42839285D01*
X61467857Y-42839285D01*
X61982142Y-42796428D02*
X61939285Y-42775000D01*
X61917857Y-42753571D01*
X61896428Y-42710714D01*
X61896428Y-42689285D01*
X61917857Y-42646428D01*
X61939285Y-42625000D01*
X61982142Y-42603571D01*
X62067857Y-42603571D01*
X62110714Y-42625000D01*
X62132142Y-42646428D01*
X62153571Y-42689285D01*
X62153571Y-42710714D01*
X62132142Y-42753571D01*
X62110714Y-42775000D01*
X62067857Y-42796428D01*
X61982142Y-42796428D01*
X61939285Y-42817857D01*
X61917857Y-42839285D01*
X61896428Y-42882142D01*
X61896428Y-42967857D01*
X61917857Y-43010714D01*
X61939285Y-43032142D01*
X61982142Y-43053571D01*
X62067857Y-43053571D01*
X62110714Y-43032142D01*
X62132142Y-43010714D01*
X62153571Y-42967857D01*
X62153571Y-42882142D01*
X62132142Y-42839285D01*
X62110714Y-42817857D01*
X62067857Y-42796428D01*
X42925000Y-55603571D02*
X42775000Y-55389285D01*
X42667857Y-55603571D02*
X42667857Y-55153571D01*
X42839285Y-55153571D01*
X42882142Y-55175000D01*
X42903571Y-55196428D01*
X42925000Y-55239285D01*
X42925000Y-55303571D01*
X42903571Y-55346428D01*
X42882142Y-55367857D01*
X42839285Y-55389285D01*
X42667857Y-55389285D01*
X43075000Y-55153571D02*
X43375000Y-55153571D01*
X43182142Y-55603571D01*
X21575000Y-52903571D02*
X21425000Y-52689285D01*
X21317857Y-52903571D02*
X21317857Y-52453571D01*
X21489285Y-52453571D01*
X21532142Y-52475000D01*
X21553571Y-52496428D01*
X21575000Y-52539285D01*
X21575000Y-52603571D01*
X21553571Y-52646428D01*
X21532142Y-52667857D01*
X21489285Y-52689285D01*
X21317857Y-52689285D01*
X21960714Y-52453571D02*
X21875000Y-52453571D01*
X21832142Y-52475000D01*
X21810714Y-52496428D01*
X21767857Y-52560714D01*
X21746428Y-52646428D01*
X21746428Y-52817857D01*
X21767857Y-52860714D01*
X21789285Y-52882142D01*
X21832142Y-52903571D01*
X21917857Y-52903571D01*
X21960714Y-52882142D01*
X21982142Y-52860714D01*
X22003571Y-52817857D01*
X22003571Y-52710714D01*
X21982142Y-52667857D01*
X21960714Y-52646428D01*
X21917857Y-52625000D01*
X21832142Y-52625000D01*
X21789285Y-52646428D01*
X21767857Y-52667857D01*
X21746428Y-52710714D01*
X74625000Y-51353571D02*
X74475000Y-51139285D01*
X74367857Y-51353571D02*
X74367857Y-50903571D01*
X74539285Y-50903571D01*
X74582142Y-50925000D01*
X74603571Y-50946428D01*
X74625000Y-50989285D01*
X74625000Y-51053571D01*
X74603571Y-51096428D01*
X74582142Y-51117857D01*
X74539285Y-51139285D01*
X74367857Y-51139285D01*
X75032142Y-50903571D02*
X74817857Y-50903571D01*
X74796428Y-51117857D01*
X74817857Y-51096428D01*
X74860714Y-51075000D01*
X74967857Y-51075000D01*
X75010714Y-51096428D01*
X75032142Y-51117857D01*
X75053571Y-51160714D01*
X75053571Y-51267857D01*
X75032142Y-51310714D01*
X75010714Y-51332142D01*
X74967857Y-51353571D01*
X74860714Y-51353571D01*
X74817857Y-51332142D01*
X74796428Y-51310714D01*
X68325000Y-51353571D02*
X68175000Y-51139285D01*
X68067857Y-51353571D02*
X68067857Y-50903571D01*
X68239285Y-50903571D01*
X68282142Y-50925000D01*
X68303571Y-50946428D01*
X68325000Y-50989285D01*
X68325000Y-51053571D01*
X68303571Y-51096428D01*
X68282142Y-51117857D01*
X68239285Y-51139285D01*
X68067857Y-51139285D01*
X68710714Y-51053571D02*
X68710714Y-51353571D01*
X68603571Y-50882142D02*
X68496428Y-51203571D01*
X68775000Y-51203571D01*
X42925000Y-59953571D02*
X42775000Y-59739285D01*
X42667857Y-59953571D02*
X42667857Y-59503571D01*
X42839285Y-59503571D01*
X42882142Y-59525000D01*
X42903571Y-59546428D01*
X42925000Y-59589285D01*
X42925000Y-59653571D01*
X42903571Y-59696428D01*
X42882142Y-59717857D01*
X42839285Y-59739285D01*
X42667857Y-59739285D01*
X43353571Y-59953571D02*
X43096428Y-59953571D01*
X43225000Y-59953571D02*
X43225000Y-59503571D01*
X43182142Y-59567857D01*
X43139285Y-59610714D01*
X43096428Y-59632142D01*
X34625000Y-63403571D02*
X34410714Y-63403571D01*
X34410714Y-62953571D01*
X34753571Y-62996428D02*
X34775000Y-62975000D01*
X34817857Y-62953571D01*
X34925000Y-62953571D01*
X34967857Y-62975000D01*
X34989285Y-62996428D01*
X35010714Y-63039285D01*
X35010714Y-63082142D01*
X34989285Y-63146428D01*
X34732142Y-63403571D01*
X35010714Y-63403571D01*
X54853571Y-29203571D02*
X54853571Y-28753571D01*
X54960714Y-28753571D01*
X55025000Y-28775000D01*
X55067857Y-28817857D01*
X55089285Y-28860714D01*
X55110714Y-28946428D01*
X55110714Y-29010714D01*
X55089285Y-29096428D01*
X55067857Y-29139285D01*
X55025000Y-29182142D01*
X54960714Y-29203571D01*
X54853571Y-29203571D01*
X55539285Y-29203571D02*
X55282142Y-29203571D01*
X55410714Y-29203571D02*
X55410714Y-28753571D01*
X55367857Y-28817857D01*
X55325000Y-28860714D01*
X55282142Y-28882142D01*
X55710714Y-28796428D02*
X55732142Y-28775000D01*
X55775000Y-28753571D01*
X55882142Y-28753571D01*
X55925000Y-28775000D01*
X55946428Y-28796428D01*
X55967857Y-28839285D01*
X55967857Y-28882142D01*
X55946428Y-28946428D01*
X55689285Y-29203571D01*
X55967857Y-29203571D01*
X46103571Y-29203571D02*
X46103571Y-28753571D01*
X46210714Y-28753571D01*
X46275000Y-28775000D01*
X46317857Y-28817857D01*
X46339285Y-28860714D01*
X46360714Y-28946428D01*
X46360714Y-29010714D01*
X46339285Y-29096428D01*
X46317857Y-29139285D01*
X46275000Y-29182142D01*
X46210714Y-29203571D01*
X46103571Y-29203571D01*
X46789285Y-29203571D02*
X46532142Y-29203571D01*
X46660714Y-29203571D02*
X46660714Y-28753571D01*
X46617857Y-28817857D01*
X46575000Y-28860714D01*
X46532142Y-28882142D01*
X47217857Y-29203571D02*
X46960714Y-29203571D01*
X47089285Y-29203571D02*
X47089285Y-28753571D01*
X47046428Y-28817857D01*
X47003571Y-28860714D01*
X46960714Y-28882142D01*
X54817857Y-43103571D02*
X54817857Y-42653571D01*
X54925000Y-42653571D01*
X54989285Y-42675000D01*
X55032142Y-42717857D01*
X55053571Y-42760714D01*
X55075000Y-42846428D01*
X55075000Y-42910714D01*
X55053571Y-42996428D01*
X55032142Y-43039285D01*
X54989285Y-43082142D01*
X54925000Y-43103571D01*
X54817857Y-43103571D01*
X55289285Y-43103571D02*
X55375000Y-43103571D01*
X55417857Y-43082142D01*
X55439285Y-43060714D01*
X55482142Y-42996428D01*
X55503571Y-42910714D01*
X55503571Y-42739285D01*
X55482142Y-42696428D01*
X55460714Y-42675000D01*
X55417857Y-42653571D01*
X55332142Y-42653571D01*
X55289285Y-42675000D01*
X55267857Y-42696428D01*
X55246428Y-42739285D01*
X55246428Y-42846428D01*
X55267857Y-42889285D01*
X55289285Y-42910714D01*
X55332142Y-42932142D01*
X55417857Y-42932142D01*
X55460714Y-42910714D01*
X55482142Y-42889285D01*
X55503571Y-42846428D01*
X46467857Y-43103571D02*
X46467857Y-42653571D01*
X46575000Y-42653571D01*
X46639285Y-42675000D01*
X46682142Y-42717857D01*
X46703571Y-42760714D01*
X46725000Y-42846428D01*
X46725000Y-42910714D01*
X46703571Y-42996428D01*
X46682142Y-43039285D01*
X46639285Y-43082142D01*
X46575000Y-43103571D01*
X46467857Y-43103571D01*
X46982142Y-42846428D02*
X46939285Y-42825000D01*
X46917857Y-42803571D01*
X46896428Y-42760714D01*
X46896428Y-42739285D01*
X46917857Y-42696428D01*
X46939285Y-42675000D01*
X46982142Y-42653571D01*
X47067857Y-42653571D01*
X47110714Y-42675000D01*
X47132142Y-42696428D01*
X47153571Y-42739285D01*
X47153571Y-42760714D01*
X47132142Y-42803571D01*
X47110714Y-42825000D01*
X47067857Y-42846428D01*
X46982142Y-42846428D01*
X46939285Y-42867857D01*
X46917857Y-42889285D01*
X46896428Y-42932142D01*
X46896428Y-43017857D01*
X46917857Y-43060714D01*
X46939285Y-43082142D01*
X46982142Y-43103571D01*
X47067857Y-43103571D01*
X47110714Y-43082142D01*
X47132142Y-43060714D01*
X47153571Y-43017857D01*
X47153571Y-42932142D01*
X47132142Y-42889285D01*
X47110714Y-42867857D01*
X47067857Y-42846428D01*
X54817857Y-57303571D02*
X54817857Y-56853571D01*
X54925000Y-56853571D01*
X54989285Y-56875000D01*
X55032142Y-56917857D01*
X55053571Y-56960714D01*
X55075000Y-57046428D01*
X55075000Y-57110714D01*
X55053571Y-57196428D01*
X55032142Y-57239285D01*
X54989285Y-57282142D01*
X54925000Y-57303571D01*
X54817857Y-57303571D01*
X55460714Y-57003571D02*
X55460714Y-57303571D01*
X55353571Y-56832142D02*
X55246428Y-57153571D01*
X55525000Y-57153571D01*
X46367857Y-57303571D02*
X46367857Y-56853571D01*
X46475000Y-56853571D01*
X46539285Y-56875000D01*
X46582142Y-56917857D01*
X46603571Y-56960714D01*
X46625000Y-57046428D01*
X46625000Y-57110714D01*
X46603571Y-57196428D01*
X46582142Y-57239285D01*
X46539285Y-57282142D01*
X46475000Y-57303571D01*
X46367857Y-57303571D01*
X46775000Y-56853571D02*
X47053571Y-56853571D01*
X46903571Y-57025000D01*
X46967857Y-57025000D01*
X47010714Y-57046428D01*
X47032142Y-57067857D01*
X47053571Y-57110714D01*
X47053571Y-57217857D01*
X47032142Y-57260714D01*
X47010714Y-57282142D01*
X46967857Y-57303571D01*
X46839285Y-57303571D01*
X46796428Y-57282142D01*
X46775000Y-57260714D01*
X60210714Y-35460714D02*
X60189285Y-35482142D01*
X60125000Y-35503571D01*
X60082142Y-35503571D01*
X60017857Y-35482142D01*
X59975000Y-35439285D01*
X59953571Y-35396428D01*
X59932142Y-35310714D01*
X59932142Y-35246428D01*
X59953571Y-35160714D01*
X59975000Y-35117857D01*
X60017857Y-35075000D01*
X60082142Y-35053571D01*
X60125000Y-35053571D01*
X60189285Y-35075000D01*
X60210714Y-35096428D01*
X60596428Y-35203571D02*
X60596428Y-35503571D01*
X60489285Y-35032142D02*
X60382142Y-35353571D01*
X60660714Y-35353571D01*
X61046428Y-35053571D02*
X60832142Y-35053571D01*
X60810714Y-35267857D01*
X60832142Y-35246428D01*
X60875000Y-35225000D01*
X60982142Y-35225000D01*
X61025000Y-35246428D01*
X61046428Y-35267857D01*
X61067857Y-35310714D01*
X61067857Y-35417857D01*
X61046428Y-35460714D01*
X61025000Y-35482142D01*
X60982142Y-35503571D01*
X60875000Y-35503571D01*
X60832142Y-35482142D01*
X60810714Y-35460714D01*
X63681801Y-36259086D02*
X63651497Y-36259086D01*
X63590888Y-36228781D01*
X63560583Y-36198477D01*
X63530279Y-36137867D01*
X63530279Y-36077258D01*
X63545431Y-36031801D01*
X63590888Y-35956040D01*
X63636345Y-35910583D01*
X63712106Y-35865126D01*
X63757563Y-35849974D01*
X63818172Y-35849974D01*
X63878781Y-35880279D01*
X63909086Y-35910583D01*
X63939390Y-35971192D01*
X63939390Y-36001497D01*
X64136370Y-36350000D02*
X63924238Y-36562132D01*
X64181827Y-36153020D02*
X63878781Y-36304543D01*
X64075761Y-36501522D01*
X64439416Y-36653045D02*
X64227284Y-36865177D01*
X64484873Y-36456066D02*
X64181827Y-36607588D01*
X64378807Y-36804568D01*
X61810714Y-31560714D02*
X61789285Y-31582142D01*
X61725000Y-31603571D01*
X61682142Y-31603571D01*
X61617857Y-31582142D01*
X61575000Y-31539285D01*
X61553571Y-31496428D01*
X61532142Y-31410714D01*
X61532142Y-31346428D01*
X61553571Y-31260714D01*
X61575000Y-31217857D01*
X61617857Y-31175000D01*
X61682142Y-31153571D01*
X61725000Y-31153571D01*
X61789285Y-31175000D01*
X61810714Y-31196428D01*
X62196428Y-31303571D02*
X62196428Y-31603571D01*
X62089285Y-31132142D02*
X61982142Y-31453571D01*
X62260714Y-31453571D01*
X62410714Y-31196428D02*
X62432142Y-31175000D01*
X62475000Y-31153571D01*
X62582142Y-31153571D01*
X62625000Y-31175000D01*
X62646428Y-31196428D01*
X62667857Y-31239285D01*
X62667857Y-31282142D01*
X62646428Y-31346428D01*
X62389285Y-31603571D01*
X62667857Y-31603571D01*
X22210714Y-29110714D02*
X22189285Y-29132142D01*
X22125000Y-29153571D01*
X22082142Y-29153571D01*
X22017857Y-29132142D01*
X21975000Y-29089285D01*
X21953571Y-29046428D01*
X21932142Y-28960714D01*
X21932142Y-28896428D01*
X21953571Y-28810714D01*
X21975000Y-28767857D01*
X22017857Y-28725000D01*
X22082142Y-28703571D01*
X22125000Y-28703571D01*
X22189285Y-28725000D01*
X22210714Y-28746428D01*
X22596428Y-28853571D02*
X22596428Y-29153571D01*
X22489285Y-28682142D02*
X22382142Y-29003571D01*
X22660714Y-29003571D01*
X22917857Y-28703571D02*
X22960714Y-28703571D01*
X23003571Y-28725000D01*
X23025000Y-28746428D01*
X23046428Y-28789285D01*
X23067857Y-28875000D01*
X23067857Y-28982142D01*
X23046428Y-29067857D01*
X23025000Y-29110714D01*
X23003571Y-29132142D01*
X22960714Y-29153571D01*
X22917857Y-29153571D01*
X22875000Y-29132142D01*
X22853571Y-29110714D01*
X22832142Y-29067857D01*
X22810714Y-28982142D01*
X22810714Y-28875000D01*
X22832142Y-28789285D01*
X22853571Y-28746428D01*
X22875000Y-28725000D01*
X22917857Y-28703571D01*
X22210714Y-28510714D02*
X22189285Y-28532142D01*
X22125000Y-28553571D01*
X22082142Y-28553571D01*
X22017857Y-28532142D01*
X21975000Y-28489285D01*
X21953571Y-28446428D01*
X21932142Y-28360714D01*
X21932142Y-28296428D01*
X21953571Y-28210714D01*
X21975000Y-28167857D01*
X22017857Y-28125000D01*
X22082142Y-28103571D01*
X22125000Y-28103571D01*
X22189285Y-28125000D01*
X22210714Y-28146428D01*
X22360714Y-28103571D02*
X22639285Y-28103571D01*
X22489285Y-28275000D01*
X22553571Y-28275000D01*
X22596428Y-28296428D01*
X22617857Y-28317857D01*
X22639285Y-28360714D01*
X22639285Y-28467857D01*
X22617857Y-28510714D01*
X22596428Y-28532142D01*
X22553571Y-28553571D01*
X22425000Y-28553571D01*
X22382142Y-28532142D01*
X22360714Y-28510714D01*
X22853571Y-28553571D02*
X22939285Y-28553571D01*
X22982142Y-28532142D01*
X23003571Y-28510714D01*
X23046428Y-28446428D01*
X23067857Y-28360714D01*
X23067857Y-28189285D01*
X23046428Y-28146428D01*
X23025000Y-28125000D01*
X22982142Y-28103571D01*
X22896428Y-28103571D01*
X22853571Y-28125000D01*
X22832142Y-28146428D01*
X22810714Y-28189285D01*
X22810714Y-28296428D01*
X22832142Y-28339285D01*
X22853571Y-28360714D01*
X22896428Y-28382142D01*
X22982142Y-28382142D01*
X23025000Y-28360714D01*
X23046428Y-28339285D01*
X23067857Y-28296428D01*
X59310714Y-33910714D02*
X59289285Y-33932142D01*
X59225000Y-33953571D01*
X59182142Y-33953571D01*
X59117857Y-33932142D01*
X59075000Y-33889285D01*
X59053571Y-33846428D01*
X59032142Y-33760714D01*
X59032142Y-33696428D01*
X59053571Y-33610714D01*
X59075000Y-33567857D01*
X59117857Y-33525000D01*
X59182142Y-33503571D01*
X59225000Y-33503571D01*
X59289285Y-33525000D01*
X59310714Y-33546428D01*
X59460714Y-33503571D02*
X59739285Y-33503571D01*
X59589285Y-33675000D01*
X59653571Y-33675000D01*
X59696428Y-33696428D01*
X59717857Y-33717857D01*
X59739285Y-33760714D01*
X59739285Y-33867857D01*
X59717857Y-33910714D01*
X59696428Y-33932142D01*
X59653571Y-33953571D01*
X59525000Y-33953571D01*
X59482142Y-33932142D01*
X59460714Y-33910714D01*
X60167857Y-33953571D02*
X59910714Y-33953571D01*
X60039285Y-33953571D02*
X60039285Y-33503571D01*
X59996428Y-33567857D01*
X59953571Y-33610714D01*
X59910714Y-33632142D01*
X60360714Y-38560714D02*
X60339285Y-38582142D01*
X60275000Y-38603571D01*
X60232142Y-38603571D01*
X60167857Y-38582142D01*
X60125000Y-38539285D01*
X60103571Y-38496428D01*
X60082142Y-38410714D01*
X60082142Y-38346428D01*
X60103571Y-38260714D01*
X60125000Y-38217857D01*
X60167857Y-38175000D01*
X60232142Y-38153571D01*
X60275000Y-38153571D01*
X60339285Y-38175000D01*
X60360714Y-38196428D01*
X60510714Y-38153571D02*
X60789285Y-38153571D01*
X60639285Y-38325000D01*
X60703571Y-38325000D01*
X60746428Y-38346428D01*
X60767857Y-38367857D01*
X60789285Y-38410714D01*
X60789285Y-38517857D01*
X60767857Y-38560714D01*
X60746428Y-38582142D01*
X60703571Y-38603571D01*
X60575000Y-38603571D01*
X60532142Y-38582142D01*
X60510714Y-38560714D01*
X61067857Y-38153571D02*
X61110714Y-38153571D01*
X61153571Y-38175000D01*
X61175000Y-38196428D01*
X61196428Y-38239285D01*
X61217857Y-38325000D01*
X61217857Y-38432142D01*
X61196428Y-38517857D01*
X61175000Y-38560714D01*
X61153571Y-38582142D01*
X61110714Y-38603571D01*
X61067857Y-38603571D01*
X61025000Y-38582142D01*
X61003571Y-38560714D01*
X60982142Y-38517857D01*
X60960714Y-38432142D01*
X60960714Y-38325000D01*
X60982142Y-38239285D01*
X61003571Y-38196428D01*
X61025000Y-38175000D01*
X61067857Y-38153571D01*
X70360714Y-39060714D02*
X70339285Y-39082142D01*
X70275000Y-39103571D01*
X70232142Y-39103571D01*
X70167857Y-39082142D01*
X70125000Y-39039285D01*
X70103571Y-38996428D01*
X70082142Y-38910714D01*
X70082142Y-38846428D01*
X70103571Y-38760714D01*
X70125000Y-38717857D01*
X70167857Y-38675000D01*
X70232142Y-38653571D01*
X70275000Y-38653571D01*
X70339285Y-38675000D01*
X70360714Y-38696428D01*
X70532142Y-38696428D02*
X70553571Y-38675000D01*
X70596428Y-38653571D01*
X70703571Y-38653571D01*
X70746428Y-38675000D01*
X70767857Y-38696428D01*
X70789285Y-38739285D01*
X70789285Y-38782142D01*
X70767857Y-38846428D01*
X70510714Y-39103571D01*
X70789285Y-39103571D01*
X71003571Y-39103571D02*
X71089285Y-39103571D01*
X71132142Y-39082142D01*
X71153571Y-39060714D01*
X71196428Y-38996428D01*
X71217857Y-38910714D01*
X71217857Y-38739285D01*
X71196428Y-38696428D01*
X71175000Y-38675000D01*
X71132142Y-38653571D01*
X71046428Y-38653571D01*
X71003571Y-38675000D01*
X70982142Y-38696428D01*
X70960714Y-38739285D01*
X70960714Y-38846428D01*
X70982142Y-38889285D01*
X71003571Y-38910714D01*
X71046428Y-38932142D01*
X71132142Y-38932142D01*
X71175000Y-38910714D01*
X71196428Y-38889285D01*
X71217857Y-38846428D01*
X41610714Y-57460714D02*
X41589285Y-57482142D01*
X41525000Y-57503571D01*
X41482142Y-57503571D01*
X41417857Y-57482142D01*
X41375000Y-57439285D01*
X41353571Y-57396428D01*
X41332142Y-57310714D01*
X41332142Y-57246428D01*
X41353571Y-57160714D01*
X41375000Y-57117857D01*
X41417857Y-57075000D01*
X41482142Y-57053571D01*
X41525000Y-57053571D01*
X41589285Y-57075000D01*
X41610714Y-57096428D01*
X41782142Y-57096428D02*
X41803571Y-57075000D01*
X41846428Y-57053571D01*
X41953571Y-57053571D01*
X41996428Y-57075000D01*
X42017857Y-57096428D01*
X42039285Y-57139285D01*
X42039285Y-57182142D01*
X42017857Y-57246428D01*
X41760714Y-57503571D01*
X42039285Y-57503571D01*
X42317857Y-57053571D02*
X42360714Y-57053571D01*
X42403571Y-57075000D01*
X42425000Y-57096428D01*
X42446428Y-57139285D01*
X42467857Y-57225000D01*
X42467857Y-57332142D01*
X42446428Y-57417857D01*
X42425000Y-57460714D01*
X42403571Y-57482142D01*
X42360714Y-57503571D01*
X42317857Y-57503571D01*
X42275000Y-57482142D01*
X42253571Y-57460714D01*
X42232142Y-57417857D01*
X42210714Y-57332142D01*
X42210714Y-57225000D01*
X42232142Y-57139285D01*
X42253571Y-57096428D01*
X42275000Y-57075000D01*
X42317857Y-57053571D01*
X61960714Y-32210714D02*
X61939285Y-32232142D01*
X61875000Y-32253571D01*
X61832142Y-32253571D01*
X61767857Y-32232142D01*
X61725000Y-32189285D01*
X61703571Y-32146428D01*
X61682142Y-32060714D01*
X61682142Y-31996428D01*
X61703571Y-31910714D01*
X61725000Y-31867857D01*
X61767857Y-31825000D01*
X61832142Y-31803571D01*
X61875000Y-31803571D01*
X61939285Y-31825000D01*
X61960714Y-31846428D01*
X62389285Y-32253571D02*
X62132142Y-32253571D01*
X62260714Y-32253571D02*
X62260714Y-31803571D01*
X62217857Y-31867857D01*
X62175000Y-31910714D01*
X62132142Y-31932142D01*
X62603571Y-32253571D02*
X62689285Y-32253571D01*
X62732142Y-32232142D01*
X62753571Y-32210714D01*
X62796428Y-32146428D01*
X62817857Y-32060714D01*
X62817857Y-31889285D01*
X62796428Y-31846428D01*
X62775000Y-31825000D01*
X62732142Y-31803571D01*
X62646428Y-31803571D01*
X62603571Y-31825000D01*
X62582142Y-31846428D01*
X62560714Y-31889285D01*
X62560714Y-31996428D01*
X62582142Y-32039285D01*
X62603571Y-32060714D01*
X62646428Y-32082142D01*
X62732142Y-32082142D01*
X62775000Y-32060714D01*
X62796428Y-32039285D01*
X62817857Y-31996428D01*
X48210714Y-33860714D02*
X48189285Y-33882142D01*
X48125000Y-33903571D01*
X48082142Y-33903571D01*
X48017857Y-33882142D01*
X47975000Y-33839285D01*
X47953571Y-33796428D01*
X47932142Y-33710714D01*
X47932142Y-33646428D01*
X47953571Y-33560714D01*
X47975000Y-33517857D01*
X48017857Y-33475000D01*
X48082142Y-33453571D01*
X48125000Y-33453571D01*
X48189285Y-33475000D01*
X48210714Y-33496428D01*
X48639285Y-33903571D02*
X48382142Y-33903571D01*
X48510714Y-33903571D02*
X48510714Y-33453571D01*
X48467857Y-33517857D01*
X48425000Y-33560714D01*
X48382142Y-33582142D01*
X48810714Y-33496428D02*
X48832142Y-33475000D01*
X48875000Y-33453571D01*
X48982142Y-33453571D01*
X49025000Y-33475000D01*
X49046428Y-33496428D01*
X49067857Y-33539285D01*
X49067857Y-33582142D01*
X49046428Y-33646428D01*
X48789285Y-33903571D01*
X49067857Y-33903571D01*
X48610714Y-47710714D02*
X48589285Y-47732142D01*
X48525000Y-47753571D01*
X48482142Y-47753571D01*
X48417857Y-47732142D01*
X48375000Y-47689285D01*
X48353571Y-47646428D01*
X48332142Y-47560714D01*
X48332142Y-47496428D01*
X48353571Y-47410714D01*
X48375000Y-47367857D01*
X48417857Y-47325000D01*
X48482142Y-47303571D01*
X48525000Y-47303571D01*
X48589285Y-47325000D01*
X48610714Y-47346428D01*
X49039285Y-47753571D02*
X48782142Y-47753571D01*
X48910714Y-47753571D02*
X48910714Y-47303571D01*
X48867857Y-47367857D01*
X48825000Y-47410714D01*
X48782142Y-47432142D01*
X49467857Y-47753571D02*
X49210714Y-47753571D01*
X49339285Y-47753571D02*
X49339285Y-47303571D01*
X49296428Y-47367857D01*
X49253571Y-47410714D01*
X49210714Y-47432142D01*
X62425000Y-30910714D02*
X62403571Y-30932142D01*
X62339285Y-30953571D01*
X62296428Y-30953571D01*
X62232142Y-30932142D01*
X62189285Y-30889285D01*
X62167857Y-30846428D01*
X62146428Y-30760714D01*
X62146428Y-30696428D01*
X62167857Y-30610714D01*
X62189285Y-30567857D01*
X62232142Y-30525000D01*
X62296428Y-30503571D01*
X62339285Y-30503571D01*
X62403571Y-30525000D01*
X62425000Y-30546428D01*
X62832142Y-30503571D02*
X62617857Y-30503571D01*
X62596428Y-30717857D01*
X62617857Y-30696428D01*
X62660714Y-30675000D01*
X62767857Y-30675000D01*
X62810714Y-30696428D01*
X62832142Y-30717857D01*
X62853571Y-30760714D01*
X62853571Y-30867857D01*
X62832142Y-30910714D01*
X62810714Y-30932142D01*
X62767857Y-30953571D01*
X62660714Y-30953571D01*
X62617857Y-30932142D01*
X62596428Y-30910714D01*
X65925000Y-25910714D02*
X65903571Y-25932142D01*
X65839285Y-25953571D01*
X65796428Y-25953571D01*
X65732142Y-25932142D01*
X65689285Y-25889285D01*
X65667857Y-25846428D01*
X65646428Y-25760714D01*
X65646428Y-25696428D01*
X65667857Y-25610714D01*
X65689285Y-25567857D01*
X65732142Y-25525000D01*
X65796428Y-25503571D01*
X65839285Y-25503571D01*
X65903571Y-25525000D01*
X65925000Y-25546428D01*
X66310714Y-25653571D02*
X66310714Y-25953571D01*
X66203571Y-25482142D02*
X66096428Y-25803571D01*
X66375000Y-25803571D01*
X46625000Y-59210714D02*
X46603571Y-59232142D01*
X46539285Y-59253571D01*
X46496428Y-59253571D01*
X46432142Y-59232142D01*
X46389285Y-59189285D01*
X46367857Y-59146428D01*
X46346428Y-59060714D01*
X46346428Y-58996428D01*
X46367857Y-58910714D01*
X46389285Y-58867857D01*
X46432142Y-58825000D01*
X46496428Y-58803571D01*
X46539285Y-58803571D01*
X46603571Y-58825000D01*
X46625000Y-58846428D01*
X47053571Y-59253571D02*
X46796428Y-59253571D01*
X46925000Y-59253571D02*
X46925000Y-58803571D01*
X46882142Y-58867857D01*
X46839285Y-58910714D01*
X46796428Y-58932142D01*
X77960714Y-28160714D02*
X77939285Y-28182142D01*
X77875000Y-28203571D01*
X77832142Y-28203571D01*
X77767857Y-28182142D01*
X77725000Y-28139285D01*
X77703571Y-28096428D01*
X77682142Y-28010714D01*
X77682142Y-27946428D01*
X77703571Y-27860714D01*
X77725000Y-27817857D01*
X77767857Y-27775000D01*
X77832142Y-27753571D01*
X77875000Y-27753571D01*
X77939285Y-27775000D01*
X77960714Y-27796428D01*
X78367857Y-27753571D02*
X78153571Y-27753571D01*
X78132142Y-27967857D01*
X78153571Y-27946428D01*
X78196428Y-27925000D01*
X78303571Y-27925000D01*
X78346428Y-27946428D01*
X78367857Y-27967857D01*
X78389285Y-28010714D01*
X78389285Y-28117857D01*
X78367857Y-28160714D01*
X78346428Y-28182142D01*
X78303571Y-28203571D01*
X78196428Y-28203571D01*
X78153571Y-28182142D01*
X78132142Y-28160714D01*
X78796428Y-27753571D02*
X78582142Y-27753571D01*
X78560714Y-27967857D01*
X78582142Y-27946428D01*
X78625000Y-27925000D01*
X78732142Y-27925000D01*
X78775000Y-27946428D01*
X78796428Y-27967857D01*
X78817857Y-28010714D01*
X78817857Y-28117857D01*
X78796428Y-28160714D01*
X78775000Y-28182142D01*
X78732142Y-28203571D01*
X78625000Y-28203571D01*
X78582142Y-28182142D01*
X78560714Y-28160714D01*
X28160714Y-29510714D02*
X28139285Y-29532142D01*
X28075000Y-29553571D01*
X28032142Y-29553571D01*
X27967857Y-29532142D01*
X27925000Y-29489285D01*
X27903571Y-29446428D01*
X27882142Y-29360714D01*
X27882142Y-29296428D01*
X27903571Y-29210714D01*
X27925000Y-29167857D01*
X27967857Y-29125000D01*
X28032142Y-29103571D01*
X28075000Y-29103571D01*
X28139285Y-29125000D01*
X28160714Y-29146428D01*
X28567857Y-29103571D02*
X28353571Y-29103571D01*
X28332142Y-29317857D01*
X28353571Y-29296428D01*
X28396428Y-29275000D01*
X28503571Y-29275000D01*
X28546428Y-29296428D01*
X28567857Y-29317857D01*
X28589285Y-29360714D01*
X28589285Y-29467857D01*
X28567857Y-29510714D01*
X28546428Y-29532142D01*
X28503571Y-29553571D01*
X28396428Y-29553571D01*
X28353571Y-29532142D01*
X28332142Y-29510714D01*
X28975000Y-29253571D02*
X28975000Y-29553571D01*
X28867857Y-29082142D02*
X28760714Y-29403571D01*
X29039285Y-29403571D01*
X63760714Y-58510714D02*
X63739285Y-58532142D01*
X63675000Y-58553571D01*
X63632142Y-58553571D01*
X63567857Y-58532142D01*
X63525000Y-58489285D01*
X63503571Y-58446428D01*
X63482142Y-58360714D01*
X63482142Y-58296428D01*
X63503571Y-58210714D01*
X63525000Y-58167857D01*
X63567857Y-58125000D01*
X63632142Y-58103571D01*
X63675000Y-58103571D01*
X63739285Y-58125000D01*
X63760714Y-58146428D01*
X63910714Y-58103571D02*
X64189285Y-58103571D01*
X64039285Y-58275000D01*
X64103571Y-58275000D01*
X64146428Y-58296428D01*
X64167857Y-58317857D01*
X64189285Y-58360714D01*
X64189285Y-58467857D01*
X64167857Y-58510714D01*
X64146428Y-58532142D01*
X64103571Y-58553571D01*
X63975000Y-58553571D01*
X63932142Y-58532142D01*
X63910714Y-58510714D01*
X64575000Y-58253571D02*
X64575000Y-58553571D01*
X64467857Y-58082142D02*
X64360714Y-58403571D01*
X64639285Y-58403571D01*
X68807142Y-28053571D02*
X68807142Y-28417857D01*
X68828571Y-28460714D01*
X68850000Y-28482142D01*
X68892857Y-28503571D01*
X68978571Y-28503571D01*
X69021428Y-28482142D01*
X69042857Y-28460714D01*
X69064285Y-28417857D01*
X69064285Y-28053571D01*
X69514285Y-28503571D02*
X69257142Y-28503571D01*
X69385714Y-28503571D02*
X69385714Y-28053571D01*
X69342857Y-28117857D01*
X69300000Y-28160714D01*
X69257142Y-28182142D01*
X26967857Y-60803571D02*
X26967857Y-60353571D01*
X27075000Y-60353571D01*
X27139285Y-60375000D01*
X27182142Y-60417857D01*
X27203571Y-60460714D01*
X27225000Y-60546428D01*
X27225000Y-60610714D01*
X27203571Y-60696428D01*
X27182142Y-60739285D01*
X27139285Y-60782142D01*
X27075000Y-60803571D01*
X26967857Y-60803571D01*
X27653571Y-60803571D02*
X27396428Y-60803571D01*
X27525000Y-60803571D02*
X27525000Y-60353571D01*
X27482142Y-60417857D01*
X27439285Y-60460714D01*
X27396428Y-60482142D01*
X40110714Y-48853571D02*
X39960714Y-48639285D01*
X39853571Y-48853571D02*
X39853571Y-48403571D01*
X40025000Y-48403571D01*
X40067857Y-48425000D01*
X40089285Y-48446428D01*
X40110714Y-48489285D01*
X40110714Y-48553571D01*
X40089285Y-48596428D01*
X40067857Y-48617857D01*
X40025000Y-48639285D01*
X39853571Y-48639285D01*
X40517857Y-48403571D02*
X40303571Y-48403571D01*
X40282142Y-48617857D01*
X40303571Y-48596428D01*
X40346428Y-48575000D01*
X40453571Y-48575000D01*
X40496428Y-48596428D01*
X40517857Y-48617857D01*
X40539285Y-48660714D01*
X40539285Y-48767857D01*
X40517857Y-48810714D01*
X40496428Y-48832142D01*
X40453571Y-48853571D01*
X40346428Y-48853571D01*
X40303571Y-48832142D01*
X40282142Y-48810714D01*
X40817857Y-48403571D02*
X40860714Y-48403571D01*
X40903571Y-48425000D01*
X40925000Y-48446428D01*
X40946428Y-48489285D01*
X40967857Y-48575000D01*
X40967857Y-48682142D01*
X40946428Y-48767857D01*
X40925000Y-48810714D01*
X40903571Y-48832142D01*
X40860714Y-48853571D01*
X40817857Y-48853571D01*
X40775000Y-48832142D01*
X40753571Y-48810714D01*
X40732142Y-48767857D01*
X40710714Y-48682142D01*
X40710714Y-48575000D01*
X40732142Y-48489285D01*
X40753571Y-48446428D01*
X40775000Y-48425000D01*
X40817857Y-48403571D01*
X29803571Y-38599285D02*
X29589285Y-38749285D01*
X29803571Y-38856428D02*
X29353571Y-38856428D01*
X29353571Y-38685000D01*
X29375000Y-38642142D01*
X29396428Y-38620714D01*
X29439285Y-38599285D01*
X29503571Y-38599285D01*
X29546428Y-38620714D01*
X29567857Y-38642142D01*
X29589285Y-38685000D01*
X29589285Y-38856428D01*
X29503571Y-38213571D02*
X29803571Y-38213571D01*
X29332142Y-38320714D02*
X29653571Y-38427857D01*
X29653571Y-38149285D01*
X29803571Y-37956428D02*
X29803571Y-37870714D01*
X29782142Y-37827857D01*
X29760714Y-37806428D01*
X29696428Y-37763571D01*
X29610714Y-37742142D01*
X29439285Y-37742142D01*
X29396428Y-37763571D01*
X29375000Y-37785000D01*
X29353571Y-37827857D01*
X29353571Y-37913571D01*
X29375000Y-37956428D01*
X29396428Y-37977857D01*
X29439285Y-37999285D01*
X29546428Y-37999285D01*
X29589285Y-37977857D01*
X29610714Y-37956428D01*
X29632142Y-37913571D01*
X29632142Y-37827857D01*
X29610714Y-37785000D01*
X29589285Y-37763571D01*
X29546428Y-37742142D01*
X29833571Y-39869285D02*
X29619285Y-40019285D01*
X29833571Y-40126428D02*
X29383571Y-40126428D01*
X29383571Y-39955000D01*
X29405000Y-39912142D01*
X29426428Y-39890714D01*
X29469285Y-39869285D01*
X29533571Y-39869285D01*
X29576428Y-39890714D01*
X29597857Y-39912142D01*
X29619285Y-39955000D01*
X29619285Y-40126428D01*
X29533571Y-39483571D02*
X29833571Y-39483571D01*
X29362142Y-39590714D02*
X29683571Y-39697857D01*
X29683571Y-39419285D01*
X29576428Y-39183571D02*
X29555000Y-39226428D01*
X29533571Y-39247857D01*
X29490714Y-39269285D01*
X29469285Y-39269285D01*
X29426428Y-39247857D01*
X29405000Y-39226428D01*
X29383571Y-39183571D01*
X29383571Y-39097857D01*
X29405000Y-39055000D01*
X29426428Y-39033571D01*
X29469285Y-39012142D01*
X29490714Y-39012142D01*
X29533571Y-39033571D01*
X29555000Y-39055000D01*
X29576428Y-39097857D01*
X29576428Y-39183571D01*
X29597857Y-39226428D01*
X29619285Y-39247857D01*
X29662142Y-39269285D01*
X29747857Y-39269285D01*
X29790714Y-39247857D01*
X29812142Y-39226428D01*
X29833571Y-39183571D01*
X29833571Y-39097857D01*
X29812142Y-39055000D01*
X29790714Y-39033571D01*
X29747857Y-39012142D01*
X29662142Y-39012142D01*
X29619285Y-39033571D01*
X29597857Y-39055000D01*
X29576428Y-39097857D01*
X29833571Y-41099285D02*
X29619285Y-41249285D01*
X29833571Y-41356428D02*
X29383571Y-41356428D01*
X29383571Y-41185000D01*
X29405000Y-41142142D01*
X29426428Y-41120714D01*
X29469285Y-41099285D01*
X29533571Y-41099285D01*
X29576428Y-41120714D01*
X29597857Y-41142142D01*
X29619285Y-41185000D01*
X29619285Y-41356428D01*
X29533571Y-40713571D02*
X29833571Y-40713571D01*
X29362142Y-40820714D02*
X29683571Y-40927857D01*
X29683571Y-40649285D01*
X29383571Y-40520714D02*
X29383571Y-40220714D01*
X29833571Y-40413571D01*
X22710714Y-65003571D02*
X22560714Y-64789285D01*
X22453571Y-65003571D02*
X22453571Y-64553571D01*
X22625000Y-64553571D01*
X22667857Y-64575000D01*
X22689285Y-64596428D01*
X22710714Y-64639285D01*
X22710714Y-64703571D01*
X22689285Y-64746428D01*
X22667857Y-64767857D01*
X22625000Y-64789285D01*
X22453571Y-64789285D01*
X23096428Y-64703571D02*
X23096428Y-65003571D01*
X22989285Y-64532142D02*
X22882142Y-64853571D01*
X23160714Y-64853571D01*
X23525000Y-64703571D02*
X23525000Y-65003571D01*
X23417857Y-64532142D02*
X23310714Y-64853571D01*
X23589285Y-64853571D01*
X28373571Y-37216428D02*
X27923571Y-37216428D01*
X27923571Y-37109285D01*
X27945000Y-37045000D01*
X27987857Y-37002142D01*
X28030714Y-36980714D01*
X28116428Y-36959285D01*
X28180714Y-36959285D01*
X28266428Y-36980714D01*
X28309285Y-37002142D01*
X28352142Y-37045000D01*
X28373571Y-37109285D01*
X28373571Y-37216428D01*
X28373571Y-36530714D02*
X28373571Y-36787857D01*
X28373571Y-36659285D02*
X27923571Y-36659285D01*
X27987857Y-36702142D01*
X28030714Y-36745000D01*
X28052142Y-36787857D01*
X28373571Y-36316428D02*
X28373571Y-36230714D01*
X28352142Y-36187857D01*
X28330714Y-36166428D01*
X28266428Y-36123571D01*
X28180714Y-36102142D01*
X28009285Y-36102142D01*
X27966428Y-36123571D01*
X27945000Y-36145000D01*
X27923571Y-36187857D01*
X27923571Y-36273571D01*
X27945000Y-36316428D01*
X27966428Y-36337857D01*
X28009285Y-36359285D01*
X28116428Y-36359285D01*
X28159285Y-36337857D01*
X28180714Y-36316428D01*
X28202142Y-36273571D01*
X28202142Y-36187857D01*
X28180714Y-36145000D01*
X28159285Y-36123571D01*
X28116428Y-36102142D01*
X28383571Y-38656428D02*
X27933571Y-38656428D01*
X27933571Y-38549285D01*
X27955000Y-38485000D01*
X27997857Y-38442142D01*
X28040714Y-38420714D01*
X28126428Y-38399285D01*
X28190714Y-38399285D01*
X28276428Y-38420714D01*
X28319285Y-38442142D01*
X28362142Y-38485000D01*
X28383571Y-38549285D01*
X28383571Y-38656428D01*
X28383571Y-37970714D02*
X28383571Y-38227857D01*
X28383571Y-38099285D02*
X27933571Y-38099285D01*
X27997857Y-38142142D01*
X28040714Y-38185000D01*
X28062142Y-38227857D01*
X28126428Y-37713571D02*
X28105000Y-37756428D01*
X28083571Y-37777857D01*
X28040714Y-37799285D01*
X28019285Y-37799285D01*
X27976428Y-37777857D01*
X27955000Y-37756428D01*
X27933571Y-37713571D01*
X27933571Y-37627857D01*
X27955000Y-37585000D01*
X27976428Y-37563571D01*
X28019285Y-37542142D01*
X28040714Y-37542142D01*
X28083571Y-37563571D01*
X28105000Y-37585000D01*
X28126428Y-37627857D01*
X28126428Y-37713571D01*
X28147857Y-37756428D01*
X28169285Y-37777857D01*
X28212142Y-37799285D01*
X28297857Y-37799285D01*
X28340714Y-37777857D01*
X28362142Y-37756428D01*
X28383571Y-37713571D01*
X28383571Y-37627857D01*
X28362142Y-37585000D01*
X28340714Y-37563571D01*
X28297857Y-37542142D01*
X28212142Y-37542142D01*
X28169285Y-37563571D01*
X28147857Y-37585000D01*
X28126428Y-37627857D01*
X28383571Y-40026428D02*
X27933571Y-40026428D01*
X27933571Y-39919285D01*
X27955000Y-39855000D01*
X27997857Y-39812142D01*
X28040714Y-39790714D01*
X28126428Y-39769285D01*
X28190714Y-39769285D01*
X28276428Y-39790714D01*
X28319285Y-39812142D01*
X28362142Y-39855000D01*
X28383571Y-39919285D01*
X28383571Y-40026428D01*
X28383571Y-39340714D02*
X28383571Y-39597857D01*
X28383571Y-39469285D02*
X27933571Y-39469285D01*
X27997857Y-39512142D01*
X28040714Y-39555000D01*
X28062142Y-39597857D01*
X27933571Y-38955000D02*
X27933571Y-39040714D01*
X27955000Y-39083571D01*
X27976428Y-39105000D01*
X28040714Y-39147857D01*
X28126428Y-39169285D01*
X28297857Y-39169285D01*
X28340714Y-39147857D01*
X28362142Y-39126428D01*
X28383571Y-39083571D01*
X28383571Y-38997857D01*
X28362142Y-38955000D01*
X28340714Y-38933571D01*
X28297857Y-38912142D01*
X28190714Y-38912142D01*
X28147857Y-38933571D01*
X28126428Y-38955000D01*
X28105000Y-38997857D01*
X28105000Y-39083571D01*
X28126428Y-39126428D01*
X28147857Y-39147857D01*
X28190714Y-39169285D01*
X37860714Y-48810714D02*
X37839285Y-48832142D01*
X37775000Y-48853571D01*
X37732142Y-48853571D01*
X37667857Y-48832142D01*
X37625000Y-48789285D01*
X37603571Y-48746428D01*
X37582142Y-48660714D01*
X37582142Y-48596428D01*
X37603571Y-48510714D01*
X37625000Y-48467857D01*
X37667857Y-48425000D01*
X37732142Y-48403571D01*
X37775000Y-48403571D01*
X37839285Y-48425000D01*
X37860714Y-48446428D01*
X38267857Y-48403571D02*
X38053571Y-48403571D01*
X38032142Y-48617857D01*
X38053571Y-48596428D01*
X38096428Y-48575000D01*
X38203571Y-48575000D01*
X38246428Y-48596428D01*
X38267857Y-48617857D01*
X38289285Y-48660714D01*
X38289285Y-48767857D01*
X38267857Y-48810714D01*
X38246428Y-48832142D01*
X38203571Y-48853571D01*
X38096428Y-48853571D01*
X38053571Y-48832142D01*
X38032142Y-48810714D01*
X38439285Y-48403571D02*
X38717857Y-48403571D01*
X38567857Y-48575000D01*
X38632142Y-48575000D01*
X38675000Y-48596428D01*
X38696428Y-48617857D01*
X38717857Y-48660714D01*
X38717857Y-48767857D01*
X38696428Y-48810714D01*
X38675000Y-48832142D01*
X38632142Y-48853571D01*
X38503571Y-48853571D01*
X38460714Y-48832142D01*
X38439285Y-48810714D01*
X67135714Y-27870714D02*
X67114285Y-27892142D01*
X67050000Y-27913571D01*
X67007142Y-27913571D01*
X66942857Y-27892142D01*
X66900000Y-27849285D01*
X66878571Y-27806428D01*
X66857142Y-27720714D01*
X66857142Y-27656428D01*
X66878571Y-27570714D01*
X66900000Y-27527857D01*
X66942857Y-27485000D01*
X67007142Y-27463571D01*
X67050000Y-27463571D01*
X67114285Y-27485000D01*
X67135714Y-27506428D01*
X67307142Y-27506428D02*
X67328571Y-27485000D01*
X67371428Y-27463571D01*
X67478571Y-27463571D01*
X67521428Y-27485000D01*
X67542857Y-27506428D01*
X67564285Y-27549285D01*
X67564285Y-27592142D01*
X67542857Y-27656428D01*
X67285714Y-27913571D01*
X67564285Y-27913571D01*
X67950000Y-27613571D02*
X67950000Y-27913571D01*
X67842857Y-27442142D02*
X67735714Y-27763571D01*
X68014285Y-27763571D01*
X49740714Y-34553571D02*
X49590714Y-34339285D01*
X49483571Y-34553571D02*
X49483571Y-34103571D01*
X49655000Y-34103571D01*
X49697857Y-34125000D01*
X49719285Y-34146428D01*
X49740714Y-34189285D01*
X49740714Y-34253571D01*
X49719285Y-34296428D01*
X49697857Y-34317857D01*
X49655000Y-34339285D01*
X49483571Y-34339285D01*
X50126428Y-34253571D02*
X50126428Y-34553571D01*
X50019285Y-34082142D02*
X49912142Y-34403571D01*
X50190714Y-34403571D01*
X50319285Y-34103571D02*
X50597857Y-34103571D01*
X50447857Y-34275000D01*
X50512142Y-34275000D01*
X50555000Y-34296428D01*
X50576428Y-34317857D01*
X50597857Y-34360714D01*
X50597857Y-34467857D01*
X50576428Y-34510714D01*
X50555000Y-34532142D01*
X50512142Y-34553571D01*
X50383571Y-34553571D01*
X50340714Y-34532142D01*
X50319285Y-34510714D01*
X51260714Y-50503571D02*
X51110714Y-50289285D01*
X51003571Y-50503571D02*
X51003571Y-50053571D01*
X51175000Y-50053571D01*
X51217857Y-50075000D01*
X51239285Y-50096428D01*
X51260714Y-50139285D01*
X51260714Y-50203571D01*
X51239285Y-50246428D01*
X51217857Y-50267857D01*
X51175000Y-50289285D01*
X51003571Y-50289285D01*
X51432142Y-50096428D02*
X51453571Y-50075000D01*
X51496428Y-50053571D01*
X51603571Y-50053571D01*
X51646428Y-50075000D01*
X51667857Y-50096428D01*
X51689285Y-50139285D01*
X51689285Y-50182142D01*
X51667857Y-50246428D01*
X51410714Y-50503571D01*
X51689285Y-50503571D01*
X51860714Y-50096428D02*
X51882142Y-50075000D01*
X51925000Y-50053571D01*
X52032142Y-50053571D01*
X52075000Y-50075000D01*
X52096428Y-50096428D01*
X52117857Y-50139285D01*
X52117857Y-50182142D01*
X52096428Y-50246428D01*
X51839285Y-50503571D01*
X52117857Y-50503571D01*
X47500714Y-66183571D02*
X47350714Y-65969285D01*
X47243571Y-66183571D02*
X47243571Y-65733571D01*
X47415000Y-65733571D01*
X47457857Y-65755000D01*
X47479285Y-65776428D01*
X47500714Y-65819285D01*
X47500714Y-65883571D01*
X47479285Y-65926428D01*
X47457857Y-65947857D01*
X47415000Y-65969285D01*
X47243571Y-65969285D01*
X47929285Y-66183571D02*
X47672142Y-66183571D01*
X47800714Y-66183571D02*
X47800714Y-65733571D01*
X47757857Y-65797857D01*
X47715000Y-65840714D01*
X47672142Y-65862142D01*
X48186428Y-65926428D02*
X48143571Y-65905000D01*
X48122142Y-65883571D01*
X48100714Y-65840714D01*
X48100714Y-65819285D01*
X48122142Y-65776428D01*
X48143571Y-65755000D01*
X48186428Y-65733571D01*
X48272142Y-65733571D01*
X48315000Y-65755000D01*
X48336428Y-65776428D01*
X48357857Y-65819285D01*
X48357857Y-65840714D01*
X48336428Y-65883571D01*
X48315000Y-65905000D01*
X48272142Y-65926428D01*
X48186428Y-65926428D01*
X48143571Y-65947857D01*
X48122142Y-65969285D01*
X48100714Y-66012142D01*
X48100714Y-66097857D01*
X48122142Y-66140714D01*
X48143571Y-66162142D01*
X48186428Y-66183571D01*
X48272142Y-66183571D01*
X48315000Y-66162142D01*
X48336428Y-66140714D01*
X48357857Y-66097857D01*
X48357857Y-66012142D01*
X48336428Y-65969285D01*
X48315000Y-65947857D01*
X48272142Y-65926428D01*
X46960714Y-35410714D02*
X46939285Y-35432142D01*
X46875000Y-35453571D01*
X46832142Y-35453571D01*
X46767857Y-35432142D01*
X46725000Y-35389285D01*
X46703571Y-35346428D01*
X46682142Y-35260714D01*
X46682142Y-35196428D01*
X46703571Y-35110714D01*
X46725000Y-35067857D01*
X46767857Y-35025000D01*
X46832142Y-35003571D01*
X46875000Y-35003571D01*
X46939285Y-35025000D01*
X46960714Y-35046428D01*
X47367857Y-35003571D02*
X47153571Y-35003571D01*
X47132142Y-35217857D01*
X47153571Y-35196428D01*
X47196428Y-35175000D01*
X47303571Y-35175000D01*
X47346428Y-35196428D01*
X47367857Y-35217857D01*
X47389285Y-35260714D01*
X47389285Y-35367857D01*
X47367857Y-35410714D01*
X47346428Y-35432142D01*
X47303571Y-35453571D01*
X47196428Y-35453571D01*
X47153571Y-35432142D01*
X47132142Y-35410714D01*
X47560714Y-35046428D02*
X47582142Y-35025000D01*
X47625000Y-35003571D01*
X47732142Y-35003571D01*
X47775000Y-35025000D01*
X47796428Y-35046428D01*
X47817857Y-35089285D01*
X47817857Y-35132142D01*
X47796428Y-35196428D01*
X47539285Y-35453571D01*
X47817857Y-35453571D01*
X47410714Y-49510714D02*
X47389285Y-49532142D01*
X47325000Y-49553571D01*
X47282142Y-49553571D01*
X47217857Y-49532142D01*
X47175000Y-49489285D01*
X47153571Y-49446428D01*
X47132142Y-49360714D01*
X47132142Y-49296428D01*
X47153571Y-49210714D01*
X47175000Y-49167857D01*
X47217857Y-49125000D01*
X47282142Y-49103571D01*
X47325000Y-49103571D01*
X47389285Y-49125000D01*
X47410714Y-49146428D01*
X47817857Y-49103571D02*
X47603571Y-49103571D01*
X47582142Y-49317857D01*
X47603571Y-49296428D01*
X47646428Y-49275000D01*
X47753571Y-49275000D01*
X47796428Y-49296428D01*
X47817857Y-49317857D01*
X47839285Y-49360714D01*
X47839285Y-49467857D01*
X47817857Y-49510714D01*
X47796428Y-49532142D01*
X47753571Y-49553571D01*
X47646428Y-49553571D01*
X47603571Y-49532142D01*
X47582142Y-49510714D01*
X48267857Y-49553571D02*
X48010714Y-49553571D01*
X48139285Y-49553571D02*
X48139285Y-49103571D01*
X48096428Y-49167857D01*
X48053571Y-49210714D01*
X48010714Y-49232142D01*
X45010714Y-66160714D02*
X44989285Y-66182142D01*
X44925000Y-66203571D01*
X44882142Y-66203571D01*
X44817857Y-66182142D01*
X44775000Y-66139285D01*
X44753571Y-66096428D01*
X44732142Y-66010714D01*
X44732142Y-65946428D01*
X44753571Y-65860714D01*
X44775000Y-65817857D01*
X44817857Y-65775000D01*
X44882142Y-65753571D01*
X44925000Y-65753571D01*
X44989285Y-65775000D01*
X45010714Y-65796428D01*
X45417857Y-65753571D02*
X45203571Y-65753571D01*
X45182142Y-65967857D01*
X45203571Y-65946428D01*
X45246428Y-65925000D01*
X45353571Y-65925000D01*
X45396428Y-65946428D01*
X45417857Y-65967857D01*
X45439285Y-66010714D01*
X45439285Y-66117857D01*
X45417857Y-66160714D01*
X45396428Y-66182142D01*
X45353571Y-66203571D01*
X45246428Y-66203571D01*
X45203571Y-66182142D01*
X45182142Y-66160714D01*
X45717857Y-65753571D02*
X45760714Y-65753571D01*
X45803571Y-65775000D01*
X45825000Y-65796428D01*
X45846428Y-65839285D01*
X45867857Y-65925000D01*
X45867857Y-66032142D01*
X45846428Y-66117857D01*
X45825000Y-66160714D01*
X45803571Y-66182142D01*
X45760714Y-66203571D01*
X45717857Y-66203571D01*
X45675000Y-66182142D01*
X45653571Y-66160714D01*
X45632142Y-66117857D01*
X45610714Y-66032142D01*
X45610714Y-65925000D01*
X45632142Y-65839285D01*
X45653571Y-65796428D01*
X45675000Y-65775000D01*
X45717857Y-65753571D01*
X61785714Y-26639285D02*
X61785714Y-26853571D01*
X61635714Y-26403571D02*
X61785714Y-26639285D01*
X61935714Y-26403571D01*
X62321428Y-26853571D02*
X62064285Y-26853571D01*
X62192857Y-26853571D02*
X62192857Y-26403571D01*
X62150000Y-26467857D01*
X62107142Y-26510714D01*
X62064285Y-26532142D01*
X53060714Y-37260714D02*
X53039285Y-37282142D01*
X52975000Y-37303571D01*
X52932142Y-37303571D01*
X52867857Y-37282142D01*
X52825000Y-37239285D01*
X52803571Y-37196428D01*
X52782142Y-37110714D01*
X52782142Y-37046428D01*
X52803571Y-36960714D01*
X52825000Y-36917857D01*
X52867857Y-36875000D01*
X52932142Y-36853571D01*
X52975000Y-36853571D01*
X53039285Y-36875000D01*
X53060714Y-36896428D01*
X53446428Y-37003571D02*
X53446428Y-37303571D01*
X53339285Y-36832142D02*
X53232142Y-37153571D01*
X53510714Y-37153571D01*
X53703571Y-37303571D02*
X53789285Y-37303571D01*
X53832142Y-37282142D01*
X53853571Y-37260714D01*
X53896428Y-37196428D01*
X53917857Y-37110714D01*
X53917857Y-36939285D01*
X53896428Y-36896428D01*
X53875000Y-36875000D01*
X53832142Y-36853571D01*
X53746428Y-36853571D01*
X53703571Y-36875000D01*
X53682142Y-36896428D01*
X53660714Y-36939285D01*
X53660714Y-37046428D01*
X53682142Y-37089285D01*
X53703571Y-37110714D01*
X53746428Y-37132142D01*
X53832142Y-37132142D01*
X53875000Y-37110714D01*
X53896428Y-37089285D01*
X53917857Y-37046428D01*
X50960714Y-66360714D02*
X50939285Y-66382142D01*
X50875000Y-66403571D01*
X50832142Y-66403571D01*
X50767857Y-66382142D01*
X50725000Y-66339285D01*
X50703571Y-66296428D01*
X50682142Y-66210714D01*
X50682142Y-66146428D01*
X50703571Y-66060714D01*
X50725000Y-66017857D01*
X50767857Y-65975000D01*
X50832142Y-65953571D01*
X50875000Y-65953571D01*
X50939285Y-65975000D01*
X50960714Y-65996428D01*
X51346428Y-66103571D02*
X51346428Y-66403571D01*
X51239285Y-65932142D02*
X51132142Y-66253571D01*
X51410714Y-66253571D01*
X51646428Y-66146428D02*
X51603571Y-66125000D01*
X51582142Y-66103571D01*
X51560714Y-66060714D01*
X51560714Y-66039285D01*
X51582142Y-65996428D01*
X51603571Y-65975000D01*
X51646428Y-65953571D01*
X51732142Y-65953571D01*
X51775000Y-65975000D01*
X51796428Y-65996428D01*
X51817857Y-66039285D01*
X51817857Y-66060714D01*
X51796428Y-66103571D01*
X51775000Y-66125000D01*
X51732142Y-66146428D01*
X51646428Y-66146428D01*
X51603571Y-66167857D01*
X51582142Y-66189285D01*
X51560714Y-66232142D01*
X51560714Y-66317857D01*
X51582142Y-66360714D01*
X51603571Y-66382142D01*
X51646428Y-66403571D01*
X51732142Y-66403571D01*
X51775000Y-66382142D01*
X51796428Y-66360714D01*
X51817857Y-66317857D01*
X51817857Y-66232142D01*
X51796428Y-66189285D01*
X51775000Y-66167857D01*
X51732142Y-66146428D01*
X53160714Y-51660714D02*
X53139285Y-51682142D01*
X53075000Y-51703571D01*
X53032142Y-51703571D01*
X52967857Y-51682142D01*
X52925000Y-51639285D01*
X52903571Y-51596428D01*
X52882142Y-51510714D01*
X52882142Y-51446428D01*
X52903571Y-51360714D01*
X52925000Y-51317857D01*
X52967857Y-51275000D01*
X53032142Y-51253571D01*
X53075000Y-51253571D01*
X53139285Y-51275000D01*
X53160714Y-51296428D01*
X53546428Y-51403571D02*
X53546428Y-51703571D01*
X53439285Y-51232142D02*
X53332142Y-51553571D01*
X53610714Y-51553571D01*
X53739285Y-51253571D02*
X54039285Y-51253571D01*
X53846428Y-51703571D01*
X54342857Y-33103571D02*
X54342857Y-33467857D01*
X54364285Y-33510714D01*
X54385714Y-33532142D01*
X54428571Y-33553571D01*
X54514285Y-33553571D01*
X54557142Y-33532142D01*
X54578571Y-33510714D01*
X54600000Y-33467857D01*
X54600000Y-33103571D01*
X55050000Y-33553571D02*
X54792857Y-33553571D01*
X54921428Y-33553571D02*
X54921428Y-33103571D01*
X54878571Y-33167857D01*
X54835714Y-33210714D01*
X54792857Y-33232142D01*
X55328571Y-33103571D02*
X55371428Y-33103571D01*
X55414285Y-33125000D01*
X55435714Y-33146428D01*
X55457142Y-33189285D01*
X55478571Y-33275000D01*
X55478571Y-33382142D01*
X55457142Y-33467857D01*
X55435714Y-33510714D01*
X55414285Y-33532142D01*
X55371428Y-33553571D01*
X55328571Y-33553571D01*
X55285714Y-33532142D01*
X55264285Y-33510714D01*
X55242857Y-33467857D01*
X55221428Y-33382142D01*
X55221428Y-33275000D01*
X55242857Y-33189285D01*
X55264285Y-33146428D01*
X55285714Y-33125000D01*
X55328571Y-33103571D01*
X52467142Y-61213571D02*
X52467142Y-61577857D01*
X52488571Y-61620714D01*
X52510000Y-61642142D01*
X52552857Y-61663571D01*
X52638571Y-61663571D01*
X52681428Y-61642142D01*
X52702857Y-61620714D01*
X52724285Y-61577857D01*
X52724285Y-61213571D01*
X53131428Y-61213571D02*
X53045714Y-61213571D01*
X53002857Y-61235000D01*
X52981428Y-61256428D01*
X52938571Y-61320714D01*
X52917142Y-61406428D01*
X52917142Y-61577857D01*
X52938571Y-61620714D01*
X52960000Y-61642142D01*
X53002857Y-61663571D01*
X53088571Y-61663571D01*
X53131428Y-61642142D01*
X53152857Y-61620714D01*
X53174285Y-61577857D01*
X53174285Y-61470714D01*
X53152857Y-61427857D01*
X53131428Y-61406428D01*
X53088571Y-61385000D01*
X53002857Y-61385000D01*
X52960000Y-61406428D01*
X52938571Y-61427857D01*
X52917142Y-61470714D01*
X38325000Y-39503571D02*
X38110714Y-39503571D01*
X38110714Y-39053571D01*
X38710714Y-39503571D02*
X38453571Y-39503571D01*
X38582142Y-39503571D02*
X38582142Y-39053571D01*
X38539285Y-39117857D01*
X38496428Y-39160714D01*
X38453571Y-39182142D01*
X28957142Y-56253571D02*
X28957142Y-56617857D01*
X28978571Y-56660714D01*
X29000000Y-56682142D01*
X29042857Y-56703571D01*
X29128571Y-56703571D01*
X29171428Y-56682142D01*
X29192857Y-56660714D01*
X29214285Y-56617857D01*
X29214285Y-56253571D01*
X29621428Y-56403571D02*
X29621428Y-56703571D01*
X29514285Y-56232142D02*
X29407142Y-56553571D01*
X29685714Y-56553571D01*
X65300000Y-61453571D02*
X65300000Y-61775000D01*
X65278571Y-61839285D01*
X65235714Y-61882142D01*
X65171428Y-61903571D01*
X65128571Y-61903571D01*
X65535714Y-61903571D02*
X65621428Y-61903571D01*
X65664285Y-61882142D01*
X65685714Y-61860714D01*
X65728571Y-61796428D01*
X65750000Y-61710714D01*
X65750000Y-61539285D01*
X65728571Y-61496428D01*
X65707142Y-61475000D01*
X65664285Y-61453571D01*
X65578571Y-61453571D01*
X65535714Y-61475000D01*
X65514285Y-61496428D01*
X65492857Y-61539285D01*
X65492857Y-61646428D01*
X65514285Y-61689285D01*
X65535714Y-61710714D01*
X65578571Y-61732142D01*
X65664285Y-61732142D01*
X65707142Y-61710714D01*
X65728571Y-61689285D01*
X65750000Y-61646428D01*
X67625000Y-39517857D02*
X67475000Y-39517857D01*
X67475000Y-39753571D02*
X67475000Y-39303571D01*
X67689285Y-39303571D01*
X68010714Y-39517857D02*
X68075000Y-39539285D01*
X68096428Y-39560714D01*
X68117857Y-39603571D01*
X68117857Y-39667857D01*
X68096428Y-39710714D01*
X68075000Y-39732142D01*
X68032142Y-39753571D01*
X67860714Y-39753571D01*
X67860714Y-39303571D01*
X68010714Y-39303571D01*
X68053571Y-39325000D01*
X68075000Y-39346428D01*
X68096428Y-39389285D01*
X68096428Y-39432142D01*
X68075000Y-39475000D01*
X68053571Y-39496428D01*
X68010714Y-39517857D01*
X67860714Y-39517857D01*
X68546428Y-39753571D02*
X68289285Y-39753571D01*
X68417857Y-39753571D02*
X68417857Y-39303571D01*
X68375000Y-39367857D01*
X68332142Y-39410714D01*
X68289285Y-39432142D01*
X67960714Y-48710714D02*
X67939285Y-48732142D01*
X67875000Y-48753571D01*
X67832142Y-48753571D01*
X67767857Y-48732142D01*
X67725000Y-48689285D01*
X67703571Y-48646428D01*
X67682142Y-48560714D01*
X67682142Y-48496428D01*
X67703571Y-48410714D01*
X67725000Y-48367857D01*
X67767857Y-48325000D01*
X67832142Y-48303571D01*
X67875000Y-48303571D01*
X67939285Y-48325000D01*
X67960714Y-48346428D01*
X68346428Y-48453571D02*
X68346428Y-48753571D01*
X68239285Y-48282142D02*
X68132142Y-48603571D01*
X68410714Y-48603571D01*
X68775000Y-48303571D02*
X68689285Y-48303571D01*
X68646428Y-48325000D01*
X68625000Y-48346428D01*
X68582142Y-48410714D01*
X68560714Y-48496428D01*
X68560714Y-48667857D01*
X68582142Y-48710714D01*
X68603571Y-48732142D01*
X68646428Y-48753571D01*
X68732142Y-48753571D01*
X68775000Y-48732142D01*
X68796428Y-48710714D01*
X68817857Y-48667857D01*
X68817857Y-48560714D01*
X68796428Y-48517857D01*
X68775000Y-48496428D01*
X68732142Y-48475000D01*
X68646428Y-48475000D01*
X68603571Y-48496428D01*
X68582142Y-48517857D01*
X68560714Y-48560714D01*
X62010714Y-49760714D02*
X61989285Y-49782142D01*
X61925000Y-49803571D01*
X61882142Y-49803571D01*
X61817857Y-49782142D01*
X61775000Y-49739285D01*
X61753571Y-49696428D01*
X61732142Y-49610714D01*
X61732142Y-49546428D01*
X61753571Y-49460714D01*
X61775000Y-49417857D01*
X61817857Y-49375000D01*
X61882142Y-49353571D01*
X61925000Y-49353571D01*
X61989285Y-49375000D01*
X62010714Y-49396428D01*
X62396428Y-49503571D02*
X62396428Y-49803571D01*
X62289285Y-49332142D02*
X62182142Y-49653571D01*
X62460714Y-49653571D01*
X62589285Y-49353571D02*
X62867857Y-49353571D01*
X62717857Y-49525000D01*
X62782142Y-49525000D01*
X62825000Y-49546428D01*
X62846428Y-49567857D01*
X62867857Y-49610714D01*
X62867857Y-49717857D01*
X62846428Y-49760714D01*
X62825000Y-49782142D01*
X62782142Y-49803571D01*
X62653571Y-49803571D01*
X62610714Y-49782142D01*
X62589285Y-49760714D01*
X41610714Y-56860714D02*
X41589285Y-56882142D01*
X41525000Y-56903571D01*
X41482142Y-56903571D01*
X41417857Y-56882142D01*
X41375000Y-56839285D01*
X41353571Y-56796428D01*
X41332142Y-56710714D01*
X41332142Y-56646428D01*
X41353571Y-56560714D01*
X41375000Y-56517857D01*
X41417857Y-56475000D01*
X41482142Y-56453571D01*
X41525000Y-56453571D01*
X41589285Y-56475000D01*
X41610714Y-56496428D01*
X41996428Y-56603571D02*
X41996428Y-56903571D01*
X41889285Y-56432142D02*
X41782142Y-56753571D01*
X42060714Y-56753571D01*
X42467857Y-56903571D02*
X42210714Y-56903571D01*
X42339285Y-56903571D02*
X42339285Y-56453571D01*
X42296428Y-56517857D01*
X42253571Y-56560714D01*
X42210714Y-56582142D01*
X41710714Y-54810714D02*
X41689285Y-54832142D01*
X41625000Y-54853571D01*
X41582142Y-54853571D01*
X41517857Y-54832142D01*
X41475000Y-54789285D01*
X41453571Y-54746428D01*
X41432142Y-54660714D01*
X41432142Y-54596428D01*
X41453571Y-54510714D01*
X41475000Y-54467857D01*
X41517857Y-54425000D01*
X41582142Y-54403571D01*
X41625000Y-54403571D01*
X41689285Y-54425000D01*
X41710714Y-54446428D01*
X41860714Y-54403571D02*
X42139285Y-54403571D01*
X41989285Y-54575000D01*
X42053571Y-54575000D01*
X42096428Y-54596428D01*
X42117857Y-54617857D01*
X42139285Y-54660714D01*
X42139285Y-54767857D01*
X42117857Y-54810714D01*
X42096428Y-54832142D01*
X42053571Y-54853571D01*
X41925000Y-54853571D01*
X41882142Y-54832142D01*
X41860714Y-54810714D01*
X42396428Y-54596428D02*
X42353571Y-54575000D01*
X42332142Y-54553571D01*
X42310714Y-54510714D01*
X42310714Y-54489285D01*
X42332142Y-54446428D01*
X42353571Y-54425000D01*
X42396428Y-54403571D01*
X42482142Y-54403571D01*
X42525000Y-54425000D01*
X42546428Y-54446428D01*
X42567857Y-54489285D01*
X42567857Y-54510714D01*
X42546428Y-54553571D01*
X42525000Y-54575000D01*
X42482142Y-54596428D01*
X42396428Y-54596428D01*
X42353571Y-54617857D01*
X42332142Y-54639285D01*
X42310714Y-54682142D01*
X42310714Y-54767857D01*
X42332142Y-54810714D01*
X42353571Y-54832142D01*
X42396428Y-54853571D01*
X42482142Y-54853571D01*
X42525000Y-54832142D01*
X42546428Y-54810714D01*
X42567857Y-54767857D01*
X42567857Y-54682142D01*
X42546428Y-54639285D01*
X42525000Y-54617857D01*
X42482142Y-54596428D01*
X50960714Y-65060714D02*
X50939285Y-65082142D01*
X50875000Y-65103571D01*
X50832142Y-65103571D01*
X50767857Y-65082142D01*
X50725000Y-65039285D01*
X50703571Y-64996428D01*
X50682142Y-64910714D01*
X50682142Y-64846428D01*
X50703571Y-64760714D01*
X50725000Y-64717857D01*
X50767857Y-64675000D01*
X50832142Y-64653571D01*
X50875000Y-64653571D01*
X50939285Y-64675000D01*
X50960714Y-64696428D01*
X51110714Y-64653571D02*
X51389285Y-64653571D01*
X51239285Y-64825000D01*
X51303571Y-64825000D01*
X51346428Y-64846428D01*
X51367857Y-64867857D01*
X51389285Y-64910714D01*
X51389285Y-65017857D01*
X51367857Y-65060714D01*
X51346428Y-65082142D01*
X51303571Y-65103571D01*
X51175000Y-65103571D01*
X51132142Y-65082142D01*
X51110714Y-65060714D01*
X51539285Y-64653571D02*
X51817857Y-64653571D01*
X51667857Y-64825000D01*
X51732142Y-64825000D01*
X51775000Y-64846428D01*
X51796428Y-64867857D01*
X51817857Y-64910714D01*
X51817857Y-65017857D01*
X51796428Y-65060714D01*
X51775000Y-65082142D01*
X51732142Y-65103571D01*
X51603571Y-65103571D01*
X51560714Y-65082142D01*
X51539285Y-65060714D01*
X53060714Y-36660714D02*
X53039285Y-36682142D01*
X52975000Y-36703571D01*
X52932142Y-36703571D01*
X52867857Y-36682142D01*
X52825000Y-36639285D01*
X52803571Y-36596428D01*
X52782142Y-36510714D01*
X52782142Y-36446428D01*
X52803571Y-36360714D01*
X52825000Y-36317857D01*
X52867857Y-36275000D01*
X52932142Y-36253571D01*
X52975000Y-36253571D01*
X53039285Y-36275000D01*
X53060714Y-36296428D01*
X53210714Y-36253571D02*
X53489285Y-36253571D01*
X53339285Y-36425000D01*
X53403571Y-36425000D01*
X53446428Y-36446428D01*
X53467857Y-36467857D01*
X53489285Y-36510714D01*
X53489285Y-36617857D01*
X53467857Y-36660714D01*
X53446428Y-36682142D01*
X53403571Y-36703571D01*
X53275000Y-36703571D01*
X53232142Y-36682142D01*
X53210714Y-36660714D01*
X53660714Y-36296428D02*
X53682142Y-36275000D01*
X53725000Y-36253571D01*
X53832142Y-36253571D01*
X53875000Y-36275000D01*
X53896428Y-36296428D01*
X53917857Y-36339285D01*
X53917857Y-36382142D01*
X53896428Y-36446428D01*
X53639285Y-36703571D01*
X53917857Y-36703571D01*
X53160714Y-50960714D02*
X53139285Y-50982142D01*
X53075000Y-51003571D01*
X53032142Y-51003571D01*
X52967857Y-50982142D01*
X52925000Y-50939285D01*
X52903571Y-50896428D01*
X52882142Y-50810714D01*
X52882142Y-50746428D01*
X52903571Y-50660714D01*
X52925000Y-50617857D01*
X52967857Y-50575000D01*
X53032142Y-50553571D01*
X53075000Y-50553571D01*
X53139285Y-50575000D01*
X53160714Y-50596428D01*
X53332142Y-50596428D02*
X53353571Y-50575000D01*
X53396428Y-50553571D01*
X53503571Y-50553571D01*
X53546428Y-50575000D01*
X53567857Y-50596428D01*
X53589285Y-50639285D01*
X53589285Y-50682142D01*
X53567857Y-50746428D01*
X53310714Y-51003571D01*
X53589285Y-51003571D01*
X53996428Y-50553571D02*
X53782142Y-50553571D01*
X53760714Y-50767857D01*
X53782142Y-50746428D01*
X53825000Y-50725000D01*
X53932142Y-50725000D01*
X53975000Y-50746428D01*
X53996428Y-50767857D01*
X54017857Y-50810714D01*
X54017857Y-50917857D01*
X53996428Y-50960714D01*
X53975000Y-50982142D01*
X53932142Y-51003571D01*
X53825000Y-51003571D01*
X53782142Y-50982142D01*
X53760714Y-50960714D01*
X39460714Y-61960714D02*
X39439285Y-61982142D01*
X39375000Y-62003571D01*
X39332142Y-62003571D01*
X39267857Y-61982142D01*
X39225000Y-61939285D01*
X39203571Y-61896428D01*
X39182142Y-61810714D01*
X39182142Y-61746428D01*
X39203571Y-61660714D01*
X39225000Y-61617857D01*
X39267857Y-61575000D01*
X39332142Y-61553571D01*
X39375000Y-61553571D01*
X39439285Y-61575000D01*
X39460714Y-61596428D01*
X39632142Y-61596428D02*
X39653571Y-61575000D01*
X39696428Y-61553571D01*
X39803571Y-61553571D01*
X39846428Y-61575000D01*
X39867857Y-61596428D01*
X39889285Y-61639285D01*
X39889285Y-61682142D01*
X39867857Y-61746428D01*
X39610714Y-62003571D01*
X39889285Y-62003571D01*
X40039285Y-61553571D02*
X40317857Y-61553571D01*
X40167857Y-61725000D01*
X40232142Y-61725000D01*
X40275000Y-61746428D01*
X40296428Y-61767857D01*
X40317857Y-61810714D01*
X40317857Y-61917857D01*
X40296428Y-61960714D01*
X40275000Y-61982142D01*
X40232142Y-62003571D01*
X40103571Y-62003571D01*
X40060714Y-61982142D01*
X40039285Y-61960714D01*
X39460714Y-62560714D02*
X39439285Y-62582142D01*
X39375000Y-62603571D01*
X39332142Y-62603571D01*
X39267857Y-62582142D01*
X39225000Y-62539285D01*
X39203571Y-62496428D01*
X39182142Y-62410714D01*
X39182142Y-62346428D01*
X39203571Y-62260714D01*
X39225000Y-62217857D01*
X39267857Y-62175000D01*
X39332142Y-62153571D01*
X39375000Y-62153571D01*
X39439285Y-62175000D01*
X39460714Y-62196428D01*
X39632142Y-62196428D02*
X39653571Y-62175000D01*
X39696428Y-62153571D01*
X39803571Y-62153571D01*
X39846428Y-62175000D01*
X39867857Y-62196428D01*
X39889285Y-62239285D01*
X39889285Y-62282142D01*
X39867857Y-62346428D01*
X39610714Y-62603571D01*
X39889285Y-62603571D01*
X40060714Y-62196428D02*
X40082142Y-62175000D01*
X40125000Y-62153571D01*
X40232142Y-62153571D01*
X40275000Y-62175000D01*
X40296428Y-62196428D01*
X40317857Y-62239285D01*
X40317857Y-62282142D01*
X40296428Y-62346428D01*
X40039285Y-62603571D01*
X40317857Y-62603571D01*
X62010714Y-39710714D02*
X61989285Y-39732142D01*
X61925000Y-39753571D01*
X61882142Y-39753571D01*
X61817857Y-39732142D01*
X61775000Y-39689285D01*
X61753571Y-39646428D01*
X61732142Y-39560714D01*
X61732142Y-39496428D01*
X61753571Y-39410714D01*
X61775000Y-39367857D01*
X61817857Y-39325000D01*
X61882142Y-39303571D01*
X61925000Y-39303571D01*
X61989285Y-39325000D01*
X62010714Y-39346428D01*
X62439285Y-39753571D02*
X62182142Y-39753571D01*
X62310714Y-39753571D02*
X62310714Y-39303571D01*
X62267857Y-39367857D01*
X62225000Y-39410714D01*
X62182142Y-39432142D01*
X62696428Y-39496428D02*
X62653571Y-39475000D01*
X62632142Y-39453571D01*
X62610714Y-39410714D01*
X62610714Y-39389285D01*
X62632142Y-39346428D01*
X62653571Y-39325000D01*
X62696428Y-39303571D01*
X62782142Y-39303571D01*
X62825000Y-39325000D01*
X62846428Y-39346428D01*
X62867857Y-39389285D01*
X62867857Y-39410714D01*
X62846428Y-39453571D01*
X62825000Y-39475000D01*
X62782142Y-39496428D01*
X62696428Y-39496428D01*
X62653571Y-39517857D01*
X62632142Y-39539285D01*
X62610714Y-39582142D01*
X62610714Y-39667857D01*
X62632142Y-39710714D01*
X62653571Y-39732142D01*
X62696428Y-39753571D01*
X62782142Y-39753571D01*
X62825000Y-39732142D01*
X62846428Y-39710714D01*
X62867857Y-39667857D01*
X62867857Y-39582142D01*
X62846428Y-39539285D01*
X62825000Y-39517857D01*
X62782142Y-39496428D01*
X67010714Y-38960714D02*
X66989285Y-38982142D01*
X66925000Y-39003571D01*
X66882142Y-39003571D01*
X66817857Y-38982142D01*
X66775000Y-38939285D01*
X66753571Y-38896428D01*
X66732142Y-38810714D01*
X66732142Y-38746428D01*
X66753571Y-38660714D01*
X66775000Y-38617857D01*
X66817857Y-38575000D01*
X66882142Y-38553571D01*
X66925000Y-38553571D01*
X66989285Y-38575000D01*
X67010714Y-38596428D01*
X67439285Y-39003571D02*
X67182142Y-39003571D01*
X67310714Y-39003571D02*
X67310714Y-38553571D01*
X67267857Y-38617857D01*
X67225000Y-38660714D01*
X67182142Y-38682142D01*
X67589285Y-38553571D02*
X67889285Y-38553571D01*
X67696428Y-39003571D01*
X59825000Y-27660714D02*
X59803571Y-27682142D01*
X59739285Y-27703571D01*
X59696428Y-27703571D01*
X59632142Y-27682142D01*
X59589285Y-27639285D01*
X59567857Y-27596428D01*
X59546428Y-27510714D01*
X59546428Y-27446428D01*
X59567857Y-27360714D01*
X59589285Y-27317857D01*
X59632142Y-27275000D01*
X59696428Y-27253571D01*
X59739285Y-27253571D01*
X59803571Y-27275000D01*
X59825000Y-27296428D01*
X60210714Y-27253571D02*
X60125000Y-27253571D01*
X60082142Y-27275000D01*
X60060714Y-27296428D01*
X60017857Y-27360714D01*
X59996428Y-27446428D01*
X59996428Y-27617857D01*
X60017857Y-27660714D01*
X60039285Y-27682142D01*
X60082142Y-27703571D01*
X60167857Y-27703571D01*
X60210714Y-27682142D01*
X60232142Y-27660714D01*
X60253571Y-27617857D01*
X60253571Y-27510714D01*
X60232142Y-27467857D01*
X60210714Y-27446428D01*
X60167857Y-27425000D01*
X60082142Y-27425000D01*
X60039285Y-27446428D01*
X60017857Y-27467857D01*
X59996428Y-27510714D01*
X58442857Y-60003571D02*
X58442857Y-60367857D01*
X58464285Y-60410714D01*
X58485714Y-60432142D01*
X58528571Y-60453571D01*
X58614285Y-60453571D01*
X58657142Y-60432142D01*
X58678571Y-60410714D01*
X58700000Y-60367857D01*
X58700000Y-60003571D01*
X59150000Y-60453571D02*
X58892857Y-60453571D01*
X59021428Y-60453571D02*
X59021428Y-60003571D01*
X58978571Y-60067857D01*
X58935714Y-60110714D01*
X58892857Y-60132142D01*
X59578571Y-60453571D02*
X59321428Y-60453571D01*
X59450000Y-60453571D02*
X59450000Y-60003571D01*
X59407142Y-60067857D01*
X59364285Y-60110714D01*
X59321428Y-60132142D01*
X28207142Y-29803571D02*
X28207142Y-30167857D01*
X28228571Y-30210714D01*
X28250000Y-30232142D01*
X28292857Y-30253571D01*
X28378571Y-30253571D01*
X28421428Y-30232142D01*
X28442857Y-30210714D01*
X28464285Y-30167857D01*
X28464285Y-29803571D01*
X28700000Y-30253571D02*
X28785714Y-30253571D01*
X28828571Y-30232142D01*
X28850000Y-30210714D01*
X28892857Y-30146428D01*
X28914285Y-30060714D01*
X28914285Y-29889285D01*
X28892857Y-29846428D01*
X28871428Y-29825000D01*
X28828571Y-29803571D01*
X28742857Y-29803571D01*
X28700000Y-29825000D01*
X28678571Y-29846428D01*
X28657142Y-29889285D01*
X28657142Y-29996428D01*
X28678571Y-30039285D01*
X28700000Y-30060714D01*
X28742857Y-30082142D01*
X28828571Y-30082142D01*
X28871428Y-30060714D01*
X28892857Y-30039285D01*
X28914285Y-29996428D01*
X74957142Y-36203571D02*
X74957142Y-36567857D01*
X74978571Y-36610714D01*
X75000000Y-36632142D01*
X75042857Y-36653571D01*
X75128571Y-36653571D01*
X75171428Y-36632142D01*
X75192857Y-36610714D01*
X75214285Y-36567857D01*
X75214285Y-36203571D01*
X75492857Y-36396428D02*
X75450000Y-36375000D01*
X75428571Y-36353571D01*
X75407142Y-36310714D01*
X75407142Y-36289285D01*
X75428571Y-36246428D01*
X75450000Y-36225000D01*
X75492857Y-36203571D01*
X75578571Y-36203571D01*
X75621428Y-36225000D01*
X75642857Y-36246428D01*
X75664285Y-36289285D01*
X75664285Y-36310714D01*
X75642857Y-36353571D01*
X75621428Y-36375000D01*
X75578571Y-36396428D01*
X75492857Y-36396428D01*
X75450000Y-36417857D01*
X75428571Y-36439285D01*
X75407142Y-36482142D01*
X75407142Y-36567857D01*
X75428571Y-36610714D01*
X75450000Y-36632142D01*
X75492857Y-36653571D01*
X75578571Y-36653571D01*
X75621428Y-36632142D01*
X75642857Y-36610714D01*
X75664285Y-36567857D01*
X75664285Y-36482142D01*
X75642857Y-36439285D01*
X75621428Y-36417857D01*
X75578571Y-36396428D01*
X71157142Y-53903571D02*
X71157142Y-54267857D01*
X71178571Y-54310714D01*
X71200000Y-54332142D01*
X71242857Y-54353571D01*
X71328571Y-54353571D01*
X71371428Y-54332142D01*
X71392857Y-54310714D01*
X71414285Y-54267857D01*
X71414285Y-53903571D01*
X71842857Y-53903571D02*
X71628571Y-53903571D01*
X71607142Y-54117857D01*
X71628571Y-54096428D01*
X71671428Y-54075000D01*
X71778571Y-54075000D01*
X71821428Y-54096428D01*
X71842857Y-54117857D01*
X71864285Y-54160714D01*
X71864285Y-54267857D01*
X71842857Y-54310714D01*
X71821428Y-54332142D01*
X71778571Y-54353571D01*
X71671428Y-54353571D01*
X71628571Y-54332142D01*
X71607142Y-54310714D01*
X36507142Y-47203571D02*
X36507142Y-47567857D01*
X36528571Y-47610714D01*
X36550000Y-47632142D01*
X36592857Y-47653571D01*
X36678571Y-47653571D01*
X36721428Y-47632142D01*
X36742857Y-47610714D01*
X36764285Y-47567857D01*
X36764285Y-47203571D01*
X36935714Y-47203571D02*
X37214285Y-47203571D01*
X37064285Y-47375000D01*
X37128571Y-47375000D01*
X37171428Y-47396428D01*
X37192857Y-47417857D01*
X37214285Y-47460714D01*
X37214285Y-47567857D01*
X37192857Y-47610714D01*
X37171428Y-47632142D01*
X37128571Y-47653571D01*
X37000000Y-47653571D01*
X36957142Y-47632142D01*
X36935714Y-47610714D01*
X64977142Y-53903571D02*
X64977142Y-54267857D01*
X64998571Y-54310714D01*
X65020000Y-54332142D01*
X65062857Y-54353571D01*
X65148571Y-54353571D01*
X65191428Y-54332142D01*
X65212857Y-54310714D01*
X65234285Y-54267857D01*
X65234285Y-53903571D01*
X65427142Y-53946428D02*
X65448571Y-53925000D01*
X65491428Y-53903571D01*
X65598571Y-53903571D01*
X65641428Y-53925000D01*
X65662857Y-53946428D01*
X65684285Y-53989285D01*
X65684285Y-54032142D01*
X65662857Y-54096428D01*
X65405714Y-54353571D01*
X65684285Y-54353571D01*
X75703571Y-32003571D02*
X75703571Y-31553571D01*
X75810714Y-31553571D01*
X75875000Y-31575000D01*
X75917857Y-31617857D01*
X75939285Y-31660714D01*
X75960714Y-31746428D01*
X75960714Y-31810714D01*
X75939285Y-31896428D01*
X75917857Y-31939285D01*
X75875000Y-31982142D01*
X75810714Y-32003571D01*
X75703571Y-32003571D01*
X76389285Y-32003571D02*
X76132142Y-32003571D01*
X76260714Y-32003571D02*
X76260714Y-31553571D01*
X76217857Y-31617857D01*
X76175000Y-31660714D01*
X76132142Y-31682142D01*
X76539285Y-31553571D02*
X76839285Y-31553571D01*
X76646428Y-32003571D01*
X38580714Y-40450714D02*
X38559285Y-40472142D01*
X38495000Y-40493571D01*
X38452142Y-40493571D01*
X38387857Y-40472142D01*
X38345000Y-40429285D01*
X38323571Y-40386428D01*
X38302142Y-40300714D01*
X38302142Y-40236428D01*
X38323571Y-40150714D01*
X38345000Y-40107857D01*
X38387857Y-40065000D01*
X38452142Y-40043571D01*
X38495000Y-40043571D01*
X38559285Y-40065000D01*
X38580714Y-40086428D01*
X38730714Y-40043571D02*
X39009285Y-40043571D01*
X38859285Y-40215000D01*
X38923571Y-40215000D01*
X38966428Y-40236428D01*
X38987857Y-40257857D01*
X39009285Y-40300714D01*
X39009285Y-40407857D01*
X38987857Y-40450714D01*
X38966428Y-40472142D01*
X38923571Y-40493571D01*
X38795000Y-40493571D01*
X38752142Y-40472142D01*
X38730714Y-40450714D01*
X39159285Y-40043571D02*
X39459285Y-40043571D01*
X39266428Y-40493571D01*
X40410714Y-39570714D02*
X40389285Y-39592142D01*
X40325000Y-39613571D01*
X40282142Y-39613571D01*
X40217857Y-39592142D01*
X40175000Y-39549285D01*
X40153571Y-39506428D01*
X40132142Y-39420714D01*
X40132142Y-39356428D01*
X40153571Y-39270714D01*
X40175000Y-39227857D01*
X40217857Y-39185000D01*
X40282142Y-39163571D01*
X40325000Y-39163571D01*
X40389285Y-39185000D01*
X40410714Y-39206428D01*
X40560714Y-39163571D02*
X40839285Y-39163571D01*
X40689285Y-39335000D01*
X40753571Y-39335000D01*
X40796428Y-39356428D01*
X40817857Y-39377857D01*
X40839285Y-39420714D01*
X40839285Y-39527857D01*
X40817857Y-39570714D01*
X40796428Y-39592142D01*
X40753571Y-39613571D01*
X40625000Y-39613571D01*
X40582142Y-39592142D01*
X40560714Y-39570714D01*
X41225000Y-39163571D02*
X41139285Y-39163571D01*
X41096428Y-39185000D01*
X41075000Y-39206428D01*
X41032142Y-39270714D01*
X41010714Y-39356428D01*
X41010714Y-39527857D01*
X41032142Y-39570714D01*
X41053571Y-39592142D01*
X41096428Y-39613571D01*
X41182142Y-39613571D01*
X41225000Y-39592142D01*
X41246428Y-39570714D01*
X41267857Y-39527857D01*
X41267857Y-39420714D01*
X41246428Y-39377857D01*
X41225000Y-39356428D01*
X41182142Y-39335000D01*
X41096428Y-39335000D01*
X41053571Y-39356428D01*
X41032142Y-39377857D01*
X41010714Y-39420714D01*
X34110714Y-43160714D02*
X34089285Y-43182142D01*
X34025000Y-43203571D01*
X33982142Y-43203571D01*
X33917857Y-43182142D01*
X33875000Y-43139285D01*
X33853571Y-43096428D01*
X33832142Y-43010714D01*
X33832142Y-42946428D01*
X33853571Y-42860714D01*
X33875000Y-42817857D01*
X33917857Y-42775000D01*
X33982142Y-42753571D01*
X34025000Y-42753571D01*
X34089285Y-42775000D01*
X34110714Y-42796428D01*
X34260714Y-42753571D02*
X34539285Y-42753571D01*
X34389285Y-42925000D01*
X34453571Y-42925000D01*
X34496428Y-42946428D01*
X34517857Y-42967857D01*
X34539285Y-43010714D01*
X34539285Y-43117857D01*
X34517857Y-43160714D01*
X34496428Y-43182142D01*
X34453571Y-43203571D01*
X34325000Y-43203571D01*
X34282142Y-43182142D01*
X34260714Y-43160714D01*
X34946428Y-42753571D02*
X34732142Y-42753571D01*
X34710714Y-42967857D01*
X34732142Y-42946428D01*
X34775000Y-42925000D01*
X34882142Y-42925000D01*
X34925000Y-42946428D01*
X34946428Y-42967857D01*
X34967857Y-43010714D01*
X34967857Y-43117857D01*
X34946428Y-43160714D01*
X34925000Y-43182142D01*
X34882142Y-43203571D01*
X34775000Y-43203571D01*
X34732142Y-43182142D01*
X34710714Y-43160714D01*
X33760714Y-44410714D02*
X33739285Y-44432142D01*
X33675000Y-44453571D01*
X33632142Y-44453571D01*
X33567857Y-44432142D01*
X33525000Y-44389285D01*
X33503571Y-44346428D01*
X33482142Y-44260714D01*
X33482142Y-44196428D01*
X33503571Y-44110714D01*
X33525000Y-44067857D01*
X33567857Y-44025000D01*
X33632142Y-44003571D01*
X33675000Y-44003571D01*
X33739285Y-44025000D01*
X33760714Y-44046428D01*
X33932142Y-44046428D02*
X33953571Y-44025000D01*
X33996428Y-44003571D01*
X34103571Y-44003571D01*
X34146428Y-44025000D01*
X34167857Y-44046428D01*
X34189285Y-44089285D01*
X34189285Y-44132142D01*
X34167857Y-44196428D01*
X33910714Y-44453571D01*
X34189285Y-44453571D01*
X34339285Y-44003571D02*
X34639285Y-44003571D01*
X34446428Y-44453571D01*
X34300000Y-27903571D02*
X34300000Y-28225000D01*
X34278571Y-28289285D01*
X34235714Y-28332142D01*
X34171428Y-28353571D01*
X34128571Y-28353571D01*
X34578571Y-28096428D02*
X34535714Y-28075000D01*
X34514285Y-28053571D01*
X34492857Y-28010714D01*
X34492857Y-27989285D01*
X34514285Y-27946428D01*
X34535714Y-27925000D01*
X34578571Y-27903571D01*
X34664285Y-27903571D01*
X34707142Y-27925000D01*
X34728571Y-27946428D01*
X34750000Y-27989285D01*
X34750000Y-28010714D01*
X34728571Y-28053571D01*
X34707142Y-28075000D01*
X34664285Y-28096428D01*
X34578571Y-28096428D01*
X34535714Y-28117857D01*
X34514285Y-28139285D01*
X34492857Y-28182142D01*
X34492857Y-28267857D01*
X34514285Y-28310714D01*
X34535714Y-28332142D01*
X34578571Y-28353571D01*
X34664285Y-28353571D01*
X34707142Y-28332142D01*
X34728571Y-28310714D01*
X34750000Y-28267857D01*
X34750000Y-28182142D01*
X34728571Y-28139285D01*
X34707142Y-28117857D01*
X34664285Y-28096428D01*
X25927142Y-30356428D02*
X25884285Y-30335000D01*
X25841428Y-30292142D01*
X25777142Y-30227857D01*
X25734285Y-30206428D01*
X25691428Y-30206428D01*
X25712857Y-30313571D02*
X25670000Y-30292142D01*
X25627142Y-30249285D01*
X25605714Y-30163571D01*
X25605714Y-30013571D01*
X25627142Y-29927857D01*
X25670000Y-29885000D01*
X25712857Y-29863571D01*
X25798571Y-29863571D01*
X25841428Y-29885000D01*
X25884285Y-29927857D01*
X25905714Y-30013571D01*
X25905714Y-30163571D01*
X25884285Y-30249285D01*
X25841428Y-30292142D01*
X25798571Y-30313571D01*
X25712857Y-30313571D01*
X26077142Y-29906428D02*
X26098571Y-29885000D01*
X26141428Y-29863571D01*
X26248571Y-29863571D01*
X26291428Y-29885000D01*
X26312857Y-29906428D01*
X26334285Y-29949285D01*
X26334285Y-29992142D01*
X26312857Y-30056428D01*
X26055714Y-30313571D01*
X26334285Y-30313571D01*
X56410714Y-29203571D02*
X56260714Y-28989285D01*
X56153571Y-29203571D02*
X56153571Y-28753571D01*
X56325000Y-28753571D01*
X56367857Y-28775000D01*
X56389285Y-28796428D01*
X56410714Y-28839285D01*
X56410714Y-28903571D01*
X56389285Y-28946428D01*
X56367857Y-28967857D01*
X56325000Y-28989285D01*
X56153571Y-28989285D01*
X56839285Y-29203571D02*
X56582142Y-29203571D01*
X56710714Y-29203571D02*
X56710714Y-28753571D01*
X56667857Y-28817857D01*
X56625000Y-28860714D01*
X56582142Y-28882142D01*
X56989285Y-28753571D02*
X57267857Y-28753571D01*
X57117857Y-28925000D01*
X57182142Y-28925000D01*
X57225000Y-28946428D01*
X57246428Y-28967857D01*
X57267857Y-29010714D01*
X57267857Y-29117857D01*
X57246428Y-29160714D01*
X57225000Y-29182142D01*
X57182142Y-29203571D01*
X57053571Y-29203571D01*
X57010714Y-29182142D01*
X56989285Y-29160714D01*
X45710714Y-29803571D02*
X45560714Y-29589285D01*
X45453571Y-29803571D02*
X45453571Y-29353571D01*
X45625000Y-29353571D01*
X45667857Y-29375000D01*
X45689285Y-29396428D01*
X45710714Y-29439285D01*
X45710714Y-29503571D01*
X45689285Y-29546428D01*
X45667857Y-29567857D01*
X45625000Y-29589285D01*
X45453571Y-29589285D01*
X46139285Y-29803571D02*
X45882142Y-29803571D01*
X46010714Y-29803571D02*
X46010714Y-29353571D01*
X45967857Y-29417857D01*
X45925000Y-29460714D01*
X45882142Y-29482142D01*
X46310714Y-29396428D02*
X46332142Y-29375000D01*
X46375000Y-29353571D01*
X46482142Y-29353571D01*
X46525000Y-29375000D01*
X46546428Y-29396428D01*
X46567857Y-29439285D01*
X46567857Y-29482142D01*
X46546428Y-29546428D01*
X46289285Y-29803571D01*
X46567857Y-29803571D01*
X55910714Y-43103571D02*
X55760714Y-42889285D01*
X55653571Y-43103571D02*
X55653571Y-42653571D01*
X55825000Y-42653571D01*
X55867857Y-42675000D01*
X55889285Y-42696428D01*
X55910714Y-42739285D01*
X55910714Y-42803571D01*
X55889285Y-42846428D01*
X55867857Y-42867857D01*
X55825000Y-42889285D01*
X55653571Y-42889285D01*
X56339285Y-43103571D02*
X56082142Y-43103571D01*
X56210714Y-43103571D02*
X56210714Y-42653571D01*
X56167857Y-42717857D01*
X56125000Y-42760714D01*
X56082142Y-42782142D01*
X56767857Y-43103571D02*
X56510714Y-43103571D01*
X56639285Y-43103571D02*
X56639285Y-42653571D01*
X56596428Y-42717857D01*
X56553571Y-42760714D01*
X56510714Y-42782142D01*
X45460714Y-43103571D02*
X45310714Y-42889285D01*
X45203571Y-43103571D02*
X45203571Y-42653571D01*
X45375000Y-42653571D01*
X45417857Y-42675000D01*
X45439285Y-42696428D01*
X45460714Y-42739285D01*
X45460714Y-42803571D01*
X45439285Y-42846428D01*
X45417857Y-42867857D01*
X45375000Y-42889285D01*
X45203571Y-42889285D01*
X45889285Y-43103571D02*
X45632142Y-43103571D01*
X45760714Y-43103571D02*
X45760714Y-42653571D01*
X45717857Y-42717857D01*
X45675000Y-42760714D01*
X45632142Y-42782142D01*
X46167857Y-42653571D02*
X46210714Y-42653571D01*
X46253571Y-42675000D01*
X46275000Y-42696428D01*
X46296428Y-42739285D01*
X46317857Y-42825000D01*
X46317857Y-42932142D01*
X46296428Y-43017857D01*
X46275000Y-43060714D01*
X46253571Y-43082142D01*
X46210714Y-43103571D01*
X46167857Y-43103571D01*
X46125000Y-43082142D01*
X46103571Y-43060714D01*
X46082142Y-43017857D01*
X46060714Y-42932142D01*
X46060714Y-42825000D01*
X46082142Y-42739285D01*
X46103571Y-42696428D01*
X46125000Y-42675000D01*
X46167857Y-42653571D01*
X55925000Y-57303571D02*
X55775000Y-57089285D01*
X55667857Y-57303571D02*
X55667857Y-56853571D01*
X55839285Y-56853571D01*
X55882142Y-56875000D01*
X55903571Y-56896428D01*
X55925000Y-56939285D01*
X55925000Y-57003571D01*
X55903571Y-57046428D01*
X55882142Y-57067857D01*
X55839285Y-57089285D01*
X55667857Y-57089285D01*
X56075000Y-56853571D02*
X56353571Y-56853571D01*
X56203571Y-57025000D01*
X56267857Y-57025000D01*
X56310714Y-57046428D01*
X56332142Y-57067857D01*
X56353571Y-57110714D01*
X56353571Y-57217857D01*
X56332142Y-57260714D01*
X56310714Y-57282142D01*
X56267857Y-57303571D01*
X56139285Y-57303571D01*
X56096428Y-57282142D01*
X56075000Y-57260714D01*
X45775000Y-57303571D02*
X45625000Y-57089285D01*
X45517857Y-57303571D02*
X45517857Y-56853571D01*
X45689285Y-56853571D01*
X45732142Y-56875000D01*
X45753571Y-56896428D01*
X45775000Y-56939285D01*
X45775000Y-57003571D01*
X45753571Y-57046428D01*
X45732142Y-57067857D01*
X45689285Y-57089285D01*
X45517857Y-57089285D01*
X45946428Y-56896428D02*
X45967857Y-56875000D01*
X46010714Y-56853571D01*
X46117857Y-56853571D01*
X46160714Y-56875000D01*
X46182142Y-56896428D01*
X46203571Y-56939285D01*
X46203571Y-56982142D01*
X46182142Y-57046428D01*
X45925000Y-57303571D01*
X46203571Y-57303571D01*
X71660714Y-58253571D02*
X71510714Y-58039285D01*
X71403571Y-58253571D02*
X71403571Y-57803571D01*
X71575000Y-57803571D01*
X71617857Y-57825000D01*
X71639285Y-57846428D01*
X71660714Y-57889285D01*
X71660714Y-57953571D01*
X71639285Y-57996428D01*
X71617857Y-58017857D01*
X71575000Y-58039285D01*
X71403571Y-58039285D01*
X72089285Y-58253571D02*
X71832142Y-58253571D01*
X71960714Y-58253571D02*
X71960714Y-57803571D01*
X71917857Y-57867857D01*
X71875000Y-57910714D01*
X71832142Y-57932142D01*
X72303571Y-58253571D02*
X72389285Y-58253571D01*
X72432142Y-58232142D01*
X72453571Y-58210714D01*
X72496428Y-58146428D01*
X72517857Y-58060714D01*
X72517857Y-57889285D01*
X72496428Y-57846428D01*
X72475000Y-57825000D01*
X72432142Y-57803571D01*
X72346428Y-57803571D01*
X72303571Y-57825000D01*
X72282142Y-57846428D01*
X72260714Y-57889285D01*
X72260714Y-57996428D01*
X72282142Y-58039285D01*
X72303571Y-58060714D01*
X72346428Y-58082142D01*
X72432142Y-58082142D01*
X72475000Y-58060714D01*
X72496428Y-58039285D01*
X72517857Y-57996428D01*
X71775714Y-27843571D02*
X71775714Y-28165000D01*
X71754285Y-28229285D01*
X71711428Y-28272142D01*
X71647142Y-28293571D01*
X71604285Y-28293571D01*
X72225714Y-28293571D02*
X71968571Y-28293571D01*
X72097142Y-28293571D02*
X72097142Y-27843571D01*
X72054285Y-27907857D01*
X72011428Y-27950714D01*
X71968571Y-27972142D01*
X72654285Y-28293571D02*
X72397142Y-28293571D01*
X72525714Y-28293571D02*
X72525714Y-27843571D01*
X72482857Y-27907857D01*
X72440000Y-27950714D01*
X72397142Y-27972142D01*
X23685714Y-27953571D02*
X23685714Y-28275000D01*
X23664285Y-28339285D01*
X23621428Y-28382142D01*
X23557142Y-28403571D01*
X23514285Y-28403571D01*
X24135714Y-28403571D02*
X23878571Y-28403571D01*
X24007142Y-28403571D02*
X24007142Y-27953571D01*
X23964285Y-28017857D01*
X23921428Y-28060714D01*
X23878571Y-28082142D01*
X24414285Y-27953571D02*
X24457142Y-27953571D01*
X24500000Y-27975000D01*
X24521428Y-27996428D01*
X24542857Y-28039285D01*
X24564285Y-28125000D01*
X24564285Y-28232142D01*
X24542857Y-28317857D01*
X24521428Y-28360714D01*
X24500000Y-28382142D01*
X24457142Y-28403571D01*
X24414285Y-28403571D01*
X24371428Y-28382142D01*
X24350000Y-28360714D01*
X24328571Y-28317857D01*
X24307142Y-28232142D01*
X24307142Y-28125000D01*
X24328571Y-28039285D01*
X24350000Y-27996428D01*
X24371428Y-27975000D01*
X24414285Y-27953571D01*
X76575000Y-61478571D02*
X76575000Y-61800000D01*
X76553571Y-61864285D01*
X76510714Y-61907142D01*
X76446428Y-61928571D01*
X76403571Y-61928571D01*
X76982142Y-61478571D02*
X76896428Y-61478571D01*
X76853571Y-61500000D01*
X76832142Y-61521428D01*
X76789285Y-61585714D01*
X76767857Y-61671428D01*
X76767857Y-61842857D01*
X76789285Y-61885714D01*
X76810714Y-61907142D01*
X76853571Y-61928571D01*
X76939285Y-61928571D01*
X76982142Y-61907142D01*
X77003571Y-61885714D01*
X77025000Y-61842857D01*
X77025000Y-61735714D01*
X77003571Y-61692857D01*
X76982142Y-61671428D01*
X76939285Y-61650000D01*
X76853571Y-61650000D01*
X76810714Y-61671428D01*
X76789285Y-61692857D01*
X76767857Y-61735714D01*
X61310714Y-40410714D02*
X61289285Y-40432142D01*
X61225000Y-40453571D01*
X61182142Y-40453571D01*
X61117857Y-40432142D01*
X61075000Y-40389285D01*
X61053571Y-40346428D01*
X61032142Y-40260714D01*
X61032142Y-40196428D01*
X61053571Y-40110714D01*
X61075000Y-40067857D01*
X61117857Y-40025000D01*
X61182142Y-40003571D01*
X61225000Y-40003571D01*
X61289285Y-40025000D01*
X61310714Y-40046428D01*
X61482142Y-40046428D02*
X61503571Y-40025000D01*
X61546428Y-40003571D01*
X61653571Y-40003571D01*
X61696428Y-40025000D01*
X61717857Y-40046428D01*
X61739285Y-40089285D01*
X61739285Y-40132142D01*
X61717857Y-40196428D01*
X61460714Y-40453571D01*
X61739285Y-40453571D01*
X61996428Y-40196428D02*
X61953571Y-40175000D01*
X61932142Y-40153571D01*
X61910714Y-40110714D01*
X61910714Y-40089285D01*
X61932142Y-40046428D01*
X61953571Y-40025000D01*
X61996428Y-40003571D01*
X62082142Y-40003571D01*
X62125000Y-40025000D01*
X62146428Y-40046428D01*
X62167857Y-40089285D01*
X62167857Y-40110714D01*
X62146428Y-40153571D01*
X62125000Y-40175000D01*
X62082142Y-40196428D01*
X61996428Y-40196428D01*
X61953571Y-40217857D01*
X61932142Y-40239285D01*
X61910714Y-40282142D01*
X61910714Y-40367857D01*
X61932142Y-40410714D01*
X61953571Y-40432142D01*
X61996428Y-40453571D01*
X62082142Y-40453571D01*
X62125000Y-40432142D01*
X62146428Y-40410714D01*
X62167857Y-40367857D01*
X62167857Y-40282142D01*
X62146428Y-40239285D01*
X62125000Y-40217857D01*
X62082142Y-40196428D01*
X74585714Y-56735714D02*
X74564285Y-56757142D01*
X74500000Y-56778571D01*
X74457142Y-56778571D01*
X74392857Y-56757142D01*
X74350000Y-56714285D01*
X74328571Y-56671428D01*
X74307142Y-56585714D01*
X74307142Y-56521428D01*
X74328571Y-56435714D01*
X74350000Y-56392857D01*
X74392857Y-56350000D01*
X74457142Y-56328571D01*
X74500000Y-56328571D01*
X74564285Y-56350000D01*
X74585714Y-56371428D01*
X74757142Y-56371428D02*
X74778571Y-56350000D01*
X74821428Y-56328571D01*
X74928571Y-56328571D01*
X74971428Y-56350000D01*
X74992857Y-56371428D01*
X75014285Y-56414285D01*
X75014285Y-56457142D01*
X74992857Y-56521428D01*
X74735714Y-56778571D01*
X75014285Y-56778571D01*
X75400000Y-56328571D02*
X75314285Y-56328571D01*
X75271428Y-56350000D01*
X75250000Y-56371428D01*
X75207142Y-56435714D01*
X75185714Y-56521428D01*
X75185714Y-56692857D01*
X75207142Y-56735714D01*
X75228571Y-56757142D01*
X75271428Y-56778571D01*
X75357142Y-56778571D01*
X75400000Y-56757142D01*
X75421428Y-56735714D01*
X75442857Y-56692857D01*
X75442857Y-56585714D01*
X75421428Y-56542857D01*
X75400000Y-56521428D01*
X75357142Y-56500000D01*
X75271428Y-56500000D01*
X75228571Y-56521428D01*
X75207142Y-56542857D01*
X75185714Y-56585714D01*
X29410714Y-58160714D02*
X29389285Y-58182142D01*
X29325000Y-58203571D01*
X29282142Y-58203571D01*
X29217857Y-58182142D01*
X29175000Y-58139285D01*
X29153571Y-58096428D01*
X29132142Y-58010714D01*
X29132142Y-57946428D01*
X29153571Y-57860714D01*
X29175000Y-57817857D01*
X29217857Y-57775000D01*
X29282142Y-57753571D01*
X29325000Y-57753571D01*
X29389285Y-57775000D01*
X29410714Y-57796428D01*
X29582142Y-57796428D02*
X29603571Y-57775000D01*
X29646428Y-57753571D01*
X29753571Y-57753571D01*
X29796428Y-57775000D01*
X29817857Y-57796428D01*
X29839285Y-57839285D01*
X29839285Y-57882142D01*
X29817857Y-57946428D01*
X29560714Y-58203571D01*
X29839285Y-58203571D01*
X30267857Y-58203571D02*
X30010714Y-58203571D01*
X30139285Y-58203571D02*
X30139285Y-57753571D01*
X30096428Y-57817857D01*
X30053571Y-57860714D01*
X30010714Y-57882142D01*
X51710714Y-23560714D02*
X51689285Y-23582142D01*
X51625000Y-23603571D01*
X51582142Y-23603571D01*
X51517857Y-23582142D01*
X51475000Y-23539285D01*
X51453571Y-23496428D01*
X51432142Y-23410714D01*
X51432142Y-23346428D01*
X51453571Y-23260714D01*
X51475000Y-23217857D01*
X51517857Y-23175000D01*
X51582142Y-23153571D01*
X51625000Y-23153571D01*
X51689285Y-23175000D01*
X51710714Y-23196428D01*
X52139285Y-23603571D02*
X51882142Y-23603571D01*
X52010714Y-23603571D02*
X52010714Y-23153571D01*
X51967857Y-23217857D01*
X51925000Y-23260714D01*
X51882142Y-23282142D01*
X52525000Y-23153571D02*
X52439285Y-23153571D01*
X52396428Y-23175000D01*
X52375000Y-23196428D01*
X52332142Y-23260714D01*
X52310714Y-23346428D01*
X52310714Y-23517857D01*
X52332142Y-23560714D01*
X52353571Y-23582142D01*
X52396428Y-23603571D01*
X52482142Y-23603571D01*
X52525000Y-23582142D01*
X52546428Y-23560714D01*
X52567857Y-23517857D01*
X52567857Y-23410714D01*
X52546428Y-23367857D01*
X52525000Y-23346428D01*
X52482142Y-23325000D01*
X52396428Y-23325000D01*
X52353571Y-23346428D01*
X52332142Y-23367857D01*
X52310714Y-23410714D01*
X48510714Y-23610714D02*
X48489285Y-23632142D01*
X48425000Y-23653571D01*
X48382142Y-23653571D01*
X48317857Y-23632142D01*
X48275000Y-23589285D01*
X48253571Y-23546428D01*
X48232142Y-23460714D01*
X48232142Y-23396428D01*
X48253571Y-23310714D01*
X48275000Y-23267857D01*
X48317857Y-23225000D01*
X48382142Y-23203571D01*
X48425000Y-23203571D01*
X48489285Y-23225000D01*
X48510714Y-23246428D01*
X48939285Y-23653571D02*
X48682142Y-23653571D01*
X48810714Y-23653571D02*
X48810714Y-23203571D01*
X48767857Y-23267857D01*
X48725000Y-23310714D01*
X48682142Y-23332142D01*
X49346428Y-23203571D02*
X49132142Y-23203571D01*
X49110714Y-23417857D01*
X49132142Y-23396428D01*
X49175000Y-23375000D01*
X49282142Y-23375000D01*
X49325000Y-23396428D01*
X49346428Y-23417857D01*
X49367857Y-23460714D01*
X49367857Y-23567857D01*
X49346428Y-23610714D01*
X49325000Y-23632142D01*
X49282142Y-23653571D01*
X49175000Y-23653571D01*
X49132142Y-23632142D01*
X49110714Y-23610714D01*
X51810714Y-37410714D02*
X51789285Y-37432142D01*
X51725000Y-37453571D01*
X51682142Y-37453571D01*
X51617857Y-37432142D01*
X51575000Y-37389285D01*
X51553571Y-37346428D01*
X51532142Y-37260714D01*
X51532142Y-37196428D01*
X51553571Y-37110714D01*
X51575000Y-37067857D01*
X51617857Y-37025000D01*
X51682142Y-37003571D01*
X51725000Y-37003571D01*
X51789285Y-37025000D01*
X51810714Y-37046428D01*
X52239285Y-37453571D02*
X51982142Y-37453571D01*
X52110714Y-37453571D02*
X52110714Y-37003571D01*
X52067857Y-37067857D01*
X52025000Y-37110714D01*
X51982142Y-37132142D01*
X52625000Y-37153571D02*
X52625000Y-37453571D01*
X52517857Y-36982142D02*
X52410714Y-37303571D01*
X52689285Y-37303571D01*
X46460714Y-38160714D02*
X46439285Y-38182142D01*
X46375000Y-38203571D01*
X46332142Y-38203571D01*
X46267857Y-38182142D01*
X46225000Y-38139285D01*
X46203571Y-38096428D01*
X46182142Y-38010714D01*
X46182142Y-37946428D01*
X46203571Y-37860714D01*
X46225000Y-37817857D01*
X46267857Y-37775000D01*
X46332142Y-37753571D01*
X46375000Y-37753571D01*
X46439285Y-37775000D01*
X46460714Y-37796428D01*
X46889285Y-38203571D02*
X46632142Y-38203571D01*
X46760714Y-38203571D02*
X46760714Y-37753571D01*
X46717857Y-37817857D01*
X46675000Y-37860714D01*
X46632142Y-37882142D01*
X47039285Y-37753571D02*
X47317857Y-37753571D01*
X47167857Y-37925000D01*
X47232142Y-37925000D01*
X47275000Y-37946428D01*
X47296428Y-37967857D01*
X47317857Y-38010714D01*
X47317857Y-38117857D01*
X47296428Y-38160714D01*
X47275000Y-38182142D01*
X47232142Y-38203571D01*
X47103571Y-38203571D01*
X47060714Y-38182142D01*
X47039285Y-38160714D01*
X61610714Y-50660714D02*
X61589285Y-50682142D01*
X61525000Y-50703571D01*
X61482142Y-50703571D01*
X61417857Y-50682142D01*
X61375000Y-50639285D01*
X61353571Y-50596428D01*
X61332142Y-50510714D01*
X61332142Y-50446428D01*
X61353571Y-50360714D01*
X61375000Y-50317857D01*
X61417857Y-50275000D01*
X61482142Y-50253571D01*
X61525000Y-50253571D01*
X61589285Y-50275000D01*
X61610714Y-50296428D01*
X62039285Y-50703571D02*
X61782142Y-50703571D01*
X61910714Y-50703571D02*
X61910714Y-50253571D01*
X61867857Y-50317857D01*
X61825000Y-50360714D01*
X61782142Y-50382142D01*
X62317857Y-50253571D02*
X62360714Y-50253571D01*
X62403571Y-50275000D01*
X62425000Y-50296428D01*
X62446428Y-50339285D01*
X62467857Y-50425000D01*
X62467857Y-50532142D01*
X62446428Y-50617857D01*
X62425000Y-50660714D01*
X62403571Y-50682142D01*
X62360714Y-50703571D01*
X62317857Y-50703571D01*
X62275000Y-50682142D01*
X62253571Y-50660714D01*
X62232142Y-50617857D01*
X62210714Y-50532142D01*
X62210714Y-50425000D01*
X62232142Y-50339285D01*
X62253571Y-50296428D01*
X62275000Y-50275000D01*
X62317857Y-50253571D01*
X73425000Y-34660714D02*
X73403571Y-34682142D01*
X73339285Y-34703571D01*
X73296428Y-34703571D01*
X73232142Y-34682142D01*
X73189285Y-34639285D01*
X73167857Y-34596428D01*
X73146428Y-34510714D01*
X73146428Y-34446428D01*
X73167857Y-34360714D01*
X73189285Y-34317857D01*
X73232142Y-34275000D01*
X73296428Y-34253571D01*
X73339285Y-34253571D01*
X73403571Y-34275000D01*
X73425000Y-34296428D01*
X73639285Y-34703571D02*
X73725000Y-34703571D01*
X73767857Y-34682142D01*
X73789285Y-34660714D01*
X73832142Y-34596428D01*
X73853571Y-34510714D01*
X73853571Y-34339285D01*
X73832142Y-34296428D01*
X73810714Y-34275000D01*
X73767857Y-34253571D01*
X73682142Y-34253571D01*
X73639285Y-34275000D01*
X73617857Y-34296428D01*
X73596428Y-34339285D01*
X73596428Y-34446428D01*
X73617857Y-34489285D01*
X73639285Y-34510714D01*
X73682142Y-34532142D01*
X73767857Y-34532142D01*
X73810714Y-34510714D01*
X73832142Y-34489285D01*
X73853571Y-34446428D01*
X67198672Y-42451184D02*
X67177243Y-42472612D01*
X67112957Y-42494041D01*
X67070100Y-42494041D01*
X67005814Y-42472612D01*
X66962957Y-42429755D01*
X66941529Y-42386898D01*
X66920100Y-42301184D01*
X66920100Y-42236898D01*
X66941529Y-42151184D01*
X66962957Y-42108327D01*
X67005814Y-42065470D01*
X67070100Y-42044041D01*
X67112957Y-42044041D01*
X67177243Y-42065470D01*
X67198672Y-42086898D01*
X67455814Y-42236898D02*
X67412957Y-42215470D01*
X67391529Y-42194041D01*
X67370100Y-42151184D01*
X67370100Y-42129755D01*
X67391529Y-42086898D01*
X67412957Y-42065470D01*
X67455814Y-42044041D01*
X67541529Y-42044041D01*
X67584386Y-42065470D01*
X67605814Y-42086898D01*
X67627243Y-42129755D01*
X67627243Y-42151184D01*
X67605814Y-42194041D01*
X67584386Y-42215470D01*
X67541529Y-42236898D01*
X67455814Y-42236898D01*
X67412957Y-42258327D01*
X67391529Y-42279755D01*
X67370100Y-42322612D01*
X67370100Y-42408327D01*
X67391529Y-42451184D01*
X67412957Y-42472612D01*
X67455814Y-42494041D01*
X67541529Y-42494041D01*
X67584386Y-42472612D01*
X67605814Y-42451184D01*
X67627243Y-42408327D01*
X67627243Y-42322612D01*
X67605814Y-42279755D01*
X67584386Y-42258327D01*
X67541529Y-42236898D01*
X51925000Y-51610714D02*
X51903571Y-51632142D01*
X51839285Y-51653571D01*
X51796428Y-51653571D01*
X51732142Y-51632142D01*
X51689285Y-51589285D01*
X51667857Y-51546428D01*
X51646428Y-51460714D01*
X51646428Y-51396428D01*
X51667857Y-51310714D01*
X51689285Y-51267857D01*
X51732142Y-51225000D01*
X51796428Y-51203571D01*
X51839285Y-51203571D01*
X51903571Y-51225000D01*
X51925000Y-51246428D01*
X52075000Y-51203571D02*
X52353571Y-51203571D01*
X52203571Y-51375000D01*
X52267857Y-51375000D01*
X52310714Y-51396428D01*
X52332142Y-51417857D01*
X52353571Y-51460714D01*
X52353571Y-51567857D01*
X52332142Y-51610714D01*
X52310714Y-51632142D01*
X52267857Y-51653571D01*
X52139285Y-51653571D01*
X52096428Y-51632142D01*
X52075000Y-51610714D01*
X46925000Y-52560714D02*
X46903571Y-52582142D01*
X46839285Y-52603571D01*
X46796428Y-52603571D01*
X46732142Y-52582142D01*
X46689285Y-52539285D01*
X46667857Y-52496428D01*
X46646428Y-52410714D01*
X46646428Y-52346428D01*
X46667857Y-52260714D01*
X46689285Y-52217857D01*
X46732142Y-52175000D01*
X46796428Y-52153571D01*
X46839285Y-52153571D01*
X46903571Y-52175000D01*
X46925000Y-52196428D01*
X47096428Y-52196428D02*
X47117857Y-52175000D01*
X47160714Y-52153571D01*
X47267857Y-52153571D01*
X47310714Y-52175000D01*
X47332142Y-52196428D01*
X47353571Y-52239285D01*
X47353571Y-52282142D01*
X47332142Y-52346428D01*
X47075000Y-52603571D01*
X47353571Y-52603571D01*
M02*
