G04 #@! TF.GenerationSoftware,KiCad,Pcbnew,5.1.4+dfsg1-1*
G04 #@! TF.CreationDate,2019-12-16T01:19:35+01:00*
G04 #@! TF.ProjectId,STM32G431,53544d33-3247-4343-9331-2e6b69636164,rev?*
G04 #@! TF.SameCoordinates,Original*
G04 #@! TF.FileFunction,Copper,L4,Bot*
G04 #@! TF.FilePolarity,Positive*
%FSLAX46Y46*%
G04 Gerber Fmt 4.6, Leading zero omitted, Abs format (unit mm)*
G04 Created by KiCad (PCBNEW 5.1.4+dfsg1-1) date 2019-12-16 01:19:35*
%MOMM*%
%LPD*%
G04 APERTURE LIST*
%ADD10C,0.150000*%
%ADD11C,0.050000*%
%ADD12O,1.350000X1.350000*%
%ADD13R,1.350000X1.350000*%
%ADD14C,0.600000*%
%ADD15C,0.154000*%
%ADD16C,1.000000*%
G04 APERTURE END LIST*
D10*
X30650284Y-45000000D02*
G75*
G03X30650284Y-45000000I-4400284J0D01*
G01*
X78104595Y-45000000D02*
G75*
G03X78104595Y-45000000I-4354595J0D01*
G01*
D11*
X20000000Y-23000000D02*
X80000000Y-23000000D01*
X20000000Y-67000000D02*
X20000000Y-23000000D01*
X80000000Y-67000000D02*
X20000000Y-67000000D01*
X80000000Y-23000000D02*
X80000000Y-67000000D01*
D12*
X48000000Y-40200000D03*
X50000000Y-40200000D03*
X52000000Y-40200000D03*
X54000000Y-40200000D03*
X56000000Y-40200000D03*
D13*
X58000000Y-40200000D03*
D12*
X48000000Y-54420000D03*
X50000000Y-54420000D03*
X52000000Y-54420000D03*
X54000000Y-54420000D03*
X56000000Y-54420000D03*
D13*
X58000000Y-54420000D03*
D12*
X48000000Y-26280000D03*
X50000000Y-26280000D03*
X52000000Y-26280000D03*
X54000000Y-26280000D03*
X56000000Y-26280000D03*
D13*
X58000000Y-26280000D03*
X23750000Y-51910000D03*
D12*
X23750000Y-53910000D03*
X23750000Y-55910000D03*
D13*
X77000000Y-55910000D03*
D12*
X77000000Y-53910000D03*
X77000000Y-51910000D03*
D14*
X31050000Y-49600000D03*
X65400000Y-46700000D03*
X65950000Y-45950000D03*
X64850000Y-45900000D03*
X64350000Y-33300000D03*
X70350000Y-33250000D03*
X67400000Y-36350000D03*
X67400000Y-30500000D03*
X64376777Y-36676777D03*
X63200000Y-43000000D03*
X39210000Y-43740000D03*
X34770000Y-29050000D03*
X28100000Y-31250000D03*
X39870001Y-42689999D03*
X39920000Y-44190000D03*
X38870000Y-45370000D03*
X44250000Y-29150000D03*
X36834001Y-45343797D03*
X60100000Y-37400000D03*
X68600000Y-39700000D03*
X73700000Y-34478049D03*
X66450000Y-24950000D03*
X66300000Y-27250000D03*
X61500000Y-27100000D03*
X60950000Y-27600000D03*
X66700000Y-27950000D03*
X53050000Y-25550000D03*
X21800000Y-48500000D03*
X22000000Y-50850000D03*
X61550000Y-49550000D03*
X61550000Y-47950000D03*
X63550000Y-45900000D03*
X63750000Y-54650000D03*
X65400000Y-53350000D03*
X30050000Y-30750000D03*
X60850000Y-38500000D03*
X61450000Y-39150000D03*
X62950000Y-39750000D03*
X63450000Y-40200000D03*
X45800000Y-33500000D03*
X46900000Y-34900000D03*
X46200000Y-34900000D03*
X44400000Y-38200000D03*
X43050000Y-36850000D03*
X44500000Y-41350000D03*
X44450000Y-45500000D03*
X43000000Y-42400000D03*
X42950000Y-45400000D03*
X32150000Y-49600000D03*
X33250000Y-49600000D03*
X34350000Y-49600000D03*
X35450000Y-49600000D03*
X31050000Y-50700000D03*
X32150000Y-50700000D03*
X33250000Y-50700000D03*
X34350000Y-50700000D03*
X35450000Y-50700000D03*
X31050000Y-51800000D03*
X32150000Y-51800000D03*
X33250000Y-51800000D03*
X34350000Y-51800000D03*
X35450000Y-51800000D03*
X31050000Y-52900000D03*
X32150000Y-52900000D03*
X33250000Y-52900000D03*
X34350000Y-52900000D03*
X35450000Y-52900000D03*
X31050000Y-54000000D03*
X32150000Y-54000000D03*
X33250000Y-54000000D03*
X34350000Y-54000000D03*
X35450000Y-54000000D03*
X31050000Y-55100000D03*
X32150000Y-55100000D03*
X33250000Y-55100000D03*
X34350000Y-55100000D03*
X35450000Y-55100000D03*
X43100000Y-54950000D03*
X45400000Y-54800000D03*
X44200000Y-56850000D03*
X42300000Y-60400000D03*
X44250000Y-63250000D03*
X45400000Y-63250000D03*
X55600000Y-64850000D03*
X55600000Y-65900000D03*
X53250000Y-59750000D03*
X57600000Y-50750000D03*
X58650000Y-50750000D03*
X55700000Y-46350000D03*
X55600000Y-35400000D03*
X55600000Y-34600000D03*
X55550000Y-32450000D03*
X22600000Y-40800000D03*
X22250000Y-33550000D03*
X24700000Y-31200000D03*
X23600000Y-28700000D03*
X21900000Y-27950000D03*
X26800000Y-26550000D03*
X33650000Y-27950000D03*
X31300000Y-33000000D03*
X41200000Y-26500000D03*
X36100000Y-25200000D03*
X45750000Y-26000000D03*
X62050000Y-25350000D03*
X62900000Y-25350000D03*
X65800000Y-24900000D03*
X59050000Y-33350000D03*
X58950000Y-34850000D03*
X76450000Y-38550000D03*
X76500000Y-34150000D03*
X76450000Y-32550000D03*
X76100000Y-31350000D03*
X75900000Y-30350000D03*
X72100000Y-28400000D03*
X72500000Y-27050000D03*
X75100000Y-27000000D03*
X73900000Y-27050000D03*
X60150000Y-41600000D03*
X60100000Y-43450000D03*
X59150000Y-44150000D03*
X69500000Y-53550000D03*
X75850000Y-59400000D03*
X75850000Y-58450000D03*
X65250000Y-61350000D03*
X66350000Y-61400000D03*
X56300000Y-56700000D03*
X57700000Y-58350000D03*
X57850000Y-60700000D03*
X32800000Y-45050000D03*
X32050000Y-45050000D03*
X31300000Y-44700000D03*
X37850000Y-47750000D03*
X38850000Y-47750000D03*
X39900000Y-47750000D03*
X62450000Y-49950000D03*
X59500000Y-53200000D03*
X46800000Y-53200000D03*
X64875535Y-42237970D03*
X68233705Y-39040938D03*
X57600000Y-39070998D03*
X46900000Y-38800000D03*
X49300000Y-29100000D03*
X45500000Y-29100000D03*
X41600000Y-39150000D03*
X40950000Y-39150000D03*
X40300000Y-39150000D03*
X40600000Y-38550000D03*
X41300000Y-38550000D03*
X71800000Y-53900000D03*
X71150000Y-53900000D03*
X70499994Y-53900000D03*
X76100000Y-26750000D03*
X76625000Y-27275000D03*
X77175000Y-27825000D03*
X41800000Y-28250000D03*
X31650000Y-30800000D03*
X68400000Y-53700000D03*
X68400000Y-55399994D03*
X73950000Y-53650000D03*
X71675000Y-54975000D03*
X39083255Y-32983255D03*
X59891511Y-25412013D03*
X59500000Y-24531010D03*
X36200000Y-33000000D03*
X33300000Y-33000000D03*
X60350000Y-24350002D03*
X61750000Y-31100000D03*
X41350000Y-25299998D03*
X71733167Y-30733167D03*
X74900006Y-50400000D03*
X69900000Y-37200000D03*
X72800000Y-32800000D03*
X68356593Y-28114334D03*
X68000000Y-50699998D03*
X71512980Y-35617174D03*
X63900006Y-53100000D03*
X69000000Y-38000000D03*
X72474519Y-32025481D03*
X31100000Y-25200000D03*
X70575000Y-28750000D03*
X63900000Y-30400000D03*
X59900000Y-29500000D03*
X58600012Y-37300000D03*
X73700000Y-36387500D03*
X67000000Y-46650000D03*
X67450000Y-46200000D03*
X67850000Y-45650000D03*
X67400000Y-27650000D03*
X45500000Y-41129000D03*
X70000000Y-58150000D03*
X59400000Y-61000000D03*
X62000000Y-54250000D03*
X66900000Y-42150000D03*
X34475000Y-56925000D03*
X41850000Y-57150000D03*
X34080000Y-44260000D03*
X34080000Y-43640000D03*
X34080000Y-43010000D03*
X39000000Y-53950000D03*
X39400000Y-54450000D03*
X39000000Y-54950000D03*
X39450000Y-55400000D03*
X39050000Y-55900000D03*
X39450000Y-56400000D03*
X52512500Y-60907500D03*
X54712500Y-46507500D03*
X54612500Y-32757500D03*
X54612500Y-33487500D03*
X54612500Y-34237500D03*
X54712500Y-47287500D03*
X54712500Y-48037500D03*
X52027500Y-60422500D03*
X51552500Y-59947500D03*
X62450000Y-47100000D03*
X62450000Y-49250000D03*
X62450000Y-48550000D03*
X62450000Y-47800000D03*
X42000000Y-34050000D03*
X43208023Y-34100000D03*
X72474519Y-30931010D03*
X60417000Y-59583000D03*
X70600000Y-29600000D03*
X72800004Y-53000000D03*
X71200000Y-30200000D03*
X74800000Y-51192886D03*
X59400002Y-45100000D03*
X71600000Y-36800000D03*
X58500000Y-38400000D03*
X61100000Y-43300000D03*
X57369919Y-36457641D03*
X66700000Y-43608000D03*
X60400000Y-44500000D03*
X67000000Y-44300000D03*
X62160979Y-44913400D03*
X71478270Y-37963991D03*
X65900000Y-28650000D03*
X59450000Y-34150000D03*
X61239021Y-54128015D03*
X59845691Y-54203347D03*
D15*
X64376777Y-36676777D02*
X64376777Y-41823223D01*
X63499999Y-42700001D02*
X63200000Y-43000000D01*
X64376777Y-41823223D02*
X63499999Y-42700001D01*
X59500000Y-53200000D02*
X47300000Y-53200000D01*
X47300000Y-53200000D02*
X46800000Y-53200000D01*
X64875535Y-42237970D02*
X68072567Y-39040938D01*
X68072567Y-39040938D02*
X68233705Y-39040938D01*
X46929001Y-38770999D02*
X46900000Y-38800000D01*
X57600000Y-39070998D02*
X57300001Y-38770999D01*
X57300001Y-38770999D02*
X46929001Y-38770999D01*
X49300000Y-29100000D02*
X45500000Y-29100000D01*
X68400000Y-53700000D02*
X68400000Y-55399994D01*
X73950000Y-53650000D02*
X72625000Y-54975000D01*
X72625000Y-54975000D02*
X71675000Y-54975000D01*
X59612013Y-25412013D02*
X59891511Y-25412013D01*
X58700000Y-24500000D02*
X59612013Y-25412013D01*
X39083255Y-26416745D02*
X41000000Y-24500000D01*
X41000000Y-24500000D02*
X58700000Y-24500000D01*
X39083255Y-32983255D02*
X39083255Y-26416745D01*
X36200000Y-32575736D02*
X36200000Y-33000000D01*
X59500000Y-24531010D02*
X59160979Y-24191989D01*
X36200000Y-28100000D02*
X36200000Y-32575736D01*
X40108011Y-24191989D02*
X36200000Y-28100000D01*
X59160979Y-24191989D02*
X40108011Y-24191989D01*
X59858009Y-23858011D02*
X60050001Y-24050003D01*
X60050001Y-24050003D02*
X60350000Y-24350002D01*
X33300000Y-29400000D02*
X38841989Y-23858011D01*
X33300000Y-33000000D02*
X33300000Y-29400000D01*
X38841989Y-23858011D02*
X59858009Y-23858011D01*
X60650000Y-31100000D02*
X59100000Y-29550000D01*
X61750000Y-31100000D02*
X60650000Y-31100000D01*
X59100000Y-29550000D02*
X59100000Y-25614198D01*
X59100000Y-25614198D02*
X58335802Y-24850000D01*
X41799998Y-24850000D02*
X41350000Y-25299998D01*
X58335802Y-24850000D02*
X41799998Y-24850000D01*
X75500000Y-50400000D02*
X74900006Y-50400000D01*
X78483978Y-47416022D02*
X75500000Y-50400000D01*
X78483978Y-43055163D02*
X78483978Y-47416022D01*
X71733167Y-30733167D02*
X72166334Y-30300000D01*
X72166334Y-30300000D02*
X72800000Y-30300000D01*
X72800000Y-30300000D02*
X75183979Y-32683979D01*
X75183979Y-32683979D02*
X75183979Y-39755164D01*
X75183979Y-39755164D02*
X78483978Y-43055163D01*
X69900000Y-37200000D02*
X69900000Y-36435592D01*
X69900000Y-36435592D02*
X72482531Y-33853062D01*
X72500001Y-33099999D02*
X72800000Y-32800000D01*
X72482531Y-33853062D02*
X72482531Y-33117469D01*
X72482531Y-33117469D02*
X72500001Y-33099999D01*
X68691989Y-42372418D02*
X68691989Y-50008009D01*
X68299999Y-50399999D02*
X68000000Y-50699998D01*
X68356593Y-28114334D02*
X71704271Y-31462012D01*
X68691989Y-50008009D02*
X68299999Y-50399999D01*
X72791989Y-38272419D02*
X68691989Y-42372418D01*
X72791989Y-33772418D02*
X72791989Y-38272419D01*
X73391989Y-32191989D02*
X73391989Y-33172419D01*
X72662012Y-31462012D02*
X73391989Y-32191989D01*
X73391989Y-33172419D02*
X72791989Y-33772418D01*
X71704271Y-31462012D02*
X72662012Y-31462012D01*
X68383978Y-42244836D02*
X68383978Y-48616028D01*
X72483979Y-38144837D02*
X68383978Y-42244836D01*
X72483979Y-36588173D02*
X72483979Y-38144837D01*
X68383978Y-48616028D02*
X64200005Y-52800001D01*
X71512980Y-35617174D02*
X72483979Y-36588173D01*
X64200005Y-52800001D02*
X63900006Y-53100000D01*
X72174520Y-32325480D02*
X72474519Y-32025481D01*
X72174520Y-33725480D02*
X72174520Y-32325480D01*
X69000000Y-38000000D02*
X69000000Y-36900000D01*
X69000000Y-36900000D02*
X72174520Y-33725480D01*
X32750000Y-23550000D02*
X31100000Y-25200000D01*
X68050000Y-23550000D02*
X32750000Y-23550000D01*
X69050000Y-24550000D02*
X68050000Y-23550000D01*
X70575000Y-28750000D02*
X69050000Y-27225000D01*
X69050000Y-27225000D02*
X69050000Y-24550000D01*
X63800000Y-30400000D02*
X60800000Y-30400000D01*
X60800000Y-30400000D02*
X59900000Y-29500000D01*
X34700000Y-57150000D02*
X41850000Y-57150000D01*
X34475000Y-56925000D02*
X34700000Y-57150000D01*
D16*
X34080000Y-43180000D02*
X34080000Y-43980000D01*
D15*
X41881991Y-34050000D02*
X43204010Y-34050000D01*
X43204010Y-34050000D02*
X43254010Y-34100000D01*
X69000000Y-50500000D02*
X69000000Y-50700000D01*
X69000000Y-50500000D02*
X69000000Y-52100000D01*
X60417000Y-59283000D02*
X60417000Y-59583000D01*
X69000000Y-50700000D02*
X60417000Y-59283000D01*
X72631010Y-30931010D02*
X72474519Y-30931010D01*
X69000000Y-42500000D02*
X73100000Y-38400000D01*
X69000000Y-50500000D02*
X69000000Y-42500000D01*
X73700000Y-33300000D02*
X73700000Y-32000000D01*
X73700000Y-32000000D02*
X72631010Y-30931010D01*
X73100000Y-38400000D02*
X73100000Y-33900000D01*
X73100000Y-33900000D02*
X73700000Y-33300000D01*
X79100000Y-42800000D02*
X79100000Y-47724264D01*
X79100000Y-47724264D02*
X73824264Y-53000000D01*
X75800000Y-32400000D02*
X75800000Y-39500000D01*
X75800000Y-39500000D02*
X79100000Y-42800000D01*
X73824264Y-53000000D02*
X73224268Y-53000000D01*
X70600000Y-29600000D02*
X73000000Y-29600000D01*
X73224268Y-53000000D02*
X72800004Y-53000000D01*
X73000000Y-29600000D02*
X75800000Y-32400000D01*
X75491990Y-32527582D02*
X75491990Y-39627582D01*
X78791989Y-42927581D02*
X78791989Y-47556794D01*
X75491990Y-39627582D02*
X78791989Y-42927581D01*
X72872419Y-29908011D02*
X75491990Y-32527582D01*
X71200000Y-30200000D02*
X71624264Y-30200000D01*
X71624264Y-30200000D02*
X71916253Y-29908011D01*
X78791989Y-47556794D02*
X75155897Y-51192886D01*
X71916253Y-29908011D02*
X72872419Y-29908011D01*
X75155897Y-51192886D02*
X74800000Y-51192886D01*
X68075967Y-44624033D02*
X68075967Y-42117254D01*
X68075967Y-42117254D02*
X68256397Y-41936825D01*
X62800000Y-45300000D02*
X67400000Y-45300000D01*
X68256397Y-41936825D02*
X72175968Y-38017256D01*
X72175968Y-38017256D02*
X72175968Y-37375968D01*
X72175968Y-37375968D02*
X71899999Y-37099999D01*
X67400000Y-45300000D02*
X68075967Y-44624033D01*
X59400002Y-45100000D02*
X59800002Y-45500000D01*
X59800002Y-45500000D02*
X62600000Y-45500000D01*
X71899999Y-37099999D02*
X71600000Y-36800000D01*
X62600000Y-45500000D02*
X62800000Y-45300000D01*
X57369919Y-37269919D02*
X57369919Y-36881905D01*
X58500000Y-38400000D02*
X57369919Y-37269919D01*
X57369919Y-36881905D02*
X57369919Y-36457641D01*
X66275736Y-43608000D02*
X66700000Y-43608000D01*
X61100000Y-43300000D02*
X61408000Y-43608000D01*
X61408000Y-43608000D02*
X66275736Y-43608000D01*
X61024264Y-44300000D02*
X67000000Y-44300000D01*
X60400000Y-44500000D02*
X60824264Y-44500000D01*
X60824264Y-44500000D02*
X61024264Y-44300000D01*
X71178271Y-38263990D02*
X71478270Y-37963991D01*
X67351008Y-44913400D02*
X67767957Y-44496451D01*
X62160979Y-44913400D02*
X67351008Y-44913400D01*
X67767957Y-44496451D02*
X67767957Y-41953173D01*
X71178271Y-38542859D02*
X71178271Y-38263990D01*
X67767957Y-41953173D02*
X71178271Y-38542859D01*
X61250000Y-34150000D02*
X59874264Y-34150000D01*
X59874264Y-34150000D02*
X59450000Y-34150000D01*
X65900000Y-28650000D02*
X65900000Y-29500000D01*
X65900000Y-29500000D02*
X61250000Y-34150000D01*
X61239021Y-54128015D02*
X59921023Y-54128015D01*
X59921023Y-54128015D02*
X59845691Y-54203347D01*
G36*
X79798001Y-66798000D02*
G01*
X20202000Y-66798000D01*
X20202000Y-59895201D01*
X51021500Y-59895201D01*
X51021500Y-59999799D01*
X51041906Y-60102387D01*
X51081934Y-60199023D01*
X51140046Y-60285993D01*
X51214007Y-60359954D01*
X51300977Y-60418066D01*
X51397613Y-60458094D01*
X51497114Y-60477886D01*
X51516906Y-60577387D01*
X51556934Y-60674023D01*
X51615046Y-60760993D01*
X51689007Y-60834954D01*
X51775977Y-60893066D01*
X51872613Y-60933094D01*
X51975201Y-60953500D01*
X51981500Y-60953500D01*
X51981500Y-60959799D01*
X52001906Y-61062387D01*
X52041934Y-61159023D01*
X52100046Y-61245993D01*
X52174007Y-61319954D01*
X52260977Y-61378066D01*
X52357613Y-61418094D01*
X52460201Y-61438500D01*
X52564799Y-61438500D01*
X52667387Y-61418094D01*
X52764023Y-61378066D01*
X52850993Y-61319954D01*
X52924954Y-61245993D01*
X52983066Y-61159023D01*
X53023094Y-61062387D01*
X53043500Y-60959799D01*
X53043500Y-60947701D01*
X58869000Y-60947701D01*
X58869000Y-61052299D01*
X58889406Y-61154887D01*
X58929434Y-61251523D01*
X58987546Y-61338493D01*
X59061507Y-61412454D01*
X59148477Y-61470566D01*
X59245113Y-61510594D01*
X59347701Y-61531000D01*
X59452299Y-61531000D01*
X59554887Y-61510594D01*
X59651523Y-61470566D01*
X59738493Y-61412454D01*
X59812454Y-61338493D01*
X59870566Y-61251523D01*
X59910594Y-61154887D01*
X59931000Y-61052299D01*
X59931000Y-60947701D01*
X59910594Y-60845113D01*
X59870566Y-60748477D01*
X59812454Y-60661507D01*
X59738493Y-60587546D01*
X59651523Y-60529434D01*
X59554887Y-60489406D01*
X59452299Y-60469000D01*
X59347701Y-60469000D01*
X59245113Y-60489406D01*
X59148477Y-60529434D01*
X59061507Y-60587546D01*
X58987546Y-60661507D01*
X58929434Y-60748477D01*
X58889406Y-60845113D01*
X58869000Y-60947701D01*
X53043500Y-60947701D01*
X53043500Y-60855201D01*
X53023094Y-60752613D01*
X52983066Y-60655977D01*
X52924954Y-60569007D01*
X52850993Y-60495046D01*
X52764023Y-60436934D01*
X52667387Y-60396906D01*
X52564799Y-60376500D01*
X52558500Y-60376500D01*
X52558500Y-60370201D01*
X52538094Y-60267613D01*
X52498066Y-60170977D01*
X52439954Y-60084007D01*
X52365993Y-60010046D01*
X52279023Y-59951934D01*
X52182387Y-59911906D01*
X52082886Y-59892114D01*
X52063094Y-59792613D01*
X52023066Y-59695977D01*
X51964954Y-59609007D01*
X51890993Y-59535046D01*
X51804023Y-59476934D01*
X51707387Y-59436906D01*
X51604799Y-59416500D01*
X51500201Y-59416500D01*
X51397613Y-59436906D01*
X51300977Y-59476934D01*
X51214007Y-59535046D01*
X51140046Y-59609007D01*
X51081934Y-59695977D01*
X51041906Y-59792613D01*
X51021500Y-59895201D01*
X20202000Y-59895201D01*
X20202000Y-55910000D01*
X22642668Y-55910000D01*
X22663945Y-56126030D01*
X22726959Y-56333758D01*
X22829287Y-56525201D01*
X22966998Y-56693002D01*
X23134799Y-56830713D01*
X23326242Y-56933041D01*
X23533970Y-56996055D01*
X23695863Y-57012000D01*
X23804137Y-57012000D01*
X23966030Y-56996055D01*
X24173758Y-56933041D01*
X24286646Y-56872701D01*
X33944000Y-56872701D01*
X33944000Y-56977299D01*
X33964406Y-57079887D01*
X34004434Y-57176523D01*
X34062546Y-57263493D01*
X34136507Y-57337454D01*
X34223477Y-57395566D01*
X34320113Y-57435594D01*
X34422701Y-57456000D01*
X34527299Y-57456000D01*
X34600030Y-57441533D01*
X34639620Y-57453543D01*
X34645375Y-57454110D01*
X34684872Y-57458000D01*
X34684879Y-57458000D01*
X34699999Y-57459489D01*
X34715119Y-57458000D01*
X41417171Y-57458000D01*
X41437546Y-57488493D01*
X41511507Y-57562454D01*
X41598477Y-57620566D01*
X41695113Y-57660594D01*
X41797701Y-57681000D01*
X41902299Y-57681000D01*
X42004887Y-57660594D01*
X42101523Y-57620566D01*
X42188493Y-57562454D01*
X42262454Y-57488493D01*
X42320566Y-57401523D01*
X42360594Y-57304887D01*
X42381000Y-57202299D01*
X42381000Y-57097701D01*
X42360594Y-56995113D01*
X42320566Y-56898477D01*
X42262454Y-56811507D01*
X42188493Y-56737546D01*
X42101523Y-56679434D01*
X42004887Y-56639406D01*
X41902299Y-56619000D01*
X41797701Y-56619000D01*
X41695113Y-56639406D01*
X41598477Y-56679434D01*
X41511507Y-56737546D01*
X41437546Y-56811507D01*
X41417171Y-56842000D01*
X39744275Y-56842000D01*
X39788493Y-56812454D01*
X39862454Y-56738493D01*
X39920566Y-56651523D01*
X39960594Y-56554887D01*
X39981000Y-56452299D01*
X39981000Y-56347701D01*
X39960594Y-56245113D01*
X39920566Y-56148477D01*
X39862454Y-56061507D01*
X39788493Y-55987546D01*
X39701523Y-55929434D01*
X39630463Y-55900000D01*
X39701523Y-55870566D01*
X39788493Y-55812454D01*
X39862454Y-55738493D01*
X39920566Y-55651523D01*
X39960594Y-55554887D01*
X39981000Y-55452299D01*
X39981000Y-55347701D01*
X39960594Y-55245113D01*
X39920566Y-55148477D01*
X39862454Y-55061507D01*
X39788493Y-54987546D01*
X39701523Y-54929434D01*
X39662464Y-54913255D01*
X39738493Y-54862454D01*
X39812454Y-54788493D01*
X39870566Y-54701523D01*
X39910594Y-54604887D01*
X39931000Y-54502299D01*
X39931000Y-54397701D01*
X39910594Y-54295113D01*
X39870566Y-54198477D01*
X39812454Y-54111507D01*
X39738493Y-54037546D01*
X39651523Y-53979434D01*
X39554887Y-53939406D01*
X39531000Y-53934655D01*
X39531000Y-53897701D01*
X39510594Y-53795113D01*
X39470566Y-53698477D01*
X39412454Y-53611507D01*
X39338493Y-53537546D01*
X39251523Y-53479434D01*
X39154887Y-53439406D01*
X39052299Y-53419000D01*
X38947701Y-53419000D01*
X38845113Y-53439406D01*
X38748477Y-53479434D01*
X38661507Y-53537546D01*
X38587546Y-53611507D01*
X38529434Y-53698477D01*
X38489406Y-53795113D01*
X38469000Y-53897701D01*
X38469000Y-54002299D01*
X38489406Y-54104887D01*
X38529434Y-54201523D01*
X38587546Y-54288493D01*
X38661507Y-54362454D01*
X38748477Y-54420566D01*
X38819537Y-54450000D01*
X38748477Y-54479434D01*
X38661507Y-54537546D01*
X38587546Y-54611507D01*
X38529434Y-54698477D01*
X38489406Y-54795113D01*
X38469000Y-54897701D01*
X38469000Y-55002299D01*
X38489406Y-55104887D01*
X38529434Y-55201523D01*
X38587546Y-55288493D01*
X38661507Y-55362454D01*
X38748477Y-55420566D01*
X38787536Y-55436745D01*
X38711507Y-55487546D01*
X38637546Y-55561507D01*
X38579434Y-55648477D01*
X38539406Y-55745113D01*
X38519000Y-55847701D01*
X38519000Y-55952299D01*
X38539406Y-56054887D01*
X38579434Y-56151523D01*
X38637546Y-56238493D01*
X38711507Y-56312454D01*
X38798477Y-56370566D01*
X38895113Y-56410594D01*
X38919000Y-56415345D01*
X38919000Y-56452299D01*
X38939406Y-56554887D01*
X38979434Y-56651523D01*
X39037546Y-56738493D01*
X39111507Y-56812454D01*
X39155725Y-56842000D01*
X34999893Y-56842000D01*
X34985594Y-56770113D01*
X34945566Y-56673477D01*
X34887454Y-56586507D01*
X34813493Y-56512546D01*
X34726523Y-56454434D01*
X34629887Y-56414406D01*
X34527299Y-56394000D01*
X34422701Y-56394000D01*
X34320113Y-56414406D01*
X34223477Y-56454434D01*
X34136507Y-56512546D01*
X34062546Y-56586507D01*
X34004434Y-56673477D01*
X33964406Y-56770113D01*
X33944000Y-56872701D01*
X24286646Y-56872701D01*
X24365201Y-56830713D01*
X24533002Y-56693002D01*
X24670713Y-56525201D01*
X24773041Y-56333758D01*
X24836055Y-56126030D01*
X24857332Y-55910000D01*
X24836055Y-55693970D01*
X24773041Y-55486242D01*
X24670713Y-55294799D01*
X24533002Y-55126998D01*
X24365201Y-54989287D01*
X24173758Y-54886959D01*
X23966030Y-54823945D01*
X23823002Y-54809858D01*
X23823002Y-54755310D01*
X23963371Y-54790521D01*
X24131052Y-54731975D01*
X24284090Y-54641841D01*
X24416603Y-54523583D01*
X24523499Y-54381745D01*
X24600669Y-54221778D01*
X24630516Y-54123370D01*
X24595103Y-53983000D01*
X23823000Y-53983000D01*
X23823000Y-54003000D01*
X23677000Y-54003000D01*
X23677000Y-53983000D01*
X22904897Y-53983000D01*
X22869484Y-54123370D01*
X22899331Y-54221778D01*
X22976501Y-54381745D01*
X23083397Y-54523583D01*
X23215910Y-54641841D01*
X23368948Y-54731975D01*
X23536629Y-54790521D01*
X23676998Y-54755310D01*
X23676998Y-54809858D01*
X23533970Y-54823945D01*
X23326242Y-54886959D01*
X23134799Y-54989287D01*
X22966998Y-55126998D01*
X22829287Y-55294799D01*
X22726959Y-55486242D01*
X22663945Y-55693970D01*
X22642668Y-55910000D01*
X20202000Y-55910000D01*
X20202000Y-53696630D01*
X22869484Y-53696630D01*
X22904897Y-53837000D01*
X23677000Y-53837000D01*
X23677000Y-53064691D01*
X23823000Y-53064691D01*
X23823000Y-53837000D01*
X24595103Y-53837000D01*
X24630516Y-53696630D01*
X24600669Y-53598222D01*
X24523499Y-53438255D01*
X24416603Y-53296417D01*
X24284090Y-53178159D01*
X24232376Y-53147701D01*
X46269000Y-53147701D01*
X46269000Y-53252299D01*
X46289406Y-53354887D01*
X46329434Y-53451523D01*
X46387546Y-53538493D01*
X46461507Y-53612454D01*
X46548477Y-53670566D01*
X46645113Y-53710594D01*
X46747701Y-53731000D01*
X46852299Y-53731000D01*
X46954887Y-53710594D01*
X47051523Y-53670566D01*
X47138493Y-53612454D01*
X47212454Y-53538493D01*
X47232829Y-53508000D01*
X47374182Y-53508000D01*
X47216998Y-53636998D01*
X47079287Y-53804799D01*
X46976959Y-53996242D01*
X46913945Y-54203970D01*
X46892668Y-54420000D01*
X46913945Y-54636030D01*
X46976959Y-54843758D01*
X47079287Y-55035201D01*
X47216998Y-55203002D01*
X47384799Y-55340713D01*
X47576242Y-55443041D01*
X47783970Y-55506055D01*
X47945863Y-55522000D01*
X48054137Y-55522000D01*
X48216030Y-55506055D01*
X48423758Y-55443041D01*
X48615201Y-55340713D01*
X48783002Y-55203002D01*
X48920713Y-55035201D01*
X49023041Y-54843758D01*
X49086055Y-54636030D01*
X49098475Y-54509931D01*
X49107110Y-54597607D01*
X49158916Y-54768388D01*
X49243044Y-54925782D01*
X49356262Y-55063738D01*
X49494218Y-55176956D01*
X49651612Y-55261084D01*
X49822393Y-55312890D01*
X49955499Y-55326000D01*
X50044501Y-55326000D01*
X50177607Y-55312890D01*
X50348388Y-55261084D01*
X50505782Y-55176956D01*
X50643738Y-55063738D01*
X50756956Y-54925782D01*
X50841084Y-54768388D01*
X50892890Y-54597607D01*
X50910383Y-54420000D01*
X51089617Y-54420000D01*
X51107110Y-54597607D01*
X51158916Y-54768388D01*
X51243044Y-54925782D01*
X51356262Y-55063738D01*
X51494218Y-55176956D01*
X51651612Y-55261084D01*
X51822393Y-55312890D01*
X51955499Y-55326000D01*
X52044501Y-55326000D01*
X52177607Y-55312890D01*
X52348388Y-55261084D01*
X52505782Y-55176956D01*
X52643738Y-55063738D01*
X52756956Y-54925782D01*
X52841084Y-54768388D01*
X52892890Y-54597607D01*
X52910383Y-54420000D01*
X53089617Y-54420000D01*
X53107110Y-54597607D01*
X53158916Y-54768388D01*
X53243044Y-54925782D01*
X53356262Y-55063738D01*
X53494218Y-55176956D01*
X53651612Y-55261084D01*
X53822393Y-55312890D01*
X53955499Y-55326000D01*
X54044501Y-55326000D01*
X54177607Y-55312890D01*
X54348388Y-55261084D01*
X54505782Y-55176956D01*
X54643738Y-55063738D01*
X54756956Y-54925782D01*
X54841084Y-54768388D01*
X54892890Y-54597607D01*
X54910383Y-54420000D01*
X55089617Y-54420000D01*
X55107110Y-54597607D01*
X55158916Y-54768388D01*
X55243044Y-54925782D01*
X55356262Y-55063738D01*
X55494218Y-55176956D01*
X55651612Y-55261084D01*
X55822393Y-55312890D01*
X55955499Y-55326000D01*
X56044501Y-55326000D01*
X56177607Y-55312890D01*
X56348388Y-55261084D01*
X56505782Y-55176956D01*
X56643738Y-55063738D01*
X56756956Y-54925782D01*
X56841084Y-54768388D01*
X56892890Y-54597607D01*
X56910383Y-54420000D01*
X56892890Y-54242393D01*
X56841084Y-54071612D01*
X56756956Y-53914218D01*
X56643738Y-53776262D01*
X56605646Y-53745000D01*
X57092883Y-53745000D01*
X57092883Y-55095000D01*
X57097343Y-55140284D01*
X57110552Y-55183827D01*
X57132002Y-55223957D01*
X57160868Y-55259132D01*
X57196043Y-55287998D01*
X57236173Y-55309448D01*
X57279716Y-55322657D01*
X57325000Y-55327117D01*
X58675000Y-55327117D01*
X58720284Y-55322657D01*
X58763827Y-55309448D01*
X58803957Y-55287998D01*
X58839132Y-55259132D01*
X58867998Y-55223957D01*
X58889448Y-55183827D01*
X58902657Y-55140284D01*
X58907117Y-55095000D01*
X58907117Y-53745000D01*
X58902657Y-53699716D01*
X58889448Y-53656173D01*
X58867998Y-53616043D01*
X58839132Y-53580868D01*
X58803957Y-53552002D01*
X58763827Y-53530552D01*
X58720284Y-53517343D01*
X58675000Y-53512883D01*
X57325000Y-53512883D01*
X57279716Y-53517343D01*
X57236173Y-53530552D01*
X57196043Y-53552002D01*
X57160868Y-53580868D01*
X57132002Y-53616043D01*
X57110552Y-53656173D01*
X57097343Y-53699716D01*
X57092883Y-53745000D01*
X56605646Y-53745000D01*
X56505782Y-53663044D01*
X56348388Y-53578916D01*
X56177607Y-53527110D01*
X56044501Y-53514000D01*
X55955499Y-53514000D01*
X55822393Y-53527110D01*
X55651612Y-53578916D01*
X55494218Y-53663044D01*
X55356262Y-53776262D01*
X55243044Y-53914218D01*
X55158916Y-54071612D01*
X55107110Y-54242393D01*
X55089617Y-54420000D01*
X54910383Y-54420000D01*
X54892890Y-54242393D01*
X54841084Y-54071612D01*
X54756956Y-53914218D01*
X54643738Y-53776262D01*
X54505782Y-53663044D01*
X54348388Y-53578916D01*
X54177607Y-53527110D01*
X54044501Y-53514000D01*
X53955499Y-53514000D01*
X53822393Y-53527110D01*
X53651612Y-53578916D01*
X53494218Y-53663044D01*
X53356262Y-53776262D01*
X53243044Y-53914218D01*
X53158916Y-54071612D01*
X53107110Y-54242393D01*
X53089617Y-54420000D01*
X52910383Y-54420000D01*
X52892890Y-54242393D01*
X52841084Y-54071612D01*
X52756956Y-53914218D01*
X52643738Y-53776262D01*
X52505782Y-53663044D01*
X52348388Y-53578916D01*
X52177607Y-53527110D01*
X52044501Y-53514000D01*
X51955499Y-53514000D01*
X51822393Y-53527110D01*
X51651612Y-53578916D01*
X51494218Y-53663044D01*
X51356262Y-53776262D01*
X51243044Y-53914218D01*
X51158916Y-54071612D01*
X51107110Y-54242393D01*
X51089617Y-54420000D01*
X50910383Y-54420000D01*
X50892890Y-54242393D01*
X50841084Y-54071612D01*
X50756956Y-53914218D01*
X50643738Y-53776262D01*
X50505782Y-53663044D01*
X50348388Y-53578916D01*
X50177607Y-53527110D01*
X50044501Y-53514000D01*
X49955499Y-53514000D01*
X49822393Y-53527110D01*
X49651612Y-53578916D01*
X49494218Y-53663044D01*
X49356262Y-53776262D01*
X49243044Y-53914218D01*
X49158916Y-54071612D01*
X49107110Y-54242393D01*
X49098475Y-54330069D01*
X49086055Y-54203970D01*
X49023041Y-53996242D01*
X48920713Y-53804799D01*
X48783002Y-53636998D01*
X48625818Y-53508000D01*
X59067171Y-53508000D01*
X59087546Y-53538493D01*
X59161507Y-53612454D01*
X59248477Y-53670566D01*
X59345113Y-53710594D01*
X59447701Y-53731000D01*
X59552299Y-53731000D01*
X59641122Y-53713332D01*
X59594168Y-53732781D01*
X59507198Y-53790893D01*
X59433237Y-53864854D01*
X59375125Y-53951824D01*
X59335097Y-54048460D01*
X59314691Y-54151048D01*
X59314691Y-54255646D01*
X59335097Y-54358234D01*
X59375125Y-54454870D01*
X59433237Y-54541840D01*
X59507198Y-54615801D01*
X59594168Y-54673913D01*
X59690804Y-54713941D01*
X59793392Y-54734347D01*
X59897990Y-54734347D01*
X60000578Y-54713941D01*
X60097214Y-54673913D01*
X60184184Y-54615801D01*
X60258145Y-54541840D01*
X60316257Y-54454870D01*
X60324067Y-54436015D01*
X60806192Y-54436015D01*
X60826567Y-54466508D01*
X60900528Y-54540469D01*
X60987498Y-54598581D01*
X61084134Y-54638609D01*
X61186722Y-54659015D01*
X61291320Y-54659015D01*
X61393908Y-54638609D01*
X61490544Y-54598581D01*
X61562265Y-54550658D01*
X61587546Y-54588493D01*
X61661507Y-54662454D01*
X61748477Y-54720566D01*
X61845113Y-54760594D01*
X61947701Y-54781000D01*
X62052299Y-54781000D01*
X62154887Y-54760594D01*
X62251523Y-54720566D01*
X62338493Y-54662454D01*
X62412454Y-54588493D01*
X62470566Y-54501523D01*
X62510594Y-54404887D01*
X62531000Y-54302299D01*
X62531000Y-54197701D01*
X62510594Y-54095113D01*
X62470566Y-53998477D01*
X62412454Y-53911507D01*
X62338493Y-53837546D01*
X62251523Y-53779434D01*
X62154887Y-53739406D01*
X62052299Y-53719000D01*
X61947701Y-53719000D01*
X61845113Y-53739406D01*
X61748477Y-53779434D01*
X61676756Y-53827357D01*
X61651475Y-53789522D01*
X61577514Y-53715561D01*
X61490544Y-53657449D01*
X61393908Y-53617421D01*
X61291320Y-53597015D01*
X61186722Y-53597015D01*
X61084134Y-53617421D01*
X60987498Y-53657449D01*
X60900528Y-53715561D01*
X60826567Y-53789522D01*
X60806192Y-53820015D01*
X60213306Y-53820015D01*
X60184184Y-53790893D01*
X60097214Y-53732781D01*
X60000578Y-53692753D01*
X59897990Y-53672347D01*
X59793392Y-53672347D01*
X59704569Y-53690015D01*
X59751523Y-53670566D01*
X59838493Y-53612454D01*
X59912454Y-53538493D01*
X59970566Y-53451523D01*
X60010594Y-53354887D01*
X60031000Y-53252299D01*
X60031000Y-53147701D01*
X60010594Y-53045113D01*
X59970566Y-52948477D01*
X59912454Y-52861507D01*
X59838493Y-52787546D01*
X59751523Y-52729434D01*
X59654887Y-52689406D01*
X59552299Y-52669000D01*
X59447701Y-52669000D01*
X59345113Y-52689406D01*
X59248477Y-52729434D01*
X59161507Y-52787546D01*
X59087546Y-52861507D01*
X59067171Y-52892000D01*
X47232829Y-52892000D01*
X47212454Y-52861507D01*
X47138493Y-52787546D01*
X47051523Y-52729434D01*
X46954887Y-52689406D01*
X46852299Y-52669000D01*
X46747701Y-52669000D01*
X46645113Y-52689406D01*
X46548477Y-52729434D01*
X46461507Y-52787546D01*
X46387546Y-52861507D01*
X46329434Y-52948477D01*
X46289406Y-53045113D01*
X46269000Y-53147701D01*
X24232376Y-53147701D01*
X24131052Y-53088025D01*
X23963371Y-53029479D01*
X23823000Y-53064691D01*
X23677000Y-53064691D01*
X23536629Y-53029479D01*
X23368948Y-53088025D01*
X23215910Y-53178159D01*
X23083397Y-53296417D01*
X22976501Y-53438255D01*
X22899331Y-53598222D01*
X22869484Y-53696630D01*
X20202000Y-53696630D01*
X20202000Y-51235000D01*
X22842883Y-51235000D01*
X22842883Y-52585000D01*
X22847343Y-52630284D01*
X22860552Y-52673827D01*
X22882002Y-52713957D01*
X22910868Y-52749132D01*
X22946043Y-52777998D01*
X22986173Y-52799448D01*
X23029716Y-52812657D01*
X23075000Y-52817117D01*
X24425000Y-52817117D01*
X24470284Y-52812657D01*
X24513827Y-52799448D01*
X24553957Y-52777998D01*
X24589132Y-52749132D01*
X24617998Y-52713957D01*
X24639448Y-52673827D01*
X24652657Y-52630284D01*
X24657117Y-52585000D01*
X24657117Y-51235000D01*
X24652657Y-51189716D01*
X24639448Y-51146173D01*
X24617998Y-51106043D01*
X24589132Y-51070868D01*
X24553957Y-51042002D01*
X24513827Y-51020552D01*
X24470284Y-51007343D01*
X24425000Y-51002883D01*
X23075000Y-51002883D01*
X23029716Y-51007343D01*
X22986173Y-51020552D01*
X22946043Y-51042002D01*
X22910868Y-51070868D01*
X22882002Y-51106043D01*
X22860552Y-51146173D01*
X22847343Y-51189716D01*
X22842883Y-51235000D01*
X20202000Y-51235000D01*
X20202000Y-45000000D01*
X21577716Y-45000000D01*
X21662150Y-45884236D01*
X21912401Y-46736513D01*
X22319425Y-47526027D01*
X22868509Y-48224245D01*
X23539809Y-48805930D01*
X24309063Y-49250059D01*
X25148467Y-49540580D01*
X26027684Y-49666992D01*
X26914935Y-49624727D01*
X27778154Y-49415312D01*
X28586142Y-49046317D01*
X29309695Y-48531077D01*
X29922663Y-47888214D01*
X30402892Y-47140964D01*
X30677430Y-46455201D01*
X54181500Y-46455201D01*
X54181500Y-46559799D01*
X54201906Y-46662387D01*
X54241934Y-46759023D01*
X54300046Y-46845993D01*
X54351553Y-46897500D01*
X54300046Y-46949007D01*
X54241934Y-47035977D01*
X54201906Y-47132613D01*
X54181500Y-47235201D01*
X54181500Y-47339799D01*
X54201906Y-47442387D01*
X54241934Y-47539023D01*
X54300046Y-47625993D01*
X54336553Y-47662500D01*
X54300046Y-47699007D01*
X54241934Y-47785977D01*
X54201906Y-47882613D01*
X54181500Y-47985201D01*
X54181500Y-48089799D01*
X54201906Y-48192387D01*
X54241934Y-48289023D01*
X54300046Y-48375993D01*
X54374007Y-48449954D01*
X54460977Y-48508066D01*
X54557613Y-48548094D01*
X54660201Y-48568500D01*
X54764799Y-48568500D01*
X54867387Y-48548094D01*
X54964023Y-48508066D01*
X55050993Y-48449954D01*
X55124954Y-48375993D01*
X55183066Y-48289023D01*
X55223094Y-48192387D01*
X55243500Y-48089799D01*
X55243500Y-47985201D01*
X55223094Y-47882613D01*
X55183066Y-47785977D01*
X55124954Y-47699007D01*
X55088447Y-47662500D01*
X55124954Y-47625993D01*
X55183066Y-47539023D01*
X55223094Y-47442387D01*
X55243500Y-47339799D01*
X55243500Y-47235201D01*
X55223094Y-47132613D01*
X55187923Y-47047701D01*
X61919000Y-47047701D01*
X61919000Y-47152299D01*
X61939406Y-47254887D01*
X61979434Y-47351523D01*
X62037546Y-47438493D01*
X62049053Y-47450000D01*
X62037546Y-47461507D01*
X61979434Y-47548477D01*
X61939406Y-47645113D01*
X61919000Y-47747701D01*
X61919000Y-47852299D01*
X61939406Y-47954887D01*
X61979434Y-48051523D01*
X62037546Y-48138493D01*
X62074053Y-48175000D01*
X62037546Y-48211507D01*
X61979434Y-48298477D01*
X61939406Y-48395113D01*
X61919000Y-48497701D01*
X61919000Y-48602299D01*
X61939406Y-48704887D01*
X61979434Y-48801523D01*
X62037546Y-48888493D01*
X62049053Y-48900000D01*
X62037546Y-48911507D01*
X61979434Y-48998477D01*
X61939406Y-49095113D01*
X61919000Y-49197701D01*
X61919000Y-49302299D01*
X61939406Y-49404887D01*
X61979434Y-49501523D01*
X62037546Y-49588493D01*
X62049053Y-49600000D01*
X62037546Y-49611507D01*
X61979434Y-49698477D01*
X61939406Y-49795113D01*
X61919000Y-49897701D01*
X61919000Y-50002299D01*
X61939406Y-50104887D01*
X61979434Y-50201523D01*
X62037546Y-50288493D01*
X62111507Y-50362454D01*
X62198477Y-50420566D01*
X62295113Y-50460594D01*
X62397701Y-50481000D01*
X62502299Y-50481000D01*
X62604887Y-50460594D01*
X62701523Y-50420566D01*
X62788493Y-50362454D01*
X62862454Y-50288493D01*
X62920566Y-50201523D01*
X62960594Y-50104887D01*
X62981000Y-50002299D01*
X62981000Y-49897701D01*
X62960594Y-49795113D01*
X62920566Y-49698477D01*
X62862454Y-49611507D01*
X62850947Y-49600000D01*
X62862454Y-49588493D01*
X62920566Y-49501523D01*
X62960594Y-49404887D01*
X62981000Y-49302299D01*
X62981000Y-49197701D01*
X62960594Y-49095113D01*
X62920566Y-48998477D01*
X62862454Y-48911507D01*
X62850947Y-48900000D01*
X62862454Y-48888493D01*
X62920566Y-48801523D01*
X62960594Y-48704887D01*
X62981000Y-48602299D01*
X62981000Y-48497701D01*
X62960594Y-48395113D01*
X62920566Y-48298477D01*
X62862454Y-48211507D01*
X62825947Y-48175000D01*
X62862454Y-48138493D01*
X62920566Y-48051523D01*
X62960594Y-47954887D01*
X62981000Y-47852299D01*
X62981000Y-47747701D01*
X62960594Y-47645113D01*
X62920566Y-47548477D01*
X62862454Y-47461507D01*
X62850947Y-47450000D01*
X62862454Y-47438493D01*
X62920566Y-47351523D01*
X62960594Y-47254887D01*
X62981000Y-47152299D01*
X62981000Y-47047701D01*
X62960594Y-46945113D01*
X62920566Y-46848477D01*
X62862454Y-46761507D01*
X62788493Y-46687546D01*
X62701523Y-46629434D01*
X62604887Y-46589406D01*
X62502299Y-46569000D01*
X62397701Y-46569000D01*
X62295113Y-46589406D01*
X62198477Y-46629434D01*
X62111507Y-46687546D01*
X62037546Y-46761507D01*
X61979434Y-46848477D01*
X61939406Y-46945113D01*
X61919000Y-47047701D01*
X55187923Y-47047701D01*
X55183066Y-47035977D01*
X55124954Y-46949007D01*
X55073447Y-46897500D01*
X55124954Y-46845993D01*
X55183066Y-46759023D01*
X55223094Y-46662387D01*
X55243500Y-46559799D01*
X55243500Y-46455201D01*
X55223094Y-46352613D01*
X55183066Y-46255977D01*
X55124954Y-46169007D01*
X55050993Y-46095046D01*
X54964023Y-46036934D01*
X54867387Y-45996906D01*
X54764799Y-45976500D01*
X54660201Y-45976500D01*
X54557613Y-45996906D01*
X54460977Y-46036934D01*
X54374007Y-46095046D01*
X54300046Y-46169007D01*
X54241934Y-46255977D01*
X54201906Y-46352613D01*
X54181500Y-46455201D01*
X30677430Y-46455201D01*
X30733024Y-46316335D01*
X30901128Y-45444129D01*
X30901128Y-44555871D01*
X30733024Y-43683665D01*
X30517015Y-43144100D01*
X33349000Y-43144100D01*
X33349000Y-44015901D01*
X33359578Y-44123301D01*
X33401378Y-44261095D01*
X33469257Y-44388086D01*
X33560606Y-44499395D01*
X33650777Y-44573396D01*
X33667546Y-44598493D01*
X33741507Y-44672454D01*
X33828477Y-44730566D01*
X33925113Y-44770594D01*
X34027701Y-44791000D01*
X34132299Y-44791000D01*
X34234887Y-44770594D01*
X34331523Y-44730566D01*
X34418493Y-44672454D01*
X34492454Y-44598493D01*
X34509222Y-44573398D01*
X34599395Y-44499395D01*
X34690744Y-44388086D01*
X34758623Y-44261095D01*
X34800422Y-44123301D01*
X34811000Y-44015901D01*
X34811000Y-43144099D01*
X34800422Y-43036699D01*
X34758623Y-42898905D01*
X34690744Y-42771914D01*
X34599394Y-42660605D01*
X34488085Y-42569256D01*
X34361094Y-42501377D01*
X34223300Y-42459578D01*
X34080000Y-42445464D01*
X33936699Y-42459578D01*
X33798905Y-42501377D01*
X33671914Y-42569256D01*
X33560605Y-42660606D01*
X33469256Y-42771915D01*
X33401377Y-42898906D01*
X33359578Y-43036700D01*
X33349000Y-43144100D01*
X30517015Y-43144100D01*
X30402892Y-42859036D01*
X29922663Y-42111786D01*
X29309695Y-41468923D01*
X28758897Y-41076701D01*
X44969000Y-41076701D01*
X44969000Y-41181299D01*
X44989406Y-41283887D01*
X45029434Y-41380523D01*
X45087546Y-41467493D01*
X45161507Y-41541454D01*
X45248477Y-41599566D01*
X45345113Y-41639594D01*
X45447701Y-41660000D01*
X45552299Y-41660000D01*
X45654887Y-41639594D01*
X45751523Y-41599566D01*
X45838493Y-41541454D01*
X45912454Y-41467493D01*
X45970566Y-41380523D01*
X46010594Y-41283887D01*
X46031000Y-41181299D01*
X46031000Y-41076701D01*
X46010594Y-40974113D01*
X45970566Y-40877477D01*
X45912454Y-40790507D01*
X45838493Y-40716546D01*
X45751523Y-40658434D01*
X45654887Y-40618406D01*
X45552299Y-40598000D01*
X45447701Y-40598000D01*
X45345113Y-40618406D01*
X45248477Y-40658434D01*
X45161507Y-40716546D01*
X45087546Y-40790507D01*
X45029434Y-40877477D01*
X44989406Y-40974113D01*
X44969000Y-41076701D01*
X28758897Y-41076701D01*
X28586142Y-40953683D01*
X27778154Y-40584688D01*
X26914935Y-40375273D01*
X26027684Y-40333008D01*
X25148467Y-40459420D01*
X24309063Y-40749941D01*
X23539809Y-41194070D01*
X22868509Y-41775755D01*
X22319425Y-42473973D01*
X21912401Y-43263487D01*
X21662150Y-44115764D01*
X21577716Y-45000000D01*
X20202000Y-45000000D01*
X20202000Y-40200000D01*
X46892668Y-40200000D01*
X46913945Y-40416030D01*
X46976959Y-40623758D01*
X47079287Y-40815201D01*
X47216998Y-40983002D01*
X47384799Y-41120713D01*
X47576242Y-41223041D01*
X47783970Y-41286055D01*
X47945863Y-41302000D01*
X48054137Y-41302000D01*
X48216030Y-41286055D01*
X48423758Y-41223041D01*
X48615201Y-41120713D01*
X48783002Y-40983002D01*
X48920713Y-40815201D01*
X49023041Y-40623758D01*
X49086055Y-40416030D01*
X49098475Y-40289931D01*
X49107110Y-40377607D01*
X49158916Y-40548388D01*
X49243044Y-40705782D01*
X49356262Y-40843738D01*
X49494218Y-40956956D01*
X49651612Y-41041084D01*
X49822393Y-41092890D01*
X49955499Y-41106000D01*
X50044501Y-41106000D01*
X50177607Y-41092890D01*
X50348388Y-41041084D01*
X50505782Y-40956956D01*
X50643738Y-40843738D01*
X50756956Y-40705782D01*
X50841084Y-40548388D01*
X50892890Y-40377607D01*
X50910383Y-40200000D01*
X51089617Y-40200000D01*
X51107110Y-40377607D01*
X51158916Y-40548388D01*
X51243044Y-40705782D01*
X51356262Y-40843738D01*
X51494218Y-40956956D01*
X51651612Y-41041084D01*
X51822393Y-41092890D01*
X51955499Y-41106000D01*
X52044501Y-41106000D01*
X52177607Y-41092890D01*
X52348388Y-41041084D01*
X52505782Y-40956956D01*
X52643738Y-40843738D01*
X52756956Y-40705782D01*
X52841084Y-40548388D01*
X52892890Y-40377607D01*
X52910383Y-40200000D01*
X53089617Y-40200000D01*
X53107110Y-40377607D01*
X53158916Y-40548388D01*
X53243044Y-40705782D01*
X53356262Y-40843738D01*
X53494218Y-40956956D01*
X53651612Y-41041084D01*
X53822393Y-41092890D01*
X53955499Y-41106000D01*
X54044501Y-41106000D01*
X54177607Y-41092890D01*
X54348388Y-41041084D01*
X54505782Y-40956956D01*
X54643738Y-40843738D01*
X54756956Y-40705782D01*
X54841084Y-40548388D01*
X54892890Y-40377607D01*
X54910383Y-40200000D01*
X55089617Y-40200000D01*
X55107110Y-40377607D01*
X55158916Y-40548388D01*
X55243044Y-40705782D01*
X55356262Y-40843738D01*
X55494218Y-40956956D01*
X55651612Y-41041084D01*
X55822393Y-41092890D01*
X55955499Y-41106000D01*
X56044501Y-41106000D01*
X56177607Y-41092890D01*
X56348388Y-41041084D01*
X56505782Y-40956956D01*
X56643738Y-40843738D01*
X56756956Y-40705782D01*
X56841084Y-40548388D01*
X56892890Y-40377607D01*
X56910383Y-40200000D01*
X56892890Y-40022393D01*
X56841084Y-39851612D01*
X56756956Y-39694218D01*
X56643738Y-39556262D01*
X56505782Y-39443044D01*
X56348388Y-39358916D01*
X56177607Y-39307110D01*
X56044501Y-39294000D01*
X55955499Y-39294000D01*
X55822393Y-39307110D01*
X55651612Y-39358916D01*
X55494218Y-39443044D01*
X55356262Y-39556262D01*
X55243044Y-39694218D01*
X55158916Y-39851612D01*
X55107110Y-40022393D01*
X55089617Y-40200000D01*
X54910383Y-40200000D01*
X54892890Y-40022393D01*
X54841084Y-39851612D01*
X54756956Y-39694218D01*
X54643738Y-39556262D01*
X54505782Y-39443044D01*
X54348388Y-39358916D01*
X54177607Y-39307110D01*
X54044501Y-39294000D01*
X53955499Y-39294000D01*
X53822393Y-39307110D01*
X53651612Y-39358916D01*
X53494218Y-39443044D01*
X53356262Y-39556262D01*
X53243044Y-39694218D01*
X53158916Y-39851612D01*
X53107110Y-40022393D01*
X53089617Y-40200000D01*
X52910383Y-40200000D01*
X52892890Y-40022393D01*
X52841084Y-39851612D01*
X52756956Y-39694218D01*
X52643738Y-39556262D01*
X52505782Y-39443044D01*
X52348388Y-39358916D01*
X52177607Y-39307110D01*
X52044501Y-39294000D01*
X51955499Y-39294000D01*
X51822393Y-39307110D01*
X51651612Y-39358916D01*
X51494218Y-39443044D01*
X51356262Y-39556262D01*
X51243044Y-39694218D01*
X51158916Y-39851612D01*
X51107110Y-40022393D01*
X51089617Y-40200000D01*
X50910383Y-40200000D01*
X50892890Y-40022393D01*
X50841084Y-39851612D01*
X50756956Y-39694218D01*
X50643738Y-39556262D01*
X50505782Y-39443044D01*
X50348388Y-39358916D01*
X50177607Y-39307110D01*
X50044501Y-39294000D01*
X49955499Y-39294000D01*
X49822393Y-39307110D01*
X49651612Y-39358916D01*
X49494218Y-39443044D01*
X49356262Y-39556262D01*
X49243044Y-39694218D01*
X49158916Y-39851612D01*
X49107110Y-40022393D01*
X49098475Y-40110069D01*
X49086055Y-39983970D01*
X49023041Y-39776242D01*
X48920713Y-39584799D01*
X48783002Y-39416998D01*
X48615201Y-39279287D01*
X48423758Y-39176959D01*
X48216030Y-39113945D01*
X48054137Y-39098000D01*
X47945863Y-39098000D01*
X47783970Y-39113945D01*
X47576242Y-39176959D01*
X47384799Y-39279287D01*
X47216998Y-39416998D01*
X47079287Y-39584799D01*
X46976959Y-39776242D01*
X46913945Y-39983970D01*
X46892668Y-40200000D01*
X20202000Y-40200000D01*
X20202000Y-39097701D01*
X39769000Y-39097701D01*
X39769000Y-39202299D01*
X39789406Y-39304887D01*
X39829434Y-39401523D01*
X39887546Y-39488493D01*
X39961507Y-39562454D01*
X40048477Y-39620566D01*
X40145113Y-39660594D01*
X40247701Y-39681000D01*
X40352299Y-39681000D01*
X40454887Y-39660594D01*
X40551523Y-39620566D01*
X40625000Y-39571470D01*
X40698477Y-39620566D01*
X40795113Y-39660594D01*
X40897701Y-39681000D01*
X41002299Y-39681000D01*
X41104887Y-39660594D01*
X41201523Y-39620566D01*
X41275000Y-39571470D01*
X41348477Y-39620566D01*
X41445113Y-39660594D01*
X41547701Y-39681000D01*
X41652299Y-39681000D01*
X41754887Y-39660594D01*
X41851523Y-39620566D01*
X41938493Y-39562454D01*
X42012454Y-39488493D01*
X42070566Y-39401523D01*
X42110594Y-39304887D01*
X42131000Y-39202299D01*
X42131000Y-39097701D01*
X42110594Y-38995113D01*
X42070566Y-38898477D01*
X42012454Y-38811507D01*
X41948648Y-38747701D01*
X46369000Y-38747701D01*
X46369000Y-38852299D01*
X46389406Y-38954887D01*
X46429434Y-39051523D01*
X46487546Y-39138493D01*
X46561507Y-39212454D01*
X46648477Y-39270566D01*
X46745113Y-39310594D01*
X46847701Y-39331000D01*
X46952299Y-39331000D01*
X47054887Y-39310594D01*
X47151523Y-39270566D01*
X47238493Y-39212454D01*
X47312454Y-39138493D01*
X47352207Y-39078999D01*
X57069000Y-39078999D01*
X57069000Y-39123297D01*
X57089406Y-39225885D01*
X57129434Y-39322521D01*
X57157665Y-39364771D01*
X57132002Y-39396043D01*
X57110552Y-39436173D01*
X57097343Y-39479716D01*
X57092883Y-39525000D01*
X57092883Y-40875000D01*
X57097343Y-40920284D01*
X57110552Y-40963827D01*
X57132002Y-41003957D01*
X57160868Y-41039132D01*
X57196043Y-41067998D01*
X57236173Y-41089448D01*
X57279716Y-41102657D01*
X57325000Y-41107117D01*
X58675000Y-41107117D01*
X58720284Y-41102657D01*
X58763827Y-41089448D01*
X58803957Y-41067998D01*
X58839132Y-41039132D01*
X58867998Y-41003957D01*
X58889448Y-40963827D01*
X58902657Y-40920284D01*
X58907117Y-40875000D01*
X58907117Y-39525000D01*
X58902657Y-39479716D01*
X58889448Y-39436173D01*
X58867998Y-39396043D01*
X58839132Y-39360868D01*
X58803957Y-39332002D01*
X58763827Y-39310552D01*
X58720284Y-39297343D01*
X58675000Y-39292883D01*
X58082842Y-39292883D01*
X58110594Y-39225885D01*
X58131000Y-39123297D01*
X58131000Y-39018699D01*
X58110594Y-38916111D01*
X58070566Y-38819475D01*
X58012454Y-38732505D01*
X57938493Y-38658544D01*
X57851523Y-38600432D01*
X57754887Y-38560404D01*
X57652299Y-38539998D01*
X57547701Y-38539998D01*
X57512548Y-38546990D01*
X57471944Y-38513667D01*
X57418438Y-38485068D01*
X57360380Y-38467456D01*
X57315129Y-38462999D01*
X57315121Y-38462999D01*
X57300001Y-38461510D01*
X57284881Y-38462999D01*
X47313451Y-38462999D01*
X47312454Y-38461507D01*
X47238493Y-38387546D01*
X47151523Y-38329434D01*
X47054887Y-38289406D01*
X46952299Y-38269000D01*
X46847701Y-38269000D01*
X46745113Y-38289406D01*
X46648477Y-38329434D01*
X46561507Y-38387546D01*
X46487546Y-38461507D01*
X46429434Y-38548477D01*
X46389406Y-38645113D01*
X46369000Y-38747701D01*
X41948648Y-38747701D01*
X41938493Y-38737546D01*
X41851523Y-38679434D01*
X41818387Y-38665709D01*
X41831000Y-38602299D01*
X41831000Y-38497701D01*
X41810594Y-38395113D01*
X41770566Y-38298477D01*
X41712454Y-38211507D01*
X41638493Y-38137546D01*
X41551523Y-38079434D01*
X41454887Y-38039406D01*
X41352299Y-38019000D01*
X41247701Y-38019000D01*
X41145113Y-38039406D01*
X41048477Y-38079434D01*
X40961507Y-38137546D01*
X40950000Y-38149053D01*
X40938493Y-38137546D01*
X40851523Y-38079434D01*
X40754887Y-38039406D01*
X40652299Y-38019000D01*
X40547701Y-38019000D01*
X40445113Y-38039406D01*
X40348477Y-38079434D01*
X40261507Y-38137546D01*
X40187546Y-38211507D01*
X40129434Y-38298477D01*
X40089406Y-38395113D01*
X40069000Y-38497701D01*
X40069000Y-38602299D01*
X40081613Y-38665709D01*
X40048477Y-38679434D01*
X39961507Y-38737546D01*
X39887546Y-38811507D01*
X39829434Y-38898477D01*
X39789406Y-38995113D01*
X39769000Y-39097701D01*
X20202000Y-39097701D01*
X20202000Y-36405342D01*
X56838919Y-36405342D01*
X56838919Y-36509940D01*
X56859325Y-36612528D01*
X56899353Y-36709164D01*
X56957465Y-36796134D01*
X57031426Y-36870095D01*
X57061919Y-36890470D01*
X57061919Y-37254799D01*
X57060430Y-37269919D01*
X57061919Y-37285039D01*
X57061919Y-37285046D01*
X57064927Y-37315588D01*
X57066376Y-37330298D01*
X57075641Y-37360840D01*
X57083988Y-37388355D01*
X57112587Y-37441861D01*
X57151077Y-37488761D01*
X57162834Y-37498410D01*
X57976155Y-38311732D01*
X57969000Y-38347701D01*
X57969000Y-38452299D01*
X57989406Y-38554887D01*
X58029434Y-38651523D01*
X58087546Y-38738493D01*
X58161507Y-38812454D01*
X58248477Y-38870566D01*
X58345113Y-38910594D01*
X58447701Y-38931000D01*
X58552299Y-38931000D01*
X58654887Y-38910594D01*
X58751523Y-38870566D01*
X58838493Y-38812454D01*
X58912454Y-38738493D01*
X58970566Y-38651523D01*
X59010594Y-38554887D01*
X59031000Y-38452299D01*
X59031000Y-38347701D01*
X59010594Y-38245113D01*
X58970566Y-38148477D01*
X58912454Y-38061507D01*
X58838493Y-37987546D01*
X58751523Y-37929434D01*
X58654887Y-37889406D01*
X58552299Y-37869000D01*
X58447701Y-37869000D01*
X58411732Y-37876155D01*
X57783278Y-37247701D01*
X58069012Y-37247701D01*
X58069012Y-37352299D01*
X58089418Y-37454887D01*
X58129446Y-37551523D01*
X58187558Y-37638493D01*
X58261519Y-37712454D01*
X58348489Y-37770566D01*
X58445125Y-37810594D01*
X58547713Y-37831000D01*
X58652311Y-37831000D01*
X58754899Y-37810594D01*
X58851535Y-37770566D01*
X58938505Y-37712454D01*
X59012466Y-37638493D01*
X59070578Y-37551523D01*
X59110606Y-37454887D01*
X59131012Y-37352299D01*
X59131012Y-37247701D01*
X59110606Y-37145113D01*
X59070578Y-37048477D01*
X59012466Y-36961507D01*
X58938505Y-36887546D01*
X58851535Y-36829434D01*
X58754899Y-36789406D01*
X58652311Y-36769000D01*
X58547713Y-36769000D01*
X58445125Y-36789406D01*
X58348489Y-36829434D01*
X58261519Y-36887546D01*
X58187558Y-36961507D01*
X58129446Y-37048477D01*
X58089418Y-37145113D01*
X58069012Y-37247701D01*
X57783278Y-37247701D01*
X57677919Y-37142343D01*
X57677919Y-36890470D01*
X57708412Y-36870095D01*
X57782373Y-36796134D01*
X57840485Y-36709164D01*
X57880513Y-36612528D01*
X57900919Y-36509940D01*
X57900919Y-36405342D01*
X57880513Y-36302754D01*
X57840485Y-36206118D01*
X57782373Y-36119148D01*
X57708412Y-36045187D01*
X57621442Y-35987075D01*
X57524806Y-35947047D01*
X57422218Y-35926641D01*
X57317620Y-35926641D01*
X57215032Y-35947047D01*
X57118396Y-35987075D01*
X57031426Y-36045187D01*
X56957465Y-36119148D01*
X56899353Y-36206118D01*
X56859325Y-36302754D01*
X56838919Y-36405342D01*
X20202000Y-36405342D01*
X20202000Y-33997701D01*
X41469000Y-33997701D01*
X41469000Y-34102299D01*
X41489406Y-34204887D01*
X41529434Y-34301523D01*
X41587546Y-34388493D01*
X41661507Y-34462454D01*
X41748477Y-34520566D01*
X41845113Y-34560594D01*
X41947701Y-34581000D01*
X42052299Y-34581000D01*
X42154887Y-34560594D01*
X42251523Y-34520566D01*
X42338493Y-34462454D01*
X42412454Y-34388493D01*
X42432829Y-34358000D01*
X42741785Y-34358000D01*
X42795569Y-34438493D01*
X42869530Y-34512454D01*
X42956500Y-34570566D01*
X43053136Y-34610594D01*
X43155724Y-34631000D01*
X43260322Y-34631000D01*
X43362910Y-34610594D01*
X43459546Y-34570566D01*
X43546516Y-34512454D01*
X43620477Y-34438493D01*
X43678589Y-34351523D01*
X43718617Y-34254887D01*
X43739023Y-34152299D01*
X43739023Y-34047701D01*
X43718617Y-33945113D01*
X43678589Y-33848477D01*
X43620477Y-33761507D01*
X43546516Y-33687546D01*
X43459546Y-33629434D01*
X43362910Y-33589406D01*
X43260322Y-33569000D01*
X43155724Y-33569000D01*
X43053136Y-33589406D01*
X42956500Y-33629434D01*
X42869530Y-33687546D01*
X42815076Y-33742000D01*
X42432829Y-33742000D01*
X42412454Y-33711507D01*
X42338493Y-33637546D01*
X42251523Y-33579434D01*
X42154887Y-33539406D01*
X42052299Y-33519000D01*
X41947701Y-33519000D01*
X41845113Y-33539406D01*
X41748477Y-33579434D01*
X41661507Y-33637546D01*
X41587546Y-33711507D01*
X41529434Y-33798477D01*
X41489406Y-33895113D01*
X41469000Y-33997701D01*
X20202000Y-33997701D01*
X20202000Y-30747701D01*
X31119000Y-30747701D01*
X31119000Y-30852299D01*
X31139406Y-30954887D01*
X31179434Y-31051523D01*
X31237546Y-31138493D01*
X31311507Y-31212454D01*
X31398477Y-31270566D01*
X31495113Y-31310594D01*
X31597701Y-31331000D01*
X31702299Y-31331000D01*
X31804887Y-31310594D01*
X31901523Y-31270566D01*
X31988493Y-31212454D01*
X32062454Y-31138493D01*
X32120566Y-31051523D01*
X32160594Y-30954887D01*
X32181000Y-30852299D01*
X32181000Y-30747701D01*
X32160594Y-30645113D01*
X32120566Y-30548477D01*
X32062454Y-30461507D01*
X31988493Y-30387546D01*
X31901523Y-30329434D01*
X31804887Y-30289406D01*
X31702299Y-30269000D01*
X31597701Y-30269000D01*
X31495113Y-30289406D01*
X31398477Y-30329434D01*
X31311507Y-30387546D01*
X31237546Y-30461507D01*
X31179434Y-30548477D01*
X31139406Y-30645113D01*
X31119000Y-30747701D01*
X20202000Y-30747701D01*
X20202000Y-25147701D01*
X30569000Y-25147701D01*
X30569000Y-25252299D01*
X30589406Y-25354887D01*
X30629434Y-25451523D01*
X30687546Y-25538493D01*
X30761507Y-25612454D01*
X30848477Y-25670566D01*
X30945113Y-25710594D01*
X31047701Y-25731000D01*
X31152299Y-25731000D01*
X31254887Y-25710594D01*
X31351523Y-25670566D01*
X31438493Y-25612454D01*
X31512454Y-25538493D01*
X31570566Y-25451523D01*
X31610594Y-25354887D01*
X31631000Y-25252299D01*
X31631000Y-25147701D01*
X31623845Y-25111731D01*
X32877578Y-23858000D01*
X38406423Y-23858000D01*
X33092910Y-29171514D01*
X33081159Y-29181158D01*
X33042669Y-29228057D01*
X33028328Y-29254887D01*
X33014069Y-29281564D01*
X32996457Y-29339621D01*
X32990511Y-29400000D01*
X32992001Y-29415130D01*
X32992000Y-32567171D01*
X32961507Y-32587546D01*
X32887546Y-32661507D01*
X32829434Y-32748477D01*
X32789406Y-32845113D01*
X32769000Y-32947701D01*
X32769000Y-33052299D01*
X32789406Y-33154887D01*
X32829434Y-33251523D01*
X32887546Y-33338493D01*
X32961507Y-33412454D01*
X33048477Y-33470566D01*
X33145113Y-33510594D01*
X33247701Y-33531000D01*
X33352299Y-33531000D01*
X33454887Y-33510594D01*
X33551523Y-33470566D01*
X33638493Y-33412454D01*
X33712454Y-33338493D01*
X33770566Y-33251523D01*
X33810594Y-33154887D01*
X33831000Y-33052299D01*
X33831000Y-32947701D01*
X33810594Y-32845113D01*
X33770566Y-32748477D01*
X33712454Y-32661507D01*
X33638493Y-32587546D01*
X33608000Y-32567171D01*
X33608000Y-29527576D01*
X38969566Y-24166011D01*
X39698412Y-24166011D01*
X35992915Y-27871509D01*
X35981158Y-27881158D01*
X35942668Y-27928058D01*
X35914069Y-27981564D01*
X35896457Y-28039622D01*
X35892000Y-28084873D01*
X35892000Y-28084880D01*
X35890511Y-28100000D01*
X35892000Y-28115120D01*
X35892001Y-32560599D01*
X35892000Y-32560609D01*
X35892000Y-32567171D01*
X35861507Y-32587546D01*
X35787546Y-32661507D01*
X35729434Y-32748477D01*
X35689406Y-32845113D01*
X35669000Y-32947701D01*
X35669000Y-33052299D01*
X35689406Y-33154887D01*
X35729434Y-33251523D01*
X35787546Y-33338493D01*
X35861507Y-33412454D01*
X35948477Y-33470566D01*
X36045113Y-33510594D01*
X36147701Y-33531000D01*
X36252299Y-33531000D01*
X36354887Y-33510594D01*
X36451523Y-33470566D01*
X36538493Y-33412454D01*
X36612454Y-33338493D01*
X36670566Y-33251523D01*
X36710594Y-33154887D01*
X36731000Y-33052299D01*
X36731000Y-32947701D01*
X36710594Y-32845113D01*
X36670566Y-32748477D01*
X36612454Y-32661507D01*
X36538493Y-32587546D01*
X36508000Y-32567171D01*
X36508000Y-28227576D01*
X40235588Y-24499989D01*
X40564433Y-24499989D01*
X38876165Y-26188259D01*
X38864414Y-26197903D01*
X38825924Y-26244802D01*
X38810637Y-26273402D01*
X38797324Y-26298309D01*
X38779712Y-26356366D01*
X38773766Y-26416745D01*
X38775256Y-26431875D01*
X38775255Y-32550426D01*
X38744762Y-32570801D01*
X38670801Y-32644762D01*
X38612689Y-32731732D01*
X38572661Y-32828368D01*
X38552255Y-32930956D01*
X38552255Y-33035554D01*
X38572661Y-33138142D01*
X38612689Y-33234778D01*
X38670801Y-33321748D01*
X38744762Y-33395709D01*
X38831732Y-33453821D01*
X38928368Y-33493849D01*
X39030956Y-33514255D01*
X39135554Y-33514255D01*
X39238142Y-33493849D01*
X39334778Y-33453821D01*
X39421748Y-33395709D01*
X39495709Y-33321748D01*
X39553821Y-33234778D01*
X39593849Y-33138142D01*
X39614255Y-33035554D01*
X39614255Y-32930956D01*
X39593849Y-32828368D01*
X39553821Y-32731732D01*
X39536094Y-32705201D01*
X54081500Y-32705201D01*
X54081500Y-32809799D01*
X54101906Y-32912387D01*
X54141934Y-33009023D01*
X54200046Y-33095993D01*
X54226553Y-33122500D01*
X54200046Y-33149007D01*
X54141934Y-33235977D01*
X54101906Y-33332613D01*
X54081500Y-33435201D01*
X54081500Y-33539799D01*
X54101906Y-33642387D01*
X54141934Y-33739023D01*
X54200046Y-33825993D01*
X54236553Y-33862500D01*
X54200046Y-33899007D01*
X54141934Y-33985977D01*
X54101906Y-34082613D01*
X54081500Y-34185201D01*
X54081500Y-34289799D01*
X54101906Y-34392387D01*
X54141934Y-34489023D01*
X54200046Y-34575993D01*
X54274007Y-34649954D01*
X54360977Y-34708066D01*
X54457613Y-34748094D01*
X54560201Y-34768500D01*
X54664799Y-34768500D01*
X54767387Y-34748094D01*
X54864023Y-34708066D01*
X54950993Y-34649954D01*
X55024954Y-34575993D01*
X55083066Y-34489023D01*
X55123094Y-34392387D01*
X55143500Y-34289799D01*
X55143500Y-34185201D01*
X55123094Y-34082613D01*
X55083066Y-33985977D01*
X55024954Y-33899007D01*
X54988447Y-33862500D01*
X55024954Y-33825993D01*
X55083066Y-33739023D01*
X55123094Y-33642387D01*
X55143500Y-33539799D01*
X55143500Y-33435201D01*
X55123094Y-33332613D01*
X55083066Y-33235977D01*
X55024954Y-33149007D01*
X54998447Y-33122500D01*
X55024954Y-33095993D01*
X55083066Y-33009023D01*
X55123094Y-32912387D01*
X55143500Y-32809799D01*
X55143500Y-32705201D01*
X55123094Y-32602613D01*
X55083066Y-32505977D01*
X55024954Y-32419007D01*
X54950993Y-32345046D01*
X54864023Y-32286934D01*
X54767387Y-32246906D01*
X54664799Y-32226500D01*
X54560201Y-32226500D01*
X54457613Y-32246906D01*
X54360977Y-32286934D01*
X54274007Y-32345046D01*
X54200046Y-32419007D01*
X54141934Y-32505977D01*
X54101906Y-32602613D01*
X54081500Y-32705201D01*
X39536094Y-32705201D01*
X39495709Y-32644762D01*
X39421748Y-32570801D01*
X39391255Y-32550426D01*
X39391255Y-29047701D01*
X44969000Y-29047701D01*
X44969000Y-29152299D01*
X44989406Y-29254887D01*
X45029434Y-29351523D01*
X45087546Y-29438493D01*
X45161507Y-29512454D01*
X45248477Y-29570566D01*
X45345113Y-29610594D01*
X45447701Y-29631000D01*
X45552299Y-29631000D01*
X45654887Y-29610594D01*
X45751523Y-29570566D01*
X45838493Y-29512454D01*
X45912454Y-29438493D01*
X45932829Y-29408000D01*
X48867171Y-29408000D01*
X48887546Y-29438493D01*
X48961507Y-29512454D01*
X49048477Y-29570566D01*
X49145113Y-29610594D01*
X49247701Y-29631000D01*
X49352299Y-29631000D01*
X49454887Y-29610594D01*
X49551523Y-29570566D01*
X49638493Y-29512454D01*
X49712454Y-29438493D01*
X49770566Y-29351523D01*
X49810594Y-29254887D01*
X49831000Y-29152299D01*
X49831000Y-29047701D01*
X49810594Y-28945113D01*
X49770566Y-28848477D01*
X49712454Y-28761507D01*
X49638493Y-28687546D01*
X49551523Y-28629434D01*
X49454887Y-28589406D01*
X49352299Y-28569000D01*
X49247701Y-28569000D01*
X49145113Y-28589406D01*
X49048477Y-28629434D01*
X48961507Y-28687546D01*
X48887546Y-28761507D01*
X48867171Y-28792000D01*
X45932829Y-28792000D01*
X45912454Y-28761507D01*
X45838493Y-28687546D01*
X45751523Y-28629434D01*
X45654887Y-28589406D01*
X45552299Y-28569000D01*
X45447701Y-28569000D01*
X45345113Y-28589406D01*
X45248477Y-28629434D01*
X45161507Y-28687546D01*
X45087546Y-28761507D01*
X45029434Y-28848477D01*
X44989406Y-28945113D01*
X44969000Y-29047701D01*
X39391255Y-29047701D01*
X39391255Y-28197701D01*
X41269000Y-28197701D01*
X41269000Y-28302299D01*
X41289406Y-28404887D01*
X41329434Y-28501523D01*
X41387546Y-28588493D01*
X41461507Y-28662454D01*
X41548477Y-28720566D01*
X41645113Y-28760594D01*
X41747701Y-28781000D01*
X41852299Y-28781000D01*
X41954887Y-28760594D01*
X42051523Y-28720566D01*
X42138493Y-28662454D01*
X42212454Y-28588493D01*
X42270566Y-28501523D01*
X42310594Y-28404887D01*
X42331000Y-28302299D01*
X42331000Y-28197701D01*
X42310594Y-28095113D01*
X42270566Y-27998477D01*
X42212454Y-27911507D01*
X42138493Y-27837546D01*
X42051523Y-27779434D01*
X41954887Y-27739406D01*
X41852299Y-27719000D01*
X41747701Y-27719000D01*
X41645113Y-27739406D01*
X41548477Y-27779434D01*
X41461507Y-27837546D01*
X41387546Y-27911507D01*
X41329434Y-27998477D01*
X41289406Y-28095113D01*
X41269000Y-28197701D01*
X39391255Y-28197701D01*
X39391255Y-26544321D01*
X39655576Y-26280000D01*
X46892668Y-26280000D01*
X46913945Y-26496030D01*
X46976959Y-26703758D01*
X47079287Y-26895201D01*
X47216998Y-27063002D01*
X47384799Y-27200713D01*
X47576242Y-27303041D01*
X47783970Y-27366055D01*
X47945863Y-27382000D01*
X48054137Y-27382000D01*
X48216030Y-27366055D01*
X48423758Y-27303041D01*
X48615201Y-27200713D01*
X48783002Y-27063002D01*
X48920713Y-26895201D01*
X49023041Y-26703758D01*
X49086055Y-26496030D01*
X49098475Y-26369931D01*
X49107110Y-26457607D01*
X49158916Y-26628388D01*
X49243044Y-26785782D01*
X49356262Y-26923738D01*
X49494218Y-27036956D01*
X49651612Y-27121084D01*
X49822393Y-27172890D01*
X49955499Y-27186000D01*
X50044501Y-27186000D01*
X50177607Y-27172890D01*
X50348388Y-27121084D01*
X50505782Y-27036956D01*
X50643738Y-26923738D01*
X50756956Y-26785782D01*
X50841084Y-26628388D01*
X50892890Y-26457607D01*
X50910383Y-26280000D01*
X51089617Y-26280000D01*
X51107110Y-26457607D01*
X51158916Y-26628388D01*
X51243044Y-26785782D01*
X51356262Y-26923738D01*
X51494218Y-27036956D01*
X51651612Y-27121084D01*
X51822393Y-27172890D01*
X51955499Y-27186000D01*
X52044501Y-27186000D01*
X52177607Y-27172890D01*
X52348388Y-27121084D01*
X52505782Y-27036956D01*
X52643738Y-26923738D01*
X52756956Y-26785782D01*
X52841084Y-26628388D01*
X52892890Y-26457607D01*
X52910383Y-26280000D01*
X53089617Y-26280000D01*
X53107110Y-26457607D01*
X53158916Y-26628388D01*
X53243044Y-26785782D01*
X53356262Y-26923738D01*
X53494218Y-27036956D01*
X53651612Y-27121084D01*
X53822393Y-27172890D01*
X53955499Y-27186000D01*
X54044501Y-27186000D01*
X54177607Y-27172890D01*
X54348388Y-27121084D01*
X54505782Y-27036956D01*
X54643738Y-26923738D01*
X54756956Y-26785782D01*
X54841084Y-26628388D01*
X54892890Y-26457607D01*
X54910383Y-26280000D01*
X55089617Y-26280000D01*
X55107110Y-26457607D01*
X55158916Y-26628388D01*
X55243044Y-26785782D01*
X55356262Y-26923738D01*
X55494218Y-27036956D01*
X55651612Y-27121084D01*
X55822393Y-27172890D01*
X55955499Y-27186000D01*
X56044501Y-27186000D01*
X56177607Y-27172890D01*
X56348388Y-27121084D01*
X56505782Y-27036956D01*
X56643738Y-26923738D01*
X56756956Y-26785782D01*
X56841084Y-26628388D01*
X56892890Y-26457607D01*
X56910383Y-26280000D01*
X56892890Y-26102393D01*
X56841084Y-25931612D01*
X56756956Y-25774218D01*
X56643738Y-25636262D01*
X56505782Y-25523044D01*
X56348388Y-25438916D01*
X56177607Y-25387110D01*
X56044501Y-25374000D01*
X55955499Y-25374000D01*
X55822393Y-25387110D01*
X55651612Y-25438916D01*
X55494218Y-25523044D01*
X55356262Y-25636262D01*
X55243044Y-25774218D01*
X55158916Y-25931612D01*
X55107110Y-26102393D01*
X55089617Y-26280000D01*
X54910383Y-26280000D01*
X54892890Y-26102393D01*
X54841084Y-25931612D01*
X54756956Y-25774218D01*
X54643738Y-25636262D01*
X54505782Y-25523044D01*
X54348388Y-25438916D01*
X54177607Y-25387110D01*
X54044501Y-25374000D01*
X53955499Y-25374000D01*
X53822393Y-25387110D01*
X53651612Y-25438916D01*
X53494218Y-25523044D01*
X53356262Y-25636262D01*
X53243044Y-25774218D01*
X53158916Y-25931612D01*
X53107110Y-26102393D01*
X53089617Y-26280000D01*
X52910383Y-26280000D01*
X52892890Y-26102393D01*
X52841084Y-25931612D01*
X52756956Y-25774218D01*
X52643738Y-25636262D01*
X52505782Y-25523044D01*
X52348388Y-25438916D01*
X52177607Y-25387110D01*
X52044501Y-25374000D01*
X51955499Y-25374000D01*
X51822393Y-25387110D01*
X51651612Y-25438916D01*
X51494218Y-25523044D01*
X51356262Y-25636262D01*
X51243044Y-25774218D01*
X51158916Y-25931612D01*
X51107110Y-26102393D01*
X51089617Y-26280000D01*
X50910383Y-26280000D01*
X50892890Y-26102393D01*
X50841084Y-25931612D01*
X50756956Y-25774218D01*
X50643738Y-25636262D01*
X50505782Y-25523044D01*
X50348388Y-25438916D01*
X50177607Y-25387110D01*
X50044501Y-25374000D01*
X49955499Y-25374000D01*
X49822393Y-25387110D01*
X49651612Y-25438916D01*
X49494218Y-25523044D01*
X49356262Y-25636262D01*
X49243044Y-25774218D01*
X49158916Y-25931612D01*
X49107110Y-26102393D01*
X49098475Y-26190069D01*
X49086055Y-26063970D01*
X49023041Y-25856242D01*
X48920713Y-25664799D01*
X48783002Y-25496998D01*
X48615201Y-25359287D01*
X48423758Y-25256959D01*
X48216030Y-25193945D01*
X48054137Y-25178000D01*
X47945863Y-25178000D01*
X47783970Y-25193945D01*
X47576242Y-25256959D01*
X47384799Y-25359287D01*
X47216998Y-25496998D01*
X47079287Y-25664799D01*
X46976959Y-25856242D01*
X46913945Y-26063970D01*
X46892668Y-26280000D01*
X39655576Y-26280000D01*
X40874011Y-25061566D01*
X40839406Y-25145111D01*
X40819000Y-25247699D01*
X40819000Y-25352297D01*
X40839406Y-25454885D01*
X40879434Y-25551521D01*
X40937546Y-25638491D01*
X41011507Y-25712452D01*
X41098477Y-25770564D01*
X41195113Y-25810592D01*
X41297701Y-25830998D01*
X41402299Y-25830998D01*
X41504887Y-25810592D01*
X41601523Y-25770564D01*
X41688493Y-25712452D01*
X41762454Y-25638491D01*
X41820566Y-25551521D01*
X41860594Y-25454885D01*
X41881000Y-25352297D01*
X41881000Y-25247699D01*
X41873845Y-25211729D01*
X41927575Y-25158000D01*
X58208226Y-25158000D01*
X58423109Y-25372883D01*
X57325000Y-25372883D01*
X57279716Y-25377343D01*
X57236173Y-25390552D01*
X57196043Y-25412002D01*
X57160868Y-25440868D01*
X57132002Y-25476043D01*
X57110552Y-25516173D01*
X57097343Y-25559716D01*
X57092883Y-25605000D01*
X57092883Y-26955000D01*
X57097343Y-27000284D01*
X57110552Y-27043827D01*
X57132002Y-27083957D01*
X57160868Y-27119132D01*
X57196043Y-27147998D01*
X57236173Y-27169448D01*
X57279716Y-27182657D01*
X57325000Y-27187117D01*
X58675000Y-27187117D01*
X58720284Y-27182657D01*
X58763827Y-27169448D01*
X58792001Y-27154389D01*
X58792000Y-29534880D01*
X58790511Y-29550000D01*
X58792000Y-29565120D01*
X58792000Y-29565127D01*
X58795289Y-29598522D01*
X58796457Y-29610379D01*
X58800007Y-29622080D01*
X58814069Y-29668436D01*
X58842668Y-29721942D01*
X58881158Y-29768842D01*
X58892915Y-29778491D01*
X60421514Y-31307091D01*
X60431158Y-31318842D01*
X60478057Y-31357332D01*
X60531563Y-31385931D01*
X60589620Y-31403543D01*
X60595375Y-31404110D01*
X60634872Y-31408000D01*
X60634879Y-31408000D01*
X60649999Y-31409489D01*
X60665119Y-31408000D01*
X61317171Y-31408000D01*
X61337546Y-31438493D01*
X61411507Y-31512454D01*
X61498477Y-31570566D01*
X61595113Y-31610594D01*
X61697701Y-31631000D01*
X61802299Y-31631000D01*
X61904887Y-31610594D01*
X62001523Y-31570566D01*
X62088493Y-31512454D01*
X62162454Y-31438493D01*
X62220566Y-31351523D01*
X62260594Y-31254887D01*
X62281000Y-31152299D01*
X62281000Y-31047701D01*
X62260594Y-30945113D01*
X62220566Y-30848477D01*
X62162454Y-30761507D01*
X62108947Y-30708000D01*
X63467171Y-30708000D01*
X63487546Y-30738493D01*
X63561507Y-30812454D01*
X63648477Y-30870566D01*
X63745113Y-30910594D01*
X63847701Y-30931000D01*
X63952299Y-30931000D01*
X64053567Y-30910857D01*
X61122424Y-33842000D01*
X59882829Y-33842000D01*
X59862454Y-33811507D01*
X59788493Y-33737546D01*
X59701523Y-33679434D01*
X59604887Y-33639406D01*
X59502299Y-33619000D01*
X59397701Y-33619000D01*
X59295113Y-33639406D01*
X59198477Y-33679434D01*
X59111507Y-33737546D01*
X59037546Y-33811507D01*
X58979434Y-33898477D01*
X58939406Y-33995113D01*
X58919000Y-34097701D01*
X58919000Y-34202299D01*
X58939406Y-34304887D01*
X58979434Y-34401523D01*
X59037546Y-34488493D01*
X59111507Y-34562454D01*
X59198477Y-34620566D01*
X59295113Y-34660594D01*
X59397701Y-34681000D01*
X59502299Y-34681000D01*
X59604887Y-34660594D01*
X59701523Y-34620566D01*
X59788493Y-34562454D01*
X59862454Y-34488493D01*
X59882829Y-34458000D01*
X61234880Y-34458000D01*
X61250000Y-34459489D01*
X61265120Y-34458000D01*
X61265128Y-34458000D01*
X61310379Y-34453543D01*
X61368437Y-34435931D01*
X61421943Y-34407332D01*
X61468842Y-34368842D01*
X61478491Y-34357085D01*
X66107091Y-29728486D01*
X66118842Y-29718842D01*
X66157332Y-29671943D01*
X66185931Y-29618437D01*
X66191972Y-29598522D01*
X66203543Y-29560380D01*
X66204792Y-29547701D01*
X66208000Y-29515128D01*
X66208000Y-29515121D01*
X66209489Y-29500001D01*
X66208000Y-29484881D01*
X66208000Y-29082829D01*
X66238493Y-29062454D01*
X66312454Y-28988493D01*
X66370566Y-28901523D01*
X66410594Y-28804887D01*
X66431000Y-28702299D01*
X66431000Y-28597701D01*
X66410594Y-28495113D01*
X66370566Y-28398477D01*
X66312454Y-28311507D01*
X66238493Y-28237546D01*
X66151523Y-28179434D01*
X66054887Y-28139406D01*
X65952299Y-28119000D01*
X65847701Y-28119000D01*
X65745113Y-28139406D01*
X65648477Y-28179434D01*
X65561507Y-28237546D01*
X65487546Y-28311507D01*
X65429434Y-28398477D01*
X65389406Y-28495113D01*
X65369000Y-28597701D01*
X65369000Y-28702299D01*
X65389406Y-28804887D01*
X65429434Y-28901523D01*
X65487546Y-28988493D01*
X65561507Y-29062454D01*
X65592001Y-29082829D01*
X65592001Y-29372422D01*
X64410857Y-30553567D01*
X64431000Y-30452299D01*
X64431000Y-30347701D01*
X64410594Y-30245113D01*
X64370566Y-30148477D01*
X64312454Y-30061507D01*
X64238493Y-29987546D01*
X64151523Y-29929434D01*
X64054887Y-29889406D01*
X63952299Y-29869000D01*
X63847701Y-29869000D01*
X63745113Y-29889406D01*
X63648477Y-29929434D01*
X63561507Y-29987546D01*
X63487546Y-30061507D01*
X63467171Y-30092000D01*
X60927577Y-30092000D01*
X60423845Y-29588269D01*
X60431000Y-29552299D01*
X60431000Y-29447701D01*
X60410594Y-29345113D01*
X60370566Y-29248477D01*
X60312454Y-29161507D01*
X60238493Y-29087546D01*
X60151523Y-29029434D01*
X60054887Y-28989406D01*
X59952299Y-28969000D01*
X59847701Y-28969000D01*
X59745113Y-28989406D01*
X59648477Y-29029434D01*
X59561507Y-29087546D01*
X59487546Y-29161507D01*
X59429434Y-29248477D01*
X59408000Y-29300223D01*
X59408000Y-25643025D01*
X59414741Y-25648557D01*
X59420945Y-25663536D01*
X59479057Y-25750506D01*
X59553018Y-25824467D01*
X59639988Y-25882579D01*
X59736624Y-25922607D01*
X59839212Y-25943013D01*
X59943810Y-25943013D01*
X60046398Y-25922607D01*
X60143034Y-25882579D01*
X60230004Y-25824467D01*
X60303965Y-25750506D01*
X60362077Y-25663536D01*
X60402105Y-25566900D01*
X60422511Y-25464312D01*
X60422511Y-25359714D01*
X60402105Y-25257126D01*
X60362077Y-25160490D01*
X60303965Y-25073520D01*
X60230004Y-24999559D01*
X60143034Y-24941447D01*
X60046398Y-24901419D01*
X59943810Y-24881013D01*
X59900944Y-24881013D01*
X59912454Y-24869503D01*
X59970566Y-24782533D01*
X59988438Y-24739387D01*
X60011507Y-24762456D01*
X60098477Y-24820568D01*
X60195113Y-24860596D01*
X60297701Y-24881002D01*
X60402299Y-24881002D01*
X60504887Y-24860596D01*
X60601523Y-24820568D01*
X60688493Y-24762456D01*
X60762454Y-24688495D01*
X60820566Y-24601525D01*
X60860594Y-24504889D01*
X60881000Y-24402301D01*
X60881000Y-24297703D01*
X60860594Y-24195115D01*
X60820566Y-24098479D01*
X60762454Y-24011509D01*
X60688493Y-23937548D01*
X60601523Y-23879436D01*
X60549772Y-23858000D01*
X67922424Y-23858000D01*
X68742001Y-24677579D01*
X68742000Y-27209880D01*
X68740511Y-27225000D01*
X68742000Y-27240120D01*
X68742000Y-27240127D01*
X68746457Y-27285378D01*
X68764069Y-27343436D01*
X68792668Y-27396942D01*
X68831158Y-27443842D01*
X68842915Y-27453491D01*
X70051155Y-28661732D01*
X70044000Y-28697701D01*
X70044000Y-28802299D01*
X70064406Y-28904887D01*
X70104434Y-29001523D01*
X70162546Y-29088493D01*
X70236507Y-29162454D01*
X70267783Y-29183352D01*
X70261507Y-29187546D01*
X70187546Y-29261507D01*
X70129434Y-29348477D01*
X70099231Y-29421395D01*
X68880438Y-28202603D01*
X68887593Y-28166633D01*
X68887593Y-28062035D01*
X68867187Y-27959447D01*
X68827159Y-27862811D01*
X68769047Y-27775841D01*
X68695086Y-27701880D01*
X68608116Y-27643768D01*
X68511480Y-27603740D01*
X68408892Y-27583334D01*
X68304294Y-27583334D01*
X68201706Y-27603740D01*
X68105070Y-27643768D01*
X68018100Y-27701880D01*
X67944139Y-27775841D01*
X67887537Y-27860551D01*
X67910594Y-27804887D01*
X67931000Y-27702299D01*
X67931000Y-27597701D01*
X67910594Y-27495113D01*
X67870566Y-27398477D01*
X67812454Y-27311507D01*
X67738493Y-27237546D01*
X67651523Y-27179434D01*
X67554887Y-27139406D01*
X67452299Y-27119000D01*
X67347701Y-27119000D01*
X67245113Y-27139406D01*
X67148477Y-27179434D01*
X67061507Y-27237546D01*
X66987546Y-27311507D01*
X66929434Y-27398477D01*
X66889406Y-27495113D01*
X66869000Y-27597701D01*
X66869000Y-27702299D01*
X66889406Y-27804887D01*
X66929434Y-27901523D01*
X66987546Y-27988493D01*
X67061507Y-28062454D01*
X67148477Y-28120566D01*
X67245113Y-28160594D01*
X67347701Y-28181000D01*
X67452299Y-28181000D01*
X67554887Y-28160594D01*
X67651523Y-28120566D01*
X67738493Y-28062454D01*
X67812454Y-27988493D01*
X67869056Y-27903783D01*
X67845999Y-27959447D01*
X67825593Y-28062035D01*
X67825593Y-28166633D01*
X67845999Y-28269221D01*
X67886027Y-28365857D01*
X67944139Y-28452827D01*
X68018100Y-28526788D01*
X68105070Y-28584900D01*
X68201706Y-28624928D01*
X68304294Y-28645334D01*
X68408892Y-28645334D01*
X68444862Y-28638179D01*
X71475789Y-31669108D01*
X71485429Y-31680854D01*
X71497175Y-31690494D01*
X71497179Y-31690498D01*
X71512552Y-31703114D01*
X71532328Y-31719344D01*
X71585834Y-31747943D01*
X71643892Y-31765555D01*
X71689143Y-31770012D01*
X71689151Y-31770012D01*
X71704271Y-31771501D01*
X71719391Y-31770012D01*
X72006590Y-31770012D01*
X72003953Y-31773958D01*
X71963925Y-31870594D01*
X71943519Y-31973182D01*
X71943519Y-32077780D01*
X71950512Y-32112934D01*
X71917189Y-32153537D01*
X71907352Y-32171942D01*
X71888589Y-32207044D01*
X71870977Y-32265101D01*
X71865031Y-32325480D01*
X71866521Y-32340610D01*
X71866520Y-33597903D01*
X68792910Y-36671514D01*
X68781159Y-36681158D01*
X68742669Y-36728057D01*
X68736748Y-36739135D01*
X68714069Y-36781564D01*
X68696457Y-36839621D01*
X68690511Y-36900000D01*
X68692001Y-36915130D01*
X68692000Y-37567171D01*
X68661507Y-37587546D01*
X68587546Y-37661507D01*
X68529434Y-37748477D01*
X68489406Y-37845113D01*
X68469000Y-37947701D01*
X68469000Y-38052299D01*
X68489406Y-38154887D01*
X68529434Y-38251523D01*
X68587546Y-38338493D01*
X68661507Y-38412454D01*
X68748477Y-38470566D01*
X68845113Y-38510594D01*
X68947701Y-38531000D01*
X69052299Y-38531000D01*
X69154887Y-38510594D01*
X69251523Y-38470566D01*
X69338493Y-38412454D01*
X69412454Y-38338493D01*
X69470566Y-38251523D01*
X69510594Y-38154887D01*
X69531000Y-38052299D01*
X69531000Y-37947701D01*
X69510594Y-37845113D01*
X69470566Y-37748477D01*
X69412454Y-37661507D01*
X69338493Y-37587546D01*
X69308000Y-37567171D01*
X69308000Y-37027576D01*
X69592001Y-36743576D01*
X69592001Y-36767171D01*
X69561507Y-36787546D01*
X69487546Y-36861507D01*
X69429434Y-36948477D01*
X69389406Y-37045113D01*
X69369000Y-37147701D01*
X69369000Y-37252299D01*
X69389406Y-37354887D01*
X69429434Y-37451523D01*
X69487546Y-37538493D01*
X69561507Y-37612454D01*
X69648477Y-37670566D01*
X69745113Y-37710594D01*
X69847701Y-37731000D01*
X69952299Y-37731000D01*
X70054887Y-37710594D01*
X70151523Y-37670566D01*
X70238493Y-37612454D01*
X70312454Y-37538493D01*
X70370566Y-37451523D01*
X70410594Y-37354887D01*
X70431000Y-37252299D01*
X70431000Y-37147701D01*
X70410594Y-37045113D01*
X70370566Y-36948477D01*
X70312454Y-36861507D01*
X70238493Y-36787546D01*
X70208000Y-36767171D01*
X70208000Y-36563169D01*
X71001842Y-35769327D01*
X71002386Y-35772061D01*
X71042414Y-35868697D01*
X71100526Y-35955667D01*
X71174487Y-36029628D01*
X71261457Y-36087740D01*
X71358093Y-36127768D01*
X71460681Y-36148174D01*
X71565279Y-36148174D01*
X71601249Y-36141019D01*
X71748331Y-36288102D01*
X71652299Y-36269000D01*
X71547701Y-36269000D01*
X71445113Y-36289406D01*
X71348477Y-36329434D01*
X71261507Y-36387546D01*
X71187546Y-36461507D01*
X71129434Y-36548477D01*
X71089406Y-36645113D01*
X71069000Y-36747701D01*
X71069000Y-36852299D01*
X71089406Y-36954887D01*
X71129434Y-37051523D01*
X71187546Y-37138493D01*
X71261507Y-37212454D01*
X71348477Y-37270566D01*
X71445113Y-37310594D01*
X71547701Y-37331000D01*
X71652299Y-37331000D01*
X71688267Y-37323845D01*
X71692907Y-37328485D01*
X71692918Y-37328494D01*
X71867969Y-37503545D01*
X71867969Y-37602743D01*
X71816763Y-37551537D01*
X71729793Y-37493425D01*
X71633157Y-37453397D01*
X71530569Y-37432991D01*
X71425971Y-37432991D01*
X71323383Y-37453397D01*
X71226747Y-37493425D01*
X71139777Y-37551537D01*
X71065816Y-37625498D01*
X71007704Y-37712468D01*
X70967676Y-37809104D01*
X70947270Y-37911692D01*
X70947270Y-38016290D01*
X70954263Y-38051444D01*
X70920940Y-38092047D01*
X70892340Y-38145553D01*
X70874728Y-38203611D01*
X70870271Y-38248862D01*
X70870271Y-38248870D01*
X70868782Y-38263990D01*
X70870271Y-38279110D01*
X70870271Y-38415282D01*
X67560867Y-41724687D01*
X67549116Y-41734331D01*
X67510626Y-41781230D01*
X67496700Y-41807284D01*
X67482026Y-41834737D01*
X67464414Y-41892794D01*
X67458468Y-41953173D01*
X67459958Y-41968303D01*
X67459957Y-44032600D01*
X67412454Y-43961507D01*
X67338493Y-43887546D01*
X67251523Y-43829434D01*
X67193060Y-43805218D01*
X67210594Y-43762887D01*
X67231000Y-43660299D01*
X67231000Y-43555701D01*
X67210594Y-43453113D01*
X67170566Y-43356477D01*
X67112454Y-43269507D01*
X67038493Y-43195546D01*
X66951523Y-43137434D01*
X66854887Y-43097406D01*
X66752299Y-43077000D01*
X66647701Y-43077000D01*
X66545113Y-43097406D01*
X66448477Y-43137434D01*
X66361507Y-43195546D01*
X66287546Y-43269507D01*
X66267171Y-43300000D01*
X63638174Y-43300000D01*
X63670566Y-43251523D01*
X63710594Y-43154887D01*
X63731000Y-43052299D01*
X63731000Y-42947701D01*
X63723845Y-42911733D01*
X63728485Y-42907093D01*
X63728494Y-42907082D01*
X64344663Y-42290914D01*
X64364941Y-42392857D01*
X64404969Y-42489493D01*
X64463081Y-42576463D01*
X64537042Y-42650424D01*
X64624012Y-42708536D01*
X64720648Y-42748564D01*
X64823236Y-42768970D01*
X64927834Y-42768970D01*
X65030422Y-42748564D01*
X65127058Y-42708536D01*
X65214028Y-42650424D01*
X65287989Y-42576463D01*
X65346101Y-42489493D01*
X65386129Y-42392857D01*
X65406535Y-42290269D01*
X65406535Y-42185671D01*
X65399380Y-42149701D01*
X65451380Y-42097701D01*
X66369000Y-42097701D01*
X66369000Y-42202299D01*
X66389406Y-42304887D01*
X66429434Y-42401523D01*
X66487546Y-42488493D01*
X66561507Y-42562454D01*
X66648477Y-42620566D01*
X66745113Y-42660594D01*
X66847701Y-42681000D01*
X66952299Y-42681000D01*
X67054887Y-42660594D01*
X67151523Y-42620566D01*
X67238493Y-42562454D01*
X67312454Y-42488493D01*
X67370566Y-42401523D01*
X67410594Y-42304887D01*
X67431000Y-42202299D01*
X67431000Y-42097701D01*
X67410594Y-41995113D01*
X67370566Y-41898477D01*
X67312454Y-41811507D01*
X67238493Y-41737546D01*
X67151523Y-41679434D01*
X67054887Y-41639406D01*
X66952299Y-41619000D01*
X66847701Y-41619000D01*
X66745113Y-41639406D01*
X66648477Y-41679434D01*
X66561507Y-41737546D01*
X66487546Y-41811507D01*
X66429434Y-41898477D01*
X66389406Y-41995113D01*
X66369000Y-42097701D01*
X65451380Y-42097701D01*
X68021353Y-39527729D01*
X68078818Y-39551532D01*
X68181406Y-39571938D01*
X68286004Y-39571938D01*
X68388592Y-39551532D01*
X68485228Y-39511504D01*
X68572198Y-39453392D01*
X68646159Y-39379431D01*
X68704271Y-39292461D01*
X68744299Y-39195825D01*
X68764705Y-39093237D01*
X68764705Y-38988639D01*
X68744299Y-38886051D01*
X68704271Y-38789415D01*
X68646159Y-38702445D01*
X68572198Y-38628484D01*
X68485228Y-38570372D01*
X68388592Y-38530344D01*
X68286004Y-38509938D01*
X68181406Y-38509938D01*
X68078818Y-38530344D01*
X67982182Y-38570372D01*
X67895212Y-38628484D01*
X67821251Y-38702445D01*
X67763139Y-38789415D01*
X67723111Y-38886051D01*
X67706036Y-38971892D01*
X64963804Y-41714125D01*
X64927834Y-41706970D01*
X64823236Y-41706970D01*
X64720648Y-41727376D01*
X64684777Y-41742234D01*
X64684777Y-37109606D01*
X64715270Y-37089231D01*
X64789231Y-37015270D01*
X64847343Y-36928300D01*
X64887371Y-36831664D01*
X64907777Y-36729076D01*
X64907777Y-36624478D01*
X64887371Y-36521890D01*
X64847343Y-36425254D01*
X64789231Y-36338284D01*
X64715270Y-36264323D01*
X64628300Y-36206211D01*
X64531664Y-36166183D01*
X64429076Y-36145777D01*
X64324478Y-36145777D01*
X64221890Y-36166183D01*
X64125254Y-36206211D01*
X64038284Y-36264323D01*
X63964323Y-36338284D01*
X63906211Y-36425254D01*
X63866183Y-36521890D01*
X63845777Y-36624478D01*
X63845777Y-36729076D01*
X63866183Y-36831664D01*
X63906211Y-36928300D01*
X63964323Y-37015270D01*
X64038284Y-37089231D01*
X64068777Y-37109606D01*
X64068778Y-41695644D01*
X63292918Y-42471506D01*
X63292907Y-42471515D01*
X63288267Y-42476155D01*
X63252299Y-42469000D01*
X63147701Y-42469000D01*
X63045113Y-42489406D01*
X62948477Y-42529434D01*
X62861507Y-42587546D01*
X62787546Y-42661507D01*
X62729434Y-42748477D01*
X62689406Y-42845113D01*
X62669000Y-42947701D01*
X62669000Y-43052299D01*
X62689406Y-43154887D01*
X62729434Y-43251523D01*
X62761826Y-43300000D01*
X61631000Y-43300000D01*
X61631000Y-43247701D01*
X61610594Y-43145113D01*
X61570566Y-43048477D01*
X61512454Y-42961507D01*
X61438493Y-42887546D01*
X61351523Y-42829434D01*
X61254887Y-42789406D01*
X61152299Y-42769000D01*
X61047701Y-42769000D01*
X60945113Y-42789406D01*
X60848477Y-42829434D01*
X60761507Y-42887546D01*
X60687546Y-42961507D01*
X60629434Y-43048477D01*
X60589406Y-43145113D01*
X60569000Y-43247701D01*
X60569000Y-43352299D01*
X60589406Y-43454887D01*
X60629434Y-43551523D01*
X60687546Y-43638493D01*
X60761507Y-43712454D01*
X60848477Y-43770566D01*
X60945113Y-43810594D01*
X61047701Y-43831000D01*
X61152299Y-43831000D01*
X61186919Y-43824114D01*
X61189158Y-43826842D01*
X61200904Y-43836482D01*
X61200908Y-43836486D01*
X61214385Y-43847546D01*
X61236057Y-43865332D01*
X61289563Y-43893931D01*
X61347621Y-43911543D01*
X61392872Y-43916000D01*
X61392880Y-43916000D01*
X61408000Y-43917489D01*
X61423120Y-43916000D01*
X66267171Y-43916000D01*
X66287546Y-43946493D01*
X66333053Y-43992000D01*
X61039384Y-43992000D01*
X61024264Y-43990511D01*
X61009144Y-43992000D01*
X61009136Y-43992000D01*
X60963885Y-43996457D01*
X60905827Y-44014069D01*
X60852321Y-44042668D01*
X60805422Y-44081158D01*
X60795777Y-44092910D01*
X60769817Y-44118870D01*
X60738493Y-44087546D01*
X60651523Y-44029434D01*
X60554887Y-43989406D01*
X60452299Y-43969000D01*
X60347701Y-43969000D01*
X60245113Y-43989406D01*
X60148477Y-44029434D01*
X60061507Y-44087546D01*
X59987546Y-44161507D01*
X59929434Y-44248477D01*
X59889406Y-44345113D01*
X59869000Y-44447701D01*
X59869000Y-44552299D01*
X59889406Y-44654887D01*
X59929434Y-44751523D01*
X59987546Y-44838493D01*
X60061507Y-44912454D01*
X60148477Y-44970566D01*
X60245113Y-45010594D01*
X60347701Y-45031000D01*
X60452299Y-45031000D01*
X60554887Y-45010594D01*
X60651523Y-44970566D01*
X60738493Y-44912454D01*
X60812454Y-44838493D01*
X60832367Y-44808691D01*
X60839384Y-44808000D01*
X60839392Y-44808000D01*
X60884643Y-44803543D01*
X60942701Y-44785931D01*
X60996207Y-44757332D01*
X61043106Y-44718842D01*
X61052754Y-44707086D01*
X61151841Y-44608000D01*
X61726413Y-44608000D01*
X61690413Y-44661877D01*
X61650385Y-44758513D01*
X61629979Y-44861101D01*
X61629979Y-44965699D01*
X61650385Y-45068287D01*
X61690413Y-45164923D01*
X61708505Y-45192000D01*
X59927580Y-45192000D01*
X59923847Y-45188268D01*
X59931002Y-45152299D01*
X59931002Y-45047701D01*
X59910596Y-44945113D01*
X59870568Y-44848477D01*
X59812456Y-44761507D01*
X59738495Y-44687546D01*
X59651525Y-44629434D01*
X59554889Y-44589406D01*
X59452301Y-44569000D01*
X59347703Y-44569000D01*
X59245115Y-44589406D01*
X59148479Y-44629434D01*
X59061509Y-44687546D01*
X58987548Y-44761507D01*
X58929436Y-44848477D01*
X58889408Y-44945113D01*
X58869002Y-45047701D01*
X58869002Y-45152299D01*
X58889408Y-45254887D01*
X58929436Y-45351523D01*
X58987548Y-45438493D01*
X59061509Y-45512454D01*
X59148479Y-45570566D01*
X59245115Y-45610594D01*
X59347703Y-45631000D01*
X59452301Y-45631000D01*
X59488270Y-45623845D01*
X59571520Y-45707096D01*
X59581160Y-45718842D01*
X59592906Y-45728482D01*
X59592909Y-45728485D01*
X59619950Y-45750677D01*
X59628059Y-45757332D01*
X59681565Y-45785931D01*
X59739623Y-45803543D01*
X59784874Y-45808000D01*
X59784883Y-45808000D01*
X59800001Y-45809489D01*
X59815119Y-45808000D01*
X62584880Y-45808000D01*
X62600000Y-45809489D01*
X62615120Y-45808000D01*
X62615128Y-45808000D01*
X62660379Y-45803543D01*
X62718437Y-45785931D01*
X62771943Y-45757332D01*
X62818842Y-45718842D01*
X62828490Y-45707086D01*
X62927577Y-45608000D01*
X67319000Y-45608000D01*
X67319000Y-45684655D01*
X67295113Y-45689406D01*
X67198477Y-45729434D01*
X67111507Y-45787546D01*
X67037546Y-45861507D01*
X66979434Y-45948477D01*
X66939406Y-46045113D01*
X66923762Y-46123762D01*
X66845113Y-46139406D01*
X66748477Y-46179434D01*
X66661507Y-46237546D01*
X66587546Y-46311507D01*
X66529434Y-46398477D01*
X66489406Y-46495113D01*
X66469000Y-46597701D01*
X66469000Y-46702299D01*
X66489406Y-46804887D01*
X66529434Y-46901523D01*
X66587546Y-46988493D01*
X66661507Y-47062454D01*
X66748477Y-47120566D01*
X66845113Y-47160594D01*
X66947701Y-47181000D01*
X67052299Y-47181000D01*
X67154887Y-47160594D01*
X67251523Y-47120566D01*
X67338493Y-47062454D01*
X67412454Y-46988493D01*
X67470566Y-46901523D01*
X67510594Y-46804887D01*
X67526238Y-46726238D01*
X67604887Y-46710594D01*
X67701523Y-46670566D01*
X67788493Y-46612454D01*
X67862454Y-46538493D01*
X67920566Y-46451523D01*
X67960594Y-46354887D01*
X67981000Y-46252299D01*
X67981000Y-46165345D01*
X68004887Y-46160594D01*
X68075979Y-46131147D01*
X68075979Y-48488449D01*
X63992924Y-52571506D01*
X63992913Y-52571515D01*
X63988273Y-52576155D01*
X63952305Y-52569000D01*
X63847707Y-52569000D01*
X63745119Y-52589406D01*
X63648483Y-52629434D01*
X63561513Y-52687546D01*
X63487552Y-52761507D01*
X63429440Y-52848477D01*
X63389412Y-52945113D01*
X63369006Y-53047701D01*
X63369006Y-53152299D01*
X63389412Y-53254887D01*
X63429440Y-53351523D01*
X63487552Y-53438493D01*
X63561513Y-53512454D01*
X63648483Y-53570566D01*
X63745119Y-53610594D01*
X63847707Y-53631000D01*
X63952305Y-53631000D01*
X64054893Y-53610594D01*
X64151529Y-53570566D01*
X64238499Y-53512454D01*
X64312460Y-53438493D01*
X64370572Y-53351523D01*
X64410600Y-53254887D01*
X64431006Y-53152299D01*
X64431006Y-53047701D01*
X64423851Y-53011733D01*
X64428491Y-53007093D01*
X64428500Y-53007082D01*
X68383990Y-49051594D01*
X68383990Y-49880431D01*
X68092918Y-50171504D01*
X68092907Y-50171513D01*
X68088267Y-50176153D01*
X68052299Y-50168998D01*
X67947701Y-50168998D01*
X67845113Y-50189404D01*
X67748477Y-50229432D01*
X67661507Y-50287544D01*
X67587546Y-50361505D01*
X67529434Y-50448475D01*
X67489406Y-50545111D01*
X67469000Y-50647699D01*
X67469000Y-50752297D01*
X67489406Y-50854885D01*
X67529434Y-50951521D01*
X67587546Y-51038491D01*
X67661507Y-51112452D01*
X67748477Y-51170564D01*
X67845113Y-51210592D01*
X67947701Y-51230998D01*
X68033425Y-51230998D01*
X60209915Y-59054509D01*
X60198158Y-59064158D01*
X60159668Y-59111058D01*
X60155297Y-59119236D01*
X60078507Y-59170546D01*
X60004546Y-59244507D01*
X59946434Y-59331477D01*
X59906406Y-59428113D01*
X59886000Y-59530701D01*
X59886000Y-59635299D01*
X59906406Y-59737887D01*
X59946434Y-59834523D01*
X60004546Y-59921493D01*
X60078507Y-59995454D01*
X60165477Y-60053566D01*
X60262113Y-60093594D01*
X60364701Y-60114000D01*
X60469299Y-60114000D01*
X60571887Y-60093594D01*
X60668523Y-60053566D01*
X60755493Y-59995454D01*
X60829454Y-59921493D01*
X60887566Y-59834523D01*
X60927594Y-59737887D01*
X60948000Y-59635299D01*
X60948000Y-59530701D01*
X60927594Y-59428113D01*
X60887566Y-59331477D01*
X60854134Y-59281442D01*
X62037875Y-58097701D01*
X69469000Y-58097701D01*
X69469000Y-58202299D01*
X69489406Y-58304887D01*
X69529434Y-58401523D01*
X69587546Y-58488493D01*
X69661507Y-58562454D01*
X69748477Y-58620566D01*
X69845113Y-58660594D01*
X69947701Y-58681000D01*
X70052299Y-58681000D01*
X70154887Y-58660594D01*
X70251523Y-58620566D01*
X70338493Y-58562454D01*
X70412454Y-58488493D01*
X70470566Y-58401523D01*
X70510594Y-58304887D01*
X70531000Y-58202299D01*
X70531000Y-58097701D01*
X70510594Y-57995113D01*
X70470566Y-57898477D01*
X70412454Y-57811507D01*
X70338493Y-57737546D01*
X70251523Y-57679434D01*
X70154887Y-57639406D01*
X70052299Y-57619000D01*
X69947701Y-57619000D01*
X69845113Y-57639406D01*
X69748477Y-57679434D01*
X69661507Y-57737546D01*
X69587546Y-57811507D01*
X69529434Y-57898477D01*
X69489406Y-57995113D01*
X69469000Y-58097701D01*
X62037875Y-58097701D01*
X63550576Y-56585000D01*
X76092882Y-56585000D01*
X76097342Y-56630284D01*
X76110551Y-56673828D01*
X76132001Y-56713958D01*
X76160868Y-56749132D01*
X76196042Y-56777999D01*
X76236172Y-56799449D01*
X76279716Y-56812658D01*
X76325000Y-56817118D01*
X76869250Y-56816000D01*
X76927000Y-56758250D01*
X76927000Y-55983000D01*
X77073000Y-55983000D01*
X77073000Y-56758250D01*
X77130750Y-56816000D01*
X77675000Y-56817118D01*
X77720284Y-56812658D01*
X77763828Y-56799449D01*
X77803958Y-56777999D01*
X77839132Y-56749132D01*
X77867999Y-56713958D01*
X77889449Y-56673828D01*
X77902658Y-56630284D01*
X77907118Y-56585000D01*
X77906000Y-56040750D01*
X77848250Y-55983000D01*
X77073000Y-55983000D01*
X76927000Y-55983000D01*
X76151750Y-55983000D01*
X76094000Y-56040750D01*
X76092882Y-56585000D01*
X63550576Y-56585000D01*
X66487875Y-53647701D01*
X67869000Y-53647701D01*
X67869000Y-53752299D01*
X67889406Y-53854887D01*
X67929434Y-53951523D01*
X67987546Y-54038493D01*
X68061507Y-54112454D01*
X68092000Y-54132829D01*
X68092001Y-54967165D01*
X68061507Y-54987540D01*
X67987546Y-55061501D01*
X67929434Y-55148471D01*
X67889406Y-55245107D01*
X67869000Y-55347695D01*
X67869000Y-55452293D01*
X67889406Y-55554881D01*
X67929434Y-55651517D01*
X67987546Y-55738487D01*
X68061507Y-55812448D01*
X68148477Y-55870560D01*
X68245113Y-55910588D01*
X68347701Y-55930994D01*
X68452299Y-55930994D01*
X68554887Y-55910588D01*
X68651523Y-55870560D01*
X68738493Y-55812448D01*
X68812454Y-55738487D01*
X68870566Y-55651517D01*
X68910594Y-55554881D01*
X68931000Y-55452293D01*
X68931000Y-55347695D01*
X68910594Y-55245107D01*
X68870566Y-55148471D01*
X68812454Y-55061501D01*
X68738493Y-54987540D01*
X68708000Y-54967165D01*
X68708000Y-54132829D01*
X68738493Y-54112454D01*
X68812454Y-54038493D01*
X68870566Y-53951523D01*
X68910594Y-53854887D01*
X68912023Y-53847701D01*
X69968994Y-53847701D01*
X69968994Y-53952299D01*
X69989400Y-54054887D01*
X70029428Y-54151523D01*
X70087540Y-54238493D01*
X70161501Y-54312454D01*
X70248471Y-54370566D01*
X70345107Y-54410594D01*
X70447695Y-54431000D01*
X70552293Y-54431000D01*
X70654881Y-54410594D01*
X70751517Y-54370566D01*
X70824997Y-54321468D01*
X70898477Y-54370566D01*
X70995113Y-54410594D01*
X71097701Y-54431000D01*
X71202299Y-54431000D01*
X71304887Y-54410594D01*
X71401523Y-54370566D01*
X71475000Y-54321470D01*
X71548477Y-54370566D01*
X71645113Y-54410594D01*
X71747701Y-54431000D01*
X71852299Y-54431000D01*
X71954887Y-54410594D01*
X72051523Y-54370566D01*
X72138493Y-54312454D01*
X72212454Y-54238493D01*
X72270566Y-54151523D01*
X72310594Y-54054887D01*
X72331000Y-53952299D01*
X72331000Y-53847701D01*
X72310594Y-53745113D01*
X72270566Y-53648477D01*
X72212454Y-53561507D01*
X72138493Y-53487546D01*
X72051523Y-53429434D01*
X71954887Y-53389406D01*
X71852299Y-53369000D01*
X71747701Y-53369000D01*
X71645113Y-53389406D01*
X71548477Y-53429434D01*
X71475000Y-53478530D01*
X71401523Y-53429434D01*
X71304887Y-53389406D01*
X71202299Y-53369000D01*
X71097701Y-53369000D01*
X70995113Y-53389406D01*
X70898477Y-53429434D01*
X70824997Y-53478532D01*
X70751517Y-53429434D01*
X70654881Y-53389406D01*
X70552293Y-53369000D01*
X70447695Y-53369000D01*
X70345107Y-53389406D01*
X70248471Y-53429434D01*
X70161501Y-53487546D01*
X70087540Y-53561507D01*
X70029428Y-53648477D01*
X69989400Y-53745113D01*
X69968994Y-53847701D01*
X68912023Y-53847701D01*
X68931000Y-53752299D01*
X68931000Y-53647701D01*
X68910594Y-53545113D01*
X68870566Y-53448477D01*
X68812454Y-53361507D01*
X68738493Y-53287546D01*
X68651523Y-53229434D01*
X68554887Y-53189406D01*
X68452299Y-53169000D01*
X68347701Y-53169000D01*
X68245113Y-53189406D01*
X68148477Y-53229434D01*
X68061507Y-53287546D01*
X67987546Y-53361507D01*
X67929434Y-53448477D01*
X67889406Y-53545113D01*
X67869000Y-53647701D01*
X66487875Y-53647701D01*
X68692001Y-51443576D01*
X68692001Y-52115128D01*
X68696458Y-52160379D01*
X68714070Y-52218437D01*
X68742669Y-52271943D01*
X68781159Y-52318842D01*
X68828058Y-52357332D01*
X68881564Y-52385931D01*
X68939622Y-52403543D01*
X69000000Y-52409490D01*
X69060379Y-52403543D01*
X69118437Y-52385931D01*
X69171943Y-52357332D01*
X69218842Y-52318842D01*
X69257332Y-52271943D01*
X69285931Y-52218437D01*
X69303543Y-52160379D01*
X69308000Y-52115128D01*
X69308000Y-50715121D01*
X69309489Y-50700001D01*
X69308000Y-50684881D01*
X69308000Y-46219516D01*
X69454818Y-46719532D01*
X69857861Y-47501326D01*
X70401576Y-48192716D01*
X71066312Y-48768713D01*
X71828043Y-49208499D01*
X72659239Y-49496179D01*
X73529858Y-49621355D01*
X74408433Y-49579503D01*
X75263211Y-49372136D01*
X76063298Y-49006749D01*
X76779775Y-48496547D01*
X77386749Y-47859971D01*
X77862282Y-47120029D01*
X78175979Y-46336450D01*
X78175979Y-47288444D01*
X75372424Y-50092000D01*
X75332835Y-50092000D01*
X75312460Y-50061507D01*
X75238499Y-49987546D01*
X75151529Y-49929434D01*
X75054893Y-49889406D01*
X74952305Y-49869000D01*
X74847707Y-49869000D01*
X74745119Y-49889406D01*
X74648483Y-49929434D01*
X74561513Y-49987546D01*
X74487552Y-50061507D01*
X74429440Y-50148477D01*
X74389412Y-50245113D01*
X74369006Y-50347701D01*
X74369006Y-50452299D01*
X74389412Y-50554887D01*
X74429440Y-50651523D01*
X74487552Y-50738493D01*
X74502260Y-50753201D01*
X74461507Y-50780432D01*
X74387546Y-50854393D01*
X74329434Y-50941363D01*
X74289406Y-51037999D01*
X74269000Y-51140587D01*
X74269000Y-51245185D01*
X74289406Y-51347773D01*
X74329434Y-51444409D01*
X74387546Y-51531379D01*
X74461507Y-51605340D01*
X74548477Y-51663452D01*
X74645113Y-51703480D01*
X74678555Y-51710132D01*
X73696688Y-52692000D01*
X73232833Y-52692000D01*
X73212458Y-52661507D01*
X73138497Y-52587546D01*
X73051527Y-52529434D01*
X72954891Y-52489406D01*
X72852303Y-52469000D01*
X72747705Y-52469000D01*
X72645117Y-52489406D01*
X72548481Y-52529434D01*
X72461511Y-52587546D01*
X72387550Y-52661507D01*
X72329438Y-52748477D01*
X72289410Y-52845113D01*
X72269004Y-52947701D01*
X72269004Y-53052299D01*
X72289410Y-53154887D01*
X72329438Y-53251523D01*
X72387550Y-53338493D01*
X72461511Y-53412454D01*
X72548481Y-53470566D01*
X72645117Y-53510594D01*
X72747705Y-53531000D01*
X72852303Y-53531000D01*
X72954891Y-53510594D01*
X73051527Y-53470566D01*
X73138497Y-53412454D01*
X73212458Y-53338493D01*
X73232833Y-53308000D01*
X73541053Y-53308000D01*
X73537546Y-53311507D01*
X73479434Y-53398477D01*
X73439406Y-53495113D01*
X73419000Y-53597701D01*
X73419000Y-53702299D01*
X73426155Y-53738268D01*
X72497424Y-54667000D01*
X72107829Y-54667000D01*
X72087454Y-54636507D01*
X72013493Y-54562546D01*
X71926523Y-54504434D01*
X71829887Y-54464406D01*
X71727299Y-54444000D01*
X71622701Y-54444000D01*
X71520113Y-54464406D01*
X71423477Y-54504434D01*
X71336507Y-54562546D01*
X71262546Y-54636507D01*
X71204434Y-54723477D01*
X71164406Y-54820113D01*
X71144000Y-54922701D01*
X71144000Y-55027299D01*
X71164406Y-55129887D01*
X71204434Y-55226523D01*
X71262546Y-55313493D01*
X71336507Y-55387454D01*
X71423477Y-55445566D01*
X71520113Y-55485594D01*
X71622701Y-55506000D01*
X71727299Y-55506000D01*
X71829887Y-55485594D01*
X71926523Y-55445566D01*
X72013493Y-55387454D01*
X72087454Y-55313493D01*
X72107829Y-55283000D01*
X72609880Y-55283000D01*
X72625000Y-55284489D01*
X72640120Y-55283000D01*
X72640128Y-55283000D01*
X72685379Y-55278543D01*
X72743437Y-55260931D01*
X72791951Y-55235000D01*
X76092882Y-55235000D01*
X76094000Y-55779250D01*
X76151750Y-55837000D01*
X76927000Y-55837000D01*
X76927000Y-55061750D01*
X77073000Y-55061750D01*
X77073000Y-55837000D01*
X77848250Y-55837000D01*
X77906000Y-55779250D01*
X77907118Y-55235000D01*
X77902658Y-55189716D01*
X77889449Y-55146172D01*
X77867999Y-55106042D01*
X77839132Y-55070868D01*
X77803958Y-55042001D01*
X77763828Y-55020551D01*
X77720284Y-55007342D01*
X77675000Y-55002882D01*
X77130750Y-55004000D01*
X77073000Y-55061750D01*
X76927000Y-55061750D01*
X76869250Y-55004000D01*
X76325000Y-55002882D01*
X76279716Y-55007342D01*
X76236172Y-55020551D01*
X76196042Y-55042001D01*
X76160868Y-55070868D01*
X76132001Y-55106042D01*
X76110551Y-55146172D01*
X76097342Y-55189716D01*
X76092882Y-55235000D01*
X72791951Y-55235000D01*
X72796943Y-55232332D01*
X72843842Y-55193842D01*
X72853491Y-55182085D01*
X73861732Y-54173845D01*
X73897701Y-54181000D01*
X74002299Y-54181000D01*
X74104887Y-54160594D01*
X74194753Y-54123370D01*
X76119484Y-54123370D01*
X76149331Y-54221778D01*
X76226501Y-54381745D01*
X76333397Y-54523583D01*
X76465910Y-54641841D01*
X76618948Y-54731975D01*
X76786629Y-54790521D01*
X76927000Y-54755309D01*
X76927000Y-53983000D01*
X77073000Y-53983000D01*
X77073000Y-54755309D01*
X77213371Y-54790521D01*
X77381052Y-54731975D01*
X77534090Y-54641841D01*
X77666603Y-54523583D01*
X77773499Y-54381745D01*
X77850669Y-54221778D01*
X77880516Y-54123370D01*
X77845103Y-53983000D01*
X77073000Y-53983000D01*
X76927000Y-53983000D01*
X76154897Y-53983000D01*
X76119484Y-54123370D01*
X74194753Y-54123370D01*
X74201523Y-54120566D01*
X74288493Y-54062454D01*
X74362454Y-53988493D01*
X74420566Y-53901523D01*
X74460594Y-53804887D01*
X74481000Y-53702299D01*
X74481000Y-53696630D01*
X76119484Y-53696630D01*
X76154897Y-53837000D01*
X76927000Y-53837000D01*
X76927000Y-53064691D01*
X77073000Y-53064691D01*
X77073000Y-53837000D01*
X77845103Y-53837000D01*
X77880516Y-53696630D01*
X77850669Y-53598222D01*
X77773499Y-53438255D01*
X77666603Y-53296417D01*
X77534090Y-53178159D01*
X77381052Y-53088025D01*
X77213371Y-53029479D01*
X77073000Y-53064691D01*
X76927000Y-53064691D01*
X76786629Y-53029479D01*
X76618948Y-53088025D01*
X76465910Y-53178159D01*
X76333397Y-53296417D01*
X76226501Y-53438255D01*
X76149331Y-53598222D01*
X76119484Y-53696630D01*
X74481000Y-53696630D01*
X74481000Y-53597701D01*
X74460594Y-53495113D01*
X74420566Y-53398477D01*
X74362454Y-53311507D01*
X74288493Y-53237546D01*
X74201523Y-53179434D01*
X74115880Y-53143960D01*
X75136470Y-52123370D01*
X76119484Y-52123370D01*
X76149331Y-52221778D01*
X76226501Y-52381745D01*
X76333397Y-52523583D01*
X76465910Y-52641841D01*
X76618948Y-52731975D01*
X76786629Y-52790521D01*
X76927000Y-52755309D01*
X76927000Y-51983000D01*
X77073000Y-51983000D01*
X77073000Y-52755309D01*
X77213371Y-52790521D01*
X77381052Y-52731975D01*
X77534090Y-52641841D01*
X77666603Y-52523583D01*
X77773499Y-52381745D01*
X77850669Y-52221778D01*
X77880516Y-52123370D01*
X77845103Y-51983000D01*
X77073000Y-51983000D01*
X76927000Y-51983000D01*
X76154897Y-51983000D01*
X76119484Y-52123370D01*
X75136470Y-52123370D01*
X75563210Y-51696630D01*
X76119484Y-51696630D01*
X76154897Y-51837000D01*
X76927000Y-51837000D01*
X76927000Y-51064691D01*
X77073000Y-51064691D01*
X77073000Y-51837000D01*
X77845103Y-51837000D01*
X77880516Y-51696630D01*
X77850669Y-51598222D01*
X77773499Y-51438255D01*
X77666603Y-51296417D01*
X77534090Y-51178159D01*
X77381052Y-51088025D01*
X77213371Y-51029479D01*
X77073000Y-51064691D01*
X76927000Y-51064691D01*
X76786629Y-51029479D01*
X76618948Y-51088025D01*
X76465910Y-51178159D01*
X76333397Y-51296417D01*
X76226501Y-51438255D01*
X76149331Y-51598222D01*
X76119484Y-51696630D01*
X75563210Y-51696630D01*
X79307096Y-47952746D01*
X79318842Y-47943106D01*
X79328482Y-47931360D01*
X79328485Y-47931357D01*
X79357331Y-47896208D01*
X79376505Y-47860337D01*
X79385931Y-47842701D01*
X79403543Y-47784643D01*
X79408000Y-47739392D01*
X79408000Y-47739383D01*
X79409489Y-47724265D01*
X79408000Y-47709147D01*
X79408000Y-42815120D01*
X79409489Y-42800000D01*
X79408000Y-42784880D01*
X79408000Y-42784872D01*
X79403543Y-42739621D01*
X79385931Y-42681563D01*
X79357332Y-42628057D01*
X79332292Y-42597546D01*
X79328486Y-42592908D01*
X79328482Y-42592904D01*
X79318842Y-42581158D01*
X79307097Y-42571519D01*
X77980607Y-41245030D01*
X78021409Y-41245030D01*
X78161483Y-41217167D01*
X78293430Y-41162513D01*
X78412180Y-41083167D01*
X78513167Y-40982180D01*
X78592513Y-40863430D01*
X78647167Y-40731483D01*
X78675030Y-40591409D01*
X78675030Y-40448591D01*
X78647167Y-40308517D01*
X78592513Y-40176570D01*
X78513167Y-40057820D01*
X78412180Y-39956833D01*
X78293430Y-39877487D01*
X78161483Y-39822833D01*
X78021409Y-39794970D01*
X77878591Y-39794970D01*
X77738517Y-39822833D01*
X77606570Y-39877487D01*
X77487820Y-39956833D01*
X77386833Y-40057820D01*
X77307487Y-40176570D01*
X77252833Y-40308517D01*
X77224970Y-40448591D01*
X77224970Y-40489393D01*
X76108000Y-39372424D01*
X76108000Y-35368716D01*
X76210240Y-35368716D01*
X76210240Y-35511284D01*
X76238054Y-35651113D01*
X76292612Y-35782829D01*
X76371819Y-35901370D01*
X76472630Y-36002181D01*
X76591171Y-36081388D01*
X76722887Y-36135946D01*
X76862716Y-36163760D01*
X77005284Y-36163760D01*
X77145113Y-36135946D01*
X77276829Y-36081388D01*
X77395370Y-36002181D01*
X77496181Y-35901370D01*
X77575388Y-35782829D01*
X77629946Y-35651113D01*
X77657760Y-35511284D01*
X77657760Y-35368716D01*
X78242240Y-35368716D01*
X78242240Y-35511284D01*
X78270054Y-35651113D01*
X78324612Y-35782829D01*
X78403819Y-35901370D01*
X78504630Y-36002181D01*
X78623171Y-36081388D01*
X78754887Y-36135946D01*
X78894716Y-36163760D01*
X79037284Y-36163760D01*
X79177113Y-36135946D01*
X79308829Y-36081388D01*
X79427370Y-36002181D01*
X79528181Y-35901370D01*
X79607388Y-35782829D01*
X79661946Y-35651113D01*
X79689760Y-35511284D01*
X79689760Y-35368716D01*
X79661946Y-35228887D01*
X79607388Y-35097171D01*
X79528181Y-34978630D01*
X79427370Y-34877819D01*
X79308829Y-34798612D01*
X79177113Y-34744054D01*
X79037284Y-34716240D01*
X78894716Y-34716240D01*
X78754887Y-34744054D01*
X78623171Y-34798612D01*
X78504630Y-34877819D01*
X78403819Y-34978630D01*
X78324612Y-35097171D01*
X78270054Y-35228887D01*
X78242240Y-35368716D01*
X77657760Y-35368716D01*
X77629946Y-35228887D01*
X77575388Y-35097171D01*
X77496181Y-34978630D01*
X77395370Y-34877819D01*
X77276829Y-34798612D01*
X77145113Y-34744054D01*
X77005284Y-34716240D01*
X76862716Y-34716240D01*
X76722887Y-34744054D01*
X76591171Y-34798612D01*
X76472630Y-34877819D01*
X76371819Y-34978630D01*
X76292612Y-35097171D01*
X76238054Y-35228887D01*
X76210240Y-35368716D01*
X76108000Y-35368716D01*
X76108000Y-32415120D01*
X76109489Y-32400000D01*
X76108000Y-32384880D01*
X76108000Y-32384872D01*
X76103543Y-32339621D01*
X76099254Y-32325480D01*
X76085931Y-32281563D01*
X76072979Y-32257331D01*
X76057332Y-32228057D01*
X76032192Y-32197424D01*
X76028486Y-32192908D01*
X76028482Y-32192904D01*
X76018842Y-32181158D01*
X76007097Y-32171519D01*
X73228491Y-29392915D01*
X73218842Y-29381158D01*
X73171943Y-29342668D01*
X73118437Y-29314069D01*
X73060379Y-29296457D01*
X73015128Y-29292000D01*
X73015120Y-29292000D01*
X73000000Y-29290511D01*
X72984880Y-29292000D01*
X71032829Y-29292000D01*
X71012454Y-29261507D01*
X70938493Y-29187546D01*
X70907217Y-29166648D01*
X70913493Y-29162454D01*
X70987454Y-29088493D01*
X71045566Y-29001523D01*
X71085594Y-28904887D01*
X71106000Y-28802299D01*
X71106000Y-28697701D01*
X71085594Y-28595113D01*
X71045566Y-28498477D01*
X70987454Y-28411507D01*
X70913493Y-28337546D01*
X70826523Y-28279434D01*
X70729887Y-28239406D01*
X70627299Y-28219000D01*
X70522701Y-28219000D01*
X70486732Y-28226155D01*
X69358000Y-27097424D01*
X69358000Y-26697701D01*
X75569000Y-26697701D01*
X75569000Y-26802299D01*
X75589406Y-26904887D01*
X75629434Y-27001523D01*
X75687546Y-27088493D01*
X75761507Y-27162454D01*
X75848477Y-27220566D01*
X75945113Y-27260594D01*
X76047701Y-27281000D01*
X76094000Y-27281000D01*
X76094000Y-27327299D01*
X76114406Y-27429887D01*
X76154434Y-27526523D01*
X76212546Y-27613493D01*
X76286507Y-27687454D01*
X76373477Y-27745566D01*
X76470113Y-27785594D01*
X76572701Y-27806000D01*
X76644000Y-27806000D01*
X76644000Y-27877299D01*
X76664406Y-27979887D01*
X76704434Y-28076523D01*
X76762546Y-28163493D01*
X76836507Y-28237454D01*
X76923477Y-28295566D01*
X77020113Y-28335594D01*
X77122701Y-28356000D01*
X77227299Y-28356000D01*
X77329887Y-28335594D01*
X77426523Y-28295566D01*
X77513493Y-28237454D01*
X77587454Y-28163493D01*
X77645566Y-28076523D01*
X77685594Y-27979887D01*
X77706000Y-27877299D01*
X77706000Y-27772701D01*
X77685594Y-27670113D01*
X77645566Y-27573477D01*
X77587454Y-27486507D01*
X77513493Y-27412546D01*
X77426523Y-27354434D01*
X77329887Y-27314406D01*
X77227299Y-27294000D01*
X77156000Y-27294000D01*
X77156000Y-27222701D01*
X77135594Y-27120113D01*
X77095566Y-27023477D01*
X77037454Y-26936507D01*
X76963493Y-26862546D01*
X76876523Y-26804434D01*
X76779887Y-26764406D01*
X76677299Y-26744000D01*
X76631000Y-26744000D01*
X76631000Y-26697701D01*
X76610594Y-26595113D01*
X76570566Y-26498477D01*
X76512454Y-26411507D01*
X76438493Y-26337546D01*
X76351523Y-26279434D01*
X76254887Y-26239406D01*
X76152299Y-26219000D01*
X76047701Y-26219000D01*
X75945113Y-26239406D01*
X75848477Y-26279434D01*
X75761507Y-26337546D01*
X75687546Y-26411507D01*
X75629434Y-26498477D01*
X75589406Y-26595113D01*
X75569000Y-26697701D01*
X69358000Y-26697701D01*
X69358000Y-24565120D01*
X69359489Y-24550000D01*
X69358000Y-24534880D01*
X69358000Y-24534872D01*
X69353543Y-24489621D01*
X69335931Y-24431563D01*
X69307332Y-24378057D01*
X69305745Y-24376123D01*
X69278486Y-24342908D01*
X69278482Y-24342904D01*
X69268842Y-24331158D01*
X69257096Y-24321518D01*
X68278491Y-23342915D01*
X68268842Y-23331158D01*
X68221943Y-23292668D01*
X68168437Y-23264069D01*
X68110379Y-23246457D01*
X68065128Y-23242000D01*
X68065120Y-23242000D01*
X68050000Y-23240511D01*
X68034880Y-23242000D01*
X32765117Y-23242000D01*
X32749999Y-23240511D01*
X32734881Y-23242000D01*
X32734872Y-23242000D01*
X32689621Y-23246457D01*
X32631563Y-23264069D01*
X32578057Y-23292668D01*
X32578055Y-23292669D01*
X32578056Y-23292669D01*
X32542907Y-23321515D01*
X32542904Y-23321518D01*
X32531158Y-23331158D01*
X32521518Y-23342904D01*
X31188269Y-24676155D01*
X31152299Y-24669000D01*
X31047701Y-24669000D01*
X30945113Y-24689406D01*
X30848477Y-24729434D01*
X30761507Y-24787546D01*
X30687546Y-24861507D01*
X30629434Y-24948477D01*
X30589406Y-25045113D01*
X30569000Y-25147701D01*
X20202000Y-25147701D01*
X20202000Y-23202000D01*
X79798000Y-23202000D01*
X79798001Y-66798000D01*
X79798001Y-66798000D01*
G37*
X79798001Y-66798000D02*
X20202000Y-66798000D01*
X20202000Y-59895201D01*
X51021500Y-59895201D01*
X51021500Y-59999799D01*
X51041906Y-60102387D01*
X51081934Y-60199023D01*
X51140046Y-60285993D01*
X51214007Y-60359954D01*
X51300977Y-60418066D01*
X51397613Y-60458094D01*
X51497114Y-60477886D01*
X51516906Y-60577387D01*
X51556934Y-60674023D01*
X51615046Y-60760993D01*
X51689007Y-60834954D01*
X51775977Y-60893066D01*
X51872613Y-60933094D01*
X51975201Y-60953500D01*
X51981500Y-60953500D01*
X51981500Y-60959799D01*
X52001906Y-61062387D01*
X52041934Y-61159023D01*
X52100046Y-61245993D01*
X52174007Y-61319954D01*
X52260977Y-61378066D01*
X52357613Y-61418094D01*
X52460201Y-61438500D01*
X52564799Y-61438500D01*
X52667387Y-61418094D01*
X52764023Y-61378066D01*
X52850993Y-61319954D01*
X52924954Y-61245993D01*
X52983066Y-61159023D01*
X53023094Y-61062387D01*
X53043500Y-60959799D01*
X53043500Y-60947701D01*
X58869000Y-60947701D01*
X58869000Y-61052299D01*
X58889406Y-61154887D01*
X58929434Y-61251523D01*
X58987546Y-61338493D01*
X59061507Y-61412454D01*
X59148477Y-61470566D01*
X59245113Y-61510594D01*
X59347701Y-61531000D01*
X59452299Y-61531000D01*
X59554887Y-61510594D01*
X59651523Y-61470566D01*
X59738493Y-61412454D01*
X59812454Y-61338493D01*
X59870566Y-61251523D01*
X59910594Y-61154887D01*
X59931000Y-61052299D01*
X59931000Y-60947701D01*
X59910594Y-60845113D01*
X59870566Y-60748477D01*
X59812454Y-60661507D01*
X59738493Y-60587546D01*
X59651523Y-60529434D01*
X59554887Y-60489406D01*
X59452299Y-60469000D01*
X59347701Y-60469000D01*
X59245113Y-60489406D01*
X59148477Y-60529434D01*
X59061507Y-60587546D01*
X58987546Y-60661507D01*
X58929434Y-60748477D01*
X58889406Y-60845113D01*
X58869000Y-60947701D01*
X53043500Y-60947701D01*
X53043500Y-60855201D01*
X53023094Y-60752613D01*
X52983066Y-60655977D01*
X52924954Y-60569007D01*
X52850993Y-60495046D01*
X52764023Y-60436934D01*
X52667387Y-60396906D01*
X52564799Y-60376500D01*
X52558500Y-60376500D01*
X52558500Y-60370201D01*
X52538094Y-60267613D01*
X52498066Y-60170977D01*
X52439954Y-60084007D01*
X52365993Y-60010046D01*
X52279023Y-59951934D01*
X52182387Y-59911906D01*
X52082886Y-59892114D01*
X52063094Y-59792613D01*
X52023066Y-59695977D01*
X51964954Y-59609007D01*
X51890993Y-59535046D01*
X51804023Y-59476934D01*
X51707387Y-59436906D01*
X51604799Y-59416500D01*
X51500201Y-59416500D01*
X51397613Y-59436906D01*
X51300977Y-59476934D01*
X51214007Y-59535046D01*
X51140046Y-59609007D01*
X51081934Y-59695977D01*
X51041906Y-59792613D01*
X51021500Y-59895201D01*
X20202000Y-59895201D01*
X20202000Y-55910000D01*
X22642668Y-55910000D01*
X22663945Y-56126030D01*
X22726959Y-56333758D01*
X22829287Y-56525201D01*
X22966998Y-56693002D01*
X23134799Y-56830713D01*
X23326242Y-56933041D01*
X23533970Y-56996055D01*
X23695863Y-57012000D01*
X23804137Y-57012000D01*
X23966030Y-56996055D01*
X24173758Y-56933041D01*
X24286646Y-56872701D01*
X33944000Y-56872701D01*
X33944000Y-56977299D01*
X33964406Y-57079887D01*
X34004434Y-57176523D01*
X34062546Y-57263493D01*
X34136507Y-57337454D01*
X34223477Y-57395566D01*
X34320113Y-57435594D01*
X34422701Y-57456000D01*
X34527299Y-57456000D01*
X34600030Y-57441533D01*
X34639620Y-57453543D01*
X34645375Y-57454110D01*
X34684872Y-57458000D01*
X34684879Y-57458000D01*
X34699999Y-57459489D01*
X34715119Y-57458000D01*
X41417171Y-57458000D01*
X41437546Y-57488493D01*
X41511507Y-57562454D01*
X41598477Y-57620566D01*
X41695113Y-57660594D01*
X41797701Y-57681000D01*
X41902299Y-57681000D01*
X42004887Y-57660594D01*
X42101523Y-57620566D01*
X42188493Y-57562454D01*
X42262454Y-57488493D01*
X42320566Y-57401523D01*
X42360594Y-57304887D01*
X42381000Y-57202299D01*
X42381000Y-57097701D01*
X42360594Y-56995113D01*
X42320566Y-56898477D01*
X42262454Y-56811507D01*
X42188493Y-56737546D01*
X42101523Y-56679434D01*
X42004887Y-56639406D01*
X41902299Y-56619000D01*
X41797701Y-56619000D01*
X41695113Y-56639406D01*
X41598477Y-56679434D01*
X41511507Y-56737546D01*
X41437546Y-56811507D01*
X41417171Y-56842000D01*
X39744275Y-56842000D01*
X39788493Y-56812454D01*
X39862454Y-56738493D01*
X39920566Y-56651523D01*
X39960594Y-56554887D01*
X39981000Y-56452299D01*
X39981000Y-56347701D01*
X39960594Y-56245113D01*
X39920566Y-56148477D01*
X39862454Y-56061507D01*
X39788493Y-55987546D01*
X39701523Y-55929434D01*
X39630463Y-55900000D01*
X39701523Y-55870566D01*
X39788493Y-55812454D01*
X39862454Y-55738493D01*
X39920566Y-55651523D01*
X39960594Y-55554887D01*
X39981000Y-55452299D01*
X39981000Y-55347701D01*
X39960594Y-55245113D01*
X39920566Y-55148477D01*
X39862454Y-55061507D01*
X39788493Y-54987546D01*
X39701523Y-54929434D01*
X39662464Y-54913255D01*
X39738493Y-54862454D01*
X39812454Y-54788493D01*
X39870566Y-54701523D01*
X39910594Y-54604887D01*
X39931000Y-54502299D01*
X39931000Y-54397701D01*
X39910594Y-54295113D01*
X39870566Y-54198477D01*
X39812454Y-54111507D01*
X39738493Y-54037546D01*
X39651523Y-53979434D01*
X39554887Y-53939406D01*
X39531000Y-53934655D01*
X39531000Y-53897701D01*
X39510594Y-53795113D01*
X39470566Y-53698477D01*
X39412454Y-53611507D01*
X39338493Y-53537546D01*
X39251523Y-53479434D01*
X39154887Y-53439406D01*
X39052299Y-53419000D01*
X38947701Y-53419000D01*
X38845113Y-53439406D01*
X38748477Y-53479434D01*
X38661507Y-53537546D01*
X38587546Y-53611507D01*
X38529434Y-53698477D01*
X38489406Y-53795113D01*
X38469000Y-53897701D01*
X38469000Y-54002299D01*
X38489406Y-54104887D01*
X38529434Y-54201523D01*
X38587546Y-54288493D01*
X38661507Y-54362454D01*
X38748477Y-54420566D01*
X38819537Y-54450000D01*
X38748477Y-54479434D01*
X38661507Y-54537546D01*
X38587546Y-54611507D01*
X38529434Y-54698477D01*
X38489406Y-54795113D01*
X38469000Y-54897701D01*
X38469000Y-55002299D01*
X38489406Y-55104887D01*
X38529434Y-55201523D01*
X38587546Y-55288493D01*
X38661507Y-55362454D01*
X38748477Y-55420566D01*
X38787536Y-55436745D01*
X38711507Y-55487546D01*
X38637546Y-55561507D01*
X38579434Y-55648477D01*
X38539406Y-55745113D01*
X38519000Y-55847701D01*
X38519000Y-55952299D01*
X38539406Y-56054887D01*
X38579434Y-56151523D01*
X38637546Y-56238493D01*
X38711507Y-56312454D01*
X38798477Y-56370566D01*
X38895113Y-56410594D01*
X38919000Y-56415345D01*
X38919000Y-56452299D01*
X38939406Y-56554887D01*
X38979434Y-56651523D01*
X39037546Y-56738493D01*
X39111507Y-56812454D01*
X39155725Y-56842000D01*
X34999893Y-56842000D01*
X34985594Y-56770113D01*
X34945566Y-56673477D01*
X34887454Y-56586507D01*
X34813493Y-56512546D01*
X34726523Y-56454434D01*
X34629887Y-56414406D01*
X34527299Y-56394000D01*
X34422701Y-56394000D01*
X34320113Y-56414406D01*
X34223477Y-56454434D01*
X34136507Y-56512546D01*
X34062546Y-56586507D01*
X34004434Y-56673477D01*
X33964406Y-56770113D01*
X33944000Y-56872701D01*
X24286646Y-56872701D01*
X24365201Y-56830713D01*
X24533002Y-56693002D01*
X24670713Y-56525201D01*
X24773041Y-56333758D01*
X24836055Y-56126030D01*
X24857332Y-55910000D01*
X24836055Y-55693970D01*
X24773041Y-55486242D01*
X24670713Y-55294799D01*
X24533002Y-55126998D01*
X24365201Y-54989287D01*
X24173758Y-54886959D01*
X23966030Y-54823945D01*
X23823002Y-54809858D01*
X23823002Y-54755310D01*
X23963371Y-54790521D01*
X24131052Y-54731975D01*
X24284090Y-54641841D01*
X24416603Y-54523583D01*
X24523499Y-54381745D01*
X24600669Y-54221778D01*
X24630516Y-54123370D01*
X24595103Y-53983000D01*
X23823000Y-53983000D01*
X23823000Y-54003000D01*
X23677000Y-54003000D01*
X23677000Y-53983000D01*
X22904897Y-53983000D01*
X22869484Y-54123370D01*
X22899331Y-54221778D01*
X22976501Y-54381745D01*
X23083397Y-54523583D01*
X23215910Y-54641841D01*
X23368948Y-54731975D01*
X23536629Y-54790521D01*
X23676998Y-54755310D01*
X23676998Y-54809858D01*
X23533970Y-54823945D01*
X23326242Y-54886959D01*
X23134799Y-54989287D01*
X22966998Y-55126998D01*
X22829287Y-55294799D01*
X22726959Y-55486242D01*
X22663945Y-55693970D01*
X22642668Y-55910000D01*
X20202000Y-55910000D01*
X20202000Y-53696630D01*
X22869484Y-53696630D01*
X22904897Y-53837000D01*
X23677000Y-53837000D01*
X23677000Y-53064691D01*
X23823000Y-53064691D01*
X23823000Y-53837000D01*
X24595103Y-53837000D01*
X24630516Y-53696630D01*
X24600669Y-53598222D01*
X24523499Y-53438255D01*
X24416603Y-53296417D01*
X24284090Y-53178159D01*
X24232376Y-53147701D01*
X46269000Y-53147701D01*
X46269000Y-53252299D01*
X46289406Y-53354887D01*
X46329434Y-53451523D01*
X46387546Y-53538493D01*
X46461507Y-53612454D01*
X46548477Y-53670566D01*
X46645113Y-53710594D01*
X46747701Y-53731000D01*
X46852299Y-53731000D01*
X46954887Y-53710594D01*
X47051523Y-53670566D01*
X47138493Y-53612454D01*
X47212454Y-53538493D01*
X47232829Y-53508000D01*
X47374182Y-53508000D01*
X47216998Y-53636998D01*
X47079287Y-53804799D01*
X46976959Y-53996242D01*
X46913945Y-54203970D01*
X46892668Y-54420000D01*
X46913945Y-54636030D01*
X46976959Y-54843758D01*
X47079287Y-55035201D01*
X47216998Y-55203002D01*
X47384799Y-55340713D01*
X47576242Y-55443041D01*
X47783970Y-55506055D01*
X47945863Y-55522000D01*
X48054137Y-55522000D01*
X48216030Y-55506055D01*
X48423758Y-55443041D01*
X48615201Y-55340713D01*
X48783002Y-55203002D01*
X48920713Y-55035201D01*
X49023041Y-54843758D01*
X49086055Y-54636030D01*
X49098475Y-54509931D01*
X49107110Y-54597607D01*
X49158916Y-54768388D01*
X49243044Y-54925782D01*
X49356262Y-55063738D01*
X49494218Y-55176956D01*
X49651612Y-55261084D01*
X49822393Y-55312890D01*
X49955499Y-55326000D01*
X50044501Y-55326000D01*
X50177607Y-55312890D01*
X50348388Y-55261084D01*
X50505782Y-55176956D01*
X50643738Y-55063738D01*
X50756956Y-54925782D01*
X50841084Y-54768388D01*
X50892890Y-54597607D01*
X50910383Y-54420000D01*
X51089617Y-54420000D01*
X51107110Y-54597607D01*
X51158916Y-54768388D01*
X51243044Y-54925782D01*
X51356262Y-55063738D01*
X51494218Y-55176956D01*
X51651612Y-55261084D01*
X51822393Y-55312890D01*
X51955499Y-55326000D01*
X52044501Y-55326000D01*
X52177607Y-55312890D01*
X52348388Y-55261084D01*
X52505782Y-55176956D01*
X52643738Y-55063738D01*
X52756956Y-54925782D01*
X52841084Y-54768388D01*
X52892890Y-54597607D01*
X52910383Y-54420000D01*
X53089617Y-54420000D01*
X53107110Y-54597607D01*
X53158916Y-54768388D01*
X53243044Y-54925782D01*
X53356262Y-55063738D01*
X53494218Y-55176956D01*
X53651612Y-55261084D01*
X53822393Y-55312890D01*
X53955499Y-55326000D01*
X54044501Y-55326000D01*
X54177607Y-55312890D01*
X54348388Y-55261084D01*
X54505782Y-55176956D01*
X54643738Y-55063738D01*
X54756956Y-54925782D01*
X54841084Y-54768388D01*
X54892890Y-54597607D01*
X54910383Y-54420000D01*
X55089617Y-54420000D01*
X55107110Y-54597607D01*
X55158916Y-54768388D01*
X55243044Y-54925782D01*
X55356262Y-55063738D01*
X55494218Y-55176956D01*
X55651612Y-55261084D01*
X55822393Y-55312890D01*
X55955499Y-55326000D01*
X56044501Y-55326000D01*
X56177607Y-55312890D01*
X56348388Y-55261084D01*
X56505782Y-55176956D01*
X56643738Y-55063738D01*
X56756956Y-54925782D01*
X56841084Y-54768388D01*
X56892890Y-54597607D01*
X56910383Y-54420000D01*
X56892890Y-54242393D01*
X56841084Y-54071612D01*
X56756956Y-53914218D01*
X56643738Y-53776262D01*
X56605646Y-53745000D01*
X57092883Y-53745000D01*
X57092883Y-55095000D01*
X57097343Y-55140284D01*
X57110552Y-55183827D01*
X57132002Y-55223957D01*
X57160868Y-55259132D01*
X57196043Y-55287998D01*
X57236173Y-55309448D01*
X57279716Y-55322657D01*
X57325000Y-55327117D01*
X58675000Y-55327117D01*
X58720284Y-55322657D01*
X58763827Y-55309448D01*
X58803957Y-55287998D01*
X58839132Y-55259132D01*
X58867998Y-55223957D01*
X58889448Y-55183827D01*
X58902657Y-55140284D01*
X58907117Y-55095000D01*
X58907117Y-53745000D01*
X58902657Y-53699716D01*
X58889448Y-53656173D01*
X58867998Y-53616043D01*
X58839132Y-53580868D01*
X58803957Y-53552002D01*
X58763827Y-53530552D01*
X58720284Y-53517343D01*
X58675000Y-53512883D01*
X57325000Y-53512883D01*
X57279716Y-53517343D01*
X57236173Y-53530552D01*
X57196043Y-53552002D01*
X57160868Y-53580868D01*
X57132002Y-53616043D01*
X57110552Y-53656173D01*
X57097343Y-53699716D01*
X57092883Y-53745000D01*
X56605646Y-53745000D01*
X56505782Y-53663044D01*
X56348388Y-53578916D01*
X56177607Y-53527110D01*
X56044501Y-53514000D01*
X55955499Y-53514000D01*
X55822393Y-53527110D01*
X55651612Y-53578916D01*
X55494218Y-53663044D01*
X55356262Y-53776262D01*
X55243044Y-53914218D01*
X55158916Y-54071612D01*
X55107110Y-54242393D01*
X55089617Y-54420000D01*
X54910383Y-54420000D01*
X54892890Y-54242393D01*
X54841084Y-54071612D01*
X54756956Y-53914218D01*
X54643738Y-53776262D01*
X54505782Y-53663044D01*
X54348388Y-53578916D01*
X54177607Y-53527110D01*
X54044501Y-53514000D01*
X53955499Y-53514000D01*
X53822393Y-53527110D01*
X53651612Y-53578916D01*
X53494218Y-53663044D01*
X53356262Y-53776262D01*
X53243044Y-53914218D01*
X53158916Y-54071612D01*
X53107110Y-54242393D01*
X53089617Y-54420000D01*
X52910383Y-54420000D01*
X52892890Y-54242393D01*
X52841084Y-54071612D01*
X52756956Y-53914218D01*
X52643738Y-53776262D01*
X52505782Y-53663044D01*
X52348388Y-53578916D01*
X52177607Y-53527110D01*
X52044501Y-53514000D01*
X51955499Y-53514000D01*
X51822393Y-53527110D01*
X51651612Y-53578916D01*
X51494218Y-53663044D01*
X51356262Y-53776262D01*
X51243044Y-53914218D01*
X51158916Y-54071612D01*
X51107110Y-54242393D01*
X51089617Y-54420000D01*
X50910383Y-54420000D01*
X50892890Y-54242393D01*
X50841084Y-54071612D01*
X50756956Y-53914218D01*
X50643738Y-53776262D01*
X50505782Y-53663044D01*
X50348388Y-53578916D01*
X50177607Y-53527110D01*
X50044501Y-53514000D01*
X49955499Y-53514000D01*
X49822393Y-53527110D01*
X49651612Y-53578916D01*
X49494218Y-53663044D01*
X49356262Y-53776262D01*
X49243044Y-53914218D01*
X49158916Y-54071612D01*
X49107110Y-54242393D01*
X49098475Y-54330069D01*
X49086055Y-54203970D01*
X49023041Y-53996242D01*
X48920713Y-53804799D01*
X48783002Y-53636998D01*
X48625818Y-53508000D01*
X59067171Y-53508000D01*
X59087546Y-53538493D01*
X59161507Y-53612454D01*
X59248477Y-53670566D01*
X59345113Y-53710594D01*
X59447701Y-53731000D01*
X59552299Y-53731000D01*
X59641122Y-53713332D01*
X59594168Y-53732781D01*
X59507198Y-53790893D01*
X59433237Y-53864854D01*
X59375125Y-53951824D01*
X59335097Y-54048460D01*
X59314691Y-54151048D01*
X59314691Y-54255646D01*
X59335097Y-54358234D01*
X59375125Y-54454870D01*
X59433237Y-54541840D01*
X59507198Y-54615801D01*
X59594168Y-54673913D01*
X59690804Y-54713941D01*
X59793392Y-54734347D01*
X59897990Y-54734347D01*
X60000578Y-54713941D01*
X60097214Y-54673913D01*
X60184184Y-54615801D01*
X60258145Y-54541840D01*
X60316257Y-54454870D01*
X60324067Y-54436015D01*
X60806192Y-54436015D01*
X60826567Y-54466508D01*
X60900528Y-54540469D01*
X60987498Y-54598581D01*
X61084134Y-54638609D01*
X61186722Y-54659015D01*
X61291320Y-54659015D01*
X61393908Y-54638609D01*
X61490544Y-54598581D01*
X61562265Y-54550658D01*
X61587546Y-54588493D01*
X61661507Y-54662454D01*
X61748477Y-54720566D01*
X61845113Y-54760594D01*
X61947701Y-54781000D01*
X62052299Y-54781000D01*
X62154887Y-54760594D01*
X62251523Y-54720566D01*
X62338493Y-54662454D01*
X62412454Y-54588493D01*
X62470566Y-54501523D01*
X62510594Y-54404887D01*
X62531000Y-54302299D01*
X62531000Y-54197701D01*
X62510594Y-54095113D01*
X62470566Y-53998477D01*
X62412454Y-53911507D01*
X62338493Y-53837546D01*
X62251523Y-53779434D01*
X62154887Y-53739406D01*
X62052299Y-53719000D01*
X61947701Y-53719000D01*
X61845113Y-53739406D01*
X61748477Y-53779434D01*
X61676756Y-53827357D01*
X61651475Y-53789522D01*
X61577514Y-53715561D01*
X61490544Y-53657449D01*
X61393908Y-53617421D01*
X61291320Y-53597015D01*
X61186722Y-53597015D01*
X61084134Y-53617421D01*
X60987498Y-53657449D01*
X60900528Y-53715561D01*
X60826567Y-53789522D01*
X60806192Y-53820015D01*
X60213306Y-53820015D01*
X60184184Y-53790893D01*
X60097214Y-53732781D01*
X60000578Y-53692753D01*
X59897990Y-53672347D01*
X59793392Y-53672347D01*
X59704569Y-53690015D01*
X59751523Y-53670566D01*
X59838493Y-53612454D01*
X59912454Y-53538493D01*
X59970566Y-53451523D01*
X60010594Y-53354887D01*
X60031000Y-53252299D01*
X60031000Y-53147701D01*
X60010594Y-53045113D01*
X59970566Y-52948477D01*
X59912454Y-52861507D01*
X59838493Y-52787546D01*
X59751523Y-52729434D01*
X59654887Y-52689406D01*
X59552299Y-52669000D01*
X59447701Y-52669000D01*
X59345113Y-52689406D01*
X59248477Y-52729434D01*
X59161507Y-52787546D01*
X59087546Y-52861507D01*
X59067171Y-52892000D01*
X47232829Y-52892000D01*
X47212454Y-52861507D01*
X47138493Y-52787546D01*
X47051523Y-52729434D01*
X46954887Y-52689406D01*
X46852299Y-52669000D01*
X46747701Y-52669000D01*
X46645113Y-52689406D01*
X46548477Y-52729434D01*
X46461507Y-52787546D01*
X46387546Y-52861507D01*
X46329434Y-52948477D01*
X46289406Y-53045113D01*
X46269000Y-53147701D01*
X24232376Y-53147701D01*
X24131052Y-53088025D01*
X23963371Y-53029479D01*
X23823000Y-53064691D01*
X23677000Y-53064691D01*
X23536629Y-53029479D01*
X23368948Y-53088025D01*
X23215910Y-53178159D01*
X23083397Y-53296417D01*
X22976501Y-53438255D01*
X22899331Y-53598222D01*
X22869484Y-53696630D01*
X20202000Y-53696630D01*
X20202000Y-51235000D01*
X22842883Y-51235000D01*
X22842883Y-52585000D01*
X22847343Y-52630284D01*
X22860552Y-52673827D01*
X22882002Y-52713957D01*
X22910868Y-52749132D01*
X22946043Y-52777998D01*
X22986173Y-52799448D01*
X23029716Y-52812657D01*
X23075000Y-52817117D01*
X24425000Y-52817117D01*
X24470284Y-52812657D01*
X24513827Y-52799448D01*
X24553957Y-52777998D01*
X24589132Y-52749132D01*
X24617998Y-52713957D01*
X24639448Y-52673827D01*
X24652657Y-52630284D01*
X24657117Y-52585000D01*
X24657117Y-51235000D01*
X24652657Y-51189716D01*
X24639448Y-51146173D01*
X24617998Y-51106043D01*
X24589132Y-51070868D01*
X24553957Y-51042002D01*
X24513827Y-51020552D01*
X24470284Y-51007343D01*
X24425000Y-51002883D01*
X23075000Y-51002883D01*
X23029716Y-51007343D01*
X22986173Y-51020552D01*
X22946043Y-51042002D01*
X22910868Y-51070868D01*
X22882002Y-51106043D01*
X22860552Y-51146173D01*
X22847343Y-51189716D01*
X22842883Y-51235000D01*
X20202000Y-51235000D01*
X20202000Y-45000000D01*
X21577716Y-45000000D01*
X21662150Y-45884236D01*
X21912401Y-46736513D01*
X22319425Y-47526027D01*
X22868509Y-48224245D01*
X23539809Y-48805930D01*
X24309063Y-49250059D01*
X25148467Y-49540580D01*
X26027684Y-49666992D01*
X26914935Y-49624727D01*
X27778154Y-49415312D01*
X28586142Y-49046317D01*
X29309695Y-48531077D01*
X29922663Y-47888214D01*
X30402892Y-47140964D01*
X30677430Y-46455201D01*
X54181500Y-46455201D01*
X54181500Y-46559799D01*
X54201906Y-46662387D01*
X54241934Y-46759023D01*
X54300046Y-46845993D01*
X54351553Y-46897500D01*
X54300046Y-46949007D01*
X54241934Y-47035977D01*
X54201906Y-47132613D01*
X54181500Y-47235201D01*
X54181500Y-47339799D01*
X54201906Y-47442387D01*
X54241934Y-47539023D01*
X54300046Y-47625993D01*
X54336553Y-47662500D01*
X54300046Y-47699007D01*
X54241934Y-47785977D01*
X54201906Y-47882613D01*
X54181500Y-47985201D01*
X54181500Y-48089799D01*
X54201906Y-48192387D01*
X54241934Y-48289023D01*
X54300046Y-48375993D01*
X54374007Y-48449954D01*
X54460977Y-48508066D01*
X54557613Y-48548094D01*
X54660201Y-48568500D01*
X54764799Y-48568500D01*
X54867387Y-48548094D01*
X54964023Y-48508066D01*
X55050993Y-48449954D01*
X55124954Y-48375993D01*
X55183066Y-48289023D01*
X55223094Y-48192387D01*
X55243500Y-48089799D01*
X55243500Y-47985201D01*
X55223094Y-47882613D01*
X55183066Y-47785977D01*
X55124954Y-47699007D01*
X55088447Y-47662500D01*
X55124954Y-47625993D01*
X55183066Y-47539023D01*
X55223094Y-47442387D01*
X55243500Y-47339799D01*
X55243500Y-47235201D01*
X55223094Y-47132613D01*
X55187923Y-47047701D01*
X61919000Y-47047701D01*
X61919000Y-47152299D01*
X61939406Y-47254887D01*
X61979434Y-47351523D01*
X62037546Y-47438493D01*
X62049053Y-47450000D01*
X62037546Y-47461507D01*
X61979434Y-47548477D01*
X61939406Y-47645113D01*
X61919000Y-47747701D01*
X61919000Y-47852299D01*
X61939406Y-47954887D01*
X61979434Y-48051523D01*
X62037546Y-48138493D01*
X62074053Y-48175000D01*
X62037546Y-48211507D01*
X61979434Y-48298477D01*
X61939406Y-48395113D01*
X61919000Y-48497701D01*
X61919000Y-48602299D01*
X61939406Y-48704887D01*
X61979434Y-48801523D01*
X62037546Y-48888493D01*
X62049053Y-48900000D01*
X62037546Y-48911507D01*
X61979434Y-48998477D01*
X61939406Y-49095113D01*
X61919000Y-49197701D01*
X61919000Y-49302299D01*
X61939406Y-49404887D01*
X61979434Y-49501523D01*
X62037546Y-49588493D01*
X62049053Y-49600000D01*
X62037546Y-49611507D01*
X61979434Y-49698477D01*
X61939406Y-49795113D01*
X61919000Y-49897701D01*
X61919000Y-50002299D01*
X61939406Y-50104887D01*
X61979434Y-50201523D01*
X62037546Y-50288493D01*
X62111507Y-50362454D01*
X62198477Y-50420566D01*
X62295113Y-50460594D01*
X62397701Y-50481000D01*
X62502299Y-50481000D01*
X62604887Y-50460594D01*
X62701523Y-50420566D01*
X62788493Y-50362454D01*
X62862454Y-50288493D01*
X62920566Y-50201523D01*
X62960594Y-50104887D01*
X62981000Y-50002299D01*
X62981000Y-49897701D01*
X62960594Y-49795113D01*
X62920566Y-49698477D01*
X62862454Y-49611507D01*
X62850947Y-49600000D01*
X62862454Y-49588493D01*
X62920566Y-49501523D01*
X62960594Y-49404887D01*
X62981000Y-49302299D01*
X62981000Y-49197701D01*
X62960594Y-49095113D01*
X62920566Y-48998477D01*
X62862454Y-48911507D01*
X62850947Y-48900000D01*
X62862454Y-48888493D01*
X62920566Y-48801523D01*
X62960594Y-48704887D01*
X62981000Y-48602299D01*
X62981000Y-48497701D01*
X62960594Y-48395113D01*
X62920566Y-48298477D01*
X62862454Y-48211507D01*
X62825947Y-48175000D01*
X62862454Y-48138493D01*
X62920566Y-48051523D01*
X62960594Y-47954887D01*
X62981000Y-47852299D01*
X62981000Y-47747701D01*
X62960594Y-47645113D01*
X62920566Y-47548477D01*
X62862454Y-47461507D01*
X62850947Y-47450000D01*
X62862454Y-47438493D01*
X62920566Y-47351523D01*
X62960594Y-47254887D01*
X62981000Y-47152299D01*
X62981000Y-47047701D01*
X62960594Y-46945113D01*
X62920566Y-46848477D01*
X62862454Y-46761507D01*
X62788493Y-46687546D01*
X62701523Y-46629434D01*
X62604887Y-46589406D01*
X62502299Y-46569000D01*
X62397701Y-46569000D01*
X62295113Y-46589406D01*
X62198477Y-46629434D01*
X62111507Y-46687546D01*
X62037546Y-46761507D01*
X61979434Y-46848477D01*
X61939406Y-46945113D01*
X61919000Y-47047701D01*
X55187923Y-47047701D01*
X55183066Y-47035977D01*
X55124954Y-46949007D01*
X55073447Y-46897500D01*
X55124954Y-46845993D01*
X55183066Y-46759023D01*
X55223094Y-46662387D01*
X55243500Y-46559799D01*
X55243500Y-46455201D01*
X55223094Y-46352613D01*
X55183066Y-46255977D01*
X55124954Y-46169007D01*
X55050993Y-46095046D01*
X54964023Y-46036934D01*
X54867387Y-45996906D01*
X54764799Y-45976500D01*
X54660201Y-45976500D01*
X54557613Y-45996906D01*
X54460977Y-46036934D01*
X54374007Y-46095046D01*
X54300046Y-46169007D01*
X54241934Y-46255977D01*
X54201906Y-46352613D01*
X54181500Y-46455201D01*
X30677430Y-46455201D01*
X30733024Y-46316335D01*
X30901128Y-45444129D01*
X30901128Y-44555871D01*
X30733024Y-43683665D01*
X30517015Y-43144100D01*
X33349000Y-43144100D01*
X33349000Y-44015901D01*
X33359578Y-44123301D01*
X33401378Y-44261095D01*
X33469257Y-44388086D01*
X33560606Y-44499395D01*
X33650777Y-44573396D01*
X33667546Y-44598493D01*
X33741507Y-44672454D01*
X33828477Y-44730566D01*
X33925113Y-44770594D01*
X34027701Y-44791000D01*
X34132299Y-44791000D01*
X34234887Y-44770594D01*
X34331523Y-44730566D01*
X34418493Y-44672454D01*
X34492454Y-44598493D01*
X34509222Y-44573398D01*
X34599395Y-44499395D01*
X34690744Y-44388086D01*
X34758623Y-44261095D01*
X34800422Y-44123301D01*
X34811000Y-44015901D01*
X34811000Y-43144099D01*
X34800422Y-43036699D01*
X34758623Y-42898905D01*
X34690744Y-42771914D01*
X34599394Y-42660605D01*
X34488085Y-42569256D01*
X34361094Y-42501377D01*
X34223300Y-42459578D01*
X34080000Y-42445464D01*
X33936699Y-42459578D01*
X33798905Y-42501377D01*
X33671914Y-42569256D01*
X33560605Y-42660606D01*
X33469256Y-42771915D01*
X33401377Y-42898906D01*
X33359578Y-43036700D01*
X33349000Y-43144100D01*
X30517015Y-43144100D01*
X30402892Y-42859036D01*
X29922663Y-42111786D01*
X29309695Y-41468923D01*
X28758897Y-41076701D01*
X44969000Y-41076701D01*
X44969000Y-41181299D01*
X44989406Y-41283887D01*
X45029434Y-41380523D01*
X45087546Y-41467493D01*
X45161507Y-41541454D01*
X45248477Y-41599566D01*
X45345113Y-41639594D01*
X45447701Y-41660000D01*
X45552299Y-41660000D01*
X45654887Y-41639594D01*
X45751523Y-41599566D01*
X45838493Y-41541454D01*
X45912454Y-41467493D01*
X45970566Y-41380523D01*
X46010594Y-41283887D01*
X46031000Y-41181299D01*
X46031000Y-41076701D01*
X46010594Y-40974113D01*
X45970566Y-40877477D01*
X45912454Y-40790507D01*
X45838493Y-40716546D01*
X45751523Y-40658434D01*
X45654887Y-40618406D01*
X45552299Y-40598000D01*
X45447701Y-40598000D01*
X45345113Y-40618406D01*
X45248477Y-40658434D01*
X45161507Y-40716546D01*
X45087546Y-40790507D01*
X45029434Y-40877477D01*
X44989406Y-40974113D01*
X44969000Y-41076701D01*
X28758897Y-41076701D01*
X28586142Y-40953683D01*
X27778154Y-40584688D01*
X26914935Y-40375273D01*
X26027684Y-40333008D01*
X25148467Y-40459420D01*
X24309063Y-40749941D01*
X23539809Y-41194070D01*
X22868509Y-41775755D01*
X22319425Y-42473973D01*
X21912401Y-43263487D01*
X21662150Y-44115764D01*
X21577716Y-45000000D01*
X20202000Y-45000000D01*
X20202000Y-40200000D01*
X46892668Y-40200000D01*
X46913945Y-40416030D01*
X46976959Y-40623758D01*
X47079287Y-40815201D01*
X47216998Y-40983002D01*
X47384799Y-41120713D01*
X47576242Y-41223041D01*
X47783970Y-41286055D01*
X47945863Y-41302000D01*
X48054137Y-41302000D01*
X48216030Y-41286055D01*
X48423758Y-41223041D01*
X48615201Y-41120713D01*
X48783002Y-40983002D01*
X48920713Y-40815201D01*
X49023041Y-40623758D01*
X49086055Y-40416030D01*
X49098475Y-40289931D01*
X49107110Y-40377607D01*
X49158916Y-40548388D01*
X49243044Y-40705782D01*
X49356262Y-40843738D01*
X49494218Y-40956956D01*
X49651612Y-41041084D01*
X49822393Y-41092890D01*
X49955499Y-41106000D01*
X50044501Y-41106000D01*
X50177607Y-41092890D01*
X50348388Y-41041084D01*
X50505782Y-40956956D01*
X50643738Y-40843738D01*
X50756956Y-40705782D01*
X50841084Y-40548388D01*
X50892890Y-40377607D01*
X50910383Y-40200000D01*
X51089617Y-40200000D01*
X51107110Y-40377607D01*
X51158916Y-40548388D01*
X51243044Y-40705782D01*
X51356262Y-40843738D01*
X51494218Y-40956956D01*
X51651612Y-41041084D01*
X51822393Y-41092890D01*
X51955499Y-41106000D01*
X52044501Y-41106000D01*
X52177607Y-41092890D01*
X52348388Y-41041084D01*
X52505782Y-40956956D01*
X52643738Y-40843738D01*
X52756956Y-40705782D01*
X52841084Y-40548388D01*
X52892890Y-40377607D01*
X52910383Y-40200000D01*
X53089617Y-40200000D01*
X53107110Y-40377607D01*
X53158916Y-40548388D01*
X53243044Y-40705782D01*
X53356262Y-40843738D01*
X53494218Y-40956956D01*
X53651612Y-41041084D01*
X53822393Y-41092890D01*
X53955499Y-41106000D01*
X54044501Y-41106000D01*
X54177607Y-41092890D01*
X54348388Y-41041084D01*
X54505782Y-40956956D01*
X54643738Y-40843738D01*
X54756956Y-40705782D01*
X54841084Y-40548388D01*
X54892890Y-40377607D01*
X54910383Y-40200000D01*
X55089617Y-40200000D01*
X55107110Y-40377607D01*
X55158916Y-40548388D01*
X55243044Y-40705782D01*
X55356262Y-40843738D01*
X55494218Y-40956956D01*
X55651612Y-41041084D01*
X55822393Y-41092890D01*
X55955499Y-41106000D01*
X56044501Y-41106000D01*
X56177607Y-41092890D01*
X56348388Y-41041084D01*
X56505782Y-40956956D01*
X56643738Y-40843738D01*
X56756956Y-40705782D01*
X56841084Y-40548388D01*
X56892890Y-40377607D01*
X56910383Y-40200000D01*
X56892890Y-40022393D01*
X56841084Y-39851612D01*
X56756956Y-39694218D01*
X56643738Y-39556262D01*
X56505782Y-39443044D01*
X56348388Y-39358916D01*
X56177607Y-39307110D01*
X56044501Y-39294000D01*
X55955499Y-39294000D01*
X55822393Y-39307110D01*
X55651612Y-39358916D01*
X55494218Y-39443044D01*
X55356262Y-39556262D01*
X55243044Y-39694218D01*
X55158916Y-39851612D01*
X55107110Y-40022393D01*
X55089617Y-40200000D01*
X54910383Y-40200000D01*
X54892890Y-40022393D01*
X54841084Y-39851612D01*
X54756956Y-39694218D01*
X54643738Y-39556262D01*
X54505782Y-39443044D01*
X54348388Y-39358916D01*
X54177607Y-39307110D01*
X54044501Y-39294000D01*
X53955499Y-39294000D01*
X53822393Y-39307110D01*
X53651612Y-39358916D01*
X53494218Y-39443044D01*
X53356262Y-39556262D01*
X53243044Y-39694218D01*
X53158916Y-39851612D01*
X53107110Y-40022393D01*
X53089617Y-40200000D01*
X52910383Y-40200000D01*
X52892890Y-40022393D01*
X52841084Y-39851612D01*
X52756956Y-39694218D01*
X52643738Y-39556262D01*
X52505782Y-39443044D01*
X52348388Y-39358916D01*
X52177607Y-39307110D01*
X52044501Y-39294000D01*
X51955499Y-39294000D01*
X51822393Y-39307110D01*
X51651612Y-39358916D01*
X51494218Y-39443044D01*
X51356262Y-39556262D01*
X51243044Y-39694218D01*
X51158916Y-39851612D01*
X51107110Y-40022393D01*
X51089617Y-40200000D01*
X50910383Y-40200000D01*
X50892890Y-40022393D01*
X50841084Y-39851612D01*
X50756956Y-39694218D01*
X50643738Y-39556262D01*
X50505782Y-39443044D01*
X50348388Y-39358916D01*
X50177607Y-39307110D01*
X50044501Y-39294000D01*
X49955499Y-39294000D01*
X49822393Y-39307110D01*
X49651612Y-39358916D01*
X49494218Y-39443044D01*
X49356262Y-39556262D01*
X49243044Y-39694218D01*
X49158916Y-39851612D01*
X49107110Y-40022393D01*
X49098475Y-40110069D01*
X49086055Y-39983970D01*
X49023041Y-39776242D01*
X48920713Y-39584799D01*
X48783002Y-39416998D01*
X48615201Y-39279287D01*
X48423758Y-39176959D01*
X48216030Y-39113945D01*
X48054137Y-39098000D01*
X47945863Y-39098000D01*
X47783970Y-39113945D01*
X47576242Y-39176959D01*
X47384799Y-39279287D01*
X47216998Y-39416998D01*
X47079287Y-39584799D01*
X46976959Y-39776242D01*
X46913945Y-39983970D01*
X46892668Y-40200000D01*
X20202000Y-40200000D01*
X20202000Y-39097701D01*
X39769000Y-39097701D01*
X39769000Y-39202299D01*
X39789406Y-39304887D01*
X39829434Y-39401523D01*
X39887546Y-39488493D01*
X39961507Y-39562454D01*
X40048477Y-39620566D01*
X40145113Y-39660594D01*
X40247701Y-39681000D01*
X40352299Y-39681000D01*
X40454887Y-39660594D01*
X40551523Y-39620566D01*
X40625000Y-39571470D01*
X40698477Y-39620566D01*
X40795113Y-39660594D01*
X40897701Y-39681000D01*
X41002299Y-39681000D01*
X41104887Y-39660594D01*
X41201523Y-39620566D01*
X41275000Y-39571470D01*
X41348477Y-39620566D01*
X41445113Y-39660594D01*
X41547701Y-39681000D01*
X41652299Y-39681000D01*
X41754887Y-39660594D01*
X41851523Y-39620566D01*
X41938493Y-39562454D01*
X42012454Y-39488493D01*
X42070566Y-39401523D01*
X42110594Y-39304887D01*
X42131000Y-39202299D01*
X42131000Y-39097701D01*
X42110594Y-38995113D01*
X42070566Y-38898477D01*
X42012454Y-38811507D01*
X41948648Y-38747701D01*
X46369000Y-38747701D01*
X46369000Y-38852299D01*
X46389406Y-38954887D01*
X46429434Y-39051523D01*
X46487546Y-39138493D01*
X46561507Y-39212454D01*
X46648477Y-39270566D01*
X46745113Y-39310594D01*
X46847701Y-39331000D01*
X46952299Y-39331000D01*
X47054887Y-39310594D01*
X47151523Y-39270566D01*
X47238493Y-39212454D01*
X47312454Y-39138493D01*
X47352207Y-39078999D01*
X57069000Y-39078999D01*
X57069000Y-39123297D01*
X57089406Y-39225885D01*
X57129434Y-39322521D01*
X57157665Y-39364771D01*
X57132002Y-39396043D01*
X57110552Y-39436173D01*
X57097343Y-39479716D01*
X57092883Y-39525000D01*
X57092883Y-40875000D01*
X57097343Y-40920284D01*
X57110552Y-40963827D01*
X57132002Y-41003957D01*
X57160868Y-41039132D01*
X57196043Y-41067998D01*
X57236173Y-41089448D01*
X57279716Y-41102657D01*
X57325000Y-41107117D01*
X58675000Y-41107117D01*
X58720284Y-41102657D01*
X58763827Y-41089448D01*
X58803957Y-41067998D01*
X58839132Y-41039132D01*
X58867998Y-41003957D01*
X58889448Y-40963827D01*
X58902657Y-40920284D01*
X58907117Y-40875000D01*
X58907117Y-39525000D01*
X58902657Y-39479716D01*
X58889448Y-39436173D01*
X58867998Y-39396043D01*
X58839132Y-39360868D01*
X58803957Y-39332002D01*
X58763827Y-39310552D01*
X58720284Y-39297343D01*
X58675000Y-39292883D01*
X58082842Y-39292883D01*
X58110594Y-39225885D01*
X58131000Y-39123297D01*
X58131000Y-39018699D01*
X58110594Y-38916111D01*
X58070566Y-38819475D01*
X58012454Y-38732505D01*
X57938493Y-38658544D01*
X57851523Y-38600432D01*
X57754887Y-38560404D01*
X57652299Y-38539998D01*
X57547701Y-38539998D01*
X57512548Y-38546990D01*
X57471944Y-38513667D01*
X57418438Y-38485068D01*
X57360380Y-38467456D01*
X57315129Y-38462999D01*
X57315121Y-38462999D01*
X57300001Y-38461510D01*
X57284881Y-38462999D01*
X47313451Y-38462999D01*
X47312454Y-38461507D01*
X47238493Y-38387546D01*
X47151523Y-38329434D01*
X47054887Y-38289406D01*
X46952299Y-38269000D01*
X46847701Y-38269000D01*
X46745113Y-38289406D01*
X46648477Y-38329434D01*
X46561507Y-38387546D01*
X46487546Y-38461507D01*
X46429434Y-38548477D01*
X46389406Y-38645113D01*
X46369000Y-38747701D01*
X41948648Y-38747701D01*
X41938493Y-38737546D01*
X41851523Y-38679434D01*
X41818387Y-38665709D01*
X41831000Y-38602299D01*
X41831000Y-38497701D01*
X41810594Y-38395113D01*
X41770566Y-38298477D01*
X41712454Y-38211507D01*
X41638493Y-38137546D01*
X41551523Y-38079434D01*
X41454887Y-38039406D01*
X41352299Y-38019000D01*
X41247701Y-38019000D01*
X41145113Y-38039406D01*
X41048477Y-38079434D01*
X40961507Y-38137546D01*
X40950000Y-38149053D01*
X40938493Y-38137546D01*
X40851523Y-38079434D01*
X40754887Y-38039406D01*
X40652299Y-38019000D01*
X40547701Y-38019000D01*
X40445113Y-38039406D01*
X40348477Y-38079434D01*
X40261507Y-38137546D01*
X40187546Y-38211507D01*
X40129434Y-38298477D01*
X40089406Y-38395113D01*
X40069000Y-38497701D01*
X40069000Y-38602299D01*
X40081613Y-38665709D01*
X40048477Y-38679434D01*
X39961507Y-38737546D01*
X39887546Y-38811507D01*
X39829434Y-38898477D01*
X39789406Y-38995113D01*
X39769000Y-39097701D01*
X20202000Y-39097701D01*
X20202000Y-36405342D01*
X56838919Y-36405342D01*
X56838919Y-36509940D01*
X56859325Y-36612528D01*
X56899353Y-36709164D01*
X56957465Y-36796134D01*
X57031426Y-36870095D01*
X57061919Y-36890470D01*
X57061919Y-37254799D01*
X57060430Y-37269919D01*
X57061919Y-37285039D01*
X57061919Y-37285046D01*
X57064927Y-37315588D01*
X57066376Y-37330298D01*
X57075641Y-37360840D01*
X57083988Y-37388355D01*
X57112587Y-37441861D01*
X57151077Y-37488761D01*
X57162834Y-37498410D01*
X57976155Y-38311732D01*
X57969000Y-38347701D01*
X57969000Y-38452299D01*
X57989406Y-38554887D01*
X58029434Y-38651523D01*
X58087546Y-38738493D01*
X58161507Y-38812454D01*
X58248477Y-38870566D01*
X58345113Y-38910594D01*
X58447701Y-38931000D01*
X58552299Y-38931000D01*
X58654887Y-38910594D01*
X58751523Y-38870566D01*
X58838493Y-38812454D01*
X58912454Y-38738493D01*
X58970566Y-38651523D01*
X59010594Y-38554887D01*
X59031000Y-38452299D01*
X59031000Y-38347701D01*
X59010594Y-38245113D01*
X58970566Y-38148477D01*
X58912454Y-38061507D01*
X58838493Y-37987546D01*
X58751523Y-37929434D01*
X58654887Y-37889406D01*
X58552299Y-37869000D01*
X58447701Y-37869000D01*
X58411732Y-37876155D01*
X57783278Y-37247701D01*
X58069012Y-37247701D01*
X58069012Y-37352299D01*
X58089418Y-37454887D01*
X58129446Y-37551523D01*
X58187558Y-37638493D01*
X58261519Y-37712454D01*
X58348489Y-37770566D01*
X58445125Y-37810594D01*
X58547713Y-37831000D01*
X58652311Y-37831000D01*
X58754899Y-37810594D01*
X58851535Y-37770566D01*
X58938505Y-37712454D01*
X59012466Y-37638493D01*
X59070578Y-37551523D01*
X59110606Y-37454887D01*
X59131012Y-37352299D01*
X59131012Y-37247701D01*
X59110606Y-37145113D01*
X59070578Y-37048477D01*
X59012466Y-36961507D01*
X58938505Y-36887546D01*
X58851535Y-36829434D01*
X58754899Y-36789406D01*
X58652311Y-36769000D01*
X58547713Y-36769000D01*
X58445125Y-36789406D01*
X58348489Y-36829434D01*
X58261519Y-36887546D01*
X58187558Y-36961507D01*
X58129446Y-37048477D01*
X58089418Y-37145113D01*
X58069012Y-37247701D01*
X57783278Y-37247701D01*
X57677919Y-37142343D01*
X57677919Y-36890470D01*
X57708412Y-36870095D01*
X57782373Y-36796134D01*
X57840485Y-36709164D01*
X57880513Y-36612528D01*
X57900919Y-36509940D01*
X57900919Y-36405342D01*
X57880513Y-36302754D01*
X57840485Y-36206118D01*
X57782373Y-36119148D01*
X57708412Y-36045187D01*
X57621442Y-35987075D01*
X57524806Y-35947047D01*
X57422218Y-35926641D01*
X57317620Y-35926641D01*
X57215032Y-35947047D01*
X57118396Y-35987075D01*
X57031426Y-36045187D01*
X56957465Y-36119148D01*
X56899353Y-36206118D01*
X56859325Y-36302754D01*
X56838919Y-36405342D01*
X20202000Y-36405342D01*
X20202000Y-33997701D01*
X41469000Y-33997701D01*
X41469000Y-34102299D01*
X41489406Y-34204887D01*
X41529434Y-34301523D01*
X41587546Y-34388493D01*
X41661507Y-34462454D01*
X41748477Y-34520566D01*
X41845113Y-34560594D01*
X41947701Y-34581000D01*
X42052299Y-34581000D01*
X42154887Y-34560594D01*
X42251523Y-34520566D01*
X42338493Y-34462454D01*
X42412454Y-34388493D01*
X42432829Y-34358000D01*
X42741785Y-34358000D01*
X42795569Y-34438493D01*
X42869530Y-34512454D01*
X42956500Y-34570566D01*
X43053136Y-34610594D01*
X43155724Y-34631000D01*
X43260322Y-34631000D01*
X43362910Y-34610594D01*
X43459546Y-34570566D01*
X43546516Y-34512454D01*
X43620477Y-34438493D01*
X43678589Y-34351523D01*
X43718617Y-34254887D01*
X43739023Y-34152299D01*
X43739023Y-34047701D01*
X43718617Y-33945113D01*
X43678589Y-33848477D01*
X43620477Y-33761507D01*
X43546516Y-33687546D01*
X43459546Y-33629434D01*
X43362910Y-33589406D01*
X43260322Y-33569000D01*
X43155724Y-33569000D01*
X43053136Y-33589406D01*
X42956500Y-33629434D01*
X42869530Y-33687546D01*
X42815076Y-33742000D01*
X42432829Y-33742000D01*
X42412454Y-33711507D01*
X42338493Y-33637546D01*
X42251523Y-33579434D01*
X42154887Y-33539406D01*
X42052299Y-33519000D01*
X41947701Y-33519000D01*
X41845113Y-33539406D01*
X41748477Y-33579434D01*
X41661507Y-33637546D01*
X41587546Y-33711507D01*
X41529434Y-33798477D01*
X41489406Y-33895113D01*
X41469000Y-33997701D01*
X20202000Y-33997701D01*
X20202000Y-30747701D01*
X31119000Y-30747701D01*
X31119000Y-30852299D01*
X31139406Y-30954887D01*
X31179434Y-31051523D01*
X31237546Y-31138493D01*
X31311507Y-31212454D01*
X31398477Y-31270566D01*
X31495113Y-31310594D01*
X31597701Y-31331000D01*
X31702299Y-31331000D01*
X31804887Y-31310594D01*
X31901523Y-31270566D01*
X31988493Y-31212454D01*
X32062454Y-31138493D01*
X32120566Y-31051523D01*
X32160594Y-30954887D01*
X32181000Y-30852299D01*
X32181000Y-30747701D01*
X32160594Y-30645113D01*
X32120566Y-30548477D01*
X32062454Y-30461507D01*
X31988493Y-30387546D01*
X31901523Y-30329434D01*
X31804887Y-30289406D01*
X31702299Y-30269000D01*
X31597701Y-30269000D01*
X31495113Y-30289406D01*
X31398477Y-30329434D01*
X31311507Y-30387546D01*
X31237546Y-30461507D01*
X31179434Y-30548477D01*
X31139406Y-30645113D01*
X31119000Y-30747701D01*
X20202000Y-30747701D01*
X20202000Y-25147701D01*
X30569000Y-25147701D01*
X30569000Y-25252299D01*
X30589406Y-25354887D01*
X30629434Y-25451523D01*
X30687546Y-25538493D01*
X30761507Y-25612454D01*
X30848477Y-25670566D01*
X30945113Y-25710594D01*
X31047701Y-25731000D01*
X31152299Y-25731000D01*
X31254887Y-25710594D01*
X31351523Y-25670566D01*
X31438493Y-25612454D01*
X31512454Y-25538493D01*
X31570566Y-25451523D01*
X31610594Y-25354887D01*
X31631000Y-25252299D01*
X31631000Y-25147701D01*
X31623845Y-25111731D01*
X32877578Y-23858000D01*
X38406423Y-23858000D01*
X33092910Y-29171514D01*
X33081159Y-29181158D01*
X33042669Y-29228057D01*
X33028328Y-29254887D01*
X33014069Y-29281564D01*
X32996457Y-29339621D01*
X32990511Y-29400000D01*
X32992001Y-29415130D01*
X32992000Y-32567171D01*
X32961507Y-32587546D01*
X32887546Y-32661507D01*
X32829434Y-32748477D01*
X32789406Y-32845113D01*
X32769000Y-32947701D01*
X32769000Y-33052299D01*
X32789406Y-33154887D01*
X32829434Y-33251523D01*
X32887546Y-33338493D01*
X32961507Y-33412454D01*
X33048477Y-33470566D01*
X33145113Y-33510594D01*
X33247701Y-33531000D01*
X33352299Y-33531000D01*
X33454887Y-33510594D01*
X33551523Y-33470566D01*
X33638493Y-33412454D01*
X33712454Y-33338493D01*
X33770566Y-33251523D01*
X33810594Y-33154887D01*
X33831000Y-33052299D01*
X33831000Y-32947701D01*
X33810594Y-32845113D01*
X33770566Y-32748477D01*
X33712454Y-32661507D01*
X33638493Y-32587546D01*
X33608000Y-32567171D01*
X33608000Y-29527576D01*
X38969566Y-24166011D01*
X39698412Y-24166011D01*
X35992915Y-27871509D01*
X35981158Y-27881158D01*
X35942668Y-27928058D01*
X35914069Y-27981564D01*
X35896457Y-28039622D01*
X35892000Y-28084873D01*
X35892000Y-28084880D01*
X35890511Y-28100000D01*
X35892000Y-28115120D01*
X35892001Y-32560599D01*
X35892000Y-32560609D01*
X35892000Y-32567171D01*
X35861507Y-32587546D01*
X35787546Y-32661507D01*
X35729434Y-32748477D01*
X35689406Y-32845113D01*
X35669000Y-32947701D01*
X35669000Y-33052299D01*
X35689406Y-33154887D01*
X35729434Y-33251523D01*
X35787546Y-33338493D01*
X35861507Y-33412454D01*
X35948477Y-33470566D01*
X36045113Y-33510594D01*
X36147701Y-33531000D01*
X36252299Y-33531000D01*
X36354887Y-33510594D01*
X36451523Y-33470566D01*
X36538493Y-33412454D01*
X36612454Y-33338493D01*
X36670566Y-33251523D01*
X36710594Y-33154887D01*
X36731000Y-33052299D01*
X36731000Y-32947701D01*
X36710594Y-32845113D01*
X36670566Y-32748477D01*
X36612454Y-32661507D01*
X36538493Y-32587546D01*
X36508000Y-32567171D01*
X36508000Y-28227576D01*
X40235588Y-24499989D01*
X40564433Y-24499989D01*
X38876165Y-26188259D01*
X38864414Y-26197903D01*
X38825924Y-26244802D01*
X38810637Y-26273402D01*
X38797324Y-26298309D01*
X38779712Y-26356366D01*
X38773766Y-26416745D01*
X38775256Y-26431875D01*
X38775255Y-32550426D01*
X38744762Y-32570801D01*
X38670801Y-32644762D01*
X38612689Y-32731732D01*
X38572661Y-32828368D01*
X38552255Y-32930956D01*
X38552255Y-33035554D01*
X38572661Y-33138142D01*
X38612689Y-33234778D01*
X38670801Y-33321748D01*
X38744762Y-33395709D01*
X38831732Y-33453821D01*
X38928368Y-33493849D01*
X39030956Y-33514255D01*
X39135554Y-33514255D01*
X39238142Y-33493849D01*
X39334778Y-33453821D01*
X39421748Y-33395709D01*
X39495709Y-33321748D01*
X39553821Y-33234778D01*
X39593849Y-33138142D01*
X39614255Y-33035554D01*
X39614255Y-32930956D01*
X39593849Y-32828368D01*
X39553821Y-32731732D01*
X39536094Y-32705201D01*
X54081500Y-32705201D01*
X54081500Y-32809799D01*
X54101906Y-32912387D01*
X54141934Y-33009023D01*
X54200046Y-33095993D01*
X54226553Y-33122500D01*
X54200046Y-33149007D01*
X54141934Y-33235977D01*
X54101906Y-33332613D01*
X54081500Y-33435201D01*
X54081500Y-33539799D01*
X54101906Y-33642387D01*
X54141934Y-33739023D01*
X54200046Y-33825993D01*
X54236553Y-33862500D01*
X54200046Y-33899007D01*
X54141934Y-33985977D01*
X54101906Y-34082613D01*
X54081500Y-34185201D01*
X54081500Y-34289799D01*
X54101906Y-34392387D01*
X54141934Y-34489023D01*
X54200046Y-34575993D01*
X54274007Y-34649954D01*
X54360977Y-34708066D01*
X54457613Y-34748094D01*
X54560201Y-34768500D01*
X54664799Y-34768500D01*
X54767387Y-34748094D01*
X54864023Y-34708066D01*
X54950993Y-34649954D01*
X55024954Y-34575993D01*
X55083066Y-34489023D01*
X55123094Y-34392387D01*
X55143500Y-34289799D01*
X55143500Y-34185201D01*
X55123094Y-34082613D01*
X55083066Y-33985977D01*
X55024954Y-33899007D01*
X54988447Y-33862500D01*
X55024954Y-33825993D01*
X55083066Y-33739023D01*
X55123094Y-33642387D01*
X55143500Y-33539799D01*
X55143500Y-33435201D01*
X55123094Y-33332613D01*
X55083066Y-33235977D01*
X55024954Y-33149007D01*
X54998447Y-33122500D01*
X55024954Y-33095993D01*
X55083066Y-33009023D01*
X55123094Y-32912387D01*
X55143500Y-32809799D01*
X55143500Y-32705201D01*
X55123094Y-32602613D01*
X55083066Y-32505977D01*
X55024954Y-32419007D01*
X54950993Y-32345046D01*
X54864023Y-32286934D01*
X54767387Y-32246906D01*
X54664799Y-32226500D01*
X54560201Y-32226500D01*
X54457613Y-32246906D01*
X54360977Y-32286934D01*
X54274007Y-32345046D01*
X54200046Y-32419007D01*
X54141934Y-32505977D01*
X54101906Y-32602613D01*
X54081500Y-32705201D01*
X39536094Y-32705201D01*
X39495709Y-32644762D01*
X39421748Y-32570801D01*
X39391255Y-32550426D01*
X39391255Y-29047701D01*
X44969000Y-29047701D01*
X44969000Y-29152299D01*
X44989406Y-29254887D01*
X45029434Y-29351523D01*
X45087546Y-29438493D01*
X45161507Y-29512454D01*
X45248477Y-29570566D01*
X45345113Y-29610594D01*
X45447701Y-29631000D01*
X45552299Y-29631000D01*
X45654887Y-29610594D01*
X45751523Y-29570566D01*
X45838493Y-29512454D01*
X45912454Y-29438493D01*
X45932829Y-29408000D01*
X48867171Y-29408000D01*
X48887546Y-29438493D01*
X48961507Y-29512454D01*
X49048477Y-29570566D01*
X49145113Y-29610594D01*
X49247701Y-29631000D01*
X49352299Y-29631000D01*
X49454887Y-29610594D01*
X49551523Y-29570566D01*
X49638493Y-29512454D01*
X49712454Y-29438493D01*
X49770566Y-29351523D01*
X49810594Y-29254887D01*
X49831000Y-29152299D01*
X49831000Y-29047701D01*
X49810594Y-28945113D01*
X49770566Y-28848477D01*
X49712454Y-28761507D01*
X49638493Y-28687546D01*
X49551523Y-28629434D01*
X49454887Y-28589406D01*
X49352299Y-28569000D01*
X49247701Y-28569000D01*
X49145113Y-28589406D01*
X49048477Y-28629434D01*
X48961507Y-28687546D01*
X48887546Y-28761507D01*
X48867171Y-28792000D01*
X45932829Y-28792000D01*
X45912454Y-28761507D01*
X45838493Y-28687546D01*
X45751523Y-28629434D01*
X45654887Y-28589406D01*
X45552299Y-28569000D01*
X45447701Y-28569000D01*
X45345113Y-28589406D01*
X45248477Y-28629434D01*
X45161507Y-28687546D01*
X45087546Y-28761507D01*
X45029434Y-28848477D01*
X44989406Y-28945113D01*
X44969000Y-29047701D01*
X39391255Y-29047701D01*
X39391255Y-28197701D01*
X41269000Y-28197701D01*
X41269000Y-28302299D01*
X41289406Y-28404887D01*
X41329434Y-28501523D01*
X41387546Y-28588493D01*
X41461507Y-28662454D01*
X41548477Y-28720566D01*
X41645113Y-28760594D01*
X41747701Y-28781000D01*
X41852299Y-28781000D01*
X41954887Y-28760594D01*
X42051523Y-28720566D01*
X42138493Y-28662454D01*
X42212454Y-28588493D01*
X42270566Y-28501523D01*
X42310594Y-28404887D01*
X42331000Y-28302299D01*
X42331000Y-28197701D01*
X42310594Y-28095113D01*
X42270566Y-27998477D01*
X42212454Y-27911507D01*
X42138493Y-27837546D01*
X42051523Y-27779434D01*
X41954887Y-27739406D01*
X41852299Y-27719000D01*
X41747701Y-27719000D01*
X41645113Y-27739406D01*
X41548477Y-27779434D01*
X41461507Y-27837546D01*
X41387546Y-27911507D01*
X41329434Y-27998477D01*
X41289406Y-28095113D01*
X41269000Y-28197701D01*
X39391255Y-28197701D01*
X39391255Y-26544321D01*
X39655576Y-26280000D01*
X46892668Y-26280000D01*
X46913945Y-26496030D01*
X46976959Y-26703758D01*
X47079287Y-26895201D01*
X47216998Y-27063002D01*
X47384799Y-27200713D01*
X47576242Y-27303041D01*
X47783970Y-27366055D01*
X47945863Y-27382000D01*
X48054137Y-27382000D01*
X48216030Y-27366055D01*
X48423758Y-27303041D01*
X48615201Y-27200713D01*
X48783002Y-27063002D01*
X48920713Y-26895201D01*
X49023041Y-26703758D01*
X49086055Y-26496030D01*
X49098475Y-26369931D01*
X49107110Y-26457607D01*
X49158916Y-26628388D01*
X49243044Y-26785782D01*
X49356262Y-26923738D01*
X49494218Y-27036956D01*
X49651612Y-27121084D01*
X49822393Y-27172890D01*
X49955499Y-27186000D01*
X50044501Y-27186000D01*
X50177607Y-27172890D01*
X50348388Y-27121084D01*
X50505782Y-27036956D01*
X50643738Y-26923738D01*
X50756956Y-26785782D01*
X50841084Y-26628388D01*
X50892890Y-26457607D01*
X50910383Y-26280000D01*
X51089617Y-26280000D01*
X51107110Y-26457607D01*
X51158916Y-26628388D01*
X51243044Y-26785782D01*
X51356262Y-26923738D01*
X51494218Y-27036956D01*
X51651612Y-27121084D01*
X51822393Y-27172890D01*
X51955499Y-27186000D01*
X52044501Y-27186000D01*
X52177607Y-27172890D01*
X52348388Y-27121084D01*
X52505782Y-27036956D01*
X52643738Y-26923738D01*
X52756956Y-26785782D01*
X52841084Y-26628388D01*
X52892890Y-26457607D01*
X52910383Y-26280000D01*
X53089617Y-26280000D01*
X53107110Y-26457607D01*
X53158916Y-26628388D01*
X53243044Y-26785782D01*
X53356262Y-26923738D01*
X53494218Y-27036956D01*
X53651612Y-27121084D01*
X53822393Y-27172890D01*
X53955499Y-27186000D01*
X54044501Y-27186000D01*
X54177607Y-27172890D01*
X54348388Y-27121084D01*
X54505782Y-27036956D01*
X54643738Y-26923738D01*
X54756956Y-26785782D01*
X54841084Y-26628388D01*
X54892890Y-26457607D01*
X54910383Y-26280000D01*
X55089617Y-26280000D01*
X55107110Y-26457607D01*
X55158916Y-26628388D01*
X55243044Y-26785782D01*
X55356262Y-26923738D01*
X55494218Y-27036956D01*
X55651612Y-27121084D01*
X55822393Y-27172890D01*
X55955499Y-27186000D01*
X56044501Y-27186000D01*
X56177607Y-27172890D01*
X56348388Y-27121084D01*
X56505782Y-27036956D01*
X56643738Y-26923738D01*
X56756956Y-26785782D01*
X56841084Y-26628388D01*
X56892890Y-26457607D01*
X56910383Y-26280000D01*
X56892890Y-26102393D01*
X56841084Y-25931612D01*
X56756956Y-25774218D01*
X56643738Y-25636262D01*
X56505782Y-25523044D01*
X56348388Y-25438916D01*
X56177607Y-25387110D01*
X56044501Y-25374000D01*
X55955499Y-25374000D01*
X55822393Y-25387110D01*
X55651612Y-25438916D01*
X55494218Y-25523044D01*
X55356262Y-25636262D01*
X55243044Y-25774218D01*
X55158916Y-25931612D01*
X55107110Y-26102393D01*
X55089617Y-26280000D01*
X54910383Y-26280000D01*
X54892890Y-26102393D01*
X54841084Y-25931612D01*
X54756956Y-25774218D01*
X54643738Y-25636262D01*
X54505782Y-25523044D01*
X54348388Y-25438916D01*
X54177607Y-25387110D01*
X54044501Y-25374000D01*
X53955499Y-25374000D01*
X53822393Y-25387110D01*
X53651612Y-25438916D01*
X53494218Y-25523044D01*
X53356262Y-25636262D01*
X53243044Y-25774218D01*
X53158916Y-25931612D01*
X53107110Y-26102393D01*
X53089617Y-26280000D01*
X52910383Y-26280000D01*
X52892890Y-26102393D01*
X52841084Y-25931612D01*
X52756956Y-25774218D01*
X52643738Y-25636262D01*
X52505782Y-25523044D01*
X52348388Y-25438916D01*
X52177607Y-25387110D01*
X52044501Y-25374000D01*
X51955499Y-25374000D01*
X51822393Y-25387110D01*
X51651612Y-25438916D01*
X51494218Y-25523044D01*
X51356262Y-25636262D01*
X51243044Y-25774218D01*
X51158916Y-25931612D01*
X51107110Y-26102393D01*
X51089617Y-26280000D01*
X50910383Y-26280000D01*
X50892890Y-26102393D01*
X50841084Y-25931612D01*
X50756956Y-25774218D01*
X50643738Y-25636262D01*
X50505782Y-25523044D01*
X50348388Y-25438916D01*
X50177607Y-25387110D01*
X50044501Y-25374000D01*
X49955499Y-25374000D01*
X49822393Y-25387110D01*
X49651612Y-25438916D01*
X49494218Y-25523044D01*
X49356262Y-25636262D01*
X49243044Y-25774218D01*
X49158916Y-25931612D01*
X49107110Y-26102393D01*
X49098475Y-26190069D01*
X49086055Y-26063970D01*
X49023041Y-25856242D01*
X48920713Y-25664799D01*
X48783002Y-25496998D01*
X48615201Y-25359287D01*
X48423758Y-25256959D01*
X48216030Y-25193945D01*
X48054137Y-25178000D01*
X47945863Y-25178000D01*
X47783970Y-25193945D01*
X47576242Y-25256959D01*
X47384799Y-25359287D01*
X47216998Y-25496998D01*
X47079287Y-25664799D01*
X46976959Y-25856242D01*
X46913945Y-26063970D01*
X46892668Y-26280000D01*
X39655576Y-26280000D01*
X40874011Y-25061566D01*
X40839406Y-25145111D01*
X40819000Y-25247699D01*
X40819000Y-25352297D01*
X40839406Y-25454885D01*
X40879434Y-25551521D01*
X40937546Y-25638491D01*
X41011507Y-25712452D01*
X41098477Y-25770564D01*
X41195113Y-25810592D01*
X41297701Y-25830998D01*
X41402299Y-25830998D01*
X41504887Y-25810592D01*
X41601523Y-25770564D01*
X41688493Y-25712452D01*
X41762454Y-25638491D01*
X41820566Y-25551521D01*
X41860594Y-25454885D01*
X41881000Y-25352297D01*
X41881000Y-25247699D01*
X41873845Y-25211729D01*
X41927575Y-25158000D01*
X58208226Y-25158000D01*
X58423109Y-25372883D01*
X57325000Y-25372883D01*
X57279716Y-25377343D01*
X57236173Y-25390552D01*
X57196043Y-25412002D01*
X57160868Y-25440868D01*
X57132002Y-25476043D01*
X57110552Y-25516173D01*
X57097343Y-25559716D01*
X57092883Y-25605000D01*
X57092883Y-26955000D01*
X57097343Y-27000284D01*
X57110552Y-27043827D01*
X57132002Y-27083957D01*
X57160868Y-27119132D01*
X57196043Y-27147998D01*
X57236173Y-27169448D01*
X57279716Y-27182657D01*
X57325000Y-27187117D01*
X58675000Y-27187117D01*
X58720284Y-27182657D01*
X58763827Y-27169448D01*
X58792001Y-27154389D01*
X58792000Y-29534880D01*
X58790511Y-29550000D01*
X58792000Y-29565120D01*
X58792000Y-29565127D01*
X58795289Y-29598522D01*
X58796457Y-29610379D01*
X58800007Y-29622080D01*
X58814069Y-29668436D01*
X58842668Y-29721942D01*
X58881158Y-29768842D01*
X58892915Y-29778491D01*
X60421514Y-31307091D01*
X60431158Y-31318842D01*
X60478057Y-31357332D01*
X60531563Y-31385931D01*
X60589620Y-31403543D01*
X60595375Y-31404110D01*
X60634872Y-31408000D01*
X60634879Y-31408000D01*
X60649999Y-31409489D01*
X60665119Y-31408000D01*
X61317171Y-31408000D01*
X61337546Y-31438493D01*
X61411507Y-31512454D01*
X61498477Y-31570566D01*
X61595113Y-31610594D01*
X61697701Y-31631000D01*
X61802299Y-31631000D01*
X61904887Y-31610594D01*
X62001523Y-31570566D01*
X62088493Y-31512454D01*
X62162454Y-31438493D01*
X62220566Y-31351523D01*
X62260594Y-31254887D01*
X62281000Y-31152299D01*
X62281000Y-31047701D01*
X62260594Y-30945113D01*
X62220566Y-30848477D01*
X62162454Y-30761507D01*
X62108947Y-30708000D01*
X63467171Y-30708000D01*
X63487546Y-30738493D01*
X63561507Y-30812454D01*
X63648477Y-30870566D01*
X63745113Y-30910594D01*
X63847701Y-30931000D01*
X63952299Y-30931000D01*
X64053567Y-30910857D01*
X61122424Y-33842000D01*
X59882829Y-33842000D01*
X59862454Y-33811507D01*
X59788493Y-33737546D01*
X59701523Y-33679434D01*
X59604887Y-33639406D01*
X59502299Y-33619000D01*
X59397701Y-33619000D01*
X59295113Y-33639406D01*
X59198477Y-33679434D01*
X59111507Y-33737546D01*
X59037546Y-33811507D01*
X58979434Y-33898477D01*
X58939406Y-33995113D01*
X58919000Y-34097701D01*
X58919000Y-34202299D01*
X58939406Y-34304887D01*
X58979434Y-34401523D01*
X59037546Y-34488493D01*
X59111507Y-34562454D01*
X59198477Y-34620566D01*
X59295113Y-34660594D01*
X59397701Y-34681000D01*
X59502299Y-34681000D01*
X59604887Y-34660594D01*
X59701523Y-34620566D01*
X59788493Y-34562454D01*
X59862454Y-34488493D01*
X59882829Y-34458000D01*
X61234880Y-34458000D01*
X61250000Y-34459489D01*
X61265120Y-34458000D01*
X61265128Y-34458000D01*
X61310379Y-34453543D01*
X61368437Y-34435931D01*
X61421943Y-34407332D01*
X61468842Y-34368842D01*
X61478491Y-34357085D01*
X66107091Y-29728486D01*
X66118842Y-29718842D01*
X66157332Y-29671943D01*
X66185931Y-29618437D01*
X66191972Y-29598522D01*
X66203543Y-29560380D01*
X66204792Y-29547701D01*
X66208000Y-29515128D01*
X66208000Y-29515121D01*
X66209489Y-29500001D01*
X66208000Y-29484881D01*
X66208000Y-29082829D01*
X66238493Y-29062454D01*
X66312454Y-28988493D01*
X66370566Y-28901523D01*
X66410594Y-28804887D01*
X66431000Y-28702299D01*
X66431000Y-28597701D01*
X66410594Y-28495113D01*
X66370566Y-28398477D01*
X66312454Y-28311507D01*
X66238493Y-28237546D01*
X66151523Y-28179434D01*
X66054887Y-28139406D01*
X65952299Y-28119000D01*
X65847701Y-28119000D01*
X65745113Y-28139406D01*
X65648477Y-28179434D01*
X65561507Y-28237546D01*
X65487546Y-28311507D01*
X65429434Y-28398477D01*
X65389406Y-28495113D01*
X65369000Y-28597701D01*
X65369000Y-28702299D01*
X65389406Y-28804887D01*
X65429434Y-28901523D01*
X65487546Y-28988493D01*
X65561507Y-29062454D01*
X65592001Y-29082829D01*
X65592001Y-29372422D01*
X64410857Y-30553567D01*
X64431000Y-30452299D01*
X64431000Y-30347701D01*
X64410594Y-30245113D01*
X64370566Y-30148477D01*
X64312454Y-30061507D01*
X64238493Y-29987546D01*
X64151523Y-29929434D01*
X64054887Y-29889406D01*
X63952299Y-29869000D01*
X63847701Y-29869000D01*
X63745113Y-29889406D01*
X63648477Y-29929434D01*
X63561507Y-29987546D01*
X63487546Y-30061507D01*
X63467171Y-30092000D01*
X60927577Y-30092000D01*
X60423845Y-29588269D01*
X60431000Y-29552299D01*
X60431000Y-29447701D01*
X60410594Y-29345113D01*
X60370566Y-29248477D01*
X60312454Y-29161507D01*
X60238493Y-29087546D01*
X60151523Y-29029434D01*
X60054887Y-28989406D01*
X59952299Y-28969000D01*
X59847701Y-28969000D01*
X59745113Y-28989406D01*
X59648477Y-29029434D01*
X59561507Y-29087546D01*
X59487546Y-29161507D01*
X59429434Y-29248477D01*
X59408000Y-29300223D01*
X59408000Y-25643025D01*
X59414741Y-25648557D01*
X59420945Y-25663536D01*
X59479057Y-25750506D01*
X59553018Y-25824467D01*
X59639988Y-25882579D01*
X59736624Y-25922607D01*
X59839212Y-25943013D01*
X59943810Y-25943013D01*
X60046398Y-25922607D01*
X60143034Y-25882579D01*
X60230004Y-25824467D01*
X60303965Y-25750506D01*
X60362077Y-25663536D01*
X60402105Y-25566900D01*
X60422511Y-25464312D01*
X60422511Y-25359714D01*
X60402105Y-25257126D01*
X60362077Y-25160490D01*
X60303965Y-25073520D01*
X60230004Y-24999559D01*
X60143034Y-24941447D01*
X60046398Y-24901419D01*
X59943810Y-24881013D01*
X59900944Y-24881013D01*
X59912454Y-24869503D01*
X59970566Y-24782533D01*
X59988438Y-24739387D01*
X60011507Y-24762456D01*
X60098477Y-24820568D01*
X60195113Y-24860596D01*
X60297701Y-24881002D01*
X60402299Y-24881002D01*
X60504887Y-24860596D01*
X60601523Y-24820568D01*
X60688493Y-24762456D01*
X60762454Y-24688495D01*
X60820566Y-24601525D01*
X60860594Y-24504889D01*
X60881000Y-24402301D01*
X60881000Y-24297703D01*
X60860594Y-24195115D01*
X60820566Y-24098479D01*
X60762454Y-24011509D01*
X60688493Y-23937548D01*
X60601523Y-23879436D01*
X60549772Y-23858000D01*
X67922424Y-23858000D01*
X68742001Y-24677579D01*
X68742000Y-27209880D01*
X68740511Y-27225000D01*
X68742000Y-27240120D01*
X68742000Y-27240127D01*
X68746457Y-27285378D01*
X68764069Y-27343436D01*
X68792668Y-27396942D01*
X68831158Y-27443842D01*
X68842915Y-27453491D01*
X70051155Y-28661732D01*
X70044000Y-28697701D01*
X70044000Y-28802299D01*
X70064406Y-28904887D01*
X70104434Y-29001523D01*
X70162546Y-29088493D01*
X70236507Y-29162454D01*
X70267783Y-29183352D01*
X70261507Y-29187546D01*
X70187546Y-29261507D01*
X70129434Y-29348477D01*
X70099231Y-29421395D01*
X68880438Y-28202603D01*
X68887593Y-28166633D01*
X68887593Y-28062035D01*
X68867187Y-27959447D01*
X68827159Y-27862811D01*
X68769047Y-27775841D01*
X68695086Y-27701880D01*
X68608116Y-27643768D01*
X68511480Y-27603740D01*
X68408892Y-27583334D01*
X68304294Y-27583334D01*
X68201706Y-27603740D01*
X68105070Y-27643768D01*
X68018100Y-27701880D01*
X67944139Y-27775841D01*
X67887537Y-27860551D01*
X67910594Y-27804887D01*
X67931000Y-27702299D01*
X67931000Y-27597701D01*
X67910594Y-27495113D01*
X67870566Y-27398477D01*
X67812454Y-27311507D01*
X67738493Y-27237546D01*
X67651523Y-27179434D01*
X67554887Y-27139406D01*
X67452299Y-27119000D01*
X67347701Y-27119000D01*
X67245113Y-27139406D01*
X67148477Y-27179434D01*
X67061507Y-27237546D01*
X66987546Y-27311507D01*
X66929434Y-27398477D01*
X66889406Y-27495113D01*
X66869000Y-27597701D01*
X66869000Y-27702299D01*
X66889406Y-27804887D01*
X66929434Y-27901523D01*
X66987546Y-27988493D01*
X67061507Y-28062454D01*
X67148477Y-28120566D01*
X67245113Y-28160594D01*
X67347701Y-28181000D01*
X67452299Y-28181000D01*
X67554887Y-28160594D01*
X67651523Y-28120566D01*
X67738493Y-28062454D01*
X67812454Y-27988493D01*
X67869056Y-27903783D01*
X67845999Y-27959447D01*
X67825593Y-28062035D01*
X67825593Y-28166633D01*
X67845999Y-28269221D01*
X67886027Y-28365857D01*
X67944139Y-28452827D01*
X68018100Y-28526788D01*
X68105070Y-28584900D01*
X68201706Y-28624928D01*
X68304294Y-28645334D01*
X68408892Y-28645334D01*
X68444862Y-28638179D01*
X71475789Y-31669108D01*
X71485429Y-31680854D01*
X71497175Y-31690494D01*
X71497179Y-31690498D01*
X71512552Y-31703114D01*
X71532328Y-31719344D01*
X71585834Y-31747943D01*
X71643892Y-31765555D01*
X71689143Y-31770012D01*
X71689151Y-31770012D01*
X71704271Y-31771501D01*
X71719391Y-31770012D01*
X72006590Y-31770012D01*
X72003953Y-31773958D01*
X71963925Y-31870594D01*
X71943519Y-31973182D01*
X71943519Y-32077780D01*
X71950512Y-32112934D01*
X71917189Y-32153537D01*
X71907352Y-32171942D01*
X71888589Y-32207044D01*
X71870977Y-32265101D01*
X71865031Y-32325480D01*
X71866521Y-32340610D01*
X71866520Y-33597903D01*
X68792910Y-36671514D01*
X68781159Y-36681158D01*
X68742669Y-36728057D01*
X68736748Y-36739135D01*
X68714069Y-36781564D01*
X68696457Y-36839621D01*
X68690511Y-36900000D01*
X68692001Y-36915130D01*
X68692000Y-37567171D01*
X68661507Y-37587546D01*
X68587546Y-37661507D01*
X68529434Y-37748477D01*
X68489406Y-37845113D01*
X68469000Y-37947701D01*
X68469000Y-38052299D01*
X68489406Y-38154887D01*
X68529434Y-38251523D01*
X68587546Y-38338493D01*
X68661507Y-38412454D01*
X68748477Y-38470566D01*
X68845113Y-38510594D01*
X68947701Y-38531000D01*
X69052299Y-38531000D01*
X69154887Y-38510594D01*
X69251523Y-38470566D01*
X69338493Y-38412454D01*
X69412454Y-38338493D01*
X69470566Y-38251523D01*
X69510594Y-38154887D01*
X69531000Y-38052299D01*
X69531000Y-37947701D01*
X69510594Y-37845113D01*
X69470566Y-37748477D01*
X69412454Y-37661507D01*
X69338493Y-37587546D01*
X69308000Y-37567171D01*
X69308000Y-37027576D01*
X69592001Y-36743576D01*
X69592001Y-36767171D01*
X69561507Y-36787546D01*
X69487546Y-36861507D01*
X69429434Y-36948477D01*
X69389406Y-37045113D01*
X69369000Y-37147701D01*
X69369000Y-37252299D01*
X69389406Y-37354887D01*
X69429434Y-37451523D01*
X69487546Y-37538493D01*
X69561507Y-37612454D01*
X69648477Y-37670566D01*
X69745113Y-37710594D01*
X69847701Y-37731000D01*
X69952299Y-37731000D01*
X70054887Y-37710594D01*
X70151523Y-37670566D01*
X70238493Y-37612454D01*
X70312454Y-37538493D01*
X70370566Y-37451523D01*
X70410594Y-37354887D01*
X70431000Y-37252299D01*
X70431000Y-37147701D01*
X70410594Y-37045113D01*
X70370566Y-36948477D01*
X70312454Y-36861507D01*
X70238493Y-36787546D01*
X70208000Y-36767171D01*
X70208000Y-36563169D01*
X71001842Y-35769327D01*
X71002386Y-35772061D01*
X71042414Y-35868697D01*
X71100526Y-35955667D01*
X71174487Y-36029628D01*
X71261457Y-36087740D01*
X71358093Y-36127768D01*
X71460681Y-36148174D01*
X71565279Y-36148174D01*
X71601249Y-36141019D01*
X71748331Y-36288102D01*
X71652299Y-36269000D01*
X71547701Y-36269000D01*
X71445113Y-36289406D01*
X71348477Y-36329434D01*
X71261507Y-36387546D01*
X71187546Y-36461507D01*
X71129434Y-36548477D01*
X71089406Y-36645113D01*
X71069000Y-36747701D01*
X71069000Y-36852299D01*
X71089406Y-36954887D01*
X71129434Y-37051523D01*
X71187546Y-37138493D01*
X71261507Y-37212454D01*
X71348477Y-37270566D01*
X71445113Y-37310594D01*
X71547701Y-37331000D01*
X71652299Y-37331000D01*
X71688267Y-37323845D01*
X71692907Y-37328485D01*
X71692918Y-37328494D01*
X71867969Y-37503545D01*
X71867969Y-37602743D01*
X71816763Y-37551537D01*
X71729793Y-37493425D01*
X71633157Y-37453397D01*
X71530569Y-37432991D01*
X71425971Y-37432991D01*
X71323383Y-37453397D01*
X71226747Y-37493425D01*
X71139777Y-37551537D01*
X71065816Y-37625498D01*
X71007704Y-37712468D01*
X70967676Y-37809104D01*
X70947270Y-37911692D01*
X70947270Y-38016290D01*
X70954263Y-38051444D01*
X70920940Y-38092047D01*
X70892340Y-38145553D01*
X70874728Y-38203611D01*
X70870271Y-38248862D01*
X70870271Y-38248870D01*
X70868782Y-38263990D01*
X70870271Y-38279110D01*
X70870271Y-38415282D01*
X67560867Y-41724687D01*
X67549116Y-41734331D01*
X67510626Y-41781230D01*
X67496700Y-41807284D01*
X67482026Y-41834737D01*
X67464414Y-41892794D01*
X67458468Y-41953173D01*
X67459958Y-41968303D01*
X67459957Y-44032600D01*
X67412454Y-43961507D01*
X67338493Y-43887546D01*
X67251523Y-43829434D01*
X67193060Y-43805218D01*
X67210594Y-43762887D01*
X67231000Y-43660299D01*
X67231000Y-43555701D01*
X67210594Y-43453113D01*
X67170566Y-43356477D01*
X67112454Y-43269507D01*
X67038493Y-43195546D01*
X66951523Y-43137434D01*
X66854887Y-43097406D01*
X66752299Y-43077000D01*
X66647701Y-43077000D01*
X66545113Y-43097406D01*
X66448477Y-43137434D01*
X66361507Y-43195546D01*
X66287546Y-43269507D01*
X66267171Y-43300000D01*
X63638174Y-43300000D01*
X63670566Y-43251523D01*
X63710594Y-43154887D01*
X63731000Y-43052299D01*
X63731000Y-42947701D01*
X63723845Y-42911733D01*
X63728485Y-42907093D01*
X63728494Y-42907082D01*
X64344663Y-42290914D01*
X64364941Y-42392857D01*
X64404969Y-42489493D01*
X64463081Y-42576463D01*
X64537042Y-42650424D01*
X64624012Y-42708536D01*
X64720648Y-42748564D01*
X64823236Y-42768970D01*
X64927834Y-42768970D01*
X65030422Y-42748564D01*
X65127058Y-42708536D01*
X65214028Y-42650424D01*
X65287989Y-42576463D01*
X65346101Y-42489493D01*
X65386129Y-42392857D01*
X65406535Y-42290269D01*
X65406535Y-42185671D01*
X65399380Y-42149701D01*
X65451380Y-42097701D01*
X66369000Y-42097701D01*
X66369000Y-42202299D01*
X66389406Y-42304887D01*
X66429434Y-42401523D01*
X66487546Y-42488493D01*
X66561507Y-42562454D01*
X66648477Y-42620566D01*
X66745113Y-42660594D01*
X66847701Y-42681000D01*
X66952299Y-42681000D01*
X67054887Y-42660594D01*
X67151523Y-42620566D01*
X67238493Y-42562454D01*
X67312454Y-42488493D01*
X67370566Y-42401523D01*
X67410594Y-42304887D01*
X67431000Y-42202299D01*
X67431000Y-42097701D01*
X67410594Y-41995113D01*
X67370566Y-41898477D01*
X67312454Y-41811507D01*
X67238493Y-41737546D01*
X67151523Y-41679434D01*
X67054887Y-41639406D01*
X66952299Y-41619000D01*
X66847701Y-41619000D01*
X66745113Y-41639406D01*
X66648477Y-41679434D01*
X66561507Y-41737546D01*
X66487546Y-41811507D01*
X66429434Y-41898477D01*
X66389406Y-41995113D01*
X66369000Y-42097701D01*
X65451380Y-42097701D01*
X68021353Y-39527729D01*
X68078818Y-39551532D01*
X68181406Y-39571938D01*
X68286004Y-39571938D01*
X68388592Y-39551532D01*
X68485228Y-39511504D01*
X68572198Y-39453392D01*
X68646159Y-39379431D01*
X68704271Y-39292461D01*
X68744299Y-39195825D01*
X68764705Y-39093237D01*
X68764705Y-38988639D01*
X68744299Y-38886051D01*
X68704271Y-38789415D01*
X68646159Y-38702445D01*
X68572198Y-38628484D01*
X68485228Y-38570372D01*
X68388592Y-38530344D01*
X68286004Y-38509938D01*
X68181406Y-38509938D01*
X68078818Y-38530344D01*
X67982182Y-38570372D01*
X67895212Y-38628484D01*
X67821251Y-38702445D01*
X67763139Y-38789415D01*
X67723111Y-38886051D01*
X67706036Y-38971892D01*
X64963804Y-41714125D01*
X64927834Y-41706970D01*
X64823236Y-41706970D01*
X64720648Y-41727376D01*
X64684777Y-41742234D01*
X64684777Y-37109606D01*
X64715270Y-37089231D01*
X64789231Y-37015270D01*
X64847343Y-36928300D01*
X64887371Y-36831664D01*
X64907777Y-36729076D01*
X64907777Y-36624478D01*
X64887371Y-36521890D01*
X64847343Y-36425254D01*
X64789231Y-36338284D01*
X64715270Y-36264323D01*
X64628300Y-36206211D01*
X64531664Y-36166183D01*
X64429076Y-36145777D01*
X64324478Y-36145777D01*
X64221890Y-36166183D01*
X64125254Y-36206211D01*
X64038284Y-36264323D01*
X63964323Y-36338284D01*
X63906211Y-36425254D01*
X63866183Y-36521890D01*
X63845777Y-36624478D01*
X63845777Y-36729076D01*
X63866183Y-36831664D01*
X63906211Y-36928300D01*
X63964323Y-37015270D01*
X64038284Y-37089231D01*
X64068777Y-37109606D01*
X64068778Y-41695644D01*
X63292918Y-42471506D01*
X63292907Y-42471515D01*
X63288267Y-42476155D01*
X63252299Y-42469000D01*
X63147701Y-42469000D01*
X63045113Y-42489406D01*
X62948477Y-42529434D01*
X62861507Y-42587546D01*
X62787546Y-42661507D01*
X62729434Y-42748477D01*
X62689406Y-42845113D01*
X62669000Y-42947701D01*
X62669000Y-43052299D01*
X62689406Y-43154887D01*
X62729434Y-43251523D01*
X62761826Y-43300000D01*
X61631000Y-43300000D01*
X61631000Y-43247701D01*
X61610594Y-43145113D01*
X61570566Y-43048477D01*
X61512454Y-42961507D01*
X61438493Y-42887546D01*
X61351523Y-42829434D01*
X61254887Y-42789406D01*
X61152299Y-42769000D01*
X61047701Y-42769000D01*
X60945113Y-42789406D01*
X60848477Y-42829434D01*
X60761507Y-42887546D01*
X60687546Y-42961507D01*
X60629434Y-43048477D01*
X60589406Y-43145113D01*
X60569000Y-43247701D01*
X60569000Y-43352299D01*
X60589406Y-43454887D01*
X60629434Y-43551523D01*
X60687546Y-43638493D01*
X60761507Y-43712454D01*
X60848477Y-43770566D01*
X60945113Y-43810594D01*
X61047701Y-43831000D01*
X61152299Y-43831000D01*
X61186919Y-43824114D01*
X61189158Y-43826842D01*
X61200904Y-43836482D01*
X61200908Y-43836486D01*
X61214385Y-43847546D01*
X61236057Y-43865332D01*
X61289563Y-43893931D01*
X61347621Y-43911543D01*
X61392872Y-43916000D01*
X61392880Y-43916000D01*
X61408000Y-43917489D01*
X61423120Y-43916000D01*
X66267171Y-43916000D01*
X66287546Y-43946493D01*
X66333053Y-43992000D01*
X61039384Y-43992000D01*
X61024264Y-43990511D01*
X61009144Y-43992000D01*
X61009136Y-43992000D01*
X60963885Y-43996457D01*
X60905827Y-44014069D01*
X60852321Y-44042668D01*
X60805422Y-44081158D01*
X60795777Y-44092910D01*
X60769817Y-44118870D01*
X60738493Y-44087546D01*
X60651523Y-44029434D01*
X60554887Y-43989406D01*
X60452299Y-43969000D01*
X60347701Y-43969000D01*
X60245113Y-43989406D01*
X60148477Y-44029434D01*
X60061507Y-44087546D01*
X59987546Y-44161507D01*
X59929434Y-44248477D01*
X59889406Y-44345113D01*
X59869000Y-44447701D01*
X59869000Y-44552299D01*
X59889406Y-44654887D01*
X59929434Y-44751523D01*
X59987546Y-44838493D01*
X60061507Y-44912454D01*
X60148477Y-44970566D01*
X60245113Y-45010594D01*
X60347701Y-45031000D01*
X60452299Y-45031000D01*
X60554887Y-45010594D01*
X60651523Y-44970566D01*
X60738493Y-44912454D01*
X60812454Y-44838493D01*
X60832367Y-44808691D01*
X60839384Y-44808000D01*
X60839392Y-44808000D01*
X60884643Y-44803543D01*
X60942701Y-44785931D01*
X60996207Y-44757332D01*
X61043106Y-44718842D01*
X61052754Y-44707086D01*
X61151841Y-44608000D01*
X61726413Y-44608000D01*
X61690413Y-44661877D01*
X61650385Y-44758513D01*
X61629979Y-44861101D01*
X61629979Y-44965699D01*
X61650385Y-45068287D01*
X61690413Y-45164923D01*
X61708505Y-45192000D01*
X59927580Y-45192000D01*
X59923847Y-45188268D01*
X59931002Y-45152299D01*
X59931002Y-45047701D01*
X59910596Y-44945113D01*
X59870568Y-44848477D01*
X59812456Y-44761507D01*
X59738495Y-44687546D01*
X59651525Y-44629434D01*
X59554889Y-44589406D01*
X59452301Y-44569000D01*
X59347703Y-44569000D01*
X59245115Y-44589406D01*
X59148479Y-44629434D01*
X59061509Y-44687546D01*
X58987548Y-44761507D01*
X58929436Y-44848477D01*
X58889408Y-44945113D01*
X58869002Y-45047701D01*
X58869002Y-45152299D01*
X58889408Y-45254887D01*
X58929436Y-45351523D01*
X58987548Y-45438493D01*
X59061509Y-45512454D01*
X59148479Y-45570566D01*
X59245115Y-45610594D01*
X59347703Y-45631000D01*
X59452301Y-45631000D01*
X59488270Y-45623845D01*
X59571520Y-45707096D01*
X59581160Y-45718842D01*
X59592906Y-45728482D01*
X59592909Y-45728485D01*
X59619950Y-45750677D01*
X59628059Y-45757332D01*
X59681565Y-45785931D01*
X59739623Y-45803543D01*
X59784874Y-45808000D01*
X59784883Y-45808000D01*
X59800001Y-45809489D01*
X59815119Y-45808000D01*
X62584880Y-45808000D01*
X62600000Y-45809489D01*
X62615120Y-45808000D01*
X62615128Y-45808000D01*
X62660379Y-45803543D01*
X62718437Y-45785931D01*
X62771943Y-45757332D01*
X62818842Y-45718842D01*
X62828490Y-45707086D01*
X62927577Y-45608000D01*
X67319000Y-45608000D01*
X67319000Y-45684655D01*
X67295113Y-45689406D01*
X67198477Y-45729434D01*
X67111507Y-45787546D01*
X67037546Y-45861507D01*
X66979434Y-45948477D01*
X66939406Y-46045113D01*
X66923762Y-46123762D01*
X66845113Y-46139406D01*
X66748477Y-46179434D01*
X66661507Y-46237546D01*
X66587546Y-46311507D01*
X66529434Y-46398477D01*
X66489406Y-46495113D01*
X66469000Y-46597701D01*
X66469000Y-46702299D01*
X66489406Y-46804887D01*
X66529434Y-46901523D01*
X66587546Y-46988493D01*
X66661507Y-47062454D01*
X66748477Y-47120566D01*
X66845113Y-47160594D01*
X66947701Y-47181000D01*
X67052299Y-47181000D01*
X67154887Y-47160594D01*
X67251523Y-47120566D01*
X67338493Y-47062454D01*
X67412454Y-46988493D01*
X67470566Y-46901523D01*
X67510594Y-46804887D01*
X67526238Y-46726238D01*
X67604887Y-46710594D01*
X67701523Y-46670566D01*
X67788493Y-46612454D01*
X67862454Y-46538493D01*
X67920566Y-46451523D01*
X67960594Y-46354887D01*
X67981000Y-46252299D01*
X67981000Y-46165345D01*
X68004887Y-46160594D01*
X68075979Y-46131147D01*
X68075979Y-48488449D01*
X63992924Y-52571506D01*
X63992913Y-52571515D01*
X63988273Y-52576155D01*
X63952305Y-52569000D01*
X63847707Y-52569000D01*
X63745119Y-52589406D01*
X63648483Y-52629434D01*
X63561513Y-52687546D01*
X63487552Y-52761507D01*
X63429440Y-52848477D01*
X63389412Y-52945113D01*
X63369006Y-53047701D01*
X63369006Y-53152299D01*
X63389412Y-53254887D01*
X63429440Y-53351523D01*
X63487552Y-53438493D01*
X63561513Y-53512454D01*
X63648483Y-53570566D01*
X63745119Y-53610594D01*
X63847707Y-53631000D01*
X63952305Y-53631000D01*
X64054893Y-53610594D01*
X64151529Y-53570566D01*
X64238499Y-53512454D01*
X64312460Y-53438493D01*
X64370572Y-53351523D01*
X64410600Y-53254887D01*
X64431006Y-53152299D01*
X64431006Y-53047701D01*
X64423851Y-53011733D01*
X64428491Y-53007093D01*
X64428500Y-53007082D01*
X68383990Y-49051594D01*
X68383990Y-49880431D01*
X68092918Y-50171504D01*
X68092907Y-50171513D01*
X68088267Y-50176153D01*
X68052299Y-50168998D01*
X67947701Y-50168998D01*
X67845113Y-50189404D01*
X67748477Y-50229432D01*
X67661507Y-50287544D01*
X67587546Y-50361505D01*
X67529434Y-50448475D01*
X67489406Y-50545111D01*
X67469000Y-50647699D01*
X67469000Y-50752297D01*
X67489406Y-50854885D01*
X67529434Y-50951521D01*
X67587546Y-51038491D01*
X67661507Y-51112452D01*
X67748477Y-51170564D01*
X67845113Y-51210592D01*
X67947701Y-51230998D01*
X68033425Y-51230998D01*
X60209915Y-59054509D01*
X60198158Y-59064158D01*
X60159668Y-59111058D01*
X60155297Y-59119236D01*
X60078507Y-59170546D01*
X60004546Y-59244507D01*
X59946434Y-59331477D01*
X59906406Y-59428113D01*
X59886000Y-59530701D01*
X59886000Y-59635299D01*
X59906406Y-59737887D01*
X59946434Y-59834523D01*
X60004546Y-59921493D01*
X60078507Y-59995454D01*
X60165477Y-60053566D01*
X60262113Y-60093594D01*
X60364701Y-60114000D01*
X60469299Y-60114000D01*
X60571887Y-60093594D01*
X60668523Y-60053566D01*
X60755493Y-59995454D01*
X60829454Y-59921493D01*
X60887566Y-59834523D01*
X60927594Y-59737887D01*
X60948000Y-59635299D01*
X60948000Y-59530701D01*
X60927594Y-59428113D01*
X60887566Y-59331477D01*
X60854134Y-59281442D01*
X62037875Y-58097701D01*
X69469000Y-58097701D01*
X69469000Y-58202299D01*
X69489406Y-58304887D01*
X69529434Y-58401523D01*
X69587546Y-58488493D01*
X69661507Y-58562454D01*
X69748477Y-58620566D01*
X69845113Y-58660594D01*
X69947701Y-58681000D01*
X70052299Y-58681000D01*
X70154887Y-58660594D01*
X70251523Y-58620566D01*
X70338493Y-58562454D01*
X70412454Y-58488493D01*
X70470566Y-58401523D01*
X70510594Y-58304887D01*
X70531000Y-58202299D01*
X70531000Y-58097701D01*
X70510594Y-57995113D01*
X70470566Y-57898477D01*
X70412454Y-57811507D01*
X70338493Y-57737546D01*
X70251523Y-57679434D01*
X70154887Y-57639406D01*
X70052299Y-57619000D01*
X69947701Y-57619000D01*
X69845113Y-57639406D01*
X69748477Y-57679434D01*
X69661507Y-57737546D01*
X69587546Y-57811507D01*
X69529434Y-57898477D01*
X69489406Y-57995113D01*
X69469000Y-58097701D01*
X62037875Y-58097701D01*
X63550576Y-56585000D01*
X76092882Y-56585000D01*
X76097342Y-56630284D01*
X76110551Y-56673828D01*
X76132001Y-56713958D01*
X76160868Y-56749132D01*
X76196042Y-56777999D01*
X76236172Y-56799449D01*
X76279716Y-56812658D01*
X76325000Y-56817118D01*
X76869250Y-56816000D01*
X76927000Y-56758250D01*
X76927000Y-55983000D01*
X77073000Y-55983000D01*
X77073000Y-56758250D01*
X77130750Y-56816000D01*
X77675000Y-56817118D01*
X77720284Y-56812658D01*
X77763828Y-56799449D01*
X77803958Y-56777999D01*
X77839132Y-56749132D01*
X77867999Y-56713958D01*
X77889449Y-56673828D01*
X77902658Y-56630284D01*
X77907118Y-56585000D01*
X77906000Y-56040750D01*
X77848250Y-55983000D01*
X77073000Y-55983000D01*
X76927000Y-55983000D01*
X76151750Y-55983000D01*
X76094000Y-56040750D01*
X76092882Y-56585000D01*
X63550576Y-56585000D01*
X66487875Y-53647701D01*
X67869000Y-53647701D01*
X67869000Y-53752299D01*
X67889406Y-53854887D01*
X67929434Y-53951523D01*
X67987546Y-54038493D01*
X68061507Y-54112454D01*
X68092000Y-54132829D01*
X68092001Y-54967165D01*
X68061507Y-54987540D01*
X67987546Y-55061501D01*
X67929434Y-55148471D01*
X67889406Y-55245107D01*
X67869000Y-55347695D01*
X67869000Y-55452293D01*
X67889406Y-55554881D01*
X67929434Y-55651517D01*
X67987546Y-55738487D01*
X68061507Y-55812448D01*
X68148477Y-55870560D01*
X68245113Y-55910588D01*
X68347701Y-55930994D01*
X68452299Y-55930994D01*
X68554887Y-55910588D01*
X68651523Y-55870560D01*
X68738493Y-55812448D01*
X68812454Y-55738487D01*
X68870566Y-55651517D01*
X68910594Y-55554881D01*
X68931000Y-55452293D01*
X68931000Y-55347695D01*
X68910594Y-55245107D01*
X68870566Y-55148471D01*
X68812454Y-55061501D01*
X68738493Y-54987540D01*
X68708000Y-54967165D01*
X68708000Y-54132829D01*
X68738493Y-54112454D01*
X68812454Y-54038493D01*
X68870566Y-53951523D01*
X68910594Y-53854887D01*
X68912023Y-53847701D01*
X69968994Y-53847701D01*
X69968994Y-53952299D01*
X69989400Y-54054887D01*
X70029428Y-54151523D01*
X70087540Y-54238493D01*
X70161501Y-54312454D01*
X70248471Y-54370566D01*
X70345107Y-54410594D01*
X70447695Y-54431000D01*
X70552293Y-54431000D01*
X70654881Y-54410594D01*
X70751517Y-54370566D01*
X70824997Y-54321468D01*
X70898477Y-54370566D01*
X70995113Y-54410594D01*
X71097701Y-54431000D01*
X71202299Y-54431000D01*
X71304887Y-54410594D01*
X71401523Y-54370566D01*
X71475000Y-54321470D01*
X71548477Y-54370566D01*
X71645113Y-54410594D01*
X71747701Y-54431000D01*
X71852299Y-54431000D01*
X71954887Y-54410594D01*
X72051523Y-54370566D01*
X72138493Y-54312454D01*
X72212454Y-54238493D01*
X72270566Y-54151523D01*
X72310594Y-54054887D01*
X72331000Y-53952299D01*
X72331000Y-53847701D01*
X72310594Y-53745113D01*
X72270566Y-53648477D01*
X72212454Y-53561507D01*
X72138493Y-53487546D01*
X72051523Y-53429434D01*
X71954887Y-53389406D01*
X71852299Y-53369000D01*
X71747701Y-53369000D01*
X71645113Y-53389406D01*
X71548477Y-53429434D01*
X71475000Y-53478530D01*
X71401523Y-53429434D01*
X71304887Y-53389406D01*
X71202299Y-53369000D01*
X71097701Y-53369000D01*
X70995113Y-53389406D01*
X70898477Y-53429434D01*
X70824997Y-53478532D01*
X70751517Y-53429434D01*
X70654881Y-53389406D01*
X70552293Y-53369000D01*
X70447695Y-53369000D01*
X70345107Y-53389406D01*
X70248471Y-53429434D01*
X70161501Y-53487546D01*
X70087540Y-53561507D01*
X70029428Y-53648477D01*
X69989400Y-53745113D01*
X69968994Y-53847701D01*
X68912023Y-53847701D01*
X68931000Y-53752299D01*
X68931000Y-53647701D01*
X68910594Y-53545113D01*
X68870566Y-53448477D01*
X68812454Y-53361507D01*
X68738493Y-53287546D01*
X68651523Y-53229434D01*
X68554887Y-53189406D01*
X68452299Y-53169000D01*
X68347701Y-53169000D01*
X68245113Y-53189406D01*
X68148477Y-53229434D01*
X68061507Y-53287546D01*
X67987546Y-53361507D01*
X67929434Y-53448477D01*
X67889406Y-53545113D01*
X67869000Y-53647701D01*
X66487875Y-53647701D01*
X68692001Y-51443576D01*
X68692001Y-52115128D01*
X68696458Y-52160379D01*
X68714070Y-52218437D01*
X68742669Y-52271943D01*
X68781159Y-52318842D01*
X68828058Y-52357332D01*
X68881564Y-52385931D01*
X68939622Y-52403543D01*
X69000000Y-52409490D01*
X69060379Y-52403543D01*
X69118437Y-52385931D01*
X69171943Y-52357332D01*
X69218842Y-52318842D01*
X69257332Y-52271943D01*
X69285931Y-52218437D01*
X69303543Y-52160379D01*
X69308000Y-52115128D01*
X69308000Y-50715121D01*
X69309489Y-50700001D01*
X69308000Y-50684881D01*
X69308000Y-46219516D01*
X69454818Y-46719532D01*
X69857861Y-47501326D01*
X70401576Y-48192716D01*
X71066312Y-48768713D01*
X71828043Y-49208499D01*
X72659239Y-49496179D01*
X73529858Y-49621355D01*
X74408433Y-49579503D01*
X75263211Y-49372136D01*
X76063298Y-49006749D01*
X76779775Y-48496547D01*
X77386749Y-47859971D01*
X77862282Y-47120029D01*
X78175979Y-46336450D01*
X78175979Y-47288444D01*
X75372424Y-50092000D01*
X75332835Y-50092000D01*
X75312460Y-50061507D01*
X75238499Y-49987546D01*
X75151529Y-49929434D01*
X75054893Y-49889406D01*
X74952305Y-49869000D01*
X74847707Y-49869000D01*
X74745119Y-49889406D01*
X74648483Y-49929434D01*
X74561513Y-49987546D01*
X74487552Y-50061507D01*
X74429440Y-50148477D01*
X74389412Y-50245113D01*
X74369006Y-50347701D01*
X74369006Y-50452299D01*
X74389412Y-50554887D01*
X74429440Y-50651523D01*
X74487552Y-50738493D01*
X74502260Y-50753201D01*
X74461507Y-50780432D01*
X74387546Y-50854393D01*
X74329434Y-50941363D01*
X74289406Y-51037999D01*
X74269000Y-51140587D01*
X74269000Y-51245185D01*
X74289406Y-51347773D01*
X74329434Y-51444409D01*
X74387546Y-51531379D01*
X74461507Y-51605340D01*
X74548477Y-51663452D01*
X74645113Y-51703480D01*
X74678555Y-51710132D01*
X73696688Y-52692000D01*
X73232833Y-52692000D01*
X73212458Y-52661507D01*
X73138497Y-52587546D01*
X73051527Y-52529434D01*
X72954891Y-52489406D01*
X72852303Y-52469000D01*
X72747705Y-52469000D01*
X72645117Y-52489406D01*
X72548481Y-52529434D01*
X72461511Y-52587546D01*
X72387550Y-52661507D01*
X72329438Y-52748477D01*
X72289410Y-52845113D01*
X72269004Y-52947701D01*
X72269004Y-53052299D01*
X72289410Y-53154887D01*
X72329438Y-53251523D01*
X72387550Y-53338493D01*
X72461511Y-53412454D01*
X72548481Y-53470566D01*
X72645117Y-53510594D01*
X72747705Y-53531000D01*
X72852303Y-53531000D01*
X72954891Y-53510594D01*
X73051527Y-53470566D01*
X73138497Y-53412454D01*
X73212458Y-53338493D01*
X73232833Y-53308000D01*
X73541053Y-53308000D01*
X73537546Y-53311507D01*
X73479434Y-53398477D01*
X73439406Y-53495113D01*
X73419000Y-53597701D01*
X73419000Y-53702299D01*
X73426155Y-53738268D01*
X72497424Y-54667000D01*
X72107829Y-54667000D01*
X72087454Y-54636507D01*
X72013493Y-54562546D01*
X71926523Y-54504434D01*
X71829887Y-54464406D01*
X71727299Y-54444000D01*
X71622701Y-54444000D01*
X71520113Y-54464406D01*
X71423477Y-54504434D01*
X71336507Y-54562546D01*
X71262546Y-54636507D01*
X71204434Y-54723477D01*
X71164406Y-54820113D01*
X71144000Y-54922701D01*
X71144000Y-55027299D01*
X71164406Y-55129887D01*
X71204434Y-55226523D01*
X71262546Y-55313493D01*
X71336507Y-55387454D01*
X71423477Y-55445566D01*
X71520113Y-55485594D01*
X71622701Y-55506000D01*
X71727299Y-55506000D01*
X71829887Y-55485594D01*
X71926523Y-55445566D01*
X72013493Y-55387454D01*
X72087454Y-55313493D01*
X72107829Y-55283000D01*
X72609880Y-55283000D01*
X72625000Y-55284489D01*
X72640120Y-55283000D01*
X72640128Y-55283000D01*
X72685379Y-55278543D01*
X72743437Y-55260931D01*
X72791951Y-55235000D01*
X76092882Y-55235000D01*
X76094000Y-55779250D01*
X76151750Y-55837000D01*
X76927000Y-55837000D01*
X76927000Y-55061750D01*
X77073000Y-55061750D01*
X77073000Y-55837000D01*
X77848250Y-55837000D01*
X77906000Y-55779250D01*
X77907118Y-55235000D01*
X77902658Y-55189716D01*
X77889449Y-55146172D01*
X77867999Y-55106042D01*
X77839132Y-55070868D01*
X77803958Y-55042001D01*
X77763828Y-55020551D01*
X77720284Y-55007342D01*
X77675000Y-55002882D01*
X77130750Y-55004000D01*
X77073000Y-55061750D01*
X76927000Y-55061750D01*
X76869250Y-55004000D01*
X76325000Y-55002882D01*
X76279716Y-55007342D01*
X76236172Y-55020551D01*
X76196042Y-55042001D01*
X76160868Y-55070868D01*
X76132001Y-55106042D01*
X76110551Y-55146172D01*
X76097342Y-55189716D01*
X76092882Y-55235000D01*
X72791951Y-55235000D01*
X72796943Y-55232332D01*
X72843842Y-55193842D01*
X72853491Y-55182085D01*
X73861732Y-54173845D01*
X73897701Y-54181000D01*
X74002299Y-54181000D01*
X74104887Y-54160594D01*
X74194753Y-54123370D01*
X76119484Y-54123370D01*
X76149331Y-54221778D01*
X76226501Y-54381745D01*
X76333397Y-54523583D01*
X76465910Y-54641841D01*
X76618948Y-54731975D01*
X76786629Y-54790521D01*
X76927000Y-54755309D01*
X76927000Y-53983000D01*
X77073000Y-53983000D01*
X77073000Y-54755309D01*
X77213371Y-54790521D01*
X77381052Y-54731975D01*
X77534090Y-54641841D01*
X77666603Y-54523583D01*
X77773499Y-54381745D01*
X77850669Y-54221778D01*
X77880516Y-54123370D01*
X77845103Y-53983000D01*
X77073000Y-53983000D01*
X76927000Y-53983000D01*
X76154897Y-53983000D01*
X76119484Y-54123370D01*
X74194753Y-54123370D01*
X74201523Y-54120566D01*
X74288493Y-54062454D01*
X74362454Y-53988493D01*
X74420566Y-53901523D01*
X74460594Y-53804887D01*
X74481000Y-53702299D01*
X74481000Y-53696630D01*
X76119484Y-53696630D01*
X76154897Y-53837000D01*
X76927000Y-53837000D01*
X76927000Y-53064691D01*
X77073000Y-53064691D01*
X77073000Y-53837000D01*
X77845103Y-53837000D01*
X77880516Y-53696630D01*
X77850669Y-53598222D01*
X77773499Y-53438255D01*
X77666603Y-53296417D01*
X77534090Y-53178159D01*
X77381052Y-53088025D01*
X77213371Y-53029479D01*
X77073000Y-53064691D01*
X76927000Y-53064691D01*
X76786629Y-53029479D01*
X76618948Y-53088025D01*
X76465910Y-53178159D01*
X76333397Y-53296417D01*
X76226501Y-53438255D01*
X76149331Y-53598222D01*
X76119484Y-53696630D01*
X74481000Y-53696630D01*
X74481000Y-53597701D01*
X74460594Y-53495113D01*
X74420566Y-53398477D01*
X74362454Y-53311507D01*
X74288493Y-53237546D01*
X74201523Y-53179434D01*
X74115880Y-53143960D01*
X75136470Y-52123370D01*
X76119484Y-52123370D01*
X76149331Y-52221778D01*
X76226501Y-52381745D01*
X76333397Y-52523583D01*
X76465910Y-52641841D01*
X76618948Y-52731975D01*
X76786629Y-52790521D01*
X76927000Y-52755309D01*
X76927000Y-51983000D01*
X77073000Y-51983000D01*
X77073000Y-52755309D01*
X77213371Y-52790521D01*
X77381052Y-52731975D01*
X77534090Y-52641841D01*
X77666603Y-52523583D01*
X77773499Y-52381745D01*
X77850669Y-52221778D01*
X77880516Y-52123370D01*
X77845103Y-51983000D01*
X77073000Y-51983000D01*
X76927000Y-51983000D01*
X76154897Y-51983000D01*
X76119484Y-52123370D01*
X75136470Y-52123370D01*
X75563210Y-51696630D01*
X76119484Y-51696630D01*
X76154897Y-51837000D01*
X76927000Y-51837000D01*
X76927000Y-51064691D01*
X77073000Y-51064691D01*
X77073000Y-51837000D01*
X77845103Y-51837000D01*
X77880516Y-51696630D01*
X77850669Y-51598222D01*
X77773499Y-51438255D01*
X77666603Y-51296417D01*
X77534090Y-51178159D01*
X77381052Y-51088025D01*
X77213371Y-51029479D01*
X77073000Y-51064691D01*
X76927000Y-51064691D01*
X76786629Y-51029479D01*
X76618948Y-51088025D01*
X76465910Y-51178159D01*
X76333397Y-51296417D01*
X76226501Y-51438255D01*
X76149331Y-51598222D01*
X76119484Y-51696630D01*
X75563210Y-51696630D01*
X79307096Y-47952746D01*
X79318842Y-47943106D01*
X79328482Y-47931360D01*
X79328485Y-47931357D01*
X79357331Y-47896208D01*
X79376505Y-47860337D01*
X79385931Y-47842701D01*
X79403543Y-47784643D01*
X79408000Y-47739392D01*
X79408000Y-47739383D01*
X79409489Y-47724265D01*
X79408000Y-47709147D01*
X79408000Y-42815120D01*
X79409489Y-42800000D01*
X79408000Y-42784880D01*
X79408000Y-42784872D01*
X79403543Y-42739621D01*
X79385931Y-42681563D01*
X79357332Y-42628057D01*
X79332292Y-42597546D01*
X79328486Y-42592908D01*
X79328482Y-42592904D01*
X79318842Y-42581158D01*
X79307097Y-42571519D01*
X77980607Y-41245030D01*
X78021409Y-41245030D01*
X78161483Y-41217167D01*
X78293430Y-41162513D01*
X78412180Y-41083167D01*
X78513167Y-40982180D01*
X78592513Y-40863430D01*
X78647167Y-40731483D01*
X78675030Y-40591409D01*
X78675030Y-40448591D01*
X78647167Y-40308517D01*
X78592513Y-40176570D01*
X78513167Y-40057820D01*
X78412180Y-39956833D01*
X78293430Y-39877487D01*
X78161483Y-39822833D01*
X78021409Y-39794970D01*
X77878591Y-39794970D01*
X77738517Y-39822833D01*
X77606570Y-39877487D01*
X77487820Y-39956833D01*
X77386833Y-40057820D01*
X77307487Y-40176570D01*
X77252833Y-40308517D01*
X77224970Y-40448591D01*
X77224970Y-40489393D01*
X76108000Y-39372424D01*
X76108000Y-35368716D01*
X76210240Y-35368716D01*
X76210240Y-35511284D01*
X76238054Y-35651113D01*
X76292612Y-35782829D01*
X76371819Y-35901370D01*
X76472630Y-36002181D01*
X76591171Y-36081388D01*
X76722887Y-36135946D01*
X76862716Y-36163760D01*
X77005284Y-36163760D01*
X77145113Y-36135946D01*
X77276829Y-36081388D01*
X77395370Y-36002181D01*
X77496181Y-35901370D01*
X77575388Y-35782829D01*
X77629946Y-35651113D01*
X77657760Y-35511284D01*
X77657760Y-35368716D01*
X78242240Y-35368716D01*
X78242240Y-35511284D01*
X78270054Y-35651113D01*
X78324612Y-35782829D01*
X78403819Y-35901370D01*
X78504630Y-36002181D01*
X78623171Y-36081388D01*
X78754887Y-36135946D01*
X78894716Y-36163760D01*
X79037284Y-36163760D01*
X79177113Y-36135946D01*
X79308829Y-36081388D01*
X79427370Y-36002181D01*
X79528181Y-35901370D01*
X79607388Y-35782829D01*
X79661946Y-35651113D01*
X79689760Y-35511284D01*
X79689760Y-35368716D01*
X79661946Y-35228887D01*
X79607388Y-35097171D01*
X79528181Y-34978630D01*
X79427370Y-34877819D01*
X79308829Y-34798612D01*
X79177113Y-34744054D01*
X79037284Y-34716240D01*
X78894716Y-34716240D01*
X78754887Y-34744054D01*
X78623171Y-34798612D01*
X78504630Y-34877819D01*
X78403819Y-34978630D01*
X78324612Y-35097171D01*
X78270054Y-35228887D01*
X78242240Y-35368716D01*
X77657760Y-35368716D01*
X77629946Y-35228887D01*
X77575388Y-35097171D01*
X77496181Y-34978630D01*
X77395370Y-34877819D01*
X77276829Y-34798612D01*
X77145113Y-34744054D01*
X77005284Y-34716240D01*
X76862716Y-34716240D01*
X76722887Y-34744054D01*
X76591171Y-34798612D01*
X76472630Y-34877819D01*
X76371819Y-34978630D01*
X76292612Y-35097171D01*
X76238054Y-35228887D01*
X76210240Y-35368716D01*
X76108000Y-35368716D01*
X76108000Y-32415120D01*
X76109489Y-32400000D01*
X76108000Y-32384880D01*
X76108000Y-32384872D01*
X76103543Y-32339621D01*
X76099254Y-32325480D01*
X76085931Y-32281563D01*
X76072979Y-32257331D01*
X76057332Y-32228057D01*
X76032192Y-32197424D01*
X76028486Y-32192908D01*
X76028482Y-32192904D01*
X76018842Y-32181158D01*
X76007097Y-32171519D01*
X73228491Y-29392915D01*
X73218842Y-29381158D01*
X73171943Y-29342668D01*
X73118437Y-29314069D01*
X73060379Y-29296457D01*
X73015128Y-29292000D01*
X73015120Y-29292000D01*
X73000000Y-29290511D01*
X72984880Y-29292000D01*
X71032829Y-29292000D01*
X71012454Y-29261507D01*
X70938493Y-29187546D01*
X70907217Y-29166648D01*
X70913493Y-29162454D01*
X70987454Y-29088493D01*
X71045566Y-29001523D01*
X71085594Y-28904887D01*
X71106000Y-28802299D01*
X71106000Y-28697701D01*
X71085594Y-28595113D01*
X71045566Y-28498477D01*
X70987454Y-28411507D01*
X70913493Y-28337546D01*
X70826523Y-28279434D01*
X70729887Y-28239406D01*
X70627299Y-28219000D01*
X70522701Y-28219000D01*
X70486732Y-28226155D01*
X69358000Y-27097424D01*
X69358000Y-26697701D01*
X75569000Y-26697701D01*
X75569000Y-26802299D01*
X75589406Y-26904887D01*
X75629434Y-27001523D01*
X75687546Y-27088493D01*
X75761507Y-27162454D01*
X75848477Y-27220566D01*
X75945113Y-27260594D01*
X76047701Y-27281000D01*
X76094000Y-27281000D01*
X76094000Y-27327299D01*
X76114406Y-27429887D01*
X76154434Y-27526523D01*
X76212546Y-27613493D01*
X76286507Y-27687454D01*
X76373477Y-27745566D01*
X76470113Y-27785594D01*
X76572701Y-27806000D01*
X76644000Y-27806000D01*
X76644000Y-27877299D01*
X76664406Y-27979887D01*
X76704434Y-28076523D01*
X76762546Y-28163493D01*
X76836507Y-28237454D01*
X76923477Y-28295566D01*
X77020113Y-28335594D01*
X77122701Y-28356000D01*
X77227299Y-28356000D01*
X77329887Y-28335594D01*
X77426523Y-28295566D01*
X77513493Y-28237454D01*
X77587454Y-28163493D01*
X77645566Y-28076523D01*
X77685594Y-27979887D01*
X77706000Y-27877299D01*
X77706000Y-27772701D01*
X77685594Y-27670113D01*
X77645566Y-27573477D01*
X77587454Y-27486507D01*
X77513493Y-27412546D01*
X77426523Y-27354434D01*
X77329887Y-27314406D01*
X77227299Y-27294000D01*
X77156000Y-27294000D01*
X77156000Y-27222701D01*
X77135594Y-27120113D01*
X77095566Y-27023477D01*
X77037454Y-26936507D01*
X76963493Y-26862546D01*
X76876523Y-26804434D01*
X76779887Y-26764406D01*
X76677299Y-26744000D01*
X76631000Y-26744000D01*
X76631000Y-26697701D01*
X76610594Y-26595113D01*
X76570566Y-26498477D01*
X76512454Y-26411507D01*
X76438493Y-26337546D01*
X76351523Y-26279434D01*
X76254887Y-26239406D01*
X76152299Y-26219000D01*
X76047701Y-26219000D01*
X75945113Y-26239406D01*
X75848477Y-26279434D01*
X75761507Y-26337546D01*
X75687546Y-26411507D01*
X75629434Y-26498477D01*
X75589406Y-26595113D01*
X75569000Y-26697701D01*
X69358000Y-26697701D01*
X69358000Y-24565120D01*
X69359489Y-24550000D01*
X69358000Y-24534880D01*
X69358000Y-24534872D01*
X69353543Y-24489621D01*
X69335931Y-24431563D01*
X69307332Y-24378057D01*
X69305745Y-24376123D01*
X69278486Y-24342908D01*
X69278482Y-24342904D01*
X69268842Y-24331158D01*
X69257096Y-24321518D01*
X68278491Y-23342915D01*
X68268842Y-23331158D01*
X68221943Y-23292668D01*
X68168437Y-23264069D01*
X68110379Y-23246457D01*
X68065128Y-23242000D01*
X68065120Y-23242000D01*
X68050000Y-23240511D01*
X68034880Y-23242000D01*
X32765117Y-23242000D01*
X32749999Y-23240511D01*
X32734881Y-23242000D01*
X32734872Y-23242000D01*
X32689621Y-23246457D01*
X32631563Y-23264069D01*
X32578057Y-23292668D01*
X32578055Y-23292669D01*
X32578056Y-23292669D01*
X32542907Y-23321515D01*
X32542904Y-23321518D01*
X32531158Y-23331158D01*
X32521518Y-23342904D01*
X31188269Y-24676155D01*
X31152299Y-24669000D01*
X31047701Y-24669000D01*
X30945113Y-24689406D01*
X30848477Y-24729434D01*
X30761507Y-24787546D01*
X30687546Y-24861507D01*
X30629434Y-24948477D01*
X30589406Y-25045113D01*
X30569000Y-25147701D01*
X20202000Y-25147701D01*
X20202000Y-23202000D01*
X79798000Y-23202000D01*
X79798001Y-66798000D01*
G36*
X74875979Y-32811557D02*
G01*
X74875980Y-39740034D01*
X74874490Y-39755164D01*
X74880436Y-39815543D01*
X74898048Y-39873600D01*
X74898049Y-39873601D01*
X74926648Y-39927107D01*
X74965138Y-39974006D01*
X74976889Y-39983650D01*
X75921928Y-40928690D01*
X75263211Y-40627864D01*
X74408433Y-40420497D01*
X73529858Y-40378645D01*
X72659239Y-40503821D01*
X71828043Y-40791501D01*
X71066312Y-41231287D01*
X70401576Y-41807284D01*
X69857861Y-42498674D01*
X69454818Y-43280468D01*
X69308000Y-43780484D01*
X69308000Y-42627576D01*
X73307097Y-38628481D01*
X73318842Y-38618842D01*
X73328482Y-38607096D01*
X73328486Y-38607092D01*
X73341102Y-38591719D01*
X73357332Y-38571943D01*
X73385931Y-38518437D01*
X73403543Y-38460379D01*
X73408000Y-38415128D01*
X73408000Y-38415120D01*
X73409489Y-38400000D01*
X73408000Y-38384880D01*
X73408000Y-36831020D01*
X73448477Y-36858066D01*
X73545113Y-36898094D01*
X73647701Y-36918500D01*
X73752299Y-36918500D01*
X73854887Y-36898094D01*
X73951523Y-36858066D01*
X74038493Y-36799954D01*
X74112454Y-36725993D01*
X74170566Y-36639023D01*
X74210594Y-36542387D01*
X74231000Y-36439799D01*
X74231000Y-36335201D01*
X74210594Y-36232613D01*
X74170566Y-36135977D01*
X74112454Y-36049007D01*
X74038493Y-35975046D01*
X73951523Y-35916934D01*
X73854887Y-35876906D01*
X73752299Y-35856500D01*
X73647701Y-35856500D01*
X73545113Y-35876906D01*
X73448477Y-35916934D01*
X73408000Y-35943980D01*
X73408000Y-34027576D01*
X73907092Y-33528485D01*
X73918842Y-33518842D01*
X73957332Y-33471943D01*
X73985931Y-33418437D01*
X73988646Y-33409488D01*
X74003543Y-33360380D01*
X74005120Y-33344363D01*
X74008000Y-33315128D01*
X74008000Y-33315121D01*
X74009489Y-33300001D01*
X74008000Y-33284881D01*
X74008000Y-32015119D01*
X74009489Y-31999999D01*
X74008000Y-31984879D01*
X74008000Y-31984872D01*
X74003543Y-31939621D01*
X74003325Y-31938902D01*
X74875979Y-32811557D01*
X74875979Y-32811557D01*
G37*
X74875979Y-32811557D02*
X74875980Y-39740034D01*
X74874490Y-39755164D01*
X74880436Y-39815543D01*
X74898048Y-39873600D01*
X74898049Y-39873601D01*
X74926648Y-39927107D01*
X74965138Y-39974006D01*
X74976889Y-39983650D01*
X75921928Y-40928690D01*
X75263211Y-40627864D01*
X74408433Y-40420497D01*
X73529858Y-40378645D01*
X72659239Y-40503821D01*
X71828043Y-40791501D01*
X71066312Y-41231287D01*
X70401576Y-41807284D01*
X69857861Y-42498674D01*
X69454818Y-43280468D01*
X69308000Y-43780484D01*
X69308000Y-42627576D01*
X73307097Y-38628481D01*
X73318842Y-38618842D01*
X73328482Y-38607096D01*
X73328486Y-38607092D01*
X73341102Y-38591719D01*
X73357332Y-38571943D01*
X73385931Y-38518437D01*
X73403543Y-38460379D01*
X73408000Y-38415128D01*
X73408000Y-38415120D01*
X73409489Y-38400000D01*
X73408000Y-38384880D01*
X73408000Y-36831020D01*
X73448477Y-36858066D01*
X73545113Y-36898094D01*
X73647701Y-36918500D01*
X73752299Y-36918500D01*
X73854887Y-36898094D01*
X73951523Y-36858066D01*
X74038493Y-36799954D01*
X74112454Y-36725993D01*
X74170566Y-36639023D01*
X74210594Y-36542387D01*
X74231000Y-36439799D01*
X74231000Y-36335201D01*
X74210594Y-36232613D01*
X74170566Y-36135977D01*
X74112454Y-36049007D01*
X74038493Y-35975046D01*
X73951523Y-35916934D01*
X73854887Y-35876906D01*
X73752299Y-35856500D01*
X73647701Y-35856500D01*
X73545113Y-35876906D01*
X73448477Y-35916934D01*
X73408000Y-35943980D01*
X73408000Y-34027576D01*
X73907092Y-33528485D01*
X73918842Y-33518842D01*
X73957332Y-33471943D01*
X73985931Y-33418437D01*
X73988646Y-33409488D01*
X74003543Y-33360380D01*
X74005120Y-33344363D01*
X74008000Y-33315128D01*
X74008000Y-33315121D01*
X74009489Y-33300001D01*
X74008000Y-33284881D01*
X74008000Y-32015119D01*
X74009489Y-31999999D01*
X74008000Y-31984879D01*
X74008000Y-31984872D01*
X74003543Y-31939621D01*
X74003325Y-31938902D01*
X74875979Y-32811557D01*
M02*
