G04 #@! TF.GenerationSoftware,KiCad,Pcbnew,5.1.2*
G04 #@! TF.CreationDate,2019-05-22T13:07:44+02:00*
G04 #@! TF.ProjectId,PAC5523,50414335-3532-4332-9e6b-696361645f70,rev?*
G04 #@! TF.SameCoordinates,Original*
G04 #@! TF.FileFunction,Legend,Bot*
G04 #@! TF.FilePolarity,Positive*
%FSLAX46Y46*%
G04 Gerber Fmt 4.6, Leading zero omitted, Abs format (unit mm)*
G04 Created by KiCad (PCBNEW 5.1.2) date 2019-05-22 13:07:44*
%MOMM*%
%LPD*%
G04 APERTURE LIST*
%ADD10C,0.100000*%
%ADD11C,0.150000*%
%ADD12C,0.050000*%
G04 APERTURE END LIST*
D10*
X22714285Y-24070000D02*
X22657142Y-24098571D01*
X22571428Y-24098571D01*
X22485714Y-24070000D01*
X22428571Y-24012857D01*
X22400000Y-23955714D01*
X22371428Y-23841428D01*
X22371428Y-23755714D01*
X22400000Y-23641428D01*
X22428571Y-23584285D01*
X22485714Y-23527142D01*
X22571428Y-23498571D01*
X22628571Y-23498571D01*
X22714285Y-23527142D01*
X22742857Y-23555714D01*
X22742857Y-23755714D01*
X22628571Y-23755714D01*
X23000000Y-23498571D02*
X23000000Y-24098571D01*
X23342857Y-23498571D01*
X23342857Y-24098571D01*
X23628571Y-23498571D02*
X23628571Y-24098571D01*
X23771428Y-24098571D01*
X23857142Y-24070000D01*
X23914285Y-24012857D01*
X23942857Y-23955714D01*
X23971428Y-23841428D01*
X23971428Y-23755714D01*
X23942857Y-23641428D01*
X23914285Y-23584285D01*
X23857142Y-23527142D01*
X23771428Y-23498571D01*
X23628571Y-23498571D01*
X24685714Y-23498571D02*
X24685714Y-24098571D01*
X24685714Y-23812857D02*
X25028571Y-23812857D01*
X25028571Y-23498571D02*
X25028571Y-24098571D01*
X25257142Y-24098571D02*
X25628571Y-24098571D01*
X25428571Y-23870000D01*
X25514285Y-23870000D01*
X25571428Y-23841428D01*
X25600000Y-23812857D01*
X25628571Y-23755714D01*
X25628571Y-23612857D01*
X25600000Y-23555714D01*
X25571428Y-23527142D01*
X25514285Y-23498571D01*
X25342857Y-23498571D01*
X25285714Y-23527142D01*
X25257142Y-23555714D01*
X26342857Y-23498571D02*
X26342857Y-24098571D01*
X26342857Y-23812857D02*
X26685714Y-23812857D01*
X26685714Y-23498571D02*
X26685714Y-24098571D01*
X26942857Y-24041428D02*
X26971428Y-24070000D01*
X27028571Y-24098571D01*
X27171428Y-24098571D01*
X27228571Y-24070000D01*
X27257142Y-24041428D01*
X27285714Y-23984285D01*
X27285714Y-23927142D01*
X27257142Y-23841428D01*
X26914285Y-23498571D01*
X27285714Y-23498571D01*
X28000000Y-23498571D02*
X28000000Y-24098571D01*
X28000000Y-23812857D02*
X28342857Y-23812857D01*
X28342857Y-23498571D02*
X28342857Y-24098571D01*
X28942857Y-23498571D02*
X28600000Y-23498571D01*
X28771428Y-23498571D02*
X28771428Y-24098571D01*
X28714285Y-24012857D01*
X28657142Y-23955714D01*
X28600000Y-23927142D01*
X29571428Y-24098571D02*
X29771428Y-23498571D01*
X29971428Y-24098571D01*
X30171428Y-23498571D02*
X30171428Y-24098571D01*
X30571428Y-24098571D02*
X30685714Y-24098571D01*
X30742857Y-24070000D01*
X30800000Y-24012857D01*
X30828571Y-23898571D01*
X30828571Y-23698571D01*
X30800000Y-23584285D01*
X30742857Y-23527142D01*
X30685714Y-23498571D01*
X30571428Y-23498571D01*
X30514285Y-23527142D01*
X30457142Y-23584285D01*
X30428571Y-23698571D01*
X30428571Y-23898571D01*
X30457142Y-24012857D01*
X30514285Y-24070000D01*
X30571428Y-24098571D01*
X34785714Y-24080000D02*
X34728571Y-24108571D01*
X34642857Y-24108571D01*
X34557142Y-24080000D01*
X34500000Y-24022857D01*
X34471428Y-23965714D01*
X34442857Y-23851428D01*
X34442857Y-23765714D01*
X34471428Y-23651428D01*
X34500000Y-23594285D01*
X34557142Y-23537142D01*
X34642857Y-23508571D01*
X34700000Y-23508571D01*
X34785714Y-23537142D01*
X34814285Y-23565714D01*
X34814285Y-23765714D01*
X34700000Y-23765714D01*
X35071428Y-23508571D02*
X35071428Y-24108571D01*
X35414285Y-23508571D01*
X35414285Y-24108571D01*
X35700000Y-23508571D02*
X35700000Y-24108571D01*
X35842857Y-24108571D01*
X35928571Y-24080000D01*
X35985714Y-24022857D01*
X36014285Y-23965714D01*
X36042857Y-23851428D01*
X36042857Y-23765714D01*
X36014285Y-23651428D01*
X35985714Y-23594285D01*
X35928571Y-23537142D01*
X35842857Y-23508571D01*
X35700000Y-23508571D01*
X36957142Y-23822857D02*
X37042857Y-23794285D01*
X37071428Y-23765714D01*
X37100000Y-23708571D01*
X37100000Y-23622857D01*
X37071428Y-23565714D01*
X37042857Y-23537142D01*
X36985714Y-23508571D01*
X36757142Y-23508571D01*
X36757142Y-24108571D01*
X36957142Y-24108571D01*
X37014285Y-24080000D01*
X37042857Y-24051428D01*
X37071428Y-23994285D01*
X37071428Y-23937142D01*
X37042857Y-23880000D01*
X37014285Y-23851428D01*
X36957142Y-23822857D01*
X36757142Y-23822857D01*
X37357142Y-23737142D02*
X37814285Y-23737142D01*
X38757142Y-23822857D02*
X38842857Y-23794285D01*
X38871428Y-23765714D01*
X38900000Y-23708571D01*
X38900000Y-23622857D01*
X38871428Y-23565714D01*
X38842857Y-23537142D01*
X38785714Y-23508571D01*
X38557142Y-23508571D01*
X38557142Y-24108571D01*
X38757142Y-24108571D01*
X38814285Y-24080000D01*
X38842857Y-24051428D01*
X38871428Y-23994285D01*
X38871428Y-23937142D01*
X38842857Y-23880000D01*
X38814285Y-23851428D01*
X38757142Y-23822857D01*
X38557142Y-23822857D01*
X39157142Y-23737142D02*
X39614285Y-23737142D01*
X39385714Y-23508571D02*
X39385714Y-23965714D01*
X40328571Y-23680000D02*
X40614285Y-23680000D01*
X40271428Y-23508571D02*
X40471428Y-24108571D01*
X40671428Y-23508571D01*
X40871428Y-23737142D02*
X41328571Y-23737142D01*
X42042857Y-23680000D02*
X42328571Y-23680000D01*
X41985714Y-23508571D02*
X42185714Y-24108571D01*
X42385714Y-23508571D01*
X42585714Y-23737142D02*
X43042857Y-23737142D01*
X42814285Y-23508571D02*
X42814285Y-23965714D01*
X43785714Y-23737142D02*
X44242857Y-23737142D01*
X44014285Y-23508571D02*
X44014285Y-23965714D01*
X44814285Y-24108571D02*
X44528571Y-24108571D01*
X44500000Y-23822857D01*
X44528571Y-23851428D01*
X44585714Y-23880000D01*
X44728571Y-23880000D01*
X44785714Y-23851428D01*
X44814285Y-23822857D01*
X44842857Y-23765714D01*
X44842857Y-23622857D01*
X44814285Y-23565714D01*
X44785714Y-23537142D01*
X44728571Y-23508571D01*
X44585714Y-23508571D01*
X44528571Y-23537142D01*
X44500000Y-23565714D01*
X45014285Y-24108571D02*
X45214285Y-23508571D01*
X45414285Y-24108571D01*
X63890000Y-23508571D02*
X63890000Y-24108571D01*
X64232857Y-23508571D01*
X64232857Y-24108571D01*
X64432857Y-24108571D02*
X64775714Y-24108571D01*
X64604285Y-23508571D02*
X64604285Y-24108571D01*
X65318571Y-23565714D02*
X65290000Y-23537142D01*
X65204285Y-23508571D01*
X65147142Y-23508571D01*
X65061428Y-23537142D01*
X65004285Y-23594285D01*
X64975714Y-23651428D01*
X64947142Y-23765714D01*
X64947142Y-23851428D01*
X64975714Y-23965714D01*
X65004285Y-24022857D01*
X65061428Y-24080000D01*
X65147142Y-24108571D01*
X65204285Y-24108571D01*
X65290000Y-24080000D01*
X65318571Y-24051428D01*
X70932857Y-24080000D02*
X70875714Y-24108571D01*
X70790000Y-24108571D01*
X70704285Y-24080000D01*
X70647142Y-24022857D01*
X70618571Y-23965714D01*
X70590000Y-23851428D01*
X70590000Y-23765714D01*
X70618571Y-23651428D01*
X70647142Y-23594285D01*
X70704285Y-23537142D01*
X70790000Y-23508571D01*
X70847142Y-23508571D01*
X70932857Y-23537142D01*
X70961428Y-23565714D01*
X70961428Y-23765714D01*
X70847142Y-23765714D01*
X71218571Y-23508571D02*
X71218571Y-24108571D01*
X71561428Y-23508571D01*
X71561428Y-24108571D01*
X71847142Y-23508571D02*
X71847142Y-24108571D01*
X71990000Y-24108571D01*
X72075714Y-24080000D01*
X72132857Y-24022857D01*
X72161428Y-23965714D01*
X72190000Y-23851428D01*
X72190000Y-23765714D01*
X72161428Y-23651428D01*
X72132857Y-23594285D01*
X72075714Y-23537142D01*
X71990000Y-23508571D01*
X71847142Y-23508571D01*
X72875714Y-23537142D02*
X72961428Y-23508571D01*
X73104285Y-23508571D01*
X73161428Y-23537142D01*
X73190000Y-23565714D01*
X73218571Y-23622857D01*
X73218571Y-23680000D01*
X73190000Y-23737142D01*
X73161428Y-23765714D01*
X73104285Y-23794285D01*
X72990000Y-23822857D01*
X72932857Y-23851428D01*
X72904285Y-23880000D01*
X72875714Y-23937142D01*
X72875714Y-23994285D01*
X72904285Y-24051428D01*
X72932857Y-24080000D01*
X72990000Y-24108571D01*
X73132857Y-24108571D01*
X73218571Y-24080000D01*
X73475714Y-23508571D02*
X73475714Y-24108571D01*
X73818571Y-23508571D02*
X73561428Y-23851428D01*
X73818571Y-24108571D02*
X73475714Y-23765714D01*
X74332857Y-24108571D02*
X74218571Y-24108571D01*
X74161428Y-24080000D01*
X74132857Y-24051428D01*
X74075714Y-23965714D01*
X74047142Y-23851428D01*
X74047142Y-23622857D01*
X74075714Y-23565714D01*
X74104285Y-23537142D01*
X74161428Y-23508571D01*
X74275714Y-23508571D01*
X74332857Y-23537142D01*
X74361428Y-23565714D01*
X74390000Y-23622857D01*
X74390000Y-23765714D01*
X74361428Y-23822857D01*
X74332857Y-23851428D01*
X74275714Y-23880000D01*
X74161428Y-23880000D01*
X74104285Y-23851428D01*
X74075714Y-23822857D01*
X74047142Y-23765714D01*
X74732857Y-23851428D02*
X74675714Y-23880000D01*
X74647142Y-23908571D01*
X74618571Y-23965714D01*
X74618571Y-23994285D01*
X74647142Y-24051428D01*
X74675714Y-24080000D01*
X74732857Y-24108571D01*
X74847142Y-24108571D01*
X74904285Y-24080000D01*
X74932857Y-24051428D01*
X74961428Y-23994285D01*
X74961428Y-23965714D01*
X74932857Y-23908571D01*
X74904285Y-23880000D01*
X74847142Y-23851428D01*
X74732857Y-23851428D01*
X74675714Y-23822857D01*
X74647142Y-23794285D01*
X74618571Y-23737142D01*
X74618571Y-23622857D01*
X74647142Y-23565714D01*
X74675714Y-23537142D01*
X74732857Y-23508571D01*
X74847142Y-23508571D01*
X74904285Y-23537142D01*
X74932857Y-23565714D01*
X74961428Y-23622857D01*
X74961428Y-23737142D01*
X74932857Y-23794285D01*
X74904285Y-23822857D01*
X74847142Y-23851428D01*
X75532857Y-23508571D02*
X75190000Y-23508571D01*
X75361428Y-23508571D02*
X75361428Y-24108571D01*
X75304285Y-24022857D01*
X75247142Y-23965714D01*
X75190000Y-23937142D01*
X75761428Y-24051428D02*
X75790000Y-24080000D01*
X75847142Y-24108571D01*
X75990000Y-24108571D01*
X76047142Y-24080000D01*
X76075714Y-24051428D01*
X76104285Y-23994285D01*
X76104285Y-23937142D01*
X76075714Y-23851428D01*
X75732857Y-23508571D01*
X76104285Y-23508571D01*
X76818571Y-23737142D02*
X77275714Y-23737142D01*
X77047142Y-23508571D02*
X77047142Y-23965714D01*
X77847142Y-24108571D02*
X77561428Y-24108571D01*
X77532857Y-23822857D01*
X77561428Y-23851428D01*
X77618571Y-23880000D01*
X77761428Y-23880000D01*
X77818571Y-23851428D01*
X77847142Y-23822857D01*
X77875714Y-23765714D01*
X77875714Y-23622857D01*
X77847142Y-23565714D01*
X77818571Y-23537142D01*
X77761428Y-23508571D01*
X77618571Y-23508571D01*
X77561428Y-23537142D01*
X77532857Y-23565714D01*
X78047142Y-24108571D02*
X78247142Y-23508571D01*
X78447142Y-24108571D01*
X74161428Y-64931428D02*
X74361428Y-64645714D01*
X74504285Y-64931428D02*
X74504285Y-64331428D01*
X74275714Y-64331428D01*
X74218571Y-64360000D01*
X74190000Y-64388571D01*
X74161428Y-64445714D01*
X74161428Y-64531428D01*
X74190000Y-64588571D01*
X74218571Y-64617142D01*
X74275714Y-64645714D01*
X74504285Y-64645714D01*
X73961428Y-64331428D02*
X73561428Y-64931428D01*
X73561428Y-64331428D02*
X73961428Y-64931428D01*
X72504285Y-64331428D02*
X72161428Y-64331428D01*
X72332857Y-64931428D02*
X72332857Y-64331428D01*
X72018571Y-64331428D02*
X71618571Y-64931428D01*
X71618571Y-64331428D02*
X72018571Y-64931428D01*
X73761428Y-65337142D02*
X73675714Y-65365714D01*
X73647142Y-65394285D01*
X73618571Y-65451428D01*
X73618571Y-65537142D01*
X73647142Y-65594285D01*
X73675714Y-65622857D01*
X73732857Y-65651428D01*
X73961428Y-65651428D01*
X73961428Y-65051428D01*
X73761428Y-65051428D01*
X73704285Y-65080000D01*
X73675714Y-65108571D01*
X73647142Y-65165714D01*
X73647142Y-65222857D01*
X73675714Y-65280000D01*
X73704285Y-65308571D01*
X73761428Y-65337142D01*
X73961428Y-65337142D01*
X72475714Y-65480000D02*
X72190000Y-65480000D01*
X72532857Y-65651428D02*
X72332857Y-65051428D01*
X72132857Y-65651428D01*
X77400000Y-65830000D02*
X77457142Y-65801428D01*
X77542857Y-65801428D01*
X77628571Y-65830000D01*
X77685714Y-65887142D01*
X77714285Y-65944285D01*
X77742857Y-66058571D01*
X77742857Y-66144285D01*
X77714285Y-66258571D01*
X77685714Y-66315714D01*
X77628571Y-66372857D01*
X77542857Y-66401428D01*
X77485714Y-66401428D01*
X77400000Y-66372857D01*
X77371428Y-66344285D01*
X77371428Y-66144285D01*
X77485714Y-66144285D01*
X77114285Y-66401428D02*
X77114285Y-65801428D01*
X76771428Y-66401428D01*
X76771428Y-65801428D01*
X76485714Y-66401428D02*
X76485714Y-65801428D01*
X76342857Y-65801428D01*
X76257142Y-65830000D01*
X76200000Y-65887142D01*
X76171428Y-65944285D01*
X76142857Y-66058571D01*
X76142857Y-66144285D01*
X76171428Y-66258571D01*
X76200000Y-66315714D01*
X76257142Y-66372857D01*
X76342857Y-66401428D01*
X76485714Y-66401428D01*
X75085714Y-66344285D02*
X75114285Y-66372857D01*
X75200000Y-66401428D01*
X75257142Y-66401428D01*
X75342857Y-66372857D01*
X75400000Y-66315714D01*
X75428571Y-66258571D01*
X75457142Y-66144285D01*
X75457142Y-66058571D01*
X75428571Y-65944285D01*
X75400000Y-65887142D01*
X75342857Y-65830000D01*
X75257142Y-65801428D01*
X75200000Y-65801428D01*
X75114285Y-65830000D01*
X75085714Y-65858571D01*
X74857142Y-66230000D02*
X74571428Y-66230000D01*
X74914285Y-66401428D02*
X74714285Y-65801428D01*
X74514285Y-66401428D01*
X74314285Y-66401428D02*
X74314285Y-65801428D01*
X73971428Y-66401428D01*
X73971428Y-65801428D01*
X73400000Y-66401428D02*
X73685714Y-66401428D01*
X73685714Y-65801428D01*
X72400000Y-66344285D02*
X72428571Y-66372857D01*
X72514285Y-66401428D01*
X72571428Y-66401428D01*
X72657142Y-66372857D01*
X72714285Y-66315714D01*
X72742857Y-66258571D01*
X72771428Y-66144285D01*
X72771428Y-66058571D01*
X72742857Y-65944285D01*
X72714285Y-65887142D01*
X72657142Y-65830000D01*
X72571428Y-65801428D01*
X72514285Y-65801428D01*
X72428571Y-65830000D01*
X72400000Y-65858571D01*
X72171428Y-66230000D02*
X71885714Y-66230000D01*
X72228571Y-66401428D02*
X72028571Y-65801428D01*
X71828571Y-66401428D01*
X71628571Y-66401428D02*
X71628571Y-65801428D01*
X71285714Y-66401428D01*
X71285714Y-65801428D01*
X71000000Y-66401428D02*
X71000000Y-65801428D01*
X71000000Y-66087142D02*
X70657142Y-66087142D01*
X70657142Y-66401428D02*
X70657142Y-65801428D01*
X70000000Y-65801428D02*
X69800000Y-66401428D01*
X69600000Y-65801428D01*
X69057142Y-66344285D02*
X69085714Y-66372857D01*
X69171428Y-66401428D01*
X69228571Y-66401428D01*
X69314285Y-66372857D01*
X69371428Y-66315714D01*
X69400000Y-66258571D01*
X69428571Y-66144285D01*
X69428571Y-66058571D01*
X69400000Y-65944285D01*
X69371428Y-65887142D01*
X69314285Y-65830000D01*
X69228571Y-65801428D01*
X69171428Y-65801428D01*
X69085714Y-65830000D01*
X69057142Y-65858571D01*
X68457142Y-66344285D02*
X68485714Y-66372857D01*
X68571428Y-66401428D01*
X68628571Y-66401428D01*
X68714285Y-66372857D01*
X68771428Y-66315714D01*
X68800000Y-66258571D01*
X68828571Y-66144285D01*
X68828571Y-66058571D01*
X68800000Y-65944285D01*
X68771428Y-65887142D01*
X68714285Y-65830000D01*
X68628571Y-65801428D01*
X68571428Y-65801428D01*
X68485714Y-65830000D01*
X68457142Y-65858571D01*
X64320000Y-65980000D02*
X64377142Y-65951428D01*
X64462857Y-65951428D01*
X64548571Y-65980000D01*
X64605714Y-66037142D01*
X64634285Y-66094285D01*
X64662857Y-66208571D01*
X64662857Y-66294285D01*
X64634285Y-66408571D01*
X64605714Y-66465714D01*
X64548571Y-66522857D01*
X64462857Y-66551428D01*
X64405714Y-66551428D01*
X64320000Y-66522857D01*
X64291428Y-66494285D01*
X64291428Y-66294285D01*
X64405714Y-66294285D01*
X64034285Y-66551428D02*
X64034285Y-65951428D01*
X63691428Y-66551428D01*
X63691428Y-65951428D01*
X63405714Y-66551428D02*
X63405714Y-65951428D01*
X63262857Y-65951428D01*
X63177142Y-65980000D01*
X63120000Y-66037142D01*
X63091428Y-66094285D01*
X63062857Y-66208571D01*
X63062857Y-66294285D01*
X63091428Y-66408571D01*
X63120000Y-66465714D01*
X63177142Y-66522857D01*
X63262857Y-66551428D01*
X63405714Y-66551428D01*
X62377142Y-66380000D02*
X62091428Y-66380000D01*
X62434285Y-66551428D02*
X62234285Y-65951428D01*
X62034285Y-66551428D01*
X61834285Y-66551428D02*
X61834285Y-65951428D01*
X61548571Y-66551428D02*
X61548571Y-65951428D01*
X61205714Y-66551428D01*
X61205714Y-65951428D01*
X60520000Y-65951428D02*
X60148571Y-65951428D01*
X60348571Y-66180000D01*
X60262857Y-66180000D01*
X60205714Y-66208571D01*
X60177142Y-66237142D01*
X60148571Y-66294285D01*
X60148571Y-66437142D01*
X60177142Y-66494285D01*
X60205714Y-66522857D01*
X60262857Y-66551428D01*
X60434285Y-66551428D01*
X60491428Y-66522857D01*
X60520000Y-66494285D01*
X59891428Y-66494285D02*
X59862857Y-66522857D01*
X59891428Y-66551428D01*
X59920000Y-66522857D01*
X59891428Y-66494285D01*
X59891428Y-66551428D01*
X59662857Y-65951428D02*
X59291428Y-65951428D01*
X59491428Y-66180000D01*
X59405714Y-66180000D01*
X59348571Y-66208571D01*
X59320000Y-66237142D01*
X59291428Y-66294285D01*
X59291428Y-66437142D01*
X59320000Y-66494285D01*
X59348571Y-66522857D01*
X59405714Y-66551428D01*
X59577142Y-66551428D01*
X59634285Y-66522857D01*
X59662857Y-66494285D01*
X59120000Y-65951428D02*
X58920000Y-66551428D01*
X58720000Y-65951428D01*
D11*
X30650284Y-45000000D02*
G75*
G03X30650284Y-45000000I-4400284J0D01*
G01*
X78104595Y-45000000D02*
G75*
G03X78104595Y-45000000I-4354595J0D01*
G01*
D12*
X20000000Y-23000000D02*
X80000000Y-23000000D01*
X20000000Y-67000000D02*
X20000000Y-23000000D01*
X80000000Y-67000000D02*
X20000000Y-67000000D01*
X80000000Y-23000000D02*
X80000000Y-67000000D01*
D10*
X61032857Y-32642857D02*
X61051904Y-32623809D01*
X61070952Y-32566666D01*
X61070952Y-32528571D01*
X61051904Y-32471428D01*
X61013809Y-32433333D01*
X60975714Y-32414285D01*
X60899523Y-32395238D01*
X60842380Y-32395238D01*
X60766190Y-32414285D01*
X60728095Y-32433333D01*
X60690000Y-32471428D01*
X60670952Y-32528571D01*
X60670952Y-32566666D01*
X60690000Y-32623809D01*
X60709047Y-32642857D01*
X61070952Y-33023809D02*
X61070952Y-32795238D01*
X61070952Y-32909523D02*
X60670952Y-32909523D01*
X60728095Y-32871428D01*
X60766190Y-32833333D01*
X60785238Y-32795238D01*
X60670952Y-33157142D02*
X60670952Y-33423809D01*
X61070952Y-33252380D01*
M02*
