M48
; DRILL file {KiCad 5.1.2} date Wed 22 May 2019 01:07:51 PM CEST
; FORMAT={-:-/ absolute / inch / decimal}
; #@! TF.CreationDate,2019-05-22T13:07:51+02:00
; #@! TF.GenerationSoftware,Kicad,Pcbnew,5.1.2
; #@! TF.FileFunction,Plated,1,4,PTH
FMAT,2
INCH
T1C0.0118
T2C0.0315
%
G90
G05
T1
X0.8228Y-0.9646
X0.8228Y-1.0512
X0.8543Y-2.4449
X0.874Y-0.9646
X0.874Y-1.0512
X0.9134Y-1.1457
X0.9232Y-2.5453
X1.0748Y-2.4213
X1.0866Y-2.1909
X1.1122Y-2.4429
X1.1152Y-1.2348
X1.1329Y-2.062
X1.1772Y-2.2028
X1.2205Y-0.9646
X1.2205Y-1.0512
X1.2382Y-2.437
X1.2421Y-1.2913
X1.2421Y-2.311
X1.2421Y-2.376
X1.2598Y-1.9055
X1.2717Y-0.9646
X1.2717Y-1.0512
X1.2736Y-2.1339
X1.31Y-1.2174
X1.313Y-1.2539
X1.313Y-1.2874
X1.3173Y-2.2657
X1.3228Y-0.9646
X1.3228Y-1.0512
X1.3579Y-2.122
X1.374Y-0.9646
X1.374Y-1.0512
X1.374Y-1.878
X1.3819Y-2.0756
X1.3882Y-2.265
X1.402Y-2.0957
X1.4168Y-1.122
X1.4264Y-2.1969
X1.4268Y-1.4008
X1.4295Y-2.05
X1.4528Y-1.8071
X1.4567Y-1.7441
X1.4748Y-2.4244
X1.4752Y-2.4504
X1.5Y-0.9488
X1.5Y-1.0394
X1.5Y-1.3425
X1.513Y-2.1193
X1.5224Y-2.1988
X1.5295Y-1.2303
X1.5453Y-1.752
X1.5512Y-1.9567
X1.6378Y-1.5689
X1.6382Y-1.4028
X1.6496Y-1.9567
X1.6614Y-1.8307
X1.7126Y-1.0433
X1.7126Y-0.9488
X1.7185Y-1.1669
X1.7434Y-1.2718
X1.752Y-1.9567
X1.7559Y-1.5079
X1.7618Y-2.2835
X1.7618Y-2.3189
X1.7697Y-1.0512
X1.7948Y-1.2121
X1.7953Y-1.3917
X1.8209Y-1.0512
X1.8386Y-1.7795
X1.8661Y-1.8307
X1.894Y-1.8131
X1.9309Y-2.3709
X2.0157Y-1.4843
X2.0173Y-1.98
X2.0236Y-1.3661
X2.0748Y-2.2677
X2.1063Y-1.4764
X2.126Y-2.3189
X2.1339Y-1.8543
X2.1358Y-1.1102
X2.1432Y-1.7161
X2.1634Y-2.4311
X2.172Y-1.1652
X2.185Y-1.4252
X2.1863Y-1.7087
X2.2064Y-1.7544
X2.2165Y-1.4764
X2.2283Y-1.2756
X2.2441Y-1.7244
X2.252Y-1.7756
X2.2539Y-2.4882
X2.2539Y-2.5748
X2.262Y-1.8246
X2.2781Y-1.3647
X2.2854Y-1.9291
X2.3051Y-2.4882
X2.3051Y-2.5748
X2.3228Y-1.8543
X2.327Y-1.5066
X2.3307Y-2.0453
X2.3346Y-1.2638
X2.3346Y-1.5984
X2.3366Y-1.561
X2.3386Y-1.2992
X2.3465Y-1.9567
X2.3511Y-1.524
X2.3898Y-1.8819
X2.3937Y-1.0512
X2.4016Y-1.1476
X2.4213Y-1.2677
X2.4213Y-1.3346
X2.4291Y-1.6437
X2.435Y-1.3661
X2.4382Y-1.2237
X2.4449Y-1.0512
X2.4547Y-2.3228
X2.4764Y-2.4646
X2.4783Y-1.7461
X2.4803Y-1.4409
X2.4803Y-1.5748
X2.4887Y-2.0605
X2.4961Y-1.2441
X2.5039Y-1.8366
X2.5118Y-1.3031
X2.5531Y-2.4882
X2.5531Y-2.5748
X2.559Y-1.6651
X2.5657Y-1.2428
X2.5669Y-1.3031
X2.5679Y-1.9774
X2.5945Y-1.8189
X2.6043Y-2.4882
X2.6043Y-2.5748
X2.609Y-1.4409
X2.609Y-1.5726
X2.612Y-1.9286
X2.6161Y-1.2323
X2.6208Y-1.1496
X2.6417Y-0.9646
X2.6516Y-2.3642
X2.6594Y-1.626
X2.6791Y-2.4882
X2.6791Y-2.5748
X2.6811Y-1.6969
X2.6902Y-1.3366
X2.6913Y-2.1008
X2.6919Y-1.9596
X2.6929Y-0.9646
X2.6929Y-1.4055
X2.6929Y-1.374
X2.7047Y-1.6082
X2.7067Y-1.6378
X2.7087Y-1.4409
X2.7254Y-1.56
X2.7303Y-2.4882
X2.7303Y-2.5748
X2.74Y-2.2738
X2.7459Y-1.4664
X2.7539Y-1.9006
X2.7579Y-0.9646
X2.7579Y-1.0512
X2.7615Y-1.3114
X2.7638Y-1.3543
X2.7992Y-1.5591
X2.8002Y-1.3927
X2.8012Y-1.5039
X2.8091Y-0.9646
X2.8091Y-1.0512
X2.8839Y-1.1713
X2.9161Y-2.2414
X2.9172Y-1.4961
X2.9193Y-1.4409
X2.935Y-1.3524
X2.9518Y-2.3593
X3.0157Y-1.2913
X3.0228Y-1.2201
X3.0276Y-1.3484
X3.0276Y-2.4882
X3.0276Y-2.5748
X3.0571Y-0.9646
X3.0571Y-1.0512
X3.0787Y-2.4882
X3.0787Y-2.5748
X3.1083Y-0.9646
X3.1083Y-1.0512
X3.1102Y-1.3327
X3.1186Y-1.4313
T2
X3.0315Y-2.0437
X3.0315Y-2.1224
X3.0315Y-2.2012
X0.935Y-2.0437
X0.935Y-2.1224
X0.935Y-2.2012
X1.8898Y-2.1425
X1.9685Y-2.1425
X2.0472Y-2.1425
X2.126Y-2.1425
X2.2047Y-2.1425
X2.2835Y-2.1425
X1.8898Y-1.0346
X1.9685Y-1.0346
X2.0472Y-1.0346
X2.126Y-1.0346
X2.2047Y-1.0346
X2.2835Y-1.0346
X1.8898Y-1.5827
X1.9685Y-1.5827
X2.0472Y-1.5827
X2.126Y-1.5827
X2.2047Y-1.5827
X2.2835Y-1.5827
T0
M30
